<?xml version="1.0" encoding="UTF-8" standalone="no"?>
<svg
   height="100"
   viewBox="0 0 449.99999 50"
   width="900"
   version="1.1"
   id="svg7"
   sodipodi:docname="emulators.svg"
   xml:space="preserve"
   inkscape:version="1.4 (e7c3feb100, 2024-10-09)"
   xmlns:inkscape="http://www.inkscape.org/namespaces/inkscape"
   xmlns:sodipodi="http://sodipodi.sourceforge.net/DTD/sodipodi-0.dtd"
   xmlns="http://www.w3.org/2000/svg"
   xmlns:svg="http://www.w3.org/2000/svg"><defs
     id="defs7" /><sodipodi:namedview
     id="namedview7"
     pagecolor="#ffffff"
     bordercolor="#000000"
     borderopacity="0.25"
     inkscape:showpageshadow="2"
     inkscape:pageopacity="0.0"
     inkscape:pagecheckerboard="0"
     inkscape:deskcolor="#d1d1d1"
     showguides="false"
     inkscape:zoom="0.5"
     inkscape:cx="333"
     inkscape:cy="482"
     inkscape:window-width="1920"
     inkscape:window-height="1163"
     inkscape:window-x="0"
     inkscape:window-y="0"
     inkscape:window-maximized="1"
     inkscape:current-layer="svg7"><sodipodi:guide
       position="16.7438,-21.998339"
       orientation="0,-1"
       id="guide13"
       inkscape:locked="false" /><sodipodi:guide
       position="15.971971,45.210951"
       orientation="0,-1"
       id="guide14"
       inkscape:locked="false" /><sodipodi:guide
       position="4.2918747,45.56013"
       orientation="1,0"
       id="guide15"
       inkscape:locked="false" /><sodipodi:guide
       position="19.535429,32.092523"
       orientation="1,0"
       id="guide16"
       inkscape:locked="false" /><sodipodi:guide
       position="-2.9599136,37.568363"
       orientation="0,-1"
       id="guide17"
       inkscape:locked="false" /><sodipodi:guide
       position="38.034889,-14.082129"
       orientation="0,-1"
       id="guide18"
       inkscape:locked="false" /><sodipodi:guide
       position="38.774868,73.38332"
       orientation="1,0"
       id="guide19"
       inkscape:locked="false" /><sodipodi:guide
       position="46.174651,31.056553"
       orientation="0,-1"
       id="guide20"
       inkscape:locked="false" /><sodipodi:guide
       position="41.734781,81.67108"
       orientation="1,0"
       id="guide21"
       inkscape:locked="false" /><sodipodi:guide
       position="88.460282,26.67457"
       orientation="1,0"
       id="guide22"
       inkscape:locked="false" /><sodipodi:guide
       position="29.747131,17.144959"
       orientation="0,-1"
       id="guide23"
       inkscape:locked="false" /><sodipodi:guide
       position="31.375084,9.5971794"
       orientation="0,-1"
       id="guide24"
       inkscape:locked="false" /><sodipodi:guide
       position="90.129368,28.392631"
       orientation="1,0"
       id="guide25"
       inkscape:locked="false" /><sodipodi:guide
       position="165.16318,28.392631"
       orientation="0,-1"
       id="guide26"
       inkscape:locked="false" /><sodipodi:guide
       position="48.138424,51.465082"
       orientation="1,0"
       id="guide27"
       inkscape:locked="false" /><sodipodi:guide
       position="57.242865,49.267459"
       orientation="1,0"
       id="guide28"
       inkscape:locked="false" /><sodipodi:guide
       position="82.567862,45.709401"
       orientation="1,0"
       id="guide29"
       inkscape:locked="false" /><sodipodi:guide
       position="72.940177,42.779236"
       orientation="1,0"
       id="guide30"
       inkscape:locked="false" /><sodipodi:guide
       position="97.951228,32.942254"
       orientation="1,0"
       id="guide31"
       inkscape:locked="false" /><sodipodi:guide
       position="100.6721,32.000415"
       orientation="1,0"
       id="guide32"
       inkscape:locked="false" /><sodipodi:guide
       position="120.97395,25.093598"
       orientation="1,0"
       id="guide33"
       inkscape:locked="false" /><sodipodi:guide
       position="123.48552,21.53554"
       orientation="1,0"
       id="guide34"
       inkscape:locked="false" /><sodipodi:guide
       position="131.54348,23.523866"
       orientation="1,0"
       id="guide35"
       inkscape:locked="false" /><sodipodi:guide
       position="134.68294,19.756511"
       orientation="1,0"
       id="guide36"
       inkscape:locked="false" /><sodipodi:guide
       position="149.64771,15.151966"
       orientation="1,0"
       id="guide37"
       inkscape:locked="false" /><sodipodi:guide
       position="10.359697,18.772911"
       orientation="1,0"
       id="guide38"
       inkscape:locked="false" /><sodipodi:guide
       position="31.079092,14.777028"
       orientation="1,0"
       id="guide39"
       inkscape:locked="false" /><sodipodi:guide
       position="46.766634,-3.4264405"
       orientation="0,-1"
       id="guide40"
       inkscape:locked="false" /><sodipodi:guide
       position="21.459373,-5.6463755"
       orientation="1,0"
       id="guide41"
       inkscape:locked="false" /><sodipodi:guide
       position="33.817012,1.5314145"
       orientation="1,0"
       id="guide42"
       inkscape:locked="false" /><sodipodi:guide
       position="103.91621,45.210952"
       orientation="1,0"
       id="guide47"
       inkscape:locked="false" /><sodipodi:guide
       position="117.31125,45.210952"
       orientation="1,0"
       id="guide48"
       inkscape:locked="false" /><sodipodi:guide
       position="106.32313,23.105271"
       orientation="1,0"
       id="guide49"
       inkscape:locked="false" /><sodipodi:guide
       position="115.21827,22.268081"
       orientation="1,0"
       id="guide50"
       inkscape:locked="false" /><sodipodi:guide
       position="201.94762,-6.2770915"
       orientation="1,0"
       id="guide58"
       inkscape:locked="false" /><sodipodi:guide
       position="211.63382,17.14496"
       orientation="1,0"
       id="guide59"
       inkscape:locked="false" /><sodipodi:guide
       position="190.47044,31.056554"
       orientation="1,0"
       id="guide60"
       inkscape:locked="false" /><sodipodi:guide
       position="304.42711,-3.4264405"
       orientation="1,0"
       id="guide62"
       inkscape:locked="false" /><sodipodi:guide
       position="313.60284,-3.4264405"
       orientation="1,0"
       id="guide63"
       inkscape:locked="false" /><sodipodi:guide
       position="298.03963,34.302688"
       orientation="1,0"
       id="guide64"
       inkscape:locked="false" /><sodipodi:guide
       position="319.80657,31.056554"
       orientation="1,0"
       id="guide65"
       inkscape:locked="false" /><sodipodi:guide
       position="309.56163,36.045436"
       orientation="0,-1"
       id="guide66"
       inkscape:locked="false" /><sodipodi:guide
       position="345.43463,-16.981486"
       orientation="1,0"
       id="guide67"
       inkscape:locked="false" /><sodipodi:guide
       position="348.11373,42.724797"
       orientation="1,0"
       id="guide68"
       inkscape:locked="false" /><sodipodi:guide
       position="356.99174,39.704616"
       orientation="1,0"
       id="guide69"
       inkscape:locked="false" /><sodipodi:guide
       position="356.99174,29.593494"
       orientation="0,-1"
       id="guide70"
       inkscape:locked="false" /><sodipodi:guide
       position="324.41112,17.898996"
       orientation="1,0"
       id="guide71"
       inkscape:locked="false" /><sodipodi:guide
       position="338.9101,7.8212314"
       orientation="0,-1"
       id="guide72"
       inkscape:locked="false" /><sodipodi:guide
       position="349.63147,4.5039565"
       orientation="0,-1"
       id="guide73"
       inkscape:locked="false" /><sodipodi:guide
       position="350.25936,-10.748598"
       orientation="0,-1"
       id="guide74"
       inkscape:locked="false" /><sodipodi:guide
       position="334.08214,-18.629957"
       orientation="1,0"
       id="guide75"
       inkscape:locked="false" /><sodipodi:guide
       position="332.36442,-12.789249"
       orientation="1,0"
       id="guide76"
       inkscape:locked="false" /><sodipodi:guide
       position="172.87973,39.273503"
       orientation="1,0"
       id="guide78"
       inkscape:locked="false" /><sodipodi:guide
       position="188.52472,37.568364"
       orientation="1,0"
       id="guide79"
       inkscape:locked="false" /><sodipodi:guide
       position="214.74173,29.593495"
       orientation="1,0"
       id="guide80"
       inkscape:locked="false" /><sodipodi:guide
       position="220.59956,41.314154"
       orientation="1,0"
       id="guide81"
       inkscape:locked="false" /><sodipodi:guide
       position="230.33189,29.593495"
       orientation="1,0"
       id="guide82"
       inkscape:locked="false" /><sodipodi:guide
       position="234.83179,9.5971794"
       orientation="1,0"
       id="guide83"
       inkscape:locked="false" /><sodipodi:guide
       position="193.87434,-3.4264405"
       orientation="1,0"
       id="guide84"
       inkscape:locked="false" /><sodipodi:guide
       position="209.0439,-10.748598"
       orientation="1,0"
       id="guide85"
       inkscape:locked="false" /><sodipodi:guide
       position="425.30639,26.205673"
       orientation="1,0"
       id="guide6"
       inkscape:locked="false" /><sodipodi:guide
       position="419.54839,28.979065"
       orientation="1,0"
       id="guide7"
       inkscape:locked="false" /><sodipodi:guide
       position="424.45067,5.8595153"
       orientation="0,-1"
       id="guide8"
       inkscape:locked="false" /></sodipodi:namedview><path
     style="font-style:italic;font-size:76.0624px;line-height:0px;font-family:'Changa One';-inkscape-font-specification:'Changa One Italic';letter-spacing:0.891357px;word-spacing:0px;clip-rule:evenodd;fill:#ffffff;fill-rule:evenodd;stroke-width:1.9841;stroke-linecap:round;stroke-linejoin:round;stroke-miterlimit:2"
     d="M 75.197138,30.789918 H 60.919737 l -0.976866,5.752094 h 17.508576 l -2.10402,12.109669 H 43.5615 L 51.82733,1.3482835 H 83.237536 L 79.330024,13.457953 H 63.925518 l -1.052,6.357581 H 77.15087 Z M 97.794405,48.651681 H 82.915899 L 93.886893,1.3482835 h 18.635717 l 1.35259,24.0679685 h 0.526 l 9.76875,-24.0679685 h 18.63572 l -5.56066,47.3033975 h -14.95364 l 3.15602,-22.932689 h -0.526 l -9.39299,22.932689 h -10.8959 l -1.57801,-22.932689 h -0.37572 z M 167.58215,1.3482835 161.34519,36.844753 h 5.10975 c 1.75337,0 3.00579,-0.227051 3.75722,-0.681168 0.75145,-0.504585 1.27745,-1.614626 1.57802,-3.33016 l 5.56067,-31.4851415 h 14.27735 l -4.65889,26.5655855 c -0.75149,4.288842 -1.62814,7.745147 -2.63007,10.368909 -0.9518,2.623761 -2.30444,4.843865 -4.05775,6.660316 -1.75337,1.816451 -3.93257,3.077879 -6.53758,3.784272 -2.55488,0.706399 -5.81111,1.059599 -9.7687,1.059599 -6.0616,0 -10.31976,-0.908228 -12.77449,-2.724679 -2.40458,-1.866905 -3.60688,-5.045695 -3.60688,-9.53636 0,-2.472398 0.3509,-5.676414 1.05201,-9.612057 l 4.65889,-26.5655855 z m 53.55656,47.3033975 h -28.55476 l 8.26588,-47.3033975 h 14.27735 l -6.16181,35.1937285 h 14.27735 z m 21.09692,0 H 227.2068 L 246.96967,1.3482835 h 22.09238 l 3.30631,47.3033975 h -15.10393 l -0.30078,-7.492854 h -11.79762 z m 12.84963,-32.771796 -5.26009,13.244953 h 6.01153 V 15.879885 Z m 58.14026,-2.421932 h -10.36984 l -6.08667,35.193728 h -14.27736 l 6.08668,-35.193728 h -10.29475 l 2.17915,-12.1096695 h 34.94201 z m 19.51633,3.708587 -3.45659,19.678213 h 5.93638 c 1.95373,0 3.40652,-0.227051 4.35832,-0.681168 0.95185,-0.504585 1.57801,-1.614626 1.87864,-3.33016 l 3.4566,-19.678213 h -6.01154 c -1.90364,0 -3.33137,0.252318 -4.28317,0.756852 -0.95185,0.454101 -1.57806,1.538937 -1.87864,3.254476 z m 8.6416,-16.95353982 c 6.36218,0 10.89585,1.26142232 13.60107,3.78427202 2.70516,2.4723912 4.05774,6.3071228 4.05774,11.5041868 0,5.197071 -0.82658,10.646418 -2.47973,16.348053 -1.60308,5.651181 -4.18302,10.066168 -7.73982,13.244958 -3.50674,3.128326 -8.66662,4.692495 -15.4797,4.692495 -6.76297,0 -11.49701,-1.236196 -14.20222,-3.708587 -2.70521,-2.52285 -4.05774,-6.382808 -4.05774,-11.579872 0,-2.472391 0.3509,-5.726867 1.05201,-9.763422 0.7013,-4.087014 1.62809,-7.593776 2.7803,-10.520279 1.15222,-2.976961 2.70516,-5.5502646 4.65894,-7.7199144 3.75718,-4.1879253 9.69356,-6.28189042 17.80915,-6.28189042 z M 401.17687,48.651681 H 385.47178 L 382.01514,34.57419 h -3.08088 l -2.40464,14.077491 H 362.25227 L 370.5181,1.3482835 h 22.54323 c 8.5664,0 12.84963,3.8599576 12.84963,11.5798725 0,3.178785 -0.47598,6.206205 -1.42772,9.08225 -1.75338,5.449352 -4.50867,9.082254 -8.26583,10.898705 z m -18.56058,-35.193728 -1.65316,9.46068 h 3.30637 c 1.70323,0 2.98066,-0.176567 3.8323,-0.529796 0.90173,-0.403669 1.50288,-1.488483 1.80351,-3.254476 0.3504,-1.816451 0.526,-2.926503 0.526,-3.33016 0,-1.00914 -0.40053,-1.63985 -1.2023,-1.892137 -0.75148,-0.302751 -11.85023,-0.454101 -13.60359,-0.454101 z m 24.17532,34.36119 4.20809,-12.4881 c 4.20803,1.16051 8.06546,1.740766 11.57214,1.740766 3.50672,0 6.33716,-0.15135 8.49131,-0.454102 l 0.60114,-3.784272 -6.23695,-0.605482 c -4.75915,-0.454101 -8.14061,-1.538941 -10.14447,-3.254475 -1.95373,-1.715539 -2.93059,-4.137472 -2.93059,-7.265799 0,-1.362339 0.15038,-2.876049 0.45065,-4.541129 1.15222,-6.458493 3.23118,-10.8987053 6.23697,-13.3206382 3.05586,-2.4219328 7.76488,-3.6329017 14.12706,-3.6329017 6.36218,0 11.97292,0.63071414 16.83228,1.8921365 l -3.9075,12.1096694 c -4.35838,-0.756853 -7.86511,-1.13528 -10.52019,-1.13528 -2.65509,0 -4.90939,0.126135 -6.76296,0.378452 l -0.60115,3.708588 5.03466,0.529796 c 5.10981,0.555029 8.74176,1.791224 10.8959,3.708586 2.15409,1.866911 3.23117,4.38976 3.23117,7.568545 0,3.229244 -0.70135,6.559405 -2.10401,9.990477 -0.70136,1.765993 -1.47786,3.254476 -2.32945,4.46544 -0.80157,1.160515 -1.85358,2.16965 -3.15607,3.027419 -1.25243,0.807311 -2.4046,1.438025 -3.45666,1.892137 -1.052,0.403667 -2.37952,0.706399 -3.9826,0.908222 -2.35451,0.353184 -5.23507,0.529802 -8.64155,0.529802 -6.21194,0 -11.84775,-0.655941 -16.90742,-1.967821 z"
     id="text1-7"
     aria-label="EMULATORS"
     sodipodi:nodetypes="ccccccccccccccccccccccccccccccccsccccccscscscccccccccccccccccccccccccccccccccccscccsccscsccscscccscccccccsscccccsccscscccsccccsccsccsccccscccccsc" /><path
     id="path2-6"
     style="clip-rule:evenodd;display:inline;fill:#ffffff;fill-rule:evenodd;stroke-width:0.421023;stroke-linecap:round;stroke-linejoin:round;stroke-miterlimit:2"
     d="M 23.66434,5.708062 A 5.4950564,5.4950564 0 0 1 18.16929,11.203118 5.4950564,5.4950564 0 0 1 12.674201,5.708062 5.4950564,5.4950564 0 0 1 18.16929,0.21300514 5.4950564,5.4950564 0 0 1 23.66434,5.708062 Z m -2.848264,17.470242 v 2.294447 c 0,0.0041 -8.63e-4,0.0081 -8.63e-4,0.01216 a 2.5909186,2.5800558 0 0 1 0.01011,0.209985 2.5909186,2.5800558 0 0 1 -2.591391,2.580504 2.5909186,2.5800558 0 0 1 -2.590172,-2.580504 2.5909186,2.5800558 0 0 1 0.01517,-0.09656 c -0.005,-0.04152 -0.01517,-0.08243 -0.01517,-0.125525 v -2.27031 a 7.6005973,4.6974273 0 0 0 -4.977537,4.399411 7.6005973,4.6974273 0 0 0 7.600269,4.697523 7.6005973,4.6974273 0 0 0 7.600319,-4.697523 7.6005973,4.6974273 0 0 0 -5.049945,-4.423549 z M 20.146163,11.610001 a 4.707791,4.707791 0 0 1 -1.976972,0.436683 4.707791,4.707791 0 0 1 -1.788907,-0.362856 v 13.786791 c 0,0.03139 0.005,0.06132 0.01011,0.0914 a 1.8861244,1.8782166 0 0 0 -0.01011,0.07029 1.8861244,1.8782166 0 0 0 1.885576,1.87854 1.8861244,1.8782166 0 0 0 1.88643,-1.87854 1.8861244,1.8782166 0 0 0 -0.005,-0.152869 c 5.9e-5,-0.0028 9.12e-4,-0.0056 9.12e-4,-0.0086 z m 0.667226,8.766267 -0.002,2.311679 c 0,0 0.340276,0.06289 0.461296,0.08613 3.557767,0.783143 5.934305,2.956196 5.935267,5.290321 -1.98e-4,3.048484 -3.998907,5.519513 -8.93143,5.519645 -4.932584,-1.32e-4 -8.9312424,-2.471161 -8.9314407,-5.519645 0.00496,-2.309906 2.3412417,-4.472173 5.8491377,-5.269352 l 0.436984,-0.05438 0.02023,-2.380249 -15.27533633,8.391933 c -0.49268625,0.263559 -0.50129229,0.703842 -0.0202262,0.986718 l 16.54813253,9.71693 c 0.481542,0.282901 1.265585,0.2987 1.758172,0.03494 l 17.379603,-9.298697 c 0.492687,-0.263559 0.500787,-0.704723 0.02023,-0.987599 z M 0.35467487,30.852312 16.539029,40.746328 c 0,0 0.685658,0.43886 1.262045,0.43886 0.562308,0.01418 1.265228,-0.424783 1.265228,-0.424783 L 35.926747,31.3022 32.946427,40.219311 17.843252,49.786954 2.828943,40.163075 Z" /></svg>
