<?xml version="1.0" encoding="UTF-8" standalone="no"?>
<svg
   viewBox="0.2399 107.9331 639.99733 106.56401"
   width="639.99731"
   height="106.564"
   version="1.1"
   id="svg15"
   sodipodi:docname="actionmax.svg"
   inkscape:version="1.4 (e7c3feb100, 2024-10-09)"
   xmlns:inkscape="http://www.inkscape.org/namespaces/inkscape"
   xmlns:sodipodi="http://sodipodi.sourceforge.net/DTD/sodipodi-0.dtd"
   xmlns="http://www.w3.org/2000/svg"
   xmlns:svg="http://www.w3.org/2000/svg">
  <defs
     id="defs15" />
  <sodipodi:namedview
     id="namedview15"
     pagecolor="#ffffff"
     bordercolor="#000000"
     borderopacity="0.25"
     inkscape:showpageshadow="2"
     inkscape:pageopacity="0.0"
     inkscape:pagecheckerboard="0"
     inkscape:deskcolor="#d1d1d1"
     inkscape:zoom="0.5520477"
     inkscape:cx="292.54718"
     inkscape:cy="267.18706"
     inkscape:window-width="1920"
     inkscape:window-height="1164"
     inkscape:window-x="1920"
     inkscape:window-y="0"
     inkscape:window-maximized="1"
     inkscape:current-layer="svg15" />
  <path
     d="m 269.28328,122.59943 2.22595,-13.42774 a 0.80070032,0.79269332 85.6 0 1 0.52846,-0.62455 l 1.56937,-0.55248 a 1.0889524,1.0889524 0 0 1 1.43326,1.21707 q -1.01689,5.66895 -1.8256,10.89753 c -0.39234,2.49017 -1.49731,3.13073 -3.93144,2.49017 z"
     style="fill:#ffffff;stroke-width:0.8007"
     id="path1" />
  <path
     d="m 558.35211,186.02291 q 0.98486,-0.58451 2.23395,-2.12186 10.13687,-12.38683 20.36181,-24.78968 a 1.7215057,1.7134987 51 0 0 0.19217,-1.89766 l -15.97397,-30.25046 a 0.5124482,0.5124482 0 0 1 0.4564,-0.75266 l 26.64731,-0.008 a 1.2570995,1.2731135 76.4 0 1 1.12098,0.67258 l 5.0364,9.53634 a 0.56049022,0.55248322 50.8 0 0 0.92081,0.0961 l 8.31127,-10.00075 a 0.82472133,0.82472133 0 0 1 0.64056,-0.30426 l 31.63567,0.04 q 0.49643,0 0.17615,0.38434 l -28.24871,33.99773 a 0.82472133,0.82472133 0 0 0 -0.0961,0.9128 l 17.8396,33.94169 a 0.52045521,0.52045521 0 0 1 -0.4564,0.76066 q -12.71512,0.0801 -25.63042,-0.024 c -1.59339,-0.016 -2.01776,-0.22419 -2.76241,-1.64944 q -3.13074,-5.98924 -5.78906,-11.28187 a 1.0248964,1.0248964 0 0 0 -1.7055,-0.19217 c -2.12986,2.59427 -9.89665,13.16352 -12.18666,13.16352 q -22.66782,0.008 -44.57498,0.008 a 1.5773796,1.5773796 0 0 1 -1.56937,-1.40122 l -0.80871,-7.23833 a 1.5133236,1.5053166 87.1 0 0 -1.4813,-1.33717 q -7.37445,-0.0641 -14.54072,0.04 c -4.16364,0.0641 -3.02664,9.85662 -7.05417,9.86463 q -23.77279,0.0961 -46.92103,0.0641 a 1.4252466,1.4252466 0 0 1 -1.42525,-1.47329 c 0.1201,-3.52308 1.64944,-35.5511 1.24909,-35.95945 a 0.32828713,0.32828713 0 0 0 -0.53647,0.0801 q -8.83973,18.03978 -17.51932,35.93543 c -0.47241,0.98486 -1.07294,1.29713 -2.11385,1.32916 q -7.46253,0.25622 -14.14037,-0.056 a 1.6654567,1.6654567 0 0 1 -1.56937,-1.40923 l -5.24459,-33.76553 a 0.60853224,0.60052524 48 0 0 -1.18503,-0.0641 q -0.0881,0.33629 -0.024,0.65657 0.0801,0.43238 -0.04,0.84875 l -8.83172,32.66056 a 1.6414357,1.6494427 7.6 0 1 -1.58539,1.21707 l -26.80745,0.016 a 0.88077035,0.88877736 7.8 0 1 -0.84874,-1.12899 q 11.20981,-40.15512 22.34755,-79.50153 0.44839,-1.60941 1.22507,-3.0827 a 0.86475635,0.86475635 0 0 1 0.60052,-0.44839 q 0.58451,-0.1201 1.72952,-0.1201 13.90015,-0.008 27.34391,0.008 a 1.1049664,1.1129734 85.7 0 1 1.09696,0.93682 l 5.70099,35.79131 a 0.40835716,0.40835716 0 0 0 0.77668,0.11209 q 8.51144,-17.78355 17.18303,-35.19078 0.40035,-0.79269 1.01689,-1.38521 a 1.0248964,1.0248964 0 0 1 0.70461,-0.28024 l 29.25759,0.008 a 0.94482638,0.94482638 0 0 1 0.94483,0.97685 c -0.57651,18.72037 -1.44126,37.52882 -2.01777,56.32927 q -0.22419,7.23833 -0.85675,14.42862 a 0.2402101,0.2402101 0 0 0 0.46441,0.11209 c 0.66458,-1.53734 1.73752,-2.9786 2.38609,-4.29175 q 12.72312,-25.99874 25.80657,-51.81332 c 0.90479,-1.79357 1.72951,-1.54535 3.49105,-1.53734 q 12.51495,0.016 25.06192,0.27224 a 0.44839218,0.44038518 85.5 0 1 0.42437,0.36832 q 4.64406,27.87238 9.30414,55.78479 0.26423,1.59339 0.44839,3.2028 a 0.27223811,0.27223811 0 0 0 0.40836,0.20018 z m -28.18465,-32.42837 q -3.35494,7.92694 -6.74991,15.91793 a 0.55248322,0.55248322 0 0 0 0.52046,0.76867 l 8.27924,-0.13612 a 0.36031514,0.35230814 87 0 0 0.3443,-0.39234 l -1.44927,-16.95884 a 0.29625912,0.29625912 0 0 0 -0.48842,-0.20017 c -0.36832,0.32829 -0.30427,0.64857 -0.4564,1.00087 z"
     style="fill:#ffffff;stroke-width:0.8007"
     id="path2" />
  <path
     d="m 19.664955,157.95836 c 7.53459,-14.25247 14.612781,-28.73713 22.12335,-43.07768 a 1.6654567,1.6574497 13.7 0 1 1.473289,-0.88877 h 31.451508 a 0.93681937,0.93681937 0 0 1 0.928813,0.8007 q 3.042661,20.20167 5.95721,40.37931 0.248217,1.68948 0.304266,3.21882 a 0.61653925,0.61653925 0 0 1 -0.616539,0.64056 H 19.961214 a 1.2651065,1.2811205 16.3 0 0 -1.072938,0.59252 l -1.625422,2.62629 a 0.80070032,0.80070032 0 0 1 -0.688602,0.36833 l -15.80582432,-0.2242 a 0.4964342,0.4964342 0 0 1 -0.4884272,-0.48843 l -0.040035,-2.12185 a 0.63255325,0.62454625 81.9 0 1 0.45639918,-0.61654 q 1.28912754,-0.36032 2.55423404,-0.3443 7.6066533,0.12811 15.2533413,-0.14413 a 1.3611905,1.3531835 13 0 0 1.161015,-0.72063 z"
     style="fill:#ffffff;stroke-width:0.8007"
     id="path3" />
  <path
     d="m 269.28328,122.59943 q -2.75441,16.44639 -5.53284,32.88477 -0.19217,1.11297 -0.75266,2.75441 a 0.60052524,0.60052524 0 0 1 -0.53647,0.40835 c -11.52207,0.8007 -23.19629,0.29626 -34.66231,0.16014 a 0.60853224,0.61653925 5.7 0 1 -0.59252,-0.72863 c 3.92343,-20.4579 20.88226,-35.87939 42.0768,-35.47904 z"
     style="fill:#ffffff;stroke-width:0.8007"
     id="path4" />
  <path
     d="m 272.5021,123.4802 a 0.82472133,0.81671433 10.1 0 1 0.96884,-0.67258 c 16.92681,3.24283 30.76291,16.83872 29.39371,35.30287 a 0.7446513,0.7446513 0 0 1 -0.39234,0.60053 c -1.07294,0.56049 -2.02577,0.1121 -2.85049,0.13612 q -16.07807,0.4564 -32.20417,-0.0641 a 0.53646921,0.53646921 0 0 1 -0.51245,-0.62454 z"
     style="fill:#ffffff;stroke-width:0.8007"
     id="path5" />
  <path
     d="m 140.92301,127.40364 a 1.4893026,1.4893026 0 0 1 0.86476,1.56136 q -1.42525,10.38509 -3.69123,20.61003 a 0.78468631,0.78468631 0 0 1 -1.26511,0.44038 c -8.75966,-7.13424 -22.22744,-2.8665 -25.60639,7.73477 a 1.9136738,1.9056668 8.9 0 1 -1.83361,1.32916 l -24.004993,-0.20818 a 0.35230814,0.35230814 0 0 1 -0.336294,-0.41637 c 4.868258,-25.43824 31.315387,-42.22092 55.872867,-31.05115 z"
     style="fill:#ffffff;stroke-width:0.8007"
     id="path6" />
  <path
     d="m 156.08828,146.80461 -13.1395,-0.18417 a 0.55248322,0.55248322 0 0 1 -0.53647,-0.64856 l 3.25885,-18.72038 a 1.2570995,1.2570995 0 0 1 1.24109,-1.04891 h 54.11933 a 0.87276335,0.86475635 5.3 0 1 0.85675,1.02489 l -3.49105,18.80045 a 1.0329034,1.0329034 0 0 1 -1.0329,0.84073 l -12.97935,-0.28825 a 1.1289875,1.1289875 0 0 0 -1.137,0.9208 l -1.87364,10.23295 a 0.82472133,0.84874234 78.8 0 1 -0.40035,0.57651 q -0.95283,0.59252 -2.71437,0.63255 -11.59414,0.25623 -23.16426,-0.0641 a 0.47241319,0.46440619 5.6 0 1 -0.44839,-0.54448 l 1.84961,-11.04166 a 0.42437117,0.41636417 5.2 0 0 -0.40835,-0.48842 z"
     style="fill:#ffffff;stroke-width:0.8007"
     id="path7" />
  <path
     d="m 199.49424,159.05532 a 0.72063029,0.72063029 0 0 1 -0.71262,-0.84074 q 2.47416,-14.97309 5.30864,-29.83409 c 0.31227,-1.63343 1.12899,-2.24196 2.7464,-2.23395 q 11.94645,0.056 23.7808,0.19216 a 0.26423111,0.27223811 3.8 0 1 0.26423,0.30427 q -2.24997,15.82184 -5.61291,31.45151 a 1.1049664,1.1049664 0 0 1 -1.08094,0.86476 z"
     style="fill:#ffffff;stroke-width:0.8007"
     id="path8" />
  <path
     d="m 350.00188,154.24311 q 1.12899,2.38609 1.56937,-0.2242 l 4.53197,-26.77541 a 1.2170645,1.2170645 0 0 1 1.20105,-1.01689 l 24.33328,-0.032 a 0.44839218,0.45639918 4.8 0 1 0.44038,0.52846 l -11.99449,68.3718 a 1.3932186,1.4092326 5.1 0 1 -1.3772,1.16102 l -23.35643,0.016 a 2.0257718,2.0097578 78.2 0 1 -1.84962,-1.21706 L 330.72102,165.2928 a 0.36031514,0.36031514 0 0 0 -0.68861,0.0801 l -5.3727,29.73 a 1.4092326,1.4092326 0 0 1 -1.38521,1.16101 h -23.24433 a 1.1209804,1.1209804 0 0 1 -1.10496,-1.31314 l 5.44476,-31.41949 a 1.4172396,1.4252466 5.3 0 1 1.41724,-1.18503 l 10.48917,0.12811 a 0.88877736,0.88077035 18.8 0 0 0.69661,-0.33629 q 1.10497,-1.41724 0.21619,-2.92256 a 0.77667931,0.78468631 75 0 0 -0.67259,-0.38434 h -10.65732 a 0.56049022,0.55248322 5.1 0 1 -0.55248,-0.65657 l 5.46878,-30.63479 a 1.6174146,1.6174146 0 0 1 1.59339,-1.32917 l 23.62867,-0.008 a 1.0889524,1.1129734 77.6 0 1 1.00088,0.62454 z"
     style="fill:#ffffff;stroke-width:0.8007"
     id="path9" />
  <path
     d="m 38.449385,185.03004 a 1.9937438,1.9937438 0 0 0 -1.89766,1.3772 l -2.890528,8.9198 a 1.3531835,1.3531835 0 0 1 -1.289128,0.93682 l -31.58762732,-0.016 A 0.28024511,0.28024511 0 0 1 0.53622459,195.83949 L 16.982609,163.29903 a 1.1450015,1.1129734 1.9 0 1 0.600525,-0.54447 q 1.505317,-0.58452 2.281996,-0.57651 30.322521,0.21619 61.974205,0.24822 a 0.84073534,0.84073534 0 0 1 0.832728,0.72063 l 4.563992,31.65168 a 1.2490925,1.2490925 0 0 1 -1.233078,1.42525 l -27.448007,0.0641 a 1.4332536,1.4252466 89.8 0 1 -1.425247,-1.42524 l -0.04804,-8.80771 a 0.9928684,0.9928684 0 0 0 -0.992868,-0.99286 z"
     style="fill:#ffffff;stroke-width:0.8007"
     id="path10" />
  <path
     d="m 110.53643,163.09886 c 2.79445,11.00963 14.06831,13.99624 23.13224,8.43137 a 0.46440619,0.46440619 0 0 1 0.70461,0.48042 l -4.36381,24.07706 a 1.1850365,1.1930435 88.2 0 1 -0.88878,0.94483 q -14.81296,3.53108 -26.72738,-2.75441 C 91.023368,188.28088 84.753884,177.05506 84.649793,164.1718 c -0.01601,-2.87452 1.457275,-1.74553 3.234829,-1.74553 q 10.921553,0.016 21.795068,0.008 a 0.88077035,0.88077035 0 0 1 0.85674,0.66458 z"
     style="fill:#ffffff;stroke-width:0.8007"
     id="path11" />
  <path
     d="m 156.03223,162.38623 q 11.95445,0.13612 23.70073,-0.016 a 0.72863729,0.72063029 4.8 0 1 0.72063,0.84874 l -5.54886,31.7878 a 1.5053166,1.5053166 0 0 1 -1.48129,1.2491 l -24.47741,0.008 a 0.79269332,0.79269332 0 0 1 -0.78469,-0.92881 q 2.59427,-15.62967 5.44476,-31.30738 c 0.31228,-1.73752 0.93682,-1.65745 2.42613,-1.64144 z"
     style="fill:#ffffff;stroke-width:0.8007"
     id="path12" />
  <path
     d="m 218.8872,195.53523 a 0.88877736,0.88877736 0 0 1 -0.87276,0.72063 l -24.78168,0.008 a 0.4964342,0.4884272 83.5 0 1 -0.48042,-0.38433 q -0.29626,-1.33717 -0.04,-2.88252 2.50619,-14.93306 5.23658,-29.90616 a 1.0889524,1.0969594 5.8 0 1 1.08895,-0.89678 l 24.99786,0.28825 a 0.37632915,0.37632915 0 0 1 0.36833,0.38433 q -0.04,1.89766 -0.36032,3.7713 -2.45014,14.44464 -5.15651,28.89728 z"
     style="fill:#ffffff;stroke-width:0.8007"
     id="path13" />
  <path
     d="m 226.9983,163.01078 a 0.60052524,0.59251824 0.8 0 1 0.60052,-0.5765 l 34.05379,-0.04 a 0.72863729,0.72863729 0 0 1 0.72063,0.84074 q -2.27399,14.10033 -4.49994,27.62416 -0.6886,4.17165 -1.44126,6.61378 a 0.52846221,0.53646921 9.7 0 1 -0.52846,0.37633 q -1.84161,-0.04 -3.44301,-0.52045 c -15.47754,-4.64407 -26.04679,-17.55936 -25.46227,-34.31802 z"
     style="fill:#ffffff;stroke-width:0.8007"
     id="path14" />
  <path
     d="m 265.95237,163.35508 a 1.1930435,1.2010505 4.8 0 1 1.17703,-1.00087 l 34.70235,-0.016 a 0.72863729,0.72863729 0 0 1 0.72063,0.83273 c -2.21794,15.72575 -14.55673,28.50493 -29.16951,33.44525 -4.04354,1.3692 -8.24722,1.72951 -12.55499,1.86563 a 0.64056026,0.64056026 0 0 1 -0.64856,-0.75265 z"
     style="fill:#ffffff;stroke-width:0.8007"
     id="path15" />
  <rect
     x="284.53708"
     y="154.50128"
     transform="rotate(9.0999939)"
     width="3.6031513"
     height="16.830721"
     rx="1.7215058"
     style="fill:#ffffff;stroke-width:0.8007"
     id="rect15" />
</svg>
