<?xml version="1.0" encoding="UTF-8" standalone="no"?>
<svg
   version="1.1"
   viewBox="0 0 375.99762 45.914996"
   id="svg9"
   width="375.99762"
   height="45.914997"
   xmlns="http://www.w3.org/2000/svg"
   xmlns:svg="http://www.w3.org/2000/svg">
  <defs
     id="defs9" />
  <g
     id="g9"
     transform="scale(0.09794155)">
    <path
       class="st2"
       d="m 2089.8,180.4 c 0,-26 -8.5,-52.8 -27.6,-71 -21.1,-20.7 -51.5,-25.2 -79.9,-25.2 h -92.9 v 300.3 h 43.8 V 245.3 h 0.8 l 99,139.2 h 54.8 l -84,-112 c 9.7,0 20.3,-2.4 29.2,-5.7 38.9,-13.8 56.8,-45.8 56.8,-86.4 z m -126.6,58.8 h -30 V 124.4 h 46.3 c 34.9,0 66.5,17.9 66.5,56 0,47.9 -43.9,58.8 -82.8,58.8 z"
       style="fill:#ffffff"
       id="path1" />
    <path
       class="st2"
       d="m 223.6,384.5 h 53.6 L 337.7,296 H 440 v 88.5 h 43.8 V 84.2 h -54 z M 439.9,141 V 255.8 H 365.2 L 439.1,141 Z"
       style="fill:#ffffff"
       id="path2" />
    <polygon
       class="st2"
       points="2153.3,253 2254.7,253 2254.7,212.9 2153.3,212.9 2153.3,124.4 2254.7,124.4 2254.7,84.2 2109.4,84.2 2109.4,384.5 2254.7,384.5 2254.7,344.3 2153.3,344.3 "
       style="fill:#ffffff"
       id="polygon2" />
    <path
       class="st2"
       d="m 1814.9,286.3 c 0,35.7 -19.5,63.7 -56.8,63.7 -37.3,0 -56.8,-28 -56.8,-63.7 V 84.2 h -43.8 v 203.3 c 0,29.2 8.1,57.2 30.4,77.1 19.1,17 44.6,25.6 70.2,25.6 25.6,0 51.1,-8.5 70.2,-25.6 22.3,-19.9 30.4,-47.9 30.4,-77.1 V 84.2 h -43.8 z"
       style="fill:#ffffff"
       id="path3" />
    <polygon
       class="st2"
       points="1575.1,124.4 1632.7,124.4 1632.7,84.2 1473.6,84.2 1473.6,124.4 1531.2,124.4 1531.2,384.5 1575.1,384.5 "
       style="fill:#ffffff"
       id="polygon3" />
    <polygon
       class="st2"
       points="838.1,84.2 794.3,84.2 794.3,384.5 845.4,384.5 1019.5,134.9 1019.5,384.5 1164.8,384.5 1164.8,344.3 1063.3,344.3 1063.3,253 1164.8,253 1164.8,212.9 1063.3,212.9 1063.3,124.4 1164.8,124.4 1164.8,84.2 1054.8,84.2 1019.5,84.2 999.6,84.2 838.9,321.6 838.1,321.6 "
       style="fill:#ffffff"
       id="polygon4" />
    <path
       class="st2"
       d="M 615.4,84.2 H 518 v 300.3 h 95.8 c 45,0 84.4,-11 117.3,-43.4 25.2,-25.2 37.7,-71 37.7,-105.9 0,-33.7 -11.4,-68.6 -30.8,-95.8 C 709.2,98.8 663.7,84.2 615.4,84.2 Z m -1.2,260.1 H 561.9 V 124.4 H 615 c 46.3,0 83.2,21.5 101,64.9 5.7,14.6 8.9,30.4 8.9,45.9 0.1,69.4 -42.5,109.1 -110.7,109.1 z"
       style="fill:#ffffff"
       id="path4" />
    <rect
       x="2642.8999"
       y="84.199997"
       class="st2"
       width="43.799999"
       height="300.29999"
       style="fill:#ffffff"
       id="rect4" />
    <polygon
       class="st2"
       points="1202.9,384.5 1246.7,384.5 1246.7,152.4 1247.5,152.4 1396,384.5 1441.5,384.5 1441.5,84.2 1397.7,84.2 1397.7,312.7 1396.8,312.7 1250.8,84.2 1202.9,84.2 "
       style="fill:#ffffff"
       id="polygon5" />
    <polygon
       class="st2"
       points="2533.8,384.5 2632.8,84.2 2587.6,84.2 2510.2,328.9 2424.6,84.2 2376.9,84.2 2486.5,384.5 "
       style="fill:#ffffff"
       id="polygon6" />
    <path
       class="st2"
       d="M 3599.3,136.5 V 124.4 35.5 h -141.2 v 70.5 32.6 h -5.6 l -16.7,-26.1 -49.2,-77 H 3263.3 V 48.7 70.1 L 3245,59.1 C 3213.2,40 3176.2,29.9 3138,29.9 c -37.8,0 -74.7,10.4 -106.9,30.1 l -18.4,11.3 V 49.6 35.5 h -141.2 v 9.8 l -16.4,-6.2 c -16.1,-6.1 -33.4,-9.2 -51.4,-9.2 -18,0 -35.3,3.3 -51.6,9.8 l -16.6,6.7 V 35.5 H 2552 l -32.6,103.1 h -24.1 L 2459.2,35.5 h -398.4 v 13.9 l -15.8,-5 c -18.3,-5.9 -39.4,-8.8 -62.7,-8.8 H 1349 v 70.4 32.6 h -5.6 l -16.7,-26.1 -49.2,-77 H 976 l -72.2,103.1 h -17 V 35.5 H 745.6 V 53.7 75.2 L 727.2,64 C 696.2,45.1 658.6,35.5 615.4,35.5 H 404.1 l -65.7,95.7 -3.6,5.2 h -6.4 -127.6 l -144.2,210 h 111 23 l -13,18.9 -46.5,67.8 h 171.8 l 56.9,-83.2 3.6,-5.3 h 6.4 9.4 12.1 v 12.1 76.4 h 222.6 c 44.3,0 81.5,-9.2 113.5,-28.2 l 18.2,-10.8 v 21.2 17.8 h 125.2 l 62,-88.8 h 38 v 88.8 h 324.6 v -88.8 h 17.1 l 56.8,88.8 h 254.4 v -34.8 -31.6 l 21.1,23.5 c 3.3,3.7 6.9,7.3 10.6,10.6 27.4,24.5 63.9,38 102.7,38 22.9,0 44.9,-4.7 65.4,-13.9 l 17.1,-7.7 v 16 h 141.2 v -36.6 l 22,30.9 4,5.7 h 295.6 v -76.7 -12.1 h 12.1 96 8.5 l 2.9,7.9 29.5,80.9 H 2569 l 1.7,-5 23.6,-71.5 v 75.3 1.3 h 141.2 v -9.7 l 16.3,6.1 c 16.3,6.1 33.8,9.2 51.8,9.2 18,0 35.3,-3 51.5,-8.9 l 16.2,-5.9 v 9.2 h 141.2 v -14.1 -21.6 l 18.4,11.3 c 32.1,19.7 69.1,30.1 106.9,30.1 37.8,0 74.8,-10.4 106.9,-30 l 18.4,-11.2 v 21.6 14 h 141.2 v -88.8 h 17.1 l 56.8,88.8 H 3599 v -74.6 -12.1 h 12.1 26.8 l 144.2,-210 h -170.9 -11.9 z m 32,192.9 h -46.9 v 88.8 h -97.7 l -56.8,-88.8 h -40.2 v 88.8 h -111.4 v -55.9 c -34.8,37.8 -84.8,61.5 -140.2,61.5 -55.5,0 -105.5,-23.9 -140.2,-61.8 v 56.1 h -111.4 v -22.8 c -21.7,18 -50.2,28.5 -82.7,28.5 -32.7,0 -61.4,-10.8 -83.1,-29.4 v 23.7 h -111.4 v -88.8 h -21.7 l -29.3,88.8 h -95.4 l -32.4,-88.8 h -141.9 v 88.8 h -133.2 -79.7 -60.1 L 1967,349.7 v 68.4 h -111.4 v -33.2 c -1.6,1.6 -3.1,3.2 -4.8,4.7 -24.6,22 -57.5,34.1 -92.7,34.1 -35.1,0 -68.1,-12.1 -92.7,-34.2 -17.7,-15.8 -30,-36.3 -36.5,-60.4 h -20.1 v 88.8 h -111.4 v -88.8 h -22.2 v 88.8 h -97.7 l -56.8,-88.8 h -40.2 v 88.8 h -81.9 -29.5 -183.4 V 329.1 H 925 l -62,88.8 H 760.5 V 359 c -1.8,2.1 -3.6,4.1 -5.6,6 -36.4,35.9 -82.5,53.3 -141.2,53.3 H 517.4 484.1 406 V 329.8 H 355.3 L 295,418.3 H 159.5 l 32.9,-47.9 28.1,-40.9 H 86.5 L 207.2,153.6 h 134 L 412,50.4 h 72.3 33.3 97.9 c 62.7,0 112.6,21.7 145.1,62.8 V 50.4 H 872 v 103.1 h 40 L 981.8,50.4 h 137.8 49.6 29.5 70.7 l 65.9,103.1 H 1364 V 50.4 h 76 35.4 148.4 42.8 68.6 v 103.1 h 46.1 V 50.4 h 74.4 37 89.7 c 39.7,0 70.4,8.6 93.4,26.1 V 50.4 h 212.9 v 103.1 h 77.7 L 2328.8,50.4 h 120 l 36.1,103.1 h 45.6 l 32.6,-103.1 h 46.3 70.4 41 v 27.3 c 21.2,-20.5 50.4,-32.9 83.1,-32.9 33,0 61.7,11.3 82.7,30.3 V 50.4 H 2998 v 56.1 c 34.8,-38 84.8,-61.8 140.2,-61.8 56.1,0 105.7,23.2 140.2,60.7 v -55 h 100.2 l 65.9,103.1 h 28.7 V 50.4 h 111.4 V 153.5 H 3752 Z"
       style="fill:#ffffff"
       id="path6" />
    <polygon
       class="st2"
       points="3312,384.5 3355.8,384.5 3355.8,152.4 3356.6,152.4 3505.1,384.5 3550.6,384.5 3550.6,84.2 3506.8,84.2 3506.8,312.7 3506,312.7 3359.9,84.2 3312,84.2 "
       style="fill:#ffffff"
       id="polygon7" />
    <path
       class="st2"
       d="m 2763.5,159.7 c 0,-21.9 18.3,-41 40.2,-41 26,0 42.2,17.4 42.2,43.4 h 43.8 c 0,-50.7 -36.1,-83.6 -86,-83.6 -45.9,0 -84,34.9 -84,81.6 0,58.4 37.3,72.2 84,90.1 25.2,9.7 48.3,17 48.3,49.1 0,29.2 -18.3,50.7 -48.3,50.7 -31.7,0 -48.7,-25.2 -48.7,-54.4 h -43.8 c 0,54.4 37.7,94.5 92.5,94.5 53.6,0 92.1,-36.9 92.1,-90.9 0,-113.9 -132.3,-75.8 -132.3,-139.5 z"
       style="fill:#ffffff"
       id="path7" />
    <path
       class="st2"
       d="m 3138,14.9 c 39.2,0 77.2,10 110.4,28.9 v -8.2 -15 h 14.9 123.3 8.2 l 4.4,6.9 44,68.8 V 35.5 20.6 h 14.9 141.2 14.9 v 14.9 86 h 168.1 28.4 l -16.1,23.4 -144.2,210 -4.5,6.5 h -7.9 -23.9 v 71.8 14.9 h -14.9 -120.8 -8.2 l -4.4,-6.9 -46.4,-72.6 v 64.5 14.9 h -14.9 -141.2 -14.9 v -14.9 -9 c -33.5,19.4 -71.5,29.6 -110.4,29.6 -38.9,0 -76.9,-10.3 -110.4,-29.7 v 9.1 14.9 h -14.9 -141.2 -14.9 v -2.8 c -16.8,5.6 -34.5,8.5 -52.8,8.5 -18.5,0 -36.4,-3 -53.3,-8.8 v 3.1 h -14.9 -141.2 -14.4 -11 -116.6 -10.4 l -3.6,-9.8 -28.8,-79 h -91.1 v 73.9 14.9 h -14.9 -462.8 -14.9 v -7.8 c -21.3,9 -44,13.5 -67.5,13.5 -42.5,0 -82.5,-14.8 -112.6,-41.8 -2.3,-2.1 -4.6,-4.2 -6.8,-6.5 v 27.6 14.9 h -14.9 -254.4 -8.2 l -4.4,-6.9 -46.4,-72.6 v 64.5 14.9 h -14.9 -325 -14.9 V 432.9 359 h -15.3 l -57.5,82.4 -4.5,6.4 H 870.8 745.6 730.7 V 432.9 420.1 C 697.3,438.8 659,447.9 613.9,447.9 H 391.2 376.3 V 433 359.5 h -5 l -56,82 -4.4,6.5 H 303 131.1 102.7 l 16.1,-23.4 43.5,-63.3 H 56.7 28.3 l 16.1,-23.4 144.2,-210 4.4,-6.5 h 7.9 126.1 l 64.9,-94.5 4.5,-6.5 h 7.9 211.3 c 44,0 82.7,9.5 115.2,28.1 v -13 -14.9 h 14.9 141.2 14.9 v 14.9 80 l 62,-88.6 4.5,-6.4 h 7.8 301.4 8.2 l 4.4,6.9 44,68.8 V 35.5 20.6 h 14.9 633.3 c 23.3,0 44.7,2.8 63.5,8.4 v -8.4 h 14.9 398.4 10.6 l 3.5,10 32.6,93.1 h 2.6 L 2537.7,31 2541,20.6 h 10.9 183.5 14.9 v 3.7 c 16.9,-6.2 34.8,-9.4 53.3,-9.4 18.4,0 36.1,3 52.8,8.8 v -3.1 h 14.9 141.2 14.9 v 14.9 9.1 C 3061.1,25.2 3099.1,14.9 3138,14.9 M 3138,0 c -33,0 -65.5,7 -95.5,20.3 V 5.7 h -14.9 -14.9 -141.2 -14.9 -8.1 C 2834,1.9 2819,0 2803.7,0 c -15,0 -29.6,1.9 -43.8,5.7 h -9.5 -14.9 -183.5 -11 -10.9 l -3.3,10.4 -3.3,10.4 -17.1,53.9 -19.2,-54.8 -3.5,-10 -3.5,-10 h -10.6 -10.6 -398.4 -14.9 -14.9 V 10 c -15.1,-2.9 -31.4,-4.4 -48.6,-4.4 h -633.3 -14.9 -14.9 v 14.9 14.9 9.8 l -16.6,-25.9 -4.4,-6.9 -4.4,-6.9 h -8.2 -8.2 -301.3 -7.8 -7.8 L 956,12 951.5,18.4 916.6,68.3 V 35.5 20.6 5.7 H 901.7 886.8 745.6 730.7 715.8 v 14.9 4.1 C 686.1,12.1 652.4,5.7 615.5,5.7 h -211.4 -7.9 -7.8 l -4.4,6.5 -4.5,6.5 -60.4,88 H 200.8 193 185.2 l -4.4,6.5 -4.4,6.5 L 32.2,329.7 16,353 0,376.4 H 28.3 56.7 134 l -27.4,40 -16.1,23.4 -16,23.3 h 28.3 28.4 171.8 7.9 7.9 l 4.4,-6.5 4.4,-6.5 33.8,-49.5 v 32.7 14.9 14.9 h 14.9 14.9 222.6 c 38.2,0 71.8,-6.2 102,-18.9 v 4 14.9 h 14.9 14.9 125.2 7.8 7.8 l 4.4,-6.4 4.5,-6.4 45.7,-65.5 v 48.4 14.9 14.9 h 14.9 14.9 324.6 14.9 14.9 v -14.9 -14.9 -13.6 l 19,29.7 4.4,6.9 4.4,6.9 h 8.2 8.2 254.4 14.9 14.9 v -14.9 -10.9 c 30,20.4 66.4,31.5 104.5,31.5 18.1,0 35.7,-2.5 52.6,-7.4 v 1.7 h 14.9 14.9 462.8 14.9 14.9 v -14.9 -14.9 -59 h 65.8 l 25.3,69.2 3.6,9.8 3.6,9.8 h 10.4 10.4 116.8 10.8 14.4 141.2 14.9 8.1 c 14.5,3.8 29.7,5.7 45.1,5.7 15.6,0 30.8,-1.9 45.5,-5.7 h 7.4 14.9 141.2 14.9 14.9 v -14.6 c 29.9,13.3 62.5,20.3 95.5,20.3 33,0 65.5,-6.9 95.5,-20.2 v 14.5 h 14.9 14.9 141.2 14.9 14.9 v -14.9 -14.9 -13.6 l 19,29.7 4.4,6.9 4.4,6.9 h 8.2 8.2 120.8 14.9 14.9 v -14.9 -14.9 -56.9 h 9 7.9 7.8 l 4.4,-6.5 4.5,-6.5 144.2,-210 16.3,-23.5 16,-23.3 h -28.3 -28.4 -153.2 V 35.5 20.6 5.7 h -14.9 -14.9 -141.2 -14.9 -14.9 v 14.9 14.9 9.8 l -16.6,-25.9 -4.4,-6.9 -4.4,-6.9 h -8.2 -8.2 -123.3 -14.9 -14.9 v 14 C 3203.7,6.7 3171.2,0 3138,0 Z"
       style="fill:#ffffff"
       id="path8" />
    <rect
       x="2920.2"
       y="84.199997"
       class="st2"
       width="43.799999"
       height="300.29999"
       style="fill:#ffffff"
       id="rect8" />
    <path
       class="st2"
       d="m 3138,78.5 c -86.4,0 -156.2,69 -156.2,155.8 0,86 70.2,155.8 156.2,155.8 85.6,0 156.2,-69.4 156.2,-155 0,-87.2 -68.6,-156.6 -156.2,-156.6 z m 104.7,197.3 c -17,45.9 -55.2,74.3 -104.7,74.3 -46.3,0 -83.2,-24.8 -101.9,-67 -6.5,-15.4 -10.6,-32.1 -10.6,-48.7 0,-16.6 4.1,-32.9 10.6,-47.9 18.3,-42.6 55.2,-67.8 101.9,-67.8 65.3,0 112.4,53.2 112.4,116.9 0,13.8 -2.9,27.6 -7.7,40.2 z"
       style="fill:#ffffff"
       id="path9" />
  </g>
</svg>
