<?xml version="1.0" encoding="UTF-8" standalone="no"?>
<!-- Created with Inkscape (http://www.inkscape.org/) -->

<svg
   width="99.484016mm"
   height="16.86904mm"
   viewBox="0 0 99.484016 16.86904"
   version="1.1"
   id="svg1"
   xml:space="preserve"
   inkscape:version="1.4 (e7c3feb100, 2024-10-09)"
   sodipodi:docname="alpha.svg"
   xmlns:inkscape="http://www.inkscape.org/namespaces/inkscape"
   xmlns:sodipodi="http://sodipodi.sourceforge.net/DTD/sodipodi-0.dtd"
   xmlns="http://www.w3.org/2000/svg"
   xmlns:svg="http://www.w3.org/2000/svg"><sodipodi:namedview
     id="namedview1"
     pagecolor="#ffffff"
     bordercolor="#000000"
     borderopacity="0.25"
     inkscape:showpageshadow="2"
     inkscape:pageopacity="0.0"
     inkscape:pagecheckerboard="0"
     inkscape:deskcolor="#d1d1d1"
     inkscape:document-units="mm"
     inkscape:zoom="0.42360059"
     inkscape:cx="603.16252"
     inkscape:cy="232.53037"
     inkscape:window-width="1920"
     inkscape:window-height="1164"
     inkscape:window-x="1920"
     inkscape:window-y="0"
     inkscape:window-maximized="1"
     inkscape:current-layer="svg1" /><defs
     id="defs1" /><path
     style="fill:#ffffff;stroke-width:0.220562;fill-opacity:1"
     d="m 87.418438,14.027853 c -1.466479,-1.560748 -2.642955,-2.859334 -2.61439,-2.885743 0.02856,-0.02641 1.19739,-0.894507 2.59739,-1.929105 l 2.545454,-1.8810879 4.768563,4.7685599 4.76856,4.768563 -4.699628,-0.0019 -4.699625,-0.0019 z M 70.819201,8.4033965 V 0 l 1.820736,9.2075631e-5 C 73.641341,1.426114e-4 75.48991,0.01868977 76.747867,0.04130624 l 2.287196,0.04112235 0.01595,4.59285681 0.01598,4.5928558 6.267157,-4.5723472 6.267154,-4.57234836 3.460411,0.0160841 3.460409,0.0160868 -9.727566,6.97233236 -9.727565,6.9723321 -0.01677,1.353252 -0.01678,1.353258 H 74.926314 70.819201 Z M 10.224495,16.690257 c 0.03252,-0.02986 6.167653,-3.797382 13.633619,-8.3722731 L 37.432598,0 h 2.002921 2.00292 V 8.3722731 16.744545 H 37.49085 33.543261 l 0.03106,-0.700283 c 0.04877,-1.099566 0.319598,-8.7916048 0.309824,-8.7997051 -0.0048,-0.004 -3.560345,2.1318689 -7.901166,4.7463611 l -7.892404,4.753627 h -3.962608 c -2.258122,0 -3.937172,-0.02336 -3.903474,-0.05429 z M 42.286938,14.73905 c -0.02058,-1.105204 -0.04804,-3.697143 -0.06101,-5.7598665 l -0.02357,-3.750404 h 3.881988 3.881985 v 3.8958179 3.8958186 l 3.470293,-0.02881 c 2.892144,-0.02402 3.55761,-0.04598 3.994411,-0.131866 C 59.40813,12.471011 60.94985,11.441785 61.63544,10.052954 61.956028,9.4035272 62.061353,8.873778 62.025293,8.0921598 61.920465,5.8200657 60.32644,4.3643799 57.311522,3.7874771 56.604545,3.6521976 56.506918,3.6502185 49.43148,3.6277508 l -7.164193,-0.022749 -0.04094,-1.3145582 c -0.02252,-0.723007 -0.04094,-1.52012633 -0.04094,-1.77137692 V 0.06224736 h 8.730574 c 7.32001,0 8.858087,0.01491731 9.519782,0.09231852 2.672243,0.31258883 5.001246,1.31699322 6.639241,2.86323042 1.889423,1.7835878 2.641721,4.2015875 2.16062,6.9445888 -0.18635,1.0624719 -0.711241,2.2824999 -1.341897,3.1190259 -1.157562,1.53543 -3.182528,2.722311 -5.54744,3.251495 -1.775213,0.397227 -1.088127,0.372524 -10.987721,0.395049 l -9.034196,0.02056 z M 2.0916937,16.621296 0,16.588926 13.635175,8.418957 27.270349,0.24898944 h 3.546319 c 1.950478,0 3.529698,0.0166239 3.509381,0.0369401 -0.02032,0.0203175 -6.052096,3.71781126 -13.403956,8.21665336 L 7.5550781,16.682295 5.8692328,16.667981 c -0.9272148,-0.0079 -2.627107,-0.02888 -3.7775391,-0.04669 z"
     id="path1" /></svg>
