<?xml version="1.0" encoding="UTF-8" standalone="no"?>
<svg
   version="1.1"
   viewBox="0 0 376 123.95604"
   id="svg9"
   width="376"
   height="123.95605"
   xmlns="http://www.w3.org/2000/svg"
   xmlns:svg="http://www.w3.org/2000/svg">
  <defs
     id="defs9" />
  <polygon
     class="st18"
     points="1610.5,0 1589.9,0 1420.1,0 559.1,1252.9 728.8,1252.9 749.4,1252.9 "
     style="fill:#ffffff"
     id="polygon1"
     transform="scale(0.09791157)" />
  <polygon
     class="st18"
     points="527.8,1252.9 1388.9,0 1368.3,0 1198.6,0 337.5,1252.9 507.2,1252.9 527.8,1252.9 "
     style="fill:#ffffff"
     id="polygon2"
     transform="scale(0.09791157)" />
  <path
     class="st18"
     d="M 125.52263,102.13156 H 107.5167 l -2.79048,4.21999 c -0.7833,1.25327 -1.35118,2.18343 -1.71346,2.78069 -0.72454,1.19452 -1.23368,2.15405 -1.52742,2.8688 -0.72454,1.32181 -1.07702,2.42821 -1.07702,3.31921 0,1.73303 1.75261,2.81006 5.27743,3.23108 1.60575,0.24478 2.41841,0.93016 2.41841,2.06593 0,1.38056 -0.94974,2.06594 -2.85901,2.06594 l -3.39753,-0.21541 -5.904073,-0.32311 -7.597937,0.53852 h -2.408625 c -1.429509,0 -2.144263,-0.53852 -2.144263,-1.60575 0,-0.891 0.283943,-1.53721 0.85183,-1.91907 0.567887,-0.39165 1.644915,-0.6658 3.221291,-0.85183 1.576376,-0.17624 2.907974,-0.83225 3.97521,-1.96802 l 3.485652,-4.37665 1.517629,-2.3205 1.60575,-2.23239 1.605746,-2.3205 28.24749,-40.222075 c 1.42951,-2.144263 2.44779,-3.456278 3.03526,-3.936045 0.59726,-0.479767 1.51763,-0.714754 2.7709,-0.714754 1.37076,0 2.31071,0.362272 2.81985,1.077027 0.50914,0.714754 0.76371,2.271548 0.76371,4.660591 l 2.7709,44.823916 c 0,1.80157 0.1077,3.24087 0.32311,4.3179 0.18603,0.92037 0.63642,1.76241 1.28264,2.438 v 0 c 0.56789,0.60705 1.26306,1.09661 2.05614,1.34139 1.06724,0.34269 1.59596,0.94974 1.59596,1.85053 0,1.31201 -0.891,1.96802 -2.68278,1.96802 l -2.85902,-0.26436 -5.26764,-0.26436 c -1.66449,0 -3.50523,0.0685 -5.49284,0.20561 -1.99739,0.13708 -4.13187,0.24478 -6.39362,0.3329 h -2.94714 c -1.37076,0 -2.05614,-0.56789 -2.05614,-1.69387 0,-0.7735 0.28394,-1.34139 0.85183,-1.69387 0.56788,-0.36227 1.62533,-0.62663 3.17233,-0.80288 1.547,-0.17624 2.59466,-0.60705 3.13317,-1.29243 0.53852,-0.68538 0.80288,-1.86032 0.80288,-3.53461 v -3.66189 z m -0.36227,-4.464769 -0.80287,-20.669132 -13.97199,20.669132 z"
     style="fill:#ffffff;stroke-width:0.0979116"
     id="path2" />
  <path
     class="st18"
     d="m 262.19739,71.563567 -11.25983,39.242953 c -0.53851,1.90928 -0.80287,3.36816 -0.80287,4.37665 0,2.20301 1.19452,3.30941 3.57377,3.30941 2.14426,0 3.22129,0.6658 3.22129,2.00719 0,1.28264 -0.92037,1.91907 -2.7709,1.91907 h -5.17952 l -9.65408,-0.35249 c -1.85053,0 -3.25066,0.0294 -4.20041,0.0881 -0.94974,0.0588 -3.30941,0.26437 -7.05942,0.62664 h -0.36227 c -1.54701,0 -2.32051,-0.59726 -2.32051,-1.79178 0,-0.71476 0.26436,-1.20432 0.80288,-1.47847 0.53851,-0.27415 1.75261,-0.59726 3.66189,-0.97911 1.90928,-0.39165 3.06463,-0.891 3.48565,-1.51763 0.41123,-0.62664 1.1064,-2.63382 2.05615,-6.03136 l 11.17171,-39.056921 c 0.41122,-1.429509 0.62663,-2.379251 0.62663,-2.859018 0,-1.547002 -1.1064,-2.320504 -3.30941,-2.320504 -1.90928,0 -2.85902,-0.567887 -2.85902,-1.713452 0,-0.685381 0.23499,-1.223895 0.71476,-1.625332 0.47976,-0.401438 1.13577,-0.597261 1.96802,-0.597261 h 4.11228 c 0.23499,0 0.92037,0 2.05615,0 1.13577,0 2.08551,0 2.85901,0 5.71804,0 9.71283,-0.146867 11.97459,-0.430811 l 4.73892,-0.283943 c 1.19452,0 1.79178,0.567887 1.79178,1.69387 0,0.773501 -0.30352,1.341388 -0.89099,1.69387 -0.59726,0.352482 -1.68408,0.665799 -3.26046,0.939951 -1.57638,0.264361 -2.63382,0.704963 -3.17233,1.292433 -0.5581,0.59726 -1.12599,1.879902 -1.71346,3.847925 z"
     style="fill:#ffffff;stroke-width:0.0979116"
     id="path3" />
  <path
     class="st18"
     d="m 317.07683,105.26473 c 0,0 -1.89949,6.67757 -2.7709,9.68345 -1.02807,3.50524 -10.71152,9.00787 -22.51966,9.00787 -8.93933,0 -16.21416,-2.23239 -21.8147,-6.70694 -5.60054,-4.46477 -8.40081,-10.25135 -8.40081,-17.340144 0,-5.659289 1.69387,-11.024843 5.0914,-16.086871 3.39753,-5.062028 8.1952,-9.419093 14.393,-13.051612 5.06203,-2.976512 10.53529,-5.306807 16.40019,-6.971304 5.8649,-1.664497 11.63189,-2.506536 17.30097,-2.506536 3.80876,0 7.17692,0.323108 10.10448,0.959533 1.48825,0.352482 2.23238,0.988907 2.23238,1.919067 0,0.528722 -0.17624,1.204312 -0.53851,2.036561 l -2.23239,6.795063 c -0.89099,3.103796 -2.05614,4.650799 -3.48565,4.650799 -1.547,0 -2.3205,-1.223894 -2.3205,-3.661893 l 0.17624,-4.562679 c 0,-1.547003 -0.31332,-2.633821 -0.93995,-3.260455 -0.62664,-0.626634 -1.68408,-0.939951 -3.17234,-0.939951 -3.81855,0 -7.71543,0.773501 -11.71022,2.330295 -3.99479,1.547003 -7.77418,3.759805 -11.34795,6.628614 -4.22978,3.397531 -7.56857,7.578355 -10.01636,12.532681 -2.44778,4.954325 -3.66189,10.084891 -3.66189,15.401492 0,5.49284 1.42951,9.8499 4.28853,13.07119 2.85902,3.22129 6.76569,4.83683 11.71022,4.83683 1.48826,0 2.51633,-0.22519 3.08422,-0.6658 0.56788,-0.4406 1.08682,-1.46867 1.56658,-3.07442 l 3.30941,-11.66127 c 0.23499,-0.656 0.35249,-1.40013 0.35249,-2.22259 0,-1.30222 -0.26437,-2.15405 -0.80288,-2.535909 -0.53851,-0.381855 -1.96802,-0.724545 -4.28853,-1.028071 -1.25326,0 -1.8799,-0.597261 -1.8799,-1.791782 0,-1.312015 1.03786,-1.968022 3.13317,-1.968022 l 4.46477,0.08812 8.04833,0.264361 c 0.53851,0 0.92037,0 1.16515,0 0.47976,0 0.80287,0 0.97911,0 2.62403,0 4.97391,-0.117494 7.05943,-0.362273 h 4.28852 c 1.48826,0 2.23239,0.509141 2.23239,1.537212 0,1.429509 -1.2239,2.251966 -3.66189,2.477163 -1.54701,0 -2.74153,0.450393 -3.57378,1.341391 -0.84204,0.90078 -1.58616,2.50653 -2.24217,4.83683 z"
     style="fill:#ffffff;stroke-width:0.0979116"
     id="path4" />
  <path
     class="st18"
     d="m 353.98949,102.13156 h -18.00594 l -2.79048,4.21999 c -0.78329,1.25327 -1.35118,2.18343 -1.71345,2.78069 -0.72455,1.19452 -1.23369,2.15405 -1.52742,2.8688 -0.72455,1.32181 -1.07703,2.42821 -1.07703,3.31921 0,1.73303 1.75262,2.81006 5.27744,3.23108 1.60575,0.24478 2.41841,0.93016 2.41841,2.06593 0,1.38056 -0.94974,2.06594 -2.85902,2.06594 l -3.39753,-0.21541 -2.75131,-0.14687 c -2.09531,-0.11749 -4.20041,-0.1077 -6.29572,0.0196 l -5.66908,0.34269 c -1.42951,0 -2.14426,-0.53852 -2.14426,-1.60575 0,-0.891 0.28394,-1.53721 0.85183,-1.91907 0.56789,-0.39165 1.64492,-0.6658 3.22129,-0.85183 1.57638,-0.17624 1.71345,-0.83225 2.78069,-1.96802 l 3.48565,-4.37665 1.51763,-2.3205 1.60575,-2.23239 1.60575,-2.3205 28.24749,-40.222075 c 1.42951,-2.144263 2.44779,-3.456278 3.03526,-3.936045 0.59726,-0.479767 1.51763,-0.714754 2.77089,-0.714754 1.37077,0 2.31072,0.362272 2.81986,1.077027 0.50914,0.714754 0.76371,2.271548 0.76371,4.660591 l 2.7709,44.823916 c 0,3.04505 0.31331,5.06203 0.93995,6.05094 0.62663,0.9889 1.80157,1.59595 3.5346,1.84073 1.72325,0.23499 2.59466,0.93016 2.59466,2.06594 0,1.31201 -0.89099,1.96802 -2.68278,1.96802 l -2.85901,-0.26436 -7.05943,-0.26436 c -1.66449,0 -3.50523,0.0685 -5.49284,0.20561 -1.99739,0.13708 -4.13187,0.24478 -6.39362,0.3329 h -2.94714 c -1.37076,0 -2.05614,-0.56789 -2.05614,-1.69387 0,-0.7735 0.28394,-1.34139 0.85183,-1.69387 0.56788,-0.36227 1.62533,-0.62663 3.17233,-0.80287 1.547,-0.17625 2.59466,-0.60706 3.13317,-1.29244 0.53852,-0.68538 0.80288,-1.86032 0.80288,-3.5346 v -3.6619 z m -0.35248,-4.464769 -0.80288,-20.669132 -13.97198,20.669132 z"
     style="fill:#ffffff;stroke-width:0.0979116"
     id="path5" />
  <path
     class="st18"
     d="M 211.16588,74.863186 182.9184,116.96516 c -1.37077,2.08552 -2.38905,3.39753 -3.03526,3.93605 -0.65601,0.53851 -1.54701,0.80287 -2.68278,0.80287 -1.19452,0 -1.9974,-0.26436 -2.40863,-0.80287 -0.42101,-0.53852 -0.62663,-1.70366 -0.62663,-3.49545 l -1.42951,-42.650276 -9.02744,24.605177 -1.42951,4.846619 c -1.13578,3.7696 -1.79179,6.06073 -1.96803,6.86361 -0.17624,0.80287 -0.26436,1.84073 -0.26436,3.094 0,1.4393 0.34269,2.37925 1.02807,2.82964 0.68538,0.4504 2.34009,0.88121 4.96412,1.30223 1.48826,0.17624 2.23238,0.83225 2.23238,1.97781 0,1.4393 -0.94974,2.15406 -2.85901,2.15406 l -3.30941,-0.32311 -5.27744,-0.21541 -6.94193,0.26436 c -1.547,0 -2.3205,-0.59726 -2.3205,-1.79178 0,-0.96932 0.78329,-1.68408 2.35967,-2.13447 0.89099,-0.26436 1.69387,-0.79308 2.3205,-1.47846 0.31332,-0.34269 0.56789,-0.62664 0.56789,-0.62664 0.656,-0.80287 1.93865,-3.85771 3.84792,-9.16452 l 11.62211,-32.712256 c 1.07702,-3.221291 1.60575,-5.208896 1.60575,-5.992189 0,-0.656007 -0.28395,-1.135774 -0.85184,-1.429508 -0.56788,-0.293735 -1.71345,-0.577679 -3.43669,-0.851831 -1.73304,-0.264361 -2.59466,-0.910578 -2.59466,-1.919067 0,-0.538514 0.23499,-1.008489 0.71476,-1.429509 0.47976,-0.42102 1.03786,-0.626634 1.69387,-0.626634 l 3.30941,0.362273 h 4.46477 4.46476 6.25655 1.60575 c 0.71476,0 1.13578,0.117494 1.25327,0.352482 0.17624,0.303525 0.26436,1.047653 0.26436,2.232383 l 1.42951,36.550386 24.1352,-37.26514 c 0.59726,-0.910578 1.00849,-1.449091 1.25327,-1.625332 0.23499,-0.16645 0.71475,-0.25457 1.42951,-0.25457 h 0.89099 c 1.07703,0 2.20301,0 3.39754,0 1.19452,0 2.50653,0 3.93604,0 h 6.70694 2.85902 c 1.31202,0 1.96802,0.538513 1.96802,1.60575 0,1.488255 -1.02807,2.340086 -3.08421,2.5457 -2.05614,0.205615 -3.33879,0.626634 -3.84793,1.243477 -0.50914,0.626634 -1.02807,2.036561 -1.56658,4.239571 l -8.76309,36.501434 c -0.23498,1.00849 -0.47976,2.23238 -0.71475,3.66189 -0.23499,1.42951 -0.35248,2.37925 -0.35248,2.85902 0,1.00849 0.28394,1.75262 0.85183,2.23238 0.56789,0.47977 1.62533,0.83225 3.17233,1.06724 1.54701,0.23499 2.32051,0.92037 2.32051,2.05614 0,1.37076 -1.04766,2.05615 -3.13317,2.05615 h -2.84923 c -4.22978,-0.47977 -7.68606,-0.71476 -10.36883,-0.71476 -2.97652,0 -5.5418,0.1175 -7.68606,0.36227 l -4.46477,0.35249 c -1.48826,0 -2.23238,-0.62664 -2.23238,-1.87991 0,-1.00849 0.53851,-1.69387 1.60575,-2.05614 l 1.51762,-0.26436 1.07703,-0.0881 0.97912,-0.17624 c 1.19452,-0.1175 2.03656,-0.57768 2.5457,-1.38055 0.50914,-0.80288 1.17494,-2.84923 2.00719,-6.11948 z"
     style="fill:#ffffff;stroke-width:0.0979116"
     id="path6" />
  <polygon
     class="st18"
     points="427.8,1107.4 190.3,761.8 169.7,761.8 0,761.8 332.6,1245.8 "
     style="fill:#ffffff"
     id="polygon6"
     transform="scale(0.09791157)" />
  <polygon
     class="st18"
     points="507.2,1252.9 527.8,1252.9 432.7,1114.4 337.5,1252.9 "
     style="fill:#ffffff"
     id="polygon7"
     transform="scale(0.09791157)" />
  <polygon
     class="st18"
     points="411.9,761.8 391.3,761.8 221.6,761.8 443.4,1084.6 538.6,946.2 "
     style="fill:#ffffff"
     id="polygon8"
     transform="scale(0.09791157)" />
  <polygon
     class="st18"
     points="448.3,1091.7 554.2,1245.8 649.4,1107.4 543.4,953.2 "
     style="fill:#ffffff"
     id="polygon9"
     transform="scale(0.09791157)" />
</svg>
