<?xml version="1.0" encoding="UTF-8" standalone="no"?>
<svg
   viewBox="3.713 0.585 375.99911 160.988"
   width="375.99911"
   height="160.98801"
   version="1.1"
   id="svg1"
   xmlns="http://www.w3.org/2000/svg"
   xmlns:svg="http://www.w3.org/2000/svg">
  <defs
     id="defs1" />
  <g
     id="g1"
     transform="matrix(0.45640394,0,0,0.45640394,2.0183722,0.3180037)">
    <path
       d="m 328.7,124.26 c 2.69,35.69 3.74,71.56 6.75,107.24 0.53,6.26 2.05,10.22 8.26,11.75 l 2.08,2.25 -0.17,3.36 c -0.02,0.387 -0.21,0.653 -0.57,0.8 -1.147,0.447 -2.58,0.69 -4.3,0.73 -21.04,0.493 -37.79,0.627 -50.25,0.4 -4.91,-2.43 -1.67,-6.69 2.25,-7.26 9.43,-1.38 12.18,-2.96 12.25,-13.53 0.02,-2.807 -0.243,-7.39 -0.79,-13.75 0.153,-2.44 -0.157,-4.867 -0.93,-7.28 -0.107,-0.34 -0.34,-0.513 -0.7,-0.52 -10.493,-0.267 -20.993,-0.31 -31.5,-0.13 -3.87,0.07 -4.88,-0.29 -6.87,2.87 -5.633,8.953 -9.277,15.063 -10.93,18.33 -1.69,3.34 -3.58,7.73 0.15,10.05 2.507,1.567 4.53,2.427 6.07,2.58 3.587,0.68 6.337,2.06 8.25,4.14 -0.47,2.89 -1.96,4.5 -5.07,4.59 -5.54,0.16 -11.51,-0.42 -16.57,-0.33 -9.287,0.18 -18.573,0.293 -27.86,0.34 -3.17,-5.71 -0.32,-7.16 4.91,-8 8.84,-1.43 13.84,-8.56 19.24,-16.29 23.487,-33.653 46.987,-67.297 70.5,-100.93 4.533,-6.493 9.8,-6.963 15.8,-1.41 z m -42.74,74.24 c 5.44,0.587 10.887,0.717 16.34,0.39 0.353,-0.02 0.54,-0.207 0.56,-0.56 0.467,-7.747 0.113,-15.56 -1.06,-23.44 l -0.85,-17.82 c -0.027,-0.56 -0.197,-0.607 -0.51,-0.14 L 272.74,198 c -0.24,0.36 -0.147,0.557 0.28,0.59 4.353,0.367 8.667,0.337 12.94,-0.09 z"
       id="path150"
       style="fill:#ffffff" />
    <path
       d="m 805.93,123.26 c 2.04,22.83 2.93,47.28 4.77,71.27 0.94,12.16 1.23,26.84 2.64,39.89 0.5,4.68 3.053,7.36 7.66,8.04 2.41,1.55 4.66,0.99 6.54,3.79 0.073,2.827 -1.353,4.233 -4.28,4.22 -10.573,-0.047 -27.83,0.163 -51.77,0.63 -1.26,0.03 -2.37,-0.33 -3.7,-0.35 -0.92,-0.887 -1.513,-1.947 -1.78,-3.18 -0.073,-0.34 -0.027,-0.663 0.14,-0.97 3.68,-6.8 14.48,0.45 16.03,-11.45 0.827,-6.28 0.67,-12.58 -0.47,-18.9 0.207,-2.54 0.053,-5.063 -0.46,-7.57 -0.067,-0.313 -0.26,-0.47 -0.58,-0.47 l -36.29,0.13 c -0.327,0 -0.583,0.133 -0.77,0.4 -5.5,7.587 -10.177,15.643 -14.03,24.17 -2.42,5.36 3.28,8.67 7.63,9.09 3.06,1.09 5.48,1.26 7.83,3.75 0.81,6.32 -7.81,5.31 -12.63,5.07 -10.64,-0.54 -21.26,-0.26 -31.91,0.02 -0.333,0.007 -0.63,-0.097 -0.89,-0.31 -0.367,-0.3 -0.667,-0.317 -0.9,-0.05 -0.353,0.4 -0.667,0.373 -0.94,-0.08 -4.34,-7.13 5.65,-8.09 9.55,-9.24 3.2,-2.313 6.253,-5.543 9.16,-9.69 23.98,-34.187 47.93,-68.39 71.85,-102.61 4.26,-6.09 9.87,-11.88 17.6,-5.6 z m -42,75.26 c 5.593,0.573 10.983,0.697 16.17,0.37 0.673,-0.04 0.987,-0.393 0.94,-1.06 l -1.5,-22.73 -0.7,-17.97 c -0.02,-0.42 -0.173,-0.48 -0.46,-0.18 -0.553,0.573 -1.2,1.407 -1.94,2.5 -8.627,12.74 -17.217,25.54 -25.77,38.4 -0.24,0.36 -0.143,0.563 0.29,0.61 4.393,0.453 8.717,0.473 12.97,0.06 z"
       id="path152"
       style="fill:#ffffff" />
    <path
       d="m 725.04,127.75 c -1.753,7.88 -4.247,15.9 -7.48,24.06 -1.227,3.093 -3.413,5.003 -6.56,5.73 -6.21,-6.66 -1.49,-11.85 -3.75,-19.08 1.12,-4.83 -4.83,-7.87 -8.77,-7.61 -33.8,2.26 -63.89,25.07 -73.46,57.93 -4.97,17.06 -4.44,39.13 11.02,50.93 6.63,5.16 12.35,6.2 21.22,5.96 3.913,-0.107 6.37,-1.8 7.37,-5.08 2.867,-9.4 5.57,-18.847 8.11,-28.34 0.28,-1.04 0.313,-2.047 0.1,-3.02 0.553,-3.48 -0.987,-5.697 -4.62,-6.65 -2.8,-0.74 -5.13,-1.017 -6.99,-0.83 -2.14,-1.573 -2.853,-3.66 -2.14,-6.26 0.093,-0.327 0.3,-0.54 0.62,-0.64 0.89,-0.28 2.15,-0.65 3.08,-0.66 19.047,-0.247 38.093,-0.267 57.14,-0.06 2.013,0.027 3.633,0.817 4.86,2.37 -4.12,9.41 -14.55,1.04 -18.91,13.77 -2.28,6.66 -4.31,13.417 -6.09,20.27 -0.8,3.06 -1.803,5.38 -3.01,6.96 -7.39,9.71 -24.47,14.46 -35.3,15.62 -15.16,1.63 -37.33,0.43 -49.84,-9.56 -0.24,-0.187 -0.483,-0.197 -0.73,-0.03 l -0.41,0.26 c -13.37,-11.13 -22.8,-22.94 -22.14,-41.45 1.01,-28 20.93,-48.99 44.32,-61.67 27.34,-14.83 58.03,-21.12 88.82,-15.52 0.993,0.18 2.173,1.047 3.54,2.6 z"
       id="path154"
       style="fill:#ffffff" />
    <path
       d="m 533.04,127.75 c -1.28,9.83 -14.2,1.94 -17.14,13.93 -6.147,25.013 -12.173,50.057 -18.08,75.13 -1.65,7 -3.19,13.34 -3.06,20.59 0.007,0.333 0.113,0.633 0.32,0.9 1.78,2.287 4.157,3.353 7.13,3.2 l 5.83,4 c -0.76,5.54 -5.92,5.46 -9.98,5.18 -20.82,-1.47 -35.31,-0.67 -51.81,0.01 -2.113,-1.487 -2.863,-3.493 -2.25,-6.02 0.08,-0.32 0.257,-0.573 0.53,-0.76 3.47,-2.37 9.46,-2 13.71,-3.85 0.327,-0.14 0.58,-0.36 0.76,-0.66 1.52,-2.52 2.747,-5.507 3.68,-8.96 3.9,-14.427 7.603,-28.903 11.11,-43.43 0.227,-0.94 0.253,-1.963 0.08,-3.07 3.053,-10.14 5.62,-19.943 7.7,-29.41 0.34,-1.527 0.077,-1.64 -0.79,-0.34 -20.04,30.147 -40.213,60.16 -60.52,90.04 -2.807,4.127 -6.643,5.813 -11.51,5.06 -1.813,-1.293 -2.77,-3.077 -2.87,-5.35 -1.207,-28.827 -1.863,-47.473 -1.97,-55.94 -0.047,-3.687 -0.307,-6.407 -0.78,-8.16 l -1.01,-25.7 c -0.053,-1.293 -0.303,-1.333 -0.75,-0.12 -5.673,15.3 -11.373,30.96 -17.1,46.98 -2.5,6.97 -11.27,31.04 -6.99,37.08 1.48,2.1 3.707,2.907 6.68,2.42 -0.387,0.96 -0.123,1.46 0.79,1.5 3.3,0.153 5.98,0.987 8.04,2.5 l 0.01,3.31 c 0.007,0.347 -0.097,0.657 -0.31,0.93 -1.02,1.333 -2.437,1.957 -4.25,1.87 -11.867,-0.613 -22.797,-0.733 -32.79,-0.36 -0.327,0.013 -0.643,0.073 -0.95,0.18 l -1,0.36 c -1.69,-1.13 -5.72,-4.99 -2.23,-6.8 4.44,-2.32 7.77,-3.26 10.12,-7.66 2.327,-4.36 4.03,-8.053 5.11,-11.08 7.813,-21.88 15.577,-43.777 23.29,-65.69 3.267,-9.273 5.323,-15.627 6.17,-19.06 1.113,-2.447 0.687,-4.35 -1.28,-5.71 -2.427,-1.687 -5.573,-2.383 -9.44,-2.09 -4.12,-3.27 -4.57,-7.67 1.8,-7.69 13.893,-0.02 27.797,-0.02 41.71,0 1.66,0.007 2.84,0.67 3.54,1.99 l 2.96,78.43 c 0.013,0.327 0.13,0.367 0.35,0.12 3.1,-3.533 5.373,-7.267 6.82,-11.2 1.393,-0.693 2.293,-1.36 2.7,-2 22.067,-34.687 36.13,-56.453 42.19,-65.3 1.43,-2.08 37.41,-2.12 42.39,-2.16 0.353,-0.007 0.657,0.117 0.91,0.37 z"
       id="path156"
       style="fill:#ffffff" />
    <path
       d="m 608.79,127.25 c -0.91,8 -12.63,4.29 -16.27,9.79 -1.387,2.087 -2.693,5.31 -3.92,9.67 -7.573,26.793 -15.107,53.597 -22.6,80.41 -1.76,6.28 -4.07,15.34 6.25,15.09 2.527,0.707 4.79,1.887 6.79,3.54 -0.447,1.767 -1.327,3.23 -2.64,4.39 -0.267,0.227 -0.573,0.343 -0.92,0.35 -20.24,0.24 -40.483,0.353 -60.73,0.34 -1.053,0 -1.977,-0.737 -2.77,-2.21 -0.08,-0.147 -0.06,-0.277 0.06,-0.39 l 0.21,-0.19 2.49,-3.41 c 0.213,-0.293 0.5,-0.467 0.86,-0.52 5.28,-0.82 9.067,-1.78 11.36,-2.88 3.01,-1.44 3.64,-4.36 4.77,-8.23 8.513,-29.24 16.91,-58.513 25.19,-87.82 0.173,-0.633 0.27,-1.86 0.29,-3.68 3.13,-6.63 -4.85,-7.14 -8.81,-7.81 -0.213,-0.033 -0.41,0.013 -0.59,0.14 l -0.31,0.21 c -2.1,-1.727 -2.52,-3.703 -1.26,-5.93 0.167,-0.3 0.413,-0.493 0.74,-0.58 1.78,-0.467 3.057,-0.71 3.83,-0.73 18.233,-0.54 36.463,-1.153 54.69,-1.84 1.12,-0.04 2.217,0.723 3.29,2.29 z"
       id="path158"
       style="fill:#ffffff" />
    <path
       d="m 673.85,276.81 c 2.287,5.333 3.887,10.25 4.8,14.75 4.28,20.97 2.63,64.24 -30.16,61.47 -2.533,-0.213 -5.17,-1.207 -7.91,-2.98 -0.6,-0.39 -1.12,-0.33 -1.79,-0.3 -5.78,-5.9 -9.453,-12.73 -11.02,-20.49 -3.45,-17.06 -3.66,-51.27 15.66,-60.04 11.42,-5.2 22.16,-1.52 30.42,7.59 z m -26.64,66.94 c 0.44,0.5 0.763,0.783 0.97,0.85 10.05,3.26 17.74,-4 20,-12.92 3.787,-14.993 3.657,-30.053 -0.39,-45.18 -0.36,-1.34 -1.29,-2.687 -2.79,-4.04 l 0.12,-0.79 c 0.053,-0.327 -0.033,-0.613 -0.26,-0.86 -12.65,-13.54 -25.21,-2.32 -27.8,11.51 -2.67,14.21 -4.13,39.37 8.24,50.87 0.28,0.26 0.917,0.447 1.91,0.56 z"
       id="path166"
       style="fill:#ffffff" />
    <path
       d="m 737.99,276.51 c 2.7,5.827 4.427,10.757 5.18,14.79 3.01,16.09 3.33,49.43 -15.02,59.09 -6.46,3.41 -14.44,3.85 -21.41,0.54 -1.04,-0.487 -2.117,-0.88 -3.23,-1.18 -6.12,-5.953 -9.877,-12.617 -11.27,-19.99 -3.6,-19.01 -4.19,-62.96 25.91,-62.77 7.733,0.053 14.347,3.227 19.84,9.52 z m -26.24,66.95 c 1.28,1.113 2.457,1.707 3.53,1.78 24.28,1.76 20.6,-40.47 18.21,-53.98 -0.567,-3.173 -1.747,-6.07 -3.54,-8.69 -2.24,-4.547 -5.637,-7.147 -10.19,-7.8 -19,-2.72 -19.87,26.76 -19.61,38.15 0.2,8.62 1.15,28.17 11.6,30.54 z"
       id="path168"
       style="fill:#ffffff" />
    <path
       d="m 802.04,276.14 c 2.747,5.68 4.593,10.78 5.54,15.3 3.81,18.22 3.18,54.7 -20.8,61.11 -6.027,1.613 -11.947,0.68 -17.76,-2.8 -0.207,-0.127 -0.43,-0.16 -0.67,-0.1 l -0.6,0.14 c -7.66,-8.08 -11.84,-17.743 -12.54,-28.99 -1.16,-18.57 -0.56,-50.27 24.24,-53.62 9.31,-1.25 16.01,2.33 22.59,8.96 z m -26.33,67.11 c 3.6,4.07 11.82,1.93 14.89,-0.93 10.3,-9.57 9.41,-30.32 8.34,-43.41 -0.32,-3.8 -1.28,-9.88 -2.64,-12.67 -0.613,-1.247 -1.29,-2.647 -2.03,-4.2 -3.807,-5.873 -8.763,-8.16 -14.87,-6.86 -16.64,3.54 -15.9,33.79 -14.63,45.93 0.6,5.77 3.63,20.88 10.94,22.14 z"
       id="path170"
       style="fill:#ffffff" />
    <path
       d="m 606.04,274 -0.05,48.33 c 0,0.367 0.18,0.59 0.54,0.67 2.1,0.453 3.97,0.44 5.61,-0.04 1.32,0.02 2.353,0.247 3.1,0.68 0.3,0.173 0.477,0.437 0.53,0.79 l 0.73,4.61 c 0.18,0.687 0.16,1.34 -0.06,1.96 -0.147,0.4 -0.43,0.603 -0.85,0.61 l -9.09,0.19 c -0.333,0.007 -0.5,0.177 -0.5,0.51 v 18.72 c 0,0.42 -0.21,0.643 -0.63,0.67 l -3.92,0.27 -3.69,0.01 c -0.373,0 -0.57,-0.183 -0.59,-0.55 l -0.69,-13.2 c 0.333,-1.687 0.273,-3.593 -0.18,-5.72 -0.087,-0.413 -0.337,-0.62 -0.75,-0.62 l -31.7,-0.17 c -0.273,-0.007 -0.53,0.063 -0.77,0.21 l -0.54,0.32 c -2.15,-0.83 -5.14,0.79 -5.59,-2.72 -0.43,-3.39 0.17,-5.79 2.57,-8.45 14.333,-15.94 26.437,-33.43 36.31,-52.47 0.193,-0.367 0.497,-0.55 0.91,-0.55 h 7.69 c 0.773,0 1.19,0.383 1.25,1.15 z M 569,322.21 c 0.03,1.48 9.88,0.64 11.25,0.5 4.987,0.433 10.047,0.49 15.18,0.17 0.32,-0.02 0.5,-0.19 0.54,-0.51 0.913,-7.193 1.043,-14.45 0.39,-21.77 0.5,-5.28 0.37,-10.58 -0.39,-15.9 l 0.01,-1.51 c 0.003,-0.185 -0.195,-0.303 -0.357,-0.214 -0.039,0.022 -0.071,0.055 -0.093,0.094 -7.5,13.173 -16.097,25.59 -25.79,37.25 -0.207,0.247 -0.357,0.53 -0.45,0.85 z"
       id="path172"
       style="fill:#ffffff" />
    <path
       style="fill:#ffffff"
       d="M 192.868,248.888 H 146.857 L 59.097,117.204 h 46.435 z"
       id="path52-1" />
    <path
       style="fill:#ffffff"
       d="m 193.348,248.888 h -43.88 L 311.359,0.587 h 46.011 z"
       id="path77-3" />
    <path
       style="fill:#ffffff"
       d="M 137.486,248.886 H 91.475 L 3.713,117.204 h 46.438 z"
       id="path96-0" />
    <path
       style="fill:#ffffff"
       d="M 137.966,248.886 H 94.084 L 255.973,0.585 h 46.011 z"
       id="path121-1" />
  </g>
</svg>
