<?xml version="1.0" encoding="UTF-8" standalone="no"?>
<svg
   version="1.1"
   id="Layer_1"
   viewBox="0 0 376 171.42695"
   width="376"
   height="171.42696"
   xmlns="http://www.w3.org/2000/svg"
   xmlns:svg="http://www.w3.org/2000/svg">
  <defs
     id="defs5" />
  <path
     class="st0"
     d="M 232.93586,42.790323 C 198.3231,1.8211135 147.5107,-12.165028 119.46006,11.536977 91.409427,35.238982 96.727687,87.667426 131.34045,128.63664 c 34.61276,40.9692 85.42516,54.95535 113.4758,31.25334 28.05064,-23.7118 22.73238,-76.130447 -11.88039,-117.099657 z m 11.16541,111.624687 c -25.86653,21.8607 -73.70148,7.7962 -106.83532,-31.41005 C 104.13212,83.79871 98.245791,34.288943 124.12211,12.428251 c 25.87632,-21.8606928 73.70148,-7.7961972 106.83532,31.410053 33.13384,39.216045 39.02016,88.716016 13.14384,110.576706 z"
     style="fill:#ffffff;stroke-width:0.0979422"
     id="path1" />
  <polygon
     class="st0"
     points="2788.4,514.5 2788.4,1200.3 3019.8,1200.3 3019.8,514.5 3180.6,514.5 3180.6,283.1 3019.8,283.1 2788.4,283.1 2627.7,283.1 2627.7,514.5 "
     style="fill:#ffffff"
     id="polygon1"
     transform="matrix(0.09794217,0,0,0.09794217,0,-6.1084075e-4)" />
  <path
     class="st0"
     d="m 235.17874,27.726817 h -34.34832 v 89.832563 h 34.34832 c 10.94014,0 19.80391,-8.86377 19.80391,-19.803911 V 47.530724 c 0,-10.94014 -8.86377,-19.803907 -19.80391,-19.803907 z m -2.85991,67.168741 h -8.8148 V 50.40043 h 8.8148 z"
     style="fill:#ffffff;stroke-width:0.0979422"
     id="path2" />
  <path
     class="st0"
     d="m 176.71706,27.726817 h -24.3876 c -8.21735,0 -14.88721,6.669862 -14.88721,14.88721 v 60.067933 c 0,8.21735 6.66006,14.88721 14.88721,14.88721 h 24.3876 c 8.21735,0 14.88721,-6.66007 14.88721,-14.88721 V 83.975006 h -22.66382 v 10.910757 h -8.8148 V 50.40043 h 8.8148 v 10.910758 h 22.66382 V 42.614027 c 0,-8.217348 -6.66007,-14.88721 -14.88721,-14.88721 z"
     style="fill:#ffffff;stroke-width:0.0979422"
     id="path3" />
  <polygon
     class="st0"
     points="3677.3,1200.3 3839,283.1 3604,283.1 3529.3,920.2 3454.7,283.1 3219.7,283.1 3381.4,1200.3 "
     style="fill:#ffffff"
     id="polygon3"
     transform="matrix(0.09794217,0,0,0.09794217,0,-6.1084075e-4)" />
  <path
     class="st0"
     d="m 21.106538,72.643097 c 0,-13.134045 10.68549,-23.809742 23.809741,-23.809742 4.211513,0 8.178171,1.106747 11.615942,3.036207 V 29.254715 C 52.830006,28.265499 48.931908,27.726817 44.916279,27.726817 20.107528,27.726817 0,47.844139 0,72.643097 c 0,24.798957 20.107528,44.916283 44.916279,44.916283 4.015629,0 7.903933,-0.53869 11.615942,-1.5279 V 93.426425 c -3.437771,1.929461 -7.394634,3.036207 -11.615942,3.036207 -13.134045,0 -23.809741,-10.68549 -23.809741,-23.819535 z"
     style="fill:#ffffff;stroke-width:0.0979422"
     id="path4" />
  <polygon
     class="st0"
     points="793.4,725 976.8,541.6 577.2,541.6 577.2,725 "
     style="fill:#ffffff"
     id="polygon4"
     transform="matrix(0.09794217,0,0,0.09794217,0,-6.1084075e-4)" />
  <polygon
     class="st0"
     points="577.2,941.9 976.8,941.9 793.4,758.4 577.2,758.4 "
     style="fill:#ffffff"
     id="polygon5"
     transform="matrix(0.09794217,0,0,0.09794217,0,-6.1084075e-4)" />
</svg>
