<?xml version="1.0" encoding="UTF-8" standalone="no"?>
<svg
   version="1.1"
   viewBox="0 0 375.9993 65.653"
   id="svg10"
   sodipodi:docname="amstradcpc.svg"
   width="375.9993"
   height="65.653"
   inkscape:version="1.4 (e7c3feb100, 2024-10-09)"
   xmlns:inkscape="http://www.inkscape.org/namespaces/inkscape"
   xmlns:sodipodi="http://sodipodi.sourceforge.net/DTD/sodipodi-0.dtd"
   xmlns="http://www.w3.org/2000/svg"
   xmlns:svg="http://www.w3.org/2000/svg">
  <defs
     id="defs10" />
  <sodipodi:namedview
     id="namedview10"
     pagecolor="#ffffff"
     bordercolor="#000000"
     borderopacity="0.25"
     inkscape:showpageshadow="2"
     inkscape:pageopacity="0.0"
     inkscape:pagecheckerboard="0"
     inkscape:deskcolor="#d1d1d1"
     inkscape:zoom="0.45963542"
     inkscape:cx="1920"
     inkscape:cy="336.13598"
     inkscape:window-width="1920"
     inkscape:window-height="1164"
     inkscape:window-x="1920"
     inkscape:window-y="0"
     inkscape:window-maximized="1"
     inkscape:current-layer="svg10" />
  <path
     class="st1"
     d="M 253.4666,55.391353 V 10.251855 c 0,-6.579987 3.38791,-10.06581369 9.59582,-10.06581369 h 27.18161 V 16.733926 h -6.86395 V 6.6876956 h -18.62371 c -2.81999,0 -3.94603,1.7820799 -3.94603,5.3560314 v 41.565546 c 0,3.573951 1.12604,5.356031 3.94603,5.356031 h 18.62371 V 48.253241 h 6.86395 v 17.213718 h -27.18161 c -6.20791,-0.0098 -9.59582,-3.485827 -9.59582,-10.075606 z"
     style="fill:#ffffff;stroke-width:0.0979165"
     id="path1" />
  <path
     class="st1"
     d="m 294.09215,58.965304 h 5.7379 V 6.6779039 h -5.7379 V 0.19583296 h 31.12765 c 6.2079,0 9.59581,3.47603504 9.59581,10.06581404 v 14.951847 c 0,6.579987 -3.38791,10.065814 -9.59581,10.065814 H 307.164 v 23.695788 h 5.92394 v 6.491863 h -18.99579 z m 29.43369,-30.177859 c 2.82,0 3.94604,-1.78208 3.94604,-5.356031 V 12.043727 c 0,-3.5739515 -1.12604,-5.3560314 -3.94604,-5.3560314 H 307.164 V 28.787445 Z"
     style="fill:#ffffff;stroke-width:0.0979165"
     id="path2" />
  <path
     class="st1"
     d="M 339.23164,55.391353 V 10.251855 c 0,-6.579987 3.38792,-10.06581369 9.59582,-10.06581369 h 27.17182 V 16.733926 h -6.86394 V 6.6876956 h -18.62372 c -2.81999,0 -3.94603,1.7820799 -3.94603,5.3560314 v 41.565546 c 0,3.573951 1.12604,5.356031 3.94603,5.356031 h 18.62372 V 48.253241 h 6.86394 v 17.213718 h -27.18161 c -6.19811,-0.0098 -9.58603,-3.485827 -9.58603,-10.075606 z"
     style="fill:#ffffff;stroke-width:0.0979165"
     id="path3" />
  <path
     class="st1"
     d="M 33.164312,65.457167 H 20.190378 L 19.113297,52.58115 H 13.84539 L 12.866225,65.457167 H 0 L 8.1956094,0.39166592 H 25.066619 Z M 16.489135,16.587052 14.638514,41.849504 h 3.711034 z"
     style="fill:#ffffff;stroke-width:0.0979165"
     id="path4" />
  <path
     class="st1"
     d="M 76.864437,65.457167 H 64.478002 V 28.581821 L 59.601761,65.457167 H 51.601985 L 46.431995,28.385988 V 65.457167 H 34.04556 V 0.39166592 H 52.189484 L 55.410936,29.169319 58.81843,0.39166592 h 18.046007 z"
     style="fill:#ffffff;stroke-width:0.0979165"
     id="path5" />
  <path
     class="st1"
     d="m 97.152731,22.726415 v -7.706027 c 0,-2.046454 -0.09792,-2.73187 -0.293749,-3.221452 -0.391666,-0.685416 -0.979165,-1.174998 -1.654788,-1.174998 -0.685416,0 -1.458956,0.489582 -1.752705,1.174998 -0.195833,0.587499 -0.29375,1.077081 -0.29375,3.221452 v 4.778324 c 0,2.144371 0.587499,2.927703 3.123536,4.288742 l 5.845615,3.231244 c 7.70603,4.288742 8.78311,6.051238 8.78311,14.824555 V 52.58115 c 0,5.659572 -0.39167,7.510194 -1.94854,9.556648 -2.14437,2.927703 -4.48458,3.515202 -14.628723,3.515202 -8.097693,0 -10.33998,-0.489583 -12.484351,-2.927703 -1.272915,-1.361039 -1.850622,-2.927703 -2.144371,-5.365823 -0.195833,-1.272914 -0.195833,-2.73187 -0.195833,-7.118528 V 38.530135 h 13.659349 v 10.927479 1.654789 c 0,2.633953 0.587499,3.711034 2.046454,3.711034 1.272914,0 1.948538,-1.077081 1.948538,-2.927703 v -1.654788 -7.216445 l -0.09792,-1.361039 c -0.09792,-2.43812 -0.391666,-2.927703 -2.73187,-4.190825 -0.881248,-0.489583 -1.556872,-0.783332 -1.654789,-0.881248 L 86.920459,33.369936 C 80.575471,29.756818 79.508182,27.710364 79.508182,19.612671 V 12.00456 c 0,-5.3658227 0.587499,-7.7060265 2.633953,-9.556648 C 84.276714,0.4895824 86.812751,0 96.271483,0 c 8.293527,0 10.535817,0.58749888 12.582267,3.3193687 1.65479,2.1443709 2.04646,4.1908253 2.04646,10.2420633 v 9.174775 H 97.152731 Z"
     style="fill:#ffffff;stroke-width:0.0979165"
     id="path6" />
  <path
     class="st1"
     d="M 132.44183,65.457167 H 118.68457 V 10.927479 h -6.9227 V 0.39166592 h 27.41661 V 10.927479 h -6.72686 v 54.529688 z"
     style="fill:#ffffff;stroke-width:0.0979165"
     id="path7" />
  <path
     class="st1"
     d="m 154.65908,0.39166592 4.87624,0.0979165 c 9.55665,0.19583296 11.89685,2.73186978 11.89685,12.58226758 v 6.824779 c 0,9.076857 -1.36104,12.190601 -6.14915,13.463516 2.3402,0.783332 3.71103,1.850621 4.68041,3.613118 1.27291,2.242287 1.45895,3.994992 1.45895,11.612894 V 65.466959 H 157.76303 V 45.952204 c 0,-6.442904 0,-6.344988 -3.41728,-6.442904 -0.19584,0 -0.29375,0 -0.5875,0 V 65.457167 H 140.02057 V 0.39166592 Z m 0.0881,27.21099008 c 2.63396,0 3.02562,-0.587499 3.02562,-4.778325 V 15.80372 l -0.0979,-1.752705 c 0,-2.340204 -0.5875,-3.025619 -2.43812,-3.025619 h -0.88125 -0.5875 v 16.587051 c 0.49937,-0.0098 0.79312,-0.0098 0.97916,-0.0098 z"
     style="fill:#ffffff;stroke-width:0.0979165"
     id="path8" />
  <path
     class="st1"
     d="M 204.98815,65.457167 H 192.01422 L 190.93714,52.58115 h -5.26791 l -0.97917,12.876017 h -12.87601 l 8.19561,-65.06550108 h 16.8808 z m -16.68497,-48.870115 -1.85062,25.262452 h 3.71104 z"
     style="fill:#ffffff;stroke-width:0.0979165"
     id="path9" />
  <path
     class="st1"
     d="m 219.22521,0.39166592 c 11.80872,0 13.46351,0.29374944 15.7058,2.92770278 2.04645,2.3402038 2.53604,4.8762407 2.53604,13.8551823 v 32.097022 c 0,7.999776 -0.29375,10.144147 -1.85062,12.484351 -1.85063,2.73187 -4.5825,3.613118 -11.31915,3.613118 l -6.92269,0.09792 H 205.85961 V 0.39166592 Z M 220.88,54.823437 c 2.14437,0 2.63395,-0.685415 2.63395,-3.417285 0,-0.391666 0,-0.685415 0,-1.361039 0,-1.077081 0,-2.242287 0,-3.221452 V 16.293302 14.638514 c 0,-2.927703 -0.48958,-3.613118 -2.63395,-3.613118 -0.29375,0 -0.78334,0.09792 -1.27292,0.09792 v 43.700125 c 0.49938,0 0.97917,0 1.27292,0 z"
     style="fill:#ffffff;stroke-width:0.0979165"
     id="path10" />
</svg>
