<?xml version="1.0" encoding="UTF-8" standalone="no"?>
<svg
   viewBox="0 0 376.0007 57.292"
   version="1.1"
   id="svg16"
   width="376.0007"
   height="57.292"
   xmlns="http://www.w3.org/2000/svg"
   xmlns:svg="http://www.w3.org/2000/svg">
  <defs
     id="defs1" />
  <path
     style="fill:#ffffff;stroke-width:4.52794"
     id="path22"
     d="m 18.012605,18.402668 c 5.381628,0 9.852314,2.778184 11.979279,5.772646 V 19.14078 h 8.202782 v 37.370139 h -5.902508 c -1.302438,0 -2.34372,-1.04176 -2.34372,-2.343721 V 51.475907 C 27.864919,54.514292 23.394233,57.292 18.012605,57.292 7.7692726,57.292 0,48.524414 0,37.847572 0,27.170253 7.7692726,18.402668 18.012605,18.402668 m 1.475746,7.465625 c -6.641098,0 -11.1547522,5.251766 -11.1547522,11.979279 0,6.727513 4.4706852,11.97928 11.1547522,11.97928 6.64062,0 11.154275,-5.251767 11.154275,-11.97928 0,-6.727513 -4.470208,-11.979279 -11.154275,-11.979279" />
  <path
     style="fill:#ffffff;stroke-width:4.52794"
     id="path24"
     d="m 47.526578,19.14078 h 8.246706 v 5.077981 c 2.256828,-3.732574 6.510281,-5.816093 11.371507,-5.816093 8.680693,0 14.279554,6.120218 14.279554,15.625438 v 22.482813 h -5.902986 c -1.301961,0 -2.34372,-1.04176 -2.34372,-2.343721 V 35.373513 c 0,-5.902986 -2.994939,-9.50522 -7.769273,-9.50522 -5.468521,0 -9.635082,4.253453 -9.635082,12.239481 v 18.403145 h -5.902986 c -1.30196,0 -2.34372,-1.04176 -2.34372,-2.343721 z" />
  <path
     style="fill:#ffffff;stroke-width:4.52794"
     id="path26"
     d="m 105.94675,18.402668 c 5.38211,0 9.85279,2.778184 11.97928,5.772646 V 0.47743333 h 8.20326 V 56.554365 h -5.90251 c -1.30243,0 -2.34372,-1.041759 -2.34372,-2.344198 v -2.690814 c -2.08352,2.994939 -6.59765,5.772647 -11.97928,5.772647 -10.243328,0 -18.012601,-8.767586 -18.012601,-19.444428 0.04345,-10.677319 7.812719,-19.444904 18.055571,-19.444904 m 1.47575,7.465625 c -6.64062,0 -11.154276,5.251766 -11.154276,11.979279 0,6.727513 4.470206,11.97928 11.154276,11.97928 6.64062,0 11.15475,-5.251767 11.15475,-11.97928 0,-6.727513 -4.51413,-11.979279 -11.15475,-11.979279" />
  <path
     style="fill:#ffffff;stroke-width:4.52794"
     id="path28"
     d="m 135.4612,19.14078 h 8.20326 v 6.64062 c 1.4323,-4.253454 5.59886,-7.031161 9.85232,-7.031161 1.04176,0 2.08352,0.08689 3.21169,0.303648 v 8.46346 c -1.4323,-0.433986 -2.60392,-0.694188 -4.12311,-0.694188 -4.73089,0 -8.98434,3.949806 -8.98434,11.4584 v 18.22936 h -5.90299 c -1.30196,0 -2.34372,-1.04176 -2.34372,-2.343721 V 19.14078 Z" />
  <path
     style="fill:#ffffff;stroke-width:4.52794"
     id="path30"
     d="m 178.95108,57.292 c -11.06786,0 -19.57476,-8.5938 -19.57476,-19.444428 0,-10.851104 8.5069,-19.444904 19.57476,-19.444904 11.06739,0 19.57477,8.5938 19.57477,19.444904 0,10.850628 -8.50738,19.444428 -19.57477,19.444428 m 0,-7.638934 c 6.59718,0 11.19772,-5.164873 11.19772,-11.805494 0,-6.64062 -4.64399,-11.805971 -11.19772,-11.805971 -6.64062,0 -11.28509,5.165351 -11.28509,11.805971 0,6.640621 4.64447,11.805494 11.28509,11.805494" />
  <path
     style="fill:#ffffff;stroke-width:4.52794"
     id="path32"
     d="m 209.28958,10.980967 c -2.99494,0 -5.51196,-2.4740599 -5.51196,-5.5119682 C 203.77762,2.4740595 206.33809,0 209.28958,0 c 3.08184,0 5.469,2.4740595 5.469,5.4689988 0,3.0813547 -2.38716,5.5119682 -5.469,5.5119682 m -4.07966,8.159813 h 8.20278 v 37.370139 h -5.85906 c -1.30244,0 -2.34372,-1.04176 -2.34372,-2.343721 z" />
  <path
     style="fill:#ffffff;stroke-width:4.52794"
     id="path34"
     d="m 238.19579,18.402668 c 5.3821,0 9.85279,2.778184 11.97927,5.772646 V 0.47743333 h 8.20326 V 56.554365 h -5.9025 c -1.30244,0 -2.3442,-1.041759 -2.3442,-2.344198 v -2.690814 c -2.08304,2.994939 -6.59718,5.772647 -11.9788,5.772647 -10.24334,0 -18.01261,-8.767586 -18.01261,-19.444428 0.0435,-10.677319 7.81272,-19.444904 18.05558,-19.444904 m 1.51919,7.465625 c -6.64062,0 -11.15428,5.251766 -11.15428,11.979279 0,6.727513 4.47021,11.97928 11.15428,11.97928 6.64062,0 11.15475,-5.251767 11.15475,-11.97928 0,-6.727513 -4.51413,-11.979279 -11.15475,-11.979279" />
  <path
     style="fill:#ffffff;fill-opacity:1;stroke-width:4.52794"
     id="path36"
     d="m 349.1341,42.404674 c -2.30027,0 -4.16656,-1.866287 -4.16656,-4.166561 0,-2.300274 1.86629,-4.166561 4.16656,-4.166561 2.30028,0 4.16656,1.866287 4.16656,4.166561 0,2.300274 -1.86628,4.166561 -4.16656,4.166561 m -45.87704,0 c -2.30028,0 -4.16656,-1.866287 -4.16656,-4.166561 0,-2.300274 1.86628,-4.166561 4.16656,-4.166561 2.30027,0 4.16704,1.866287 4.16704,4.166561 0,2.300274 -1.86677,4.166561 -4.16704,4.166561 m 47.35279,-24.999842 8.3336,-14.3664463 c 0.47743,-0.8250048 0.17331,-1.8662869 -0.65122,-2.3437202 -0.82453,-0.47743333 -1.86629,-0.17378574 -2.34372,0.6507416 L 347.5285,15.885639 c -6.42387,-2.951493 -13.62882,-4.601025 -21.3112,-4.601025 -7.68238,0 -14.93077,1.649532 -21.35416,4.557579 L 296.44265,1.3019607 C 295.9657,0.47743333 294.92394,0.17378573 294.09893,0.65121906 293.2744,1.1286524 292.97076,2.1699345 293.44819,2.9949393 l 8.28967,14.3664467 c -14.2361,7.768795 -24.00152,22.178688 -25.43382,39.235948 h 99.69667 C 374.61186,39.58352 364.8894,25.173627 350.60985,17.404832"
     class="logo-android__andy-icon " />
</svg>
