<?xml version="1.0" encoding="UTF-8" standalone="no"?>
<svg
   version="1.1"
   id="Layer_1"
   x="0px"
   y="0px"
   viewBox="0 0 376.00257 33.097998"
   width="376.00256"
   height="33.098"
   xmlns="http://www.w3.org/2000/svg"
   xmlns:svg="http://www.w3.org/2000/svg">
  <defs
     id="defs13" />
  <style
     type="text/css"
     id="style1">
	.st0{fill:#C70A11;}
	.st1{fill:#2FBB37;}
	.st2{fill:#1E35A0;}
	.st3{fill:#FFFFFF;}
</style>
  <polygon
     class="st0"
     points="147,305.8 247,14.2 100,14.2 0,305.8 "
     style="fill:#ffffff"
     id="polygon1"
     transform="scale(0.10534055)" />
  <polygon
     class="st1"
     points="348.1,305.8 448.1,14.2 301,14.2 201,305.8 "
     style="fill:#ffffff"
     id="polygon2"
     transform="scale(0.10534055)" />
  <polygon
     class="st2"
     points="549.1,305.8 649.1,14.2 502.1,14.2 402.1,305.8 "
     style="fill:#ffffff"
     id="polygon3"
     transform="scale(0.10534055)" />
  <path
     d="m 115.94834,21.478938 c 3.08648,-2.644048 5.2881,-5.214357 5.2881,-10.196965 0,-4.9404719 -2.55978,-9.3963772 -12.70407,-9.3963772 h -2.82313 -5.28809 c -2.486041,0 -4.508579,2.0120046 -4.508579,4.5085756 V 32.202606 h 9.796669 V 10.607793 h 2.82313 c 2.9074,0 4.07668,3.634249 1.09554,4.666587 -3.08648,1.074473 -3.8344,6.341501 -1.87506,9.512251 l 4.57178,7.405441 h 10.24963 z"
     style="fill:#ffffff;stroke-width:0.105341"
     id="path3" />
  <rect
     x="206.20413"
     y="1.8961298"
     width="9.7966709"
     height="30.317009"
     style="fill:#ffffff;stroke-width:0.105341"
     id="rect3" />
  <path
     d="m 296.10175,19.077174 c 2.88633,-2.264822 4.40324,-5.899071 3.866,-9.5333202 -0.0527,-0.2738854 -0.10534,-0.4845665 -0.14748,-0.6320433 -3.59211,-11.1766323 -20.63621,-11.1660983 -24.21779,0.021068 -0.35816,1.1271445 -0.58991,2.3806965 -0.64258,3.7501235 0,0.05267 0.0421,0.09481 0.0948,0.09481 h 9.70186 c -0.0527,-0.326556 -0.0632,-0.642578 -0.0316,-0.958599 0.0527,-1.11661 0.73739,-1.9593346 1.62225,-2.412299 2.60191,-1.3272909 4.84566,2.422833 2.5387,4.23469 L 275.92904,23.79643 c -3.51838,2.759923 -1.56958,8.41671 2.9074,8.41671 h 0.48456 c 0.0105,0 0.0316,-0.01053 0.0527,-0.01053 l -0.0105,0.01053 h 20.70995 v -8.722197 h -9.58599 z"
     style="fill:#ffffff;stroke-width:0.105341"
     id="path4" />
  <rect
     x="253.20708"
     y="14.094566"
     width="13.926021"
     height="8.7221975"
     style="fill:#ffffff;stroke-width:0.105341"
     id="rect4" />
  <path
     d="M 361.62357,0.25281732 V 8.9855489 h 3.34983 c 0.68472,0 1.23249,0.5583049 1.23249,1.2324841 V 32.21314 h 9.79667 V 5.5303789 c 0,-2.9073992 -2.35963,-5.26702752 -5.26703,-5.26702752 z"
     style="fill:#ffffff;stroke-width:0.105341"
     id="path5" />
  <path
     d="m 188.38051,1.9488002 -1.55904,-0.05267 h -0.0105 -0.71631 -5.2881 c -2.48604,0 -4.50858,2.0120045 -4.50858,4.5085755 V 27.715099 c 0,2.486037 2.01201,4.498041 4.50858,4.498041 h 7.58452 c 20.60461,-1.337825 20.60461,-28.9265148 -0.0105,-30.2643398 z m -1.56958,21.5421428 h -0.71631 V 10.618327 h 0.71631 c 9.63866,0.01053 9.63866,12.872616 0,12.872616 z"
     style="fill:#ffffff;stroke-width:0.105341"
     id="path6" />
  <path
     d="m 139.5973,10.618327 h 3.71852 V 1.8961299 h -3.71852 c -22.70089,0 -22.70089,30.3170101 0,30.3064761 v 0.01053 h 3.71852 v -8.722197 h -3.71852 v -0.01053 c -9.63866,0 -9.63866,-12.862082 0,-12.862082 z"
     style="fill:#ffffff;stroke-width:0.105341"
     id="path7" />
  <path
     d="m 84.483121,32.21314 h 9.796671 L 85.294243,5.9938773 c -2.085743,-6.0886838 -10.7026,-6.0886838 -12.777808,0 L 63.530886,32.21314 h 9.796671 l 1.000735,-4.108281 h 9.14356 z m -8.448312,-11.081826 2.275356,-9.322638 c 0.115874,-0.663646 1.063939,-0.663646 1.179814,0 l 2.275356,9.322638 z"
     style="fill:#ffffff;stroke-width:0.105341"
     id="path8" />
  <path
     d="m 165.38466,32.21314 h 9.79667 L 166.19579,5.9938773 c -2.08575,-6.08868379 -10.7026,-6.08868379 -12.77781,0 L 144.43243,32.21314 h 9.79667 l 1.00073,-4.108281 h 9.14356 z m -8.44831,-11.081826 2.27536,-9.322638 c 0.11587,-0.663646 1.06394,-0.663646 1.17981,0 l 2.27536,9.322638 z"
     style="fill:#ffffff;stroke-width:0.105341"
     id="path9" />
  <path
     d="m 238.50154,32.21314 h 9.79667 L 239.31266,5.9938773 c -2.08574,-6.08868379 -10.7026,-6.08868379 -12.77781,0 L 217.5493,32.21314 h 9.79668 l 1.00073,-4.108281 h 9.14356 z m -8.43778,-11.081826 2.27536,-9.322638 c 0.11587,-0.663646 1.06394,-0.663646 1.17981,0 l 2.27536,9.322638 z"
     style="fill:#ffffff;stroke-width:0.105341"
     id="path10" />
  <path
     d="m 316.55889,0 c -10.15483,0 -13.90496,7.4054407 -13.90496,16.549 0,9.14356 3.75013,16.549001 13.90496,16.549001 10.15483,0 13.90495,-7.405441 13.90495,-16.549001 C 330.46384,7.4054407 326.71372,0 316.55889,0 Z m 0,24.375803 c -2.27536,0 -4.11882,-1.89613 -4.11882,-7.826803 0,-5.930673 1.83293,-7.8268025 4.11882,-7.8268025 2.27535,0 4.11881,1.8961295 4.11881,7.8268025 0,5.930673 -1.85399,7.826803 -4.11881,7.826803 z"
     style="fill:#ffffff;stroke-width:0.105341"
     id="path11" />
  <path
     d="m 346.62308,0 c -10.15483,0 -13.90495,7.4054407 -13.90495,16.549 0,9.14356 3.75012,16.549001 13.90495,16.549001 10.15483,0 13.90495,-7.405441 13.90495,-16.549001 C 360.52803,7.4054407 356.78844,0 346.62308,0 Z m 0,24.375803 c -2.27536,0 -4.11882,-1.89613 -4.11882,-7.826803 0,-5.930673 1.83293,-7.8268025 4.11882,-7.8268025 2.27536,0 4.11882,1.8961295 4.11882,7.8268025 0,5.930673 -1.84346,7.826803 -4.11882,7.826803 z"
     style="fill:#ffffff;stroke-width:0.105341"
     id="path12" />
  <polygon
     points="2651.9,305.8 2713.9,223 2848.4,223 2848.4,305.8 "
     style="fill:#ffffff"
     id="polygon12"
     transform="scale(0.10534055)" />
  <rect
     x="139.61836"
     y="23.490942"
     width="3.7185214"
     height="8.7221975"
     style="fill:#ffffff;stroke-width:0.105341"
     id="rect12" />
  <rect
     x="139.61836"
     y="1.8961298"
     width="3.7185214"
     height="8.7221975"
     style="fill:#ffffff;stroke-width:0.105341"
     id="rect13" />
</svg>
