<?xml version="1.0" encoding="UTF-8" standalone="no"?>
<svg
   height="80.231003"
   viewBox="0 0 189.99929 40.115501"
   width="379.9986"
   version="1.1"
   id="svg7"
   xmlns="http://www.w3.org/2000/svg"
   xmlns:svg="http://www.w3.org/2000/svg">
  <defs
     id="defs7" />
  <path
     d="m 188.41985,24.573515 h -15.1222 c -0.006,0.04264 -0.0142,0.08244 -0.0194,0.125083 a 7.1188097,7.1188097 0 0 0 7.13398,7.134445 h 0.87794 a 7.1188097,7.1188097 0 0 0 7.13397,-7.134445 c -4.7e-4,-0.04217 -0.003,-0.08339 -0.005,-0.125083 z"
     fill="#db0404"
     opacity="0"
     id="path1"
     style="stroke-width:0.473798" />
  <path
     d="M 173.26827,24.123407 C 174.0562,5.5675962 188.03844,6.4043228 188.43122,24.16368"
     fill="#fca404"
     opacity="0"
     id="path2"
     style="stroke-width:0.473798" />
  <path
     d="m 189.95969,36.155499 c 0.0649,0.09334 0.0696,0.230739 -0.13835,0.333553 -0.40273,0.197574 -1.15606,0.522125 -1.67108,0.649103 -0.18857,0.04643 -0.37904,0.02227 -0.48091,-0.02085 -4.69486,-3.299053 -9.18362,-4.650798 -14.42145,-5.567122 v -0.788874 c 1.80422,0.168672 4.10309,0.689376 6.61469,1.361695 0.31176,0.0687 0.32645,-0.299914 0.23453,-0.297071 l 1.56069,-0.04217 v 0.771342 c 3.59233,0.801192 6.84543,2.300288 8.30188,3.600862 z"
     fill="#db0404"
     opacity="0"
     id="path3"
     style="stroke-width:0.473798" />
  <g
     fill="#ffffff"
     id="g4"
     transform="scale(0.47379765)">
    <path
       d="M 92.933,39.42 H 86.85 l -4.635,35.92 h 6.156 L 90.978,55.1 c 0.87,-2.16 1.81,-3.52 2.173,-4.08 2.969,-4.56 4.924,-5.12 6.662,-5.12 1.738,0 2.897,0.72 3.693,1.2 v -7.68 c -0.651,-0.24 -1.448,-0.56 -2.679,-0.56 -4.128,0 -6.88,4.08 -8.835,8.24 z m 37.224,-0.48 c -1.376,-0.32 -2.68,-0.64 -5.215,-0.64 -15.642,0 -21.435,12.48 -21.435,21.68 0,7.04 3.403,16.48 14.338,16.48 4.563,0 7.46,-1.6 9.053,-2.56 l 0.941,-7.2 c -1.738,1.44 -4.562,3.68 -9.052,3.68 -7.966,0 -8.908,-7.92 -8.908,-10.48 0,-6.64 4.418,-15.52 14.774,-15.52 1.665,0 2.969,0.24 4.707,0.56 z M 145.22,20.78 h -6.156 l -7.097,54.56 h 6.156 l 3.114,-23.36 c 1.738,-2.48 3.62,-4.48 3.91,-4.8 1.087,-1.2 3.404,-3.6 5.939,-3.6 1.014,0 2.245,0.64 2.969,1.76 0.724,1.12 0.796,2.16 0.796,3.36 0,1.52 -0.072,2 -0.29,3.28 l -2.968,23.36 h 6.228 l 2.896,-22.8 c 0.29,-1.84 0.362,-2.32 0.362,-4.56 0,-7.04 -4.055,-9.68 -7.386,-9.68 -4.78,0 -8.618,3.36 -11.66,7.04 z m 31.647,18.64 h -6.156 l -4.635,35.92 h 6.156 z m 13.542,0 h -6.083 l -4.635,35.92 h 6.083 l 2.97,-22.8 c 0.94,-1.36 5.793,-8.32 9.776,-8.32 1.231,0 3.766,0.72 3.766,5.04 0,1.04 -0.145,3.44 -0.507,6.48 l -2.535,19.6 h 6.156 l 3.041,-22.8 c 2.245,-3.36 6.518,-8.4 10.139,-8.4 1.159,0 3.476,0.72 3.476,5.36 0,0.88 -0.145,2.16 -0.217,3.04 l -2.97,22.8 h 6.156 l 2.752,-21.28 c 0.217,-1.76 0.435,-3.52 0.435,-5.36 0,-8.16 -4.78,-9.84 -7.677,-9.84 -5.576,0 -10.066,5.12 -12.094,8 -0.796,-6.16 -4.417,-8 -7.459,-8 -3.766,0 -7.459,2.16 -11.37,6.96 z m 68.725,25.92 c -2.969,2.48 -7.17,5.52 -11.225,5.52 -3.983,0 -7.966,-3.92 -7.966,-10.64 0,-1.2 0.073,-2.24 0.145,-3.52 h 20.35 c 0.145,-0.8 0.29,-1.84 0.29,-3.52 0,-8.96 -4.997,-14.88 -11.805,-14.88 -8.98,0 -15.208,9.68 -15.208,21.12 0,9.76 5.214,17.04 13.687,17.04 3.042,0 6.953,-0.96 10.79,-4 z M 241.102,51.98 c 0.724,-2.32 2.535,-8.16 7.821,-8.16 3.332,0 5.866,2.88 5.794,8.16 z m 56.342,-31.2 h -6.228 l -2.245,17.6 c -3.549,-0.08 -6.59,-0.16 -10.718,1.44 -8.328,3.28 -13.325,12.24 -13.325,20.48 0,4.88 1.81,9.04 4.345,11.68 2.39,2.48 5.793,4.48 12.746,4.48 4.562,0 7.169,-0.8 8.328,-1.12 z M 284.77,70.7 c -0.725,0.16 -1.376,0.24 -2.752,0.24 -7.822,0 -10.646,-5.36 -10.646,-10.96 0,-5.68 2.752,-12.32 9.342,-14.88 2.897,-1.2 5.866,-1.12 7.532,-1.12 z m 40.193,-5.36 c -2.97,2.48 -7.17,5.52 -11.225,5.52 -3.983,0 -7.966,-3.92 -7.966,-10.64 0,-1.2 0.072,-2.24 0.145,-3.52 h 20.35 c 0.144,-0.8 0.29,-1.84 0.29,-3.52 0,-8.96 -4.998,-14.88 -11.805,-14.88 -8.98,0 -15.208,9.68 -15.208,21.12 0,9.76 5.214,17.04 13.687,17.04 3.042,0 6.952,-0.96 10.79,-4 z M 306.93,51.98 c 0.724,-2.32 2.534,-8.16 7.82,-8.16 3.332,0 5.867,2.88 5.794,8.16 z m 44.973,-9.68 c -1.81,-1.28 -5.36,-3.76 -9.994,-3.76 -6.735,0 -10.066,4.8 -10.066,10 0,4.4 2.534,7.44 5.431,9.68 5.504,4.4 7.314,5.76 7.314,8.4 0,2.32 -1.81,3.92 -4.055,3.92 -3.114,0 -6.3,-2.08 -10.211,-5.36 l -1.014,6.56 c 4.418,3.44 7.242,4.72 11.153,4.72 6.734,0 10.21,-5.28 10.21,-10.48 0,-5.6 -3.113,-8.08 -7.966,-11.84 -2.39,-1.84 -4.996,-3.84 -4.996,-5.92 0,-2 1.738,-3.52 4.272,-3.52 3.694,0 6.953,2.24 9.922,4.72 z"
       id="path4" />
  </g>
  <path
     d="m 31.976603,40.115026 c -10.12932,-4.454646 -19.418122,-3.783748 -28.1956978,0 L 18.446364,21.352639 c 5.730582,-3.681408 12.9252,-0.22458 13.525975,1.154645 l 0.0047,17.607742"
     fill="#fca404"
     opacity="0"
     id="path5"
     style="stroke-width:0.473798" />
  <path
     d="M 31.779504,18.811662 V 4.9341287 c 0.02037,-0.1445083 -0.115133,-0.2018378 -0.270539,-0.00332 -5.665672,7.2382073 -7.395507,8.9642523 -9.601983,12.2732543 -0.123187,0.228371 -0.0057,0.347768 0.335449,0.334975 0.8372,-0.06775 1.659239,-0.03317 2.452376,-0.03696 3.487151,-0.01848 5.46194,0.925801 6.58105,1.47588 0.424049,0.180043 0.508385,-0.0043 0.503647,-0.166303 z"
     fill="#db0404"
     opacity="0"
     id="path6"
     style="stroke-width:0.473798" />
  <path
     d="M 31.125663,0 0,40.10555 3.7875384,40.106497 18.446364,21.352165 c 1.790955,-1.149907 3.724997,-1.602858 5.555751,-1.640288 4.027754,-0.08291 7.557073,1.847337 7.970224,2.795407 l 0.0047,17.606794 3.000561,9.48e-4 V 0 Z m 0.851414,40.114078 -28.1895386,-0.0076 -0.00711,0.009 H 31.977077 Z M 31.710329,4.8038344 c 0.0507,0.00758 0.0796,0.057803 0.06917,0.1298205 V 18.811188 c 0.0047,0.162513 -0.0796,0.346346 -0.503647,0.166777 -1.11911,-0.550553 -3.093425,-1.494358 -6.58105,-1.476354 -0.793137,0.0047 -1.615176,-0.0308 -2.452376,0.03743 -0.341135,0.01279 -0.458636,-0.107078 -0.335449,-0.334975 2.206476,-3.309002 3.936311,-5.035047 9.601983,-12.2732539 0.0777,-0.099498 0.150668,-0.1345585 0.201364,-0.1269777 z"
     fill="#ffffff"
     id="path7"
     style="stroke-width:0.473798" />
</svg>
