<?xml version="1.0" encoding="UTF-8" standalone="no"?>
<svg
   version="1.1"
   viewBox="0 0 379.99829 56.405996"
   id="svg13"
   width="379.99829"
   height="56.405998"
   xmlns="http://www.w3.org/2000/svg"
   xmlns:svg="http://www.w3.org/2000/svg">
  <defs
     id="defs13" />
  <path
     class="st2"
     d="M 47.549266,1.4645768 H 5.9176818 C 2.6619672,1.4645768 0,4.126544 0,7.3822586 V 49.013843 c 0,3.255714 2.6619672,5.917682 5.9176818,5.917682 H 47.549266 c 3.255715,0 5.917682,-2.661968 5.917682,-5.917682 V 7.3822586 C 53.457052,4.126544 50.804981,1.4645768 47.549266,1.4645768 Z M 23.235313,17.782733 c 0.0099,1.731763 -0.03958,3.45363 -0.108854,5.175497 -0.11875,2.493739 -0.277082,4.987478 -0.68281,7.45153 -0.286977,1.702075 -0.870829,3.33488 -1.603117,4.888519 -1.187495,2.503635 -3.057799,4.621334 -5.155706,6.402576 -1.8802,1.652597 -4.116649,2.859883 -6.4817422,3.671338 -1.3359315,0.455206 -2.7015504,0.811454 -4.1067525,1.00937 0,-1.731763 0,-3.473422 0,-5.205185 1.6822842,-0.25729 3.2952978,-0.851038 4.7994577,-1.642701 1.781242,-0.9401 3.38436,-2.206761 4.740083,-3.701025 1.395306,-1.543743 2.503635,-3.324985 3.354672,-5.224977 0.989579,-2.177073 1.523952,-4.532271 1.890096,-6.897365 0.455206,-2.998424 0.643226,-6.026535 0.712497,-9.064542 0.0099,-1.029162 0,-2.058324 0,-3.077591 0.880725,0 1.76145,0 2.642176,0 0.0099,2.078116 0,4.146336 0,6.214556 z m 5.927577,28.608726 c -1.613013,0 -3.235923,-0.0099 -4.848936,0.0099 -0.01979,-3.701025 0,-7.402051 -0.0099,-11.103076 0,-7.906735 0,-15.803575 0,-23.71031 1.622909,-0.0099 3.235923,0 4.858832,0 0,11.587969 0,23.195729 0,34.80349 z m 19.187935,-0.0099 C 46.965415,46.193539 45.599796,45.837291 44.283656,45.382084 42.710225,44.837816 41.186274,44.125319 39.781072,43.214907 38.761806,42.561784 37.831601,41.770121 36.931085,40.948771 35.456612,39.593048 34.140472,38.049305 33.150893,36.29775 32.379022,34.942027 31.814962,33.467554 31.369651,31.963394 30.963924,30.459235 30.795695,28.8957 30.637363,27.351957 30.330593,24.00718 30.22174,20.642612 30.241531,17.278044 c 0,-1.899992 0,-3.799983 0,-5.709871 0.87083,0 1.751555,0 2.622384,0 -0.02969,3.532797 0.08906,7.085385 0.514581,10.59839 0.346353,2.731238 0.831247,5.482267 1.919783,8.025485 1.029162,2.464052 2.513531,4.749979 4.453105,6.590596 1.850513,1.76145 4.086961,3.117173 6.521325,3.898941 0.68281,0.217707 1.375515,0.385935 2.078116,0.494789 0,1.741659 0,3.473422 0,5.205185 z"
     style="fill:#ffffff;stroke-width:0.0989579"
     id="path1" />
  <path
     class="st2"
     d="m 78.552773,3.7307125 c 2.078116,-2.6619673 6.382784,-3.11717358 8.935898,-0.8807253 1.039057,0.8807253 1.771346,2.0880115 2.147386,3.3942557 4.720291,16.2488851 9.47027,32.4878751 14.180663,48.7367611 -2.79061,0 -5.571327,-0.0099 -8.361939,0 -1.31614,-4.482793 -2.602593,-8.965585 -3.898941,-13.448378 -5.393205,-0.0099 -10.776514,0 -16.159824,-0.0099 -1.31614,4.482792 -2.622384,8.965584 -3.918732,13.458273 -2.770821,-0.0099 -5.541642,0 -8.312463,-0.0099 4.482793,-15.48691 8.975481,-30.983715 13.487961,-46.480521 0.534372,-1.6229094 0.732288,-3.4338388 1.899991,-4.7598745 m 4.928103,9.9551635 c -1.979158,6.729137 -3.908837,13.478065 -5.878099,20.207201 3.918733,0.01979 7.827569,0.0099 11.746302,0.0099 -1.959366,-6.739032 -3.908837,-13.478065 -5.868203,-20.217097 z"
     style="fill:#ffffff;stroke-width:0.0989579"
     id="path2" />
  <path
     class="st2"
     d="m 137.26449,4.0770651 c 1.45468,-2.1078031 4.25519,-3.12706936 6.72914,-2.4739473 2.26613,0.5244768 3.99789,2.4739473 4.59164,4.6708124 4.72029,16.2389898 9.45048,32.4680838 14.17077,48.7070738 -2.79061,0.01979 -5.58122,0 -8.37184,0.0099 -1.29634,-4.482792 -2.5828,-8.97548 -3.88904,-13.458273 -5.38331,0 -10.75672,-0.0099 -16.14003,0 -1.28646,4.482793 -2.61249,8.965585 -3.89894,13.448378 -2.77082,0 -5.53175,0 -8.30257,0 4.48279,-15.585868 9.02496,-31.16184 13.53744,-46.7378118 0.475,-1.3953062 0.66302,-2.9489451 1.57343,-4.1661271 m -0.68281,29.8259079 c 3.89894,0.0099 7.79788,0 11.69682,0 -1.93957,-6.758824 -3.90883,-13.497856 -5.84841,-20.246784 -1.93957,6.748928 -3.90884,13.497856 -5.84841,20.246784 z"
     style="fill:#ffffff;stroke-width:0.0989579"
     id="path3" />
  <path
     class="st2"
     d="m 97.582375,1.5239515 c 10.083805,0 20.167615,0 30.241535,0 0,2.721342 0,5.4327882 0,8.1541301 -3.71092,0 -7.42185,0 -11.13277,0 0,15.1009744 0,30.2019484 0,45.3029224 -2.66196,0 -5.31403,0 -7.976,0 0,-15.100974 0,-30.201948 0,-45.3029224 -3.71092,-0.0099 -7.42184,0 -11.132765,0 0,-2.7213419 -0.0099,-5.4327881 0,-8.1541301 z"
     style="fill:#ffffff;stroke-width:0.0989579"
     id="path4" />
  <path
     class="st2"
     d="m 171.62267,1.8505125 c 0.76197,-0.2671863 1.58332,-0.3562484 2.39478,-0.3364568 3.17655,0.0099 6.36299,0 9.53954,0 5.35362,0.098958 10.45985,3.423943 12.77546,8.2332965 1.60312,3.1270688 1.77135,6.7687198 1.36562,10.2025588 -0.27708,3.592171 -1.79114,7.184342 -4.55206,9.569228 -1.45468,1.296348 -3.27551,2.088011 -4.83904,3.245818 -0.86093,0.653122 -0.90052,1.919783 -0.45521,2.830196 4.21561,6.511429 8.60934,12.9239 12.91401,19.385851 -3.14686,0.0099 -6.30362,-0.0099 -9.45048,0.0099 -4.12655,-6.194763 -8.20361,-12.419215 -12.31036,-18.623874 -1.20729,-1.761451 -1.53385,-4.106753 -0.81146,-6.115598 0.56406,-1.543743 1.91979,-2.671863 3.42395,-3.255715 2.86977,-1.098432 5.69997,-2.820299 7.29319,-5.531746 1.20729,-2.038532 1.14791,-4.552063 0.60365,-6.778615 -0.63334,-2.889571 -3.45364,-5.165602 -6.43227,-5.0666441 -2.05832,0.0099 -4.11665,-0.0099 -6.17497,0.0099 -0.9302,-0.019792 -1.81093,0.7916631 -1.79114,1.7317631 -0.01,14.54681 0,29.083724 0,43.630533 -2.68176,-0.0099 -5.35362,0 -8.03538,0 -0.01,-15.655138 0.01,-31.310276 -0.01,-46.9753097 0,-2.7510294 1.94947,-5.3338303 4.55206,-6.1650766 z"
     style="fill:#ffffff;stroke-width:0.0989579"
     id="path5" />
  <path
     class="st2"
     d="m 204.97148,1.5239515 c 2.8203,0 5.6307,0 8.451,0 0,17.8223155 0.01,35.6446315 -0.01,53.4669475 -2.81041,-0.0099 -5.63071,0 -8.45101,0 0.01,-17.832211 0.01,-35.654527 0.01,-53.4669475 z"
     style="fill:#ffffff;stroke-width:0.0989579"
     id="path6" />
  <path
     class="st2"
     d="m 245.29682,19.643141 c 2.86978,0 5.20518,-2.32551 5.20518,-5.205185 0,-2.879674 -2.32551,-5.2051849 -5.20518,-5.2051849 -2.86978,0 -5.20519,2.3255109 -5.20519,5.2051849 0,2.879675 2.32551,5.205185 5.20519,5.205185 z m 0,-6.966635 c 0.96979,0 1.76145,0.791663 1.76145,1.76145 0,0.969787 -0.79166,1.761451 -1.76145,1.761451 -0.96979,0 -1.76145,-0.791664 -1.76145,-1.761451 0,-0.969787 0.78176,-1.76145 1.76145,-1.76145 z"
     style="fill:#ffffff;stroke-width:0.0989579"
     id="path7" />
  <path
     class="st2"
     d="m 258.74519,20.523866 c 0.80156,-1.830721 1.21719,-3.809878 1.21719,-5.848411 C 259.96238,6.5806997 253.38168,0 245.29682,0 c -8.08486,0 -14.67546,6.5806997 -14.67546,14.675455 0,2.038533 0.41563,4.01769 1.21718,5.848411 -4.4432,3.859358 -7.01611,9.410896 -7.01611,15.407744 0,11.281199 9.18329,20.464492 20.46449,20.464492 11.2812,0 20.46449,-9.183293 20.46449,-20.464492 0.01,-5.996848 -2.56301,-11.558282 -7.00622,-15.407744 z m -13.44837,32.428501 c -9.401,0 -17.03066,-7.619758 -17.03066,-17.030653 0,-6.125493 3.24582,-11.469219 8.09476,-14.477539 -1.43489,-1.890096 -2.29582,-4.235398 -2.29582,-6.788511 0,-6.2046602 5.02706,-11.231721 11.23172,-11.231721 6.20466,0 11.23172,5.0270608 11.23172,11.231721 0,2.553113 -0.86094,4.898415 -2.29582,6.788511 4.84893,2.998424 8.09475,8.352046 8.09475,14.477539 -0.01,9.410895 -7.62965,17.030653 -17.03065,17.030653 z"
     style="fill:#ffffff;stroke-width:0.0989579"
     id="path8" />
  <path
     class="st2"
     d="m 245.29682,26.045717 c -5.62081,0 -10.17287,4.552063 -10.17287,10.172871 0,5.620808 4.55206,10.172871 10.17287,10.172871 5.62081,0 10.17287,-4.552063 10.17287,-10.172871 0,-5.620808 -4.56196,-10.172871 -10.17287,-10.172871 z m 0,16.892111 c -3.71092,0 -6.72914,-3.018215 -6.72914,-6.729136 0,-3.710921 3.01822,-6.729137 6.72914,-6.729137 3.71092,0 6.72913,3.018216 6.72913,6.729137 0,3.710921 -3.01821,6.729136 -6.72913,6.729136 z"
     style="fill:#ffffff;stroke-width:0.0989579"
     id="path9" />
  <path
     class="st2"
     d="m 294.38983,0 c -15.54629,0 -28.203,12.646818 -28.203,28.202999 0,15.546284 12.64682,28.202998 28.203,28.202998 15.54628,0 28.1931,-12.646818 28.1931,-28.202998 C 322.59283,12.646818 309.93611,0 294.38983,0 Z m 0,52.962263 c -13.65619,0 -24.75927,-11.112971 -24.75927,-24.759264 0,-13.656189 11.11297,-24.7592644 24.75927,-24.7592644 13.65619,0 24.75926,11.1129714 24.75926,24.7592644 0,13.646293 -11.10307,24.759264 -24.75926,24.759264 z"
     style="fill:#ffffff;stroke-width:0.0989579"
     id="path10" />
  <path
     class="st2"
     d="m 294.38983,9.9947469 c -10.03433,0 -18.20825,8.1640261 -18.20825,18.2082521 0,10.03433 8.16402,18.208251 18.20825,18.208251 10.03433,0 18.20825,-8.164026 18.20825,-18.208251 0,-10.044226 -8.17392,-18.2082521 -18.20825,-18.2082521 z m 0,32.9727691 c -8.14424,0 -14.77442,-6.630179 -14.77442,-14.764517 0,-8.144235 6.63018,-14.764518 14.77442,-14.764518 8.14423,0 14.76451,6.630179 14.76451,14.764518 0,8.144234 -6.62028,14.764517 -14.76451,14.764517 z"
     style="fill:#ffffff;stroke-width:0.0989579"
     id="path11" />
  <path
     class="st2"
     d="m 351.80519,0 c -15.54628,0 -28.20299,12.646818 -28.20299,28.202999 0,15.546284 12.64681,28.202998 28.20299,28.202998 15.54629,0 28.19311,-12.646818 28.19311,-28.202998 C 379.9983,12.646818 367.35148,0 351.80519,0 Z m 0,52.962263 c -13.65618,0 -24.75926,-11.112971 -24.75926,-24.759264 0,-13.656189 11.11297,-24.7592644 24.75926,-24.7592644 13.65619,0 24.75927,11.1129714 24.75927,24.7592644 0,13.646293 -11.11297,24.759264 -24.75927,24.759264 z"
     style="fill:#ffffff;stroke-width:0.0989579"
     id="path12" />
  <path
     class="st2"
     d="m 351.80519,9.9947469 c -10.03433,0 -18.20825,8.1640261 -18.20825,18.2082521 0,10.03433 8.16403,18.208251 18.20825,18.208251 10.03433,0 18.20826,-8.164026 18.20826,-18.208251 -0.01,-10.044226 -8.17393,-18.2082521 -18.20826,-18.2082521 z m 0,32.9727691 c -8.14423,0 -14.77441,-6.630179 -14.77441,-14.764517 0,-8.144235 6.63018,-14.764518 14.77441,-14.764518 8.14424,0 14.76452,6.630179 14.76452,14.764518 0,8.144234 -6.63018,14.764517 -14.76452,14.764517 z"
     style="fill:#ffffff;stroke-width:0.0989579"
     id="path13" />
</svg>
