<?xml version="1.0" encoding="UTF-8" standalone="no"?>
<svg
   version="1.1"
   viewBox="0 0 380.00244 62.740004"
   id="svg10"
   width="380.00244"
   height="62.740002"
   xmlns="http://www.w3.org/2000/svg"
   xmlns:svg="http://www.w3.org/2000/svg">
  <defs
     id="defs10" />
  <path
     class="st7"
     d="m 289.85082,40.088293 1.12814,0.880735 c 3.93856,3.047936 8.6787,5.541702 13.7454,5.541702 2.1672,0 5.62087,-0.880734 5.62087,-3.621898 0,-2.731267 -2.88961,-2.968769 -4.89847,-3.374501 l -4.42347,-0.801567 c -8.59953,-1.523969 -15.82354,-6.590668 -15.82354,-16.070937 0,-14.3787385 13.10217,-22.41420684 26.27361,-22.41420684 6.90733,0 13.2605,1.68230244 19.20793,5.30420074 l -5.94743,15.5068711 c -3.78023,-2.572934 -8.03547,-4.581801 -12.7756,-4.581801 -1.9297,0 -4.74014,0.722401 -4.74014,3.216167 0,2.246368 2.73127,2.572933 4.41357,2.968769 l 4.98753,1.128132 c 9.32194,2.088034 16.07094,7.075566 16.07094,17.357403 0,14.467802 -13.18133,21.61264 -26.27361,21.61264 -7.63963,0 -16.47666,-2.088035 -23.30483,-5.541703 z"
     style="fill:#ffffff;stroke-width:0.098959"
     id="path1" />
  <path
     class="st7"
     d="m 333.71933,1.1875222 h 46.28311 V 18.188673 l -12.13236,0.02969 V 61.780099 H 345.8517 V 18.218361 l -12.13237,-0.02969 z"
     style="fill:#ffffff;stroke-width:0.098959"
     id="path2" />
  <path
     class="st7"
     d="m 27.837158,0.13855708 c 1.583344,-0.009896 3.166687,0 4.740135,0 0.0099,3.72085732 0,7.43181862 0,11.15267592 0.01979,3.107312 -0.06927,6.204727 -0.197918,9.302143 -0.207814,4.472946 -0.494795,8.965683 -1.236987,13.389149 -0.504691,3.047936 -1.563552,5.996913 -2.86981,8.787556 -2.137514,4.502633 -5.492223,8.312554 -9.26256,11.518824 -3.374501,2.96877 -7.402131,5.135971 -11.6375747,6.600564 C 4.9776362,61.700932 2.5135578,62.344166 0,62.690522 c 0,-3.117208 0,-6.234415 0,-9.351623 3.0281445,-0.455211 5.9276423,-1.523968 8.6292222,-2.948977 3.2062708,-1.692198 6.0859768,-3.968255 8.5104718,-6.659939 2.503662,-2.770851 4.502633,-5.987017 6.016705,-9.391206 1.781261,-3.918775 2.741163,-8.154219 3.394293,-12.389663 0.811463,-5.383368 1.15782,-10.836007 1.27657,-16.2787505 0.01979,-1.8406368 0.0099,-3.6911696 0.0099,-5.53180642 z"
     style="fill:#ffffff;stroke-width:0.098959"
     id="path3" />
  <path
     class="st7"
     d="m 34.497097,0.13855708 c 2.909394,-0.0197918 5.818787,0 8.728181,-0.009896 0,20.85065492 0,41.70130992 0,62.56186092 -2.899498,0.0099 -5.808891,-0.0099 -8.708389,0.0099 -0.03958,-6.650043 -0.0099,-13.300086 -0.01979,-19.950128 0,-14.200613 0.0099,-28.401225 0,-42.61173303 z"
     style="fill:#ffffff;stroke-width:0.098959"
     id="path4" />
  <path
     class="st7"
     d="m 45.164874,0.13855708 c 1.573448,0 3.146895,0 4.720343,0 -0.04948,6.35316592 0.16823,12.72612392 0.920318,19.04960192 0.623442,4.908365 1.494281,9.846417 3.453668,14.418322 1.850533,4.423466 4.522425,8.530263 8.005781,11.845388 3.325021,3.166687 7.352651,5.601078 11.726638,7.006296 1.217195,0.38594 2.473974,0.692712 3.740649,0.880734 0,3.117208 0,6.234415 0,9.351623 -2.493766,-0.33646 -4.938053,-0.979694 -7.322964,-1.791157 -2.830226,-0.98959 -5.57139,-2.266161 -8.094844,-3.898984 C 60.473827,55.812874 58.80142,54.407656 57.198285,52.923272 54.55608,50.478985 52.181065,47.708134 50.399803,44.571135 49.014378,42.126848 47.9951,39.484644 47.203429,36.783064 46.471132,34.071588 46.16436,31.271049 45.877378,28.490302 45.333104,22.473597 45.12529,16.427204 45.164874,10.38081 c 0,-3.414084 0,-6.8281685 0,-10.24225292 z"
     style="fill:#ffffff;stroke-width:0.098959"
     id="path5" />
  <path
     class="st7"
     d="m 106.42048,2.7213862 c 2.43439,-3.11720756 7.4714,-3.65158599 10.45996,-1.0390692 1.21719,1.0291733 2.07814,2.4442866 2.51356,3.9781506 5.5318,19.0199144 11.0834,38.0299324 16.59542,57.0498464 -3.26565,0 -6.5214,-0.0099 -9.78705,0 -1.53386,-5.244826 -3.03804,-10.499547 -4.562,-15.744372 -6.30369,-0.0099 -12.61727,0 -18.92096,-0.0099 -1.54376,5.244825 -3.067727,10.499547 -4.581799,15.754268 -3.245855,-0.0099 -6.491709,0 -9.737563,-0.0099 5.254721,-18.139171 10.519338,-36.27835 15.793852,-54.4175297 0.62344,-1.8901163 0.86094,-4.0177342 2.22658,-5.5614941 m 5.75941,11.6474708 c -2.31564,7.877134 -4.5818,15.77406 -6.87765,23.651194 4.5818,0.01979 9.1636,0.0099 13.7454,0.0099 -2.28595,-7.877134 -4.5719,-15.77406 -6.86775,-23.66109 z"
     style="fill:#ffffff;stroke-width:0.098959"
     id="path6" />
  <path
     class="st7"
     d="m 175.13759,3.127118 c 1.70209,-2.46407838 4.98753,-3.66148191 7.87713,-2.89949784 2.6521,0.61354561 4.67086,2.88960194 5.37347,5.46253514 5.52191,19.0001227 11.06361,38.0002447 16.58552,57.0003667 -3.26564,0.02969 -6.53129,0 -9.79693,0.0099 -1.52397,-5.244825 -3.01825,-10.499547 -4.55212,-15.754268 -6.29379,0 -12.58758,-0.0099 -18.89126,0.0099 -1.50418,5.254721 -3.05784,10.489651 -4.56201,15.744372 -3.24586,0 -6.48181,0 -9.71777,0 5.24482,-18.238138 10.55892,-36.466381 15.85322,-54.6946228 0.55417,-1.6427189 0.76199,-3.4536681 1.83075,-4.8786772 m -0.79168,34.912725 c 4.56201,0.0099 9.12402,0 13.69592,0 -2.27605,-7.906822 -4.5818,-15.803748 -6.84796,-23.700674 -2.27605,7.896926 -4.5818,15.793852 -6.84796,23.700674 z"
     style="fill:#ffffff;stroke-width:0.098959"
     id="path7" />
  <path
     class="st7"
     d="m 128.68624,0.12866119 c 11.80581,0 23.60172,0 35.39763,0 0,3.18647881 0,6.36306181 0,9.54954061 -4.3443,0 -8.6886,-0.0099 -13.0329,0 0,17.6740722 0,35.3481442 0,53.0222162 -3.10731,0 -6.22452,0 -9.33183,0 0,-17.674072 0,-35.348144 0,-53.0222162 -4.3443,-0.0099 -8.6886,0 -13.0329,0 0,-3.1864788 0,-6.3630618 0,-9.54954061 z"
     style="fill:#ffffff;stroke-width:0.098959"
     id="path8" />
  <path
     class="st7"
     d="m 215.35451,0.52449707 c 0.90053,-0.30677281 1.85053,-0.41562768 2.80054,-0.39583588 3.72086,0.009896 7.44171,0 11.16257,0.009896 6.2641,0.11875077 12.24123,4.00783831 14.9527,9.63860371 1.88022,3.6614821 2.06824,7.9167171 1.59324,11.9344521 -0.32656,4.205756 -2.08803,8.411512 -5.32399,11.202155 -1.7021,1.523968 -3.82971,2.444287 -5.66045,3.800024 -0.99949,0.761984 -1.05887,2.246369 -0.53438,3.315126 4.93805,7.619841 10.07402,15.130826 15.11103,22.681396 -3.69117,0.0099 -7.37244,-0.0099 -11.06361,0.0099 -4.8292,-7.253693 -9.59902,-14.537073 -14.40843,-21.800661 -1.41511,-2.068243 -1.80105,-4.79951 -0.95,-7.16463 0.66302,-1.810949 2.24637,-3.127103 3.99794,-3.819816 3.3646,-1.286467 6.67973,-3.295334 8.54016,-6.471917 1.41511,-2.384911 1.34584,-5.323992 0.70261,-7.936509 -0.7422,-3.384397 -4.04743,-6.046393 -7.53078,-5.9375382 -2.4146,0.019792 -4.8193,-0.0099 -7.22401,0.0099 -1.08854,-0.029688 -2.11772,0.9203182 -2.09793,2.0286582 -0.01,17.020943 0.01,34.041886 -0.01,51.072725 -3.137,-0.0099 -6.2641,0 -9.4011,0 -0.01,-18.327201 0.01,-36.654403 -0.01,-54.9816036 0.0198,-3.1963747 2.30574,-6.2245192 5.35368,-7.19431712 z"
     style="fill:#ffffff;stroke-width:0.098959"
     id="path9" />
  <path
     class="st7"
     d="m 254.38393,0.12866119 c 3.29533,0 6.59067,0 9.8959,0 0,20.86055081 0.01,41.72110181 -0.01,62.57175681 -3.29533,-0.0099 -6.59067,0 -9.886,0 0,-20.850655 0,-41.711206 0,-62.57175681 z"
     style="fill:#ffffff;stroke-width:0.098959"
     id="path10" />
</svg>
