<?xml version="1.0" encoding="UTF-8" standalone="no"?>
<!-- Generator: Adobe Illustrator 13.0.0, SVG Export Plug-In . SVG Version: 6.00 Build 14948)  -->

<svg
   version="1.1"
   id="Layer_1"
   x="0px"
   y="0px"
   width="300"
   height="80"
   viewBox="0 0 300 80"
   xml:space="preserve"
   xmlns="http://www.w3.org/2000/svg"
   xmlns:svg="http://www.w3.org/2000/svg"><defs
   id="defs6" />






<path
   id="path6"
   style="fill:#ffffff;fill-opacity:1"
   d="m 198.709,58.119 -0.006,17.486 C 182.531,73.978 171.587,58.177 167.472,42.829 163.97,29.774 164.391,7.497 164.37,5.253 h 5.41 c 0,7.928 0.074,23.715 5.098,34.519 5.488,11.821 19.613,18.306 23.831,18.347 M 140.923,39.772 c 5.02,-10.804 5.096,-26.591 5.096,-34.519 h 5.405 c -0.021,2.244 0.402,24.521 -3.099,37.576 -4.115,15.349 -15.061,31.149 -31.232,32.776 l -0.005,-17.486 c 4.216,-0.041 18.343,-6.526 23.835,-18.347 m 6.133,35.826 c 0,0 5.76,-8.034 7.051,-28.767 0.741,-11.902 0.618,-41.578 0.618,-41.578 h 6.427 c 0,0 0.019,29.333 0.841,41.438 1.418,20.822 7.619,28.906 7.619,28.906 H 147.056 M 249.412,51.001 c -0.422,-0.542 -0.679,-1.194 -0.679,-1.918 0,-0.655 0.223,-1.247 0.565,-1.757 0.538,-0.635 1.501,-0.996 2.142,-1.301 7.555,-3.443 12.922,-10.681 12.922,-19.062 0,-11.241 -9.44,-20.451 -21.146,-21.162 -1.458,-0.144 -4.75,-0.129 -4.75,-0.129 h -16.516 0.009 c -5.728,0 -10.388,4.649 -10.388,10.378 l 0.021,0.017 v 59.75 h 14.106 V 20.332 h -0.009 c 0,-1.74 1.413,-3.158 3.151,-3.158 h 9.515 c 0.864,0 3.448,0.05 3.961,0.122 v 0.006 c 4.207,0.345 7.627,3.341 8.618,7.304 0.054,0.163 0.092,0.323 0.122,0.487 0,0.016 0,0.031 0,0.036 0.054,0.242 0.081,0.473 0.111,0.709 0.051,0.368 0.059,0.743 0.059,1.125 0,3.65 -2.011,6.843 -4.991,8.499 -0.603,0.358 -1.229,0.671 -1.888,0.939 -0.468,0.212 -1.011,0.408 -1.578,0.599 -3.807,1.342 -5.438,2.136 -7.026,3.663 -1.781,1.863 -2.908,4.38 -2.938,7.163 -0.028,2.614 0.882,5.004 2.431,6.854 l 17.92,21.146 h 16.78 L 249.412,51.001 M 125.209,10.143 v 7.411 H 103.293 V 75.847 H 89.184 V 17.554 H 67.268 v -7.411 c 0,-2.456 1.989,-4.444 4.453,-4.444 h 49.036 c 2.463,-10e-4 4.452,1.988 4.452,4.444 M 30.176,48.119 39.683,22.064 49.378,48.119 H 30.176 M 49.58,11.914 49.575,11.894 C 48.092,7.978 44.308,5.19 39.861,5.19 c -4.443,0 -8.241,2.788 -9.709,6.723 L 30.142,11.918 5,75.847 h 15.085 l 5.784,-15.869 h 28.016 l 6.071,15.869 H 75.444 L 49.58,11.914 M 281.39301,5.698 h 14.107 v 70.148003 h -14.107 z" />
</svg>
