<?xml version="1.0" encoding="UTF-8" standalone="no"?>
<svg
   version="1.1"
   viewBox="0 0 380.00101 53.213999"
   id="svg17"
   sodipodi:docname="atomiswave.svg"
   width="380.00101"
   height="53.213997"
   inkscape:version="1.4 (e7c3feb100, 2024-10-09)"
   xmlns:inkscape="http://www.inkscape.org/namespaces/inkscape"
   xmlns:sodipodi="http://sodipodi.sourceforge.net/DTD/sodipodi-0.dtd"
   xmlns="http://www.w3.org/2000/svg"
   xmlns:svg="http://www.w3.org/2000/svg">
  <defs
     id="defs17" />
  <sodipodi:namedview
     id="namedview17"
     pagecolor="#ffffff"
     bordercolor="#000000"
     borderopacity="0.25"
     inkscape:showpageshadow="2"
     inkscape:pageopacity="0.0"
     inkscape:pagecheckerboard="0"
     inkscape:deskcolor="#d1d1d1"
     inkscape:zoom="0.16254799"
     inkscape:cx="1916.3571"
     inkscape:cy="267.61327"
     inkscape:window-width="1920"
     inkscape:window-height="1164"
     inkscape:window-x="1920"
     inkscape:window-y="0"
     inkscape:window-maximized="1"
     inkscape:current-layer="svg17" />
  <path
     class="st0"
     d="m 48.997263,10.155796 -0.960148,4.05836 c 0.108883,0.475125 0.267258,0.940351 0.445429,1.395679 0.07919,0.197969 0.158375,0.386039 0.237563,0.574109 L 49.878224,11.27432 H 60.885286 L 54.609677,37.812029 H 44.592459 c -0.07919,0.03959 -0.148477,0.07919 -0.227664,0.118782 -0.267258,0.128679 -0.554313,0.257359 -0.851266,0.306851 -0.237562,0.03959 -0.50482,0.0099 -0.673094,-0.168273 -0.09898,-0.09898 -0.148476,-0.227664 -0.18807,-0.366242 -0.0297,-0.118782 -0.05939,-0.237563 -0.06929,-0.356344 l -0.376141,1.58375 h 13.3035 L 62.31066,10.155796 Z"
     style="fill:#ffffff;stroke-width:0.0989844"
     id="path1" />
  <path
     class="st0"
     d="M 12.580913,0 0,53.213997 h 13.303499 l 6.602258,-27.913592 c -0.06929,-0.148477 -0.138578,-0.287055 -0.197969,-0.435531 -0.12868,-0.287055 -0.247461,-0.57411 -0.336547,-0.871063 -0.05939,-0.207867 -0.108883,-0.425633 -0.148476,-0.6335 L 12.422538,52.095474 H 1.4154765 L 13.471773,1.1185234 h 10.522038 c 0.06929,-0.098984 0.148477,-0.19796876 0.247461,-0.27715626 0.148477,-0.11878124 0.326649,-0.1880703 0.514719,-0.19796874 0.247461,-0.009898 0.475125,0.0692891 0.663195,0.22766406 0.07919,0.0593906 0.148477,0.13857814 0.217766,0.20786714 L 25.884413,0 Z"
     style="fill:#ffffff;stroke-width:0.0989844"
     id="path2" />
  <path
     class="st0"
     d="m 44.285607,5.8499763 c 0.247461,-0.1880703 0.574109,-0.2771563 0.880961,-0.247461 0.296953,0.029695 0.574109,0.1286797 0.772078,0.3662422 0.138578,0.158375 0.237563,0.3464453 0.356344,0.5147187 l 0.336547,-1.405578 H 33.318139 L 30.190233,18.322007 c 0.07919,0.12868 0.148476,0.267258 0.197969,0.405836 0.18807,0.485023 0.257359,1.00964 0.356343,1.524359 0.0198,0.09898 0.03959,0.207867 0.05939,0.306852 L 34.1991,6.1865231 h 9.74996 c 0.09898,-0.1187812 0.207867,-0.2375625 0.336547,-0.3365468 z"
     style="fill:#ffffff;stroke-width:0.0989844"
     id="path3" />
  <path
     class="st0"
     d="M 40.237146,30.893022 C 40.098568,30.279319 40.039178,29.645819 39.95999,29.022217 39.94019,28.893538 39.9303,28.774756 39.9105,28.646077 l -3.256586,13.768726 c 0.03959,0.08909 0.06929,0.168273 0.108883,0.257359 0.168273,0.435531 0.326648,0.880961 0.465227,1.32639 h 0.197968 l 2.969531,-12.561116 c -0.06929,-0.178172 -0.118781,-0.356344 -0.158375,-0.544414 z"
     style="fill:#ffffff;stroke-width:0.0989844"
     id="path4" />
  <path
     class="st0"
     d="m 36.60442,42.583076 -0.06929,0.306852 h -9.195648 c -0.593906,0.415734 -1.326391,0.69289 -2.02918,0.435531 -0.296953,-0.108883 -0.494921,-0.336547 -0.673093,-0.584008 -0.04949,-0.07919 -0.108883,-0.158375 -0.158375,-0.227664 L 24.12249,44.018349 H 37.119139 C 36.960764,43.523427 36.79249,43.048303 36.60442,42.583076 Z"
     style="fill:#ffffff;stroke-width:0.0989844"
     id="path5" />
  <path
     class="st0"
     d="M 25.023249,1.1185234 35.97092,42.889928 H 24.983655 L 14.035984,1.1185234 H 25.023249 M 25.884413,0 h -13.3035 l 11.53168,43.998552 h 13.303499 z"
     style="fill:#ffffff;stroke-width:0.0989844"
     id="path6" />
  <path
     class="st0"
     d="M 45.760474,6.1964216 54.045466,37.812029 H 43.058201 L 34.773209,6.1964216 H 45.760474 M 46.621638,5.0778982 H 33.318139 l 8.868999,33.8526548 h 13.3035 z"
     style="fill:#ffffff;stroke-width:0.0989844"
     id="path7" />
  <path
     class="st0"
     d="m 127.60075,13.838015 0.98985,-3.682219 H 97.747065 l 0.346446,3.682219 h 9.908339 l -5.0878,21.509304 c -0.42563,1.811413 0.95025,3.553538 2.81116,3.553538 h 5.95885 l 5.92917,-25.062842 z"
     style="fill:#ffffff;stroke-width:0.0989844"
     id="path8" />
  <path
     class="st0"
     d="m 278.39354,10.175593 -5.91926,25.043046 h -4.61268 l 5.91927,-25.052944 h -9.61138 l -5.92917,25.052944 h -4.61267 l 5.92917,-25.062843 h -9.61139 l -5.95886,25.201421 c -0.42563,1.811414 0.95025,3.553539 2.81116,3.553539 l 34.41687,0.0099 6.80022,-28.745061 z"
     style="fill:#ffffff;stroke-width:0.0989844"
     id="path9" />
  <path
     class="st0"
     d="m 340.0806,10.165695 -5.91927,25.052944 h -3.55353 l -2.28654,-25.062843 h -9.39362 l 2.38552,26.121976 c 0.13858,1.484765 1.38578,2.623085 2.87055,2.623085 l 18.71794,0.0198 6.80023,-28.745061 h -9.62128 z"
     style="fill:#ffffff;stroke-width:0.0989844"
     id="path10" />
  <path
     class="st0"
     d="m 358.51149,10.155796 -4.19694,0.0198 -5.95886,25.191522 c -0.42563,1.811414 0.95025,3.553539 2.81116,3.553539 h 5.95886 l 16.07506,-0.0198 0.87106,-3.682218 h -16.07506 l 2.61319,-11.066453 h 14.22405 l 0.87106,-3.682218 h -14.21415 l 1.56395,-6.631953 h 16.07506 l 0.87107,-3.67232 z"
     style="fill:#ffffff;stroke-width:0.0989844"
     id="path11" />
  <path
     class="st0"
     d="m 132.08474,10.185492 -5.95886,25.191522 c -0.42563,1.811414 0.95025,3.553539 2.81116,3.553539 l 22.21209,-0.0297 5.95886,-25.191522 c 0.42563,-1.811414 -0.95025,-3.553539 -2.81115,-3.553539 z m 3.69212,25.033147 5.0581,-21.380624 h 6.62206 l -5.05811,21.380624 z"
     style="fill:#ffffff;stroke-width:0.0989844"
     id="path12" />
  <path
     class="st0"
     d="m 162.56203,10.155796 -6.80023,28.745061 h 9.61139 l 5.92916,-25.062842 h 4.61267 l -5.92916,25.072741 h 9.61138 l 5.92916,-25.072741 h 4.61268 l -5.92917,25.082639 h 9.61138 l 5.95886,-25.20142 c 0.42564,-1.811414 -0.95025,-3.553539 -2.81115,-3.553539 z"
     style="fill:#ffffff;stroke-width:0.0989844"
     id="path13" />
  <path
     class="st0"
     d="m 205.24409,10.175593 -5.95886,25.191522 c -0.42563,1.811414 0.95025,3.553539 2.81116,3.553539 h 5.95886 l 6.80022,-28.745061 z"
     style="fill:#ffffff;stroke-width:0.0989844"
     id="path14" />
  <path
     class="st0"
     d="m 73.268231,10.155796 -6.800227,28.745061 h 9.611383 l 1.761922,-7.47332 h 9.314429 l 0.682992,7.47332 h 9.393617 L 94.846823,12.778882 c -0.138578,-1.484765 -1.385781,-2.623086 -2.880445,-2.623086 z m 5.454038,17.589523 3.286282,-13.907304 h 3.553538 l 1.267,13.907304 z"
     style="fill:#ffffff;stroke-width:0.0989844"
     id="path15" />
  <path
     class="st0"
     d="m 292.65719,10.155796 -6.80023,28.745061 h 9.61138 l 1.77182,-7.47332 h 9.31443 l 0.683,7.47332 h 9.39361 l -2.38552,-26.121975 c -0.13858,-1.484765 -1.38578,-2.623086 -2.88045,-2.623086 z m 5.45404,17.589523 3.28628,-13.907304 h 3.55354 l 1.267,13.907304 z"
     style="fill:#ffffff;stroke-width:0.0989844"
     id="path16" />
  <path
     class="st0"
     d="m 226.65441,20.469968 1.56395,-6.631953 h 16.23344 l 0.87106,-3.682219 -25.86461,0.0297 -2.46471,10.413155 c -0.42564,1.811414 0.95025,3.553539 2.81115,3.553539 h 12.58092 l -2.61319,11.066453 h -16.23344 l -0.88096,3.682218 h 25.86462 l 3.51394,-14.87735 c 0.42563,-1.811414 -0.95025,-3.553539 -2.81115,-3.553539 z"
     style="fill:#ffffff;stroke-width:0.0989844"
     id="path17" />
</svg>
