<?xml version="1.0" encoding="UTF-8" standalone="no"?>
<svg
   height="74.800003"
   viewBox="0 0 241.29869 47.498018"
   width="379.99783"
   version="1.1"
   id="svg5"
   xmlns="http://www.w3.org/2000/svg"
   xmlns:svg="http://www.w3.org/2000/svg">
  <defs
     id="defs5" />
  <text
     fill="#ffffff"
     fill-opacity="0.5"
     font-family="TrasksHand"
     font-size="0.164447px"
     stroke-width="0.0822233"
     x="45.563705"
     y="22.402578"
     id="text1"><tspan
       x="45.563705"
       y="22.402578"
       id="tspan1"
       style="stroke-width:0.0822233">John Loreth 2022</tspan></text>
  <path
     d="M 13.52462,24.129266 0.14666858,24.072821 0.10666806,23.73415 C 0.05111178,23.271922 0.29244825,20.238993 0.48356185,18.992755 0.56934074,18.434081 0.66934205,17.748294 0.70578697,17.468735 0.87556695,16.17094 1.5413534,13.484239 2.1329167,11.711327 2.7475913,9.8690805 3.3520436,8.5112851 4.3116117,6.8174853 5.1996232,5.2494649 5.8560762,4.3627866 7.0280915,3.1489931 8.2974413,1.8347537 9.5574577,0.9822982 11.011699,0.45429133 c 1.64091,-0.48711746 3.056929,-0.65067514 4.601838,-0.14844638 1.744022,0.5760075 2.755591,1.22579375 4.301389,2.76359155 2.076916,2.0662491 3.768049,5.0391767 5.076955,8.9245605 0.789788,2.344475 1.426685,5.586739 1.740911,8.861449 0.134224,1.396907 0.227115,2.717813 0.20667,2.935149 l -0.03689,0.395561 z"
     fill="#ffffff"
     id="path1"
     style="stroke-width:0.44445" />
  <path
     d="m 25.143883,46.794006 c -0.523118,-0.387116 -1.239572,-0.882679 -1.592021,-1.100904 -1.065347,-0.660008 -2.155583,-1.316461 -2.632923,-1.585354 -0.540007,-0.304003 -3.987163,-2.028915 -4.054719,-2.028915 -0.02578,0 -0.292893,-0.109335 -0.592897,-0.243114 -0.300004,-0.13378 -0.60623,-0.256003 -0.680898,-0.271115 -0.07422,-0.016 -0.353782,-0.129335 -0.620897,-0.252892 -0.26667,-0.123557 -0.866678,-0.361338 -1.332017,-0.528896 a 257.58202,257.58202 0 0 1 -1.41113,-0.511117 C 11.389482,39.964139 9.0174507,39.247241 6.8640894,38.651677 6.1849694,38.463675 3.7538266,37.933446 2.8564816,37.777888 0.78801026,37.418328 0.13511287,37.287215 0.04800062,37.212992 -0.0062223,37.166325 -0.01555576,36.942766 0.02666701,36.715208 l 0.07777879,-0.413339 0.58578541,0.07556 c 0.90445619,0.115557 3.10004039,0.495117 3.91560649,0.676453 0.4040053,0.08933 1.3689067,0.29467 2.1453613,0.455561 2.2302512,0.462673 2.5186994,0.527118 2.8787041,0.640898 0.1862247,0.05911 0.6177859,0.153779 0.9595679,0.210225 0.341782,0.05645 0.874678,0.173335 1.185349,0.25867 l 0.564452,0.155557 0.03556,-0.391116 c 0.01956,-0.215114 0.01111,-0.416005 -0.01867,-0.445784 -0.02978,-0.02978 -0.45245,-0.105334 -0.938679,-0.167557 C 5.5622946,36.719208 0.03200042,31.572474 0,25.587063 L 0.03422267,24.863054 H 27.015018 l -0.01778,1.185348 c -0.03111,2.005804 -0.72712,3.964496 -2.186695,6.152525 -0.554229,0.831122 -2.528922,2.749813 -3.462267,3.365821 -1.656911,1.09157 -4.020941,2.017804 -5.52985,2.165362 -1.211127,0.118224 -1.164904,0.08267 -1.164904,0.908901 0,0.698675 0.01111,0.726676 0.310226,0.791121 0.90979,0.196447 5.201401,1.730245 6.914757,2.471143 2.103139,0.909345 2.624479,1.152015 4.79784,2.233807 2.505811,1.248016 3.234709,1.668911 3.180486,1.836469 -0.04756,0.146668 -3.313821,1.524464 -3.61338,1.524464 -0.08133,0 -0.576452,-0.316893 -1.09957,-0.704009 z"
     fill="#ffffff"
     id="path2"
     style="stroke-width:0.44445" />
  <path
     d="m 30.039502,33.718724 4.575615,0.0062 5.812076,-7.369874 9.729904,0.04889 -0.02978,7.433875 h 4.657839 L 55.318053,6.744151 51.06022,6.7445954 Z m 13.581066,-11.355259 7.142315,-9.69257 -0.492451,9.877462 z"
     fill="#ffffff"
     id="path3"
     style="stroke-width:0.44445" />
  <g
     stroke-width="0.688"
     id="g5"
     transform="matrix(0.44445023,0,0,0.44445023,0,6.3191187e-5)">
    <path
       d="m 186.535,31.89 -0.08,-0.159 q -1.67,-2.947 -3.58,-5.336 -1.911,-2.47 -5.413,-4.938 -4.298,-3.106 -9.074,-4.38 -4.775,-1.355 -8.914,-1.355 -6.049,0 -11.62,2.31 -5.492,2.23 -9.71,6.451 -4.22,4.142 -6.607,9.717 -2.388,5.496 -2.388,11.868 0,6.132 2.308,11.787 2.388,5.575 6.527,9.876 4.218,4.301 9.71,6.77 5.572,2.39 11.7,2.39 3.582,0 7.243,-0.877 3.741,-0.876 7.243,-2.707 3.582,-1.912 6.766,-4.939 3.183,-3.026 5.491,-7.168 h -10.585 q -3.104,3.664 -7.323,5.735 -4.139,2.07 -8.755,2.07 -4.218,0 -8.198,-1.752 -3.98,-1.752 -7.004,-4.938 -3.025,-3.186 -4.776,-7.327 -1.75,-4.221 -1.75,-8.84 0,-4.62 1.67,-8.682 1.672,-4.142 4.697,-7.248 3.024,-3.106 7.004,-4.858 4.059,-1.753 8.516,-1.753 3.263,0 5.97,0.876 2.706,0.877 4.696,2.23 2.069,1.275 3.263,2.47 1.273,1.194 2.467,2.548 l 0.16,0.16 z m 63.195,14.404 q 0,-6.2 -2.325,-11.763 -2.324,-5.643 -6.572,-9.856 -4.167,-4.291 -9.857,-6.676 -5.61,-2.384 -12.102,-2.384 -6.651,0 -12.341,2.464 -5.69,2.463 -9.858,6.755 -4.167,4.292 -6.411,9.856 -2.244,5.484 -2.244,11.445 0,5.962 2.324,11.525 2.324,5.564 6.491,9.856 4.248,4.292 9.938,6.756 5.69,2.384 12.101,2.384 6.412,0 12.102,-2.384 5.69,-2.464 9.857,-6.756 4.248,-4.292 6.572,-9.776 2.324,-5.485 2.324,-11.446 z m -8.656,0.08 q 0,3.577 -1.363,7.55 -1.362,3.895 -4.167,7.313 -2.725,3.338 -6.972,5.484 -4.248,2.067 -9.698,2.067 -5.45,0 -9.697,-2.067 -4.167,-2.066 -6.972,-5.484 -2.805,-3.418 -4.167,-7.392 -1.363,-3.974 -1.363,-7.71 0,-3.656 1.363,-7.63 1.362,-3.974 4.087,-7.392 2.805,-3.417 7.052,-5.484 4.248,-2.146 9.697,-2.146 5.29,0 9.457,2.067 4.248,1.987 7.053,5.405 2.805,3.338 4.247,7.391 1.443,3.974 1.443,8.028 z M 293.208,75.967 276.36,53.885 q 1.954,0 4.721,-0.72 2.85,-0.8 5.698,-2.72 2.93,-1.921 4.884,-5.601 1.953,-3.68 1.953,-9.121 0,-3.92 -1.383,-7.68 -1.384,-3.761 -4.152,-6.322 -2.604,-2.4 -6.348,-3.68 -3.663,-1.28 -9.687,-1.28 h -18.64 v 59.206 h 8.791 V 48.524 h 0.163 l 19.86,27.443 z M 262.196,24.682 h 9.28 q 3.581,0 6.104,0.96 2.605,0.96 4.152,2.64 1.627,1.6 2.36,3.52 0.733,1.92 0.733,3.92 0,4.001 -1.954,6.481 -1.872,2.4 -4.64,3.52 -2.767,1.04 -5.29,1.36 -2.524,0.24 -4.721,0.24 h -6.024 z m 83.48,51.285 V 16.76 h -8.54 v 45.044 h -0.159 L 308.51,16.761 h -9.331 v 59.206 h 8.54 V 30.202 h 0.158 l 28.943,45.765 z"
       fill="#ffffff"
       id="path4" />
    <path
       d="m 363.956,58.027 h 26.836 l 7.697,17.99 h 2.219 l -21.982,-51.6 h -2.704 l -21.982,51.6 h 2.219 z M 377.339,26.37 389.89,56.144 h -25.033 z m 20.049,-1.924 v 1.882 h 13.785 v 49.689 h 2.057 V 26.328 h 13.785 v -1.882 z m 30.932,25.786 q 0,5.645 2.024,10.593 2.094,4.947 5.793,8.571 3.699,3.555 8.584,5.576 4.885,1.95 10.399,1.95 5.513,0 10.398,-1.95 4.886,-2.021 8.585,-5.645 3.698,-3.624 5.722,-8.502 2.094,-4.948 2.094,-10.593 0,-5.645 -2.094,-10.593 -2.024,-4.948 -5.722,-8.502 -3.7,-3.624 -8.585,-5.575 -4.885,-2.021 -10.398,-2.021 -5.514,0 -10.4,2.02 -4.884,1.952 -8.583,5.576 -3.7,3.554 -5.793,8.502 -2.024,4.948 -2.024,10.593 z m 2.094,0 q 0,-5.227 1.884,-9.757 1.954,-4.6 5.304,-7.944 3.42,-3.415 7.887,-5.227 4.536,-1.882 9.63,-1.882 5.095,0 9.562,1.882 4.536,1.812 7.886,5.227 3.42,3.345 5.304,7.944 1.954,4.53 1.954,9.757 0,5.226 -1.954,9.826 -1.884,4.53 -5.304,7.945 -3.35,3.345 -7.886,5.226 -4.467,1.812 -9.561,1.812 -5.095,0 -9.631,-1.812 -4.467,-1.881 -7.887,-5.226 -3.35,-3.415 -5.304,-7.945 -1.884,-4.6 -1.884,-9.826 z m 61.554,-25.785 h -3.35 v 51.57 h 2.094 v -49.48 h 0.14 l 24.356,49.48 h 1.186 l 24.287,-49.48 h 0.14 -0.07 0.07 v 49.48 h 2.094 v -51.57 h -3.28 l -23.799,48.225 z"
       fill="#ffffff"
       id="path5" />
  </g>
</svg>
