<?xml version="1.0" encoding="UTF-8" standalone="no"?>
<svg
   version="1.1"
   viewBox="0 0 380.00055 50.315001"
   id="svg98"
   width="380.00055"
   height="50.315002"
   xmlns="http://www.w3.org/2000/svg"
   xmlns:svg="http://www.w3.org/2000/svg">
  <defs
     id="defs98" />
  <circle
     class="st0"
     cx="1.7025734"
     cy="2.4449744"
     r="1.7025734"
     style="fill:#ffffff;stroke-width:0.0989868"
     id="circle1" />
  <circle
     class="st0"
     cx="1.7025734"
     cy="7.4834032"
     r="1.7025734"
     style="fill:#ffffff;stroke-width:0.0989868"
     id="circle2" />
  <circle
     class="st0"
     cx="1.7025734"
     cy="12.521832"
     r="1.7025734"
     style="fill:#ffffff;stroke-width:0.0989868"
     id="circle3" />
  <circle
     class="st0"
     cx="1.7025734"
     cy="17.560261"
     r="1.7025734"
     style="fill:#ffffff;stroke-width:0.0989868"
     id="circle4" />
  <circle
     class="st0"
     cx="1.7025734"
     cy="22.598692"
     r="1.7025734"
     style="fill:#ffffff;stroke-width:0.0989868"
     id="circle5" />
  <circle
     class="st0"
     cx="3.9792702"
     cy="4.9691386"
     r="1.7025734"
     style="fill:#ffffff;stroke-width:0.0989868"
     id="circle6" />
  <circle
     class="st0"
     cx="3.9792702"
     cy="15.045997"
     r="1.7025734"
     style="fill:#ffffff;stroke-width:0.0989868"
     id="circle7" />
  <circle
     class="st0"
     cx="3.9792702"
     cy="20.074528"
     r="1.7025734"
     style="fill:#ffffff;stroke-width:0.0989868"
     id="circle8" />
  <circle
     class="st0"
     cx="3.9792702"
     cy="25.112955"
     r="1.7025734"
     style="fill:#ffffff;stroke-width:0.0989868"
     id="circle9" />
  <circle
     class="st0"
     cx="3.9792702"
     cy="45.26667"
     r="1.7025734"
     style="fill:#ffffff;stroke-width:0.0989868"
     id="circle10" />
  <circle
     class="st0"
     cx="6.2559671"
     cy="2.4449744"
     r="1.7025734"
     style="fill:#ffffff;stroke-width:0.0989868"
     id="circle11" />
  <circle
     class="st0"
     cx="6.2559671"
     cy="17.560261"
     r="1.7025734"
     style="fill:#ffffff;stroke-width:0.0989868"
     id="circle12" />
  <circle
     class="st0"
     cx="6.2559671"
     cy="22.598692"
     r="1.7025734"
     style="fill:#ffffff;stroke-width:0.0989868"
     id="circle13" />
  <circle
     class="st0"
     cx="6.2559671"
     cy="27.637121"
     r="1.7025734"
     style="fill:#ffffff;stroke-width:0.0989868"
     id="circle14" />
  <circle
     class="st0"
     cx="8.5326633"
     cy="10.007567"
     r="1.7025734"
     style="fill:#ffffff;stroke-width:0.0989868"
     id="circle15" />
  <circle
     class="st0"
     cx="8.5326633"
     cy="20.074528"
     r="1.7025734"
     style="fill:#ffffff;stroke-width:0.0989868"
     id="circle16" />
  <circle
     class="st0"
     cx="8.5326633"
     cy="25.112955"
     r="1.7025734"
     style="fill:#ffffff;stroke-width:0.0989868"
     id="circle17" />
  <circle
     class="st0"
     cx="8.5326633"
     cy="30.151386"
     r="1.7025734"
     style="fill:#ffffff;stroke-width:0.0989868"
     id="circle18" />
  <circle
     class="st0"
     cx="8.5326633"
     cy="45.26667"
     r="1.7025734"
     style="fill:#ffffff;stroke-width:0.0989868"
     id="circle19" />
  <circle
     class="st0"
     cx="10.809361"
     cy="2.4449744"
     r="1.7025734"
     style="fill:#ffffff;stroke-width:0.0989868"
     id="circle20" />
  <circle
     class="st0"
     cx="10.809361"
     cy="7.4834032"
     r="1.7025734"
     style="fill:#ffffff;stroke-width:0.0989868"
     id="circle21" />
  <circle
     class="st0"
     cx="10.809361"
     cy="12.521832"
     r="1.7025734"
     style="fill:#ffffff;stroke-width:0.0989868"
     id="circle22" />
  <circle
     class="st0"
     cx="10.809361"
     cy="22.598692"
     r="1.7025734"
     style="fill:#ffffff;stroke-width:0.0989868"
     id="circle23" />
  <circle
     class="st0"
     cx="10.809361"
     cy="27.637121"
     r="1.7025734"
     style="fill:#ffffff;stroke-width:0.0989868"
     id="circle24" />
  <circle
     class="st0"
     cx="10.809361"
     cy="32.675549"
     r="1.7025734"
     style="fill:#ffffff;stroke-width:0.0989868"
     id="circle25" />
  <circle
     class="st0"
     cx="13.086058"
     cy="10.007567"
     r="1.7025734"
     style="fill:#ffffff;stroke-width:0.0989868"
     id="circle26" />
  <circle
     class="st0"
     cx="13.086058"
     cy="20.074528"
     r="1.7025734"
     style="fill:#ffffff;stroke-width:0.0989868"
     id="circle27" />
  <circle
     class="st0"
     cx="13.086058"
     cy="25.112955"
     r="1.7025734"
     style="fill:#ffffff;stroke-width:0.0989868"
     id="circle28" />
  <circle
     class="st0"
     cx="13.086058"
     cy="30.151386"
     r="1.7025734"
     style="fill:#ffffff;stroke-width:0.0989868"
     id="circle29" />
  <circle
     class="st0"
     cx="13.086058"
     cy="35.189816"
     r="1.7025734"
     style="fill:#ffffff;stroke-width:0.0989868"
     id="circle30" />
  <circle
     class="st0"
     cx="13.086058"
     cy="45.26667"
     r="1.7025734"
     style="fill:#ffffff;stroke-width:0.0989868"
     id="circle31" />
  <circle
     class="st0"
     cx="15.362754"
     cy="2.4449744"
     r="1.7025734"
     style="fill:#ffffff;stroke-width:0.0989868"
     id="circle32" />
  <circle
     class="st0"
     cx="15.362754"
     cy="22.598692"
     r="1.7025734"
     style="fill:#ffffff;stroke-width:0.0989868"
     id="circle33" />
  <circle
     class="st0"
     cx="15.362754"
     cy="27.637121"
     r="1.7025734"
     style="fill:#ffffff;stroke-width:0.0989868"
     id="circle34" />
  <circle
     class="st0"
     cx="15.362754"
     cy="32.675549"
     r="1.7025734"
     style="fill:#ffffff;stroke-width:0.0989868"
     id="circle35" />
  <circle
     class="st0"
     cx="15.362754"
     cy="37.713978"
     r="1.7025734"
     style="fill:#ffffff;stroke-width:0.0989868"
     id="circle36" />
  <circle
     class="st0"
     cx="15.362754"
     cy="42.752407"
     r="1.7025734"
     style="fill:#ffffff;stroke-width:0.0989868"
     id="circle37" />
  <circle
     class="st0"
     cx="17.63945"
     cy="4.9691386"
     r="1.7025734"
     style="fill:#ffffff;stroke-width:0.0989868"
     id="circle38" />
  <circle
     class="st0"
     cx="17.63945"
     cy="15.045997"
     r="1.7025734"
     style="fill:#ffffff;stroke-width:0.0989868"
     id="circle39" />
  <circle
     class="st0"
     cx="17.63945"
     cy="20.074528"
     r="1.7025734"
     style="fill:#ffffff;stroke-width:0.0989868"
     id="circle40" />
  <circle
     class="st0"
     cx="17.63945"
     cy="25.112955"
     r="1.7025734"
     style="fill:#ffffff;stroke-width:0.0989868"
     id="circle41" />
  <circle
     class="st0"
     cx="17.63945"
     cy="30.151386"
     r="1.7025734"
     style="fill:#ffffff;stroke-width:0.0989868"
     id="circle42" />
  <circle
     class="st0"
     cx="17.63945"
     cy="35.189816"
     r="1.7025734"
     style="fill:#ffffff;stroke-width:0.0989868"
     id="circle43" />
  <circle
     class="st0"
     cx="17.63945"
     cy="40.228245"
     r="1.7025734"
     style="fill:#ffffff;stroke-width:0.0989868"
     id="circle44" />
  <circle
     class="st0"
     cx="17.63945"
     cy="45.26667"
     r="1.7025734"
     style="fill:#ffffff;stroke-width:0.0989868"
     id="circle45" />
  <circle
     class="st0"
     cx="19.916147"
     cy="2.4449744"
     r="1.7025734"
     style="fill:#ffffff;stroke-width:0.0989868"
     id="circle46" />
  <circle
     class="st0"
     cx="19.916147"
     cy="7.4834032"
     r="1.7025734"
     style="fill:#ffffff;stroke-width:0.0989868"
     id="circle47" />
  <circle
     class="st0"
     cx="19.916147"
     cy="17.560261"
     r="1.7025734"
     style="fill:#ffffff;stroke-width:0.0989868"
     id="circle48" />
  <circle
     class="st0"
     cx="19.916147"
     cy="22.598692"
     r="1.7025734"
     style="fill:#ffffff;stroke-width:0.0989868"
     id="circle49" />
  <circle
     class="st0"
     cx="19.916147"
     cy="27.637121"
     r="1.7025734"
     style="fill:#ffffff;stroke-width:0.0989868"
     id="circle50" />
  <circle
     class="st0"
     cx="19.916147"
     cy="32.675549"
     r="1.7025734"
     style="fill:#ffffff;stroke-width:0.0989868"
     id="circle51" />
  <circle
     class="st0"
     cx="19.916147"
     cy="37.713978"
     r="1.7025734"
     style="fill:#ffffff;stroke-width:0.0989868"
     id="circle52" />
  <circle
     class="st0"
     cx="22.192844"
     cy="4.9691386"
     r="1.7025734"
     style="fill:#ffffff;stroke-width:0.0989868"
     id="circle53" />
  <circle
     class="st0"
     cx="22.192844"
     cy="15.045997"
     r="1.7025734"
     style="fill:#ffffff;stroke-width:0.0989868"
     id="circle54" />
  <circle
     class="st0"
     cx="22.192844"
     cy="20.074528"
     r="1.7025734"
     style="fill:#ffffff;stroke-width:0.0989868"
     id="circle55" />
  <circle
     class="st0"
     cx="22.192844"
     cy="25.112955"
     r="1.7025734"
     style="fill:#ffffff;stroke-width:0.0989868"
     id="circle56" />
  <circle
     class="st0"
     cx="22.192844"
     cy="30.151386"
     r="1.7025734"
     style="fill:#ffffff;stroke-width:0.0989868"
     id="circle57" />
  <circle
     class="st0"
     cx="22.192844"
     cy="35.189816"
     r="1.7025734"
     style="fill:#ffffff;stroke-width:0.0989868"
     id="circle58" />
  <circle
     class="st0"
     cx="22.192844"
     cy="45.26667"
     r="1.7025734"
     style="fill:#ffffff;stroke-width:0.0989868"
     id="circle59" />
  <circle
     class="st0"
     cx="24.469542"
     cy="2.4449744"
     r="1.7025734"
     style="fill:#ffffff;stroke-width:0.0989868"
     id="circle60" />
  <circle
     class="st0"
     cx="24.469542"
     cy="32.675549"
     r="1.7025734"
     style="fill:#ffffff;stroke-width:0.0989868"
     id="circle61" />
  <circle
     class="st0"
     cx="24.469542"
     cy="37.713978"
     r="1.7025734"
     style="fill:#ffffff;stroke-width:0.0989868"
     id="circle62" />
  <circle
     class="st0"
     cx="24.469542"
     cy="42.752407"
     r="1.7025734"
     style="fill:#ffffff;stroke-width:0.0989868"
     id="circle63" />
  <circle
     class="st0"
     cx="26.746241"
     cy="10.007567"
     r="1.7025734"
     style="fill:#ffffff;stroke-width:0.0989868"
     id="circle64" />
  <circle
     class="st0"
     cx="26.746241"
     cy="20.074528"
     r="1.7025734"
     style="fill:#ffffff;stroke-width:0.0989868"
     id="circle65" />
  <circle
     class="st0"
     cx="26.746241"
     cy="35.189816"
     r="1.7025734"
     style="fill:#ffffff;stroke-width:0.0989868"
     id="circle66" />
  <circle
     class="st0"
     cx="26.746241"
     cy="40.228245"
     r="1.7025734"
     style="fill:#ffffff;stroke-width:0.0989868"
     id="circle67" />
  <circle
     class="st0"
     cx="26.746241"
     cy="45.26667"
     r="1.7025734"
     style="fill:#ffffff;stroke-width:0.0989868"
     id="circle68" />
  <circle
     class="st0"
     cx="29.022938"
     cy="2.4449744"
     r="1.7025734"
     style="fill:#ffffff;stroke-width:0.0989868"
     id="circle69" />
  <circle
     class="st0"
     cx="29.022938"
     cy="7.4834032"
     r="1.7025734"
     style="fill:#ffffff;stroke-width:0.0989868"
     id="circle70" />
  <circle
     class="st0"
     cx="29.022938"
     cy="12.521832"
     r="1.7025734"
     style="fill:#ffffff;stroke-width:0.0989868"
     id="circle71" />
  <circle
     class="st0"
     cx="29.022938"
     cy="37.713978"
     r="1.7025734"
     style="fill:#ffffff;stroke-width:0.0989868"
     id="circle72" />
  <circle
     class="st0"
     cx="31.299633"
     cy="10.007567"
     r="1.7025734"
     style="fill:#ffffff;stroke-width:0.0989868"
     id="circle73" />
  <circle
     class="st0"
     cx="31.299633"
     cy="20.074528"
     r="1.7025734"
     style="fill:#ffffff;stroke-width:0.0989868"
     id="circle74" />
  <circle
     class="st0"
     cx="31.299633"
     cy="40.228245"
     r="1.7025734"
     style="fill:#ffffff;stroke-width:0.0989868"
     id="circle75" />
  <circle
     class="st0"
     cx="33.576332"
     cy="2.4449744"
     r="1.7025734"
     style="fill:#ffffff;stroke-width:0.0989868"
     id="circle76" />
  <circle
     class="st0"
     cx="33.576332"
     cy="17.560261"
     r="1.7025734"
     style="fill:#ffffff;stroke-width:0.0989868"
     id="circle77" />
  <circle
     class="st0"
     cx="33.576332"
     cy="42.752407"
     r="1.7025734"
     style="fill:#ffffff;stroke-width:0.0989868"
     id="circle78" />
  <circle
     class="st0"
     cx="35.862923"
     cy="4.9691386"
     r="1.7025734"
     style="fill:#ffffff;stroke-width:0.0989868"
     id="circle79" />
  <circle
     class="st0"
     cx="35.862923"
     cy="15.045997"
     r="1.7025734"
     style="fill:#ffffff;stroke-width:0.0989868"
     id="circle80" />
  <circle
     class="st0"
     cx="35.862923"
     cy="45.26667"
     r="1.7025734"
     style="fill:#ffffff;stroke-width:0.0989868"
     id="circle81" />
  <circle
     class="st0"
     cx="38.139622"
     cy="2.4449744"
     r="1.7025734"
     style="fill:#ffffff;stroke-width:0.0989868"
     id="circle82" />
  <circle
     class="st0"
     cx="38.139622"
     cy="7.4834032"
     r="1.7025734"
     style="fill:#ffffff;stroke-width:0.0989868"
     id="circle83" />
  <circle
     class="st0"
     cx="38.139622"
     cy="12.521832"
     r="1.7025734"
     style="fill:#ffffff;stroke-width:0.0989868"
     id="circle84" />
  <circle
     class="st0"
     cx="38.139622"
     cy="17.560261"
     r="1.7025734"
     style="fill:#ffffff;stroke-width:0.0989868"
     id="circle85" />
  <circle
     class="st0"
     cx="38.139622"
     cy="22.598692"
     r="1.7025734"
     style="fill:#ffffff;stroke-width:0.0989868"
     id="circle86" />
  <circle
     class="st0"
     cx="38.139622"
     cy="27.637121"
     r="1.7025734"
     style="fill:#ffffff;stroke-width:0.0989868"
     id="circle87" />
  <circle
     class="st0"
     cx="38.139622"
     cy="32.675549"
     r="1.7025734"
     style="fill:#ffffff;stroke-width:0.0989868"
     id="circle88" />
  <circle
     class="st0"
     cx="38.139622"
     cy="37.713978"
     r="1.7025734"
     style="fill:#ffffff;stroke-width:0.0989868"
     id="circle89" />
  <circle
     class="st0"
     cx="38.139622"
     cy="42.752407"
     r="1.7025734"
     style="fill:#ffffff;stroke-width:0.0989868"
     id="circle90" />
  <circle
     class="st0"
     cx="38.139622"
     cy="47.790836"
     r="1.7025734"
     style="fill:#ffffff;stroke-width:0.0989868"
     id="circle91" />
  <path
     class="st0"
     d="m 82.119466,2.0094324 c 1.702573,0.841388 3.019098,1.8906483 3.949574,3.1675783 0.930476,1.27693 1.544194,2.6231507 1.841155,4.0485609 0.29696,1.4254104 0.445441,2.7320364 0.445441,3.9099794 0,1.455106 -0.217771,2.791428 -0.643415,4.018865 -0.435542,1.227436 -1.059159,2.316291 -1.870851,3.266565 -0.82159,0.950273 -1.791661,1.732269 -2.93001,2.345988 -1.138348,0.613718 -2.385582,1.009665 -3.741701,1.187841 3.316058,0.22767 5.879817,1.425411 7.691276,3.603121 1.811458,2.17771 2.722137,5.038429 2.722137,8.572258 0,1.494701 -0.257366,3.038896 -0.781996,4.632583 -0.52463,1.58379 -1.375917,3.028997 -2.55386,4.325725 -1.177943,1.296727 -2.70234,2.345987 -4.563292,3.167578 -1.860952,0.82159 -4.147548,1.227436 -6.879584,1.227436 H 50.839631 V 44.98951 h 6.879584 V 5.2364028 H 50.908922 V 0.75229983 h 24.509136 c 2.761732,0 4.998835,0.41574467 6.701408,1.25713257 z M 77.189922,21.48014 c 1.316525,-0.564225 2.355887,-1.296727 3.127984,-2.17771 0.772097,-0.880983 1.306626,-1.870851 1.603586,-2.959706 0.296961,-1.088855 0.445441,-2.157913 0.445441,-3.197274 0,-0.999767 -0.108886,-1.969838 -0.336555,-2.93001 C 81.802708,9.2651664 81.357267,8.4237784 80.703954,7.7011746 80.050641,6.9785708 79.149861,6.3846499 78.011513,5.9293105 76.873164,5.4739711 75.398261,5.2463015 73.586802,5.2463015 H 63.638627 V 22.331427 h 8.572258 c 1.999534,-0.0099 3.662513,-0.287062 4.979037,-0.851287 z m 0.950274,22.460109 c 1.405613,-0.702806 2.504366,-1.544194 3.306159,-2.514265 0.791895,-0.979969 1.326424,-1.959939 1.603587,-2.959706 0.277163,-0.999767 0.405846,-1.811459 0.405846,-2.454873 0,-1.316525 -0.14848,-2.543961 -0.445441,-3.672411 -0.29696,-1.138348 -0.781996,-2.108419 -1.465005,-2.93001 -0.683009,-0.82159 -1.57389,-1.465005 -2.692441,-1.940141 -1.108653,-0.475137 -2.484569,-0.712706 -4.117852,-0.712706 H 63.638627 v 18.243271 h 8.988003 c 2.266798,-0.0099 4.107953,-0.356352 5.513566,-1.059159 z"
     style="fill:#ffffff;stroke-width:0.0989868"
     id="path91" />
  <path
     class="st0"
     d="m 127.52472,2.0094324 c 1.70257,0.841388 3.0191,1.8906483 3.94957,3.1675783 0.93048,1.2670313 1.5442,2.6231507 1.84116,4.0485609 0.29696,1.4254104 0.44544,2.7320364 0.44544,3.9099794 0,1.455106 -0.21777,2.791428 -0.64341,4.018865 -0.43555,1.227436 -1.05916,2.316291 -1.87086,3.266565 -0.82159,0.950273 -1.79166,1.732269 -2.93001,2.345988 -1.13834,0.613718 -2.38558,1.009665 -3.7417,1.187841 3.31606,0.22767 5.87982,1.425411 7.69128,3.603121 1.81146,2.17771 2.72214,5.038429 2.72214,8.572258 0,1.494701 -0.25737,3.038896 -0.782,4.632583 -0.52463,1.58379 -1.37592,3.028997 -2.55386,4.325725 -1.17794,1.296727 -2.70234,2.345987 -4.56329,3.167578 -1.86095,0.82159 -4.14755,1.227436 -6.87959,1.227436 H 96.254784 V 44.98951 h 6.879586 V 5.2364028 H 96.314176 V 0.75229983 h 24.509134 c 2.76173,0 4.99884,0.41574467 6.70141,1.25713257 z M 122.58528,21.48014 c 1.31652,-0.564225 2.35588,-1.296727 3.12798,-2.17771 0.7721,-0.880983 1.30663,-1.870851 1.60359,-2.959706 0.29696,-1.088855 0.44544,-2.157913 0.44544,-3.197274 0,-0.999767 -0.10889,-1.969838 -0.33656,-2.93001 -0.22767,-0.9502736 -0.67311,-1.7916616 -1.32642,-2.5142654 -0.65331,-0.7226038 -1.55409,-1.3165247 -2.69244,-1.7718641 -1.13835,-0.4553394 -2.61325,-0.683009 -4.42471,-0.683009 h -9.93828 V 22.331427 h 8.57226 c 1.99953,-0.0099 3.65261,-0.287062 4.96914,-0.851287 z m 0.95027,22.460109 c 1.40561,-0.702806 2.50437,-1.544194 3.30616,-2.514265 0.7919,-0.979969 1.32642,-1.959939 1.60359,-2.959706 0.27716,-0.999767 0.40584,-1.811459 0.40584,-2.454873 0,-1.316525 -0.14848,-2.543961 -0.44544,-3.672411 -0.29696,-1.138348 -0.78199,-2.108419 -1.465,-2.93001 -0.68301,-0.82159 -1.57389,-1.465005 -2.69244,-1.940141 -1.10866,-0.475137 -2.48457,-0.712706 -4.11786,-0.712706 h -11.09642 v 18.243271 h 8.98801 c 2.26679,-0.0099 4.10795,-0.356352 5.51356,-1.059159 z"
     style="fill:#ffffff;stroke-width:0.0989868"
     id="path92" />
  <path
     class="st0"
     d="M 184.59062,0.75229983 V 18.045297 h -5.30569 c -0.22767,-3.949574 -1.42541,-7.146848 -3.60312,-9.6017213 -2.17771,-2.4548731 -5.33539,-3.672411 -9.46314,-3.672411 -5.21661,0 -9.17608,1.7223707 -11.87842,5.1770107 -2.70234,3.4546396 -4.04856,8.3247916 -4.04856,14.6302516 0,6.711307 1.31652,11.86852 3.94957,15.451843 2.63305,3.583323 6.49354,5.374984 11.57156,5.374984 3.86049,0 6.88948,-1.118551 9.08699,-3.365552 2.19751,-2.247 3.41505,-5.226504 3.64272,-8.948408 h 6.26586 c -0.13858,2.771631 -0.68301,5.216605 -1.63328,7.354721 -0.95027,2.128216 -2.2569,3.939675 -3.90998,5.414579 -1.65308,1.474903 -3.63282,2.583556 -5.91941,3.335856 -2.2965,0.752299 -4.82066,1.118551 -7.59229,1.118551 -4.12775,0 -7.60219,-0.722604 -10.41341,-2.17771 -2.81123,-1.455107 -5.07803,-3.365552 -6.8103,-5.751135 -1.72237,-2.385582 -2.9597,-5.068125 -3.712,-8.067426 -0.7523,-2.9993 -1.11855,-6.057993 -1.11855,-9.185976 0,-3.316059 0.43554,-6.493536 1.29672,-9.532431 0.86119,-3.038896 2.17771,-5.7214384 3.94958,-8.0278313 1.77186,-2.3162916 4.02876,-4.1475477 6.7707,-5.5135658 C 158.4482,0.68300906 161.72467,0 165.53566,0 c 3.54373,0 6.51333,0.68300906 8.91871,2.0391285 2.40538,1.3561194 4.14755,3.2863624 5.2364,5.7808303 V 0.75229983 Z"
     style="fill:#ffffff;stroke-width:0.0989868"
     id="path93" />
  <path
     class="st0"
     d="M 231.55987,42.405954 244.55684,0.75229983 h 17.15441 V 5.2463015 h -6.93897 V 44.999408 h 6.93897 v 4.494002 h -18.92628 v -4.494002 h 6.26587 V 5.2364028 H 248.5757 L 234.07413,49.483511 h -5.30569 L 214.26687,5.2364028 h -0.47514 V 44.98951 h 6.33516 v 4.494001 H 201.61635 V 44.98951 h 7.00827 V 5.2364028 h -7.00827 V 0.75229983 h 17.35239 z"
     style="fill:#ffffff;stroke-width:0.0989868"
     id="path94" />
  <path
     class="st0"
     d="m 277.37097,45.197382 h 5.51356 v 4.286129 h -16.74857 v -4.286129 h 5.72144 V 17.966108 h -5.65214 v -4.008966 h 11.16571 z m 0.40584,-38.7335427 h -6.33515 V 0.75229983 h 6.33515 z"
     style="fill:#ffffff;stroke-width:0.0989868"
     id="path95" />
  <path
     class="st0"
     d="m 316.09461,13.957142 v 13.06626 h -4.28613 v -0.613718 c -0.0495,-1.138349 -0.28706,-2.237103 -0.7127,-3.30616 -0.43554,-1.069058 -1.02947,-2.02923 -1.80156,-2.890415 -0.7721,-0.861186 -1.68278,-1.554093 -2.72214,-2.078724 -1.03936,-0.52463 -2.19751,-0.781995 -3.47444,-0.781995 -1.91044,0 -3.52393,0.415744 -4.87015,1.257132 -1.33632,0.841388 -2.42518,1.920344 -3.26656,3.236869 -0.84139,1.316525 -1.45511,2.811226 -1.84116,4.494002 -0.38605,1.682776 -0.57412,3.355653 -0.57412,5.038429 0,1.722371 0.21777,3.424944 0.64341,5.10772 0.42565,1.682776 1.07896,3.187375 1.94014,4.523698 0.86119,1.336322 1.95004,2.425177 3.26657,3.266565 1.31652,0.841388 2.86072,1.257132 4.63258,1.257132 1.99954,0 3.73181,-0.633515 5.20671,-1.910445 1.4749,-1.267032 2.46477,-3.058693 2.9597,-5.374985 l 0.13859,-0.82159 h 5.17701 l -0.0693,1.227436 c -0.22767,1.771864 -0.73251,3.355653 -1.5343,4.761266 -0.79189,1.405613 -1.81146,2.583556 -3.05869,3.543728 -1.24724,0.950274 -2.67265,1.692675 -4.28613,2.207406 -1.61349,0.524631 -3.30616,0.781996 -5.06813,0.781996 -2.54396,0 -4.80086,-0.465238 -6.7707,-1.395714 -1.96983,-0.930476 -3.64271,-2.207406 -4.99883,-3.850587 -1.36602,-1.633283 -2.40538,-3.543728 -3.12798,-5.721438 -0.72261,-2.17771 -1.08886,-4.494002 -1.08886,-6.938976 0,-3.177477 0.41575,-5.968906 1.25713,-8.374285 0.84139,-2.40538 1.95004,-4.404914 3.33586,-5.988703 1.38582,-1.583789 2.9993,-2.791428 4.83056,-3.60312 1.84115,-0.821591 3.7516,-1.227437 5.75113,-1.227437 2.31629,0 4.28613,0.435542 5.91941,1.296728 1.63329,0.861185 3.0389,2.266798 4.21684,4.216838 v -4.404913 z"
     style="fill:#ffffff;stroke-width:0.0989868"
     id="path96" />
  <path
     class="st0"
     d="m 342.26673,18.243271 c -0.38605,-0.04949 -0.7622,-0.06929 -1.11855,-0.06929 -6.58263,0 -9.86899,4.375218 -9.86899,13.135551 v 13.887851 h 6.741 v 4.286129 h -17.90671 v -4.286129 h 5.65214 V 17.966108 h -5.65214 v -4.008966 h 11.16571 v 7.077557 c 0.54443,-1.544194 1.10865,-2.801327 1.70257,-3.781296 0.59392,-0.97997 1.26704,-1.752067 2.03913,-2.316292 0.7721,-0.564225 1.64318,-0.960172 2.62315,-1.187842 0.97997,-0.227669 2.14802,-0.366251 3.50414,-0.405846 h 2.31629 v 5.10772 c -0.41575,-0.09899 -0.81169,-0.168277 -1.19774,-0.207872 z"
     style="fill:#ffffff;stroke-width:0.0989868"
     id="path97" />
  <path
     class="st0"
     d="m 375.5164,44.920219 c -2.9993,3.355653 -6.96867,5.038429 -11.90811,5.038429 -5.53337,0 -9.71061,-1.88075 -12.52184,-5.652147 -2.72213,-3.721905 -4.08815,-8.077325 -4.08815,-13.066261 0,-2.860719 0.40584,-5.424477 1.22743,-7.691276 0.82159,-2.266798 1.95994,-4.197041 3.43485,-5.78083 1.4749,-1.583789 3.24676,-2.801327 5.30569,-3.642715 2.06882,-0.841388 4.36532,-1.257132 6.90928,-1.257132 2.63305,0 4.95924,0.465238 6.97857,1.395714 2.01933,0.930476 3.71201,2.237102 5.06813,3.909979 1.36601,1.682776 2.38558,3.652614 3.05869,5.919412 0.68301,2.266798 1.01956,4.741469 1.01956,7.424011 0.01,5.533364 -1.4848,10.007568 -4.4841,13.402816 z m -8.19611,0 c 1.24724,-0.593921 2.39548,-1.474904 3.43484,-2.652847 1.08886,-1.177943 1.91045,-2.722137 2.45488,-4.632583 0.54442,-1.910446 0.82159,-4.088156 0.82159,-6.53313 0,-4.494002 -0.91068,-7.948642 -2.72214,-10.383718 -1.81146,-2.425177 -4.42471,-3.642715 -7.82986,-3.642715 -1.63328,0 -3.10818,0.326657 -4.42471,0.989869 -1.31652,0.653313 -2.42517,1.583789 -3.33585,2.791428 -0.91068,1.19774 -1.61349,2.652847 -2.10842,4.35542 -0.49494,1.702573 -0.7523,3.573424 -0.7523,5.612553 0,3.088389 0.30686,5.503667 0.92057,7.245835 0.61372,1.742168 1.44521,3.187376 2.48457,4.325724 2.08863,2.266798 4.5138,3.405147 7.28543,3.405147 1.25714,0.0099 2.51427,-0.287062 3.7714,-0.880983 z"
     style="fill:#ffffff;stroke-width:0.0989868"
     id="path98" />
</svg>
