<?xml version="1.0" encoding="UTF-8" standalone="no"?>
<svg
   version="1.1"
   viewBox="0 0 379.9993 116.62601"
   id="svg9"
   width="379.9993"
   height="116.62601"
   xmlns="http://www.w3.org/2000/svg"
   xmlns:svg="http://www.w3.org/2000/svg">
  <defs
     id="defs9" />
  <path
     class="st5"
     d="M 139.73153,115.8047 H 119.35711 L 97.745773,61.340965 h 14.605467 l 15.92153,40.748845 h 2.55299 l 15.72363,-40.748845 h 14.54609 z"
     style="fill:#ffffff;stroke-width:0.098953"
     id="path1" />
  <path
     class="st5"
     d="M 166.99308,115.8047 V 61.340965 h 13.95238 V 115.8047 Z"
     style="fill:#ffffff;stroke-width:0.098953"
     id="path2" />
  <path
     class="st5"
     d="m 217.96377,116.61611 c -5.76896,0 -11.72593,0.0792 -17.35635,-1.38534 -4.52216,-1.22702 -7.40169,-4.08676 -8.32195,-9.88541 -0.851,-5.30388 -0.65309,-11.02336 -0.65309,-16.416299 0,-3.265449 0,-6.530898 0.12864,-9.717185 0.12864,-4.977335 0.1979,-10.370274 3.27534,-13.962268 1.0489,-1.227017 2.29571,-2.038432 3.67116,-2.612359 5.76896,-2.364977 18.14798,-2.12749 24.24348,-2.12749 4.97734,0 10.09321,-0.16822 15.00128,0.979635 1.96916,0.48487 3.73053,1.30618 5.30388,2.859742 3.47325,3.344611 3.47325,9.796347 3.47325,14.69452 0,0.573928 -0.0693,1.227018 -0.0693,1.800945 h -13.29928 c -0.0693,-1.4744 -0.0693,-4.165921 -0.97963,-5.145556 -0.59372,-0.65309 -1.64262,-0.900472 -2.42435,-0.979635 -3.54252,-0.573927 -7.27305,-0.573927 -10.80567,-0.573927 -1.8999,0 -3.73053,0 -5.63043,0.07916 -1.96916,0.07916 -4.77943,0.07916 -6.42205,1.632725 -2.29571,2.206652 -2.0978,9.796347 -2.0978,12.982633 0,2.938905 -0.25728,10.370275 1.96916,12.408709 0.851,0.73225 1.77126,1.14785 2.82017,1.30618 2.82016,0.49476 5.89759,0.40571 8.77713,0.40571 h 6.74859 c 2.42435,0 7.14441,0.49476 8.25268,-3.018072 0.45518,-1.4744 0.52445,-3.591994 0.52445,-5.145556 h 13.29929 c 0.0693,1.30618 0.12863,2.691522 0.12863,3.997701 0,4.650797 -0.0693,10.202057 -3.07743,13.556567 -4.05708,4.57162 -15.65437,4.24508 -20.82961,4.24508 h -5.65022 z"
     style="fill:#ffffff;stroke-width:0.098953"
     id="path3" />
  <path
     class="st5"
     d="m 264.08577,115.8047 c 0,-2.12749 -0.12864,-4.32425 -0.12864,-6.45174 0,-4.4133 -0.0693,-8.81671 0.52445,-13.150853 1.17754,-9.064095 7.47095,-10.202055 13.75447,-10.86504 l 16.50536,-1.632724 c 2.0978,-0.247383 4.39351,-0.247383 6.42205,-1.147855 1.89989,-0.82131 1.89989,-2.206652 1.89989,-4.492466 0,-1.553562 0,-3.265449 -1.11817,-4.245084 -1.64262,-1.553562 -8.71776,-1.147855 -10.61765,-1.147855 -3.9977,0 -8.32195,-0.247382 -12.31965,0.573928 -3.01807,0.573927 -2.68163,3.265449 -2.68163,6.530898 v 1.800944 h -12.90347 v -2.206652 c 0,-4.492466 0.0693,-10.696819 2.75089,-14.209651 3.01807,-3.918538 9.6974,-4.086758 13.6951,-4.324246 2.82016,-0.16822 5.63043,-0.16822 8.45059,-0.16822 h 1.2468 l 10.80567,0.07916 c 4.19561,0 9.56876,0.07916 12.70557,4.086759 2.42435,3.107124 2.42435,9.311477 2.42435,13.309178 0,4.086759 -0.0693,8.411005 -1.8999,12.002999 -2.42435,4.819011 -9.30158,5.472101 -13.36855,5.798646 -3.14671,0.247382 -6.22415,0.494765 -9.37085,0.732252 -2.49362,0.16822 -4.97734,0.405707 -7.47095,0.65309 -1.11817,0.07916 -3.92844,0.326545 -4.97734,0.82131 -2.0978,0.979634 -2.0978,2.780582 -2.0978,5.145562 h 39.89785 v 12.49776 h -52.12844 z"
     style="fill:#ffffff;stroke-width:0.098953"
     id="path4" />
  <path
     class="st5"
     d="m 370.22275,115.47815 c -5.2445,1.0588 -12.31964,0.97964 -17.62353,0.97964 -3.27534,0 -6.48142,-0.0792 -9.75676,-0.16822 -7.20378,-0.15833 -15.59499,-0.48487 -17.16835,-11.34991 -0.72235,-5.066397 -0.52445,-11.191588 -0.52445,-16.327249 0,-3.265448 0,-6.451735 0.0693,-9.717184 0.0693,-4.571629 0.32654,-9.796347 3.01807,-13.309179 1.77126,-2.285814 4.25498,-3.433669 6.74859,-3.918538 5.24451,-1.058798 12.25038,-0.979635 17.62353,-0.979635 3.20608,0 6.48142,0.16822 9.69739,0.247382 11.20148,0.326545 17.6928,1.800945 17.6928,17.95997 v 19.434369 c -0.0198,9.064094 -1.85042,15.515834 -9.77656,17.148554 z m -6.36267,-39.60099 c -1.50409,-0.821309 -3.73053,-0.900472 -5.37315,-0.900472 -2.62226,0 -5.24451,-0.07916 -7.92614,-0.07916 -2.68162,0 -5.63042,-0.07916 -8.25268,0.65309 -0.78173,0.247382 -1.57335,0.573927 -2.15717,1.385341 -1.77126,2.285815 -1.64262,8.73755 -1.64262,11.676454 0,2.691522 -0.12864,9.064095 1.37544,11.270747 0.65309,0.97963 1.44472,1.38534 2.42435,1.71189 2.82016,0.8213 7.47095,0.8213 10.41975,0.73225 l 5.76896,-0.16822 c 1.64262,-0.0792 3.86907,-0.0792 5.37315,-0.97964 3.27535,-1.80094 2.82016,-8.984928 2.82016,-12.576922 -0.01,-3.582098 0.44529,-10.855144 -2.83005,-12.725356 z"
     style="fill:#ffffff;stroke-width:0.098953"
     id="path5" />
  <polygon
     id="polygon7_7_"
     class="st7"
     points="869.6,611.5 869.6,669.9 0,669.9 0,611.5 "
     style="fill:#ffffff"
     transform="scale(0.098953)" />
  <polygon
     class="st7"
     points="869.6,738.7 869.6,797.1 0,797.1 0,738.7 "
     style="fill:#ffffff"
     id="polygon5"
     transform="scale(0.098953)" />
  <polygon
     class="st7"
     points="869.6,865.9 869.6,924.2 0,924.2 0,865.9 "
     style="fill:#ffffff"
     id="polygon6"
     transform="scale(0.098953)" />
  <polygon
     class="st7"
     points="869.6,993.1 869.6,1051.4 0,1051.4 0,993.1 "
     style="fill:#ffffff"
     id="polygon7"
     transform="scale(0.098953)" />
  <polygon
     id="polygon15_7_"
     class="st7"
     points="869.6,1120.2 869.6,1178.6 0,1178.6 0,1120.2 "
     style="fill:#ffffff"
     transform="scale(0.098953)" />
  <path
     id="path4595_10_"
     class="st5"
     d="m 334.87674,15.644469 h -7.05535 v 20.245784 h 7.36211 V 25.312177 c 0,-2.760788 1.69209,-4.14613 4.75964,-4.14613 3.06754,0 3.83937,0.920263 3.9878,3.522726 h 6.90692 c 0,-6.897024 -0.92026,-9.509383 -8.28236,-9.509383 -4.45289,0 -5.98666,0.920263 -7.66886,4.29456 z m 33.9013,16.257978 c -7.05535,0 -8.12404,-0.613508 -8.12404,-4.146131 h 19.32552 c -0.30675,-9.816137 -0.30675,-12.111847 -13.34876,-12.111847 -11.04315,0 -13.50708,1.988956 -13.50708,10.736401 0,8.133936 3.22586,10.122892 12.12174,10.281216 9.97446,0 14.7242,-0.465079 14.7242,-7.055348 h -7.21367 c -0.29686,1.533771 -0.91037,2.295709 -3.97791,2.295709 z m -8.28237,-8.430795 c 0.30676,-2.14728 0.92027,-2.919114 5.82834,-2.919114 5.37314,0 6.13508,0.306754 6.44184,2.919114 z M 86.217749,24.23359 h 7.362103 c -0.613509,-6.90692 -2.612359,-8.589121 -12.883681,-8.589121 -11.656663,0 -14.269022,1.840526 -14.269022,10.429647 0,8.58912 2.454034,10.58797 13.34876,10.58797 11.508233,0 13.803943,-1.533771 13.803943,-8.747445 h -7.362103 c 0,1.998851 -0.761938,2.919114 -6.44184,2.919114 -4.908069,0 -5.986657,-1.227017 -5.986657,-5.214823 0,-3.839377 1.068692,-3.839377 6.906919,-3.839377 4.294561,0 5.056499,0.465079 5.521578,2.454035 z m 171.040261,1.227017 c 0,-8.282366 -2.45404,-9.964567 -14.26902,-9.964567 -12.73525,0 -14.25913,2.14728 -14.25913,10.7364 0,8.589121 2.14728,10.429646 14.25913,10.429646 12.88368,0 14.26902,-2.14728 14.26902,-11.201479 z m -21.01762,0.465079 c 0,-4.146131 0.92027,-4.601315 6.29341,-4.601315 5.98666,0 7.05535,0.14843 7.05535,4.601315 0,4.146131 -0.77183,4.908069 -6.44184,4.908069 -6.14498,0 -6.90692,-0.613509 -6.90692,-4.908069 z m 87.12812,-0.465079 c 0,-8.282366 -2.30561,-9.964567 -14.1107,-9.964567 -12.57693,0 -14.1107,1.988955 -14.1107,10.587971 0,8.747445 2.14728,10.587971 14.1107,10.587971 12.88368,-0.0099 14.1107,-2.157176 14.1107,-11.211375 z m -20.85929,0.465079 c 0,-4.146131 0.92026,-4.601315 6.28351,-4.601315 5.98666,0 7.05535,0.14843 7.05535,4.601315 0,4.146131 -0.76194,4.908069 -6.44184,4.908069 -6.12519,0 -6.89702,-0.613509 -6.89702,-4.908069 z M 126.25413,25.460607 c 0,-8.282366 -2.3056,-9.964567 -14.1107,-9.964567 -12.735246,0 -14.269018,1.988955 -14.269018,10.587971 0,8.747445 2.147278,10.587971 14.269018,10.587971 12.88369,-0.0099 14.1107,-2.157176 14.1107,-11.211375 z m -20.71086,0.465079 c 0,-4.146131 0.92026,-4.601315 6.13509,-4.601315 5.98665,0 7.05534,0.14843 7.05534,4.601315 0,4.146131 -0.77183,4.908069 -6.44184,4.908069 -5.98665,0 -6.74859,-0.613509 -6.74859,-4.908069 z M 282.87694,7.0553489 V 18.870337 c -1.6822,-2.305605 -3.21597,-3.522727 -9.35106,-3.522727 -9.81614,0 -11.65666,2.612359 -11.65666,10.587971 0,8.133937 2.61236,10.429647 12.12174,10.429647 5.98666,0 7.82718,-1.533772 9.20263,-4.136236 v 3.681052 h 7.3621 V 7.0553489 Z m -5.37315,14.1106981 c 4.13624,0 5.52158,0.613508 5.52158,3.829481 0,4.908069 -0.30675,5.373148 -6.13509,5.373148 -5.82833,0 -7.3621,-0.158325 -7.3621,-4.29456 0,-4.749744 1.84053,-4.908069 7.97561,-4.908069 z M 137.9108,15.644469 h -6.89703 v 20.245784 h 7.36211 V 25.460607 c 0,-3.067543 1.53377,-4.136235 5.6799,-4.136235 3.83937,0 4.90807,1.375446 4.90807,5.214823 v 9.351058 h 7.52042 v -10.7364 c 0,-2.919114 2.29571,-3.829481 5.82834,-3.829481 3.37429,0 4.90806,0.920262 4.90806,3.829481 v 10.7364 h 7.36211 V 23.926835 c 0,-5.976761 -3.68105,-8.747445 -10.42965,-8.747445 -5.82833,0 -7.97561,2.14728 -8.74744,4.452885 -1.53378,-2.612359 -3.68106,-4.452885 -9.50939,-4.452885 -5.52157,0 -7.05535,1.840526 -7.97561,5.214823 z m 49.54576,0 h -6.90692 v 20.245784 h 7.36211 V 25.460607 c 0,-3.067543 1.84052,-4.136235 5.52157,-4.136235 3.83938,0 4.90807,1.227017 4.90807,5.214823 v 9.351058 h 7.52043 v -10.7364 c 0,-2.919114 2.14728,-3.829481 5.6799,-3.829481 3.3743,0 5.0565,1.068692 5.0565,3.829481 v 10.7364 h 7.3621 V 23.926835 c 0,-5.976761 -3.68105,-8.747445 -10.42964,-8.747445 -5.82833,0 -7.82718,1.988955 -8.74745,4.452885 -1.53377,-2.612359 -3.68105,-4.452885 -9.50938,-4.452885 -5.36325,0 -6.74859,1.840526 -7.81729,5.214823 z"
     style="fill:#ffffff;stroke-width:0.098953" />
  <path
     class="st5"
     d="m 33.109674,38.482822 c -2.018641,1.128064 -4.334142,1.781154 -6.807967,1.781154 -7.688648,0 -13.952373,-6.25383 -13.952373,-13.952373 0,-7.698544 6.25383,-13.952373 13.952373,-13.952373 2.473825,0 4.789326,0.643194 6.807967,1.781154 V 0.890577 C 30.942603,0.3067543 28.656789,0 26.301707,0 11.775407,0 0,11.775407 0,26.311603 c 0,14.536195 11.775407,26.311602 26.311603,26.311602 2.355081,0 4.631,-0.316649 6.807966,-0.890577 V 38.482822 Z"
     style="fill:#ffffff;stroke-width:0.098953"
     id="path7" />
  <rect
     x="33.109673"
     y="14.82316"
     class="st5"
     width="11.033259"
     height="10.5286"
     style="fill:#ffffff;stroke-width:0.098953"
     id="rect7" />
  <polygon
     class="st5"
     points="411,256.2 411,149.8 566.4,149.8 460,256.2 "
     style="fill:#ffffff"
     id="polygon8"
     transform="scale(0.098953)" />
  <rect
     x="33.109673"
     y="27.271448"
     class="st5"
     width="11.033259"
     height="10.5286"
     style="fill:#ffffff;stroke-width:0.098953"
     id="rect8" />
  <polygon
     class="st5"
     points="411,275.6 411,381.9 566.4,381.9 460,275.6 "
     style="fill:#ffffff"
     id="polygon9"
     transform="scale(0.098953)" />
</svg>
