<?xml version="1.0" encoding="UTF-8" standalone="no"?>
<svg
   viewBox="0 0 380.00104 177.642"
   version="1.1"
   id="svg4"
   width="380.00104"
   height="177.642"
   xmlns="http://www.w3.org/2000/svg"
   xmlns:svg="http://www.w3.org/2000/svg">
  <defs
     id="defs4" />
  <path
     d="m 117.75277,53.460644 h 7.92998 V 21.100187 c 0,-2.104684 -0.15712,-5.07936 -0.54994,-8.924855 0.15712,0.653321 0.54994,3.120226 1.33517,7.255993 l 6.67379,34.029319 h 4.23997 l 6.98805,-34.029319 c 0.31384,-1.378589 0.70625,-3.773133 1.33435,-7.255993 -0.47097,4.498815 -0.6281,7.473491 -0.6281,8.924855 V 53.460644 H 153.085 V 2.2349353 H 141.54314 L 136.2037,30.677536 c -0.47097,2.466906 -0.78482,5.006586 -0.78482,7.618628 0,-2.757178 -0.23569,-5.36922 -0.70707,-7.690989 L 129.1375,2.2353488 h -11.38473 z m 43.96888,0 h 8.55809 V 32.636671 h 5.88898 c 6.83092,0 11.4633,-5.587131 11.4633,-15.59989 0,-10.448167 -4.08284,-14.8018457 -13.34759,-14.8018457 h -12.56278 z m 8.55809,-28.152328 V 9.6360651 h 3.06234 c 4.31853,0 5.57472,1.8139979 5.57472,7.5458529 0,5.949766 -1.02091,8.126398 -5.26088,8.126398 z M 192.97105,2.2349353 V 40.32766 c 0,9.359851 4.71094,14.221301 13.19046,14.221301 8.32281,0 13.11231,-4.933811 13.11231,-14.003389 V 2.2353488 h -8.71521 V 41.924161 c 0,3.119812 -1.72717,4.861036 -4.31812,4.861036 -2.59095,0 -4.55422,-1.741224 -4.55422,-4.861036 V 2.2349353 Z M 222.65,9.6356516 h 8.87234 V 53.460644 h 8.5585 V 9.6360651 h 8.95049 V 2.2349353 h -26.38092 z m 30.2289,43.8249924 h 22.29849 V 45.769655 H 261.43698 V 30.460038 h 9.89326 v -7.401129 h -9.89326 V 9.6360651 h 13.74041 V 2.2349353 H 252.8789 Z m 37.37324,-21.549655 h 4.08326 l 5.26047,21.549655 h 8.87234 l -6.28098,-23.798649 c 4.00387,-2.612455 5.41719,-6.530311 5.41719,-12.625214 0,-10.5209419 -4.08284,-14.8018457 -13.34759,-14.8018457 H 281.69406 V 53.460644 h 8.55849 z m 0,-22.2749239 h 3.06234 c 4.1614,0 5.57472,1.6688619 5.57472,7.1104439 0,5.659493 -1.09906,7.763764 -5.26047,7.763764 h -3.37618 z m 21.67081,30.8367319 c 0.39282,8.997216 5.81001,14.148939 14.13323,14.148939 7.61573,0 13.26902,-5.224497 13.26902,-12.77035 0,-7.110444 -3.69043,-10.955938 -9.579,-16.252797 -4.86807,-4.353265 -8.5585,-7.473491 -8.5585,-12.117029 0,-2.902728 1.8847,-4.7163133 4.55422,-4.7163133 3.14049,0 4.39668,1.9591343 4.71094,6.3851753 l 8.32239,-1.088317 C 338.14716,6.0808434 333.04381,1.3645303 325.97761,1.3645303 c -7.22374,0 -13.26943,5.4415816 -13.26943,12.8427117 0,6.747809 4.39668,10.955938 10.5995,16.688206 4.55381,4.208129 7.69471,6.82017 7.69471,11.101074 0,2.97509 -2.11998,4.933811 -5.26047,4.933811 -3.61187,0 -5.33945,-2.466905 -5.65329,-7.618214 z"
     fill-opacity="0.994"
     stroke-width="1.28183"
     fill="#ffffff"
     id="path1" />
  <path
     d="m 34.02229,40.32766 c 0,9.359851 4.475246,14.221301 13.111896,14.221301 8.322808,0 13.190459,-4.933811 13.190459,-14.003389 v -5.369221 h -8.793364 v 6.965308 c 0,3.555221 -1.491886,5.36922 -4.397095,5.36922 -2.90521,0 -4.397096,-1.813999 -4.397096,-5.36922 V 13.553921 c 0,-3.5552216 1.491886,-5.2968585 4.397096,-5.2968585 2.905209,0 4.397095,1.7416369 4.397095,5.2968585 v 5.659493 h 8.793778 v -4.933811 c 0,-8.2715346 -5.103757,-13.1325705 -12.876618,-13.1325705 -8.479936,0 -13.426151,4.9338109 -13.426151,12.9150725 z"
     fill-opacity="0.994"
     stroke-width="1.28183"
     fill="#ffffff"
     id="path2" />
  <path
     d="m 254.88806,177.00729 v -14.91308 h 13.12596 l 21.70637,-30.39719 -21.70637,-28.04936 h -12.2295 V 88.734167 h 45.78165 v 14.088153 h -8.51633 l 13.25455,16.43639 12.03764,-16.43639 h -8.06851 V 88.734581 h 39.50688 v 14.913079 h -12.3581 l -21.12954,29.00123 23.30659,29.44532 h 12.80591 v 14.91308 h -47.2541 v -14.34163 h 8.90046 l -13.95873,-18.08623 -13.25414,18.08623 h 9.156 v 14.34204 z m -90.94181,0 v -14.91308 h 11.90987 V 103.64766 H 163.94625 V 88.734167 h 37.32983 l 32.84755,55.083613 V 103.64766 H 222.53422 V 88.734167 h 39.95469 V 103.64766 H 250.00263 V 177.642 h -19.84937 l -38.41814,-65.42716 v 49.87979 h 11.20527 v 14.91266 z m -63.41138,0 v -14.91308 h 12.48587 V 138.23313 L 88.881371,103.64766 H 77.996554 V 88.734167 h 44.564736 v 14.913493 h -8.77187 l 13.06228,21.57612 13.25414,-21.57612 h -9.15641 V 88.734167 h 39.25051 v 14.913493 h -10.94933 l -23.05064,34.58547 v 23.86108 h 12.42137 v 14.91308 z m -84.364359,0 V 162.09421 H 28.91233 V 103.64766 H 16.170511 V 88.734167 H 65.089337 V 103.64766 H 52.091979 v 58.44655 H 78.408394 V 134.8065 h 17.351864 v 42.2012 z"
     fill-opacity="0.994"
     fill="#ffffff"
     id="path3"
     style="stroke-width:0.413494" />
  <path
     d="M 107.50597,53.110001 C 96.956496,30.480713 88.201587,11.889194 88.050661,11.796158 87.899736,11.702708 81.894149,24.227856 74.705555,39.629269 L 61.635422,67.632326 30.817711,67.738594 0,67.844448 v -4.13494 L 29.163735,63.603653 58.326642,63.497385 73.146269,31.748899 87.965895,0 107.30088,41.466009 c 10.63506,22.806264 19.36475,41.503224 19.3999,41.549122 0.0351,0.0459 2.29489,-4.698946 5.02188,-10.544098 l 4.95779,-10.627624 121.66029,-0.103787 121.66028,-0.1042 v 4.13494 l -119.99431,0.104201 -119.99391,0.103787 -2.9172,6.209853 c -5.63964,12.005799 -7.16792,15.339388 -8.48614,18.505099 -0.73147,1.756936 -1.46335,3.27694 -1.62627,3.377833 -0.16291,0.100892 -8.92775,-18.331845 -19.47722,-40.961134 z"
     fill="#fefefe"
     id="path4"
     style="stroke-width:0.413494" />
</svg>
