<?xml version="1.0" encoding="UTF-8" standalone="no"?>
<svg
   height="80.247002"
   viewBox="0 0 266.00158 56.172949"
   width="380.00198"
   version="1.1"
   id="svg10"
   xmlns="http://www.w3.org/2000/svg"
   xmlns:svg="http://www.w3.org/2000/svg">
  <defs
     id="defs10" />
  <g
     id="g10"
     transform="matrix(0.4809616,0,0,0.4809616,-7.0442851e-6,7.1842537e-8)">
    <path
       d="M 65.539,2.268 C 57.877,2.692 50.577,5.831 44.137,9.859 30.433,18.768 20.902,32.596 13.102,46.675 6.737,58.255 3.099,71.359 2.542,84.558 c -0.186,5.477 0.226,11.535 4.078,15.818 3.735,4.46 9.03,7.932 14.894,8.573 5.375,-0.247 10.568,-2.096 15.483,-4.186 9.005,-3.95 16.654,-10.51 22.625,-18.261 4.18,-5.25 7.852,-10.906 12.512,-15.764 0.902,-0.999 2.308,-2.894 0.721,-3.943 -2.441,-1.564 -5.534,-0.714 -8.26,-0.915 -4.545,-0.165 -9.322,1.341 -12.26,4.967 -4.843,5.667 -9.445,12.306 -16.683,14.96 -2.924,1.03 -6.964,1.701 -9.165,-1.092 -2.34,-3.297 -2.085,-7.592 -2.178,-11.43 -0.177,-6.077 1.76,-11.929 4.324,-17.37 3.607,-8.184 7.864,-16.3 14.473,-22.486 3.96,-3.902 8.243,-8.22 13.972,-9.175 2.101,-0.395 4.072,0.922 4.962,2.725 1.751,2.415 2.665,5.332 4.336,7.788 1.05,0.658 2.314,-0.525 3.435,-0.591 4.937,-1.573 10.2,-2.489 14.729,-5.107 1.77,-0.971 2.029,-3.225 1.32,-4.95 C 84.007,18.492 81.39,13.071 78.045,8.176 75.261,4.199 70.311,2.141 65.539,2.268 Z"
       opacity="0.98"
       style="fill:#ffffff"
       id="path1" />
    <path
       d="m 122.866,43.195 c -6.344,0.1 -12.22,3.123 -17.47,6.436 -9.58,6.54 -17.36,15.919 -21.552,26.768 -1.466,4.386 -2.573,9.648 -0.123,13.892 1.51,2.587 4.664,3.313 7.453,3.116 5.485,-0.019 10.553,-2.45 15.537,-4.434 0.971,-0.074 0.562,1.45 0.925,2.027 0.495,2.332 3.188,3.57 5.315,2.582 2.402,-0.788 4.986,-1.774 6.7,-3.704 2.047,-4.28 2.006,-9.285 4.31,-13.428 3.21,-6.545 8.096,-12.09 11.495,-18.515 1.536,-2.977 0.889,-6.697 -1.376,-9.12 -2.614,-3.262 -6.478,-5.823 -10.804,-5.62 h -0.259 z m -5.91,14.262 c 1.195,-0.15 2.077,0.966 1.725,2.127 -0.515,5.056 -3.808,9.291 -6.968,13.064 -3.235,3.38 -6.656,7.324 -11.423,8.431 -1.918,0.567 -3.453,-1.366 -3.077,-3.16 0.705,-4.739 3.78,-8.656 6.76,-12.229 3.41,-3.68 7.59,-7.122 12.593,-8.214 0.13,-0.012 0.26,-0.02 0.39,-0.02 z"
       opacity="0.98"
       style="fill:#ffffff"
       id="path2" />
    <path
       d="m 180.68,43.853 c -6.288,0.119 -11.907,3.523 -16.644,7.384 0.303,-2.022 2.22,-5.018 -0.048,-6.496 -2.886,-0.716 -6.202,-0.3 -8.847,1.092 -4.431,3.233 -6.278,8.756 -8.846,13.391 -4.228,9.075 -9.086,17.944 -12.118,27.515 -0.33,1.521 -0.777,3.48 0.134,4.77 5.232,0.08 10.187,-2.696 14.012,-6.078 1.941,-1.67 3.483,-3.795 3.807,-6.388 2.44,-6.725 6.334,-13.02 11.405,-18.079 3.216,-2.738 7.001,-5.303 11.277,-5.898 2.524,-0.098 2.386,3.107 1.996,4.803 -2.332,8.129 -7.181,15.356 -9.55,23.516 -0.617,2.733 -2.222,6.196 -0.332,8.748 1.839,1.613 4.283,-0.471 6.079,-1.154 3.263,-1.716 6.96,-3.726 7.97,-7.58 2.38,-7.15 4.679,-14.323 7.637,-21.26 1.68,-4.763 3.611,-10.938 -0.024,-15.292 -1.892,-2.341 -5.018,-3.103 -7.908,-2.994 z"
       opacity="0.98"
       style="fill:#ffffff"
       id="path3" />
    <path
       d="m 237.93,43.341 c -6.709,0.464 -13.06,3.705 -17.981,8.195 0.673,-2.091 2.468,-4.516 1.45,-6.748 -2.313,-2.263 -5.815,-0.358 -8.384,0.364 -5.677,2.224 -7.845,8.555 -10.491,13.51 -4.175,9.297 -8.892,18.447 -11.739,28.265 -0.312,1.453 -1.071,4.386 1.094,4.683 3.965,-0.516 7.61,-2.598 10.995,-4.636 4.98,-3.68 5.85,-10.343 8.967,-15.351 4.103,-7.78 10.714,-14.885 19.384,-17.254 1.94,0.048 2.702,2.77 2.331,4.408 -2.821,9.575 -8.594,18.12 -10.83,27.908 -0.176,1.97 -0.839,5.001 1.233,6.195 2.68,-0.292 4.986,-2.168 7.41,-3.272 3.803,-1.815 6.33,-5.471 7.211,-9.532 1.962,-7.392 5.335,-14.263 7.678,-21.517 1.466,-4.371 1.26,-9.858 -2.522,-13.022 -1.553,-1.5 -3.635,-2.347 -5.806,-2.196 z"
       opacity="0.98"
       style="fill:#ffffff"
       id="path4" />
    <path
       d="m 288.986,44.018 c -13.799,0.293 -26.3,9.178 -33.595,20.514 -3.491,5.567 -6.235,12.015 -5.527,18.726 0.455,5.056 5.075,9.676 10.301,9.46 9.612,-0.035 18.736,-4.62 26.031,-10.629 6.225,-5.476 12.609,-11.462 15.724,-19.326 1.519,-4.728 1.942,-10.635 -1.669,-14.555 -2.36,-3.086 -6.25,-4.453 -10.056,-4.19 -0.403,-0.012 -0.806,-10e-4 -1.209,0 z m -2.167,10.274 c 2.893,0.127 3.165,3.797 2.688,5.93 -1.705,7.826 -7.068,14.659 -13.726,18.963 -3.365,1.764 -7.672,3.44 -11.276,1.594 -2.372,-2.613 -0.925,-6.49 0.179,-9.35 3.47,-7.803 9.914,-14.839 18.604,-16.595 1.155,-0.28 2.335,-0.553 3.531,-0.542 z"
       opacity="0.98"
       style="fill:#ffffff"
       id="path5" />
    <path
       d="m 350.721,43.71 c -6.282,0.164 -11.918,3.507 -16.627,7.411 0.399,-1.988 2.19,-5.015 -0.177,-6.39 -3.96,-0.934 -8.613,0.211 -11.284,3.436 -3.798,4.487 -5.688,10.23 -8.435,15.364 -3.667,8.106 -7.828,16.083 -10.378,24.63 -0.608,1.47 0.082,3.74 1.99,3.464 5.335,-0.896 10.428,-3.732 14.081,-7.724 2.264,-2.672 2.067,-6.536 4.09,-9.368 4.383,-7.615 9.793,-15.527 18.142,-19.116 1.55,-0.74 4.593,-1.378 5.029,0.864 0.122,4.846 -2.57,9.245 -4.358,13.588 -2.86,6.444 -6.352,12.976 -6.849,20.119 0.203,1.575 1.587,3.57 3.379,2.549 4.05,-1.89 8.939,-3.581 11.136,-7.791 2.49,-6.215 3.966,-12.81 6.763,-18.922 2.22,-5.522 5.22,-12.086 2.184,-17.895 -1.7,-3.033 -5.361,-4.335 -8.686,-4.22 z"
       opacity="0.98"
       style="fill:#ffffff"
       id="path6" />
    <path
       d="m 421.876,2.894 c -11.484,0.115 -22.715,3.324 -33.415,7.266 -4.638,2.085 -9.84,3.79 -13.353,7.633 -1.216,1.34 0.17,3.02 1.725,2.95 2.735,0.597 5.779,0.235 8.361,1.223 -1.7,5.235 -4.67,10.083 -6.835,15.189 -7.627,16.938 -14.93,34.135 -19.868,52.075 -1.253,3.765 -0.513,8.915 -4.356,11.303 -2.451,1.361 -5.918,1.655 -7.515,4.246 -0.84,2.638 2.506,3.6 4.46,3.953 7.7,1.584 15.62,0.528 23.405,0.374 13.674,-0.936 27.163,-4.376 39.807,-9.618 6.705,-2.96 11.823,-9.762 12.33,-17.127 0.325,-6.563 -3.275,-12.642 -8.176,-16.761 -3.26,-3.39 -7.865,-4.822 -11.45,-7.715 5.3,-3.476 11.237,-6.157 16.313,-10.076 8.278,-6.155 16.528,-13.183 21.175,-22.589 1.648,-3.943 1.798,-8.639 0.308,-12.646 -3.254,-5.331 -9.108,-9.101 -15.414,-9.41 -2.492,-0.25 -5,-0.284 -7.502,-0.27 z m -4.26,12.41 c 3.606,-0.056 8.37,0.314 9.959,4.21 1.079,2.674 0.518,5.721 0.104,8.434 -2.87,8.245 -10.767,13.108 -17.83,17.427 -5.865,3.212 -12.109,6.574 -18.777,7.238 -2.616,0.155 -2.576,-3.02 -1.987,-4.803 2.158,-7.732 5.432,-15.27 9.27,-22.308 2.61,-4.809 7.02,-8.978 12.637,-9.707 2.187,-0.392 4.415,-0.49 6.624,-0.491 z m -26.937,50.363 c 5.706,0.68 11.283,2.996 15.66,6.75 3.524,3.089 5.34,8.75 2.323,12.79 -2.32,3.44 -6.75,4.497 -10.323,6.018 -6.002,1.977 -12.334,3.654 -18.676,3.457 -1.136,-0.046 -2.853,-0.364 -2.357,-1.918 0.974,-7.52 2.996,-14.948 5.507,-22.104 1.193,-3.25 4.417,-5.297 7.866,-4.993 z"
       opacity="0.98"
       style="fill:#ffffff"
       id="path7" />
    <path
       d="m 472.97,43.02 c -9.523,0.95 -17.889,6.563 -24.95,12.679 -8.304,7.624 -14.616,18.092 -15.593,29.478 -0.577,4.368 3.611,7.484 7.56,7.912 6.066,0.984 11.794,-2.09 17.157,-4.22 0.937,1.91 1.516,5.296 4.339,4.957 3.09,-0.491 6.427,-1.806 8.376,-4.353 1.688,-3.792 1.758,-8.097 3.485,-11.899 2.957,-7.936 10.9,-13.193 12.614,-21.697 1.053,-3.614 -1.394,-6.85 -4.053,-8.984 -2.537,-2.02 -5.57,-3.955 -8.935,-3.873 z m -5.696,14.227 c 2.237,0.238 1.533,3.114 1.019,4.542 -2.735,6.95 -7.724,12.97 -13.694,17.396 -2.073,1.21 -5.267,2.963 -7.333,0.97 -1.051,-3.188 1.173,-6.376 2.72,-9.038 3.934,-5.667 8.994,-11.108 15.579,-13.62 0.553,-0.16 1.13,-0.285 1.709,-0.25 z"
       opacity="0.98"
       style="fill:#ffffff"
       id="path8" />
    <path
       d="m 519.308,30.818 c -4.375,0.397 -8.396,2.789 -11.761,5.5 -5.292,6.182 -8.706,13.715 -12.411,20.9 -4.348,9.205 -8.332,18.586 -12.297,27.96 -0.722,2.336 -2.51,5.718 -0.163,7.665 2.388,0.563 4.552,-1.518 6.713,-2.247 3.854,-1.825 8.434,-3.842 9.615,-8.391 4.213,-12.864 10.06,-25.13 16.195,-37.178 1.911,-4.028 5.078,-7.586 6.029,-12.005 0.062,-1.112 -0.638,-2.39 -1.92,-2.203 z"
       opacity="0.98"
       style="fill:#ffffff"
       id="path9" />
    <path
       d="m 547.423,31.909 c -5.119,-0.216 -10.022,2.46 -12.804,6.723 -6.637,9.764 -11.11,20.786 -16.3,31.344 -2.819,6.504 -6.418,12.813 -7.943,19.785 -0.512,1.73 1.01,4.12 2.963,3.14 4.31,-1.514 8.96,-3.157 12.151,-6.57 2.91,-4.622 3.991,-10.129 6.399,-15.006 5.201,-12.277 10.686,-24.417 17.721,-35.762 0.863,-1.029 1.721,-3.525 -0.424,-3.56 -0.584,-0.084 -1.175,-0.097 -1.764,-0.094 z"
       opacity="0.98"
       style="fill:#ffffff"
       id="path10" />
  </g>
</svg>
