<?xml version="1.0" encoding="UTF-8" standalone="no"?>
<svg
   version="1.1"
   viewBox="0 0 376.00211 74.554"
   id="svg9"
   width="376.00211"
   height="74.554001"
   xmlns="http://www.w3.org/2000/svg"
   xmlns:svg="http://www.w3.org/2000/svg">
  <defs
     id="defs9" />
  <path
     id="path9"
     style="fill:#ffffff;stroke-width:0.0979428"
     class="st1"
     d="m 235.04295,19.216362 -9.25559,9.7453 c -0.48972,0.509303 -1.28305,0.558275 -1.83153,0.117532 l -1.57688,-1.292844 c -0.0686,-0.05876 -0.10773,-0.156708 -0.10773,-0.284034 0,-0.333005 0.91086,-1.165518 0.91086,-2.742396 0,-1.586672 -0.32321,-8.158629 -10.4407,-8.158629 -10.10768,0 -14.59346,9.49065 -14.59346,17.316273 0,7.825624 4.80899,22.14485 20.55818,22.14485 9.16744,0 11.1067,-5.161582 11.1067,-5.161582 h 3.15376 v 13.486713 h -17.24772 c -20.55818,0 -31.99788,-16.150755 -31.99788,-27.796144 0,-17.874547 15.47495,-27.7863503 29.51014,-27.7863503 13.60424,-0.019588 21.81185,10.4113113 21.81185,10.4113113 m -175.581924,-0.09794 -9.255587,9.745301 c -0.489713,0.509303 -1.28305,0.558274 -1.831529,0.117531 l -1.576878,-1.292846 c -0.06856,-0.05876 -0.107736,-0.156708 -0.107736,-0.284033 0,-0.333006 0.910867,-1.165519 0.910867,-2.742397 0,-1.586672 -0.323211,-8.158628 -10.440695,-8.158628 -10.107688,0 -14.593464,9.49065 -14.593464,17.316273 0,7.825623 4.808986,22.144849 20.558177,22.144849 9.167438,0 11.106704,-5.161581 11.106704,-5.161581 h 3.153756 V 64.289602 H 40.146721 C 19.588544,64.279808 8.1390401,48.129054 8.1390401,36.473869 8.1390401,18.599323 23.61399,8.6875194 37.649182,8.6875194 51.253426,8.6973137 59.461026,19.118419 59.461026,19.118419 M 307.41282,10.205631 h 19.73545 l 7.13023,22.105673 7.61996,-22.14485 h 20.64632 v 3.251699 c 0,0 -1.3712,0.577861 -1.98824,1.332021 -0.74436,0.910867 -0.74436,1.586672 -0.57786,2.918693 0.1665,1.332021 5.4652,37.453297 5.63171,38.785318 0.1665,1.341815 0.333,2.086179 0.666,2.997047 0.32322,0.910867 1.90009,1.665027 1.90009,1.665027 v 3.359434 h -19.81381 v -3.604292 c 0,0 1.74338,-0.25465 2.32125,-1.087164 0.58765,-0.832512 0.83251,-1.33202 0.66601,-2.664042 -0.16651,-1.332021 -4.88735,-31.635499 -4.88735,-31.635499 l -8.61896,26.806923 h -10.44069 l -8.5406,-25.141897 -4.30949,29.637468 c 0,0 -0.1665,1.772763 0.49952,2.742396 0.91086,1.341815 2.56609,1.341815 2.56609,1.341815 v 3.574909 h -17.15957 v -3.829559 c 0,0 1.36141,-0.215474 2.36043,-1.371199 0.99901,-1.165518 1.16551,-2.664042 1.16551,-2.664042 l 6.25855,-39.079146 c 0,0 0.37218,-1.459346 -0.0392,-2.125357 -0.43095,-0.705188 -2.78158,-1.292844 -2.78158,-1.292844 V 10.205631 M 268.61771,66.0036 c -17.90393,0 -30.7834,-13.134119 -30.7834,-29.108577 0,-15.974458 13.21248,-28.3740062 30.7834,-28.3740062 17.58071,0 30.7834,12.3897542 30.7834,28.3740062 0,15.984252 -12.86967,29.108577 -30.7834,29.108577 M 252.70202,37.149674 c 0,15.984253 8.11945,19.980315 15.91569,19.980315 7.78644,0 16.0822,-4.995079 16.0822,-19.980315 0,-14.985236 -9.28498,-19.980315 -16.0822,-19.980315 -6.79722,0 -15.91569,3.996063 -15.91569,19.980315 z M 131.4979,10.166454 c 0,0 16.7482,0 26.52289,0 9.78447,0 19.56896,3.496556 19.56896,14.818734 0,11.322179 -7.13023,15.308448 -13.26145,18.138993 -7.08126,3.271286 -16.4152,5.827591 -16.4152,5.827591 v 8.648343 c 0,0 0.0784,0.587656 0.91086,1.586672 0.82273,0.999015 1.74338,1.243872 1.74338,1.243872 V 64.44631 H 131.3314 v -3.917708 c 0,0 1.16551,-0.254651 1.98824,-1.07737 0.8325,-0.832513 0.99901,-1.831529 0.99901,-1.831529 V 18.491586 c 0,0 0.0784,-1.665027 -0.58766,-2.331037 -0.666,-0.66601 -2.23309,-1.576878 -2.23309,-1.576878 v -4.417217 m 16.5817,8.158629 v 23.143866 c 0,0 15.58269,-6.493603 15.58269,-15.651247 0.01,-11.322179 -15.58269,-7.492619 -15.58269,-7.492619 z M 88.47166,10.166454 h 14.18211 l 17.24771,45.288715 c 0.49951,1.243873 1.32223,2.40939 2.15474,3.418201 0.82272,0.999016 2.82075,1.665026 2.82075,1.665026 v 3.907914 h -20.81283 v -3.996062 c 0,0 1.32223,0.166503 1.98823,-0.999016 0.66602,-1.165518 0.66602,-2.08618 0.16652,-3.251698 -0.49952,-1.165518 -3.97649,-10.411311 -3.97649,-10.411311 H 85.239551 c 0,0 -3.486762,9.324146 -3.819767,10.15666 -0.333004,0.832512 -0.333004,2.164534 0,2.997046 0.558274,1.390787 2.497539,1.586673 2.497539,1.586673 V 64.44631 H 67.257267 v -3.917708 c 0,0 1.518112,-0.519097 2.644453,-1.665026 1.243873,-1.253667 1.665026,-2.585688 1.665026,-2.585688 L 88.47166,10.166454 M 88.060301,37.306382 H 99.000503 L 93.368796,21.488633 Z m 287.873249,14.897089 -2.25268,0.156708 c -0.10775,0.0098 -0.40157,-0.01959 -0.53869,-0.13712 -0.30362,-0.264446 -0.49951,-0.705187 -0.62683,-1.341815 l -4.42702,-28.295652 c -0.21547,-1.371198 -0.10773,-1.713998 1.57688,-2.526923 l 1.18511,-0.577862 V 1.7433805 h -35.34753 l -1.12634,3.8393546 -1.50831,-3.8393546 h -34.2114 V 12.44852 C 291.79096,4.5543365 281.43841,0 269.86158,0 257.90278,0 246.68833,4.4465995 239.29366,11.997983 233.09389,4.1919485 223.33879,0.07835418 210.91965,0.07835418 c -11.42991,0 -20.97933,4.43680522 -28.42298,13.21247382 C 177.51139,5.3280841 171.78174,1.7433805 156.70836,1.7433805 H 122.7712 V 18.50138 l 0.0196,1.576878 1.50832,0.440742 c 0.21547,0.05876 0.63663,0.235062 0.98922,0.470126 0.29382,0.195885 0.48972,0.509302 0.52889,0.861896 0.0196,0.146913 0.0294,0.333004 0.0294,0.558273 0,0.587656 -0.0392,15.122355 -0.0588,24.358354 L 108.40301,1.7433805 H 82.790982 L 66.48352,44.936121 V 42.585496 H 50.254411 l -1.498525,0.01959 -0.489712,1.410375 c -0.127326,0.372183 -1.42017,3.672852 -5.964713,3.672852 -5.151787,0 -10.861848,-4.260509 -11.224236,-13.623832 -0.176297,-4.681662 2.340831,-7.67871 4.544543,-8.824639 0.372182,-0.195887 0.724776,-0.3428 1.028398,-0.440743 0.979428,-0.3428 1.919678,0.59745 1.576878,1.576878 -0.156709,0.440742 -0.470125,0.969633 -1.028398,1.596466 L 35.337734,29.755001 50.548238,40.234872 70.38164,19.196776 69.705835,17.874548 C 69.333653,17.159565 60.411071,0.2448568 37.991982,0.2448568 15.974458,0.2448568 0,15.768778 0,37.149674 0,57.188755 18.001872,72.87918 40.969441,72.87918 H 159.46054 l -0.01,-17.894136 -1.74338,-0.303622 c -0.21548,-0.03918 -0.44074,-0.08815 -0.66601,-0.146914 8.25657,-2.174329 15.61207,-6.434837 19.70607,-9.412296 5.49459,16.973473 21.15563,27.766762 40.79315,27.766762 h 23.32995 v -8.951966 c 5.04406,4.152772 14.98524,10.616992 27.99204,10.616992 10.02933,0 18.44261,-4.534748 22.92839,-7.551384 v 5.925535 h 34.13304 V 60.557985 h 14.03519 V 72.87918 h 36.04313 V 54.456153 Z m -2.03721,18.56994 H 342.06496 V 58.452217 h -18.23694 v 12.350576 h -29.93129 v -8.021508 c 0,0 -10.9402,9.657152 -25.03416,9.657152 -18.04105,0 -30.08801,-13.320211 -30.08801,-13.320211 v 11.655185 c 0,0 -1.32223,0 -21.22419,0 -18.88336,0 -35.10267,-10.381928 -39.62762,-29.294668 -2.14494,2.056797 -11.60622,8.844227 -22.96757,11.400532 -0.88149,0.195886 -1.32223,0.538685 -1.32223,1.498524 0,1.753175 3.73162,2.380008 3.73162,2.380008 v 14.025398 c 0,0 -98.148401,0 -116.395129,0 -21.557193,0 -38.8734667,-14.818734 -38.8734667,-33.623737 0,-18.805002 13.5063007,-34.8088427 35.8862127,-34.8088427 21.390691,0 29.843147,16.4837607 29.843147,16.4837607 L 50.254411,37.482679 38.648198,29.480759 c 0,0 3.809972,-3.663057 0.333006,-6.327099 -2.722809,-2.076386 -10.332958,2.331036 -10.009747,10.989172 0.381977,9.980364 6.53278,15.641453 13.330004,15.641453 6.297717,0 7.95295,-5.102815 7.95295,-5.102815 H 64.387545 V 56.44439 L 84.250329,3.849149 h 22.712921 l 18.23693,47.276952 c 0,0 1.32223,2.497539 2.65425,3.163549 0,0 0.0784,-31.01846 0.0784,-31.890149 0,-0.87169 -0.11753,-1.83153 -0.65623,-2.448568 -0.89127,-1.028399 -2.39959,-1.459347 -2.39959,-1.459347 V 3.849149 c 0,0 21.04789,0 31.83139,0 16.50334,0 20.74426,4.4955709 25.53366,13.153707 6.61114,-8.9323758 15.71001,-14.8187334 28.68742,-14.8187334 13.35939,0 22.80107,4.9363132 28.18792,13.1537074 7.53179,-9.040113 19.6669,-13.2320615 30.75401,-13.2320615 13.63363,0 25.03416,6.6307223 30.92053,16.8951195 V 3.849149 h 30.67565 l 3.23212,8.236983 2.40938,-8.236983 h 31.66489 v 14.319226 c -2.24289,1.087164 -3.14397,2.184122 -2.7424,4.750221 l 4.42701,28.295653 c 0.18609,0.920661 0.5093,1.880501 1.29284,2.585688 0.92067,0.822719 2.15475,0.66601 2.15475,0.66601 v 16.307464 z" />
</svg>
