<?xml version="1.0" encoding="UTF-8" standalone="no"?>
<svg
   version="1.1"
   id="Layer_1"
   x="0px"
   y="0px"
   viewBox="144 324 380.00095 74.168999"
   width="380.00095"
   height="74.168999"
   xmlns="http://www.w3.org/2000/svg"
   xmlns:svg="http://www.w3.org/2000/svg">
  <defs
     id="defs1" />
  <path
     d="m 169.19343,324.87478 c -2.70596,0.88643 -6.01843,2.56599 -9.28424,4.61879 -1.30633,0.83978 -2.93924,1.49295 -3.63906,1.49295 -2.98588,0 -7.93126,4.7121 -10.68388,10.21733 L 144,344.28305 v 7.69799 c 0,6.43833 0.13996,7.97792 0.83978,9.28425 0.41989,0.88644 0.79313,1.81953 0.79313,2.14611 0,1.07305 3.0792,6.34501 5.03868,8.63108 2.51935,2.93924 5.36527,4.33887 7.97792,3.91898 1.39964,-0.23327 2.14611,-0.13996 2.75262,0.37324 3.82567,3.35912 14.32293,4.66545 22.02093,2.70596 5.87846,-1.44629 9.42421,-2.98589 9.89075,-4.24556 l 0.41989,-1.11971 1.0264,1.39963 c 2.89258,4.01229 5.08534,5.132 7.41807,3.77902 1.16636,-0.69982 1.67956,-0.74647 3.59239,-0.27993 1.21302,0.27993 6.6716,0.55986 12.22349,0.60651 10.03071,0.0933 10.07737,0.0933 11.75693,-1.07305 2.28607,-1.5396 2.37938,-3.49909 0.23327,-6.20505 -0.83978,-1.07306 -1.91283,-2.75262 -2.37938,-3.77902 -1.16636,-2.56599 -2.19276,-9.51752 -2.19276,-14.64951 0,-3.87233 0.0933,-4.33887 0.79313,-4.19891 0.74647,0.13997 6.11174,6.6716 6.15839,7.46472 0.0467,0.18662 0.93309,1.58626 2.0528,3.03255 1.07305,1.49294 2.19276,3.12585 2.51934,3.63905 0.32659,0.5132 2.37938,3.87232 4.52549,7.51137 4.47883,7.41807 5.87847,9.05098 7.74465,9.05098 1.77287,0 4.94538,-3.31247 6.99817,-7.32476 0.88644,-1.72622 2.42604,-4.52549 3.40578,-6.15839 0.97975,-1.63291 2.79927,-5.22531 4.1056,-7.93127 2.65931,-5.59854 5.03869,-9.37756 5.92512,-9.37756 0.74647,0 0.69982,1.25968 -0.0933,1.5396 -0.32658,0.13997 -0.74647,0.93309 -0.88643,1.81953 -0.13997,0.83978 -0.46655,2.47269 -0.79313,3.63905 -0.27993,1.16636 -0.46654,3.77901 -0.37324,5.83181 0.23328,4.75876 1.81953,8.2112 5.41193,11.47701 2.19276,2.00614 2.75261,2.28607 4.52548,2.28607 1.11971,0 2.19277,0.23327 2.33273,0.46655 0.5132,0.79312 4.05894,2.42603 6.7649,3.07919 7.32476,1.77288 14.60286,-0.41989 18.52184,-5.55188 0.79313,-1.07306 2.14611,-3.73236 2.98589,-5.87847 l 1.5396,-3.91898 -1.77287,-1.5396 -1.72622,-1.49294 1.77287,-1.63291 c 1.77287,-1.63291 1.77287,-1.67956 1.72622,-5.13199 -0.0467,-3.12586 -0.23327,-3.68571 -1.72622,-5.97178 -0.93309,-1.39964 -1.95949,-2.84593 -2.28607,-3.26582 -0.97974,-1.21301 -5.13199,-3.6857 -6.15839,-3.6857 -0.55986,0 -2.42604,-0.74647 -4.19891,-1.63291 -5.50523,-2.75262 -8.95766,-2.19276 -16.32908,2.65931 -2.28607,1.5396 -4.38552,2.6593 -4.7121,2.51934 -0.32658,-0.0933 -0.69982,-1.11971 -0.83978,-2.19276 -0.41989,-3.31247 -0.13997,-3.26582 -13.71643,-3.40578 -4.89872,-0.0466 -5.27196,0 -6.39166,1.07305 -1.81953,1.72622 -1.72622,5.03869 0.18661,7.1848 1.39964,1.6329 1.81953,3.26581 0.88644,3.82567 -0.23327,0.18661 -0.65316,0.83978 -0.88644,1.44629 -0.74647,1.95949 -2.05279,1.35298 -3.63905,-1.67957 l -1.49294,-2.79927 0.97974,-1.91283 c 0.93309,-1.67956 0.93309,-2.0528 0.41989,-3.73236 -1.1197,-3.35913 -1.07305,-3.31247 -12.92329,-3.49909 l -10.54392,-0.13996 -1.63291,1.6329 c -1.63291,1.63291 -2.61265,1.95949 -3.12585,1.11971 -0.65316,-1.07305 -4.19891,-2.37938 -7.7913,-2.84592 -7.27811,-0.97975 -14.50956,0.97974 -17.26217,4.7121 -1.81953,2.51935 -2.00614,1.91284 -2.09945,-6.2517 0,-4.71211 -0.23328,-7.97792 -0.55986,-8.63108 -0.60651,-1.11971 -3.21916,-2.566 -6.99817,-3.82567 -3.49909,-1.16637 -14.04301,-1.16637 -17.5421,0 z m 16.84228,3.1725 c 4.43218,1.58626 4.29221,1.16637 4.47883,10.17069 l 0.13997,7.93126 -1.25968,0.13996 c -1.6329,0.18662 -3.1725,-1.35298 -3.1725,-3.12585 0,-3.21916 -4.52549,-8.53777 -8.11789,-9.61083 -4.33887,-1.30632 -7.97792,-0.69981 -11.52366,1.91284 -2.70596,1.95949 -4.43218,4.43218 -5.83181,8.35116 -0.93309,2.61265 -1.11971,3.91897 -1.11971,8.86435 0,5.132 0.13996,6.11174 1.11971,8.25785 0.60651,1.35298 1.81952,3.17251 2.70596,4.05894 2.37938,2.37938 7.13814,5.08534 10.03072,5.6452 4.24556,0.88643 6.29836,0.18661 11.8969,-4.05895 1.53959,-1.16636 3.12585,-2.00614 3.82567,-2.00614 h 1.21301 v 4.57214 4.6188 l -1.72621,0.74647 c -6.6716,2.89258 -18.47519,3.03254 -23.46722,0.23327 -1.72622,-0.93309 -3.87232,-2.37938 -4.57214,-3.03254 -0.83978,-0.79313 -2.47269,-0.74647 -3.63905,0.0933 -0.88644,0.60651 -1.07306,0.5132 -2.37938,-0.83978 -2.51935,-2.70596 -5.36527,-8.02458 -6.29836,-11.75694 -0.79313,-3.07919 -0.97975,-9.56417 -0.37324,-13.06326 0.60651,-3.40578 2.0528,-6.29836 4.99204,-9.93741 1.77287,-2.14611 2.79927,-2.42603 3.96563,-1.07305 1.07305,1.25967 2.6593,0.74647 3.03254,-0.93309 0.18662,-0.97975 0.93309,-1.77287 2.65931,-2.84593 2.566,-1.6329 7.41806,-3.87232 9.23759,-4.29221 2.28607,-0.46655 11.80359,0.13996 14.18297,0.97974 z m -9.19094,8.3045 c 0.74647,0.37324 2.14611,1.58626 3.12585,2.70597 1.67957,1.91283 2.28607,3.26581 3.35913,7.74464 0.46654,2.0528 1.58625,2.84593 2.89258,2.00615 2.28607,-1.39964 6.99817,0.0466 6.99817,2.19276 0,1.77287 1.72622,2.61265 5.31862,2.566 2.70596,0 3.6857,-0.23328 5.45857,-1.25967 1.16637,-0.69982 2.566,-1.25968 3.0792,-1.25968 1.0264,0 2.33273,1.21302 1.86618,1.72622 -0.83978,0.79313 -5.50523,2.00614 -7.69799,1.91284 -1.39964,-0.0467 -2.65931,0.13996 -2.79927,0.37323 -0.18662,0.23327 -1.21302,1.0264 -2.28607,1.77287 -1.21302,0.79313 -2.33273,2.0528 -2.79927,3.12585 l -0.79313,1.81953 h -2.98589 c -2.89258,0 -3.03254,0.0466 -5.59854,2.28607 -3.35912,2.89258 -5.78516,4.24556 -7.60468,4.24556 -3.35913,0 -10.12403,-4.52549 -11.80359,-7.93126 -0.32658,-0.65317 -0.83978,-2.65931 -1.16637,-4.47884 -1.35298,-7.83795 1.63291,-16.79562 6.39167,-19.31496 2.0528,-1.07306 5.22531,-1.21302 7.04483,-0.23328 z m 41.14928,6.81156 c 1.1197,0.65317 2.56599,1.91284 3.12585,2.84593 1.07305,1.58625 1.1197,2.09945 1.21301,10.45061 0.0933,10.12402 0.60651,12.41009 3.68571,16.18911 0.97974,1.21302 1.72622,2.47269 1.58625,2.79927 -0.13996,0.41989 -2.75261,0.55985 -10.45061,0.5132 -8.53777,-0.0466 -10.54391,-0.18662 -11.80359,-0.83978 -1.91283,-0.93309 -2.51934,-0.93309 -3.26581,-0.0467 -1.25967,1.5396 -2.65931,0.83979 -4.43218,-2.1461 -0.88643,-1.5396 -1.63291,-3.17251 -1.63291,-3.63905 0,-0.46655 -0.23327,-1.49295 -0.5132,-2.33273 -0.65316,-1.86618 0.0933,-5.08534 1.81953,-7.65134 1.25967,-1.86618 2.79927,-2.28607 3.82567,-1.0264 0.93309,1.11971 2.37938,0.83978 3.6857,-0.74647 0.93309,-1.07305 1.95949,-1.58625 4.47884,-2.23942 l 3.26581,-0.79312 0.13997,-1.86618 c 0.0933,-1.5396 -0.0933,-2.09946 -1.35298,-3.35913 -0.79313,-0.79312 -1.72622,-1.49294 -2.00615,-1.49294 -0.88643,0 -5.08534,1.49294 -5.87847,2.0528 -3.21916,2.37938 -5.41192,2.56599 -6.48497,0.55985 -1.77287,-3.31247 2.42603,-7.23145 8.8177,-8.16454 4.7121,-0.69982 9.93741,-0.27992 12.17683,0.93309 z m 27.38619,-0.97974 c 0.74647,0 1.5396,2.09945 1.16636,3.03254 -0.13996,0.41989 -0.83978,0.88644 -1.58625,1.0264 -0.74647,0.13996 -1.35298,0.55985 -1.35298,0.93309 0,0.37324 1.11971,2.37938 2.51934,4.52549 1.35298,2.09945 3.03254,4.99203 3.73236,6.43832 1.39964,2.98589 2.23942,3.49909 3.87233,2.47269 0.88643,-0.60651 0.97974,-0.88644 0.6065,-1.63291 -0.32658,-0.60651 -0.32658,-1.21302 -0.0466,-1.72622 0.23327,-0.46654 0.55985,-1.16636 0.69982,-1.5396 0.37323,-0.93309 1.16636,-2.19276 2.75261,-4.24556 1.63291,-2.19276 1.63291,-3.40577 -0.0933,-4.43217 -1.53959,-0.93309 -3.03254,-3.21916 -2.6593,-4.19891 0.18662,-0.5132 1.58625,-0.65316 7.51137,-0.65316 h 7.23145 l 0.5132,1.25967 c 0.74647,1.91283 0.37324,2.61265 -2.00614,3.77901 -1.5396,0.69982 -2.23942,1.35299 -2.23942,1.95949 0,0.46655 -0.27993,1.07306 -0.60651,1.25968 -0.65316,0.37323 -4.01229,5.83181 -5.83181,9.47086 -0.60651,1.16636 -1.25967,2.42603 -1.49295,2.79927 -2.19276,3.68571 -4.7121,8.25785 -6.01843,10.8705 -1.72621,3.49909 -2.47269,3.77901 -3.73236,1.49294 -0.41989,-0.79312 -1.58625,-2.6593 -2.56599,-4.15225 -0.93309,-1.49294 -1.95949,-3.1725 -2.19277,-3.73236 -0.83978,-1.95949 -8.86435,-13.71642 -11.05711,-16.28242 -0.69982,-0.79313 -2.37938,-2.51934 -3.68571,-3.82567 -1.72622,-1.67956 -2.47269,-2.79927 -2.47269,-3.63905 0,-0.65316 0.18662,-1.25967 0.46655,-1.35298 0.32658,-0.0933 11.75693,-0.0467 18.56849,0.0933 z m 47.82087,0.79312 c 0.83978,0.46655 1.86618,1.11971 2.28607,1.49295 0.55985,0.41989 1.39963,0.55985 2.51934,0.37323 1.49295,-0.23327 1.86618,-0.0466 3.73236,1.63291 3.68571,3.40578 5.36527,8.67774 3.63905,11.3837 l -0.79312,1.16636 -10.07738,-0.32658 c -11.85024,-0.32658 -11.94355,-0.27992 -11.8969,3.40578 0.0467,2.93924 1.58626,5.45858 4.47884,7.2781 4.15225,2.61266 9.28424,0.60651 12.78333,-4.94537 1.16636,-1.81953 2.00615,-2.0528 4.1056,-1.25967 1.63291,0.6065 1.63291,2.84592 0,6.06508 -1.67956,3.35913 -3.77902,5.55189 -6.43832,6.81156 -1.91284,0.88643 -2.84593,1.0264 -5.59854,0.83978 -4.47884,-0.32658 -6.6716,-0.97974 -9.14429,-2.84593 -1.86618,-1.39963 -2.33272,-1.58625 -4.01228,-1.30632 -1.86619,0.27993 -2.00615,0.18662 -3.54575,-1.72622 -3.59239,-4.47883 -3.87232,-5.2253 -3.82567,-10.8705 0.0933,-5.59854 0.65317,-7.46472 3.45244,-11.3837 1.44629,-1.95949 1.5396,-2.00614 3.49908,-1.72621 1.81953,0.27992 2.09946,0.18661 3.21917,-1.11971 0.65316,-0.79313 1.21301,-1.63291 1.21301,-1.77287 0,-0.18662 0.55986,-0.69982 1.30633,-1.11971 1.77287,-1.11971 7.13814,-1.11971 9.09763,-0.0467 z m 3.91898,18.98839 c 0.46654,0.18662 0.41989,0.60651 -0.13997,1.77287 -0.97974,2.00614 -3.03254,3.63905 -4.99203,3.96563 -1.30633,0.18662 -1.86618,0 -3.21916,-1.21301 -1.91284,-1.67957 -3.17251,-4.15226 -2.33273,-4.66546 0.55986,-0.32658 9.7508,-0.18661 10.68389,0.13997 z"
     id="path2"
     style="fill:#ffffff;stroke-width:0.466545" />
  <path
     d="m 208.00998,361.49856 c -1.49294,1.35298 -1.91283,2.93924 -1.58625,5.50523 0.5132,3.87233 3.0792,5.59855 5.17865,3.49909 1.5396,-1.5396 2.19276,-7.18479 1.0264,-8.95766 -0.97975,-1.5396 -2.98589,-1.5396 -4.6188,-0.0467 z"
     id="path4"
     style="fill:#ffffff;stroke-width:0.466545" />
  <path
     d="m 284.75664,349.04181 c -1.35298,0.88644 -1.95949,1.58625 -1.95949,2.33273 0,1.02639 0.18662,1.07305 3.21916,1.07305 1.77287,0 3.77902,0.13996 4.52549,0.27993 3.0792,0.6065 3.96563,-2.47269 1.16636,-4.15225 -2.00614,-1.16637 -4.66545,-1.0264 -6.95152,0.46654 z"
     id="path6"
     style="fill:#ffffff;stroke-width:0.466545" />
  <path
     d="m 344.3811,324.45489 c -0.37324,0.18661 -2.09945,1.0264 -3.82567,1.81952 -2.89258,1.35298 -5.97178,4.15225 -5.97178,5.41192 0,0.23328 -0.69981,0.93309 -1.58625,1.49295 -0.83978,0.55985 -2.14611,2.00614 -2.89258,3.26581 -1.21302,2.00615 -1.35298,2.65931 -1.35298,6.20505 0,4.43218 1.11971,7.74465 3.54574,10.73054 0.74647,0.88643 1.35298,1.77287 1.35298,1.95949 0,0.23327 -0.69981,0.97974 -1.49294,1.72622 l -1.5396,1.35298 -0.13996,6.01843 c -0.23328,8.39781 0.60651,11.57031 3.54574,13.15657 0.60651,0.32658 4.24556,0.65316 8.86435,0.83978 6.53164,0.23327 8.2112,0.13996 10.54392,-0.5132 2.65931,-0.79313 5.97178,-2.566 6.57829,-3.54574 0.13996,-0.23328 0.88643,-0.46655 1.67956,-0.46655 3.68571,0 6.1584,-3.49909 6.95152,-9.8441 0.88644,-7.41807 -0.65316,-12.36344 -4.89872,-15.62926 -1.95949,-1.49294 -2.0528,-1.95949 -0.32658,-2.33272 1.91283,-0.5132 3.21916,-1.49295 3.73236,-2.89258 0.27992,-0.69982 0.55985,-4.24556 0.69982,-7.88461 0.18661,-7.97792 0.37323,-7.74465 -6.1584,-9.89076 -4.05894,-1.35298 -4.89872,-1.44629 -10.49726,-1.39963 -3.35913,0 -6.43832,0.18661 -6.81156,0.41989 z m 13.52981,3.45243 c 1.91283,0.32658 4.05894,0.88644 4.80541,1.21302 l 1.25967,0.60651 v 6.39166 c 0,6.48498 -0.23327,7.46472 -1.91283,7.46472 -0.5132,0 -0.83978,-0.5132 -1.0264,-1.6329 -0.60651,-3.77902 -5.22531,-7.83796 -9.51752,-8.39782 -4.1056,-0.51319 -6.06509,0.0467 -7.65134,2.19277 -0.83978,1.21301 -1.35298,2.47269 -1.35298,3.45243 0,1.39963 0.23327,1.67956 2.09945,2.566 1.16636,0.55985 2.23942,1.16636 2.37938,1.39963 0.13996,0.23328 0.65316,0.41989 1.11971,0.41989 0.5132,0 1.95949,0.60651 3.26581,1.39964 1.30633,0.74647 2.51935,1.39963 2.70597,1.39963 0.5132,0 3.26581,1.49295 5.83181,3.12586 2.33272,1.53959 3.45243,2.75261 4.7121,5.13199 1.07306,2.09945 1.0264,10.17068 -0.0466,13.24988 -0.83978,2.37938 -1.49294,2.79927 -2.47269,1.58625 -0.97974,-1.16636 -2.47269,-0.65316 -3.45243,1.16637 -1.07306,2.00614 -3.17251,3.45243 -6.1584,4.1989 -2.98589,0.74647 -16.84227,0.0467 -17.40213,-0.88643 -0.46654,-0.74648 -1.16636,-15.25603 -0.74647,-15.90919 0.5132,-0.83978 2.0528,-0.5132 2.75262,0.55985 0.32658,0.60651 0.88643,2.47269 1.21301,4.24556 0.5132,2.84593 0.74648,3.31247 2.79927,5.132 4.01229,3.63905 7.65134,3.77901 11.52367,0.5132 1.67956,-1.44629 1.77287,-1.63291 1.77287,-4.38552 0,-2.79927 -0.0467,-2.98589 -1.81953,-4.47884 -0.97974,-0.83978 -2.79927,-2.00614 -3.96563,-2.51934 -1.16636,-0.55985 -2.75262,-1.30633 -3.45243,-1.63291 -0.74648,-0.37323 -1.63291,-0.69982 -1.95949,-0.69982 -0.37324,0 -1.44629,-0.32658 -2.42604,-0.74647 -5.59854,-2.42603 -6.67159,-3.45243 -7.7913,-7.37141 -0.93309,-3.17251 -0.93309,-6.20505 -0.0466,-8.39781 0.65316,-1.5396 0.88643,-1.67956 2.56599,-1.67956 1.72622,0 1.86618,-0.0933 1.86618,-1.30633 0,-1.91283 2.23942,-4.89872 4.66545,-6.20505 3.21916,-1.72621 10.03072,-2.23941 15.86254,-1.16636 z m -4.19891,9.79745 c 2.14611,1.44629 4.19891,5.13199 3.35912,5.97177 -0.5132,0.5132 -0.97974,0.37324 -2.56599,-0.46654 -1.07306,-0.60651 -3.17251,-1.77287 -4.6188,-2.566 -2.42603,-1.35298 -3.49909,-2.70596 -2.89258,-3.68571 0.13996,-0.18661 1.35298,-0.37323 2.65931,-0.37323 1.81952,0 2.84592,0.27992 4.05894,1.11971 z m -8.91101,21.13449 c 3.82567,1.91283 6.57828,4.33887 6.57828,5.69185 0,1.25967 -2.61265,3.31247 -4.1989,3.31247 -2.00614,0 -5.59854,-3.77902 -5.59854,-5.92513 0,-0.46654 -0.32658,-1.44629 -0.69982,-2.19276 -0.69982,-1.35298 -0.65316,-2.61265 0.0933,-2.61265 0.18662,0 1.95949,0.79313 3.82567,1.72622 z"
     id="path8"
     style="fill:#ffffff;stroke-width:0.466545" />
  <path
     d="m 381.37812,331.45306 c -2.566,1.44629 -4.05894,3.21916 -4.61879,5.31862 -0.18662,0.79312 -1.25968,2.00614 -2.70597,3.07919 -2.98588,2.23942 -5.41192,5.55189 -5.41192,7.27811 0,0.69981 0.55986,2.00614 1.25967,2.93923 l 1.30633,1.67956 0.0933,10.17068 c 0.13996,10.96381 0.23327,11.57032 2.79927,13.90305 2.14611,2.05279 4.15225,2.79927 7.04483,2.75261 1.44629,-0.0466 3.91898,0.0933 5.45858,0.23327 5.03868,0.60651 9.98406,-1.86618 12.87664,-6.39166 l 1.49294,-2.33273 1.21302,1.58626 c 2.61265,3.35912 4.71211,4.61879 7.97792,4.80541 0.37324,0 1.5396,0.46654 2.61265,1.0264 2.33273,1.25967 7.41807,1.95949 10.45061,1.49294 1.25967,-0.18662 3.17251,-0.88643 4.29222,-1.49294 1.11971,-0.65316 2.98589,-1.30633 4.15225,-1.44629 1.77287,-0.27993 2.566,-0.74647 4.29221,-2.47269 7.97792,-8.07123 8.02458,-20.94787 0.0933,-29.90554 -1.91283,-2.14611 -2.70596,-2.51934 -4.24556,-1.95949 -1.11971,0.41989 -1.44629,0.32658 -2.70596,-0.88643 -2.33273,-2.19276 -4.1056,-2.84593 -7.65134,-2.84593 -3.21916,0 -7.18479,0.97975 -8.49112,2.14611 -0.37323,0.32658 -1.63291,0.79313 -2.70596,1.07305 -5.2253,1.16637 -9.98406,6.85822 -11.47701,13.80974 -0.41989,1.77287 -0.69982,3.59239 -0.65316,3.96563 0.18662,2.00614 -0.18662,2.70596 -1.58625,3.31247 -0.83979,0.32658 -2.42604,1.44629 -3.49909,2.42603 -1.35298,1.21302 -2.28607,1.72622 -3.03255,1.63291 -1.07305,-0.13996 -1.07305,-0.18662 -0.97974,-6.39167 0.0467,-7.04483 0.13996,-7.18479 3.45243,-7.74464 2.28607,-0.37324 6.01843,-3.68571 7.37142,-6.43833 0.55985,-1.1197 0.97974,-2.89257 0.97974,-3.91897 0,-1.58626 -0.27993,-2.14611 -1.44629,-3.12586 -1.81953,-1.53959 -3.63905,-1.53959 -6.43832,0.0467 -3.12585,1.72622 -3.77902,1.35298 -3.77902,-2.33273 0,-2.70596 -0.13996,-3.07919 -1.58625,-4.66545 -1.91283,-2.09945 -2.98589,-2.1461 -6.20505,-0.32658 z m 4.47883,4.29222 c 0.27993,0.79312 0.37324,2.51934 0.23328,3.87232 -0.27993,2.19276 -0.18662,2.51934 0.79312,3.21916 1.95949,1.35298 4.99204,0.74647 8.39781,-1.67956 0.97975,-0.69982 2.28607,-0.18662 2.28607,0.93309 0,0.5132 -0.41989,1.86618 -0.93309,3.03254 -1.30632,2.93924 -3.45243,4.19891 -7.23144,4.24556 -4.57215,0.0933 -4.47884,-0.18662 -4.33887,10.49727 l 0.13996,9.14428 1.86618,0.60651 c 2.61265,0.83978 5.92512,-0.23328 8.16454,-2.70596 1.35298,-1.49295 1.81953,-1.72622 2.70596,-1.39964 2.19276,0.88644 0.65316,4.38552 -3.5924,8.16454 -2.28607,2.0528 -2.6593,2.19276 -5.55188,2.23942 -1.86618,0.0466 -3.12585,-0.18662 -4.19891,-0.83979 -1.49294,-0.88643 -1.58625,-0.88643 -2.93923,-0.0933 -2.00615,1.1197 -2.42604,1.02639 -4.57214,-1.11971 l -1.91284,-1.91284 -0.0933,-6.62494 c -0.0466,-3.59239 -0.13996,-8.49112 -0.13996,-10.8705 -0.0466,-4.10559 -0.13996,-4.33887 -1.30633,-5.27196 -1.91283,-1.53959 -1.67956,-3.31247 0.69982,-5.64519 1.72622,-1.67956 2.14611,-1.86618 3.54574,-1.58625 2.0528,0.37323 2.89258,-0.37324 2.89258,-2.65931 0,-1.49295 0.32658,-2.19276 1.67957,-3.63905 1.91283,-2.00615 2.70596,-2.00615 3.40577,0.0933 z m 38.67659,5.92512 c 1.86618,0.93309 3.21916,2.23941 4.01229,3.87232 0.74647,1.49295 2.00614,1.58626 3.35912,0.32658 1.11971,-1.07305 1.16636,-1.07305 2.0528,-0.13996 0.46654,0.46655 1.67956,2.47269 2.65931,4.38552 1.72621,3.45244 1.72621,3.5924 1.77287,8.86436 0,4.7121 -0.13997,5.59854 -1.07306,7.23145 -2.1461,3.77901 -3.63905,5.59854 -4.57214,5.45858 -2.33272,-0.32659 -3.0792,-0.0933 -5.13199,1.72621 -2.566,2.23942 -4.85207,2.98589 -8.2112,2.61265 -3.31247,-0.37323 -5.64519,-1.44629 -6.85821,-3.07919 -1.07305,-1.49295 -3.03254,-1.81953 -3.49909,-0.65317 -0.46654,1.30633 -1.6329,0.69982 -3.49908,-1.72621 -2.566,-3.45244 -3.68571,-6.48498 -3.73237,-10.40396 -0.0933,-7.46472 4.19891,-15.16271 8.49112,-15.16271 0.60651,0 1.95949,-0.60651 2.93924,-1.30633 3.96563,-2.84592 8.21119,-3.59239 11.29039,-2.00614 z"
     id="path10"
     style="fill:#ffffff;stroke-width:0.466545" />
  <path
     d="m 418.60842,347.64218 c -1.58626,0.32658 -3.77902,2.42603 -4.75876,4.57214 -1.21302,2.61265 -1.16637,7.7913 0.0467,11.80359 1.16636,3.6857 1.58625,4.33887 3.5924,5.36526 1.81952,0.97975 2.84592,0.97975 4.85207,0.13997 3.63905,-1.5396 4.7121,-4.01229 4.66545,-11.01047 0,-5.83181 -0.27993,-6.90486 -2.51935,-9.47086 -1.16636,-1.35298 -3.45243,-1.91283 -5.87846,-1.39963 z m 3.82567,4.43217 c 0.37323,0.83978 0.83978,3.26582 1.0264,5.36527 0.37323,4.43218 -0.27993,8.02458 -1.67957,9.28425 -0.83978,0.79312 -0.93309,0.74647 -2.0528,-0.27993 -2.61265,-2.42603 -3.59239,-11.10377 -1.58625,-14.27628 1.35298,-2.19276 3.26582,-2.23941 4.29222,-0.0933 z"
     id="path12"
     style="fill:#ffffff;stroke-width:0.466545" />
  <path
     d="m 471.51463,339.1044 c -1.49295,0.79313 -2.51935,1.0264 -2.98589,0.79313 -0.41989,-0.23328 -6.11174,-0.55986 -12.69003,-0.74647 -10.8705,-0.32659 -12.08352,-0.27993 -13.66977,0.46654 -3.91898,1.86618 -4.01229,4.75876 -0.27993,8.21119 l 2.33273,2.14611 v 7.88461 c 0,4.33887 -0.18662,8.67774 -0.41989,9.65748 -0.23327,1.0264 -1.21302,2.65931 -2.33273,3.82567 -2.47268,2.65931 -2.61265,4.71211 -0.46654,6.48498 l 1.44629,1.21302 h 10.8705 c 6.01843,0 11.43035,-0.18662 12.08352,-0.46655 0.65316,-0.23327 1.72621,-1.30632 2.42603,-2.33272 1.16636,-1.72622 1.21302,-2.00615 0.60651,-3.12586 -0.37324,-0.69981 -1.63291,-2.00614 -2.84593,-2.89257 -2.6593,-2.0528 -3.07919,-3.21917 -3.26581,-8.91101 -0.13997,-4.19891 -0.0933,-4.43218 0.79312,-4.29222 4.94538,0.69982 4.71211,0.74647 7.46473,-1.07305 2.23941,-1.5396 4.66545,-4.38553 5.55188,-6.53163 0.37324,-1.0264 2.00614,0.74647 4.80542,5.17865 1.6329,2.51934 3.1725,5.03868 3.40577,5.55188 0.27993,0.5132 0.74648,1.35298 1.07306,1.86618 2.37938,3.91898 2.93923,4.80542 3.49909,5.59854 0.27992,0.5132 0.69981,1.25967 0.88643,1.63291 0.13996,0.37324 0.88644,1.44629 1.63291,2.37938 0.69982,0.93309 1.30632,2.14611 1.30632,2.65931 0,1.0264 -3.1725,8.77104 -5.97177,14.5562 -0.83978,1.67957 -1.25967,3.31247 -1.25967,4.80542 0,1.86618 0.18661,2.37938 1.39963,3.35912 0.79313,0.60651 2.00615,1.11971 2.79927,1.16636 2.28607,0 10.54392,-1.35298 13.06326,-2.1461 3.0792,-1.0264 3.96564,-1.86618 3.96564,-3.77902 0,-1.63291 -1.58626,-5.27196 -2.28607,-5.27196 -0.23328,0 -0.93309,-0.41989 -1.63291,-0.97974 -0.93309,-0.69982 -1.11971,-1.11971 -0.74647,-1.58625 0.6065,-0.69982 6.06508,-11.75694 6.06508,-12.22349 0,-0.55985 2.19276,-5.17865 6.43832,-13.66977 3.54575,-7.09148 5.59854,-10.26399 6.62494,-10.26399 0.79313,0 2.79927,-3.49908 2.79927,-4.80541 0,-0.83978 -0.5132,-1.81953 -1.39963,-2.70596 l -1.35298,-1.39964 h -6.6716 c -3.6857,0 -7.46472,-0.0466 -8.39781,-0.0933 -1.95949,-0.0466 -3.6857,1.21302 -4.57214,3.40578 -0.46654,1.07306 -0.41989,1.63291 0.23327,3.03255 0.46655,0.88643 1.25968,1.86618 1.72622,2.1461 0.83978,0.46655 0.88644,0.79313 0.65316,2.79927 -0.41989,2.93924 -1.21301,4.71211 -2.00614,4.52549 -0.37324,-0.0933 -1.39964,-1.5396 -2.33273,-3.26581 -1.6329,-3.12586 -1.6329,-3.17251 -0.88643,-4.75876 0.41989,-0.88644 0.74647,-2.37938 0.74647,-3.31247 0,-1.95949 -1.25967,-4.38553 -2.33272,-4.52549 -0.37324,0 -4.89873,0 -10.03072,0.0933 -7.74465,0.0933 -9.65749,0 -11.15043,-0.65317 -2.23942,-0.93309 -2.0528,-0.97974 -4.7121,0.37324 z m 24.4003,3.63905 c 0.27993,0.27993 0.55986,1.07306 0.55986,1.81953 0,1.0264 -0.32659,1.49294 -1.16637,1.91283 -1.44629,0.65317 -1.44629,1.5396 0,4.15225 0.60651,1.11971 1.35298,2.47269 1.63291,2.98589 0.27993,0.5132 0.88644,1.5396 1.39964,2.33273 0.5132,0.74647 1.44629,2.47269 2.09945,3.82567 0.65316,1.30632 1.58625,2.47269 2.00614,2.56599 1.25967,0.27993 2.93924,-1.02639 2.65931,-2.00614 -0.32658,-0.93309 0.0466,-2.23942 1.81952,-7.18479 1.67957,-4.66545 1.63291,-5.97178 -0.46654,-7.1848 -1.35298,-0.79312 -1.63291,-1.21301 -1.49294,-2.28607 l 0.13996,-1.25967 7.13814,-0.0466 c 6.34501,0 7.18479,0.0933 7.60468,0.79312 0.60651,1.21302 0.65317,1.16637 -2.0528,3.87233 -2.05279,2.00614 -3.26581,4.01228 -6.71824,11.05711 -2.33273,4.71211 -4.71211,9.61083 -5.27196,10.91716 -2.37938,5.36527 -3.45244,7.69799 -5.6452,12.17682 -1.25967,2.566 -2.28607,5.132 -2.28607,5.6452 0,0.97974 0.83978,1.5396 2.28607,1.5396 1.21302,0 2.47269,1.58625 2.28607,2.84592 -0.13996,0.93309 -0.55985,1.16637 -3.40578,1.67956 -9.00432,1.63291 -9.09763,1.63291 -9.8441,1.0264 -0.83978,-0.69981 -0.65316,-1.39963 1.67956,-6.2517 0.97975,-2.0528 2.47269,-5.41192 3.31247,-7.46472 0.83979,-2.0528 1.77288,-4.05894 2.14611,-4.47883 0.93309,-1.11971 0.74647,-2.00615 -1.16636,-4.94538 -1.0264,-1.49294 -2.09945,-3.26582 -2.47269,-4.01229 -2.93923,-5.7385 -12.87664,-20.76125 -13.9497,-21.08783 -0.5132,-0.13997 -1.6329,-0.13997 -2.56599,0.0466 -1.39964,0.23327 -2.14611,0.88644 -4.43218,3.91898 -3.54574,4.66545 -5.22531,5.13199 -9.8441,2.70596 -1.11971,-0.55985 -2.14611,-0.79313 -2.93924,-0.55985 -1.35298,0.32658 -1.44629,0.83978 -0.55985,2.47268 0.41989,0.79313 0.55985,2.61266 0.37324,6.76491 -0.23328,6.95152 0.18661,8.3045 3.63905,10.8705 1.86618,1.39963 2.33272,2.00614 2.23941,2.93923 l -0.13996,1.16636 h -10.17068 c -9.09763,0 -10.26399,-0.0933 -10.63723,-0.79312 -0.60651,-1.07306 0.23327,-2.93924 1.67956,-3.91898 0.65317,-0.41989 1.39964,-1.21302 1.67956,-1.67956 0.27993,-0.55986 0.5132,-5.03869 0.5132,-11.24374 v -10.3573 l -2.05279,-0.97974 c -2.14611,-1.07306 -3.49909,-2.89258 -3.03255,-4.1056 0.41989,-1.07305 15.02275,-1.11971 15.44264,-0.0466 0.32659,0.93309 2.19277,0.88643 3.91898,-0.0933 1.35298,-0.79313 1.49295,-0.79313 3.12585,0 2.23942,1.07305 6.39167,1.07305 7.37142,-0.0467 0.65316,-0.69982 1.72621,-0.79312 11.85024,-0.65316 6.67159,0.0933 11.33705,0.37324 11.71028,0.65316 z"
     id="path14"
     style="fill:#ffffff;stroke-width:0.466545" />
</svg>
