<?xml version="1.0" encoding="UTF-8" standalone="no"?>
<svg
   viewBox="25.4439 25.0234 379.99999 148.45398"
   width="380"
   height="148.45398"
   version="1.1"
   id="svg2"
   xmlns="http://www.w3.org/2000/svg"
   xmlns:svg="http://www.w3.org/2000/svg">
  <defs
     id="defs2" />
  <path
     d="m 124.51263,141.42 c -4.97544,5.59338 -9.32684,5.45757 -9.5084,5.45042 l -0.0186,0.007 c -0.0154,0 -0.0368,-0.007 -0.0368,-0.007 l -6.03442,-0.13438 c 1.36314,-1.01825 2.78919,-2.30884 4.23274,-3.92109 0.039,-0.0611 0.0947,-0.13296 0.15119,-0.19264 10.7879,-15.68722 7.20706,-26.24853 4.11301,-31.15677 -0.14797,-0.2316 -0.31058,-0.45426 -0.48678,-0.6662 l 2.28739,0.74733 c 4.74562,1.26915 8.49301,4.56871 10.08274,8.86293 1.54471,4.10372 1.94929,11.10921 -4.78207,21.0104 m -24.31425,25.89255 c -1.93678,0.29593 -4.298511,0.61187 -6.611992,0.8667 4.728108,-5.39073 6.688832,-13.50525 7.229582,-17.65258 l 11.85441,0.29593 c -0.6226,4.52654 -3.06761,15.06176 -12.472,16.48995 m -18.560035,2.15836 c -4.7156,-0.36669 -17.157576,-1.6101 -24.571224,-2.3821 l -5.542992,-0.54075 c -2.636218,-0.23374 -5.193449,-2.98505 -6.969751,-5.51976 7.302853,0.53932 24.410034,1.51539 27.780362,1.47679 4.646262,-0.14439 9.993396,-2.43285 11.196421,-6.63128 0.796655,-2.71771 0.844547,-3.07476 0.977144,-4.64591 0.08828,-0.84669 0.181562,-2.15837 0.542184,-4.84748 0.899945,-6.55159 4.265269,-7.83217 4.847838,-8.00372 1.244484,-0.0736 6.401478,-0.66514 10.848313,-5.21561 0.0493,-0.0733 0.0883,-0.14297 0.15904,-0.20372 4.15305,-5.39074 2.34887,-13.81334 2.30097,-14.17897 -0.0204,-0.0611 -0.71731,-4.49293 -4.347469,-6.94723 -2.283459,-1.57902 -5.095163,-2.00898 -8.369706,-1.34635 -1.137262,0.23482 -2.187317,0.63261 -3.107992,1.08902 2.460017,-3.10299 5.836778,-5.03012 9.818268,-5.60947 2.354225,-0.31452 4.748839,-0.14082 7.030509,0.50966 0.16655,0.0797 0.31166,0.1619 0.49179,0.21158 l 2.07938,0.70587 c 2.91106,1.3031 5.46829,3.46254 7.17526,6.15916 2.58475,4.08407 5.46722,12.94699 -3.96398,26.74032 -5.26779,5.9465 -9.94443,6.21991 -10.751448,6.24243 l -0.185136,-0.0225 c -0.116157,0 -0.187995,0.0336 -0.298791,0.0336 -0.01644,0 -0.03145,0 -0.04932,0.02 -0.792367,0.12438 -1.438912,0.69265 -1.6555,1.45464 0,0 0,0.0211 -0.01501,0.0311 0,0.0808 -0.02037,0.15548 -0.02037,0.22624 -0.01894,0.0683 -0.01894,0.10937 -0.01894,0.16155 -0.123305,2.40426 -1.853144,13.23148 -7.752825,18.416 -1.287373,1.15978 -2.670529,1.90318 -4.214875,2.30097 -0.326669,0.03 -0.488215,0.03 -0.529674,0.0586 -0.209797,0.0247 -0.413875,0.084 -0.604015,0.17513 -0.755553,0.0915 -1.517898,0.11902 -2.278455,0.0822 M 33.773976,137.9764 c -4.347472,-0.71981 -4.297078,-6.03585 -4.297078,-6.23385 0,0.04 2.460018,-49.702862 2.460018,-49.702862 0,-0.247324 0.171554,-4.749195 4.507589,-6.155225 0.213013,-0.06826 0.416019,-0.15154 0.596509,-0.327026 3.694136,-2.813133 4.426816,-5.6713 5.268862,-12.026672 0.317733,-4.290645 3.244163,-6.268523 3.36032,-6.329282 14.348374,-7.789995 41.97255,-22.739882 42.958272,-23.240963 1.033972,-0.512161 2.621565,-0.967138 3.691992,-0.478565 0.644401,0.305581 1.137262,1.020748 1.443558,2.086172 0.264837,5.552283 1.442486,21.299897 1.55078,23.013296 -0.03646,0.783074 -0.642972,7.748894 -7.083407,9.359003 -1.942852,0.510731 -3.487556,0.405297 -4.517597,-0.327026 -1.603675,-1.08651 -1.832057,-3.34924 -1.832057,-3.36032 -0.01394,-0.09078 -0.01394,-0.142962 -0.04289,-0.211584 l -0.83454,-4.229171 c -0.293787,-1.489663 -1.13619,-2.699121 -2.405692,-3.456462 -2.814206,-1.69803 -6.906848,-0.640112 -7.379695,-0.527172 -0.12116,0.03824 -0.238032,0.08935 -0.348112,0.151897 -0.131168,0.05218 -11.875848,5.921483 -16.585371,8.181711 -5.614472,2.676605 -5.110174,10.634581 -5.08873,10.967682 l -0.308798,55.634349 c 0,0.52324 0.07041,4.94184 2.73236,7.53874 1.206599,1.15263 2.821711,1.76165 4.604447,1.71197 5.445777,-0.12295 17.104679,-0.93962 17.587533,-0.95713 0.145107,-0.0225 0.250899,-0.03 0.374561,-0.0511 0.350614,-0.11294 8.736403,-2.35351 9.344349,-9.34292 0.34418,-3.75561 0.829536,-7.66419 0.844547,-7.69671 0.02144,-0.15404 1.34277,-6.40863 6.913282,-7.58127 2.168732,-0.42746 3.917514,-0.21373 5.212392,0.69372 2.206617,1.50575 2.706984,4.41359 2.706984,4.43361 0.03038,0.20264 1.482876,7.03658 -1.452494,10.96768 -3.769906,3.78063 -7.987282,3.9025 -8.162768,3.9025 -0.113298,0 -0.226952,0.0286 -0.32774,0.0497 -0.286282,0.0583 -6.860386,1.29166 -8.2246,11.41908 -0.359192,2.78955 -0.485356,4.15734 -0.558624,5.05371 -0.110795,1.30274 -0.110795,1.38351 -0.850981,3.87999 -0.59901,2.13585 -4.309587,3.65374 -7.411146,3.70485 -3.53938,0.0808 -24.696316,-1.1512 -29.766103,-1.61761 -1.979665,-0.19622 -2.770245,-4.84855 -2.770245,-7.40829 0.241963,-1.1587 0.945693,-5.44542 -1.172645,-8.5434 -1.066496,-1.57759 -2.711988,-2.58583 -4.737044,-2.94502 M 103.39822,29.897542 c 1.67587,0.773424 4.58443,2.870675 5.47723,7.77141 0.3692,7.692067 1.5976,22.569757 1.61511,22.693777 0.025,0.560768 0.60652,14.63537 -15.840178,19.996084 -2.238069,0.741258 -4.259193,0.773425 -6.09125,0.140461 -0.480352,-0.233743 -0.770208,-0.366698 -0.770208,-0.366698 -0.114727,-0.05969 -0.204435,-0.08185 -0.332744,-0.121875 -0.05182,-0.01966 -0.111153,-0.05075 -0.16655,-0.07327 -3.995786,-2.208047 -6.081243,-7.382196 -6.899343,-9.878669 0.302722,0.285209 0.624744,0.550046 0.963206,0.793081 2.081526,1.458569 4.729538,1.785595 7.890426,0.949982 7.725305,-1.976806 9.994826,-9.485881 10.122062,-13.191812 v -0.171554 c -0.01644,-0.204078 -1.314892,-17.865237 -1.579729,-23.298148 0,-0.149038 -0.01394,-0.283422 -0.05039,-0.394217 -0.591505,-2.15944 -1.581159,-3.413931 -2.586182,-4.188428 l 1.783093,-0.94462 c 1.735915,-0.879216 4.285637,-0.8181 6.465447,0.284494 m 20.08151,20.50074 c 0.3356,6.82536 1.38208,19.82596 1.38208,19.946406 0.039,0.477493 0.52825,12.824042 -13.92878,17.61148 -2.14586,0.713737 -7.17919,-0.328098 -8.38722,-0.977145 -0.035,-0.02109 -3.065098,-1.407103 -6.342143,-2.945016 19.167613,-6.437575 18.324143,-23.780644 18.324143,-23.935758 -0.015,-0.20658 -1.17515,-14.261167 -1.58116,-22.012563 l 6.02549,5.568367 c 1.99861,1.67337 3.92144,3.478264 4.50759,6.744229 m -57.52502,76.61008 -0.187995,-49.032724 11.393351,4.56263 1.32633,43.174864 z M 79.219071,79.062149 69.03768,74.998099 76.71974,71.844001 c 0.640826,1.810255 1.766652,4.466845 3.527943,6.903632 z m -5.904685,56.034641 c -1.606534,0.10972 -12.226461,0.80202 -17.185453,0.9364 -0.713737,0.0286 -1.243054,-0.16548 -1.686951,-0.59186 -1.249487,-1.17979 -1.526833,-3.80922 -1.526833,-4.63483 l 0.292357,-55.785885 c 0,-0.223735 -0.249469,-5.787456 2.850661,-7.272831 4.384285,-2.077594 14.845524,-7.313932 16.405239,-8.109515 0.996087,-0.233743 3.047233,-0.477493 4.020804,0.121518 0.220519,0.131882 0.438535,0.338462 0.550761,0.835612 l 0.825962,4.126239 c 0.01501,0.368127 0.186565,1.345272 0.664416,2.496472 -0.423525,-0.114369 -0.89387,-0.114369 -1.293448,0.08328 l -14.289402,5.844283 c -0.143677,0.08971 -0.31273,0.185493 -0.462482,0.292358 -0.03431,0.02216 -0.06433,0.05039 -0.08828,0.08328 -0.126164,0.11294 -0.234815,0.222306 -0.349542,0.376705 v 0.01108 c -0.07934,0.10186 -0.134742,0.222663 -0.210512,0.335603 -0.01394,0.06969 -0.01394,0.113298 -0.03252,0.121875 -0.01644,0.04217 -0.01644,0.0847 -0.03681,0.131883 -0.03538,0.155471 -0.05039,0.327025 -0.05039,0.499652 0,0.02252 -0.01894,0.02252 -0.01894,0.02252 v 0.02109 l 0.233386,54.173641 c 0,0.57185 0.246966,1.09258 0.68443,1.4893 0.417449,0.35812 0.969639,0.54933 1.559715,0.50216 l 15.282987,-1.58116 c -0.547187,3.60514 -5.22776,5.19523 -6.139143,5.47115 m 59.751652,-16.09572 c -2.05651,-5.47795 -6.77568,-9.69747 -12.70431,-11.27756 0.10722,0.0325 -8.31395,-2.79097 -12.31081,-4.1223 -3.53045,-1.51933 -7.50229,-2.13121 -11.419799,-1.56043 -6.382177,0.8667 -11.484846,4.56406 -14.521,10.27896 L 81.224827,82.619042 83.233442,81.96642 c 0.641899,0.53718 1.328832,1.004665 2.054006,1.433551 0.53575,0.317018 1.104381,0.544328 1.678016,0.775569 l 13.764736,6.387896 c 1.94321,1.039333 8.12631,2.269878 11.46876,1.130114 17.49068,-5.72634 16.71118,-21.46073 16.69616,-21.614771 0,-0.184064 -1.08293,-13.322622 -1.37922,-20.074357 -0.009,-0.06362 -0.009,-0.175486 -0.029,-0.237674 -0.79201,-4.389646 -3.2581,-6.954383 -5.81641,-9.085231 0.0479,0.09328 -13.52884,-12.517031 -13.52884,-12.517031 -0.11223,-0.07184 -0.21695,-0.120446 -0.36312,-0.196215 -0.78915,-0.64869 -1.65193,-1.204812 -2.57117,-1.657287 -3.36497,-1.641203 -7.247102,-1.710896 -10.17246,-0.223735 0,0 -47.110245,25.360374 -51.436273,27.705307 -0.296288,0.174056 -4.849268,3.097985 -5.28423,9.350067 -0.834897,5.887887 -1.383156,7.406143 -3.544383,9.096668 -6.663456,2.475386 -6.879328,9.360432 -6.879328,9.697465 0,-0.0822 -2.44322,49.656754 -2.44322,49.656754 -0.08721,3.12407 1.372792,9.26715 7.650608,10.33364 0.934256,0.15548 1.600101,0.52468 2.057937,1.20339 1.130829,1.65978 0.770207,4.65591 0.533248,5.65914 -0.01644,0.13939 -0.04039,0.28736 -0.04039,0.40423 -0.01894,0.90745 0,7.42187 3.324937,10.32614 0.567202,1.20481 5.28423,10.37618 12.163201,11.00771 l 5.531554,0.54326 c 7.431519,0.75341 19.886005,2.01755 24.664864,2.36566 1.569722,0.10936 3.063674,0 4.475781,-0.34811 2.514343,-0.26591 10.09061,-1.12118 14.986704,-1.83242 12.57421,-1.8971 15.3634,-15.64468 15.97242,-20.55435 2.36137,-0.44997 6.5666,-1.8896 10.84581,-6.76317 0.0908,-0.0844 0.12473,-0.15511 0.16262,-0.20622 7.80858,-11.3258 7.19455,-19.68908 5.28923,-24.73134"
     style="fill:#ffffff;stroke-width:0.357405"
     id="path1" />
  <path
     d="m 372.01439,100.1283 h 24.84321 v -5.251703 c 0,-1.582588 0.0944,-2.886401 -1.07007,-3.973627 l -3.29599,-2.860668 c -1.0765,-1.010026 -2.75773,-1.12368 -4.12588,-1.12368 h -7.28462 c -1.5783,0 -2.91643,0 -4.33818,1.014314 l -2.98505,2.180885 c -1.03576,0.789149 -1.74342,1.436767 -1.74342,3.915727 z m 7.10878,26.47512 c -3.54688,0 -4.98794,0 -7.67705,-2.33314 l -3.66054,-3.21664 c -3.39249,-3.02364 -4.3875,-5.00938 -4.3875,-9.64564 V 94.822987 c 0,-4.552623 0.61545,-7.271759 4.17949,-10.282537 l 3.05367,-2.579748 c 4.0594,-3.501853 6.0237,-3.581196 9.52769,-3.581196 h 7.82931 c 4.22238,0 6.21456,0.418163 9.4891,3.124433 l 3.49113,2.781324 c 3.96934,3.102988 4.47542,6.43972 4.47542,11.17033 v 6.922217 c 0,4.87214 -0.79558,6.34108 -5.91004,6.34108 h -27.51946 v 2.86495 c 0,0.81274 0.58329,1.84207 1.24163,2.49612 l 2.15729,2.31598 c 1.173,1.24377 2.84352,1.63406 5.66773,1.63406 h 18.45281 c 2.90784,0 5.91004,0.61974 5.91004,4.25025 0,3.79135 -3.37533,4.32317 -5.91004,4.32317 z M 330.69768,89.071628 V 84.73738 c 0,-3.053667 0.53611,-6.358232 4.37249,-6.358232 3.06653,0 4.21166,2.403905 4.21166,5.176652 v 6.077311 c 0,1.42819 -0.36026,2.163729 -0.9993,3.501853 l -12.79581,28.111316 c -0.81703,1.77559 -2.3117,5.35679 -4.49044,5.35679 h -5.53262 c -2.14872,0 -3.6777,-3.5812 -4.46256,-5.35679 L 298.20958,93.134964 c -0.66692,-1.338124 -0.98,-2.073663 -0.98,-3.501853 V 83.5558 c 0,-2.772747 1.16871,-5.176652 4.15161,-5.176652 3.8707,0 4.39823,3.304565 4.39823,6.358232 v 4.333891 l 12.45698,28.568079 z m -85.98016,15.941332 c -2.30955,0 -5.75779,0.6326 -5.75779,3.77669 v 5.72563 c 0,2.91642 3.50399,3.51472 5.5991,3.51472 h 9.45693 l 9.48481,-4.98795 V 111.215 c 0,-4.76278 -1.34241,-6.20169 -6.07088,-6.20169 z m 0.0943,-18.094338 c -2.49826,0 -5.89718,-0.518952 -5.89718,-4.222381 0,-3.705573 3.01293,-4.316735 5.89718,-4.316735 h 11.79007 c 4.49473,0 7.70922,0.418163 11.11887,3.827805 3.31314,3.300276 3.73988,5.888602 3.8664,10.207482 l 0.87493,29.187817 c 0.0836,2.5047 -1.15799,5.00081 -4.00365,5.00081 -2.23878,0 -4.49901,-1.90211 -4.43468,-4.32317 l -5.86501,3.05796 c -2.44251,1.26521 -2.52614,1.26521 -5.30103,1.26521 h -8.2389 c -3.83638,0 -6.6177,-0.45676 -9.73785,-3.03651 -3.58763,-2.95288 -4.46899,-6.07731 -4.46899,-10.57203 v -3.74846 c 0,-4.12589 1.0036,-6.71421 4.18593,-9.579169 3.00005,-2.611914 6.27031,-3.231654 10.02091,-3.231654 h 18.44209 v -1.960008 c 0,-6.433287 -1.42819,-7.556967 -7.61486,-7.556967 z m -80.39678,11.416939 c 0,-5.288162 0.96499,-7.870054 5.08873,-11.303285 l 6.33035,-5.281728 c 4.06155,-3.291699 6.12878,-3.371042 11.11887,-3.371042 h 13.61498 c 2.85852,0 5.92505,0.611162 5.92505,4.316735 0,3.703429 -3.4075,4.222381 -5.92505,4.222381 h -15.13538 c -1.69839,0 -3.39892,0.926393 -4.94077,2.153006 l -5.17879,4.451835 c -1.34671,1.055059 -2.31813,1.93213 -2.31813,3.632662 v 10.649235 c 0,1.68338 0.97142,2.61835 2.31813,3.65625 l 5.17879,4.38965 c 1.54185,1.26521 3.24238,2.17874 4.94077,2.17874 h 15.13538 c 2.51755,0 5.92505,0.51037 5.92505,4.25025 0,3.72488 -3.06653,4.32317 -5.92505,4.32317 h -13.61498 c -4.99009,0 -7.05732,-0.0836 -11.11887,-3.37533 l -6.33035,-5.30746 c -4.12374,-3.40535 -5.08873,-5.96795 -5.08873,-11.27112 z"
     style="fill:#ffffff;stroke-width:0.357405"
     id="path2" />
</svg>
