<?xml version="1.0" encoding="UTF-8" standalone="no"?>
<svg
   viewBox="0 0 380.00052 55.135998"
   version="1.1"
   id="svg6"
   width="380.00052"
   height="55.135998"
   xmlns="http://www.w3.org/2000/svg"
   xmlns:svg="http://www.w3.org/2000/svg">
  <defs
     id="defs6" />
  <path
     d="M 70.078657,54.799145 C 38.911039,52.908011 14.327559,45.974274 4.5919529,36.308968 0.1098503,31.896532 -1.0111503,27.974296 0.87998408,23.701827 5.2221199,13.966222 22.872497,6.1217504 49.767012,1.9195813 61.533719,0.09874694 90.249702,-0.60172013 103.13678,0.58894723 122.32742,2.4097816 142.2882,7.4530179 152.0238,12.915521 c 4.48274,2.521301 10.15551,7.004037 10.15551,8.125038 0,0.3496 -4.76267,0.630167 -11.13591,0.630167 -10.08583,0 -11.2765,-0.139967 -12.88707,-1.400934 C 125.33892,10.183953 80.514097,5.9817837 49.697346,11.93512 30.086168,15.717389 19.370161,22.51116 22.03143,29.515197 c 2.171701,5.812737 13.307607,10.855973 30.887684,14.007442 10.155506,1.820834 35.999954,2.521301 47.766026,1.330634 16.17914,-1.680868 30.04662,-5.322537 36.70042,-9.805272 l 3.1521,-2.171068 h 10.85598 c 5.88303,0 10.78567,0.279933 10.78567,0.630167 0,1.400934 -6.5835,6.513837 -11.69641,9.035138 -9.1048,4.552403 -19.47057,7.563905 -33.82888,9.875573 -14.35768,2.311034 -32.638221,3.291435 -46.575363,2.381334 z"
     style="fill:#ffffff;stroke-width:0.633334"
     id="path1" />
  <path
     d="M 167.78241,28.32453 V 3.4604822 h 33.47866 c 49.09729,0 64.436,1.2609674 80.54484,6.6538038 11.34618,3.851936 17.71941,8.194705 20.03108,13.797808 4.90264,11.696407 -9.2454,22.202146 -35.99995,26.754549 -12.11694,2.031101 -23.11288,2.521301 -60.72404,2.521301 h -37.33059 z m 90.77066,14.147408 c 12.25627,-2.241368 20.87151,-6.093303 23.11288,-10.365773 3.64167,-7.073704 -3.50234,-13.446941 -18.42051,-16.739009 -9.94524,-2.171068 -21.29205,-2.801869 -50.0777,-2.801869 h -27.17508 v 15.82891 15.828909 l 33.12842,-0.350234 c 26.68488,-0.210267 34.31908,-0.4902 39.43199,-1.400934 z"
     style="fill:#ffffff;stroke-width:0.633334"
     id="path2" />
  <path
     d="M 363.89103,37.079102 V 20.970259 h 8.05474 8.05473 v 16.108843 16.108842 h -8.05473 -8.05474 z"
     style="fill:#ffffff;stroke-width:0.633334"
     id="path3" />
  <path
     d="m 312.0628,30.075064 c 0,-4.552402 0.20963,-6.30357 0.9101,-6.30357 1.89113,-0.06967 36.91069,5.953337 36.91069,6.30357 0,0.350234 -35.01956,6.373871 -36.91069,6.303571 -0.70047,0 -0.9101,-1.751168 -0.9101,-6.303571 z"
     style="fill:#ffffff;stroke-width:0.633334"
     id="path4" />
  <path
     d="M 74.280827,34.277867 C 69.23759,33.367133 65.245688,31.686265 63.424854,29.724831 62.023919,28.25423 61.883953,27.76403 62.58442,26.293429 c 0.9804,-2.171701 4.762669,-4.132503 10.015539,-5.32317 5.18257,-1.190667 18.770111,-0.5605 23.11288,0.980401 6.233271,2.241368 8.054101,6.023636 4.342131,8.684905 -4.552398,3.221768 -17.789705,5.112903 -25.774143,3.642302 z M 91.37007,30.705865 c 4.552402,-0.981034 7.073704,-2.801869 5.81337,-4.34277 -0.4902,-0.5605 -2.381335,-1.4706 -4.202169,-1.960801 -4.342769,-1.260967 -18.420511,-1.190667 -22.13248,0.139967 -3.151468,1.120367 -4.692369,2.941835 -3.432035,4.202169 2.311668,2.311668 16.80931,3.502336 23.953314,1.961435 z"
     style="fill:#ffffff;stroke-width:0.633334"
     id="path5" />
  <path
     d="M 363.89103,9.0635855 V 3.4604822 h 8.05474 8.05473 v 5.6031033 5.6031035 h -8.05473 -8.05474 z"
     style="fill:#ffffff;stroke-width:0.633334"
     id="path6" />
</svg>
