<?xml version="1.0" encoding="UTF-8" standalone="no"?>
<svg
   viewBox="179.918 14.622 379.99815 100.501"
   width="379.99817"
   height="100.501"
   version="1.1"
   id="svg1"
   xmlns="http://www.w3.org/2000/svg"
   xmlns:svg="http://www.w3.org/2000/svg">
  <defs
     id="defs1" />
  <path
     id="path274-6"
     d="m 441.91969,79.900489 -7.98184,13.685867 c -0.0251,0.04355 -0.0714,0.07053 -0.12174,0.07114 l -6.24496,0.02514 c -0.11101,0.0018 -0.18123,-0.117754 -0.12603,-0.213736 l 11.27436,-19.620805 c 0.0291,-0.04784 0.0276,-0.108861 -0.004,-0.155165 L 427.52485,57.448675 c -0.0635,-0.09445 0.004,-0.22171 0.11744,-0.222323 l 6.45502,0.01257 c 0.0463,-9.2e-4 0.0902,0.02116 0.11745,0.05888 l 7.6669,10.804261 c 0.0567,0.08218 0.17848,0.08218 0.2349,0 l 7.60436,-10.791688 c 0.0264,-0.03649 0.0684,-0.05826 0.11315,-0.05888 l 6.59761,-0.07973 c 0.11561,-0.0028 0.18645,0.12634 0.12174,0.222322 l -11.24921,16.357724 c -0.0319,0.04631 -0.0334,0.107021 -0.004,0.155166 l 11.22775,19.511636 c 0.0546,0.09414 -0.0126,0.212509 -0.12143,0.213736 l -6.19069,0.06317 c -0.0518,6.13e-4 -0.1,-0.02668 -0.12603,-0.07145 l -7.92266,-13.723584 c -0.0549,-0.09568 -0.19289,-0.09568 -0.24747,0 z M 417.06036,57.201207 h 5.37682 c 0.0767,0 0.13861,0.06164 0.13861,0.1383 v 36.187972 c 0,0.07666 -0.0619,0.138606 -0.13861,0.138606 h -5.37682 c -0.0767,0 -0.13861,-0.06194 -0.13861,-0.138606 V 57.339507 c 0,-0.07666 0.0619,-0.1383 0.13861,-0.1383 z m -43.23023,3.455965 c -0.002,0.185525 0.21895,0.283346 0.36062,0.159459 1.97975,-1.772754 4.20818,-3.147167 6.68562,-4.122932 0.1475,-0.05826 0.31647,3.06e-4 0.39865,0.138299 l 2.70926,4.643015 c 0.25453,0.436365 0.13861,0.720017 -0.34805,0.851572 -4.90734,1.304496 -7.83893,4.785606 -9.27774,9.541774 -0.36338,1.199622 -0.54645,2.80893 -0.54921,4.827619 -0.009,5.597927 -0.007,11.194628 0.004,16.789796 0,0.115608 -0.0938,0.20975 -0.20975,0.20975 l -5.22166,-0.03803 c -0.12879,-0.0028 -0.19288,-0.06838 -0.19288,-0.196871 l 0.0417,-35.995087 c 0,-0.167739 0.084,-0.252988 0.25176,-0.256055 l 5.13795,-0.01257 c 0.12879,0 0.19288,0.06317 0.19288,0.188899 z m 16.47486,29.976434 c -2.35693,-2.119577 -3.59856,-4.963159 -3.72428,-8.531051 -0.006,-0.164979 0.0711,-0.267094 0.2306,-0.306346 l 5.18824,-1.321055 c 0.1705,-0.04201 0.25298,0.02514 0.24746,0.201164 -0.10486,2.692708 0.885,5.632885 3.46885,6.782216 5.17137,2.302648 10.46879,-4.559298 6.42558,-8.807958 -2.38237,-2.503811 -6.06097,-4.19009 -8.95913,-6.253549 -8.38846,-5.964376 -2.52498,-18.869815 7.4869,-16.735211 3.8865,0.827653 6.19345,3.492456 6.92051,7.99441 0.12849,0.793922 -0.11039,1.305723 -0.71725,1.535098 -1.28917,0.48635 -2.62985,1.019005 -4.02235,1.597963 -0.2119,0.0877 -0.44403,-0.06716 -0.44035,-0.293466 0.0671,-8.64022 -9.82298,-5.599461 -6.92482,0.222016 0.85158,1.715716 5.04566,3.657435 6.85337,4.86963 1.75036,1.171716 3.04504,2.211878 3.88404,3.120488 5.18825,5.641472 3.12479,14.72603 -3.91318,17.976538 -4.07264,1.879162 -8.73252,0.893583 -12.00419,-2.050887 z M 362.22458,74.339053 c 0,11.130231 -9.02291,20.153152 -20.15314,20.153152 -11.13054,0 -20.15347,-9.022921 -20.15347,-20.153152 0,-11.130538 9.02293,-20.15346 20.15347,-20.15346 11.13023,0 20.15314,9.022922 20.15314,20.15346 z m -17.5696,-14.059369 c -14.05907,-2.633832 -22.67414,14.835197 -12.2348,24.591016 5.8175,5.443989 16.16485,4.563285 20.90415,-1.849723 3.92606,-5.312742 4.14532,-10.812847 0.65868,-16.500011 -2.03432,-3.321957 -5.44429,-5.515437 -9.32803,-6.241282 z m 79.4642,-10.611377 c 0,2.413656 -1.95675,4.370401 -4.3704,4.370401 -2.41366,0 -4.37041,-1.956745 -4.37041,-4.370401 0,-2.413655 1.95675,-4.3704 4.37041,-4.3704 2.41365,0 4.3704,1.956745 4.3704,4.3704 z m -141.1196,35.051521 c 4.6976,3.01132 9.3909,3.938327 14.90634,3.439099 5.25938,-0.47807 9.88431,-2.523438 13.87446,-6.136102 0.18399,-0.167125 0.46427,-0.168965 0.6501,-0.0043 l 3.73287,3.313372 c 0.12634,0.110088 0.12052,0.309105 -0.0126,0.415513 -0.24318,0.192884 -0.61361,0.498923 -1.11131,0.918423 -6.30261,5.32102 -13.37124,7.803979 -21.2062,7.448876 -2.84358,-0.128486 -5.57277,-0.675247 -8.18729,-1.639973 -8.90425,-3.279947 -16.39513,-11.02229 -18.47545,-20.509788 -0.74241,-3.393101 -1.43882,-6.660476 -0.82214,-10.321897 0.29071,-1.714184 0.57467,-3.161274 0.85127,-4.341269 2.17691,-9.298601 9.85241,-17.296998 18.84497,-20.40062 10.6448,-3.678594 21.9946,-0.662674 30.22789,6.924502 0.10886,0.100889 0.10886,0.199938 0,0.297759 l -3.88405,3.544282 c -0.0951,0.08954 -0.19288,0.09353 -0.29347,0.01257 -2.28455,-1.775513 -4.08092,-3.015613 -5.38971,-3.720299 -14.04219,-7.574911 -30.78999,0.587238 -34.2208,15.871067 -2.18949,9.743246 2.28578,19.616512 10.51509,24.888776 z m 243.01874,-27.078269 20.07802,-0.05029 c 0.10641,0 0.19289,-0.08648 0.19289,-0.192883 l 0.0208,-21.952586 c 0,-0.106714 0.0865,-0.19319 0.19288,-0.19319 l 13.22037,0.03373 c 0.10672,0 0.19289,0.08617 0.19289,0.192883 l -0.0377,58.757234 c 0,0.106407 -0.0862,0.192884 -0.19288,0.192884 l -13.19094,-0.05458 c -0.10641,0 -0.19288,-0.08617 -0.19288,-0.192883 l 0.0126,-24.561578 c 0,-0.106409 -0.0865,-0.192884 -0.19288,-0.192884 l -20.15776,0.01257 c -0.10641,0 -0.19287,0.08648 -0.19287,0.192884 v 24.60359 c 0,0.106407 -0.0862,0.192884 -0.19289,0.192884 l -13.14892,-0.03772 c -0.10641,0 -0.19288,-0.08648 -0.19288,-0.192884 l 0.0169,-58.690076 c 0,-0.106714 0.0862,-0.192884 0.19289,-0.192884 l 13.14033,-0.0506 c 0.10672,0 0.19319,0.08648 0.19319,0.193191 l 0.046,21.990303 c 0,0.106715 0.0865,0.192884 0.19289,0.192884 z m -36.27598,-10.531648 -0.008,47.18941 c 0,0.07176 -0.0583,0.130021 -0.13002,0.130021 l -13.29152,-0.046 c -0.0721,0 -0.13001,-0.05826 -0.13001,-0.13002 l -0.0212,-47.172851 c 0,-0.07176 -0.0583,-0.13002 -0.13002,-0.13002 l -16.58833,-0.0083 c -0.0718,0 -0.13002,-0.05826 -0.13002,-0.13002 l 0.0757,-11.408364 c 0,-0.07176 0.058,-0.130021 0.13002,-0.130021 h 47.06337 c 0.0721,0 0.13003,0.05826 0.13003,0.130021 l -0.0251,11.429217 c 0,0.07176 -0.058,0.13002 -0.13002,0.13002 l -16.68461,0.01687 c -0.0718,0 -0.13002,0.05826 -0.13002,0.13002 z"
     style="fill:#ffffff;stroke-width:0.306652" />
  <path
     id="path4382"
     style="color:#000000;font-style:normal;font-variant:normal;font-weight:normal;font-stretch:normal;font-size:medium;line-height:normal;font-family:Sans;text-indent:0px;text-align:start;text-decoration:none;text-decoration-line:none;letter-spacing:normal;word-spacing:normal;text-transform:none;writing-mode:lr-tb;direction:ltr;baseline-shift:baseline;text-anchor:start;display:inline;overflow:visible;fill:#ffffff;fill-opacity:1;stroke:none;stroke-width:0.613303;marker:none"
     d="m 224.67043,114.50491 c 3.41518,-0.61545 5.34586,-1.27751 6.45992,-2.21494 1.07544,-0.90494 1.10947,-1.12573 0.29715,-1.93804 -0.80006,-0.80006 -1.05518,-0.77369 -1.47744,0.15333 -0.19228,0.42163 -0.48237,0.76662 -0.6449,0.76662 -0.33394,0 -0.20883,-0.95153 0.22754,-1.73105 0.46335,-0.82827 -0.0405,-1.97391 -2.63567,-5.9935 -2.9828,-4.619408 -6.82515,-11.286936 -7.52493,-13.057237 -0.6961,-1.761714 -0.66145,-3.950901 0.085,-5.3431 0.43911,-0.819066 0.50137,-1.164357 0.22999,-1.274444 -0.20485,-0.0831 0.34405,-0.161913 1.21955,-0.175099 0.87549,-0.01319 1.65561,-0.127873 1.7335,-0.254214 0.0779,-0.126647 0.22968,-3.196845 0.33762,-6.823001 0.21957,-7.38264 0.34192,-8.586249 0.87396,-8.586249 0.20331,0 3.24437,1.86291 6.75829,4.139799 3.51393,2.276889 6.50225,4.139799 6.64085,4.139799 0.13861,0 2.69548,-3.808616 5.68196,-8.463895 4.4949,-7.005765 5.35812,-8.529211 5.01191,-8.843837 -0.22998,-0.208829 -3.21064,-2.151775 -6.62398,-4.317043 -3.41304,-2.165574 -6.14377,-3.999351 -6.06772,-4.075401 0.0757,-0.07574 3.11405,1.761714 6.75186,4.083374 3.63751,2.32166 6.70157,4.133359 6.80889,4.026031 0.25146,-0.251454 0.85986,0.172645 -6.37743,-4.44461 -3.47436,-2.216479 -6.54456,-4.030017 -6.823,-4.030017 -1.24746,0 -0.0764,-0.756204 6.16369,-3.979727 3.66818,-1.895107 6.78774,-3.555933 6.93218,-3.69086 0.21772,-0.203004 -8.57889,-17.40034 -9.30167,-18.184448 -0.12665,-0.13738 -3.23364,1.352947 -6.90457,3.311532 -3.67093,1.958278 -6.5004,3.275654 -6.74756,3.347411 -0.35204,0.102421 -1.09169,0.679847 -1.80189,1.313083 -0.20852,0.18583 -0.27936,0.373194 -0.53787,0.615449 -1.14504,1.074201 -2.25511,1.808632 -3.72796,2.571275 -1.82735,0.946327 -2.85646,1.320749 -4.83927,2.090751 -0.68997,0.267708 -0.76633,0.410914 -0.83134,0.988033 -0.28427,2.533863 -0.62281,11.789839 -0.65133,18.670491 l -0.0218,3.668781 c 0,0 0.81661,0.271387 1.22109,0.417353 2.51915,0.909529 3.55501,4.469755 2.08768,6.646676 -2.57802,3.824867 -8.41513,2.028808 -8.41268,-2.602247 9.2e-4,-1.904 0.90094,-3.157285 2.40385,-3.966539 0.48512,-0.261268 0.69394,-0.316159 1.20789,-0.434219 l 0.0782,-10.14404 c -0.0297,-3.913183 0.18614,-8.025996 0.27077,-11.870795 0.0144,-0.655315 -0.0742,-1.080028 -0.52652,-1.419185 -0.6642,-0.498615 -1.91136,-1.13829 -1.91136,-1.13829 -1.37441,-0.764484 -2.26125,-1.361228 -3.15207,-2.064074 -0.81079,-0.639369 -1.64366,-1.338535 -2.34772,-2.294674 -0.0935,-0.127262 -0.15578,-0.485124 -0.21773,-0.609931 -0.25943,-0.522841 -0.73964,-1.318909 -0.88684,-1.411825 -0.52836,-0.332716 -2.85615,-1.557483 -6.22932,-3.731951 -4.66019,-3.004267 -6.21767,-3.867798 -6.48568,-3.595492 -0.40571,0.412753 -9.91497,16.092777 -10.01034,16.506144 -0.0346,0.150872 2.76568,2.120496 6.22319,4.377453 3.45749,2.256957 6.32653,4.30079 6.3759,4.542125 0.0598,0.292853 -2.10639,1.601949 -6.51574,3.938329 -3.6329,1.924853 -6.60221,3.637809 -6.59853,3.806467 0.0153,0.708673 8.83433,17.180165 9.24157,17.2602 0.24501,0.04845 3.24866,-1.366133 6.67489,-3.14318 3.42591,-1.777047 6.43079,-3.230882 6.67703,-3.230882 0.38699,0 0.41796,1.039855 0.22722,7.622134 -0.15915,5.487534 -0.12542,7.681014 0.12052,7.833113 0.18798,0.116221 1.01502,0.291013 1.83808,0.388221 1.33362,0.158233 1.58446,0.313092 2.30724,1.427771 1.16558,1.797898 1.134,4.276565 -0.0874,6.858572 -0.79361,1.677385 -5.60068,9.165819 -9.21518,14.354979 -1.00797,1.4474 -1.24931,2.03617 -1.13125,2.75987 0.21926,1.34344 0.34529,1.79085 0.63416,2.25389 0.20791,0.33332 0.13585,0.34835 -0.37136,0.077 -0.34621,-0.18552 -0.71695,-0.613 -0.82427,-0.95062 -0.25452,-0.8019 -0.92119,-0.78105 -1.50137,0.0472 -0.62863,0.89758 -0.25023,1.49585 1.55657,2.46119 2.67675,1.42991 7.01496,2.48112 12.37646,2.99843 3.94967,0.38117 13.05846,0.13739 16.22954,-0.43421 z m -0.37657,-38.761393 c 0.1751,-4.891095 0.1429,-6.611104 -0.12757,-6.835573 -0.49523,-0.4103 -0.64488,1.028203 -0.86721,8.325594 -0.16375,5.378672 -0.13462,5.932792 0.28949,5.512679 0.37871,-0.375035 0.51762,-1.753742 0.70529,-7.0027 z m 24.64867,-35.544003 c -1.25052,-2.477132 -8.35105,-15.835801 -8.49977,-15.991274 -1.1889,-1.241327 2.60133,6.492124 7.76503,15.843775 1.33057,2.40967 1.93804,2.531717 0.73474,0.147499 z m -30.5143,-6.113408 c 1.55901,-0.741484 2.93404,-1.58631 3.7761,-2.221692 0.25545,-0.192884 0.67035,-0.333943 0.8847,-0.421953 0.70959,-0.290706 1.27842,-0.706219 1.38085,-1.01839 0.20883,-0.635382 0.30144,-2.024822 0.36553,-4.554698 0.0641,-2.529877 0.15915,-5.910713 0.21128,-7.512968 l 0.0944,-2.913192 -1.74055,-0.187057 c -0.95707,-0.103035 -5.52465,-0.28764 -10.15017,-0.410607 l -8.40994,-0.223549 -0.19655,1.637213 c -0.10794,0.90033 -0.20944,3.431126 -0.22508,5.623687 -0.0156,2.19256 -0.20607,4.793273 -0.25361,5.793877 -0.0601,1.26126 -0.10794,1.913201 0.0316,2.367045 0.10978,0.356943 0.26372,0.497083 0.59551,0.782269 0.17203,0.147806 0.37044,0.146273 0.48881,0.242255 1.09505,0.887144 3.3376,2.717854 5.2462,3.722445 2.51485,1.323816 3.76292,1.262793 7.90088,-0.704685 z m -15.8444,-5.119858 c -0.53786,-0.81232 -10.22008,-6.623371 -10.68681,-6.619691 -0.26831,0.0031 0.82337,0.842679 2.42562,1.868429 1.60226,1.025751 4.15513,2.66695 5.67306,3.64701 2.53755,1.63844 3.27718,2.143802 2.58813,1.104252 z m 23.47359,-3.457805 c 0.4612,-8.541477 0.4661,-10.218555 0.0285,-10.218555 -0.47899,0 -0.64888,1.747301 -0.93867,9.657383 -0.15302,4.173223 -0.12542,4.536299 0.29776,3.932195 0.29531,-0.421953 0.51978,-1.656532 0.61239,-3.371023 z" />
</svg>
