<?xml version="1.0" encoding="UTF-8" standalone="no"?>
<svg
   version="1.1"
   viewBox="0 0 380 104.59896"
   id="svg38"
   width="380"
   height="104.59896"
   xmlns="http://www.w3.org/2000/svg"
   xmlns:svg="http://www.w3.org/2000/svg">
  <defs
     id="defs38" />
  <path
     d="m 16.664583,65.183855 v 0 39.415105 H 11.489062 V 65.183855 Z"
     class="st0"
     style="fill:#ffffff;stroke-width:0.0989583"
     id="path1" />
  <path
     d="m 28.153646,65.183855 v 0 39.415105 H 22.96823 V 65.183855 Z"
     class="st0"
     style="fill:#ffffff;stroke-width:0.0989583"
     id="path2" />
  <path
     d="m 39.642709,65.183855 v 0 39.415105 H 34.457293 V 65.183855 Z"
     class="st0"
     style="fill:#ffffff;stroke-width:0.0989583"
     id="path3" />
  <path
     d="m 5.1854168,65.183855 v 0 39.415105 H 0 V 65.183855 Z"
     class="st0"
     style="fill:#ffffff;stroke-width:0.0989583"
     id="path4" />
  <path
     d="m 16.664583,65.183855 v 0 39.415105 H 11.489062 V 65.183855 Z"
     class="st0"
     style="fill:#ffffff;stroke-width:0.0989583"
     id="path5" />
  <path
     d="m 28.153646,65.183855 v 0 39.415105 H 22.96823 V 65.183855 Z"
     class="st0"
     style="fill:#ffffff;stroke-width:0.0989583"
     id="path6" />
  <path
     d="m 39.642709,65.183855 v 0 39.415105 H 34.457293 V 65.183855 Z"
     class="st0"
     style="fill:#ffffff;stroke-width:0.0989583"
     id="path7" />
  <path
     d="m 51.121873,65.183855 v 0 39.415105 h -5.17552 V 65.183855 Z"
     class="st0"
     style="fill:#ffffff;stroke-width:0.0989583"
     id="path8" />
  <path
     d="m 62.610939,65.183855 v 0 39.415105 H 57.42552 V 65.183855 Z"
     class="st0"
     style="fill:#ffffff;stroke-width:0.0989583"
     id="path9" />
  <path
     d="m 74.090105,65.183855 v 0 39.415105 H 68.914586 V 65.183855 Z"
     class="st0"
     style="fill:#ffffff;stroke-width:0.0989583"
     id="path10" />
  <path
     d="m 85.579165,65.183855 v 0 39.415105 H 80.403646 V 65.183855 Z"
     class="st0"
     style="fill:#ffffff;stroke-width:0.0989583"
     id="path11" />
  <path
     d="m 97.068232,65.183855 v 0 39.415105 h -5.18542 V 65.183855 Z"
     class="st0"
     style="fill:#ffffff;stroke-width:0.0989583"
     id="path12" />
  <path
     d="m 108.5474,65.183855 v 0 39.415105 h -5.17553 V 65.183855 Z"
     class="st0"
     style="fill:#ffffff;stroke-width:0.0989583"
     id="path13" />
  <path
     d="m 120.03646,65.183855 v 0 39.415105 h -5.18542 V 65.183855 Z"
     class="st0"
     style="fill:#ffffff;stroke-width:0.0989583"
     id="path14" />
  <path
     d="m 131.52552,65.183855 v 0 39.415105 H 126.3401 V 65.183855 Z"
     class="st0"
     style="fill:#ffffff;stroke-width:0.0989583"
     id="path15" />
  <path
     d="m 143.00469,65.183855 v 0 39.415105 h -5.17552 V 65.183855 Z"
     class="st0"
     style="fill:#ffffff;stroke-width:0.0989583"
     id="path16" />
  <path
     d="m 154.49375,65.183855 v 0 39.415105 h -5.18541 V 65.183855 Z"
     class="st0"
     style="fill:#ffffff;stroke-width:0.0989583"
     id="path17" />
  <path
     d="m 165.98282,65.183855 v 0 39.415105 H 160.7974 V 65.183855 Z"
     class="st0"
     style="fill:#ffffff;stroke-width:0.0989583"
     id="path18" />
  <path
     d="m 177.46198,65.183855 v 0 39.415105 h -5.17552 V 65.183855 Z"
     class="st0"
     style="fill:#ffffff;stroke-width:0.0989583"
     id="path19" />
  <path
     d="m 188.95104,65.183855 v 0 39.415105 h -5.18542 V 65.183855 Z"
     class="st0"
     style="fill:#ffffff;stroke-width:0.0989583"
     id="path20" />
  <path
     class="st1"
     d="m 87.251563,26.24375 c -0.35625,-3.325 -3.938542,-3.235938 -6.46198,-3.235938 -1.37552,0 -4.245312,0.04948 -5.353645,0.99948 -1.058855,0.910416 -1.058855,3.285416 -1.058855,4.561979 0,1.227083 0.03958,2.869791 0.969792,3.790104 1.108333,1.098438 4.15625,1.1875 5.571354,1.1875 0.969792,0 1.9,0 2.879688,-0.138542 C 85.747396,33.13125 86.895312,32.5375 87.202083,30.4 h 7.966146 c -0.08906,2.414583 -0.217708,4.740104 -1.949479,6.570833 -1.810938,1.959375 -4.601563,2.375 -7.125,2.513542 -1.9,0.08906 -3.760417,0.138542 -5.660417,0.138542 -3.404166,0 -8.272916,0.08906 -11.192187,-2.008855 -2.830209,-2.048437 -2.701563,-6.343229 -2.701563,-9.490104 0,-3.097396 -0.03958,-6.798437 2.473959,-8.985416 2.741145,-2.375 8.451041,-2.18698 11.815625,-2.18698 3.364583,0 9.203125,-0.138541 11.99375,2.18698 0.752083,0.643229 1.236979,1.276562 1.632812,2.236458 0.663021,1.593229 0.7125,3.146875 0.752083,4.878646 h -7.95625 v -0.0099 z"
     style="fill:#ffffff;stroke-width:0.0989583"
     id="path21" />
  <path
     class="st1"
     d="m 127.15156,32.082292 c -0.17812,2.097916 -0.7125,3.968229 -2.29583,5.383333 -2.70156,2.414583 -9.06458,2.147396 -12.38958,2.147396 -3.45365,0 -9.55938,0.316666 -12.38959,-2.147396 -0.791664,-0.682813 -1.286456,-1.415104 -1.682289,-2.375 -0.880729,-2.236458 -0.752084,-5.066667 -0.752084,-7.431771 0,-1.1875 0,-2.414583 0.128646,-3.602083 0.178125,-2.048438 0.930209,-3.879167 2.563017,-5.155729 2.65209,-2.097917 8.98542,-1.959375 12.1224,-1.959375 3.18646,0 9.42083,-0.138542 12.1224,1.959375 0.75208,0.59375 1.23697,1.1875 1.68229,2.048437 1.14791,2.097917 1.01927,4.789583 1.01927,7.115104 0,1.326042 -0.0396,2.691667 -0.12865,4.017709 z m -8.66875,-7.896875 c -1.14791,-1.138021 -4.5125,-1.1875 -5.97708,-1.1875 -1.41511,0 -2.87969,0.04948 -4.24531,0.316666 -2.74115,0.544271 -2.79063,2.741146 -2.79063,5.195313 0,1.1875 -0.0396,2.780729 0.79167,3.691146 1.19739,1.326041 4.64114,1.326041 6.23437,1.326041 1.50417,0 3.0974,0 4.55209,-0.405729 2.43437,-0.682812 2.38489,-2.96875 2.38489,-5.195312 0.0198,-1.227084 -0.0198,-2.820313 -0.95,-3.740625 z"
     style="fill:#ffffff;stroke-width:0.0989583"
     id="path22" />
  <path
     class="st1"
     d="M 168.24896,39.058854 V 28.975 c 0,-4.651042 -0.4849,-5.977083 -5.30417,-5.977083 -5.39323,0 -5.79896,2.186979 -5.79896,7.164583 v 8.896354 h -7.8276 V 28.975 27.470833 c 0,-3.91875 -1.63281,-4.472916 -5.17552,-4.472916 -5.57136,0 -5.92761,2.048437 -5.92761,7.164583 v 8.896354 h -7.8276 V 17.485938 h 7.39219 v 3.235937 h 0.35625 c 1.46458,-3.325 5.35364,-3.790104 8.49062,-3.790104 3.97813,0 7.48125,0.682812 9.5099,4.5125 1.59323,-4.017708 5.30416,-4.5125 9.06458,-4.5125 3.04792,0 6.46198,0.366146 8.66875,2.780729 0.75208,0.821354 1.32604,1.692188 1.63281,2.780729 0.62344,2.097917 0.57396,4.334375 0.57396,6.481771 v 10.083854 z"
     style="fill:#ffffff;stroke-width:0.0989583"
     id="path23" />
  <path
     class="st1"
     d="M 217.3026,39.058854 V 28.975 c 0,-4.651042 -0.48489,-5.977083 -5.30416,-5.977083 -5.39323,0 -5.79896,2.186979 -5.79896,7.164583 v 8.896354 h -7.8276 V 28.975 27.470833 c 0,-3.91875 -1.63282,-4.472916 -5.17553,-4.472916 -5.57135,0 -5.9276,2.048437 -5.9276,7.164583 v 8.896354 h -7.8276 V 17.485938 h 7.39218 v 3.235937 h 0.35625 c 1.46459,-3.325 5.35365,-3.790104 8.49063,-3.790104 3.97812,0 7.48125,0.682812 9.50989,4.5125 1.59323,-4.017708 5.30417,-4.5125 9.06459,-4.5125 3.04791,0 6.46198,0.366146 8.66875,2.780729 0.75208,0.821354 1.32604,1.692188 1.63281,2.780729 0.62344,2.097917 0.57396,4.334375 0.57396,6.481771 v 10.083854 z"
     style="fill:#ffffff;stroke-width:0.0989583"
     id="path24" />
  <path
     class="st1"
     d="m 257.55885,32.082292 c -0.17812,2.097916 -0.7125,3.968229 -2.29583,5.383333 -2.70156,2.414583 -9.06458,2.147396 -12.38958,2.147396 -3.45365,0 -9.55938,0.316666 -12.38959,-2.147396 -0.79166,-0.682813 -1.28645,-1.415104 -1.68229,-2.375 -0.88073,-2.236458 -0.75208,-5.066667 -0.75208,-7.431771 0,-1.1875 0,-2.414583 0.12865,-3.602083 0.17812,-2.048438 0.9302,-3.879167 2.56302,-5.155729 2.65208,-2.097917 8.98541,-1.959375 12.12239,-1.959375 3.18646,0 9.42084,-0.138542 12.1224,1.959375 0.75208,0.59375 1.23698,1.1875 1.68229,2.048437 1.14792,2.097917 1.01927,4.789583 1.01927,7.115104 0,1.326042 -0.0396,2.691667 -0.12865,4.017709 z m -8.66875,-7.896875 c -1.14791,-1.138021 -4.5125,-1.1875 -5.97708,-1.1875 -1.4151,0 -2.87969,0.04948 -4.24531,0.316666 -2.74115,0.544271 -2.79063,2.741146 -2.79063,5.195313 0,1.1875 -0.0396,2.780729 0.79167,3.691146 1.1974,1.326041 4.64115,1.326041 6.23437,1.326041 1.50417,0 3.0974,0 4.55209,-0.405729 2.43437,-0.682812 2.38489,-2.96875 2.38489,-5.195312 0.0198,-1.227084 -0.0297,-2.820313 -0.95,-3.740625 z"
     style="fill:#ffffff;stroke-width:0.0989583"
     id="path25" />
  <path
     class="st1"
     d="m 282.41719,39.058854 v -2.830208 h -0.39584 c -0.53437,0.910416 -0.9302,1.504166 -1.81093,2.048437 -1.94948,1.227084 -5.225,1.326042 -7.43177,1.326042 -3.22605,0 -7.6099,0.04948 -10.17292,-2.276042 -2.29583,-2.097916 -2.25625,-6.244271 -2.25625,-9.163541 0,-3.37448 0.0891,-7.48125 3.09739,-9.579167 2.65209,-1.820833 6.37292,-1.642708 9.42084,-1.642708 2.29583,0 4.81927,-0.04948 6.85781,1.1875 1.01927,0.59375 1.37552,1.1875 1.94948,2.236458 h 0.30677 V 8.6390625 h 7.8276 V 39.058854 Z m -0.80156,-14.052083 c -0.93021,-2.186979 -4.2948,-2.008854 -6.1948,-2.008854 -1.94948,0 -5.88802,-0.227605 -6.85781,2.048437 -0.35625,0.910417 -0.39583,2.097917 -0.39583,3.057813 0,1.276562 -0.0396,3.235937 0.88073,4.245312 1.05885,1.1875 4.47291,1.1875 5.88802,1.1875 1.59323,0 3.54271,-0.08906 5.04687,-0.59375 2.12761,-0.682812 2.07813,-2.780729 2.07813,-4.740104 0,-0.999479 -0.0396,-2.236458 -0.44531,-3.196354 z"
     style="fill:#ffffff;stroke-width:0.0989583"
     id="path26" />
  <path
     class="st1"
     d="m 322.40625,32.082292 c -0.17813,2.097916 -0.7125,3.968229 -2.29583,5.383333 -2.70157,2.414583 -9.06459,2.147396 -12.38959,2.147396 -3.45364,0 -9.55937,0.316666 -12.38958,-2.147396 -0.79167,-0.682813 -1.28646,-1.415104 -1.68229,-2.375 -0.88073,-2.236458 -0.75208,-5.066667 -0.75208,-7.431771 0,-1.1875 0,-2.414583 0.12864,-3.602083 0.17813,-2.048438 0.93021,-3.879167 2.56302,-5.155729 2.65209,-2.097917 8.98542,-1.959375 12.1224,-1.959375 3.18646,0 9.42083,-0.138542 12.12239,1.959375 0.75209,0.59375 1.23698,1.1875 1.6823,2.048437 1.14791,2.097917 1.01927,4.789583 1.01927,7.115104 0,1.326042 -0.0396,2.691667 -0.12865,4.017709 z m -8.66875,-7.896875 c -1.14792,-1.138021 -4.5125,-1.1875 -5.97708,-1.1875 -1.41511,0 -2.87969,0.04948 -4.24532,0.316666 -2.74114,0.544271 -2.79062,2.741146 -2.79062,5.195313 0,1.1875 -0.0396,2.780729 0.79167,3.691146 1.19739,1.326041 4.64114,1.326041 6.23437,1.326041 1.50417,0 3.0974,0 4.55208,-0.405729 2.43438,-0.682812 2.3849,-2.96875 2.3849,-5.195312 0.0198,-1.227084 -0.0198,-2.820313 -0.95,-3.740625 z"
     style="fill:#ffffff;stroke-width:0.0989583"
     id="path27" />
  <path
     class="st1"
     d="m 349.87708,27.065104 h -7.34271 c 0,-3.196354 -1.01927,-4.057292 -4.11666,-4.057292 -4.81927,0 -4.95781,3.146876 -4.95781,7.115105 v 8.935937 h -7.82761 V 17.485937 h 7.39219 v 3.235938 h 0.35625 c 1.81094,-3.325 4.73021,-3.790104 8.14427,-3.790104 2.43438,0 5.35365,0.316666 6.98646,2.414583 1.46458,1.870313 1.4151,4.561979 1.4151,6.838021 -0.01,0.286979 -0.0495,0.603646 -0.0495,0.880729 z"
     style="fill:#ffffff;stroke-width:0.0989583"
     id="path28" />
  <path
     class="st1"
     d="m 379.96042,30.023958 h -20.4448 c 0,1.227084 -0.0396,2.642188 0.9698,3.513021 1.05885,0.870833 4.0276,0.910417 5.30416,0.910417 1.27657,0 4.86875,0.04948 5.7099,-0.910417 0.35625,-0.366146 0.44531,-0.870833 0.53437,-1.365625 h 7.78802 c -0.17812,2.048438 -0.57395,3.651563 -2.07812,5.066667 -2.70156,2.513541 -9.15365,2.375 -12.56771,2.375 -3.09739,0 -8.27292,0.04948 -10.83594,-2.008854 -0.79166,-0.64323 -1.32604,-1.365625 -1.77135,-2.276042 -0.96979,-2.097917 -0.88073,-4.700521 -0.88073,-6.936979 0,-1.365625 0,-2.741146 0.12865,-4.057292 0.2177,-2.186979 0.9302,-4.146354 2.70156,-5.472396 2.74114,-2.048437 8.23333,-1.919791 11.45937,-1.919791 2.96875,0 6.1948,-0.08906 9.06459,0.771875 4.64114,1.415104 4.95781,5.789062 4.95781,10.123437 0,0.732292 0,1.464583 -0.0396,2.186979 z m -7.8375,-4.918229 c 0,-0.821354 -0.0396,-1.454687 -0.62344,-2.097917 -0.93021,-1.048958 -4.11667,-1.048958 -5.39323,-1.048958 -1.1974,0 -2.3849,0 -3.54271,0.178125 -2.21667,0.316667 -3.00833,1.1875 -3.04792,3.463542 h 12.6073 z"
     style="fill:#ffffff;stroke-width:0.0989583"
     id="path29" />
  <path
     class="st1"
     d="m 228.01979,88.904167 c -0.21771,2.008854 -0.79167,3.968229 -2.34531,5.29427 -2.25625,1.959375 -7.125,1.959375 -9.90573,1.959375 -3.40417,0 -6.94688,0.04948 -8.89635,-3.325 h -0.35625 v 11.766148 h -7.82761 V 74.040625 h 7.39219 v 2.919271 h 0.39583 c 1.81094,-3.602083 6.14531,-3.463542 9.59896,-3.463542 4.11667,0 9.81667,0 11.45938,4.789584 0.66302,1.959374 0.66302,4.611458 0.66302,6.659895 0,1.316146 -0.0396,2.642188 -0.17813,3.958334 z m -8.35208,-7.936459 c -1.10833,-1.454687 -4.38386,-1.415104 -5.97709,-1.415104 -1.94947,0 -5.79895,-0.277083 -6.72916,2.008854 -0.44531,0.99948 -0.44531,2.414584 -0.44531,3.513021 0,1.1875 0.0396,2.513542 0.7125,3.513021 1.01927,1.504167 4.69062,1.504167 6.23437,1.504167 1.50417,0 3.22604,-0.04948 4.69063,-0.455209 2.38489,-0.682812 2.21666,-3.097395 2.21666,-5.244791 0,-1.1875 0.0495,-2.414584 -0.7026,-3.423959 z"
     style="fill:#ffffff;stroke-width:0.0989583"
     id="path30" />
  <path
     class="st1"
     d="M 232.44323,95.613542 V 65.19375 h 7.8276 v 30.419792 z"
     style="fill:#ffffff;stroke-width:0.0989583"
     id="path31" />
  <path
     class="st1"
     d="m 265.80208,95.613542 v -3.235938 h -0.39583 c -1.63281,3.602083 -5.62083,3.790104 -8.98542,3.790104 -4.20573,0 -9.20312,-0.59375 -10.88541,-5.244791 -0.79167,-2.236459 -0.7125,-4.651042 -0.7125,-7.026042 v -9.85625 h 7.78802 v 9.85625 c 0,5.294271 0.96979,6.204687 6.14531,6.204687 6.01667,0 6.59062,-1.593229 6.59062,-7.392187 v -8.66875 h 7.78803 v 21.572917 z"
     style="fill:#ffffff;stroke-width:0.0989583"
     id="path32" />
  <path
     class="st1"
     d="m 304.55417,93.792708 c -2.43438,2.513542 -10.08386,2.375 -13.23073,2.375 -3.40417,0 -9.42084,0.277084 -12.16198,-2.236458 -1.50417,-1.365625 -1.81094,-3.196354 -1.86042,-5.195313 h 7.96615 c 0.17812,1.959375 2.1276,2.18698 3.63177,2.325521 0.96979,0.08906 1.94948,0.08906 2.91927,0.08906 1.37552,0 5.08646,0.08906 6.14531,-0.910417 0.30677,-0.277083 0.44531,-0.682812 0.44531,-1.098437 0,-1.78125 -2.43437,-1.692188 -3.63177,-1.692188 -1.46458,0 -2.91927,-0.04948 -4.38385,-0.04948 -1.50417,0 -3.00833,0 -4.5125,0 -4.69063,0 -8.40156,-1.138021 -8.40156,-6.709375 0,-3.423958 1.32604,-5.7 4.64114,-6.521354 3.04792,-0.732292 6.67969,-0.682813 9.77709,-0.682813 3.27552,0 8.98541,-0.227604 11.54843,1.959375 1.37552,1.1875 1.54375,2.96875 1.68229,4.700521 h -7.96614 c -0.0891,-0.455208 -0.17813,-0.771875 -0.57396,-1.048958 -0.84115,-0.59375 -3.97812,-0.59375 -4.95781,-0.59375 -1.28646,0 -4.73021,-0.04948 -5.83854,0.732291 -0.30677,0.277084 -0.4849,0.59375 -0.4849,0.99948 0,1.1875 0.93021,1.365625 1.86042,1.454687 1.98906,0.178125 4.29479,0.138542 6.28385,0.138542 l 4.38386,0.04948 c 4.90833,0.04948 8.36197,0.999479 8.36197,6.748958 -0.01,1.83073 -0.31666,3.790104 -1.6427,5.165625 z"
     style="fill:#ffffff;stroke-width:0.0989583"
     id="path33" />
  <path
     class="st1"
     d="m 311.27344,102.18437 h -5.62084 l 24.37344,-43.561453 h 5.66042 z"
     style="fill:#ffffff;stroke-width:0.0989583"
     id="path34" />
  <path
     class="st1"
     d="m 12.825,28.14375 c 0,-8.223438 6.491667,-14.922917 14.467708,-14.922917 2.563021,0 4.967709,0.692709 7.055729,1.9 V 0.95989583 C 32.102083,0.33645833 29.736979,0 27.292708,0 12.221354,0 0,12.597396 0,28.14375 0,43.690104 12.221354,56.2875 27.292708,56.2875 c 2.444271,0 4.809375,-0.336458 7.05573,-0.959896 V 41.166667 c -2.088021,1.207291 -4.492709,1.9 -7.05573,1.9 -7.976041,0 -14.467708,-6.69948 -14.467708,-14.922917 z"
     style="fill:#ffffff;stroke-width:0.0989583"
     id="path35" />
  <path
     d="m 34.348438,27.114583 h 12.87448 L 58.138021,15.863021 H 34.348438 Z"
     class="st1"
     style="fill:#ffffff;stroke-width:0.0989583"
     id="path36" />
  <path
     d="M 34.348438,29.172915 V 40.424479 H 58.138021 L 47.222918,29.172915 Z"
     class="st1"
     style="fill:#ffffff;stroke-width:0.0989583"
     id="path37" />
  <path
     class="st1"
     d="m 372.60781,97.276042 v 7.322918 H 361.55417 V 97.276042 H 331.0849 V 82.214583 l 22.68125,-17.001041 h 18.84166 V 88.419271 H 380 v 8.856771 z M 361.55417,74.367187 h -2.34532 l -17.75312,12.51823 v 1.533854 h 20.10833 l -0.01,-14.052084 z"
     style="fill:#ffffff;stroke-width:0.0989583"
     id="path38" />
</svg>
