<?xml version="1.0" encoding="UTF-8" standalone="no"?>
<svg
   version="1.1"
   viewBox="0 0 380.00076 107.883"
   id="svg10"
   width="380.00076"
   height="107.883"
   xmlns="http://www.w3.org/2000/svg"
   xmlns:svg="http://www.w3.org/2000/svg">
  <defs
     id="defs10" />
  <path
     class="st0"
     d="m 79.890239,88.878014 h -1.811414 v 3.682217 h 1.83121 c 1.375882,0 2.20735,-0.712688 2.20735,-1.811414 v -0.03959 c 0,-1.187812 -0.831468,-1.83121 -2.227146,-1.83121 z"
     style="fill:#ffffff;stroke-width:0.0989843"
     id="path1" />
  <polygon
     class="st0"
     points="1212,950.3 1196.4,910.3 1180.5,950.3 "
     style="fill:#ffffff"
     id="polygon1"
     transform="scale(0.09898431)" />
  <path
     class="st0"
     d="m 299.55622,86.749851 c -0.15837,-0.05939 -0.38603,-0.128679 -0.69289,-0.197968 h -0.01 c -0.52462,-0.118782 -1.05913,-0.118782 -1.57385,0 h -0.01 c -0.30685,0.06929 -0.53451,0.12868 -0.6929,0.197968 -0.25736,0.108883 -0.41573,0.247461 -0.50482,0.415735 -0.0891,0.168273 -0.12868,0.366241 -0.12868,0.584007 v 9.868736 c 0,0.247461 0.0396,0.455328 0.12868,0.613702 0.0891,0.158376 0.25736,0.287055 0.49492,0.386039 0.12869,0.04949 0.36625,0.08909 0.7127,0.118781 h 0.01 c 0.50482,0.03959 1.01953,0.03959 1.53425,0 h 0.01 c 0.34644,-0.0297 0.58401,-0.06929 0.71269,-0.118781 0.23756,-0.09898 0.40583,-0.227663 0.49492,-0.386039 0.0891,-0.158374 0.12867,-0.366241 0.12867,-0.613702 h 0.0198 v -9.868736 c 0,-0.217766 -0.0396,-0.415734 -0.12868,-0.584007 -0.0891,-0.178173 -0.25736,-0.306852 -0.50482,-0.415735 z"
     style="fill:#ffffff;stroke-width:0.0989843"
     id="path2" />
  <path
     class="st0"
     d="M 334.06215,77.316647 H 45.928721 c -8.443362,0 -15.283178,6.839816 -15.283178,15.283177 0,8.443366 6.839816,15.283176 15.283178,15.283176 H 334.06215 c 8.44337,0 15.28318,-6.83981 15.28318,-15.283176 0,-8.443361 -6.83981,-15.283177 -15.28318,-15.283177 z M 85.977773,90.570646 c 0,3.27638 -2.524099,5.008606 -5.98855,5.008606 h -1.910398 v 3.979169 H 74.218437 V 85.641227 h 0.0099 5.968755 c 3.513943,0 5.780683,1.811413 5.780683,4.889825 z m 18.193317,8.977877 H 93.579769 V 85.641227 h 3.85049 v 10.531931 h 6.740831 z m 17.92606,0.0099 -1.00964,-2.484506 h -5.36495 l -0.98985,2.484506 h -4.05835 l 5.90937,-14.016179 h 3.72181 l 5.92916,14.016179 z m 17.15398,-5.265965 v 5.265965 h -3.88018 v -5.206575 l -5.28576,-8.710619 h 4.39489 l 2.86065,5.067997 2.88045,-5.067997 h 4.31571 z m 34.99096,0.970046 c 0,2.84085 -2.24695,4.533482 -5.62232,4.533482 -2.4548,0 -4.80074,-0.772078 -6.51316,-2.306335 l 2.14795,-2.563693 c 1.37589,1.088827 2.90025,1.672834 4.51369,1.672834 1.02944,0 1.59365,-0.356343 1.59365,-0.950249 v -0.03959 c 0,-0.574109 -0.45532,-0.890859 -2.34593,-1.336288 -2.95963,-0.673093 -5.24617,-1.51446 -5.24617,-4.375107 v -0.03959 c 0,-2.58349 2.04898,-4.454294 5.38475,-4.454294 2.36573,0 4.21673,0.6335 5.72129,1.851007 l -1.93019,2.722068 c -1.2769,-0.890858 -2.66267,-1.375881 -3.89999,-1.375881 -0.93045,0 -1.39567,0.395937 -1.39567,0.890858 v 0.03959 c 0,0.633499 0.47512,0.910655 2.40531,1.356084 3.1972,0.692891 5.18679,1.732226 5.18679,4.335513 z m 15.1446,-0.970046 v 5.265965 h -3.88019 v -5.206575 l -5.28576,-8.710619 h 4.3949 l 2.86065,5.067997 2.88044,-5.067997 h 4.31572 z m 22.83567,0.970046 c 0,2.84085 -2.24694,4.533482 -5.6223,4.533482 -2.45481,0 -4.80074,-0.772078 -6.51317,-2.306335 l 2.14796,-2.563693 c 1.37589,1.088827 2.90024,1.672834 4.51368,1.672834 1.02944,0 1.59365,-0.356343 1.59365,-0.950249 v -0.03959 c 0,-0.574109 -0.45533,-0.890859 -2.34593,-1.336288 -2.95963,-0.673093 -5.24617,-1.51446 -5.24617,-4.375107 v -0.03959 c 0,-2.58349 2.04898,-4.454294 5.38475,-4.454294 2.36573,0 4.21673,0.6335 5.72129,1.851007 l -1.93019,2.722068 c -1.27689,-0.890858 -2.66268,-1.375881 -3.89998,-1.375881 -0.93045,0 -1.39568,0.395937 -1.39568,0.890858 v 0.03959 c 0,0.633499 0.47513,0.910655 2.40532,1.356084 3.19719,0.692891 5.18677,1.732226 5.18677,4.335513 z m 18.86641,-6.245909 h -4.17714 v 10.531928 h -3.86039 v -10.53193 h -4.16723 v -3.375366 h 12.20476 z m 18.9456,10.531928 h -11.2941 V 85.641227 h 0.01 11.19513 v 3.27638 h -7.38424 v 2.108367 h 6.68145 v 3.038818 h -6.68145 v 2.20735 h 7.47332 z m 22.71691,0.0099 h -3.8406 v -7.997932 l -3.56344,5.444137 h -0.0792 l -3.53375,-5.404543 v 7.94844 H 257.9531 V 85.641227 h 0.01 4.07815 l 3.31597,5.384747 3.31598,-5.384747 h 4.07816 z m 33.01126,-0.0099 h -3.86038 -3.86039 -3.86039 -3.86039 v -0.76218 c 0.17817,-0.0099 0.43553,-0.0297 0.78197,-0.05939 0.34644,-0.0297 0.58401,-0.06929 0.7127,-0.118781 0.23756,-0.09898 0.40583,-0.227664 0.49492,-0.386039 0.0891,-0.158375 0.12868,-0.366241 0.12868,-0.613703 v -9.868736 c 0,-0.217766 -0.0396,-0.415734 -0.12868,-0.584007 -0.0891,-0.178172 -0.25736,-0.306851 -0.50482,-0.415734 -0.15839,-0.05939 -0.38605,-0.128679 -0.6929,-0.197969 -0.30685,-0.06929 -0.57411,-0.108883 -0.79187,-0.138578 v -0.762179 h 3.86039 3.86039 3.86039 3.86038 v 0.762179 c -0.21777,0.0198 -0.48502,0.06929 -0.79188,0.138578 -0.30685,0.06929 -0.53451,0.12868 -0.69288,0.197969 -0.25736,0.108883 -0.41574,0.24746 -0.50482,0.415734 -0.0792,0.178172 -0.11878,0.366241 -0.12868,0.584007 v 9.868736 c 0,0.247462 0.0396,0.455328 0.12868,0.613703 0.0891,0.158375 0.25736,0.287055 0.49492,0.386039 0.12868,0.04949 0.36624,0.08909 0.71268,0.118781 0.34645,0.02969 0.60381,0.04949 0.78198,0.05939 z"
     style="fill:#ffffff;stroke-width:0.0989843"
     id="path3" />
  <path
     class="st1"
     d="m 379.93148,52.758639 -2.27663,0.158374 c -0.10889,0.0099 -0.40584,-0.0198 -0.54442,-0.138577 -0.30685,-0.267258 -0.50481,-0.712688 -0.63349,-1.356086 l -4.4741,-28.596567 c -0.21776,-1.385781 -0.10888,-1.732226 1.59365,-2.553796 L 374.7942,19.68798 V 1.7619208 h -35.72344 l -1.13832,3.880185 -1.52435,-3.880185 H 301.83287 V 12.580906 C 294.89406,4.6027705 284.43142,0 272.73148,0 260.64549,0 249.31179,4.4938878 241.83847,12.125579 235.57276,4.2365285 225.71393,0.07918745 213.16271,0.07918745 c -11.55146,0 -21.20243,4.48398935 -28.72524,13.35298355 C 179.39917,5.3847466 173.60858,1.7619208 158.3749,1.7619208 H 124.07683 V 18.698136 l 0.0198,1.593648 1.52436,0.445429 c 0.21777,0.05939 0.6434,0.237563 0.99974,0.475125 0.29696,0.197969 0.49492,0.514718 0.53452,0.871062 0.0198,0.148476 0.0297,0.336547 0.0297,0.56421 0,0.593906 -0.0396,15.283178 -0.0594,24.617399 L 109.55583,1.7619208 H 83.67144 L 67.190551,45.414003 v -2.375624 h -16.4017 l -1.514461,0.0198 -0.494921,1.425374 c -0.12868,0.37614 -1.435272,3.711911 -6.028145,3.711911 -5.206574,0 -10.97736,-4.305816 -11.343602,-13.768717 -0.178171,-4.73145 2.365725,-7.760371 4.592872,-8.918487 0.376141,-0.197968 0.732484,-0.346445 1.039336,-0.445429 0.989843,-0.346446 1.940092,0.603804 1.593647,1.593647 -0.158375,0.445429 -0.475124,0.979945 -1.039335,1.613445 L 35.71354,30.071437 51.085803,40.662759 71.130127,19.400926 70.447135,18.064637 C 70.070995,17.342051 61.053524,0.24746078 38.396014,0.24746078 16.144341,0.24746078 0,15.936474 0,37.54475 0,57.79694 18.193316,73.654227 41.405137,73.654227 H 161.15636 l -0.01,-18.084434 -1.76192,-0.306851 c -0.21777,-0.03959 -0.44543,-0.08909 -0.6731,-0.148477 8.34438,-2.197452 15.77811,-6.503269 19.91565,-9.512392 5.55302,17.153981 21.38061,28.062052 41.22697,28.062052 h 23.57806 v -9.047166 c 5.09769,4.196935 15.1446,10.7299 28.28971,10.7299 10.13599,0 18.63875,-4.582974 23.17223,-7.631691 v 5.988551 h 34.49603 V 61.202 h 14.18446 v 12.452227 h 36.42632 v -18.61895 z m -2.05887,18.767425 h -32.1699 V 59.073837 h -18.43088 v 12.481922 h -30.2496 v -8.106815 c 0,0 -11.05655,9.759853 -25.3004,9.759853 -18.2329,0 -30.40798,-13.461866 -30.40798,-13.461866 v 11.779133 c 0,0 -1.33628,0 -21.44989,0 -19.08418,0 -35.47598,-10.492337 -40.04905,-29.606208 -2.16777,2.078671 -11.72965,8.938284 -23.21183,11.521774 -0.89086,0.197968 -1.33628,0.544414 -1.33628,1.51446 0,1.77182 3.77129,2.405319 3.77129,2.405319 v 14.174554 c 0,0 -99.192175,0 -117.632953,0 -21.786446,0 -39.2868727,-14.976327 -39.2868727,-33.981314 0,-19.004989 13.6499367,-35.1790255 36.2678517,-35.1790255 21.618174,0 30.16052,16.6590595 30.16052,16.6590595 L 50.788851,37.881296 39.05921,29.794278 c 0,0 3.85049,-3.702013 0.336546,-6.394386 -2.751763,-2.098468 -10.442845,2.355827 -10.116196,11.106039 0.386038,10.086502 6.602253,15.807795 13.471764,15.807795 6.364692,0 8.037527,-5.157083 8.037527,-5.157083 H 65.072287 V 57.044659 L 85.146306,3.8900834 h 22.954464 l 18.43088,47.7797276 c 0,0 1.33628,2.5241 2.68247,3.197193 0,0 0.0792,-31.348331 0.0792,-32.229292 0,-0.880961 -0.11879,-1.851007 -0.6632,-2.474608 -0.90076,-1.039335 -2.42512,-1.474866 -2.42512,-1.474866 V 3.8900834 c 0,0 21.27173,0 32.1699,0 16.67886,0 20.96488,4.54338 25.80521,13.2935936 6.68144,-9.0273697 15.87709,-14.9763268 28.9925,-14.9763268 13.50146,0 23.04355,4.9888093 28.48769,13.2935938 7.6119,-9.1362527 19.87605,-13.3727813 31.08108,-13.3727813 13.77861,0 25.30039,6.701238 31.24934,17.0747933 V 3.8900834 h 31.00188 l 3.26649,8.3245806 2.43501,-8.3245806 h 32.00163 V 18.361589 c -2.26673,1.098727 -3.1774,2.207351 -2.77156,4.80074 l 4.47409,28.596568 c 0.18807,0.930452 0.51472,1.900498 1.3066,2.613186 0.93045,0.831468 2.17765,0.673093 2.17765,0.673093 v 16.480888 z"
     style="fill:#ffffff;stroke-width:0.0989843"
     id="path4" />
  <path
     class="st1"
     d="m 89.412529,10.274572 h 14.332931 l 17.43114,45.770345 c 0.50482,1.257102 1.33628,2.435014 2.17765,3.454553 0.83146,1.00964 2.85075,1.682734 2.85075,1.682734 v 3.949474 h -21.03417 v -4.03856 c 0,0 1.33629,0.168273 2.00938,-1.00964 0.6731,-1.177914 0.6731,-2.108367 0.16828,-3.286279 -0.50482,-1.177914 -4.01877,-10.522033 -4.01877,-10.522033 H 86.146047 c 0,0 -3.523842,9.423307 -3.860388,10.264673 -0.336547,0.841367 -0.336547,2.187554 0,3.02892 0.56421,1.405577 2.5241,1.603546 2.5241,1.603546 v 3.959373 H 67.972528 v -3.959373 c 0,0 1.534256,-0.524617 2.672576,-1.682734 1.257101,-1.266998 1.682733,-2.613185 1.682733,-2.613185 L 89.412529,10.274572 M 88.996795,37.703125 H 100.05334 L 94.361744,21.717158 Z"
     style="fill:#ffffff;stroke-width:0.0989843"
     id="path5" />
  <path
     class="st1"
     d="m 132.89634,10.274572 c 0,0 16.92632,0 26.80495,0 9.88854,0 19.77707,3.533739 19.77707,14.976326 0,11.442587 -7.20606,15.471248 -13.40248,18.331895 -7.15657,3.306076 -16.58978,5.889566 -16.58978,5.889566 v 8.740315 c 0,0 0.0792,0.593906 0.92057,1.603546 0.83146,1.00964 1.76191,1.257101 1.76191,1.257101 v 4.058357 h -19.44052 v -3.959373 c 0,0 1.17791,-0.257359 2.00938,-1.088827 0.84138,-0.841367 1.00965,-1.851007 1.00965,-1.851007 V 18.688238 c 0,0 0.0792,-1.682733 -0.59391,-2.355827 -0.6731,-0.673093 -2.25684,-1.593647 -2.25684,-1.593647 v -4.464192 m 16.75805,8.245393 v 23.389992 c 0,0 15.7484,-6.562659 15.7484,-15.817692 0.01,-11.442587 -15.7484,-7.5723 -15.7484,-7.5723 z"
     style="fill:#ffffff;stroke-width:0.0989843"
     id="path6" />
  <path
     class="st1"
     d="m 271.47437,66.705528 c -18.09432,0 -31.11076,-13.273796 -31.11076,-29.418138 0,-16.144341 13.35298,-28.6757548 31.11076,-28.6757548 17.76769,0 31.11078,12.5215158 31.11078,28.6757548 0,16.15424 -13.00654,29.418138 -31.11078,29.418138 M 255.38942,37.54475 c 0,16.15424 8.20581,20.1928 16.08495,20.1928 7.86926,0 16.25323,-5.048201 16.25323,-20.1928 0,-15.1446 -9.38371,-20.1928 -16.25323,-20.1928 -6.86951,0 -16.08495,4.03856 -16.08495,20.1928 z"
     style="fill:#ffffff;stroke-width:0.0989843"
     id="path7" />
  <path
     class="st1"
     d="m 310.68206,10.314165 h 19.94534 l 7.20606,22.34076 7.70097,-22.380353 h 20.8659 v 3.286279 c 0,0 -1.38578,0.584007 -2.00938,1.346186 -0.75228,0.920554 -0.75228,1.603547 -0.58401,2.949733 0.16827,1.346186 5.52332,37.851601 5.6916,39.197787 0.16827,1.356086 0.33654,2.108367 0.67309,3.028921 0.32666,0.920553 1.9203,1.682733 1.9203,1.682733 v 3.395162 H 352.0674 V 61.51875 c 0,0 1.76192,-0.257359 2.34593,-1.098726 0.5939,-0.841367 0.84136,-1.346187 0.67309,-2.692373 -0.16827,-1.346187 -4.93932,-31.971932 -4.93932,-31.971932 l -8.71061,27.092006 h -10.55174 l -8.63142,-25.409274 -4.35531,29.952653 c 0,0 -0.16827,1.791617 0.50482,2.771561 0.92055,1.356085 2.59338,1.356085 2.59338,1.356085 v 3.612928 h -17.34204 v -3.870287 c 0,0 1.37587,-0.217766 2.38551,-1.385781 1.00965,-1.177913 1.17792,-2.692372 1.17792,-2.692372 l 6.3251,-39.494741 c 0,0 0.37614,-1.474867 -0.0396,-2.14796 -0.43553,-0.712687 -2.81115,-1.306593 -2.81115,-1.306593 v -3.919779"
     style="fill:#ffffff;stroke-width:0.0989843"
     id="path8" />
  <path
     class="st1"
     d="m 60.093376,19.321737 -9.354018,9.848939 c -0.494922,0.51472 -1.296694,0.564212 -1.851006,0.118782 l -1.593648,-1.306593 c -0.06929,-0.05939 -0.108883,-0.158375 -0.108883,-0.287055 0,-0.336546 0.920555,-1.177913 0.920555,-2.77156 0,-1.603546 -0.326649,-8.245393 -10.551727,-8.245393 -10.215182,0 -14.748663,9.59158 -14.748663,17.500426 0,7.908847 4.860129,22.380353 20.776807,22.380353 9.264932,0 11.224821,-5.216473 11.224821,-5.216473 h 3.187294 V 64.973302 H 40.57367 C 19.796862,64.963404 8.2255964,48.640891 8.2255964,36.861758 8.2255964,18.797121 23.865118,8.7799085 38.04957,8.7799085 51.798491,8.7898085 60.093376,19.321737 60.093376,19.321737"
     style="fill:#ffffff;stroke-width:0.0989843"
     id="path9" />
  <path
     class="st1"
     d="m 237.54255,19.420722 -9.35401,9.848939 c -0.49493,0.514719 -1.2967,0.564211 -1.85101,0.118781 l -1.59365,-1.306593 c -0.0693,-0.05939 -0.10888,-0.158374 -0.10888,-0.287054 0,-0.336547 0.92055,-1.177914 0.92055,-2.771561 0,-1.603545 -0.32665,-8.245393 -10.55172,-8.245393 -10.21518,0 -14.74867,9.59158 -14.74867,17.500426 0,7.908847 4.86013,22.380354 20.77681,22.380354 9.26493,0 11.22482,-5.216474 11.22482,-5.216474 h 3.1873 v 13.63014 h -17.43115 c -20.7768,0 -32.33817,-16.322514 -32.33817,-28.091748 0,-18.064636 15.63952,-28.0818494 29.82398,-28.0818494 13.74892,-0.019797 22.0438,10.5220324 22.0438,10.5220324"
     style="fill:#ffffff;stroke-width:0.0989843"
     id="path10" />
</svg>
