<?xml version="1.0" encoding="UTF-8" standalone="no"?>
<svg
   version="1.1"
   id="Layer_1"
   x="0px"
   y="0px"
   viewBox="0 0 379.99847 76.550005"
   width="379.99847"
   height="76.550003"
   xmlns="http://www.w3.org/2000/svg"
   xmlns:svg="http://www.w3.org/2000/svg">
  <defs
     id="defs1" />
  <style
     type="text/css"
     id="style1">
	.st0{fill:none;stroke:#000000;stroke-width:54.1005;stroke-miterlimit:10;}
	.st1{fill:none;stroke:#000000;stroke-width:55.7397;stroke-miterlimit:10;}
	.st2{fill:#FFEF00;}
	.st3{fill:url(#SVGID_1_);}
	.st4{fill:#FFFFFF;}
	.st5{fill:url(#SVGID_2_);}
	.st6{fill:url(#SVGID_3_);}
	.st7{fill:url(#SVGID_4_);}
	.st8{fill:url(#SVGID_5_);}
	.st9{fill:url(#SVGID_6_);}
	.st10{fill:url(#SVGID_7_);}
	.st11{fill:url(#SVGID_8_);}
	.st12{fill:url(#SVGID_9_);}
	.st13{fill:url(#SVGID_10_);}
	.st14{fill:url(#SVGID_11_);}
	.st15{fill:url(#SVGID_12_);}
	.st16{fill:url(#SVGID_13_);}
	.st17{fill:url(#SVGID_14_);}
	.st18{fill:url(#SVGID_15_);}
	.st19{fill:url(#SVGID_16_);}
	.st20{fill:url(#SVGID_17_);}
	.st21{fill:url(#SVGID_18_);}
	.st22{fill:url(#SVGID_19_);}
	.st23{fill:url(#SVGID_20_);}
	.st24{fill:url(#SVGID_21_);}
</style>
  <path
     class="st3"
     d="m 63.838737,53.046331 v -3.277349 c 0,-5.81628 -4.731419,-10.547699 -10.547698,-10.547699 h -4.579974 c -0.671109,0 -1.217499,-0.54639 -1.217499,-1.217499 0,-0.671108 0.54639,-1.218488 1.217499,-1.218488 h 4.579974 c 5.816279,0 10.547698,-4.731419 10.547698,-10.547699 0,-5.816279 -4.731419,-10.547698 -10.547698,-10.547698 h -8.162193 c -5.816279,0 -10.548687,4.731419 -10.548687,10.547698 v 26.809724 c 0,0.864127 -0.702784,1.5679 -1.567902,1.5679 H 22.441793 c -4.491878,0 -8.748175,-1.712417 -11.983951,-4.821493 -3.2397347,-3.113036 -5.0649934,-7.26639 -5.1382413,-11.693929 -0.076217,-4.54632 1.6361999,-8.832312 4.8195133,-12.070067 3.185294,-3.238746 7.440601,-5.022431 11.981972,-5.022431 h 8.361149 v -5.317402 h -8.361149 c -5.978613,0 -11.580098,2.347892 -15.773045,6.611118 -4.1909681,4.260257 -6.44482588,9.903315 -6.34485239,15.885887 0.09799381,5.854884 2.50230679,11.337588 6.77048199,15.439471 4.2305614,4.066249 9.7954214,6.305259 15.6681224,6.305259 h 10.570464 c 3.796024,0 6.885303,-3.088291 6.885303,-6.885303 V 26.236607 c 0,-2.884383 2.346903,-5.230296 5.230296,-5.230296 h 8.162193 c 2.884384,0 5.230297,2.346903 5.230297,5.230296 0,2.883395 -2.346903,5.230297 -5.230297,5.230297 h -4.579974 c -3.603994,0 -6.535891,2.931896 -6.535891,6.535891 0,3.603995 2.931897,6.534901 6.535891,6.534901 h 4.579974 c 2.884384,0 5.230297,2.346902 5.230297,5.230296 v 3.277349 c 0,3.796023 3.088289,6.885303 6.885303,6.885303 h 2.438957 v -5.317402 h -2.438957 c -0.864128,9.89e-4 -1.566912,-0.702784 -1.566912,-1.566911 z M 153.30808,22.573222 v 30.822521 c 0,0.671109 -0.54638,1.217499 -1.2175,1.217499 -0.67111,0 -1.2175,-0.54639 -1.2175,-1.217499 V 22.573222 c 0,-3.796023 -3.08828,-6.885302 -6.8853,-6.885302 h -11.16733 v 5.317401 h 11.16733 c 0.86413,0 1.5679,0.702785 1.5679,1.567901 v 30.822521 c 0,3.603995 2.93189,6.535891 6.53589,6.535891 3.60399,0 6.53589,-2.931896 6.53589,-6.535891 V 22.573222 c 0,-0.864126 0.70279,-1.567901 1.56791,-1.567901 h 11.55238 V 15.68792 h -11.55238 c -3.799,0 -6.88729,3.089279 -6.88729,6.885302 z m 131.10485,37.358412 h 5.31739 V 15.68792 h -5.31739 z m -108.69495,0 h 5.3174 V 15.68792 h -5.3174 z m 65.48462,0 H 246.52 V 15.68792 h -5.3174 z M 137.2074,53.574903 135.43659,48.62869 c -0.99578,-2.77946 -3.64756,-4.647283 -6.60024,-4.647283 H 118.4688 c -0.6711,0 -1.21749,-0.54639 -1.21749,-1.217498 0,-0.671109 0.54639,-1.217499 1.21749,-1.217499 h 5.13824 c 2.12617,0 4.12664,-1.037349 5.35007,-2.776492 1.22344,-1.739143 1.52731,-3.971224 0.81068,-5.972674 l -4.48792,-12.53628 c -1.0908,-3.046716 -3.88709,-5.015501 -7.12386,-5.015501 -3.23676,0 -6.03305,1.968785 -7.12385,5.015501 L 99.049202,53.726348 c -0.190048,0.531543 -0.696844,0.887883 -1.26105,0.887883 h -17.02123 c -2.884384,0 -5.231286,-2.346901 -5.231286,-5.231286 v -3.633689 c 0,-0.66814 0.54342,-1.21156 1.21057,-1.21156 h 12.618436 c 3.600036,0 6.528962,-2.928926 6.528962,-6.528962 v -0.01386 c 0,-3.600035 -2.928926,-6.528962 -6.528962,-6.528962 H 76.747195 c -0.668139,0 -1.21057,-0.54342 -1.21057,-1.21156 v -4.018737 c 0,-2.884383 2.346903,-5.231286 5.231287,-5.231286 H 95.898553 V 15.68693 H 80.766922 c -5.81628,0 -10.548689,4.732408 -10.548689,10.548687 v 4.018737 c 0,3.600036 2.928927,6.528962 6.528962,6.528962 h 12.618437 c 0.66814,0 1.210571,0.543421 1.210571,1.21156 v 0.01485 c 0,0.66814 -0.543421,1.21057 -1.210571,1.21057 H 76.747195 c -3.600035,0 -6.528962,2.928927 -6.528962,6.528963 v 3.633689 c 0,5.81628 4.732409,10.548689 10.548689,10.548689 h 17.02123 c 2.804208,0 5.322348,-1.773787 6.267638,-4.412691 l 11.98296,-33.465385 c 0.49492,-1.382801 1.74608,-1.490694 2.11726,-1.490694 0.37119,0 1.62235,0.107893 2.11727,1.490694 l 4.48792,12.535291 c 0.18708,0.520654 -0.0148,0.924507 -0.15145,1.119504 -0.1366,0.194009 -0.4484,0.520654 -1.00271,0.520654 h -5.13824 c -3.60399,0 -6.53589,2.931896 -6.53589,6.534902 0,3.603994 2.9319,6.535891 6.53589,6.535891 h 10.36755 c 0.71268,0 1.35311,0.451365 1.59364,1.122474 l 1.77082,4.946213 c 0.97696,2.729969 3.58221,4.564137 6.48243,4.564137 h 3.68913 v -5.317403 h -3.68913 c -0.66022,-9.9e-4 -1.25312,-0.4187 -1.47584,-1.040318 z M 242.22906,0 h -3.51689 c -1.49366,0 -2.91606,0.47116219 -4.11277,1.3639948 -1.19771,0.8918427 -2.05689,2.1202299 -2.4835,3.5505436 L 212.8121,69.536017 c -0.47016,1.573841 -1.86188,1.69658 -2.27761,1.69658 -0.41574,0 -1.80744,-0.122739 -2.27762,-1.69658 L 188.95506,4.9145384 C 188.52745,3.4832348 187.66827,2.2558375 186.47156,1.3639948 185.27386,0.47116219 183.85147,0 182.35781,0 h -3.5169 v 5.3174019 h 3.5169 c 0.68793,0 1.30559,0.4602741 1.50158,1.1185154 l 19.3028,64.6214787 c 0.51075,1.709448 1.52633,3.132833 2.93783,4.116731 1.29174,0.899761 2.825,1.375873 4.43447,1.375873 1.60849,0 3.14273,-0.476112 4.43447,-1.375873 1.41151,-0.982908 2.42708,-2.406293 2.93783,-4.116731 L 237.2096,6.4359173 c 0.19697,-0.6592311 0.81463,-1.1185154 1.50158,-1.1185154 h 3.51689 V 0 Z m 25.54372,35.151076 h -4.61264 c -3.89995,0 -7.07238,-3.172427 -7.07238,-7.072383 0,-3.899955 3.17243,-7.072382 7.07238,-7.072382 h 16.36299 v -5.317402 h -16.36299 c -6.83185,0 -12.38978,5.557933 -12.38978,12.389784 0,6.831853 5.55793,12.389784 12.38978,12.389784 h 4.61264 c 3.89996,0 7.07238,3.172426 7.07238,7.072383 0,3.899956 -3.17242,7.072382 -7.07238,7.072382 h -16.41941 v 5.317402 h 16.41941 c 6.83186,0 12.38978,-5.557933 12.38978,-12.389784 0,-6.831852 -5.55792,-12.389784 -12.38978,-12.389784 z m 64.39183,-13.422184 c -4.30479,-4.304799 -10.02803,-6.675458 -16.11651,-6.675458 -6.08849,0 -11.81172,2.370659 -16.11652,6.675458 -4.3048,4.304799 -6.67546,10.028034 -6.67546,16.116519 0,6.088484 2.37066,11.811719 6.67546,16.116519 4.3048,4.304799 10.02803,6.675457 16.11652,6.675457 6.08848,0 11.81172,-2.370658 16.11651,-6.675457 4.30481,-4.3048 6.67547,-10.028035 6.67547,-16.116519 0,-6.088485 -2.37066,-11.81172 -6.67547,-16.116519 z m -16.11651,33.42876 c -9.54697,0 -17.31323,-7.766258 -17.31323,-17.313231 0,-9.546974 7.76626,-17.313232 17.31323,-17.313232 9.54697,0 17.31323,7.766258 17.31323,17.313232 0,9.546973 -7.76725,17.313231 -17.31323,17.313231 z M 377.55951,15.68792 c -3.79602,0 -6.8853,3.088289 -6.8853,6.885302 v 30.567143 c 0,0.812656 -0.66121,1.472877 -1.47288,1.472877 -0.62062,0 -1.1779,-0.392965 -1.38676,-0.976969 L 355.31986,18.737606 c -1.08981,-3.042757 -4.07317,-4.7819 -7.25847,-4.228581 -3.18431,0.552328 -5.40748,3.196182 -5.40748,6.427998 v 32.109308 c 0,0.864127 -0.70278,1.5679 -1.56789,1.5679 h -2.43896 v 5.317403 h 2.43896 c 3.79601,0 6.8853,-3.088291 6.8853,-6.885303 V 20.937023 c 0,-0.882935 0.62657,-1.123465 0.99974,-1.188794 0.37316,-0.06533 1.04427,-0.04949 1.34221,0.781971 l 12.4957,34.899657 c 0.9641,2.692355 3.53372,4.501777 6.39335,4.501777 3.74455,0 6.79028,-3.046717 6.79028,-6.790279 V 22.573222 c 0,-0.864126 0.70278,-1.567901 1.5679,-1.567901 h 2.43797 V 15.68792 Z"
     style="fill:#ffffff;stroke-width:0.0989837"
     id="path1" />
</svg>
