<?xml version="1.0" encoding="UTF-8" standalone="no"?>
<svg
   version="1.1"
   viewBox="0 0 379.9989 103.184"
   id="svg6"
   width="379.9989"
   height="103.184"
   xmlns="http://www.w3.org/2000/svg"
   xmlns:svg="http://www.w3.org/2000/svg">
  <defs
     id="defs6" />
  <path
     class="st97"
     d="m 336.19741,55.027117 c 0.24747,-2.009423 0.58402,-3.949557 0.99977,-5.810501 5.71151,0.712702 11.42302,1.464999 17.12464,2.266789 1.65307,0.227668 2.1678,1.841146 0.97006,2.672632 3.16757,-1.791654 6.36483,-3.99905 9.37402,-6.453913 -8.66131,-1.276925 -17.33252,-2.464761 -26.01363,-3.553612 3.29625,-9.265127 9.70067,-15.332993 20.71785,-13.788806 12.80884,1.841148 10.9281,12.244619 10.9281,12.23472 4.48409,-4.533577 8.0773,-9.443303 9.70067,-13.917488 0,0 -1.4551,1.23733 -2.79141,1.029458 -12.43269,-1.940133 -24.87529,-3.682294 -37.34757,-5.23638 -1.62338,-0.197973 -3.23686,-0.395945 -4.86024,-0.593919 -1.59367,-0.188073 -3.17746,-0.376148 -4.77114,-0.564222 -0.0198,0.188074 -0.0495,0.386047 -0.0693,0.574121 0.56422,0.06929 1.10864,0.197973 1.60358,0.395946 1.71247,0.663209 2.11831,2.76172 0.78199,3.919862 -2.8706,2.494456 -7.56256,8.691005 -8.63162,18.223395 -3.87036,36.050847 17.91654,51.423435 38.85217,56.174781 -22.5293,-7.532864 -29.1317,-26.508556 -26.56795,-47.572863 z"
     style="fill:#ffffff;stroke-width:0.0989864"
     id="path1" />
  <path
     class="st97"
     d="m 249.82188,16.659989 c -1.71246,-0.07919 -3.42493,-0.168277 -5.13739,-0.237567 -0.01,0.197972 -0.0198,0.386047 -0.0297,0.584019 2.84091,0.128683 5.0582,1.999526 4.94931,4.177226 -0.24746,5.048307 -0.49493,10.096614 -0.7424,15.154818 -7.54275,-0.366249 -15.07562,-0.663208 -22.62828,-0.890877 0.14848,-5.058206 0.30686,-10.106512 0.45534,-15.164716 0.0594,-2.177702 2.41526,-3.870369 5.25617,-3.771382 0.01,-0.197974 0.01,-0.386047 0.0198,-0.58402 -1.71246,-0.05939 -3.42493,-0.108885 -5.14729,-0.168277 -3.97926,-0.118784 -7.95851,-0.21777 -11.92787,-0.296959 -1.71246,-0.0297 -3.43483,-0.06929 -5.14728,-0.08909 0,0.197973 -0.01,0.386047 -0.01,0.584019 2.8409,0.0396 5.10769,1.851046 5.06809,4.028747 0,0 0,0 0,0 -0.43554,21.727515 -0.87107,43.45503 -1.30661,65.182544 0,0 0,0 0,0 -0.0495,2.177701 -2.247,3.890166 -4.90973,3.850571 0,0.197974 -0.01,0.386047 -0.01,0.58402 1.61349,0.0297 3.21706,0.04949 4.83054,0.08909 3.73179,0.07919 7.46358,0.168277 11.19536,0.277162 1.61348,0.04949 3.21705,0.09899 4.83054,0.158378 0.01,-0.197973 0.01,-0.386047 0.0198,-0.584019 -2.66273,-0.08909 -4.77114,-1.920337 -4.71175,-4.088138 0.44544,-14.92715 0.89088,-29.864198 1.33632,-44.791347 7.51307,0.227669 15.01624,0.524628 22.5293,0.890878 -0.73249,14.91725 -1.46499,29.8444 -2.1975,44.76165 0,0 0,0 0,0 -0.10888,2.177701 -2.35587,3.830774 -5.0186,3.71199 -0.01,0.197973 -0.0198,0.386047 -0.0297,0.584019 1.61348,0.06929 3.21706,0.14848 4.83053,0.227669 3.73179,0.178175 7.46358,0.386047 11.18547,0.603817 1.60357,0.09899 3.21706,0.188075 4.82063,0.296959 0.01,-0.197972 0.0198,-0.386047 0.0396,-0.584019 -2.66274,-0.168278 -4.72165,-2.058917 -4.59297,-4.22672 1.27692,-21.697818 2.55385,-43.385739 3.83078,-65.083558 0,0 0,0 0,0 0.12868,-2.167801 2.52415,-3.801078 5.36506,-3.622902 0.01,-0.197973 0.0198,-0.386047 0.0396,-0.584019 -1.71246,-0.108885 -3.42493,-0.207872 -5.13739,-0.316757 -3.96935,-0.257365 -7.94861,-0.475135 -11.91796,-0.663209 z"
     style="fill:#ffffff;stroke-width:0.0989864"
     id="path2" />
  <path
     class="st97"
     d="m 324.30914,22.61897 c -1.70256,-0.188073 -3.41503,-0.376148 -5.12749,-0.554323 -1.5046,-0.158379 -3.00919,-0.316756 -4.51378,-0.475135 -1.71246,-0.178176 -3.41504,-0.346453 -5.1275,-0.51473 -0.0198,0.188075 -0.0396,0.386047 -0.0594,0.574122 2.83101,0.277162 4.93942,2.266788 4.72165,4.434591 0,0 0,0 0,0 0,0 0,0 0,0 -0.68301,6.651885 -1.37591,13.31367 -2.05892,19.965557 -4.28611,-11.997152 -14.43221,-23.123224 -33.14064,-29.19109 -0.0297,-0.0198 -11.36364,10.839011 -11.33394,10.858808 1.73225,-0.0198 3.16756,0.207871 4.31581,0.673107 1.68276,0.633513 2.05891,1.593681 1.96982,2.929998 -1.31652,18.787619 -2.62314,37.585136 -3.93966,56.372755 0,0 0,0 0,0 v 0 c -0.14848,2.167802 -2.43506,3.78128 -5.09779,3.603104 -0.01,0.197974 -0.0297,0.386047 -0.0396,0.584021 1.60358,0.108884 3.21706,0.217769 4.82063,0.326655 1.41551,0.09899 2.83101,0.197972 4.24652,0.306857 1.60359,0.118784 3.21706,0.237567 4.82064,0.36625 0.0198,-0.188075 0.0297,-0.386047 0.0495,-0.574121 -2.66275,-0.207872 -4.69196,-2.128207 -4.53358,-4.29601 0,0 0,0 0,0 1.40561,-19.06478 2.81121,-38.13946 4.20692,-57.20424 8.08718,0.544424 20.20312,9.769958 26.23139,22.727277 6.11736,12.967219 6.16685,29.656325 -7.93871,45.266481 8.89888,-5.31557 15.61016,-13.620529 17.69877,-33.011965 0,0 0,0 0,0 1.39571,-13.076103 2.79142,-26.142308 4.19703,-39.218412 0.22767,-2.157903 2.71222,-3.672395 5.54323,-3.355638 0.0495,-0.207872 0.0693,-0.405845 0.0891,-0.593919 z"
     style="fill:#ffffff;stroke-width:0.0989864"
     id="path3" />
  <path
     class="st97"
     d="m 185.91626,14.155633 c -5.48385,0.0198 -11.99716,1.573884 -17.98583,3.56351 -10.25499,3.395234 -18.97569,8.057494 -18.97569,8.057494 0.10887,0.178175 0.20786,0.356351 0.31675,0.524627 3.67239,-1.59368 5.35517,-0.306858 5.39476,0.970067 0.58402,19.381537 1.16804,38.772973 1.75206,58.15451 0,0 0,0 0,0 0.0594,2.177701 -2.04902,3.999051 -4.71175,4.088139 0.01,0.197972 0.01,0.386047 0.0198,0.584019 1.61347,-0.05939 3.21705,-0.108885 4.83053,-0.158378 3.73179,-0.108885 7.46357,-0.207872 11.19536,-0.277162 1.61348,-0.0297 3.21706,-0.05939 4.83054,-0.08909 0,-0.197974 -0.01,-0.386047 -0.01,-0.584021 0,0 0,0 0,0 -2.66274,0.03959 -4.86023,-1.67287 -4.90973,-3.850571 0,0 0,0 0,0 -0.34645,-17.283025 -0.7028,-34.566051 -1.04926,-51.849076 -0.0198,-4.43459 1.44521,-8.037696 3.95946,-10.789518 2.51425,-2.741923 6.18665,-4.14753 10.9776,-4.187124 7.2953,-0.04949 12.18522,7.018136 12.17532,7.018136 -2.73202,3.92976 -5.43435,7.869418 -8.11688,11.809078 -4.95922,2.969591 -9.86894,5.978778 -14.75887,9.007761 7.64175,-2.444964 15.34289,-4.820637 23.07372,-7.117122 -0.0495,-0.0297 14.89746,-13.214684 15.64976,-13.947183 0.0396,0.03959 -7.95851,-10.977592 -23.65775,-10.928099 z"
     style="fill:#ffffff;stroke-width:0.0989864"
     id="path4" />
  <path
     class="st97"
     d="m 129.78107,16.739178 c -10.57175,0.534527 -21.1435,1.207635 -31.715243,2.019323 0.0099,0.188074 0.0297,0.386047 0.03959,0.58402 1.623377,-0.128683 3.108173,0.346452 4.117833,1.168039 1.02947,0.851283 1.06906,2.355876 0.13858,3.316044 -8.403943,8.295061 -23.42018,57.243835 13.77891,75.031691 -19.945761,-20.866333 -17.619581,-74.873312 13.8581,-77.575641 0.24747,4.860233 0.48503,9.710566 0.7325,14.570798 0.01,0.188074 0.0198,0.376148 0.0297,0.564223 -5.66203,0.28706 -11.31415,0.613715 -16.96627,0.979965 v 0 c -1.34622,2.454863 -2.42518,5.137394 -3.25665,7.958507 0,0 1.04924,-2.593444 4.86022,-2.84091 5.20669,-0.336554 10.41337,-0.633513 15.62996,-0.890878 0.7523,14.917251 1.50459,29.834501 2.25689,44.76165 0,0 0,0 0,0 0.10888,2.177701 -1.96983,4.038645 -4.63257,4.187125 0.01,0.197973 0.0198,0.386046 0.0297,0.58402 1.60358,-0.08909 3.21705,-0.168278 4.82064,-0.257365 3.73179,-0.188074 7.46357,-0.356351 11.19536,-0.504831 1.61347,-0.06929 3.21706,-0.128682 4.83053,-0.188073 -0.01,-0.197974 -0.01,-0.386048 -0.0198,-0.584021 -2.66273,0.09899 -4.89982,-1.573883 -4.9889,-3.751584 v 0 c -0.60382,-14.927149 -1.20764,-29.854299 -1.81146,-44.781447 -0.0693,-1.732263 -0.13858,-3.474423 -0.20787,-5.206685 -0.20787,-5.048306 -0.40584,-10.106511 -0.61371,-15.154818 0,0 0,0 0,0 -0.0891,-2.167802 2.1381,-4.028747 4.97901,-4.137631 -0.01,-0.197973 -0.01,-0.386047 -0.0198,-0.58402 -4.12773,0.14848 -8.25546,0.316756 -12.39309,0.514729 -1.55409,0.06929 -3.11807,0.138581 -4.67216,0.21777 z"
     style="fill:#ffffff;stroke-width:0.0989864"
     id="path5" />
  <path
     class="st97"
     d="M 87.147627,9.6814481 C 82.633847,5.6922962 62.153561,-1.9395552 42.346382,0.45591562 22.202649,2.8216906 3.4942199,15.234585 0,20.282892 c 0.02969592,0.188073 0.05939184,0.386047 0.08908776,0.57412 0,0 0,0 0,0 3.69219274,-0.584019 7.03793304,1.227432 7.47347314,4.018848 3.7218891,24.360553 7.4437771,48.731005 11.1557671,73.091558 0.425642,2.811212 -0.772093,3.919862 -4.226719,4.464282 0.0396,0.24747 0.07919,0.49494 0.118783,0.7523 9.195838,-1.4452 18.391674,-2.77162 27.607308,-3.989151 0,0 4.394996,-2.474659 11.363639,-6.493508 25.261329,-14.551 36.130035,-43.781684 34.843212,-61.074608 -0.445439,-5.642225 -2.464761,-11.838774 -5.632326,-19.638902 1.118546,-0.930472 2.662735,-1.573883 4.404894,-1.722363 -0.0099,-0.197973 -0.0297,-0.3860471 -0.04949,-0.5840199 z M 71.923518,38.85274 C 71.685951,54.551983 61.510148,77.239666 36.31811,92.325193 34.328484,93.51303 32.724903,91.760971 32.427944,89.682256 30.64619,76.903113 24.172478,30.498288 24.172478,30.498288 23.113325,22.975321 23.410284,9.6616508 43.118476,7.2067881 68.548082,4.2272975 72.091796,27.825655 71.923518,38.85274 Z"
     style="fill:#ffffff;stroke-width:0.0989864"
     id="path6" />
</svg>
