<?xml version="1.0" encoding="UTF-8" standalone="no"?>
<svg
   version="1.1"
   id="Ebene_1"
   x="0px"
   y="0px"
   width="380"
   height="130.34"
   viewBox="0 0 380 130.34"
   xmlns="http://www.w3.org/2000/svg"
   xmlns:svg="http://www.w3.org/2000/svg">
  <defs
     id="defs1" />
  <path
     d="m 171.41167,0.95 h 29.48166 c 16.21334,0 23.43334,5.985 23.43334,22.325 v 12.033333 c 0,15.706667 -5.13,23.148334 -21.34334,23.148334 h -31.57166 z m 15.51666,44.175 h 13.585 c 5.73167,0 7.82167,-3.768333 7.82167,-9.816667 V 23.275 c 0,-7.441667 -2.40667,-8.961667 -7.82167,-8.961667 h -13.585 z m 57.095,3.451667 -2.88166,9.88 h -16.15 L 242.47167,0.95 h 23.59166 l 17.67,57.506667 H 267.9 l -3.04,-9.88 z m 10.545,-36.1 H 254.41 l -7.06167,24.89 h 14.44 z m 54.87834,45.98 H 293.93 V 14.313333 H 275.975 V 0.95 h 52.21833 v 13.331667 h -18.74666 z m 29.925,-9.88 -2.88167,9.88 H 320.34 L 337.82,0.95 h 23.59167 l 17.70166,57.506667 H 363.28 l -3.04,-9.88 z m 10.545,-36.1 h -0.15834 l -7.06166,24.921666 h 14.44 z m -162.07,81.985 h 26.885 v 10.671663 h -26.885 v 11.21 h 29.07 v 12.54 H 172.33 V 71.376667 h 44.01667 v 12.571666 h -28.5 z m 52.25,24.541663 -2.88167,9.88 h -16.15 L 238.51333,71.376667 H 262.105 l 17.70167,57.506663 h -15.83334 l -3.04,-9.88 z m 10.545,-36.099997 h -0.15834 L 243.42167,107.825 h 14.44 z m 59.185,11.02 c 17.955,1.235 22.42,3.388334 22.42,16.561667 0,9.5 0.41166,18.87333 -26.28334,18.87333 -15.45333,0 -25.745,-0.31666 -25.745,-19.15833 h 15.54834 c 0,5.985 2.28,6.58667 10.19666,6.58667 7.6,0 10.10167,-0.475 10.10167,-5.28834 0,-4.97166 -0.88667,-4.90833 -8.48667,-5.38333 l -3.54666,-0.22167 c -14.97834,-0.98166 -23.71834,-0.91833 -23.71834,-17.416663 0,-16.498334 9.785,-17.543334 25.65,-17.543334 13.26834,0 24.605,0.221667 24.605,16.086667 v 2.375 H 315.02 c 0,-5.89 -2.59667,-5.89 -9.05667,-5.89 -8.74,0 -9.46833,1.678333 -9.46833,4.908333 0,4.591667 2.34333,4.75 6.65,5.066667 z M 364.325,128.88333 H 348.80833 V 84.74 H 333.925 V 71.408333 H 380 V 84.74 H 364.325 Z M 96.393333,63.681667 h 51.489997 v -38 c -3.38833,-0.918334 -6.96666,-1.425 -10.64,-1.425 -22.07166,0 -40.089997,17.575 -40.849997,39.425 z m 40.849997,42.370003 c 3.67334,0 7.25167,-0.50667 10.64,-1.425 V 66.626667 H 96.393333 c 0.76,21.85 18.778337,39.425003 40.849997,39.425003 z M 137.24333,0 C 106.62167,0 80.908333,21.153333 73.941667,49.621667 66.975,21.153333 41.293333,0 10.64,0 7.03,0 3.4516667,0.31666667 0,0.88666667 V 22.673333 C 3.42,21.818333 6.9666667,21.375 10.64,21.375 c 24.161667,0 43.826667,19.665 43.826667,43.826667 0,24.161666 -19.665,43.763333 -43.826667,43.763333 -3.6733333,0 -7.2516667,-0.44333 -10.64,-1.29833 v 21.78666 c 3.4516667,0.57 7.03,0.88667 10.64,0.88667 30.621667,0 56.335,-21.15333 63.301667,-49.621667 C 80.908333,109.21833 106.59,130.34 137.24333,130.34 c 3.64167,0 7.18834,-0.31667 10.64,-0.88667 v -21.78666 c -3.42,0.855 -6.96666,1.29833 -10.64,1.29833 -24.16166,0 -43.826663,-19.665 -43.826663,-43.826667 0,-24.161666 19.665003,-43.795 43.826663,-43.795 3.67334,0 7.25167,0.443334 10.64,1.298334 V 0.88666667 C 144.43167,0.31666667 140.85333,0 137.24333,0 Z M 51.553333,65.17 c 0,-22.546667 -18.335,-40.881667 -40.881666,-40.881667 C 6.9666667,24.256667 3.3883333,24.763333 0,25.681667 v 78.945003 c 3.3883333,0.91833 6.9666667,1.425 10.64,1.425 22.546667,0 40.913333,-18.335003 40.913333,-40.88167 z"
     id="path1"
     style="fill:#ffffff;fill-opacity:1;stroke-width:0.316667" />
</svg>
