<?xml version="1.0" encoding="UTF-8" standalone="no"?>
<svg
   version="1.1"
   viewBox="0 0 380.00104 65.247"
   id="svg9"
   width="380.00104"
   height="65.247002"
   xmlns="http://www.w3.org/2000/svg"
   xmlns:svg="http://www.w3.org/2000/svg">
  <defs
     id="defs9" />
  <path
     class="st3"
     d="m 84.557931,13.335622 c 0,-1.652953 -0.316733,-3.8008008 -1.04918,-4.7015115 4.790594,0 15.163614,0.029694 19.607789,0.029694 10.22454,0 25.6554,5.6814055 25.6554,24.8140845 0,14.203515 -10.88772,24.774495 -25.6554,24.774495 -3.236629,0 -15.599131,-0.03959 -19.983909,-0.03959 0.890813,-1.652954 1.4253,-3.90968 1.4253,-5.691306 z m 7.354155,40.046986 c 4.721308,0.61367 9.076394,0.80173 13.015774,0.237549 3.81069,-0.544386 16.62849,-3.305905 16.54931,-20.32043 -0.0693,-16.123712 -10.03649,-19.815637 -17.70736,-20.261043 -3.998775,-0.237549 -7.868862,-0.07918 -11.857724,0.613673 z"
     style="fill:#ffffff;stroke-width:0.0989793"
     id="path1" />
  <path
     class="st3"
     d="m 132.98845,23.857111 7.34426,-1.148159 c 0,1.504484 0,5.909058 0,6.473239 1.8905,-4.652021 7.75007,-8.403333 16.08412,-5.156815 l -1.94989,5.117224 c -7.6313,-3.612741 -14.12433,-0.445406 -14.12433,8.027213 v 17.469829 c 0,0.831427 0.17816,2.514073 0.68295,3.583048 h -7.63129 c 0.77203,-0.940303 1.12836,-2.751621 1.12836,-3.583048 V 29.439539 c -0.01,-1.831116 -0.38602,-4.671819 -1.53418,-5.582428 z"
     style="fill:#ffffff;stroke-width:0.0989793"
     id="path2" />
  <path
     class="st3"
     d="m 365.25305,27.360975 c 0,0.475101 0,20.805428 0,22.319809 0,7.007729 4.83018,8.878435 8.41324,8.878435 1.51437,0.06929 3.66223,-0.287039 5.14691,-0.613671 l 0.9205,-4.325391 c -1.75192,0.673058 -3.7711,0.821526 -4.98854,0.821526 -2.24683,0 -3.8701,-1.494586 -3.8701,-3.820595 0,-2.088462 -0.0495,-22.577156 0,-23.23042 h -0.0198 c 0.29694,0 4.94897,-0.0198 5.42407,0 1.52429,0.04949 2.70214,0.138571 3.71171,0.544387 l 0.01,-4.077944 c 0,0 -8.92792,-0.0099 -9.11598,-0.0099 l 0.0396,-10.442306 -6.77018,1.870708 c 0.93041,0.871016 1.23725,3.424679 1.23725,5.107326 0,0 -0.01,3.117844 -0.01,3.493965 -0.30684,0 -3.74141,0.0198 -4.30559,0.0198 v 3.444477 c 0.58398,0.0198 4.17692,0.0198 4.17692,0.0198 z"
     style="fill:#ffffff;stroke-width:0.0989793"
     id="path3" />
  <path
     class="st3"
     d="m 335.99479,50.977412 c 2.90999,2.078563 7.47294,3.919577 10.82833,3.919577 4.64212,0 7.97772,-2.256727 7.97772,-6.512832 0,-7.84905 -17.91523,-6.552423 -17.91523,-16.519629 0,-6.740484 6.02784,-9.274351 11.76863,-9.274351 1.8509,0 6.05752,0.395917 8.73987,1.435199 l -0.0198,4.602532 c -2.37551,-2.029072 -6.01795,-2.533867 -8.40334,-2.533867 -3.80079,0 -6.6514,1.890503 -6.6514,5.592325 0,5.42406 17.89544,5.107326 17.89544,16.252384 0,7.205687 -6.2357,10.561082 -13.11474,10.561082 -3.3455,0 -6.83948,-0.593875 -9.73956,-1.4253 z"
     style="fill:#ffffff;stroke-width:0.0989793"
     id="path4" />
  <path
     class="st3"
     d="m 227.89961,27.43026 c 0,-0.405815 0.01,-4.058146 0.01,-4.523349 l -7.43334,1.148159 c 0.89081,0.930405 1.58366,3.870087 1.58366,5.968446 v 24.368678 c 0,0.831426 -0.35632,2.850602 -1.12836,3.800802 h 8.1064 c -0.77204,-0.940302 -1.12836,-2.969376 -1.12836,-3.800802 V 36.061248 c 0,-6.700893 4.15714,-9.066496 8.28456,-9.066496 3.74141,0 7.12649,1.61336 7.12649,9.066496 v 18.340844 c 0,0.831426 -0.35632,2.850602 -1.12836,3.800802 h 7.85896 c -0.77203,-0.940302 -1.12836,-2.969376 -1.12836,-3.800802 V 36.061248 c 0,-7.43334 4.59262,-9.066496 8.34394,-9.066496 3.74141,0 7.6511,2.345807 7.6511,9.066496 v 18.340844 c 0,0.831426 -0.35632,2.850602 -1.12837,3.800802 h 7.5818 c -0.77204,-0.940302 -1.12836,-2.969376 -1.12836,-3.800802 V 32.57718 c 0,-3.721619 -3.80079,-9.680167 -12.65944,-9.680167 -5.15681,0 -8.13608,2.296318 -10.39281,4.266003 -1.9202,-2.246827 -5.04795,-4.345186 -10.07609,-4.345186 -4.90935,0 -7.80946,2.870396 -9.21496,4.61243 z"
     style="fill:#ffffff;stroke-width:0.0989793"
     id="path5" />
  <path
     class="st3"
     d="m 210.36049,38.872256 c -1.05907,0.999689 -3.28611,1.781626 -5.58242,2.078564 -6.02783,0.791833 -11.25394,1.791523 -11.25394,7.66099 0,3.484067 3.8008,6.225791 6.80978,6.225791 7.96782,0 10.02658,-5.750691 10.02658,-10.283939 z m -18.82584,-14.37178 c 3.03866,-1.217443 7.94804,-1.781626 11.02628,-1.781626 7.85895,0 13.08507,3.919577 13.08507,13.04546 v 15.114122 c 0,2.801112 0.0396,5.453755 1.03928,7.314564 h -6.31489 l -0.22765,-3.978964 c -2.3854,3.088151 -5.2558,4.473861 -10.09587,4.473861 -9.5713,0 -11.65976,-6.542526 -11.65976,-9.680166 0,-11.214344 10.67986,-11.352915 15.31209,-12.006178 2.56355,-0.366223 5.85956,-1.088771 6.36435,-3.493966 0.82153,-3.969065 -2.01917,-6.958237 -7.82925,-6.958237 -4.26599,0 -7.75997,1.296628 -10.67985,3.048559 v -5.097429 z m 135.76977,14.37178 c -1.05907,0.999689 -3.28612,1.781626 -5.58243,2.078564 -6.02784,0.791833 -11.24403,1.791523 -11.24403,7.66099 0,3.484067 3.8008,6.225791 6.80976,6.225791 7.96784,0 10.0266,-5.750691 10.0266,-10.283939 z m -18.81594,-14.37178 c 3.03866,-1.217443 7.95792,-1.781626 11.02627,-1.781626 7.84906,0 13.07516,3.919577 13.07516,13.04546 v 15.114122 c 0,2.801112 -0.61368,5.394367 1.03928,7.314564 h -6.30497 l -0.23755,-3.978964 c -2.39529,3.088151 -5.2459,4.473861 -10.09588,4.473861 -9.5713,0 -11.65975,-6.542526 -11.65975,-9.680166 0,-11.214344 10.67985,-11.352915 15.31208,-12.006178 2.57345,-0.366223 5.86947,-1.088771 6.36437,-3.493966 0.82152,-3.969065 -2.01917,-6.958237 -7.82927,-6.958237 -4.26599,0 -7.75006,1.296628 -10.67985,3.048559 l -0.01,-5.097429 v 0 z"
     style="fill:#ffffff;stroke-width:0.0989793"
     id="path6" />
  <path
     class="st3"
     d="m 301.76778,29.132702 c -2.3656,-1.385708 -6.10701,-2.47448 -8.72005,-2.47448 -9.16549,0 -13.3622,5.631917 -13.3622,13.748211 0,8.037112 4.10763,14.193618 13.06525,14.193618 3.06836,0 7.25517,-1.385709 10.49179,-3.375192 l -1.31642,5.90906 c -3.3059,0.989792 -6.08721,1.454994 -9.75934,1.454994 -12.59016,0 -18.48932,-8.927925 -18.48932,-18.222072 0,-10.27404 7.91834,-17.489624 18.62789,-17.489624 4.68172,0 8.0965,1.148159 9.4822,1.544076 z"
     style="fill:#ffffff;stroke-width:0.0989793"
     id="path7" />
  <path
     class="st3"
     d="m 160.8313,40.832044 c 0.01,-0.851222 0.11878,-1.652952 0.21776,-2.434889 h 24.35879 c 0,-8.373639 -4.18683,-15.549632 -14.11444,-15.549632 -10.30374,0 -16.41076,8.056907 -16.41076,18.330949 0,9.284248 6.80977,17.588604 18.45962,17.588604 3.69193,0 6.77018,-0.900712 10.0959,-2.068665 l 1.16795,-5.938753 c -2.84072,2.345807 -7.44325,3.731515 -11.59048,3.731515 -7.46303,-0.02969 -12.22393,-5.424059 -12.18434,-13.659129 z m 0.97989,-6.156506 c 0.79184,-4.077944 4.56295,-8.225171 9.07639,-8.225171 6.89886,0 8.88834,5.384467 8.88834,8.225171 -0.01,0 -17.96473,0.0099 -17.96473,0 z"
     style="fill:#ffffff;stroke-width:0.0989793"
     id="path8" />
  <path
     class="st3"
     d="m 44.817781,0.90383484 c 2.731827,0.40581486 5.523041,1.36591296 6.978036,1.81131936 2.939682,0.8908129 7.690683,3.6820263 9.37333,5.0182455 0.791833,0.6334669 2.464581,2.2864193 3.117845,3.1178443 0.633466,0.81163 1.841012,2.573459 2.603152,3.642435 1.227342,1.791523 2.662541,4.454064 3.889883,6.89885 1.365913,2.731826 1.464891,3.533558 1.870706,5.819977 l 0.900711,4.028455 c 0.07918,0.70275 0.148469,3.246517 -1.356015,3.612739 -1.504484,0.356325 -2.890192,-0.336528 -3.543457,-1.336219 -0.900709,-1.405505 -0.781934,-3.394987 -1.811317,-5.671507 -0.801732,-1.841014 -1.14816,-4.513452 -2.415093,-6.443547 L 63.425872,19.71978 C 61.654144,16.997852 59.813131,14.830208 58.714462,13.424703 57.734567,12.236952 55.933146,10.633489 54.220806,9.4853315 52.637139,8.5153353 50.06368,7.4265641 48.212768,6.8623828 47.618894,6.6644244 45.104821,5.9319782 43.531052,5.724122 41.393102,5.4865718 40.007392,5.1401447 37.988217,5.0015737 35.493941,4.8333091 34.286396,4.6056569 31.059674,4.981778 29.832332,5.3183072 27.892339,5.4469801 26.140408,6.1200387 24.725005,6.704016 22.765216,7.6245226 20.835122,8.7627835 c -2.068665,1.1382608 -5.216204,3.4543735 -7.304664,5.4438555 -2.098361,2.246828 -3.147539,3.454374 -4.6025341,6.295077 -0.6532627,1.395606 -1.8905028,3.563251 -2.3853988,5.107327 -0.3464271,1.563871 -0.9996898,4.47386 -0.8809147,5.889262 0.049489,2.533867 -0.1682648,3.058459 0.019796,5.127123 0.0099,1.870707 0.623569,3.157436 0.8710169,4.681716 0.2177543,1.059078 1.2273421,4.691615 1.8509111,5.542836 2.8407026,6.126812 6.6514026,8.779455 10.9075076,10.689753 1.197648,0.613671 4.94896,1.613361 6.037731,1.900401 1.850912,0.336529 4.285801,0.554284 6.621708,0.603773 2.464583,0.04949 5.85957,-0.28704 7.928234,-1.049181 2.236932,-0.821526 4.820287,-1.98948 4.780696,-1.949888 1.039282,-0.564182 2.622949,-1.504484 3.107947,-1.910299 0.950201,-0.613672 1.524279,-0.841324 2.078563,-1.435199 0.81163,-0.71265 1.306525,-1.118465 1.920198,-1.99938 0.346426,-0.494896 0.890811,-1.257035 1.415402,-1.930094 0.564181,-0.930404 0.890812,-1.920197 1.454994,-3.137641 0.673058,-1.81132 0.554284,-1.71234 0.692854,-3.622639 0.118776,-0.554283 -0.0099,-2.415091 -0.108877,-2.741724 -0.306836,-1.722238 -0.197958,-3.23662 -0.593875,-4.919266 -0.524591,-2.266623 -0.979894,-3.949269 -1.652953,-6.126812 -0.643364,-2.434888 -2.523969,-4.701512 -3.919576,-6.314873 -0.871017,-1.009589 -3.573149,-3.375192 -7.334359,-4.849981 -1.059077,-0.356325 -2.781315,-0.76214 -3.879984,-0.950201 -2.345808,-0.247446 -2.731827,-0.08908 -4.978653,0.07918 -0.772039,0.128673 -2.573461,0.494896 -3.226722,0.732445 -1.930095,0.682957 -2.642746,1.108568 -4.612433,2.316114 -0.910608,0.52459 -1.613361,0.940303 -2.553663,1.821218 -0.752241,0.692853 -1.276831,1.870706 -1.890503,2.563561 -0.831425,1.128363 -1.761829,2.642745 -2.3755,4.266004 -0.673058,1.61336 -0.890813,3.89978 -0.781936,5.364673 0,1.118464 0.306835,3.157436 0.42561,3.602843 0.118776,0.445405 0.425612,1.841012 0.485,2.108255 0.06929,0.277143 0.791833,1.751933 0.890812,1.959789 0.405814,0.86112 1.18775,2.108257 2.494276,3.385089 0.979893,1.059077 2.840703,2.09836 4.246207,2.494276 1.257036,0.692854 3.38509,0.81163 4.553043,0.81163 0.583978,-0.03959 2.048871,-0.118776 2.820907,-0.306837 1.563872,-0.376121 1.850911,-0.386019 3.464272,-1.08877 1.445097,-0.673059 2.424991,-0.91061 3.434579,-1.652953 0,0 1.385708,-1.078874 2.009278,-1.880605 0.33653,-0.415713 0.90071,-2.405195 0.801731,-3.642435 -0.04949,-1.682647 0.207856,-2.642743 -0.148469,-4.028453 -0.346426,-1.395606 -0.930404,-2.999069 -1.573769,-3.988863 -0.653262,-1.009586 -2.029072,-1.979583 -3.61274,-2.761518 -0.880916,-0.435509 -2.989173,-0.841324 -3.870088,-0.940304 -1.682646,-0.207854 -3.098049,0.564183 -3.959168,1.445098 -0.742344,0.85122 -2.217134,2.622948 -1.623259,4.444166 0.524591,1.652953 1.167956,3.414782 3.642435,3.28611 1.702442,0.356325 3.672128,-0.148469 4.325392,0.13857 0.979894,0.544385 1.336219,1.771728 0.999689,2.622948 -0.247448,1.633157 -1.821217,1.841015 -3.493966,1.95979 -1.504484,0.257345 -5.315183,-0.484999 -6.146608,-1.108568 -0.554284,-0.336529 -1.4253,-1.138262 -2.019175,-1.672748 -0.43551,-0.395917 -0.920507,-1.257037 -1.257037,-1.880605 -0.415713,-0.762141 -0.623569,-1.326321 -0.732445,-1.831115 -0.118776,-0.593876 -0.386018,-1.72224 -0.287039,-2.850601 0.06929,-0.762141 0.277141,-1.088772 0.475099,-2.207237 0.405814,-1.266933 0.900711,-2.227032 1.71234,-3.325701 1.059078,-1.068975 2.395297,-2.345806 3.701821,-2.939682 1.158057,-0.613672 3.167335,-0.831425 4.998452,-0.722548 1.484688,0.13857 3.236619,0.326631 4.394675,0.71265 1.979585,0.712649 2.553664,0.851221 4.186821,1.880605 1.375811,0.85122 2.76152,2.415092 3.533557,3.721617 1.643054,3.365293 2.593255,7.096809 1.9004,12.154647 -0.04949,0.85122 -0.326631,1.672749 -0.85122,2.811009 -0.484998,1.039282 -1.356015,2.306215 -2.642746,3.246517 -0.51469,0.475101 -1.336218,1.078873 -1.999378,1.4253 -0.940304,0.564183 -1.583668,0.871018 -2.57346,1.375812 -0.861118,0.405814 -1.880605,0.871018 -3.197028,1.237241 -1.435199,0.56418 -2.533868,0.593873 -4.315493,0.85122 -1.771728,0.445407 -6.601913,0.128673 -9.492106,-1.148158 -1.969686,-0.821529 -4.176922,-2.286421 -5.849671,-4.068046 -0.930404,-0.979894 -1.850911,-2.751622 -2.108255,-3.107947 -1.326323,-2.573458 -1.593566,-4.978654 -1.811321,-5.483446 -0.296938,-0.692856 -0.435509,-2.236932 -0.633467,-3.296009 -0.227652,-1.187751 -0.07918,-6.156506 1.108567,-9.333739 0.673059,-1.266934 1.068975,-2.395297 1.52428,-2.999069 0.821527,-1.167955 1.217444,-1.9004 1.910298,-2.721928 1.059079,-1.266934 1.821217,-2.316114 2.830806,-3.04856 2.61305,-2.128053 4.780696,-3.23662 7.740174,-4.642124 3.672127,-1.494586 4.760899,-1.18775 8.225172,-1.128363 1.56387,0.0099 3.830493,0.504793 4.948959,0.71265 2.068665,0.277142 3.256416,0.772039 4.66192,1.167955 1.504484,0.415712 2.365602,1.08877 3.592944,1.831115 1.019487,0.653263 2.207238,1.544075 2.989174,2.276521 2.009276,1.474791 2.989171,3.028763 4.216513,4.939062 0.227653,0.316735 1.682646,3.444478 1.920197,4.305596 0.108877,0.435508 0.435508,1.682646 0.653262,2.415093 0.277141,1.158056 0.405816,2.187439 0.71265,3.493965 0.277142,1.356016 0.742344,3.889882 0.930404,6.265384 0.336531,2.038971 -0.207855,6.205996 -0.524589,7.47293 -0.712649,2.385398 -1.959787,5.295387 -4.414473,8.096499 -1.049178,1.237239 -2.157746,2.207235 -3.444475,3.246517 -0.989793,0.811629 -1.831116,1.296628 -3.345497,2.207236 -2.058768,1.227342 -3.622638,2.009277 -6.52273,3.147539 -1.177853,0.37612 -2.662541,0.871016 -4.256106,1.197648 -3.098049,0.28704 -6.275281,0.554282 -9.749451,0.138571 -3.474169,-0.41571 -6.948339,-1.395604 -9.007107,-2.019173 C 18.301255,62.58767 16.103916,61.677063 15.183411,61.162371 14.579636,60.855536 12.570358,59.489624 12.233829,59.153094 10.84812,58.301874 7.7698673,55.401783 5.7803854,52.69965 5.3448769,51.868226 3.7810055,49.354153 3.4345783,48.255484 2.5338675,46.394674 1.9004006,44.147848 1.5341777,43.197646 1.1481588,40.95082 0.48499808,39.505723 0.22765216,37.268793 0.25734592,36.744202 0.12867296,35.487167 0,34.814108 0.16826465,33.279931 -0.0593875,31.824936 0.247448,30.152188 0.51469185,28.736785 0.87101696,28.152809 0.96009825,26.866079 1.0392816,26.321694 1.7420339,24.668741 1.9399923,23.936294 2.5041737,22.728748 2.6526427,21.738957 3.3949865,20.392839 4.4639619,18.304378 5.5824269,15.879387 7.2947671,13.781028 7.7797652,13.127766 9.1753719,11.553997 9.6405741,11.019508 10.759039,9.9010443 11.422199,9.7327796 12.679235,8.6044168 c 0.128674,-0.079184 0.969998,-1.0392817 1.850911,-1.3659131 1.454995,-1.118465 2.712031,-1.5341776 4.097739,-2.5635613 2.771419,-1.3857088 3.781006,-1.850911 6.532627,-2.9990697 1.613361,-0.5542836 3.840394,-0.87101705 4.632228,-1.17785257 1.52428,-0.0890813 3.058458,-0.58397729 4.661921,-0.48499809 1.801421,-0.0197959 3.602841,0.10887712 5.404263,0.27714177 1.227343,0.0890813 2.81101,0.1484688 4.958857,0.61367103 z"
     style="fill:#ffffff;stroke-width:0.0989793"
     id="path9" />
</svg>
