<?xml version="1.0" encoding="UTF-8" standalone="no"?>
<svg
   height="74.681007"
   viewBox="0 0 60.324981 11.855719"
   width="379.99921"
   version="1.1"
   id="svg3"
   xmlns="http://www.w3.org/2000/svg"
   xmlns:svg="http://www.w3.org/2000/svg">
  <defs
     id="defs3" />
  <path
     d="m 31.821622,5.677402 q 0,0.025291 -0.0062,0.042595 -0.0089,0.026178 -0.02884,0.026178 -0.01331,0 -0.02795,-0.00621 -0.01775,-0.00754 -0.01952,-0.018191 0.0062,0 0.0142,0.00222 0.01863,0.00444 0.02307,0.00444 0.01775,0 0.02707,-0.017748 0.0071,-0.014198 0.0071,-0.034164 0,-0.014198 -0.0089,-0.040376 -0.0093,-0.026622 -0.0093,-0.036827 0,-0.00311 0.0018,-0.00532 0.0018,-0.00222 0.0049,-0.00222 0.0084,0 0.01642,0.038158 0.0062,0.031946 0.0062,0.047475 z m 0.0812,0.021741 q 0,0.021297 -0.01242,0.033721 -0.01242,0.012423 -0.03416,0.012423 -0.01198,0 -0.01863,-0.00577 -0.0067,-0.00577 -0.0067,-0.017748 0,-0.016417 0.02219,-0.033721 0.02041,-0.015973 0.03771,-0.015973 0.008,0 0.01065,0.010205 0.0013,0.00577 0.0013,0.01686 z m -0.01287,0.00577 v -0.00444 l -0.0022,-0.00621 q -0.0036,0.00222 -0.01109,0.011536 -0.004,0.00444 -0.0071,0.00666 0,-0.00399 8.87e-4,-0.00666 l 0.0027,-0.00577 q -0.0089,0 -0.01908,0.00754 -0.0102,0.00799 -0.0102,0.01686 0,0.00621 0.0067,0.00621 0.01331,0 0.02529,-0.00621 0.01464,-0.00754 0.01464,-0.019522 z m 0.09983,0.00266 q 0,0.010649 -0.0075,0.023516 -0.0089,0.014642 -0.01819,0.014642 -0.0027,0 -0.0044,-0.00311 -0.0022,-0.00311 -0.0022,-0.00621 0,-0.00444 0.008,-0.01198 0.0084,-0.00799 0.0084,-0.011092 l -4.44e-4,-0.00444 -8.88e-4,-0.00222 q -0.01597,0.00355 -0.03239,0.017748 -0.01642,0.015086 -0.02485,0.01686 -0.0018,-0.00444 -0.0018,-0.00932 0,-0.00621 0.0027,-0.012423 0.0018,-0.00488 0.0067,-0.011536 l 0.01553,-0.025291 0.01464,-0.02529 0.01509,-0.025734 q 0.0027,-0.00444 0.0044,-0.00577 0.0027,-0.00266 0.0067,-0.00355 0.0027,8.874e-4 0.0035,0.00311 0.0013,0.00222 0.0013,0.00532 0,0.0071 -0.0089,0.019523 l -0.01775,0.022628 q -0.0093,0.014642 -0.0093,0.026178 v 0.00222 l 0.0142,-0.00666 q 0.0089,-0.00355 0.01464,-0.00355 0.0067,0 0.0098,0.00444 0.0031,0.00444 0.0031,0.011536 z m 0.0985,-0.012423 q 0,0.014642 -0.0071,0.031059 -0.0075,0.017748 -0.01863,0.024403 l -0.0044,-0.00621 -8.87e-4,-0.00666 q 0,-0.00355 0.0102,-0.021297 0.0044,-0.00799 0.0044,-0.013754 v -0.00266 q -0.008,0.00222 -0.02707,0.014198 l -0.0386,0.023516 q -0.0031,0 -0.0053,-0.00222 -0.0022,-0.00222 -0.0022,-0.00488 0,-0.00444 0.0142,-0.029727 l 0.01509,-0.026622 q 0.0035,0.00444 0.0044,0.00976 8.87e-4,0.00532 8.87e-4,0.012867 v 0.00488 l 0.03062,-0.017748 q 0.01198,-0.00621 0.01642,-0.00621 0.0031,0 0.0053,0.00666 0.0027,0.00666 0.0027,0.010649 z m 0.183689,0.041264 q 0,0.00399 -0.0035,0.00577 -0.0031,0.00177 -0.0075,0.00177 l -0.0089,-8.874e-4 -0.01597,-0.00177 -0.02529,0.00133 -0.01509,8.874e-4 q -0.01287,0 -0.01287,-0.013311 0,-0.01198 0.008,-0.034608 0.0044,-0.013311 0.01686,-0.042151 0.01109,-0.026622 0.01375,-0.03727 8.88e-4,-0.00355 0.0018,-0.00444 0.0018,-0.00266 0.0044,-0.00266 0.0044,0 0.0067,0.00577 0.0027,0.00577 0.0027,0.010205 0,0.00754 -0.0089,0.025291 l -0.01642,0.033721 q -0.0089,0.019966 -0.0089,0.030171 0,0.00532 0.0044,0.00754 0.0027,0.00133 0.0089,0.00133 l 0.01642,-8.874e-4 0.01508,-0.00133 q 0.0093,0 0.01553,0.00266 0.0089,0.00399 0.0089,0.012423 z m 0.07853,-0.03727 q 0,0.021297 -0.01242,0.033721 -0.01287,0.012423 -0.03461,0.012423 -0.01198,0 -0.01863,-0.00577 -0.0067,-0.00577 -0.0067,-0.017748 0,-0.016417 0.02219,-0.033721 0.02041,-0.015973 0.03816,-0.015973 0.008,0 0.0102,0.010205 0.0013,0.00577 0.0013,0.01686 z m -0.01331,0.00577 v -0.00444 l -0.0018,-0.00621 q -0.0036,0.00222 -0.01154,0.011536 l -0.0067,0.00666 q 0,-0.00399 8.88e-4,-0.00666 l 0.0027,-0.00577 q -0.0093,0 -0.01952,0.00754 -0.0098,0.00799 -0.0098,0.01686 0,0.00621 0.0067,0.00621 0.01287,0 0.02485,-0.00621 0.01464,-0.00754 0.01464,-0.019522 z m 0.10205,-0.010205 q 0,0.00666 -0.0035,0.014198 -0.0035,0.00754 -0.0089,0.012867 v -0.00311 l 4.44e-4,-0.00799 4.44e-4,-0.00754 q 0,-0.00355 -8.88e-4,-0.00532 -8.87e-4,-0.00177 -0.0044,-0.00177 -0.0098,0 -0.0244,0.015086 l -0.03195,0.033721 h -0.0027 l -0.0044,-8.874e-4 q 0,-0.00754 0.0053,-0.01686 l 0.01287,-0.026622 0.0027,-0.010205 0.0022,-0.00666 0.004,-0.00621 q 0.0022,-0.00311 0.0058,-0.00444 l 0.0022,0.025291 0.01376,-0.011536 q 0.0093,-0.00754 0.01597,-0.00754 0.0071,0 0.01109,0.00444 0.0044,0.00444 0.0044,0.011092 z m 0.103824,-0.024847 q 0,0.00887 -0.02352,0.023516 -0.02307,0.014198 -0.03328,0.014198 -0.0049,0 -0.0067,-0.00355 -0.0013,-0.00355 -0.0013,-0.00976 v -0.00532 q 0.0142,0 0.02573,-0.00444 0.01154,-0.00444 0.02041,-0.014198 -0.0062,-0.00222 -0.01331,-0.00222 -0.01509,0 -0.03239,0.01198 -0.01908,0.012867 -0.01908,0.027509 0,0.013755 0.01908,0.019522 l 0.03549,0.00577 q 0.01952,0.00311 0.01952,0.010205 0,0.00311 -0.0071,0.00532 -0.0067,0.00222 -0.01775,0.00222 -0.02662,0 -0.04259,-0.00887 -0.02085,-0.010649 -0.02085,-0.035052 0,-0.025291 0.02573,-0.039932 0.0213,-0.013311 0.04881,-0.013311 0.0084,0 0.01509,0.00444 0.008,0.00444 0.008,0.01198 z m 0.0843,-0.037714 q 0,0.00444 -0.01154,0.019522 -0.01109,0.014642 -0.01109,0.022628 0,0.00444 0.0044,0.00799 0.01065,0.00932 0.01065,0.011536 0,0.00266 -0.0018,0.00532 -0.0018,0.00266 -0.0044,0.00266 -0.0022,0 -0.0062,-0.00266 l -0.01154,-0.00843 -0.0044,0.00932 q -0.0062,0.011092 -0.0084,0.016417 l -0.0062,0.019523 q -0.0058,0.013311 -0.01376,0.013311 v -0.00532 q 0,-0.015086 0.0093,-0.035495 l 0.01065,-0.019522 q -0.01686,-0.00887 -0.03683,-0.00887 0,-0.00799 0.0031,-0.011536 0.0035,-0.00444 0.01109,-0.00444 0.0071,0 0.01775,0.00311 l 0.01065,0.00266 q 0.0044,-0.00133 0.01109,-0.013755 0.0173,-0.030171 0.02352,-0.034608 l 0.0027,0.00532 q 0.0013,0.00266 0.0013,0.00532 z m 0.07765,0.075428 q 0,0.010649 -0.0075,0.023516 -0.0089,0.014642 -0.01863,0.014642 -0.0027,0 -0.0044,-0.00311 -0.0018,-0.00311 -0.0018,-0.00621 0,-0.00444 0.008,-0.01198 0.0084,-0.00799 0.0084,-0.011092 l -4.44e-4,-0.00444 -8.87e-4,-0.00222 q -0.01597,0.00355 -0.03239,0.017748 -0.01642,0.015086 -0.02485,0.01686 -0.0018,-0.00444 -0.0018,-0.00932 0,-0.00621 0.0027,-0.012423 0.0018,-0.00488 0.0062,-0.011536 0.0075,-0.011092 0.01553,-0.025291 l 0.01464,-0.02529 0.01553,-0.025734 q 0.0027,-0.00444 0.0044,-0.00577 0.0027,-0.00266 0.0067,-0.00355 0.0027,8.874e-4 0.0035,0.00311 0.0013,0.00222 0.0013,0.00532 0,0.0071 -0.0093,0.019523 l -0.01775,0.022628 q -0.0089,0.014642 -0.0089,0.026178 v 0.00222 l 0.01375,-0.00666 q 0.0089,-0.00355 0.01509,-0.00355 0.0067,0 0.0098,0.00444 0.0031,0.00444 0.0031,0.011536 z m 0.173484,-0.068772 q 0,0.00976 -0.0102,0.026622 -0.0071,0.010649 -0.02218,0.030615 -0.01553,0.019522 -0.01952,0.025734 l 0.01597,0.00488 q 0.01553,0.00444 0.01553,0.01686 l -0.01242,0.00177 h -0.0022 v -0.00177 l -0.0058,-8.874e-4 -0.01242,0.00133 -0.01331,0.00133 q -0.0058,0 -0.0089,-0.00222 -0.004,-0.00222 -0.004,-0.00754 0,-0.00444 0.01642,-0.02529 l 0.03062,-0.039045 q 0.01642,-0.022185 0.01642,-0.030171 0,-0.00311 -0.0022,-0.00444 -0.0018,-0.00133 -0.008,-0.00133 -0.004,0 -0.01642,0.00799 -0.0062,0.00399 -0.0102,0.00399 l -0.0035,-4.436e-4 -0.0027,-0.00311 q -0.0013,-0.00266 -0.0013,-0.00444 0,-0.00887 0.0173,-0.015973 0.01464,-0.00621 0.02529,-0.00621 0.0089,0 0.01375,0.00666 0.0044,0.00577 0.0044,0.015529 z m 0.12734,0.038158 q 0,0.02529 -0.02795,0.045257 -0.02529,0.017748 -0.05191,0.017748 -0.01331,0 -0.0213,-0.00666 -0.008,-0.00666 -0.008,-0.019523 0,-0.02884 0.02529,-0.050137 0.02396,-0.019966 0.05324,-0.019966 0.01509,0 0.02307,0.00887 0.0075,0.00887 0.0075,0.024403 z m -0.01331,0.00444 q 0,-0.00932 -0.01065,-0.014198 -0.0084,-0.00355 -0.01997,-0.00355 -0.01642,0 -0.03461,0.016417 -0.01819,0.015973 -0.01819,0.03239 0,0.0071 0.0035,0.00976 0.0035,0.00266 0.01065,0.00266 0.02085,0 0.04304,-0.011092 0.02662,-0.013311 0.02662,-0.031946 z m 0.110036,-0.042594 q 0,0.00976 -0.01065,0.026622 -0.0067,0.010649 -0.02219,0.030615 -0.01553,0.019522 -0.01908,0.025734 l 0.01553,0.00488 q 0.01553,0.00444 0.01553,0.01686 l -0.01242,0.00177 h -0.0022 v -0.00177 l -0.0053,-8.874e-4 q -0.0044,0 -0.01287,0.00133 l -0.01331,0.00133 q -0.0053,0 -0.0089,-0.00222 -0.004,-0.00222 -0.004,-0.00754 0,-0.00444 0.01642,-0.02529 l 0.03106,-0.039045 q 0.01597,-0.022185 0.01597,-0.030171 0,-0.00311 -0.0022,-0.00444 -0.0018,-0.00133 -0.0075,-0.00133 -0.0044,0 -0.01686,0.00799 -0.0062,0.00399 -0.0098,0.00399 l -0.0036,-4.436e-4 -0.0027,-0.00311 q -0.0013,-0.00266 -0.0013,-0.00444 0,-0.00887 0.01686,-0.015973 0.01464,-0.00621 0.02529,-0.00621 0.0093,0 0.0142,0.00666 0.0044,0.00577 0.0044,0.015529 z m 0.09717,0 q 0,0.00976 -0.01065,0.026622 -0.0067,0.010649 -0.02219,0.030615 -0.01553,0.019522 -0.01908,0.025734 l 0.01553,0.00488 q 0.01553,0.00444 0.01553,0.01686 l -0.01242,0.00177 h -0.0022 v -0.00177 l -0.0053,-8.874e-4 q -0.0044,0 -0.01287,0.00133 l -0.01331,0.00133 q -0.0053,0 -0.0089,-0.00222 -0.0036,-0.00222 -0.0036,-0.00754 0,-0.00444 0.01597,-0.02529 l 0.03106,-0.039045 q 0.01642,-0.022185 0.01642,-0.030171 0,-0.00311 -0.0022,-0.00444 -0.0018,-0.00133 -0.008,-0.00133 -0.0044,0 -0.01686,0.00799 -0.0058,0.00399 -0.0098,0.00399 l -0.0036,-4.436e-4 -0.0027,-0.00311 q -0.0013,-0.00266 -0.0013,-0.00444 0,-0.00887 0.0173,-0.015973 0.0142,-0.00621 0.02529,-0.00621 0.0089,0 0.01376,0.00666 0.0044,0.00577 0.0044,0.015529 z"
     id="path1"
     style="fill:#ffffff;fill-opacity:0.5;stroke-width:0.105599" />
  <path
     d="M 28.748157,11.780404 C 28.621705,11.738694 28.0276,11.506644 27.427726,11.264388 26.827852,11.022131 26.019887,10.720864 25.632987,10.595298 24.961235,10.377001 24.612492,10.274952 22.800005,9.7664796 22.070573,9.561937 22.023541,9.5428582 22.209893,9.5313221 c 0.273314,-0.017748 2.175428,0.3900065 3.000698,0.6429109 0.06655,0.01997 0.07277,-0.01863 0.07277,-0.4303817 V 9.291284 L 24.897343,9.2380408 C 24.414161,9.172818 23.913231,9.001996 23.523668,8.7703881 23.146529,8.546323 22.59768,8.0232085 22.345663,7.6474002 22.161974,7.3740852 21.855826,6.7706622 21.798589,6.5696692 l -0.02662,-0.093619 h 7.302305 l -0.02396,0.093619 c -0.01331,0.051912 -0.0843,0.2395944 -0.159286,0.4175154 -0.332326,0.7937673 -0.99831,1.5338478 -1.69269,1.8821471 a 3.8246365,3.8246365 0 0 1 -1.339067,0.3886754 l -0.283963,0.026622 v 0.9827799 l 0.198774,0.06301 c 0.109148,0.03461 0.486731,0.150855 0.839468,0.258229 1.598183,0.486732 2.702979,0.993429 2.622671,1.202409 -0.03417,0.08963 -0.194337,0.08608 -0.488063,-0.01065 z m -6.55335,-6.2764862 c 0,-0.029727 0.02751,-0.2768647 0.06167,-0.5501797 0.339425,-2.7375878 1.334185,-4.52389712 2.719839,-4.88107025 0.983225,-0.2529052 1.971774,0.16416653 2.600931,1.09769725 0.600317,0.8904925 1.036911,2.4043741 1.154489,4.0016701 l 0.0284,0.3860132 h -3.282887 c -2.649736,0 -3.282443,-0.010205 -3.282443,-0.053687 z"
     fill="#ffffff"
     id="path2"
     style="stroke-width:0.443693" />
  <path
     d="M 2.6385803,7.0666058 V 6.7644507 Q 2.2951617,6.5572459 2.0582294,6.4747189 1.8212972,6.3917483 1.5923514,6.3917483 q -0.3549546,0 -0.571477,0.1699345 -0.21652231,0.1654976 -0.21652231,0.4388127 0,0.2484683 0.18768228,0.4139659 0.18812593,0.1615044 0.48229463,0.1615044 0.2449187,0 0.526664,-0.1242342 0.2861822,-0.1242341 0.6375873,-0.3851258 z m 0,1.1553774 V 7.8328642 Q 2.3200085,8.0937559 2.0054299,8.21799 1.6904077,8.3422241 1.3394462,8.3422241 q -0.60076073,0 -0.97213204,-0.3647159 -0.36782177285,-0.3638285 -0.36782177285,-0.9521659 0,-0.6087472 0.39621814285,-0.9814496 0.40021138,-0.3727024 1.05377167,-0.3727024 0.2249525,0 0.510691,0.07454 0.2901755,0.070547 0.649567,0.2196282 V 5.7213276 q 0,-0.5634905 -0.2085358,-0.8243822 -0.2080922,-0.2608917 -0.6531166,-0.2608917 -0.3150223,0 -0.5515108,0.1286711 Q 0.95964475,4.8929522 0.7635323,5.1702605 L 0.05273559,4.9839093 Q 0.24884804,4.5038331 0.70230262,4.2429415 1.1593068,3.9820498 1.8093175,3.9820498 q 0.8168394,0 1.176231,0.3975492 Q 3.349377,4.7771482 3.349377,5.7044673 V 7.4929951 H 3.9661108 V 8.2219832 Z M 7.4996844,5.6254899 Q 7.3852116,5.1746975 7.1074595,4.9386526 6.8297075,4.7026077 6.4130795,4.7026077 q -0.5883374,0 -0.9273191,0.3891191 -0.3389817,0.3851258 -0.3389817,1.0599834 0,0.6624341 0.3349885,1.0435667 0.3389817,0.3806889 0.9188889,0.3806889 0.4126348,0 0.7476232,-0.2151913 Q 7.487261,7.1455832 7.6918036,6.748034 L 8.3369338,7.0666058 Q 8.1000015,7.6589364 7.581324,8.0027987 7.0622028,8.3422241 6.4010998,8.3422241 q -0.9273191,0 -1.5036767,-0.6007607 -0.575914,-0.6003171 -0.575914,-1.5813231 0,-0.9526095 0.5555041,-1.56535 0.5594973,-0.6127405 1.4176002,-0.6127405 0.3514051,0 0.6411368,0.1158039 0.2941687,0.1118108 0.5634905,0.3518489 V 4.085874 h 0.654004 v 1.5396159 z m 3.3374616,1.9504759 q 0.575914,0 0.902916,-0.3771394 0.326558,-0.3762519 0.326558,-1.0471162 0,-0.6708643 -0.326558,-1.04756 -0.323009,-0.3771393 -0.902916,-0.3771393 -0.572365,0 -0.9029163,0.3815762 -0.3265583,0.376252 -0.3265583,1.0426794 0,0.6628778 0.3305516,1.0440104 0.330995,0.3806889 0.898923,0.3806889 z m 2.05075,-1.4158255 q 0,0.9770128 -0.567927,1.5813231 -0.567928,0.6007607 -1.482823,0.6007607 -0.9109027,0 -1.474837,-0.6007607 -0.5634905,-0.6003171 -0.5634905,-1.5813231 0,-0.9814496 0.5634905,-1.5777734 0.5634906,-0.6003171 1.474837,-0.6003171 0.914895,0 1.482823,0.6043103 0.567927,0.6007608 0.567927,1.5737802 z m 1.004966,1.3332985 V 4.7687181 H 13.316504 V 4.0854303 h 1.278724 v 0.8119588 q 0.212529,-0.4725334 0.514684,-0.6792945 0.302599,-0.211198 0.78445,-0.211198 0.06966,0 0.146863,0.00399 0.07765,0 0.159729,0.00399 v 0.7990917 q -0.0044,0 -0.02485,-0.00399 -0.187683,-0.012423 -0.281746,-0.012423 -0.657553,0 -0.964145,0.3811326 -0.302156,0.3806889 -0.302156,1.2214877 v 1.0928167 h 0.731207 v 0.7289909 h -2.04276 V 7.4929951 Z m 3.010459,0 V 4.7687181 H 16.327407 V 4.0854303 h 1.278724 v 0.6335941 q 0.408198,-0.3354322 0.743186,-0.4885064 0.339426,-0.1530742 0.669977,-0.1530742 0.535095,0 0.756054,0.3061484 0.224509,0.3021552 0.224509,1.1757874 v 1.9336155 h 0.600317 V 8.2219832 H 19.264657 V 5.8659717 q 0,-0.7369747 -0.114473,-0.9273191 -0.11048,-0.1947814 -0.404648,-0.1947814 -0.265329,0 -0.535095,0.1530742 -0.265328,0.1535179 -0.57192,0.4845131 v 2.1119803 h 0.604754 V 8.2219832 H 16.327407 V 7.4929951 Z M 31.244377,6.3753316 q 0.01642,0.5421933 0.363828,0.8736322 0.350518,0.327002 0.918445,0.327002 0.396219,0 0.739193,-0.1907882 0.342975,-0.1899007 0.555505,-0.5377563 l 0.64513,0.3394254 q -0.314579,0.5670401 -0.80841,0.8612088 -0.494274,0.2941686 -1.139404,0.2941686 -0.955716,0 -1.523199,-0.5923306 -0.567928,-0.5963238 -0.567928,-1.5897532 0,-0.9814496 0.563491,-1.5777734 0.56349,-0.6003171 1.474393,-0.6003171 0.943292,0 1.461969,0.6291571 0.522671,0.6256076 0.522671,1.7641247 z m 0.06966,-0.6127405 h 2.315191 Q 33.567999,5.2323776 33.269837,4.9506323 32.971675,4.6693307 32.465421,4.6693307 q -0.502261,0 -0.80841,0.2897318 -0.302155,0.2857385 -0.342974,0.8030849 z M 35.450589,3.025447 h -0.5839 V 2.338166 h 1.3191 v 5.1552728 h 0.596324 V 8.2224269 H 34.866689 V 7.4934388 h 0.5839 z m 2.560555,3.3498846 q 0.01642,0.5421933 0.363828,0.8736322 0.350518,0.327002 0.918445,0.327002 0.396219,0 0.739193,-0.1907882 0.342975,-0.1899007 0.555505,-0.5377563 l 0.64513,0.3394254 q -0.314579,0.5670401 -0.80841,0.8612088 -0.494274,0.2941686 -1.139404,0.2941686 -0.955716,0 -1.523199,-0.5923306 -0.567928,-0.5963238 -0.567928,-1.5897532 0,-0.9814496 0.563491,-1.5777734 0.56349,-0.6003171 1.474393,-0.6003171 0.943292,0 1.461969,0.6291571 0.522671,0.6256076 0.522671,1.7641247 z m 0.06966,-0.6127405 h 2.315191 Q 40.334766,5.2323776 40.036604,4.9506323 39.738442,4.6693307 39.232188,4.6693307 q -0.502261,0 -0.80841,0.2897318 -0.302155,0.2857385 -0.342974,0.8030849 z M 44.945627,5.6254899 Q 44.831154,5.1746975 44.553402,4.9386526 44.27565,4.7026077 43.859022,4.7026077 q -0.587894,0 -0.926876,0.3891191 -0.338981,0.3851258 -0.338981,1.0599834 0,0.6624341 0.334988,1.0435667 0.338982,0.3806889 0.918445,0.3806889 0.412635,0 0.747624,-0.2151913 0.338981,-0.2151913 0.54308,-0.6127405 l 0.64513,0.3185718 q -0.236488,0.5923306 -0.755166,0.9361929 -0.519121,0.3394254 -1.180224,0.3394254 -0.927319,0 -1.502789,-0.6007607 -0.575914,-0.6003171 -0.575914,-1.5813231 0,-0.9526095 0.555504,-1.56535 0.559053,-0.6127405 1.416713,-0.6127405 0.351405,0 0.641136,0.1158039 0.294169,0.1118108 0.563491,0.3518489 V 4.085874 h 0.65356 v 1.5396159 z m 2.417241,1.4535393 q 0,0.3025989 0.06966,0.4139659 0.07321,0.1078175 0.257342,0.1078175 0.09362,0 0.191675,-0.024847 0.10205,-0.02884 0.240926,-0.090957 v 0.720558 q -0.155293,0.06611 -0.318572,0.099387 -0.159286,0.03727 -0.322565,0.03727 -0.473421,0 -0.66554,-0.2280583 Q 46.628112,7.8865511 46.628112,7.2032634 V 4.7691617 H 46.093018 V 4.085874 h 0.535094 V 3.5312574 L 47.362868,2.9145236 V 4.085874 h 0.759603 V 4.7691617 H 47.362868 Z M 48.99211,7.4934388 V 4.7687181 H 48.41664 V 4.0854303 h 1.277836 v 0.8119588 q 0.212973,-0.4725334 0.514685,-0.6792945 0.302599,-0.211198 0.784449,-0.211198 0.06922,0 0.146863,0.00399 0.07765,0 0.159286,0.00444 v 0.798648 q -0.004,0 -0.0244,-0.00399 -0.188126,-0.012423 -0.281746,-0.012423 -0.657553,0 -0.963701,0.3811326 -0.302599,0.3806889 -0.302599,1.2214877 v 1.0928167 h 0.731206 V 8.2219832 H 48.41664 V 7.4929951 Z m 4.582465,0.082527 q 0.57547,0 0.902472,-0.3771394 0.326558,-0.3762519 0.326558,-1.0471162 0,-0.6708643 -0.326558,-1.04756 -0.322565,-0.3771393 -0.902472,-0.3771393 -0.571921,0 -0.902473,0.3815762 -0.327002,0.376252 -0.327002,1.0426794 0,0.6628778 0.330996,1.0440104 0.330551,0.3806889 0.898479,0.3806889 z m 2.049863,-1.4158255 q 0,0.9770128 -0.567928,1.5813231 -0.567483,0.6007607 -1.481935,0.6007607 -0.910903,0 -1.474393,-0.6007607 -0.563491,-0.6003171 -0.563491,-1.5813231 0,-0.9814496 0.563491,-1.5777734 0.56349,-0.6003171 1.474393,-0.6003171 0.914452,0 1.481935,0.6043103 0.567928,0.6007608 0.567928,1.5737802 z m 1.004521,1.3332985 V 4.7687181 H 56.053046 V 4.0854303 h 1.27828 v 0.6335941 q 0.408198,-0.3354322 0.743186,-0.4885064 0.338982,-0.1530742 0.669977,-0.1530742 0.535094,0 0.75561,0.3061484 0.224509,0.3021552 0.224509,1.1757874 v 1.9336155 h 0.600317 V 8.2219832 H 58.989408 V 5.8659717 q 0,-0.7369747 -0.114473,-0.9273191 -0.110036,-0.1947814 -0.403761,-0.1947814 -0.266216,0 -0.535538,0.1530742 -0.265328,0.1535179 -0.571477,0.4845131 V 7.4934388 H 57.96847 V 8.2219832 H 56.053046 V 7.4929951 Z"
     id="path3"
     style="fill:#ffffff;stroke-width:0.117579" />
</svg>
