<?xml version="1.0" encoding="UTF-8" standalone="no"?>
<svg
   height="42"
   viewBox="0 0 105 21"
   width="210"
   version="1.1"
   id="svg7"
   sodipodi:docname="emulators.svg"
   xml:space="preserve"
   inkscape:version="1.4 (e7c3feb100, 2024-10-09)"
   xmlns:inkscape="http://www.inkscape.org/namespaces/inkscape"
   xmlns:sodipodi="http://sodipodi.sourceforge.net/DTD/sodipodi-0.dtd"
   xmlns="http://www.w3.org/2000/svg"
   xmlns:svg="http://www.w3.org/2000/svg"><defs
     id="defs7" /><sodipodi:namedview
     id="namedview7"
     pagecolor="#ffffff"
     bordercolor="#000000"
     borderopacity="0.25"
     inkscape:showpageshadow="2"
     inkscape:pageopacity="0.0"
     inkscape:pagecheckerboard="0"
     inkscape:deskcolor="#d1d1d1"
     showguides="false"
     inkscape:zoom="2.8284271"
     inkscape:cx="110.48543"
     inkscape:cy="61.51829"
     inkscape:window-width="1920"
     inkscape:window-height="1163"
     inkscape:window-x="0"
     inkscape:window-y="0"
     inkscape:window-maximized="1"
     inkscape:current-layer="svg7"><sodipodi:guide
       position="16.524273,-50.815646"
       orientation="0,-1"
       id="guide13"
       inkscape:locked="false" /><sodipodi:guide
       position="15.752444,16.393642"
       orientation="0,-1"
       id="guide14"
       inkscape:locked="false" /><sodipodi:guide
       position="4.072348,16.742822"
       orientation="1,0"
       id="guide15"
       inkscape:locked="false" /><sodipodi:guide
       position="19.315902,3.2752221"
       orientation="1,0"
       id="guide16"
       inkscape:locked="false" /><sodipodi:guide
       position="-3.1794403,8.751062"
       orientation="0,-1"
       id="guide17"
       inkscape:locked="false" /><sodipodi:guide
       position="37.815362,-42.899437"
       orientation="0,-1"
       id="guide18"
       inkscape:locked="false" /><sodipodi:guide
       position="38.555341,44.566012"
       orientation="1,0"
       id="guide19"
       inkscape:locked="false" /><sodipodi:guide
       position="45.955124,2.2392521"
       orientation="0,-1"
       id="guide20"
       inkscape:locked="false" /><sodipodi:guide
       position="41.515254,52.853772"
       orientation="1,0"
       id="guide21"
       inkscape:locked="false" /><sodipodi:guide
       position="88.240755,-2.1427381"
       orientation="1,0"
       id="guide22"
       inkscape:locked="false" /><sodipodi:guide
       position="29.527604,-11.672348"
       orientation="0,-1"
       id="guide23"
       inkscape:locked="false" /><sodipodi:guide
       position="31.155557,-19.220127"
       orientation="0,-1"
       id="guide24"
       inkscape:locked="false" /><sodipodi:guide
       position="89.909841,-0.4246779"
       orientation="1,0"
       id="guide25"
       inkscape:locked="false" /><sodipodi:guide
       position="164.94365,-0.4246779"
       orientation="0,-1"
       id="guide26"
       inkscape:locked="false" /><sodipodi:guide
       position="47.918897,22.647782"
       orientation="1,0"
       id="guide27"
       inkscape:locked="false" /><sodipodi:guide
       position="57.023338,20.450152"
       orientation="1,0"
       id="guide28"
       inkscape:locked="false" /><sodipodi:guide
       position="82.348335,16.892092"
       orientation="1,0"
       id="guide29"
       inkscape:locked="false" /><sodipodi:guide
       position="72.72065,13.961932"
       orientation="1,0"
       id="guide30"
       inkscape:locked="false" /><sodipodi:guide
       position="97.731701,4.1249521"
       orientation="1,0"
       id="guide31"
       inkscape:locked="false" /><sodipodi:guide
       position="100.45257,3.1831121"
       orientation="1,0"
       id="guide32"
       inkscape:locked="false" /><sodipodi:guide
       position="120.75442,-3.7237081"
       orientation="1,0"
       id="guide33"
       inkscape:locked="false" /><sodipodi:guide
       position="123.26599,-7.2817681"
       orientation="1,0"
       id="guide34"
       inkscape:locked="false" /><sodipodi:guide
       position="131.32395,-5.2934381"
       orientation="1,0"
       id="guide35"
       inkscape:locked="false" /><sodipodi:guide
       position="134.46341,-9.0607981"
       orientation="1,0"
       id="guide36"
       inkscape:locked="false" /><sodipodi:guide
       position="149.42818,-13.665338"
       orientation="1,0"
       id="guide37"
       inkscape:locked="false" /><sodipodi:guide
       position="10.14017,-10.044398"
       orientation="1,0"
       id="guide38"
       inkscape:locked="false" /><sodipodi:guide
       position="30.859565,-14.040278"
       orientation="1,0"
       id="guide39"
       inkscape:locked="false" /><sodipodi:guide
       position="46.547107,-32.243747"
       orientation="0,-1"
       id="guide40"
       inkscape:locked="false" /><sodipodi:guide
       position="21.239846,-34.463677"
       orientation="1,0"
       id="guide41"
       inkscape:locked="false" /><sodipodi:guide
       position="33.597485,-27.285887"
       orientation="1,0"
       id="guide42"
       inkscape:locked="false" /><sodipodi:guide
       position="103.69668,16.393652"
       orientation="1,0"
       id="guide47"
       inkscape:locked="false" /><sodipodi:guide
       position="117.09172,16.393652"
       orientation="1,0"
       id="guide48"
       inkscape:locked="false" /><sodipodi:guide
       position="106.1036,-5.7120381"
       orientation="1,0"
       id="guide49"
       inkscape:locked="false" /><sodipodi:guide
       position="114.99874,-6.5492281"
       orientation="1,0"
       id="guide50"
       inkscape:locked="false" /><sodipodi:guide
       position="201.72809,-35.094397"
       orientation="1,0"
       id="guide58"
       inkscape:locked="false" /><sodipodi:guide
       position="211.41429,-11.672348"
       orientation="1,0"
       id="guide59"
       inkscape:locked="false" /><sodipodi:guide
       position="190.25091,2.2392521"
       orientation="1,0"
       id="guide60"
       inkscape:locked="false" /><sodipodi:guide
       position="304.20758,-32.243747"
       orientation="1,0"
       id="guide62"
       inkscape:locked="false" /><sodipodi:guide
       position="313.38331,-32.243747"
       orientation="1,0"
       id="guide63"
       inkscape:locked="false" /><sodipodi:guide
       position="297.8201,5.4853821"
       orientation="1,0"
       id="guide64"
       inkscape:locked="false" /><sodipodi:guide
       position="319.58704,2.2392521"
       orientation="1,0"
       id="guide65"
       inkscape:locked="false" /><sodipodi:guide
       position="309.3421,7.228132"
       orientation="0,-1"
       id="guide66"
       inkscape:locked="false" /><sodipodi:guide
       position="345.2151,-45.798787"
       orientation="1,0"
       id="guide67"
       inkscape:locked="false" /><sodipodi:guide
       position="347.8942,13.907492"
       orientation="1,0"
       id="guide68"
       inkscape:locked="false" /><sodipodi:guide
       position="356.77221,10.887312"
       orientation="1,0"
       id="guide69"
       inkscape:locked="false" /><sodipodi:guide
       position="356.77221,0.7761921"
       orientation="0,-1"
       id="guide70"
       inkscape:locked="false" /><sodipodi:guide
       position="324.19159,-10.918308"
       orientation="1,0"
       id="guide71"
       inkscape:locked="false" /><sodipodi:guide
       position="338.69057,-20.996077"
       orientation="0,-1"
       id="guide72"
       inkscape:locked="false" /><sodipodi:guide
       position="349.41194,-24.313347"
       orientation="0,-1"
       id="guide73"
       inkscape:locked="false" /><sodipodi:guide
       position="350.03983,-39.565897"
       orientation="0,-1"
       id="guide74"
       inkscape:locked="false" /><sodipodi:guide
       position="333.86261,-47.447257"
       orientation="1,0"
       id="guide75"
       inkscape:locked="false" /><sodipodi:guide
       position="332.14489,-41.606557"
       orientation="1,0"
       id="guide76"
       inkscape:locked="false" /><sodipodi:guide
       position="172.6602,10.456202"
       orientation="1,0"
       id="guide78"
       inkscape:locked="false" /><sodipodi:guide
       position="188.30519,8.751062"
       orientation="1,0"
       id="guide79"
       inkscape:locked="false" /><sodipodi:guide
       position="214.5222,0.7761921"
       orientation="1,0"
       id="guide80"
       inkscape:locked="false" /><sodipodi:guide
       position="220.38003,12.496852"
       orientation="1,0"
       id="guide81"
       inkscape:locked="false" /><sodipodi:guide
       position="230.11236,0.7761921"
       orientation="1,0"
       id="guide82"
       inkscape:locked="false" /><sodipodi:guide
       position="234.61226,-19.220127"
       orientation="1,0"
       id="guide83"
       inkscape:locked="false" /><sodipodi:guide
       position="193.65481,-32.243747"
       orientation="1,0"
       id="guide84"
       inkscape:locked="false" /><sodipodi:guide
       position="208.82437,-39.565897"
       orientation="1,0"
       id="guide85"
       inkscape:locked="false" /><sodipodi:guide
       position="425.08686,-2.6116281"
       orientation="1,0"
       id="guide6"
       inkscape:locked="false" /><sodipodi:guide
       position="419.32886,0.1617621"
       orientation="1,0"
       id="guide7"
       inkscape:locked="false" /><sodipodi:guide
       position="424.23114,-22.957787"
       orientation="0,-1"
       id="guide8"
       inkscape:locked="false" /></sodipodi:namedview><g
     id="g1"
     transform="matrix(0.22326703,0,0,0.22326703,1.092766,3.6903555)"><path
       style="font-style:italic;font-size:76.0624px;line-height:0px;font-family:'Changa One';-inkscape-font-specification:'Changa One Italic';letter-spacing:0.891357px;word-spacing:0px;clip-rule:evenodd;fill:#ffffff;fill-rule:evenodd;stroke-width:1.9841;stroke-linecap:round;stroke-linejoin:round;stroke-miterlimit:2"
       d="M 85.478371,35.936385 H 71.20097 l -0.976866,5.752094 H 87.73268 L 85.62866,53.798148 H 53.842733 L 62.108563,6.4947507 H 93.518769 L 89.611257,18.60442 H 74.206751 l -1.052,6.357581 H 87.432103 Z M 108.07564,53.798148 H 93.197132 L 104.16813,6.4947507 h 18.63571 l 1.35259,24.0679683 h 0.526 L 134.45118,6.4947507 H 153.0869 L 147.52624,53.798148 H 132.5726 l 3.15602,-22.932689 h -0.526 l -9.39299,22.932689 h -10.8959 L 113.33572,30.865459 H 112.96 Z M 177.86338,6.4947507 171.62642,41.99122 h 5.10975 c 1.75337,0 3.00579,-0.227051 3.75722,-0.681168 0.75145,-0.504585 1.27745,-1.614626 1.57802,-3.33016 l 5.56067,-31.4851413 h 14.27735 l -4.65889,26.5655853 c -0.75149,4.288842 -1.62814,7.745147 -2.63007,10.368909 -0.9518,2.623761 -2.30444,4.843865 -4.05775,6.660316 -1.75337,1.816451 -3.93257,3.077879 -6.53758,3.784272 -2.55488,0.706399 -5.81111,1.059599 -9.7687,1.059599 -6.0616,0 -10.31976,-0.908228 -12.77449,-2.724679 -2.40458,-1.866905 -3.60688,-5.045695 -3.60688,-9.53636 0,-2.472398 0.3509,-5.676414 1.05201,-9.612057 l 4.65889,-26.5655853 z m 53.55656,47.3033973 h -28.55476 l 8.26588,-47.3033973 h 14.27735 L 219.2466,41.688479 h 14.27735 z m 21.09692,0 H 237.48803 L 257.2509,6.4947507 h 22.09238 l 3.30631,47.3033973 h -15.10393 l -0.30078,-7.492854 h -11.79762 z m 12.84963,-32.771796 -5.26009,13.244953 h 6.01153 V 21.026352 Z m 58.14026,-2.421932 h -10.36984 l -6.08667,35.193728 h -14.27736 l 6.08668,-35.193728 h -10.29475 l 2.17915,-12.1096693 h 34.94201 z m 19.51633,3.708587 -3.45659,19.678213 h 5.93638 c 1.95373,0 3.40652,-0.227051 4.35832,-0.681168 0.95185,-0.504585 1.57801,-1.614626 1.87864,-3.33016 l 3.4566,-19.678213 h -6.01154 c -1.90364,0 -3.33137,0.252318 -4.28317,0.756852 -0.95185,0.454101 -1.57806,1.538937 -1.87864,3.254476 z m 8.6416,-16.9535396 c 6.36218,0 10.89585,1.2614223 13.60107,3.784272 2.70516,2.4723916 4.05774,6.3071226 4.05774,11.5041866 0,5.197071 -0.82658,10.646418 -2.47973,16.348053 -1.60308,5.651181 -4.18302,10.066168 -7.73982,13.244958 -3.50674,3.128326 -8.66662,4.692495 -15.4797,4.692495 -6.76297,0 -11.49701,-1.236196 -14.20222,-3.708587 -2.70521,-2.52285 -4.05774,-6.382808 -4.05774,-11.579872 0,-2.472391 0.3509,-5.726867 1.05201,-9.763422 0.7013,-4.087014 1.62809,-7.593776 2.7803,-10.520279 1.15222,-2.976961 2.70516,-5.550264 4.65894,-7.719914 3.75718,-4.1879255 9.69356,-6.2818906 17.80915,-6.2818906 z M 411.4581,53.798148 h -15.70509 l -3.45664,-14.077491 h -3.08088 l -2.40464,14.077491 H 372.5335 l 8.26583,-47.3033973 h 22.54323 c 8.5664,0 12.84963,3.8599573 12.84963,11.5798723 0,3.178785 -0.47598,6.206205 -1.42772,9.08225 -1.75338,5.449352 -4.50867,9.082254 -8.26583,10.898705 z M 392.89752,18.60442 391.24436,28.0651 h 3.30637 c 1.70323,0 2.98066,-0.176567 3.8323,-0.529796 0.90173,-0.403669 1.50288,-1.488483 1.80351,-3.254476 0.3504,-1.816451 0.526,-2.926503 0.526,-3.33016 0,-1.00914 -0.40053,-1.63985 -1.2023,-1.892137 -0.75148,-0.302751 -11.85023,-0.454101 -13.60359,-0.454101 z m 24.17532,34.36119 4.20809,-12.4881 c 4.20803,1.16051 8.06546,1.740766 11.57214,1.740766 3.50672,0 6.33716,-0.15135 8.49131,-0.454102 l 0.60114,-3.784272 -6.23695,-0.605482 c -4.75915,-0.454101 -8.14061,-1.538941 -10.14447,-3.254475 -1.95373,-1.715539 -2.93059,-4.137472 -2.93059,-7.265799 0,-1.362339 0.15038,-2.876049 0.45065,-4.541129 1.15222,-6.458493 3.23118,-10.898705 6.23697,-13.320638 3.05586,-2.4219328 7.76488,-3.6329017 14.12706,-3.6329017 6.36218,0 11.97292,0.6307141 16.83228,1.8921365 l -3.9075,12.1096692 c -4.35838,-0.756853 -7.86511,-1.13528 -10.52019,-1.13528 -2.65509,0 -4.90939,0.126135 -6.76296,0.378452 l -0.60115,3.708588 5.03466,0.529796 c 5.10981,0.555029 8.74176,1.791224 10.8959,3.708586 2.15409,1.866911 3.23117,4.38976 3.23117,7.568545 0,3.229244 -0.70135,6.559405 -2.10401,9.990477 -0.70136,1.765993 -1.47786,3.254476 -2.32945,4.46544 -0.80157,1.160515 -1.85358,2.16965 -3.15607,3.027419 -1.25243,0.807311 -2.4046,1.438025 -3.45666,1.892137 -1.052,0.403667 -2.37952,0.706399 -3.9826,0.908222 -2.35451,0.353184 -5.23507,0.529802 -8.64155,0.529802 -6.21194,0 -11.84775,-0.655941 -16.90742,-1.967821 z"
       id="text1-7"
       aria-label="EMULATORS"
       sodipodi:nodetypes="ccccccccccccccccccccccccccccccccsccccccscscscccccccccccccccccccccccccccccccccccscccsccscsccscscccscccccccsscccccsccscscccsccccsccsccsccccscccccsc" /><path
       id="path2-6"
       style="clip-rule:evenodd;display:inline;fill:#ffffff;fill-rule:evenodd;stroke-width:0.51496;stroke-linecap:round;stroke-linejoin:round;stroke-miterlimit:2"
       d="M 29.162773,6.9037787 A 6.7210825,6.7210825 0 0 1 22.441698,13.624861 6.7210825,6.7210825 0 0 1 15.720576,6.9037787 6.7210825,6.7210825 0 0 1 22.441698,0.1826956 6.7210825,6.7210825 0 0 1 29.162773,6.9037787 Z M 25.67902,28.271881 v 2.806372 c 0,0.0051 -0.001,0.0099 -0.001,0.01488 a 3.1689897,3.1557033 0 0 1 0.01237,0.256835 3.1689897,3.1557033 0 0 1 -3.169567,3.156251 3.1689897,3.1557033 0 0 1 -3.168078,-3.156251 3.1689897,3.1557033 0 0 1 0.01855,-0.118103 c -0.0061,-0.05078 -0.01855,-0.100823 -0.01855,-0.153532 V 28.30148 a 9.2963999,5.7454909 0 0 0 -6.088107,5.380984 9.2963999,5.7454909 0 0 0 9.295998,5.745607 9.2963999,5.7454909 0 0 0 9.29606,-5.745607 9.2963999,5.7454909 0 0 0 -6.176661,-5.410507 z M 24.85964,14.122525 a 5.7581668,5.7581668 0 0 1 -2.418063,0.534113 5.7581668,5.7581668 0 0 1 -2.188038,-0.443814 v 16.862822 c 0,0.03839 0.0061,0.075 0.01237,0.111792 a 2.3069459,2.2972737 0 0 0 -0.01237,0.08597 2.3069459,2.2972737 0 0 0 2.306275,2.297668 2.3069459,2.2972737 0 0 0 2.30732,-2.297668 2.3069459,2.2972737 0 0 0 -0.0061,-0.186977 c 7.3e-5,-0.0034 0.0011,-0.0069 0.0011,-0.01052 z m 0.816094,10.722146 -0.0024,2.827449 c 0,0 0.416196,0.07691 0.564218,0.105347 4.351555,0.957872 7.258333,3.615765 7.25951,6.470667 -2.43e-4,3.728644 -4.891121,6.750996 -10.924161,6.751157 -6.03312,-1.61e-4 -10.923937,-3.022513 -10.924179,-6.751157 0.0061,-2.825279 2.863606,-5.469979 7.154165,-6.44502 l 0.53448,-0.06651 0.02474,-2.911317 L 0.678623,35.089581 C 0.076012,35.411944 0.065485,35.95046 0.653883,36.29645 l 20.240224,11.884914 c 0.588981,0.34602 1.547956,0.365344 2.150446,0.04274 L 44.301795,36.850731 c 0.602612,-0.322363 0.612519,-0.861957 0.02474,-1.207946 z M 0.652387,37.658072 20.447703,49.759585 c 0,0 0.838638,0.536775 1.543625,0.536775 0.687767,0.01734 1.547519,-0.519558 1.547519,-0.519558 L 44.161099,38.208335 40.515827,49.114982 22.042916,60.817304 3.6786996,49.046199 Z" /></g></svg>
