<?xml version="1.0" encoding="UTF-8" standalone="no"?>
<svg
   height="80.151001"
   viewBox="0 0 190.00044 40.075501"
   width="380.00089"
   version="1.1"
   id="svg7"
   xml:space="preserve"
   xmlns="http://www.w3.org/2000/svg"
   xmlns:svg="http://www.w3.org/2000/svg"><defs
     id="defs7" /><path
     id="rect13"
     style="fill:#ffffff;stroke-width:0.503996;stroke-linecap:round;stroke-linejoin:round"
     d="m 159.97041,36.281559 h 29.74623 c 0.15723,0 0.28381,0.126579 0.28381,0.28381 v 3.226321 c 0,0.157231 -0.12658,0.28381 -0.28381,0.28381 h -29.74623 c -0.15723,0 -0.28381,-0.126579 -0.28381,-0.28381 v -3.226321 c 0,-0.157231 0.12658,-0.28381 0.28381,-0.28381 z m -32.0063,0 h 29.74623 c 0.15723,0 0.28381,0.126579 0.28381,0.28381 v 3.226321 c 0,0.157231 -0.12658,0.28381 -0.28381,0.28381 h -29.74623 c -0.15723,0 -0.28381,-0.126579 -0.28381,-0.28381 v -3.226321 c 0,-0.157231 0.12658,-0.28381 0.28381,-0.28381 z m -31.742289,0 h 29.746239 c 0.15723,0 0.28381,0.126579 0.28381,0.28381 v 3.226321 c 0,0.157231 -0.12658,0.28381 -0.28381,0.28381 H 96.221821 c -0.157231,0 -0.28381,-0.126579 -0.28381,-0.28381 v -3.226321 c 0,-0.157231 0.126579,-0.28381 0.28381,-0.28381 z m -32.006298,0 h 29.746235 c 0.15723,0 0.283809,0.126579 0.283809,0.28381 v 3.226321 c 0,0.157231 -0.126579,0.28381 -0.283809,0.28381 H 64.215523 c -0.157231,0 -0.28381,-0.126579 -0.28381,-0.28381 v -3.226321 c 0,-0.157231 0.126579,-0.28381 0.28381,-0.28381 z m -31.925423,0 h 29.746235 c 0.157231,0 0.28381,0.126579 0.28381,0.28381 v 3.226321 c 0,0.157231 -0.126579,0.28381 -0.28381,0.28381 H 32.2901 c -0.157231,0 -0.28381,-0.126579 -0.28381,-0.28381 v -3.226321 c 0,-0.157231 0.126579,-0.28381 0.28381,-0.28381 z m -32.00629047,0 H 30.030045 c 0.15723,0 0.283809,0.126579 0.283809,0.28381 v 3.226321 c 0,0.157231 -0.126579,0.28381 -0.283809,0.28381 H 0.28380953 C 0.12657904,40.0755 -1.4694586e-8,39.948921 -1.4694586e-8,39.79169 v -3.226321 c 0,-0.157231 0.126579054694586,-0.28381 0.283809544694586,-0.28381 z" /><path
     id="path58"
     style="fill:#ffffff;fill-opacity:1;stroke-width:0.545239;stroke-linecap:round;stroke-linejoin:round"
     d="m 181.22547,3.6246057 4.67256,0.08761 v 3.1629654 h 3.73805 V -4.7445326e-8 h -8.41061 z m 0,10.0078193 h 6.00244 v 3.666165 h -6.00244 z m 0,15.167858 v 3.845121 h 8.41061 v -9.020883 h -3.73805 v 5.175762 z M 172.88674,-4.7445326e-8 h 7.40422 V 32.645403 h -7.40422 v -3.845121 h 2.94731 V 3.7122154 h -2.94731 z M 155.59486,32.645404 v -9.020883 h 3.86314 v 9.020883 z M 167.10787,-4.7445326e-8 h 4.3123 V 7.5858294 h -4.3123 z M 155.59486,3.7122154 159.458,-4.7445326e-8 h 6.34856 V 4.451943 h -4.45898 l -1.05524,0.9196702 V 11.91965 l 1.4171,1.712775 h 5.36017 l 4.35056,4.306713 0.006,10.195824 -4.31855,4.510442 h -6.81553 v -3.845121 h 5.51422 l 1.30131,-1.619188 v -7.408587 l -1.30131,-1.611291 h -6.34856 l -3.86314,-4.528792 z M 142.7855,-4.7445326e-8 h 10.5728 V 4.451943 h -3.01332 v 24.34834 h 3.01332 v 3.845121 h -10.5728 v -3.845121 h 3.10258 V 4.451943 l -3.05086,0.00102 z M 131.84321,18.161217 h 4.29664 l 3.24763,10.639066 h 1.258 v 3.845121 h -4.70486 z M 121.82155,3.7122154 V -4.7445326e-8 h 7.5992 V 32.645404 h -6.91021 v -3.845121 h 2.36165 V 3.7122154 Z M 130.36584,-4.7445326e-8 h 5.9665 L 140.64548,4.1485128 v 9.4839122 l -3.74874,3.666165 h -6.5309 v -3.666165 h 4.02432 l 1.94218,-1.879564 V 6.1846817 L 134.61353,4.451943 h -4.24769 z m -19.47507,0 h 5.96651 L 121.17041,4.1485128 v 9.4839122 l -3.74873,3.666165 h -6.53091 v -3.666165 h 4.02432 l 1.94219,-1.879564 V 6.1846817 L 115.13847,4.451943 h -4.2477 z m -8.56536,0 h 7.57257 V 28.800283 h 2.18573 v 3.845121 h -9.7583 v -3.845121 h 2.84531 V 3.7122154 h -2.84531 z M 92.013555,18.161217 h 4.296639 l 3.247628,10.639066 h 1.257998 v 3.845121 H 96.110963 Z M 81.991888,3.7122154 V -4.7445326e-8 h 7.599203 V 32.645404 h -6.910208 v -3.845121 h 2.361646 V 3.7122154 Z M 90.536181,-4.7445326e-8 h 5.966502 L 100.81582,4.1485128 v 9.4839122 l -3.748736,3.666165 h -6.530903 v -3.666165 h 4.024315 l 1.942187,-1.879564 V 6.1846817 L 94.783873,4.451943 H 90.536181 Z M 71.777384,3.6246057 l 4.672563,0.08761 v 3.1629654 h 3.73805 V -4.7445326e-8 h -8.410613 z m 0,10.0078193 h 6.002446 v 3.666165 h -6.002446 z m 0,15.167858 v 3.845121 h 8.410613 v -9.020883 h -3.73805 v 5.175762 z M 63.438658,-4.7445326e-8 h 7.404214 V 32.645403 h -7.404214 v -3.845121 h 2.947308 V 3.7122154 h -2.947308 z m -13.775143,0 h 4.320614 V 28.800283 h 2.795692 l -0.13919,3.845121 h -9.721977 v -3.845121 h 2.744861 z m 5.337232,0 h 6.912986 V 8.1691211 H 57.99976 V 3.7122154 H 55.000747 Z M 41.797759,8.1691211 41.789619,-4.7445326e-8 h 6.684519 L 48.473895,3.7073022 45.597051,3.7122122 V 8.169118 Z M 33.448496,15.975393 V -4.7445326e-8 h 7.538543 V 3.6653218 l -2.859796,0.026535 -0.0012,22.2134852 z M 21.401601,6.8751808 V 28.800283 h -3.110426 v 3.845121 h 7.591229 L 25.800444,15.465508 Z M 18.291175,-4.7445326e-8 V 3.7122154 h 3.110426 L 35.094428,32.645404 h 5.892611 V 28.800283 H 38.124928 L 24.949297,-4.7445326e-8 Z M 8.4428508,3.6246057 l 4.6725632,0.08761 v 3.1629654 h 3.73805 V -4.7445326e-8 H 8.4428508 Z m 0,10.0078193 H 14.445296 V 17.29859 H 8.4428508 Z m 0,15.167858 v 3.845121 h 8.4106132 v -9.020883 h -3.73805 v 5.175762 z M 0.10412404,-4.7445326e-8 H 7.5083382 V 32.645403 H 0.10412404 V 28.800282 H 3.0514324 V 3.7122154 H 0.10412404 Z" /></svg>
