<?xml version="1.0" encoding="UTF-8" standalone="no"?>
<svg
   version="1.1"
   viewBox="0 0 380.00266 50.798999"
   id="svg13"
   width="380.00266"
   height="50.799"
   xmlns="http://www.w3.org/2000/svg"
   xmlns:svg="http://www.w3.org/2000/svg">
  <defs
     id="defs13" />
  <path
     class="st89"
     d="M 48.086817,0 H 0 V 6.473606 L 39.118793,20.232493 H 61.42007 V 13.323354 C 61.42007,5.9687836 55.451287,0 48.086817,0 Z M 37.327169,21.400515 20.479955,15.471324 V 39.66321 l -7.493149,2.682488 V 50.799 H 42.761435 V 36.584783 h -5.434266 z m 1.791624,13.392643 H 61.42007 V 22.024119 H 39.118793 Z"
     style="fill:#ffffff;stroke-width:0.0989848"
     id="path1" />
  <path
     class="st89"
     d="m 81.573375,17.896452 v 5.246195 H 93.33277 V 28.07209 H 81.573375 v 9.542135 H 76.149008 V 12.967009 h 18.767519 v 4.929443 z"
     style="fill:#ffffff;stroke-width:0.0989848"
     id="path2" />
  <path
     class="st89"
     d="M 98.618558,37.614225 V 12.967009 h 5.424372 v 24.647216 z"
     style="fill:#ffffff;stroke-width:0.0989848"
     id="path3" />
  <path
     class="st89"
     d="M 126.60156,37.614225 114.66399,21.94493 v 15.669295 h -5.35508 V 12.967009 h 4.99874 L 125.85918,28.14138 V 12.967009 h 5.35508 v 24.647216 z"
     style="fill:#ffffff;stroke-width:0.0989848"
     id="path4" />
  <path
     class="st89"
     d="m 154.59446,37.614225 -2.25685,-5.523352 h -10.4231 l -2.24695,5.523352 h -5.52335 l 10.56167,-24.825389 h 4.99874 l 10.56167,24.825389 z m -7.46345,-18.30229 -3.27639,7.988074 h 6.55279 z"
     style="fill:#ffffff;stroke-width:0.0989848"
     id="path5" />
  <path
     class="st89"
     d="M 163.18634,37.614225 V 12.967009 h 5.42437 v 19.717772 h 12.28401 v 4.929444 z"
     style="fill:#ffffff;stroke-width:0.0989848"
     id="path6" />
  <path
     class="st89"
     d="M 205.51225,37.614225 H 193.79244 V 12.967009 h 11.44264 c 5.03834,0 8.13656,2.504315 8.13656,6.374621 v 0.06929 c 0,2.781473 -1.47487,4.335534 -3.2368,5.315484 2.85076,1.088832 4.61269,2.741879 4.61269,6.057869 v 0.06929 c -0.0198,4.513707 -3.67233,6.760662 -9.23528,6.760662 z m 2.46471,-17.352036 c 0,-1.623351 -1.267,-2.534011 -3.55355,-2.534011 h -5.35508 v 5.2066 h 4.99874 c 2.39543,0 3.90989,-0.772081 3.90989,-2.6033 z m 1.366,9.858886 c 0,-1.653046 -1.22742,-2.672589 -4.01879,-2.672589 h -6.26573 v 5.414469 h 6.44391 c 2.39543,0 3.84061,-0.841371 3.84061,-2.67259 z"
     style="fill:#ffffff;stroke-width:0.0989848"
     id="path7" />
  <path
     class="st89"
     d="m 228.6054,38.000266 c -6.62208,0 -10.67056,-3.692133 -10.67056,-10.94772 V 12.967009 h 5.42437 v 13.946959 c 0,4.008884 2.00938,6.087565 5.31548,6.087565 3.30609,0 5.31549,-2.009391 5.31549,-5.919291 V 12.967009 h 5.42436 v 13.907365 c 0,7.473352 -4.18706,11.125892 -10.80914,11.125892 z"
     style="fill:#ffffff;stroke-width:0.0989848"
     id="path8" />
  <path
     class="st89"
     d="m 259.02343,37.614225 -5.28579,-7.889089 h -4.25635 v 7.889089 h -5.42436 V 12.967009 h 11.26446 c 5.81041,0 9.29468,3.05863 9.29468,8.13655 v 0.06929 c 0,3.979189 -2.14797,6.473606 -5.28579,7.641627 l 6.01827,8.799749 z m 0.10888,-16.22361 c 0,-2.326142 -1.62335,-3.523858 -4.25634,-3.523858 h -5.38478 v 7.077413 h 5.49366 c 2.64289,0 4.15736,-1.405585 4.15736,-3.484265 v -0.06929 z"
     style="fill:#ffffff;stroke-width:0.0989848"
     id="path9" />
  <path
     class="st89"
     d="M 285.9275,37.614225 273.98993,21.94493 v 15.669295 h -5.35507 V 12.967009 h 4.99872 L 285.18511,28.14138 V 12.967009 h 5.35508 v 24.647216 z"
     style="fill:#ffffff;stroke-width:0.0989848"
     id="path10" />
  <path
     class="st89"
     d="M 322.54197,37.614225 310.60441,21.94493 v 15.669295 h -5.35508 V 12.967009 h 4.99874 l 11.55152,15.184269 V 12.967009 h 5.35508 v 24.647216 z"
     style="fill:#ffffff;stroke-width:0.0989848"
     id="path11" />
  <path
     class="st89"
     d="M 332.19299,37.614225 V 12.967009 h 18.58935 v 4.82056 h -13.20457 v 4.998732 h 11.62081 v 4.830459 h -11.62081 v 5.176905 h 13.38274 v 4.82056 z"
     style="fill:#ffffff;stroke-width:0.0989848"
     id="path12" />
  <path
     class="st89"
     d="m 366.86737,38.03986 c -7.60203,0 -13.06599,-5.67183 -13.06599,-12.679954 v -0.06929 c 0,-7.008124 5.52335,-12.749242 13.13528,-12.749242 7.60204,0 13.066,5.671828 13.066,12.679952 v 0.06929 c 0,7.008124 -5.52335,12.749243 -13.13529,12.749243 z m 7.46346,-12.749243 c 0,-4.226651 -3.09823,-7.75051 -7.46346,-7.75051 -4.36523,0 -7.39416,3.45457 -7.39416,7.671322 v 0.06929 c 0,4.22665 3.09822,7.75051 7.46345,7.75051 4.36523,0 7.39417,-3.45457 7.39417,-7.671323 z"
     style="fill:#ffffff;stroke-width:0.0989848"
     id="path13" />
</svg>
