<?xml version="1.0" encoding="UTF-8" standalone="no"?>
<svg
   viewBox="0 0 380.00088 217.906"
   version="1.1"
   id="svg2"
   width="380.00089"
   height="217.90601"
   xmlns="http://www.w3.org/2000/svg"
   xmlns:svg="http://www.w3.org/2000/svg">
  <defs
     id="defs2" />
  <path
     style="fill:#ffffff;fill-opacity:1;stroke:none;stroke-width:0.352204"
     d="m 90.594152,197.37522 v -20.53064 l 3.518865,-0.35292 c 16.911403,-1.69515 24.998353,-5.34821 35.839883,-16.18973 12.64481,-12.64481 21.11249,-28.49398 35.13336,-65.760281 9.27775,-24.65918 16.96882,-39.630297 29.01806,-56.486407 C 204.62076,23.343348 221.28668,11.421609 239.94854,5.2608646 249.14386,2.2255743 261.65132,0 269.51321,0 h 3.01733 v 20.550021 20.550021 l -3.51887,0.307474 c -9.32564,0.813942 -16.88429,3.127215 -24.18195,7.400853 -9.70743,5.684566 -21.63023,20.277064 -28.33512,34.679724 -2.32666,4.997768 -3.61009,4.612809 15.37368,4.612809 h 16.68212 v 20.847278 20.84729 l -25.5897,0.13524 -25.5897,0.13525 -2.81446,6.22097 c -7.21489,15.94742 -15.63115,30.96503 -23.87694,42.60536 -15.84492,22.36809 -36.99862,34.52968 -66.5316,38.25036 -3.29698,0.41525 -7.695647,0.75724 -9.774352,0.75935 l -3.779496,0.004 z"
     id="path3820" />
  <path
     d="m 21.413624,122.32346 -2.07624,-5.24994 H 8.9875304 l -1.9635349,5.24994 H 0 L 11.216275,95.582762 h 6.270279 l 11.103218,26.740698 z m -7.175795,-19.60223 -3.399469,9.17737 h 6.723214 z m 41.540649,6.15581 c 0,2.34251 -0.434267,4.3631 -1.302449,6.06177 -0.869239,1.70009 -2.014605,3.09799 -3.436803,4.19404 -1.422902,1.09501 -3.028246,1.9005 -4.815679,2.41647 -1.787785,0.51598 -3.600929,0.77414 -5.439783,0.77414 H 30.813233 V 95.582762 h 9.669749 c 1.88781,0 3.750615,0.22048 5.588414,0.661439 1.838854,0.440959 3.475544,1.171077 4.909717,2.190706 1.435581,1.019981 2.594331,2.385823 3.476249,4.098243 0.880861,1.71136 1.321116,3.82598 1.321116,6.34389 z m -6.723214,0 c 0,-1.5106 -0.245486,-2.76339 -0.73681,-3.75801 -0.490972,-0.99463 -1.145366,-1.78779 -1.963535,-2.37913 -0.817817,-0.59136 -1.749395,-1.0126 -2.794031,-1.26442 -1.044987,-0.25183 -2.121674,-0.37792 -3.230058,-0.37792 h -3.209632 v 15.63573 h 3.05924 c 1.157342,0 2.271713,-0.13207 3.342765,-0.39658 1.069641,-0.26415 2.013899,-0.69842 2.831716,-1.3021 0.818169,-0.60509 1.472563,-1.41093 1.963535,-2.41823 0.491324,-1.00729 0.73681,-2.25375 0.73681,-3.73934 z m 38.864254,-0.0377 c 0,2.11568 -0.364883,4.04858 -1.095354,5.79868 -0.730469,1.7501 -1.743759,3.24837 -3.040221,4.49482 -1.296813,1.2454 -2.83876,2.20797 -4.626193,2.88807 -1.787785,0.68011 -3.727018,1.02033 -5.817699,1.02033 -2.089624,0 -4.021812,-0.34022 -5.796918,-1.02033 -1.775106,-0.6801 -3.310714,-1.64267 -4.607527,-2.88807 -1.296462,-1.24645 -2.309751,-2.74472 -3.040222,-4.49482 -0.730117,-1.7501 -1.095352,-3.683 -1.095352,-5.79868 0,-2.13964 0.365235,-4.07182 1.095352,-5.79691 0.730471,-1.72475 1.74376,-3.191675 3.040222,-4.400438 1.296813,-1.209114 2.832421,-2.140341 4.607527,-2.794382 1.775106,-0.655099 3.707294,-0.982648 5.796918,-0.982648 2.090681,0 4.029914,0.327549 5.817699,0.982648 1.787433,0.654041 3.32938,1.585268 4.626193,2.794382 1.296462,1.208763 2.309752,2.675688 3.040221,4.400438 0.730471,1.72509 1.095354,3.65727 1.095354,5.79691 z m -6.910938,0 c 0,-1.15734 -0.189134,-2.23966 -0.5674,-3.24696 -0.37721,-1.0073 -0.899528,-1.86985 -1.567306,-2.58764 -0.667779,-0.71745 -1.473267,-1.28449 -2.416469,-1.70044 -0.94461,-0.41455 -1.98361,-0.62199 -3.117354,-0.62199 -1.132334,0 -2.164643,0.20744 -3.096574,0.62199 -0.930873,0.41595 -1.736363,0.98299 -2.416468,1.70044 -0.680457,0.71779 -1.202775,1.58034 -1.567306,2.58764 -0.365587,1.0073 -0.54838,2.08962 -0.54838,3.24696 0,1.20911 0.189132,2.32314 0.567047,3.34277 0.37721,1.01998 0.899528,1.89485 1.567306,2.62532 0.667778,0.73012 1.466928,1.30316 2.397801,1.71911 0.931931,0.41489 1.96424,0.62199 3.096574,0.62199 1.133744,0 2.166404,-0.2071 3.098687,-0.62199 0.930523,-0.41595 1.736011,-0.98899 2.416469,-1.71911 0.680104,-0.73047 1.208763,-1.60534 1.585973,-2.62532 0.378266,-1.01963 0.5674,-2.13366 0.5674,-3.34277 z m 32.02305,5.70288 c 0,1.46095 -0.28916,2.68837 -0.86818,3.68299 -0.57972,0.99462 -1.34789,1.79413 -2.30377,2.39781 -0.95693,0.60508 -2.04594,1.0397 -3.26739,1.30385 -1.22144,0.26451 -2.47423,0.39658 -3.758,0.39658 H 92.183647 V 95.582762 h 10.650643 c 1.03195,0 2.08926,0.107071 3.17158,0.32121 1.08374,0.214141 2.06568,0.579375 2.94654,1.095354 0.88192,0.51633 1.5997,1.214749 2.15337,2.095258 0.55367,0.881918 0.8305,2.002626 0.8305,3.361786 0,1.48559 -0.40292,2.71337 -1.20842,3.68299 -0.80548,0.96962 -1.8628,1.66839 -3.17193,2.09667 v 0.0754 c 0.75547,0.12538 1.46657,0.35819 2.13294,0.69912 0.66777,0.33953 1.24715,0.77344 1.73813,1.3021 0.49097,0.52865 0.88121,1.14572 1.17072,1.85083 0.28916,0.70511 0.43391,1.49827 0.43391,2.37878 z m -7.32654,-11.21592 c 0,-0.90692 -0.34621,-1.56837 -1.039,-1.98432 -0.69278,-0.41454 -1.71875,-0.62199 -3.07791,-0.62199 h -3.173701 v 5.51339 h 3.476241 c 1.20772,0 2.14528,-0.24583 2.81306,-0.7368 0.66777,-0.49097 1.00131,-1.2144 1.00131,-2.17028 z m 0.86818,10.61295 c 0,-1.10874 -0.41525,-1.87654 -1.24574,-2.30376 -0.83155,-0.42863 -1.93958,-0.64278 -3.3241,-0.64278 h -3.588951 v 6.11849 h 3.626641 c 0.50366,0 1.02597,-0.044 1.56731,-0.13173 0.54098,-0.0887 1.03195,-0.24619 1.47291,-0.4716 0.44096,-0.22682 0.79985,-0.54802 1.07668,-0.96398 0.27683,-0.41596 0.41525,-0.95095 0.41525,-1.60464 z m 10.72918,8.3842 V 95.582762 h 17.97718 v 5.477468 h -11.746 v 5.02277 h 11.10323 v 5.17459 h -11.10323 v 5.55107 h 12.4261 v 5.5148 z"
     style="fill:#ffffff;stroke-width:0.352204"
     id="path1" />
  <path
     d="m 271.28655,101.07678 v 5.52784 h 10.37733 v 5.33976 h -10.37733 v 10.41501 h -6.40024 v -26.8122 h 17.64822 v 5.52959 z m 15.41032,21.28261 v -26.8122 h 6.51329 v 21.1692 h 10.37557 v 5.643 z m 38.09786,0 -2.08364,-5.26403 h -10.37591 l -1.96883,5.26403 h -7.04442 l 11.24797,-26.8122 h 6.28508 l 11.13491,26.8122 z m -7.19552,-19.65471 -3.40828,9.20202 h 6.74118 z m 30.78294,-0.18843 c -0.55542,-0.70724 -1.28131,-1.26935 -2.17803,-1.68636 -0.89565,-0.41701 -1.76066,-0.62551 -2.59433,-0.62551 -0.42863,0 -0.8636,0.0384 -1.30596,0.11482 -0.44203,0.0754 -0.83967,0.22047 -1.19257,0.43532 -0.35397,0.21484 -0.65123,0.49238 -0.89108,0.83296 -0.23985,0.34023 -0.35995,0.77625 -0.35995,1.30738 0,0.45364 0.0951,0.83226 0.28458,1.13621 0.18984,0.30254 0.46738,0.56775 0.83296,0.79492 0.36664,0.22753 0.80232,0.43532 1.30739,0.62375 0.50471,0.18984 1.07281,0.38567 1.70325,0.58783 0.90939,0.30254 1.85646,0.63749 2.84123,1.00414 0.98476,0.36559 1.88076,0.85092 2.68836,1.45636 0.80761,0.60684 1.4768,1.35774 2.00687,2.25339 0.53006,0.89672 0.79492,2.01426 0.79492,3.35192 0,1.53985 -0.28388,2.87188 -0.85163,3.99611 -0.56775,1.12282 -1.33134,2.05053 -2.29109,2.78276 -0.95975,0.73223 -2.05792,1.27498 -3.29522,1.62788 -1.23729,0.35397 -2.51191,0.53112 -3.82458,0.53112 -1.91809,0 -3.77385,-0.33459 -5.56763,-1.00413 -1.79236,-0.66953 -3.28148,-1.62224 -4.467,-2.85813 l 4.24089,-4.31837 c 0.6558,0.80761 1.52047,1.48349 2.59433,2.02729 1.07281,0.54274 2.13928,0.81394 3.19941,0.81394 0.47971,0 0.94709,-0.0507 1.40178,-0.1525 0.45434,-0.10073 0.85198,-0.26451 1.19256,-0.49168 0.34023,-0.22752 0.61177,-0.53006 0.81394,-0.90833 0.20216,-0.37932 0.30325,-0.83403 0.30325,-1.36409 0,-0.50471 -0.12609,-0.93369 -0.37862,-1.28695 -0.25253,-0.35396 -0.61248,-0.67623 -1.0795,-0.96644 -0.46738,-0.29022 -1.04781,-0.55508 -1.74129,-0.79493 -0.69456,-0.23985 -1.48384,-0.49871 -2.36787,-0.77626 -0.85797,-0.27754 -1.69727,-0.60614 -2.51721,-0.98546 -0.82169,-0.37792 -1.55391,-0.86396 -2.19704,-1.45812 -0.64418,-0.59276 -1.16156,-1.31196 -1.55251,-2.15725 -0.39165,-0.8467 -0.58783,-1.87548 -0.58783,-3.08636 0,-1.48947 0.30361,-2.76515 0.9101,-3.82634 0.60544,-1.060132 1.40071,-1.93078 2.38512,-2.611589 0.98475,-0.681866 2.09596,-1.180587 3.3329,-1.495809 1.23729,-0.316631 2.48727,-0.47477 3.74956,-0.47477 1.51483,0 3.06101,0.27824 4.63852,0.834723 1.57752,0.555072 2.95992,1.375354 4.14685,2.460493 z m 25.14311,19.84314 v -11.21028 h -10.4527 v 11.21028 h -6.47561 v -26.8122 h 6.47561 v 10.14945 h 10.4527 V 95.54719 h 6.47561 v 26.8122 z"
     style="fill:#ffffff;stroke-width:0.352204"
     id="path2" />
</svg>
