<?xml version="1.0" encoding="UTF-8" standalone="no"?>
<svg
   viewBox="0 0 380 124.69103"
   version="1.1"
   id="svg1"
   width="380"
   height="124.69103"
   xmlns="http://www.w3.org/2000/svg"
   xmlns:svg="http://www.w3.org/2000/svg">
  <defs
     id="defs1" />
  <path
     class="st0"
     d="m 138.60012,92.420929 c 1.04895,-11.380133 10.61816,-20.286324 22.27538,-20.286324 11.65721,0 21.21652,8.906191 22.27537,20.286324 h 7.84734 c -1.06874,-15.704583 -14.14105,-28.113876 -30.11282,-28.113876 -15.97177,0 -29.04408,12.409293 -30.11282,28.113876 z"
     id="path4"
     style="fill:#ffffff;fill-opacity:1;stroke-width:0.0989577" />
  <path
     class="st0"
     d="m 160.8656,116.87337 c -11.83534,0 -21.52329,-9.20306 -22.31496,-20.840485 h -7.83744 c 0.80155,15.961875 13.99261,28.658145 30.1524,28.658145 16.15979,0 29.36074,-12.69627 30.15241,-28.658145 h -7.83745 C 182.39879,107.6802 172.71084,116.87337 160.8656,116.87337 Z"
     id="path6"
     style="fill:#ffffff;fill-opacity:1;stroke-width:0.0989577" />
  <rect
     x="102.88629"
     y="96.032883"
     class="st0"
     width="7.8275523"
     height="26.69878"
     id="rect8"
     style="fill:#ffffff;fill-opacity:1;stroke-width:0.0989577" />
  <polygon
     class="st0"
     points="1039.7,749 1039.7,933.8 1118.8,933.8 1118.8,749 1347.9,749 1347.9,669.9 813.8,669.9 813.8,749 "
     id="polygon10"
     style="fill:#ffffff;fill-opacity:1"
     transform="matrix(0.09895768,0,0,0.09895768,0,0.01424991)" />
  <rect
     x="270.01593"
     y="96.032883"
     class="st0"
     width="7.8275523"
     height="26.69878"
     id="rect12"
     style="fill:#ffffff;fill-opacity:1;stroke-width:0.0989577" />
  <path
     class="st0"
     d="m 312.92397,114.91401 h -1.91978 l -8.40151,-18.87123 h -8.55984 l 10.80618,24.27432 c 0.65312,1.47447 2.1177,2.41457 3.72081,2.41457 h 4.34424 4.34425 3.47341 V 96.032885 h -7.82755 v 18.881125 z"
     id="path14"
     style="fill:#ffffff;fill-opacity:1;stroke-width:0.0989577" />
  <rect
     x="312.92395"
     y="66.306"
     class="st0"
     width="7.8275523"
     height="26.114931"
     id="rect16"
     style="fill:#ffffff;fill-opacity:1;stroke-width:0.0989577" />
  <path
     class="st0"
     d="m 290.44078,68.730461 c -0.65312,-1.474469 -2.11769,-2.414567 -3.7208,-2.414567 h -8.8864 -4.81924 -2.99842 v 26.114931 h 7.82755 V 74.133551 h 6.45204 l 8.14422,18.287378 h 8.55984 z"
     id="path18"
     style="fill:#ffffff;fill-opacity:1;stroke-width:0.0989577" />
  <polygon
     class="st0"
     points="2591,669.9 2532.5,933.8 2613.5,933.8 2672,669.9 "
     id="polygon20"
     style="fill:#ffffff;fill-opacity:1"
     transform="matrix(0.09895768,0,0,0.09895768,0,0.01424991)" />
  <polygon
     class="st0"
     points="2001.4,970.3 2061.2,1240.1 2123.3,1240.1 2142.2,1240.1 2204.2,1240.1 2264,970.3 2183.1,970.3 2140,1164.8 2125.5,1164.8 2082.4,970.3 "
     id="polygon22"
     style="fill:#ffffff;fill-opacity:1"
     transform="matrix(0.09895768,0,0,0.09895768,0,0.01424991)" />
  <polygon
     class="st0"
     points="2342.8,970.3 2402.6,1240.1 2464.6,1240.1 2483.6,1240.1 2545.6,1240.1 2605.4,970.3 2524.4,970.3 2481.3,1164.8 2466.9,1164.8 2423.8,970.3 "
     id="polygon24"
     style="fill:#ffffff;fill-opacity:1"
     transform="matrix(0.09895768,0,0,0.09895768,0,0.01424991)" />
  <polygon
     class="st0"
     points="2249.7,669.9 2191.2,933.8 2272.1,933.8 2303.4,792.8 2334.7,933.8 2415.7,933.8 2357.2,669.9 2330.7,669.9 2276.2,669.9 "
     id="polygon26"
     style="fill:#ffffff;fill-opacity:1"
     transform="matrix(0.09895768,0,0,0.09895768,0,0.01424991)" />
  <polygon
     class="st0"
     points="2074.3,933.8 2015.8,669.9 1934.8,669.9 1993.3,933.8 "
     id="polygon28"
     style="fill:#ffffff;fill-opacity:1"
     transform="matrix(0.09895768,0,0,0.09895768,0,0.01424991)" />
  <path
     class="st0"
     d="m 338.26703,91.253229 h 22.07746 c 2.11769,0 3.93851,0.425518 5.49215,1.1677 h 11.32076 c -3.07759,-5.185382 -8.63901,-8.955669 -16.70406,-8.985357 h -22.18631 c -6.20465,0 -6.20465,-9.302021 0,-9.302021 h 38.45495 v -7.827553 h -38.45495 c -16.62489,0 -16.62489,24.947231 0,24.947231 z"
     id="path30"
     style="fill:#ffffff;fill-opacity:1;stroke-width:0.0989577" />
  <path
     class="st0"
     d="m 378.82978,96.032885 h -8.76765 c 4.74007,6.907245 1.50416,18.871225 -9.71764,18.871225 h -34.368 v 7.82756 h 34.368 c 16.29833,0 22.46339,-15.1999 18.48529,-26.698785 z"
     id="path32"
     style="fill:#ffffff;fill-opacity:1;stroke-width:0.0989577" />
  <path
     id="path5600_6_"
     class="st0"
     d="m 135.78072,33.750605 h 6.18594 c 1.17819,0 2.27237,0.841536 2.31443,1.977768 h 0.042 v -4.671001 h -8.54242 v -8.16381 h 8.24792 c 1.17819,0 2.27237,0.841635 2.31443,1.977867 h 0.042 v -4.671 H 129.0898 v 0.04206 c 1.17828,0.08411 2.01982,1.304559 2.01982,2.440692 V 44.06051 c 0,1.136133 -0.88369,2.398635 -2.01982,2.440692 v 0.04206 h 8.71075 v -0.04206 c -1.17819,-0.08421 -2.06199,-1.304559 -2.06199,-2.440692 z"
     style="fill:#ffffff;fill-opacity:1;stroke-width:0.0989577" />
  <path
     id="path5604_6_"
     class="st0"
     d="m 153.65337,39.546259 c 0,2.735289 2.27236,5.133924 5.09177,5.133924 2.8195,0 5.13392,-2.398635 5.13392,-5.133924 v -16.74829 c 0,-1.136232 -0.88369,-2.398635 -2.06198,-2.440692 v -0.04216 h 8.7529 c -1.17828,0.08421 -2.06198,1.304559 -2.06198,2.440692 v 16.285465 c 0,5.260194 -4.33434,8.29008 -9.72071,8.29008 -5.38646,0 -9.80492,-3.071943 -9.80492,-8.29008 V 22.755813 c 0,-1.136133 -0.88379,-2.398536 -2.01993,-2.440692 v -0.04206 h 8.71085 v 0.04206 c -1.17829,0.08421 -2.01992,1.304559 -2.01992,2.440692 z"
     style="fill:#ffffff;fill-opacity:1;stroke-width:0.0989577" />
  <path
     id="path5608_6_"
     class="st0"
     d="m 225.03035,24.504395 c -1.47278,-2.356479 -4.79727,-2.061981 -4.79727,-2.061981 -5.47058,0 -5.21804,4.166118 -5.21804,4.166118 0,0 -0.37871,2.104038 2.35658,3.492711 l 5.47058,2.903616 c 5.2601,2.819404 4.62885,6.817096 4.62885,6.817096 0,0 0.25254,7.490502 -10.77274,7.490502 0,0 -3.19821,0.08411 -5.00765,-0.589095 l -1.557,-4.839426 h 0.0421 c 1.68327,2.398635 6.56465,2.777445 6.56465,2.777445 6.18594,-0.25254 6.228,-4.460616 6.228,-4.460616 0,0 0.2946,-1.80954 -2.14609,-3.114099 l -5.42852,-2.903517 c -5.68097,-3.029887 -5.00766,-7.111792 -5.00766,-7.111792 0,0 -0.16833,-7.364232 9.59454,-7.364232 0,0 4.37641,0.12627 5.09177,0.799578 v 3.997692 z"
     style="fill:#ffffff;fill-opacity:1;stroke-width:0.0989577" />
  <path
     id="path5612_6_"
     class="st0"
     d="m 182.4362,11.067328 c 0.9678,0.925848 2.31442,1.514943 3.78731,1.514943 2.98773,0 5.38636,-2.356479 5.38636,-5.2180385 0,-2.8615592 -2.39863,-5.2180384 -5.38636,-5.2180384 0,0 -4.12397,-0.37881 -6.01762,4.7551144 V 3.0298862 C 181.59456,1.2624031 183.74066,0 186.18135,0 c 4.20818,0 7.57472,3.2823272 7.57472,7.3642325 0,4.0819055 -3.4086,7.3642325 -7.57472,7.3642325 -2.10404,0 -3.99769,-0.841635 -5.34431,-2.146194 l -2.60902,-2.8614604 c -0.71536,-0.673308 -1.68327,-1.136232 -2.77734,-1.136232 -2.18825,0 -3.91358,1.7253274 -3.91358,3.8293654 0,2.104137 1.76748,3.829464 3.91358,3.829464 0,0 2.90361,0.378711 4.75521,-3.114099 v 3.114099 c -1.13623,1.30446 -2.8195,2.188152 -4.75521,2.188152 -3.4086,0 -6.14389,-2.693133 -6.14389,-5.97546 0,-3.2824264 2.73529,-5.9755596 6.14389,-5.9755596 1.68327,0 3.24027,0.673308 4.33434,1.7673841 z"
     style="fill:#ffffff;fill-opacity:1;stroke-width:0.0989577" />
  <path
     id="path5616_6_"
     class="st0"
     d="m 183.84288,22.715339 c 0,-1.136133 -0.88369,-2.314422 -2.06198,-2.398635 v -0.04206 h 8.71075 v 0.04206 c -1.13613,0.08421 -2.01983,1.262502 -2.01983,2.398635 v 21.419389 c 0,1.136233 0.8837,2.398636 2.01983,2.440693 v 0.04216 h -8.71075 v -0.04216 c 1.17829,-0.08411 2.06198,-1.30446 2.06198,-2.440693 z"
     style="fill:#ffffff;fill-opacity:1;stroke-width:0.0989577" />
  <path
     id="path5620_6_"
     class="st0"
     d="m 178.38843,22.737901 c 0,-1.136133 0.88369,-2.398635 2.01993,-2.440692 v -0.04206 h -8.71085 v 0.04206 c 1.17829,0.08421 2.01992,1.304559 2.01992,2.440692 v 26.805755 c 0,0 -0.0842,4.713156 -3.91358,7.448446 v 0.04206 c 0.75743,-0.12627 8.54253,-1.557 8.54253,-9.08956 z"
     style="fill:#ffffff;fill-opacity:1;stroke-width:0.0989577" />
  <path
     id="path5624_6_"
     class="st0"
     d="m 190.48532,24.993543 h 0.042 c 1.17829,-2.061981 2.98773,-2.061981 2.98773,-2.061981 h 4.71316 v 21.209005 c 0,1.136133 -0.88369,2.398635 -2.06198,2.440692 v 0.04206 h 8.7529 v -0.04206 C 203.7409,46.497046 202.8572,45.2767 202.8572,44.140567 V 22.931562 h 3.95564 c 1.22034,0 2.14609,0.925848 2.18825,2.104137 h 0.0421 l 1.43073,-4.755214 h -18.59989 z"
     style="fill:#ffffff;fill-opacity:1;stroke-width:0.0989577" />
  <path
     id="path5628_6_"
     class="st0"
     d="m 234.00502,39.546259 c 0,2.735289 2.27237,5.133924 5.13393,5.133924 2.8194,0 5.13392,-2.398635 5.13392,-5.133924 v -16.74829 c 0,-1.136232 -0.88369,-2.398635 -2.01992,-2.440692 v -0.04216 h 8.71085 c -1.17829,0.08421 -2.01993,1.304559 -2.01993,2.440692 v 16.285465 c 0,5.260194 -4.33434,8.29008 -9.76287,8.29008 -5.38636,0 -9.76276,-3.071943 -9.76276,-8.29008 V 22.755813 c 0,-1.136133 -0.8838,-2.398536 -2.06199,-2.440692 v -0.04206 h 8.71075 v 0.04206 c -1.17829,0.08421 -2.06198,1.304559 -2.06198,2.440692 z"
     style="fill:#ffffff;fill-opacity:1;stroke-width:0.0989577" />
  <rect
     x="3.0973752"
     y="100.62452"
     class="st0"
     width="8.5004644"
     height="18.297274"
     id="rect53"
     style="fill:#ffffff;fill-opacity:1;stroke-width:0.0989577" />
  <rect
     x="61.521988"
     y="99.605255"
     class="st0"
     width="8.5004644"
     height="20.118095"
     id="rect55"
     style="fill:#ffffff;fill-opacity:1;stroke-width:0.0989577" />
  <polygon
     class="st0"
     points="469.1,962.6 564.1,1165.3 504.3,1240.1 386.3,988.3 "
     id="polygon57"
     style="fill:#ffffff;fill-opacity:1"
     transform="matrix(0.09895768,0,0,0.09895768,0,0.01424991)" />
  <rect
     x="7.3525558"
     y="106.95779"
     class="st0"
     width="13.903554"
     height="5.3437147"
     id="rect59"
     style="fill:#ffffff;fill-opacity:1;stroke-width:0.0989577" />
  <rect
     x="37.168503"
     y="98.704735"
     class="st0"
     width="5.3437147"
     height="20.217054"
     id="rect61"
     style="fill:#ffffff;fill-opacity:1;stroke-width:0.0989577" />
  <rect
     y="95.270905"
     class="st0"
     width="31.656561"
     height="5.3437147"
     id="rect63"
     style="fill:#ffffff;fill-opacity:1;stroke-width:0.0989577"
     x="0" />
  <polygon
     class="st0"
     points="344.3,962.6 344.3,1016.7 445.4,1016.7 469.1,962.6 "
     id="polygon65"
     style="fill:#ffffff;fill-opacity:1"
     transform="matrix(0.09895768,0,0,0.09895768,0,0.01424991)" />
  <rect
     x="61.521988"
     y="95.270905"
     class="st0"
     width="11.597839"
     height="5.3437147"
     id="rect67"
     style="fill:#ffffff;fill-opacity:1;stroke-width:0.0989577" />
  <rect
     y="117.38795"
     class="st0"
     width="14.705112"
     height="5.3437147"
     id="rect69"
     style="fill:#ffffff;fill-opacity:1;stroke-width:0.0989577"
     x="0" />
  <rect
     x="58.414715"
     y="117.38795"
     class="st0"
     width="14.705112"
     height="5.3437147"
     id="rect71"
     style="fill:#ffffff;fill-opacity:1;stroke-width:0.0989577" />
  <rect
     x="34.071129"
     y="117.38795"
     class="st0"
     width="11.548361"
     height="5.3437147"
     id="rect73"
     style="fill:#ffffff;fill-opacity:1;stroke-width:0.0989577" />
  <rect
     x="24.798794"
     y="97.358917"
     class="st0"
     width="6.8577676"
     height="8.6390057"
     id="rect75"
     style="fill:#ffffff;fill-opacity:1;stroke-width:0.0989577" />
  <polygon
     class="st0"
     points="675.2,962.6 614.9,962.6 498.1,1198.2 537.6,1240.1 "
     id="polygon77"
     style="fill:#ffffff;fill-opacity:1"
     transform="matrix(0.09895768,0,0,0.09895768,0,0.01424991)" />
  <rect
     x="49.904354"
     y="118.05096"
     class="st0"
     width="3.2952907"
     height="4.6806979"
     id="rect79"
     style="fill:#ffffff;fill-opacity:1;stroke-width:0.0989577" />
</svg>
