<?xml version="1.0" encoding="UTF-8" standalone="no"?>
<svg
   version="1.1"
   id="svg53"
   viewBox="0 0 380.0025 54.727001"
   width="380.0025"
   height="54.727001"
   xmlns="http://www.w3.org/2000/svg"
   xmlns:svg="http://www.w3.org/2000/svg">
  <defs
     id="defs1" />
  <path
     id="path0"
     d="M 205.43208,0.73269749 C 190.36997,4.1828916 178.5677,17.260562 182.71794,25.899923 c 3.03939,6.326593 13.64091,6.106535 19.47774,-0.403767 6.06823,-6.768665 5.68713,-18.0221537 -0.61014,-18.0221537 -2.24397,0 -2.24202,-1.0658977 0.003,-2.0106263 5.22005,-2.1986339 22.55349,-2.7067627 24.52542,-0.7195885 0.69028,0.6957456 0.35257,1.0729334 -2.32058,2.5930201 -5.74186,3.2653134 -15.29897,13.6815614 -17.6137,19.1959304 -1.15111,2.742333 -2.18026,3.225836 -8.6589,4.067766 -1.62015,0.21146 -3.77305,1.75539 -3.77305,2.706763 0,1.262505 2.41634,1.448167 5.95722,0.458098 3.01399,-0.843885 3.53149,-0.318949 2.2256,2.258437 -5.17978,10.221987 -13.98565,16.423111 -20.93608,14.741987 -5.58511,-1.349277 -5.90054,-4.072848 -0.57691,-4.978881 6.18549,-1.053389 4.57042,-9.649364 -1.81324,-9.649364 -11.20542,0 -12.49646,13.281704 -1.6819,17.302565 12.51559,4.652114 30.93018,-3.798457 38.0561,-17.465557 2.27055,-4.3531 2.48827,-4.499285 8.78633,-5.900156 8.42672,-1.87265 11.68657,-4.117406 10.6367,-7.323308 -1.22733,-3.748427 0.92283,-7.165787 5.34707,-8.49943 1.875,-0.564414 1.31058,-4.104508 -1.0784,-6.7698382 -2.17362,-2.4241651 -2.09311,-2.6848742 0.93339,-3.050336 0.99515,-0.1192148 1.50953,-0.5870841 1.63695,-1.4903806 0.21147,-1.501325 -2.97763,-1.8538882 -6.79485,-0.7500762 -1.54197,0.4451989 -2.71145,0.3060498 -5.51085,-0.6593948 -4.69081,-1.61624024 -17.96353,-2.06808395 -23.50251,-0.79893471 M 37.090589,2.5283462 C 18.140905,6.6715498 4.4444898,23.688781 14.754813,30.278038 23.369549,35.784199 35.011952,29.809778 36.252958,19.248518 36.983882,13.035667 35.597863,10.330859 31.437852,9.8489179 27.877433,9.4373337 27.914566,8.6524701 31.559412,7.2687965 35.670173,5.7088413 42.567826,6.2302595 49.79498,8.6477797 59.534244,11.906448 65.73146,11.463203 69.081592,7.2676239 71.639043,4.0664128 70.117002,2.7585676 65.330038,4.0445242 63.234984,4.6073745 61.578485,4.4733067 54.528004,3.167025 45.24801,1.4483772 42.491607,1.3467516 37.090589,2.5283462 M 353.20959,3.3526874 c -8.34543,2.6880011 -18.06827,14.1506026 -26.89564,31.7080146 -1.61703,3.216846 -2.16072,3.840672 -3.12265,3.586998 -0.85718,-0.225922 -1.83356,0.426438 -3.69567,2.471069 -2.75834,3.027275 -3.97981,2.841612 -1.93635,-0.295497 0.70122,-1.077623 1.53689,-2.380777 1.85623,-2.895161 0.31934,-0.515163 1.1343,-1.721383 1.8109,-2.680183 1.41533,-2.004763 3.37163,-5.825891 3.95245,-7.720039 0.39673,-1.294165 0.37406,-1.298465 -6.74599,-1.259768 -8.60223,0.04651 -9.38474,0.348263 -15.29233,5.909146 -4.66736,4.392577 -4.67127,4.391796 -5.07386,-0.578485 -0.31817,-3.927835 -1.57208,-5.405708 -4.58997,-5.405708 -3.35482,0 -3.26179,-0.861865 1.00805,-9.328462 4.08145,-8.0944905 4.11194,-8.2258223 1.92854,-8.354027 -5.23723,-0.3072224 -7.66961,1.3363786 -10.55305,7.132955 -0.72584,1.459111 -2.38351,4.495376 -3.68315,6.747949 -8.23872,14.274118 -11.81399,20.677713 -12.36356,22.145423 -0.53587,1.429406 -0.75789,1.562692 -1.53181,0.915413 -0.60623,-0.506564 -1.03423,-0.555814 -1.29611,-0.148139 -0.46788,0.728188 -4.38202,1.533767 -4.90345,1.008832 -0.20051,-0.203642 0.68989,-2.483578 1.97897,-5.069171 3.7496,-7.514052 3.71989,-12.746605 -0.0747,-13.586971 -1.9266,-0.426438 -7.20253,1.051435 -8.81955,2.471068 -1.30277,1.144072 -2.08725,0.55347 -2.54691,-1.913299 -1.00492,-5.398673 -8.80548,-1.924636 -10.34941,4.609118 -0.25758,1.085832 -0.18409,1.527904 0.21146,1.281266 0.83686,-0.521418 0.76025,1.056126 -0.093,1.916037 -0.38305,0.385786 -0.49953,0.701999 -0.25954,0.701999 0.24117,0 -0.77588,2.297914 -2.25765,5.106303 -2.75523,5.222 -4.63492,9.991766 -4.13539,10.495203 0.47881,0.482723 9.67164,-0.515163 9.67164,-1.049481 0,-0.278298 1.17535,-3.023366 2.6114,-6.101454 1.43683,-3.077696 2.61217,-5.799312 2.61217,-6.047122 0,-1.048309 7.37686,-8.428293 8.02218,-8.025307 1.11476,0.69379 0.84271,1.615068 -2.50743,8.494348 -4.88467,10.029289 -4.2843,12.336194 3.20786,12.336194 3.25125,0 4.23076,-0.261491 6.57754,-1.762034 l 2.75836,-1.762034 1.87577,2.004763 c 4.07168,4.350363 15.80436,2.713798 20.99275,-2.927994 1.61546,-1.756953 2.03056,-1.59787 2.93191,1.126482 1.24882,3.775005 6.8183,4.831131 9.67945,1.835126 l 1.27541,-1.335596 1.29768,1.410643 c 2.64306,2.873664 7.23967,1.411425 12.52733,-3.986075 1.83552,-1.874603 3.34779,-3.334497 3.36147,-3.245769 0.0129,0.08795 0.0786,1.778842 0.14501,3.756244 0.26931,7.994819 5.24819,8.450571 12.53788,1.146807 4.9738,-4.982007 5.28727,-5.014449 5.28727,-0.54956 0,7.57698 5.86928,7.283829 13.24418,-0.661741 5.47529,-5.897811 3.95051,-9.265922 -1.61037,-3.55651 -2.77869,2.85373 -3.50765,2.907278 -3.50765,0.260709 0,-3.258668 1.9473,-5.904065 7.04853,-9.577444 15.46861,-11.138573 28.2582,-28.5497998 23.04011,-31.3640514 -2.76617,-1.4927258 -12.45227,1.3484956 -14.95227,4.3839785 -1.05574,1.2820478 -1.78549,0.619917 -1.78549,-1.6181947 0,-3.5408755 -2.60474,-4.1744729 -8.86958,-2.156811 m 5.22278,3.3337154 C 359.0679,8.608302 338.5434,32.05258 337.04364,31.118796 335.40707,30.09902 349.41892,11.274414 354.6632,7.4462507 c 2.37139,-1.7311555 3.38023,-1.9347979 3.76914,-0.7598479 m 17.66646,0.5565964 c -0.573,3.1570428 -20.14847,24.8056718 -21.60797,23.8965128 -0.88767,-0.552688 3.12264,-7.341288 8.10543,-13.721039 C 369.07568,9.124639 376.81605,3.2905394 376.0988,7.2429992 M 232.10805,8.1552857 c 2.42338,4.5633873 -2.12828,13.3755113 -9.30814,18.0190263 -4.99842,3.232872 -5.15828,2.177528 -0.99515,-6.606064 4.37733,-9.238562 8.83597,-14.1771827 10.30329,-11.4129623 M 92.112723,10.849931 c -0.827468,1.200357 -3.150789,5.076988 -5.162979,8.616691 C 74.50528,41.36228 74.962596,40.37221 74.805858,45.786908 c -0.201688,6.955111 1.983657,8.89499 7.208392,6.39656 2.780637,-1.329734 3.829728,-2.752103 4.147113,-5.616777 0.236866,-2.139222 0.161428,-2.392895 -0.484677,-1.63891 -0.420574,0.491712 -1.287129,0.886489 -1.925026,0.87789 -2.019617,-0.02697 -1.068634,-2.405794 5.503035,-13.762863 l 6.262881,-10.821969 3.25906,-0.174718 c 3.833634,-0.206378 5.356064,-3.627648 1.614284,-3.627648 -2.466377,0 -2.498819,-0.384224 -0.34005,-4.09669 2.69581,-4.6337438 2.67314,-4.6790845 -2.223653,-4.6650133 -4.197143,0.012508 -4.211605,0.018762 -5.714494,2.1931613 m -43.877307,1.859752 c -2.242021,1.378201 -7.489427,8.285234 -10.475661,13.792568 -2.333483,4.301896 -2.645787,4.537589 -9.27335,6.997714 -4.865136,1.805421 -7.916254,3.722239 -8.188689,5.144999 -0.319339,1.670962 1.79643,1.195275 7.242398,-1.628748 6.13585,-3.181668 6.911723,-2.828323 4.07871,1.853497 C 26.552781,47.244847 18.797173,51.574495 11.396082,50.159943 4.6969906,48.879459 3.8792943,46.3052 9.7505263,44.976248 15.858625,43.593356 15.130829,37.73385 8.7502945,36.92319 -0.43081002,35.756448 -3.4064901,46.45803 4.7958803,51.13985 17.134028,58.183296 38.785003,50.324499 45.219476,36.467046 c 1.451684,-3.128118 2.034469,-3.838717 3.144145,-3.838717 2.156029,0 2.084499,0.539008 -0.932222,7.031329 -3.107011,6.68971 -3.504915,9.283903 -1.699495,11.102223 1.560346,1.572462 5.939635,1.576371 8.844176,0.0078 2.14704,-1.159707 2.152903,-1.159707 2.768911,0 2.097008,3.950505 11.725657,-0.590993 15.518643,-7.319399 3.129291,-5.552675 0.852874,-7.016477 -2.939721,-1.890631 -3.622176,4.897189 -2.390941,1.076062 1.945352,-6.036178 4.916341,-8.062048 5.515542,-9.706431 3.320426,-9.114266 -0.718807,0.194653 -2.526182,0.356472 -4.016954,0.361162 l -2.71028,0.0082 -3.651491,6.177281 c -3.927053,6.64437 -8.561188,12.827124 -9.501226,12.678985 -1.915254,-0.30136 0.519855,-7.098559 5.163761,-14.414439 2.759529,-4.347237 2.721224,-4.441827 -1.758126,-4.441827 -3.648755,0 -3.949333,0.106316 -5.768434,2.050104 -1.063552,1.137426 -2.079419,1.788613 -2.279152,1.463019 -0.198952,-0.323639 -0.852484,-0.588256 -1.45364,-0.588256 -2.387032,0 -1.579107,-5.0465 2.046978,-12.783346 2.711453,-5.785633 1.739754,-7.1380366 -3.025711,-4.210433 M 189.9146,14.796502 c -1.44465,2.222086 -1.83551,8.471679 -0.53001,8.471679 2.43902,0 7.70401,-3.652274 8.36496,-5.803221 1.30668,-4.244048 4.71076,-6.508348 3.75273,-2.496475 -1.73467,7.270149 -9.32025,13.528731 -13.50254,11.142481 -4.16001,-2.371789 -4.24131,-5.480364 -0.28025,-10.708228 2.05987,-2.718488 3.89851,-3.227008 2.19511,-0.606236 M 31.008678,18.330368 C 28.394552,26.061742 20.34462,31.118014 16.6216,27.365679 c -2.541816,-2.562533 -1.993429,-6.625608 1.400872,-10.367781 1.713175,-1.889457 2.110688,-1.183549 1.239834,2.200198 -0.675811,2.625071 -0.567932,6.41063 0.182144,6.41063 1.695587,0 7.572682,-4.355445 8.187127,-6.065885 1.905091,-5.311899 5.157116,-6.478641 3.377101,-1.212473 M 237.08107,17.318801 c -1.32622,1.4767 -1.26524,5.490527 0.10084,6.736224 2.98272,2.721615 7.64539,0.574576 7.64539,-3.52016 0,-3.957541 -5.15713,-6.098717 -7.74623,-3.216064 m -135.77748,9.435951 c -2.712225,0.530017 -2.184163,-0.123515 -5.659372,6.998886 -1.62015,3.3216 -3.624522,6.934395 -4.453163,8.029217 -0.82864,1.095994 -1.341851,2.157983 -1.140944,2.360453 0.201688,0.203252 0.150875,0.656268 -0.111788,1.007658 -3.060889,4.089654 4.564559,8.618646 9.863951,5.857943 1.680726,-0.875936 1.841386,-0.857175 3.140226,0.372889 2.87093,2.717706 8.53461,0.285333 13.43024,-5.766871 3.51039,-4.340202 3.41424,-9.898738 -0.10397,-5.981066 -2.5254,2.813469 -1.67605,0.05941 1.76007,-5.704722 4.80574,-8.059704 4.81043,-7.992866 -0.4663,-7.469493 -2.31432,0.22983 -4.22372,0.460834 -4.24209,0.514382 -0.42605,1.215991 -8.89421,14.254184 -10.41899,16.042016 -5.078151,5.952142 -3.719493,-1.321917 2.0548,-11.003723 3.76328,-6.310959 3.52133,-6.659223 -3.65267,-5.257569 m 21.95586,3.140235 c -3.90243,3.855524 -4.92885,6.242557 -2.68371,6.242557 0.61993,0 1.29104,-0.267353 1.49156,-0.59412 0.20012,-0.326766 0.60272,-0.446371 0.89431,-0.264617 0.29198,0.181363 -1.29378,3.999754 -3.52212,8.484186 -2.22951,4.484823 -4.0533,8.289143 -4.0533,8.454089 0,0.164556 1.81206,0.299796 4.02789,0.299796 h 4.02868 l 3.62609,-7.069634 c 5.13054,-10.005836 10.53664,-14.985888 11.05571,-10.186418 0.26266,2.432374 2.76618,2.788846 4.19128,0.596465 1.94652,-2.99405 1.95512,-0.799716 0.009,2.455826 -6.35318,10.63357 -2.55159,17.060618 8.23872,13.92859 5.84387,-1.696759 14.85534,-12.400295 11.24177,-13.353232 -1.14994,-0.302922 -1.1429,-0.35999 0.29119,-2.48944 6.86833,-10.200098 -5.27868,-13.90592 -14.86237,-4.532899 -1.47827,1.446213 -2.84631,2.370225 -3.04057,2.054404 -0.19387,-0.316213 0.0363,-0.900561 0.51164,-1.298074 3.91299,-3.272349 -1.67408,-6.31604 -7.045,-3.838327 -3.46622,1.599434 -3.87781,1.524387 -5.08637,-0.932611 -1.48413,-3.01594 -4.96833,-2.251792 -9.31439,2.043459 m 222.26685,1.582235 c -1.26642,2.519146 -2.61531,5.765698 -3.98061,9.58409 -0.30566,0.854829 -0.56246,0.959581 -1.0788,0.439336 -1.24178,-1.25156 -2.7904,-0.707863 -5.64178,1.980138 -3.02376,2.849821 -3.88094,2.717707 -3.27549,-0.507347 0.60937,-3.249679 2.4742,-5.51007 8.51898,-10.325567 6.53023,-5.203238 7.60082,-5.433068 5.4577,-1.17065 M 233.39244,29.527571 c -1.29495,0.252892 -2.93972,2.853729 -7.36708,11.651392 -2.20958,4.391796 -2.83966,9.183059 -1.39775,10.636308 0.96271,0.970134 6.07487,0.930657 6.07487,-0.04729 0,-0.998277 4.98788,-11.944543 7.81073,-17.1427 1.23826,-2.279544 2.25101,-4.451207 2.25101,-4.825269 0,-0.668384 -4.49811,-0.834894 -7.37178,-0.272435 m 56.55825,2.883436 c -0.31543,2.826367 -3.28837,7.700886 -7.01648,11.507161 -3.70073,3.776569 -3.8219,1.95825 -0.32911,-4.895235 4.78696,-9.391782 7.97801,-12.2631 7.34559,-6.611926 m -130.68016,-1.29808 c 0.50813,1.334815 -1.29885,4.185417 -4.13969,6.531799 -4.85145,4.006009 -4.06894,0.05824 1.08076,-5.455739 1.95395,-2.092709 2.58677,-2.314721 3.05893,-1.07606 m 155.56557,0.01094 c 0.54448,1.429405 -9.20925,15.29663 -10.28687,14.625508 -1.72295,-1.073324 1.0315,-6.899215 5.62615,-11.901156 3.40017,-3.701523 4.12679,-4.126005 4.66072,-2.724352 M 156.53445,43.058257 c -3.03235,3.529932 -7.73489,5.736383 -8.41579,3.94777 -0.57809,-1.518524 0.88728,-3.153916 3.68512,-4.113498 1.52008,-0.521418 3.41227,-1.309017 4.20691,-1.752262 2.29088,-1.277357 2.52696,-0.414711 0.52376,1.91799"
     stroke="none"
     fill="#ffffff"
     fill-rule="evenodd"
     fill-opacity="1"
     style="stroke-width:0.390869" />
</svg>
