<?xml version="1.0" encoding="UTF-8" standalone="no"?>
<svg
   version="1.1"
   id="Layer_1"
   x="0px"
   y="0px"
   viewBox="0 0 380.00168 104.164"
   width="380.00168"
   height="104.164"
   xmlns="http://www.w3.org/2000/svg"
   xmlns:svg="http://www.w3.org/2000/svg">
  <defs
     id="defs17" />
  <style
     type="text/css"
     id="style1">
	.st0{fill:#FF0000;}
	.st1{fill:#A7A9AC;}
	.st2{fill:#0072BC;}
	.st3{fill:#FFFFFF;}
	.st4{fill:#C4C4C4;}
</style>
  <rect
     x="45.107906"
     y="-138.46523"
     transform="rotate(90)"
     width="7.1844068"
     height="36.555367"
     style="fill:#ffffff;stroke-width:0.0989587"
     id="rect1" />
  <path
     d="m 40.790805,45.115303 h -9.044832 v 44.590822 c 0,3.997935 -3.275535,7.27347 -7.273469,7.27347 H 3.9385591 V 104.164 H 26.817826 c 7.718785,0 13.982875,-6.254193 13.982875,-13.982873 V 45.115303 Z"
     style="fill:#ffffff;stroke-width:0.0989587"
     id="path1" />
  <path
     d="m 156.13715,87.469657 h -9.04483 V 59.57318 c 0,-3.997935 -3.27553,-7.27347 -7.27347,-7.27347 h -20.54384 v -7.184407 h 22.87927 c 7.71878,0 13.98287,6.254195 13.98287,13.982875 z"
     style="fill:#ffffff;stroke-width:0.0989587"
     id="path2" />
  <path
     d="M 88.894664,87.469657 H 79.849832 V 59.57318 c 0,-3.997935 -3.275536,-7.27347 -7.273469,-7.27347 H 52.032522 v -7.184407 h 22.879267 c 7.718784,0 13.982875,6.254195 13.982875,13.982875 z"
     style="fill:#ffffff;stroke-width:0.0989587"
     id="path3" />
  <rect
     x="62.703632"
     y="-199.43875"
     transform="rotate(90)"
     width="7.1844068"
     height="27.827206"
     style="fill:#ffffff;stroke-width:0.0989587"
     id="rect3" />
  <path
     d="M 88.894664,69.884684 V 62.700277 H 62.225275 c -6.838051,0 -12.389638,5.541691 -12.389638,12.389638 0,6.838051 5.541691,12.389638 12.389638,12.389638 H 88.894664 V 80.295147 H 64.016429 c -2.840117,0 -5.135961,-2.295845 -5.135961,-5.135961 v -0.128647 c 0,-2.840116 2.295844,-5.135959 5.135961,-5.135959 h 24.878235 z"
     style="fill:#ffffff;stroke-width:0.0989587"
     id="path4" />
  <rect
     x="123.32241"
     y="45.115303"
     width="9.0448322"
     height="42.36425"
     style="fill:#ffffff;stroke-width:0.0989587"
     id="rect4" />
  <rect
     x="99.542633"
     y="45.115303"
     width="9.0448322"
     height="42.36425"
     style="fill:#ffffff;stroke-width:0.0989587"
     id="rect5" />
  <path
     d="m 366.01881,45.115303 h -42.62155 v 42.36425 h 9.04483 V 52.29971 h 14.73496 v 35.179843 h 9.04483 V 52.29971 h 7.4615 c 3.99793,0 7.27347,3.275535 7.27347,7.27347 v 27.906373 h 9.04483 V 59.088282 c 0,-7.718784 -6.2542,-13.972979 -13.98287,-13.972979 z"
     style="fill:#ffffff;stroke-width:0.0989587"
     id="path5" />
  <path
     d="m 20.533945,52.29971 c 5.106272,0 20.25686,0 20.25686,0 V 45.115303 H 17.288097 C 5.9969015,45.115303 0,55.238786 0,66.29248 0,77.346175 5.9969015,87.469657 17.288097,87.469657 h 23.502708 v -7.184406 c 0,0 -15.150588,0 -20.25686,0 -1.741675,0 -10.380775,-0.860942 -10.380775,-13.992771 0,-13.131828 8.6391,-13.99277 10.380775,-13.99277 z"
     style="fill:#ffffff;stroke-width:0.0989587"
     id="path6" />
  <path
     d="m 185.65655,52.29971 c 5.10627,0 13.77506,0 13.77506,0 v -7.184407 h -17.0308 c -11.2912,0 -17.2881,10.123483 -17.2881,21.177177 0,11.053695 5.9969,21.177177 17.2881,21.177177 h 17.0308 v -7.184406 c 0,0 -8.67869,0 -13.77506,0 -1.74168,0 -10.38078,-0.860942 -10.38078,-13.992771 0,-13.131828 8.6391,-13.99277 10.38078,-13.99277 z"
     style="fill:#ffffff;stroke-width:0.0989587"
     id="path7" />
  <path
     d="m 248.21829,52.29971 c 5.10627,0 13.77506,0 13.77506,0 v -7.184407 h -17.03081 c -11.2912,0 -17.28809,10.123483 -17.28809,21.177177 0,11.053695 5.99689,21.177177 17.28809,21.177177 h 17.03081 v -7.184406 c 0,0 -8.67869,0 -13.77506,0 -1.74168,0 -10.38078,-0.860942 -10.38078,-13.992771 0,-13.131828 8.6391,-13.99277 10.38078,-13.99277 z"
     style="fill:#ffffff;stroke-width:0.0989587"
     id="path8" />
  <path
     d="m 292.23514,44.768948 c -13.61672,0 -22.26572,7.966181 -22.26572,22.265723 0,14.299542 8.649,22.265723 22.26572,22.265723 13.61673,0 22.26573,-7.956285 22.26573,-22.265723 -0.01,-14.299542 -8.6589,-22.265723 -22.26573,-22.265723 z m 0,37.713187 c -8.51045,0 -12.63704,-5.7594 -12.63704,-15.437568 0,-9.688064 4.12659,-15.437568 12.63704,-15.437568 8.51046,0 12.63704,5.7594 12.63704,15.437568 -0.01,9.678168 -4.12658,15.437568 -12.63704,15.437568 z"
     style="fill:#ffffff;stroke-width:0.0989587"
     id="path9" />
  <circle
     class="st0"
     cx="212.87022"
     cy="85.510269"
     r="6.3234658"
     style="fill:#ffffff;stroke-width:0.0989587"
     id="circle9" />
  <path
     d="m 217.54106,81.245151 c 1.02918,1.12813 1.65262,2.622406 1.65262,4.255227 0,3.493244 -2.83022,6.323465 -6.32347,6.323465 -2.34532,0 -4.39377,-1.276568 -5.48231,-3.176577"
     style="fill:#ffffff;stroke-width:0.0989587"
     id="path10" />
  <path
     class="st1"
     d="m 225.88329,76.643567 c -1.1974,-2.078134 -7.699,0.663024 -14.59642,5.917735 -6.89743,5.254711 -12.08287,11.014111 -10.10369,12.755786 2.45418,2.167197 8.79744,-0.880734 15.3683,-5.838568 5.69012,-4.294811 10.22244,-11.2813 9.33181,-12.834953 z m -10.48963,11.746406 c -5.70002,4.304707 -11.63755,6.838052 -13.06256,5.749505 -1.78125,-1.345839 3.16668,-6.343257 9.15368,-10.89536 5.98701,-4.552103 11.58808,-7.382325 12.44902,-5.80888 0.64323,1.167713 -3.6021,7.22399 -8.54014,10.954735 z"
     style="fill:#ffffff;stroke-width:0.0989587"
     id="path11" />
  <path
     d="m 207.3879,88.657163 c -0.53439,-0.930214 -0.84116,-1.998967 -0.84116,-3.146889 0,-3.493245 2.83022,-6.323466 6.32347,-6.323466 1.85053,0 3.51304,0.79167 4.67085,2.068239"
     style="fill:#ffffff;stroke-width:0.0989587"
     id="path12" />
  <rect
     x="122.53074"
     class="st0"
     width="10.064107"
     height="34.991825"
     style="fill:#ffffff;stroke-width:0.0989587"
     id="rect12"
     y="0" />
  <polygon
     class="st0"
     points="1033.2,353.6 1134.9,353.6 1134.9,351.4 1134.9,87.8 1134.9,86.7 1209.2,86.7 1209.2,0 958.9,0 958.9,86.7 1033.2,86.7 1033.2,87.8 1033.2,351.4 "
     style="fill:#ffffff"
     id="polygon12"
     transform="scale(0.09895877)" />
  <path
     class="st0"
     d="m 150.28868,0 c -10.02452,0 -15.35839,8.7479553 -15.35839,17.49591 0,8.747956 5.34377,17.495912 15.35839,17.495912 0,-1.434903 0,0 0,0 h 18.08966 V 34.774112 26.412096 21.780825 13.2011 h -17.75319 v 8.579725 h 7.68909 v 4.631271 h -5.12606 c 0,0 0,0 0,0 -11.88496,0 -11.88496,-17.8323706 0,-17.8323706 h 15.19016 V 0 h -18.08966 c 0,0 0,1.4349021 0,0 z"
     style="fill:#ffffff;stroke-width:0.0989587"
     id="path13" />
  <path
     class="st0"
     d="m 279.133,14.695378 c -2.79063,-1.484382 -6.14533,0.633336 -6.14533,3.790121 0,0.217709 0,0.435418 0,0.653128 0,1.24688 0.62344,2.365114 1.55364,3.186472 1.38543,1.227088 0.86095,4.077101 -1.55364,4.077101 h -45.67938 v -3.344806 c 0,-1.385423 -0.79167,-2.582825 -1.93958,-3.166681 2.54324,-2.058342 4.13647,-5.531796 4.13647,-8.995353 C 229.50518,5.4526283 225.6161,0 220.22284,0 h -16.0709 -5.0271 v 23.700626 h 10.0641 V 8.5797254 h 7.54067 c 1.25677,0 2.37501,0.9401083 2.44428,2.1869896 0.0693,1.335942 -0.9896,2.434385 -2.30574,2.434385 h -4.89846 v 8.579725 h 2.83022 c 1.35573,0 2.45417,1.098443 2.45417,2.454178 v 10.756819 h 10.06411 45.67937 c 7.26358,0 12.13235,-5.442734 12.13235,-10.895362 -0.0198,-3.701058 -2.27606,-7.412011 -5.99691,-9.401082 z"
     style="fill:#ffffff;stroke-width:0.0989587"
     id="path14" />
  <path
     class="st0"
     d="m 116.35572,9.2526451 c -1.82084,0 -3.30522,1.4843809 -3.30522,3.3052229 0,1.820841 1.48438,3.305223 3.30522,3.305223 1.82084,0 3.30523,-1.484382 3.30523,-3.305223 0,-1.830738 -1.48439,-3.3052229 -3.30523,-3.3052229 z"
     style="fill:#ffffff;stroke-width:0.0989587"
     id="path15" />
  <path
     class="st0"
     d="m 98.196788,9.2526451 c -1.820841,0 -3.305223,1.4843809 -3.305223,3.3052229 0,1.820841 1.484382,3.305223 3.305223,3.305223 1.820842,0 3.305222,-1.484382 3.305222,-3.305223 0,-1.830738 -1.47449,-3.3052229 -3.305222,-3.3052229 z"
     style="fill:#ffffff;stroke-width:0.0989587"
     id="path16" />
  <path
     class="st0"
     d="m 182.14351,24.09646 c 0,-1.276567 1.03907,-2.315635 2.31563,-2.315635 h 12.81517 V 13.2011 h -12.81517 c -1.27656,0 -2.31563,-1.039067 -2.31563,-2.315635 0,-1.2765684 1.03907,-2.3156355 2.31563,-2.3156355 h 12.81517 V 0 h -16.05111 -1.65262 c -4.98752,0 -9.02504,4.0474137 -9.02504,9.0250399 v 1.2864641 c 0,3.968247 3.10731,7.17451 4.087,7.17451 -0.97969,0 -4.087,3.21616 -4.087,7.174512 v 1.286464 c 0,4.987522 4.03752,9.025039 9.02504,9.025039 h 1.65262 27.97564 v -8.579725 h -24.7298 c -1.29636,0.01979 -2.32553,-1.019275 -2.32553,-2.295844 z"
     style="fill:#ffffff;stroke-width:0.0989587"
     id="path17" />
</svg>
