<?xml version="1.0" encoding="UTF-8" standalone="no"?>
<svg
   viewBox="8.296 308.6 379.99189 20.22899"
   width="379.99188"
   height="20.228991"
   version="1.1"
   id="svg19"
   xmlns="http://www.w3.org/2000/svg"
   xmlns:svg="http://www.w3.org/2000/svg">
  <defs
     id="defs19" />
  <path
     fill="#ffffff"
     stroke="#ffffff"
     stroke-width="0.0937362"
     opacity="1"
     d="m 172.19765,308.64687 c 1.27055,0 2.49224,0 3.76279,0 0,6.01071 0,11.97254 0,17.93438 -1.27055,0 -2.49224,0 -3.76279,0 0,-5.96184 0,-11.97255 0,-17.93438 z"
     id="path1" />
  <path
     fill="#ffffff"
     stroke="#ffffff"
     stroke-width="0.0937362"
     opacity="1"
     d="m 215.15222,308.64687 c 1.27055,0 2.49223,0 3.76279,0 -0.0489,0.83075 -0.0489,1.66149 -0.0489,2.44338 1.56375,0.0489 3.12751,0.0489 4.69128,0 0,1.07508 0,2.19904 0,3.27412 -1.56377,0 -3.12753,-0.0489 -4.69128,0 0.0977,2.58998 -0.0977,5.22882 0.19546,7.81881 0.34208,0.34206 0.73302,0.733 1.07509,1.07508 1.12396,0.0978 2.29677,0.1466 3.42073,0.19547 0,1.02622 0,2.10131 0,3.17639 -1.75924,-0.0978 -3.51847,0.1466 -5.2777,-0.19547 -1.8081,-0.39094 -3.12751,-2.05244 -3.12751,-3.90941 0,-4.64241 0.0489,-9.28483 0,-13.87837 z"
     id="path2" />
  <path
     fill="#ffffff"
     stroke="#ffffff"
     stroke-width="0.0937362"
     opacity="1"
     d="m 346.80134,308.64687 c 1.27055,0 2.54112,0 3.81167,0 -0.0489,0.83075 -0.0489,1.66149 -0.0978,2.49225 1.61264,0 3.22525,0 4.83789,0 0,1.07507 0,2.15017 0,3.22525 -1.61264,0 -3.22525,0 -4.78903,0 0,2.44337 0,4.93562 0,7.42787 0.48868,0.48867 0.92849,0.97735 1.41717,1.51489 1.12395,0.0489 2.2479,0.0978 3.37186,0.0978 0,1.07509 0,2.15018 0,3.22526 -1.75923,-0.0489 -3.4696,0.0489 -5.17996,-0.0978 -1.31942,-0.29322 -2.39451,-1.2217 -2.98092,-2.39451 -0.43981,-1.6615 -0.43981,-3.37186 -0.39094,-5.03336 0,-3.4696 0,-6.98806 0,-10.45765 z"
     id="path3" />
  <path
     fill="#ffffff"
     stroke="#ffffff"
     stroke-width="0.0937362"
     opacity="1"
     d="m 8.3448141,315.14625 c -0.048868,-1.71036 1.2216883,-3.42073 2.9320519,-3.81166 0.733014,-0.24434 1.514894,-0.19547 2.296774,-0.19547 4.642416,0 9.284832,0 13.927246,0 0,1.07507 0,2.10129 0,3.17638 -4.007137,0 -7.965407,0 -11.972545,0 -0.684145,0 -1.417158,0 -2.101303,0.19546 -0.58641,0.43982 -1.026219,0.97736 -1.514893,1.46604 0.04886,1.90583 0,3.81167 0,5.7175 0.439806,0.48868 0.879615,1.02622 1.270556,1.5149 2.247905,0.34206 4.495811,0.19546 6.743718,0.24433 1.514894,-0.0489 3.127521,0.14661 4.544681,-0.43981 0,-0.58641 0,-1.8081 0,-2.39451 -0.635278,-0.24434 -1.368292,-0.48867 -2.101304,-0.43981 -2.883185,0 -5.766369,0 -8.649553,0 0,-0.87961 0,-1.71035 0,-2.58997 3.958269,0.1466 7.965408,-0.39094 11.87481,0.34207 2.199038,0.92849 2.003568,3.56732 1.905833,5.61976 0,1.12396 -0.879615,1.95471 -1.56376,2.73659 -3.274124,0.53754 -6.597117,0.19547 -9.920109,0.2932 -1.856966,-0.0489 -3.860536,0.2932 -5.619766,-0.48867 -1.2216889,-0.68415 -2.1013044,-2.10131 -2.0524369,-3.56734 0,-2.44338 0,-4.88674 0,-7.37899 z"
     id="path4" />
  <path
     fill="#ffffff"
     stroke="#ffffff"
     stroke-width="0.0937362"
     opacity="1"
     d="m 30.823878,314.36437 c 0,-1.07508 0,-2.15018 0,-3.22525 4.642417,0.0489 9.3337,0 14.024982,0 0.928484,0 1.808099,0.0978 2.687715,0.4398 1.123953,0.48868 1.710363,1.61263 2.345641,2.63885 0.04887,3.07864 0.04887,6.20618 0,9.28483 -0.537543,0.92848 -1.075085,1.9547 -2.052436,2.49225 -1.172821,0.733 -2.638847,0.5864 -3.958271,0.5864 -3.274124,-0.0489 -6.548249,0.0489 -9.773506,0 -1.36829,0 -2.785448,-0.83075 -3.225257,-2.15017 -0.146602,-1.41716 -0.09774,-2.88318 -0.04886,-4.34922 0.09774,-0.92848 0.781882,-1.66149 1.563762,-2.10129 1.172821,-0.39094 2.443377,-0.39094 3.665065,-0.39094 2.834317,0 5.7175,0 8.551818,0 0,0.87962 0,1.71036 0,2.58997 -3.56733,0.0489 -7.183528,-0.14659 -10.750858,0.14661 0,0.97735 0,1.9547 0,2.98092 3.665066,0.19547 7.378998,0.24433 11.09293,-0.0489 0.342074,-0.39095 0.733014,-0.73302 1.075086,-1.12396 0.244337,-2.19903 0.19547,-4.44694 0.04886,-6.64598 -0.78188,-0.5864 -1.612629,-1.31942 -2.638846,-1.17282 -4.202608,0 -8.405217,0 -12.607825,0.0489 z"
     id="path5" />
  <path
     fill="#ffffff"
     stroke="#ffffff"
     stroke-width="0.0937362"
     opacity="1"
     d="m 52.618798,318.61585 c 0,-2.49225 -0.09774,-4.98449 0.146602,-7.47673 4.544681,0.19547 9.13823,-0.43981 13.585175,0.4398 1.319422,-0.1466 2.589978,-0.53754 3.909402,-0.4398 2.247906,0.0978 4.495813,-0.19548 6.694852,0.19547 1.612628,0.19546 2.492245,1.61262 3.225257,2.88318 0.04886,4.10486 0,8.25861 0,12.36348 -1.221689,0 -2.443377,0 -3.713933,0 -0.04886,-3.66507 0.146603,-7.33013 -0.146603,-10.99519 -0.342072,-0.39094 -0.733012,-0.73301 -1.075085,-1.12396 -1.905834,-0.19546 -3.860535,-0.19546 -5.766369,0 -0.439807,0.63528 -1.075085,1.27056 -1.123953,2.15018 -0.19547,3.32299 0.09774,6.64598 -0.146603,10.01784 -1.221687,-0.0489 -2.443376,-0.0489 -3.665064,-0.0489 0.04886,-3.56733 0,-7.13466 0.04886,-10.70199 -0.684145,-0.5864 -1.221688,-1.46602 -2.199039,-1.51489 -2.003568,-0.0977 -4.007137,0 -6.059574,-0.0489 0.04886,4.10487 0,8.16088 0.04886,12.26575 -1.221689,0 -2.394509,0 -3.616198,0.0489 -0.244338,-2.68772 -0.146602,-5.32656 -0.146602,-8.01427 z"
     id="path6" />
  <path
     fill="#ffffff"
     stroke="#ffffff"
     stroke-width="0.0937362"
     opacity="1"
     d="m 85.164573,311.57892 c 1.466028,-0.58641 3.078655,-0.4398 4.642417,-0.4398 2.932051,0 5.864104,-0.0489 8.796155,0 1.319424,-0.0489 2.541115,0.73301 3.127515,1.90582 0.39094,1.71037 0.39094,3.56734 0,5.27769 -0.5864,1.41716 -2.199032,1.85697 -3.61619,1.85697 -3.322993,0.0489 -6.645984,0 -9.968976,0 0,-0.83075 -0.04886,-1.61262 -0.04886,-2.44337 3.567329,-0.39094 7.183526,0.0489 10.750856,-0.29321 0.04886,-1.02622 0.04886,-2.00357 0,-2.98092 -3.7628,-0.19546 -7.525599,-0.24433 -11.2884,0.0489 v 0.24435 c -0.439807,0.58641 -0.97735,1.17282 -0.97735,1.95471 -0.146603,1.80809 -0.04886,3.66505 0.04886,5.52202 0.781879,0.58642 1.56376,1.27056 2.638847,1.17282 4.202607,0.0489 8.454082,0 12.656693,0 0.0489,1.07509 0.0489,2.15018 0,3.22526 -5.033359,-0.0978 -10.017847,0 -15.051203,-0.0489 -2.101304,0 -3.958271,-1.85696 -4.007138,-3.95827 -0.09774,-2.78545 0,-5.61976 -0.04886,-8.40521 0.635278,-1.02622 1.221688,-2.15017 2.345641,-2.63885 z"
     id="path7" />
  <path
     fill="#ffffff"
     stroke="#ffffff"
     stroke-width="0.0937362"
     opacity="1"
     d="m 109.50061,314.65758 c 0.1466,-2.05245 2.19904,-3.6162 4.2026,-3.51846 3.76281,-0.0489 7.5256,0 11.2884,0 0.97735,0.63527 2.19904,1.31941 2.24792,2.58997 0.0489,1.95471 0.0978,3.90941 -0.0489,5.8641 -0.39094,1.31944 -1.75923,2.34564 -3.12752,2.24792 -2.88318,0.0489 -5.7175,-0.0489 -8.55181,0.0489 0,-0.87963 0,-1.75923 0,-2.58998 2.88318,-0.0489 5.76636,0.1466 8.60067,-0.0978 0.24435,-1.56375 0.0977,-3.17639 0.0977,-4.74015 -3.32299,-0.19546 -6.69486,-0.2932 -9.96897,0.0489 -0.39095,0.53756 -0.78189,1.02622 -1.17283,1.56378 -0.0489,3.51845 -0.0489,7.03692 0,10.50651 -1.17282,0 -2.3945,0 -3.56732,0.0489 0.0489,-4.00714 -0.0489,-7.96541 0,-11.97254 z"
     id="path8" />
  <path
     fill="#ffffff"
     stroke="#ffffff"
     stroke-width="0.0937362"
     opacity="1"
     d="m 130.07384,314.65758 c 0.1466,-2.05245 2.19904,-3.51846 4.15374,-3.51846 4.15374,-0.0489 8.30748,0.0489 12.41235,-0.0489 1.12396,0.34207 2.29677,0.78188 2.98092,1.8081 0.83075,1.07508 0.58642,2.49223 0.63527,3.76279 -0.0489,2.58998 0.1466,5.22883 -0.19546,7.76994 -0.63528,0.58641 -1.17282,1.22169 -1.90583,1.71036 -1.27056,0.58641 -2.73659,0.43981 -4.10487,0.48868 -3.27413,-0.0489 -6.54826,0 -9.77351,-0.0489 -1.56376,0 -3.1764,-0.73302 -3.81167,-2.2479 -0.58642,-0.97736 -0.39094,-2.19905 -0.43981,-3.27413 0.0489,-2.15017 -0.0489,-4.25148 0.0489,-6.40164 m 3.95827,0.39094 c 0.0489,0.19547 0.0977,0.63528 0.0977,0.83074 h -0.53756 c 0.0489,1.95471 0.0489,3.90941 0,5.86411 0.68416,0.58641 1.22169,1.66149 2.24791,1.61262 2.10132,0.14661 4.15374,0.0489 6.25505,0.0489 1.02622,0 2.1013,0.0978 3.12752,-0.19546 0.53754,-0.39094 0.97735,-0.92849 1.46602,-1.36829 0,-2.00358 0,-3.95828 0,-5.96185 -0.48867,-0.48868 -0.92848,-0.97734 -1.51489,-1.3683 -1.46602,-0.34206 -3.02978,-0.14659 -4.54467,-0.19546 -2.19905,0.0978 -4.54468,-0.39093 -6.59712,0.73302 z"
     id="path9" />
  <path
     fill="#ffffff"
     stroke="#ffffff"
     stroke-width="0.0937362"
     opacity="1"
     d="m 155.19175,311.53005 c 1.17281,-0.24434 2.34564,-0.4398 3.51846,-0.39093 3.66507,0 7.28127,0 10.94633,0 0,1.07507 0,2.15017 -0.0489,3.22525 -3.86054,0 -7.76994,-0.1466 -11.63047,0.0978 -0.48868,0.63528 -1.07509,1.27056 -1.31943,2.05244 -0.0489,1.36829 0.0489,2.73658 0,4.10487 -0.1466,1.12396 0.73301,1.85697 1.31943,2.68772 3.90941,0.34207 7.8188,-0.14661 11.67934,0.29321 0,1.02622 0,2.00357 -0.0489,2.98091 -3.95827,0 -7.91654,0 -11.87481,0 -1.46603,0.0489 -3.17639,-0.43981 -3.95827,-1.75924 -1.02622,-1.36828 -0.58642,-3.17638 -0.68415,-4.74015 0.0977,-2.15016 -0.24433,-4.30033 0.29321,-6.40164 0.0489,-0.0978 0.0489,-0.34207 0.0489,-0.48867 0.58641,-0.53755 1.17281,-1.12395 1.75923,-1.6615 z"
     id="path10" />
  <path
     fill="#ffffff"
     stroke="#ffffff"
     stroke-width="0.0937362"
     opacity="1"
     d="m 182.85077,319.78867 c 1.66149,-2.88319 3.27413,-5.81524 5.03336,-8.69842 1.75922,0.0489 3.4696,0.0489 5.17995,0.0489 -0.39093,0.63527 -0.78187,1.31941 -1.17282,2.00356 -1.56375,2.63885 -3.02978,5.32657 -4.64241,7.9654 1.31943,1.8081 2.68772,3.61621 3.95827,5.47317 -1.71036,0 -3.42073,0 -5.13109,0.0489 -0.97735,-1.36829 -1.9547,-2.68772 -2.93206,-4.056 -1.56376,0 -3.12751,0 -4.74015,0 0,-0.92849 0,-1.90584 -0.0489,-2.83433 1.51489,0.0489 2.98092,0.0489 4.49581,0.0489 z"
     id="path11" />
  <path
     fill="#ffffff"
     stroke="#ffffff"
     stroke-width="0.0937362"
     opacity="1"
     d="m 193.16182,314.21777 c 0.39094,-1.85696 2.24791,-3.12752 4.15375,-3.07865 3.76279,-0.0489 7.5256,-0.0489 11.28839,0 1.56375,-0.0489 3.22526,0.92848 3.51846,2.5411 0.19547,1.5149 0.19547,3.0298 -0.19547,4.49582 0,0.0978 -0.0489,0.34207 -0.0977,0.48867 -0.87961,0.87962 -1.95471,1.56376 -3.27412,1.51489 -3.37187,0.0489 -6.79259,0 -10.16445,0.0489 -0.0489,-0.92848 -0.0489,-1.8081 0,-2.68771 2.88318,0 5.81523,0.0489 8.69841,0 0.73302,0.0489 1.46604,-0.19547 2.10131,-0.48868 0,-0.53754 0.0489,-1.61263 0.0489,-2.15016 -1.07507,-0.78189 -2.39451,-0.53755 -3.61619,-0.58642 -2.24791,0.0489 -4.54468,-0.0489 -6.79258,0.0978 -1.02623,-0.0489 -1.51489,0.97734 -2.19905,1.56376 0.0489,1.90583 0,3.81167 0,5.7175 0.43981,0.48868 0.92849,1.02622 1.36829,1.56376 4.69129,0.34208 9.4803,0.0489 14.22046,0.1466 0,1.07509 0,2.15018 0,3.17639 -4.98449,0 -9.96899,0.0489 -14.95347,0 -1.41716,0.0489 -2.68771,-0.73302 -3.66506,-1.71036 -0.73302,-1.66149 -0.48867,-3.51846 -0.53755,-5.2777 0.0489,-1.75922 -0.0489,-3.56733 0.0977,-5.37542 z"
     id="path12" />
  <path
     fill="#ffffff"
     stroke="#ffffff"
     stroke-width="0.0937362"
     opacity="1"
     d="m 233.673,311.53005 c 1.17283,-0.53754 2.44338,-0.39093 3.71393,-0.4398 3.4696,0.0489 6.9392,0 10.40879,0.0489 0,1.07507 0,2.15017 0,3.22525 -3.81167,0.0489 -7.6722,-0.1466 -11.53274,0.0978 -0.34207,0.34208 -0.73301,0.68415 -1.12395,1.02622 -0.19547,1.85697 -0.2932,3.7628 -0.14661,5.61976 0,0.87962 0.68416,1.5149 1.12396,2.19905 3.9094,0.19547 7.76993,0.0489 11.67934,0.0978 0,1.07509 0,2.10131 0,3.17639 -4.10486,0 -8.25861,0.0489 -12.36349,0 -2.05243,0 -4.056,-1.51489 -4.15374,-3.6162 -0.0489,-2.58998 -0.0489,-5.17996 0,-7.8188 -0.0489,-1.51489 0.92848,-3.02979 2.39451,-3.6162 z"
     id="path13" />
  <path
     fill="#ffffff"
     stroke="#ffffff"
     stroke-width="0.0937362"
     opacity="1"
     d="m 250.38569,313.38702 c 0.73303,-1.56377 2.49226,-2.34564 4.10488,-2.2479 3.76281,0 7.47674,0 11.23954,0 2.2479,-0.19548 4.49581,1.71035 4.54467,4.00713 0.0489,2.78545 0,5.5709 0,8.35635 -0.5864,0.97735 -1.17282,2.15017 -2.29677,2.63884 -1.12396,0.58641 -2.49224,0.43981 -3.71393,0.48868 -3.42073,-0.0489 -6.84146,0 -10.31105,-0.0489 -1.5149,0.0489 -2.78545,-0.97734 -3.71393,-2.1013 -0.58642,-2.39451 -0.29321,-4.88676 -0.34208,-7.33013 0,-1.27056 -0.1466,-2.58998 0.48867,-3.7628 m 4.49582,1.07508 c -0.39094,0.39095 -0.73301,0.73302 -1.12395,1.12396 -0.19547,2.19903 -0.19547,4.39807 0,6.54824 0.39094,0.39094 0.73301,0.73301 1.12395,1.12396 3.4696,0.24434 6.93919,0.24434 10.40878,0 0.39095,-0.39095 0.73302,-0.78188 1.12396,-1.17282 0.19548,-2.19903 0.1466,-4.49581 0,-6.74372 l -0.48868,0.19546 0.0489,-0.5864 h -0.53755 l 0.0977,-0.43982 c -3.56732,-0.24432 -7.08579,-0.24432 -10.65312,-0.0489 z"
     id="path14" />
  <path
     fill="#ffffff"
     stroke="#ffffff"
     stroke-width="0.0937362"
     opacity="1"
     d="m 272.52269,318.61585 c 0,-2.49225 -0.1466,-5.03337 0.14661,-7.5256 4.54468,0.24434 9.13822,-0.39094 13.58517,0.48867 3.22526,-0.68415 6.54825,-0.4398 9.82238,-0.4398 2.10129,0.0489 3.95826,1.90582 4.00713,4.00713 0.0489,3.81167 0,7.62334 0.0489,11.435 -1.27055,0 -2.54112,0 -3.7628,0 -0.0489,-3.71394 0.0978,-7.47673 -0.14661,-11.19067 l -0.24433,0.0489 c -0.4398,-0.39093 -0.78188,-0.97735 -1.41716,-1.02621 -1.71037,-0.1466 -3.4696,-0.0489 -5.13109,0.0489 -0.48867,0.63528 -1.17283,1.2217 -1.17283,2.15018 -0.1466,3.32299 0.14661,6.69485 -0.1466,10.01784 -1.22168,-0.0489 -2.44337,-0.0489 -3.6162,0 0.0489,-3.56733 0,-7.13465 0,-10.70199 -0.68413,-0.58641 -1.17281,-1.56376 -2.19903,-1.51489 -2.00357,-0.1466 -4.056,-0.0489 -6.10844,-0.0489 0.0489,4.056 0,8.16087 0.0489,12.21688 -1.17281,0 -2.34563,0 -3.56732,0.0489 -0.29321,-2.63885 -0.14661,-5.32656 -0.14661,-8.01427 z"
     id="path15" />
  <path
     fill="#ffffff"
     stroke="#ffffff"
     stroke-width="0.0937362"
     opacity="1"
     d="m 302.52735,314.75531 c 0.0978,-2.10131 2.19905,-3.71393 4.20261,-3.61619 3.95827,-0.0489 7.86767,0 11.77708,0 1.71036,-0.14661 3.37185,0.87961 4.10487,2.3945 0.63528,1.8081 0.34208,3.71394 0.39094,5.5709 0,1.71037 0.19548,3.42072 -0.39094,5.08222 -0.63528,1.31943 -2.05244,2.39451 -3.56732,2.39451 -3.66508,0.0489 -7.33014,0 -10.9952,0 0.0489,-1.02621 0.0489,-2.1013 0.0489,-3.17639 2.98093,-0.0489 6.01071,0.0489 8.99164,-0.0489 0.87961,0 1.41715,-0.73301 2.10129,-1.17281 0.0489,-2.00358 0.19548,-4.00714 0,-5.96184 -0.24433,-0.63528 -0.63527,-1.17282 -0.97734,-1.75924 -3.32301,-0.19546 -6.64599,-0.1466 -9.96898,-0.0489 -0.97735,-0.0489 -1.46602,0.97734 -2.15018,1.56376 0.0978,4.25147 -0.0489,8.55182 0.0978,12.80329 -1.27055,-0.0489 -2.54112,-0.0489 -3.81167,-0.0489 0.0978,-4.69128 -0.1466,-9.33369 0.1466,-13.97611 z"
     id="path16" />
  <path
     fill="#ffffff"
     stroke="#ffffff"
     stroke-width="0.0937362"
     opacity="1"
     d="m 325.15302,311.13912 c 1.27056,0 2.54112,0 3.81167,0 0,3.61619 -0.0977,7.28125 0.0489,10.94632 0.39094,0.39094 0.78189,0.78187 1.17284,1.17282 3.02977,0.24434 6.10843,0.1466 9.13821,0.0489 0.58642,-0.83075 1.46604,-1.61263 1.31943,-2.68772 0.0489,-3.17639 0.0489,-6.35277 0,-9.52916 1.22169,0.0489 2.3945,0.0489 3.6162,0 -0.19548,4.44693 0.19547,8.94276 -0.19548,13.34083 -1.02622,0.97735 -2.05244,2.15017 -3.51845,2.15017 -3.7628,0.0489 -7.57447,0.0489 -11.33727,0 -2.10131,0 -4.00715,-1.90583 -4.00715,-4.00713 -0.0978,-3.81167 0,-7.62334 -0.0489,-11.435 z"
     id="path17" />
  <path
     fill="#ffffff"
     stroke="#ffffff"
     stroke-width="0.0937362"
     opacity="1"
     d="m 359.9467,311.53005 c 1.17283,-0.2932 2.34565,-0.4398 3.51848,-0.4398 3.42072,0.0489 6.84144,0 10.31104,0.0489 1.22168,-0.0489 2.15017,0.83074 3.02978,1.61262 0.24433,1.75922 0.43981,3.56733 0,5.32656 -0.4398,1.27055 -1.75922,2.1013 -3.07865,2.1013 -3.51846,0.0977 -7.03692,0 -10.55539,0.0489 0,-0.92848 0,-1.8081 0,-2.68771 2.68772,0 5.4243,0 8.11201,0 0.87962,0 1.8081,0.0977 2.54111,-0.39094 0.0977,-0.83075 0.0977,-1.75924 0.0977,-2.63886 -3.66507,-0.29319 -7.379,-0.14659 -11.04406,-0.0489 -0.39094,0.34208 -0.78189,0.73302 -1.12396,1.07508 -0.19546,2.19905 -0.19546,4.44695 0,6.646 0.34207,0.34206 0.73302,0.733 1.07509,1.07508 4.74015,0.24434 9.4803,0.0978 14.17159,0.0978 0.0489,1.07509 0.0489,2.19905 0.0489,3.27413 -4.69126,-0.0489 -9.38255,0 -14.07383,0 -1.02622,0 -2.05244,-0.19547 -3.0298,-0.39095 -0.83074,-0.78187 -1.75923,-1.56375 -2.00357,-2.73657 -0.19546,-1.46603 -0.0978,-2.93206 -0.0978,-4.39808 0.0489,-1.9547 -0.19548,-4.00714 0.39094,-5.91297 0.5864,-0.53755 1.17281,-1.12395 1.71035,-1.6615 z"
     id="path18" />
  <path
     fill="#ffffff"
     stroke="#ffffff"
     stroke-width="0.0937362"
     opacity="1"
     d="m 381.98596,311.53005 c 2.05244,-0.58641 4.15375,-0.39093 6.25505,-0.4398 0,1.07508 0,2.19904 0,3.27412 -1.12396,0 -2.24791,0 -3.37186,0.0978 -0.39094,0.39095 -0.73302,0.73302 -1.12396,1.12396 -0.24433,3.66506 -0.0978,7.33012 -0.0978,10.99519 -1.27055,0.0489 -2.5411,0.0489 -3.81166,0.0489 0,-2.68772 0,-5.32656 0,-8.01427 0,-1.80811 -0.0977,-3.61621 0.39094,-5.37544 0.58641,-0.53754 1.17283,-1.12395 1.75923,-1.71036 z"
     id="path19" />
</svg>
