<?xml version="1.0" encoding="UTF-8" standalone="no"?>
<svg
   width="380.09467pt"
   height="60.414001pt"
   viewBox="0 0 380.09467 60.414001"
   version="1.1"
   id="svg11"
   xmlns="http://www.w3.org/2000/svg"
   xmlns:svg="http://www.w3.org/2000/svg">
  <defs
     id="defs11" />
  <path
     fill="#ffffff"
     stroke="#ffffff"
     stroke-width="0.0937493"
     opacity="1"
     d="m 41.522357,0.04687465 h 1.322529 c 1.951537,0.11289886 3.919203,0.20966932 5.822356,0.70965001 3.225681,0.74190674 6.419107,2.20959204 8.677084,4.69336714 2.241849,2.3386193 3.532122,5.4675312 4.064359,8.6286992 0.08064,0.580623 0.161284,1.161246 0.258055,1.72574 -5.17722,1.951538 -10.354439,3.886947 -15.531658,5.822356 -0.09677,-1.838639 -0.483853,-3.709535 -1.435429,-5.306247 -0.661264,-1.032219 -1.499942,-1.999923 -2.596673,-2.580546 -1.919282,-1.032218 -4.16113,-1.177373 -6.29008,-0.99996 -3.161168,0.354824 -6.177181,1.677353 -8.709342,3.580506 -1.467684,1.032218 -2.757958,2.306362 -3.983716,3.612764 -1.612841,1.82251 -2.983757,3.854689 -4.193387,5.967511 -1.693483,3.177296 -2.967628,6.644904 -3.24181,10.257668 -0.161284,1.709612 -0.112899,3.467609 0.354825,5.128835 0.548366,2.128949 1.919281,4.032102 3.725662,5.290118 1.983795,1.370915 4.515955,1.532199 6.854575,1.387043 1.032217,0 2.048307,-0.241927 3.064397,-0.467724 2.112822,-0.596751 4.145001,-1.532199 5.854613,-2.903113 1.241887,-1.064476 2.387005,-2.257978 3.24181,-3.677278 0.564495,-0.822549 0.967705,-1.741868 1.4193,-2.645059 -3.870818,0 -7.757765,0 -11.644711,0 1.322529,-3.838561 2.645059,-7.660995 3.999845,-11.499556 8.693213,0.01613 17.386425,0 26.095766,0 2.919242,-8.370644 5.806227,-16.741289 8.741598,-25.1119334 6.306208,0.016128 12.59629,0 18.9025,0 2.20958,0 4.43531,-0.048386 6.6449,0.1128988 2.6128,0.274183 5.32237,0.6935216 7.644875,2.048308 0.91931,0.4838523 1.6451,1.2741443 2.25797,2.0966932 0.83869,1.1289886 1.22576,2.5321602 1.33866,3.9192035 1.09673,-0.9354478 2.16121,-1.9354091 3.35471,-2.7418296 2.70958,-1.9192808 5.70946,-3.467608 8.91901,-4.3385421 3.33858,-0.9193194 6.90296,-1.1612455 10.32218,-0.5644943 2.54829,0.5483658 5.06432,1.6450977 6.83845,3.5966352 0.90319,1.0967319 1.70961,2.2741057 2.17734,3.6127637 0.30643,0.838677 0.48384,1.709611 0.59674,2.596674 1.16125,-3.3385808 2.33862,-6.6771615 3.48375,-10.0157422 6.33846,0 12.66079,0 18.99926,0 1.82251,-0.016129 3.66114,0.032257 5.48366,0.3225682 1.85477,0.3386965 3.74178,0.8548056 5.37076,1.8708954 0.24192,-0.6935216 0.48385,-1.4031716 0.70965,-2.1128216 4.91916,0 9.8222,0 14.72523,0 -4.9998,14.6284672 -9.99961,29.2730632 -14.99941,43.9176592 4.35467,-0.01613 8.70934,0 13.064,-0.01613 0.59676,0 1.19351,0.04839 1.77413,-0.01613 0.35483,-0.274183 0.5645,-0.693522 0.83868,-1.048346 9.32222,-12.822086 18.66057,-25.628043 27.98278,-38.4501289 1.06449,-1.4676853 2.14509,-2.919242 3.1773,-4.3869273 5.3385,0.016128 10.69315,-0.016128 16.03165,0 l 0.0161,-0.2257978 c 0.0645,0.4193387 0.16128,0.8386773 0.19354,1.2741444 0.64513,14.9510356 1.32253,29.8859426 1.98379,44.8369786 0.0968,1.967666 0.14515,3.951459 0.29031,5.919126 2.41926,-7.177142 4.79013,-14.386541 7.19327,-21.579812 0.0968,-0.30644 0.24193,-0.612879 0.27419,-0.951576 -0.0968,-0.564494 -0.3387,-1.096732 -0.51612,-1.645098 -2.85469,-8.451283 -5.6933,-16.886441 -8.54802,-25.3377281 -0.2258,-0.6451364 -0.40322,-1.3064012 -0.69352,-1.9192807 -0.0161,-0.1935409 -0.0161,-0.4032103 -0.0161,-0.5967512 l 0.0484,0.2257978 c 5.51591,-0.016128 11.0157,0 16.53161,0 0.19355,0.790292 0.46772,1.5644557 0.70965,2.3386193 1.37091,4.3224138 2.75796,8.6448269 4.12887,12.9672409 2.90312,-2.886985 5.74172,-5.838484 8.61257,-8.757726 2.14508,-2.1934637 4.30629,-4.3385422 6.43524,-6.5481342 2.25798,-0.016128 4.51595,0.032257 6.77394,-0.048386 3.66114,0.032257 7.30616,-0.032257 10.96731,0.048386 5.53205,0 11.08022,0 16.61226,0 1.24189,0.016128 2.46765,-0.080642 3.70954,0 5.80622,0 11.61245,0 17.41868,0 2.8386,-0.032257 5.70945,0.032257 8.45128,0.790292 1.69348,0.4515955 3.33858,1.1451171 4.69337,2.2579773 1.24189,1.0644751 2.29023,2.4192614 2.77409,3.9998456 0.51611,1.4838143 0.59675,3.0643983 0.5645,4.6127253 0.79028,-1.306401 1.83863,-2.419261 2.80634,-3.596636 1.04834,-1.0483462 2.11282,-2.0966928 3.29019,-2.9998837 0.85481,-0.7741636 1.8709,-1.338658 2.8386,-1.9676659 3.11278,-1.9031524 6.61265,-3.1772966 10.22541,-3.661149 3.11279,-0.4677238 6.27395,-0.2419261 9.35448,0.3548251 1.56445,0.3870818 3.12891,0.7741636 4.66111,1.3064011 1.82251,0.70965 3.59663,1.5644557 5.20947,2.6934444 -3.25794,3.8063045 -6.56425,7.564225 -9.80607,11.370528 -2.46764,-2.951498 -6.6449,-4.322413 -10.38669,-3.483736 -2.01605,0.532238 -3.98371,1.596713 -5.22561,3.338581 -0.48385,0.838677 -0.8548,1.806382 -0.79029,2.790215 0.32257,1.499942 1.69349,2.43539 2.99989,3.016013 2.58054,1.096732 5.3385,1.741868 7.85453,2.983755 1.758,0.951576 3.59664,1.935409 4.77401,3.612764 0.91932,1.177374 1.48382,2.62893 1.54833,4.128873 0.27418,2.403132 -0.37096,4.790137 -1.24189,7.031986 -0.41934,1.01609 -0.75804,2.048308 -1.29028,3.016013 -1.17737,2.354748 -2.4999,4.628853 -4.12887,6.693289 -2.95149,3.419223 -6.80619,6.048154 -10.99957,7.725509 -1.90315,0.822548 -3.93533,1.274144 -5.96751,1.741868 -0.99997,0.225798 -2.04831,0.290311 -3.04827,0.548366 h -6.43524 c -2.20959,-0.338697 -4.41918,-0.774164 -6.532,-1.548327 -0.48386,-0.193542 -0.96771,-0.483853 -1.51608,-0.467724 -5.35463,0 -10.72538,-0.01613 -16.08001,0.01613 -1.49995,-5.6772 -3.01602,-11.354401 -4.51596,-17.0316 -0.41934,-1.596712 -0.80642,-3.193425 -1.27415,-4.757881 -0.35482,0.693521 -0.58062,1.451557 -0.83868,2.177336 -2.01604,5.596558 -4.0321,11.176987 -6.03202,16.757416 -0.3387,0.951577 -0.69352,1.887025 -0.99996,2.854729 -3.69341,-0.03226 -7.37068,0 -11.06409,-0.01613 -1.33866,-0.03226 -2.69345,0.08064 -4.03211,0 -9.85445,0 -19.72503,-0.01613 -29.57949,0.01613 0.0968,-0.274183 0.20966,-0.532237 0.30643,-0.80642 4.49983,-12.499518 8.98353,-24.999035 13.46723,-37.514681 0.17741,-0.483851 0.35482,-0.983833 0.5161,-1.483813 -4.19338,4.16113 -8.35451,8.354516 -12.5479,12.515646 -0.17741,0.161284 -0.30643,0.354824 -0.37095,0.580622 -2.96762,8.902882 -5.903,17.821893 -8.90288,26.708646 -3.87082,-0.01613 -7.7255,-0.01613 -11.59633,-0.01613 -0.9677,0.04838 -1.9354,0.04838 -2.90312,0 -4.49981,0 -9.01577,0 -13.5156,0 -0.1129,-3.241811 -0.27418,-6.499749 -0.38708,-9.757688 -6.82232,0 -13.64464,0 -20.45082,0 -2.32249,3.128912 -4.64499,6.225566 -6.95135,9.354477 -0.16128,0.193542 -0.32257,0.467725 -0.629,0.403211 -2.25798,0 -4.51596,0 -6.77394,0 -3.33858,0.06451 -6.66103,0.06451 -9.99961,0 -7.82228,0.01613 -15.62843,-0.01613 -23.45071,0.01613 2.41927,-6.935216 4.74175,-13.88656 7.12876,-20.821777 -1.09673,0.403211 -2.16121,0.854806 -3.29019,1.128989 -3.16117,0.870934 -6.48363,0.983833 -9.74156,0.967704 -1.74187,0 -3.46762,0 -5.20949,0 -2.11281,6.064283 -4.24177,12.112436 -6.35459,18.16059 -0.11289,0.161284 -0.0968,0.516108 -0.35482,0.467724 -4.19339,0.01613 -8.37065,0 -12.56403,0 -0.0484,0.08064 -0.12903,0.241926 -0.17742,0.322567 -13.45109,0 -26.886055,0 -40.337155,0 0.77417,-0.629007 1.54833,-1.241887 2.30637,-1.870895 -3.43536,0.887062 -6.99973,1.112861 -10.531855,1.225759 -8.112589,0 -16.20905,0.01613 -24.321641,-0.01613 1.790254,-5.064321 3.564379,-10.160898 5.322376,-15.257475 -0.951576,1.241888 -1.854768,2.53216 -2.951499,3.661148 -1.483814,1.677355 -3.161168,3.177298 -4.822394,4.693368 -3.467609,2.854728 -7.322299,5.338503 -11.596327,6.79006 -3.225682,1.161246 -6.59652,1.870895 -10.015742,2.145078 -4.128873,0.20967 -8.386773,0 -12.305977,-1.499942 C 9.4107334,57.738195 7.5398384,56.657591 5.9108694,55.270548 3.6690204,53.464166 2.1045644,50.948135 1.1368604,48.270818 -0.10502758,44.658055 -0.18566958,40.738852 0.39495342,36.980932 0.74977842,34.255231 1.5723274,31.6263 2.5561604,29.061883 c 0.387082,-0.999961 0.741906,-2.016051 1.225759,-2.983755 0.483852,-1.01609 0.919319,-2.064436 1.483813,-3.032141 0.564495,-0.951577 1.080603,-1.919281 1.677355,-2.8386 0.774164,-1.161246 1.467686,-2.354748 2.387005,-3.403095 C 11.217115,14.352774 13.394451,12.127054 15.716942,10.094874 16.684616,9.3529667 17.55555,8.4981611 18.587769,7.8207679 19.474831,7.2240167 20.345765,6.562752 21.297341,6.0305145 22.232789,5.4982769 23.119852,4.9015258 24.103685,4.4660587 25.200416,3.9499496 26.28102,3.3693269 27.426137,2.9661167 30.748589,1.6597156 34.200068,0.69201102 37.748319,0.3210576 39.006335,0.11138829 40.264351,0.14364511 41.522367,0.04687465 m -5.88688,2.08056475 c -1.032218,0.2903113 -2.096693,0.4193386 -3.112783,0.7419068 -0.790292,0.2419262 -1.580584,0.4999807 -2.370875,0.70965 -1.112861,0.4515955 -2.257978,0.8386774 -3.370838,1.3225296 -0.854806,0.4354671 -1.741869,0.8225489 -2.612803,1.2418875 -1.403171,0.8386773 -2.854728,1.612841 -4.177258,2.5805456 -1.177374,0.7419067 -2.177335,1.6934831 -3.257938,2.5482891 -0.870935,0.80642 -1.774125,1.580584 -2.596674,2.419261 -0.870934,0.854806 -1.661227,1.790254 -2.483776,2.693444 -0.838677,1.096732 -1.7902526,2.112822 -2.5160316,3.290196 -0.677393,1.048346 -1.370914,2.080565 -1.967665,3.177297 -2.016051,3.403094 -3.403095,7.128757 -4.596596,10.886676 -0.129029,0.758035 -0.370954,1.483814 -0.483853,2.257978 -0.09677,0.758034 -0.225798,1.499942 -0.322569,2.257976 -0.04838,0.645137 -0.08064,1.306402 -0.161284,1.935409 -0.06451,1.080604 -0.04838,2.161208 0.09677,3.225682 0.01613,0.951576 0.274183,1.854768 0.387082,2.774087 0.177413,0.532238 0.338697,1.064475 0.49998,1.596713 0.564494,1.354786 1.177374,2.7257 2.064437,3.903075 1.177374,1.661226 2.822471,2.919242 4.515954,4.032102 1.2902726,0.70965 2.6450586,1.306401 4.0482306,1.741868 0.387082,0.09677 0.758036,0.209669 1.128989,0.338697 0.532237,0.08064 1.080603,0.177412 1.61284,0.322568 0.322569,0.03226 0.645137,0.06451 0.967705,0.09677 4.644982,0.564495 9.402863,0.193542 13.90269,-1.064474 2.22572,-0.661266 4.419183,-1.483815 6.48362,-2.564418 0.80642,-0.483852 1.677354,-0.870934 2.451519,-1.4193 0.887061,-0.612879 1.806381,-1.177373 2.661186,-1.854766 0.774164,-0.61288 1.612842,-1.161246 2.322492,-1.854768 0.483852,-0.483853 0.999961,-0.91932 1.51607,-1.387043 1.854768,-1.757997 3.612764,-3.612764 5.112706,-5.693328 0.370953,-0.51611 0.70965,-1.080605 1.225758,-1.483815 0.467725,-0.177411 0.951577,-0.177411 1.419301,0 0.225798,0.193542 0.419338,0.387083 0.61288,0.61288 0.06451,0.322569 0.209668,0.645136 0.112898,0.983833 -0.30644,1.161246 -0.741907,2.274106 -1.128988,3.403094 -1.209631,3.499865 -2.451518,6.967473 -3.628893,10.483466 7.580353,0 15.176834,-0.01613 22.757186,0 1.774125,-0.08064 3.548249,-0.19354 5.322379,-0.387081 1.1935,-0.193541 2.40313,-0.274183 3.56437,-0.61288 0.66127,-0.19354 1.45156,-0.241926 2.01606,0.20967 0.41934,0.338696 0.53224,0.919319 0.51611,1.435428 11.35439,-0.01613 22.708795,0 34.063205,0 0.54837,-0.01613 1.0806,0.03226 1.62897,-0.03226 0.41934,-0.09677 0.82254,-0.30644 1.27414,-0.290311 3.77404,-0.01613 7.5481,0 11.33827,-0.01613 l 0.0645,-0.06451 c 1.03221,-2.951498 2.06443,-5.902997 3.09665,-8.838367 0.37095,-1.080604 0.75803,-2.161208 1.12899,-3.225682 0.64513,-1.822511 1.27414,-3.66115 1.9354,-5.48366 0.20967,-0.629007 0.87094,-0.90319 1.48382,-0.983832 2.99988,-0.08064 6.0159,0.06451 9.01578,-0.09677 1.1935,-0.01613 2.38701,-0.225798 3.56438,-0.354825 1.61284,-0.274183 3.1773,-0.80642 4.69337,-1.403171 0.49998,-0.177413 1.0806,-0.290312 1.56446,-0.01613 0.7419,0.322569 0.90318,1.274145 0.72577,1.983795 -0.16129,0.564494 -0.37095,1.096731 -0.54836,1.661226 -0.0645,0.161284 -0.1129,0.30644 -0.17741,0.467723 -0.69353,2.048309 -1.38705,4.096616 -2.08057,6.144924 -0.0645,0.161284 -0.1129,0.30644 -0.17742,0.467724 -0.69351,2.048308 -1.38704,4.096617 -2.08056,6.144924 -0.0645,0.161285 -0.1129,0.30644 -0.17741,0.467724 -0.35483,1.080604 -0.72578,2.161207 -1.11286,3.225682 7.2094,-0.03226 14.40267,0 21.61206,-0.01613 0.32257,0 0.64514,0.01613 0.95159,0.08064 2.25797,0.03226 4.53207,0 6.79006,0.01613 0.59674,0.01613 1.17737,-0.09677 1.77412,-0.09677 2.16121,0.01613 4.32241,0 6.48362,0.01613 2.25797,-2.999884 4.4837,-6.015897 6.72555,-9.015781 0.40321,-0.580623 1.12898,-0.758036 1.79025,-0.758036 6.49975,0.01613 13.01562,0 19.51538,0.01613 0.67739,0.03226 1.49994,0.20967 1.80637,0.903191 0.32257,0.774164 0.20967,1.628969 0.25806,2.43539 0.0968,1.338658 0.14516,2.693444 0.16128,4.032102 0.0645,0.790293 0.1129,1.580584 0.1129,2.387005 3.67728,-0.01613 7.37069,0 11.04796,0 0.53224,-0.01613 1.06448,-0.01613 1.59672,0.04839 0.80641,0.08064 1.62897,0 2.43538,-0.04839 3.45149,0 6.90296,-0.01613 10.33832,0 1.04834,-3.032141 2.03217,-6.08041 3.0644,-9.12868 1.27414,-3.870818 2.58054,-7.741637 3.87081,-11.612455 0.25806,-0.822548 0.53224,-1.628969 0.79029,-2.435389 0.29032,-0.870934 0.58063,-1.72574 0.87094,-2.596675 0.22579,-0.70965 0.80642,-1.193501 1.3064,-1.693483 3.85469,-3.838561 7.70938,-7.677122 11.54794,-11.515684 0.37095,-0.354824 0.79029,-0.693521 1.3064,-0.774163 0.64514,-0.08064 1.38704,0.274183 1.58058,0.919319 0.27419,0.580623 0,1.193503 -0.16128,1.741869 -2.53216,7.048114 -5.04819,14.096229 -7.59648,21.128216 -0.74191,2.096693 -1.49994,4.193386 -2.25797,6.29008 -1.16125,3.225682 -2.29024,6.467491 -3.48374,9.677045 9.17706,0 18.35413,-0.01613 27.53119,0 0.80643,0.09677 1.61284,0.09677 2.41927,0 3.82243,-0.01613 7.64486,0 11.46729,0 0.27419,-1.032218 0.70966,-1.999923 1.03223,-2.999884 2.11281,-5.838484 4.19338,-11.693097 6.3062,-17.531581 0.30644,-0.967704 1.59671,-1.387043 2.45151,-0.854806 0.4516,0.225798 0.62902,0.741907 0.74192,1.193502 0.25805,0.935449 0.49997,1.887025 0.7419,2.822472 0.2258,0.80642 0.43547,1.612841 0.64514,2.419262 0.0484,0.209669 0.0968,0.435467 0.16129,0.645136 0.22578,0.80642 0.43546,1.61284 0.64513,2.419262 0.2258,0.80642 0.43547,1.61284 0.64514,2.41926 0.0484,0.20967 0.0968,0.435468 0.16128,0.645137 0.22579,0.806421 0.43546,1.612841 0.64513,2.419261 0.2258,0.80642 0.41935,1.612842 0.64514,2.419262 0.0484,0.225797 0.0968,0.435467 0.16129,0.645136 0.22579,0.80642 0.43546,1.612841 0.64513,2.419262 0.0806,0.30644 0.14516,0.612879 0.20967,0.90319 4.54822,0.01613 9.11255,0 13.66076,0.01613 0.64514,0 1.29027,-0.04839 1.93542,0.08064 0.56448,0.09677 1.09673,0.354825 1.61284,0.596751 0.69351,0.225798 1.38704,0.419338 2.08056,0.645137 0.48385,0.09677 0.9677,0.19354 1.45156,0.338696 1.12898,0.161284 2.25797,0.387082 3.40309,0.354825 1.66122,-0.01613 3.33858,0 4.99981,-0.01613 1.58058,-0.20967 3.14504,-0.451596 4.69337,-0.838678 0.20966,-0.04839 0.43546,-0.112898 0.66126,-0.161284 0.35482,-0.112899 0.72578,-0.225797 1.09673,-0.322568 1.51607,-0.435467 2.9515,-1.064475 4.35467,-1.774125 1.83864,-0.870934 3.54825,-1.999922 5.12884,-3.257938 0.67739,-0.661266 1.45156,-1.22576 2.11282,-1.919282 1.33865,-1.338657 2.41926,-2.919242 3.35471,-4.548211 0.79029,-1.241887 1.43543,-2.564417 2.08056,-3.886946 0.70965,-1.774125 1.49994,-3.532122 1.83864,-5.435274 0.17741,-1.225759 0.14516,-2.483775 0.0161,-3.709534 -0.0645,-0.403211 -0.20967,-0.774164 -0.32257,-1.161246 -0.30644,-0.532237 -0.58063,-1.096732 -0.98383,-1.564456 -0.66127,-0.90319 -1.6451,-1.483813 -2.54829,-2.12895 -0.64514,-0.322568 -1.27415,-0.693522 -1.91928,-1.016089 -1.48382,-0.645137 -2.99989,-1.209632 -4.54822,-1.709612 -0.16128,-0.04838 -0.32257,-0.09677 -0.46771,-0.145156 -1.4193,-0.49998 -2.87086,-0.983833 -4.09663,-1.887023 -1.37091,-0.91932 -2.387,-2.564418 -2.17733,-4.257901 0.2258,-1.274144 0.64514,-2.580545 1.54833,-3.548249 0.66126,-0.725779 1.4193,-1.387043 2.29023,-1.903153 2.56441,-1.532199 5.75784,-2.145078 8.67709,-1.306401 1.37091,0.225798 2.62893,0.838678 3.83855,1.516071 0.51612,0.30644 0.93546,0.774163 1.48382,1.048346 0.51611,-0.451596 0.88707,-1.032218 1.37091,-1.532199 2.06444,-2.387005 4.12888,-4.7740093 6.19332,-7.1610138 -0.83869,-0.4032102 -1.6451,-0.8548057 -2.4999,-1.1935024 -0.98384,-0.4838522 -2.06445,-0.7257784 -3.09666,-1.0806034 -1.06447,-0.2257977 -2.11283,-0.5967511 -3.19343,-0.70965 -0.93544,-0.1128988 -1.85477,-0.3225682 -2.79021,-0.3064397 -0.82255,0.016128 -1.62897,-0.1935409 -2.43539,-0.080642 -0.74191,0.09677 -1.51607,0.064513 -2.25797,0.1451557 -0.91933,0.1612841 -1.83865,0.274183 -2.74184,0.4677239 -0.37095,0.1290272 -0.75803,0.2419261 -1.12899,0.3225681 -0.90319,0.2257977 -1.74186,0.5967512 -2.59667,0.9193193 -1.0806,0.3870819 -2.04831,0.9838331 -3.0644,1.4838137 -1.16125,0.7741636 -2.387,1.4515569 -3.41922,2.3870047 -0.87094,0.6290078 -1.56446,1.4515567 -2.35475,2.1612069 -0.80642,0.70965 -1.4193,1.596713 -2.12895,2.387005 -0.61288,0.661264 -0.95157,1.596713 -1.758,2.080564 -0.46772,0.177413 -0.9677,0.161285 -1.4193,0 -0.2258,-0.19354 -0.43546,-0.387081 -0.61287,-0.612879 -0.30645,-1.22576 0.0161,-2.516032 -0.29032,-3.741792 -0.3387,-2.3708755 -1.9838,-4.4030551 -4.08048,-5.46753 -2.93538,-1.5160705 -6.30622,-1.7096114 -9.54802,-1.7096114 -5.69333,0 -11.40279,0 -17.09612,0 -0.69351,0 -1.38704,0.032257 -2.08056,-0.048386 -0.64514,-0.080642 -1.30641,0.032257 -1.95154,0.048386 -6.08041,0 -12.14469,0 -18.2251,0 -0.20967,0 -0.41934,-0.016129 -0.62901,-0.064514 -3.38696,-0.032257 -6.79006,0 -10.17702,-0.016128 -1.91929,0.1612841 -3.85469,0.064514 -5.7901,0.080643 -1.4193,1.4193 -2.8386,2.8547285 -4.22565,4.3062852 -3.08053,3.1611682 -6.20944,6.2578232 -9.27383,9.4351192 -0.48386,0.483853 -0.91933,1.064476 -1.54833,1.354787 -0.58063,0.290311 -1.3064,0.177412 -1.77413,-0.258055 -0.24192,-0.241926 -0.32257,-0.564494 -0.41934,-0.870933 -0.91931,-2.886986 -1.85476,-5.7901 -2.77408,-8.6770851 -0.0645,-0.1774126 -0.1129,-0.3386967 -0.16129,-0.4999807 -0.22579,-0.6935217 -0.45159,-1.3870433 -0.66126,-2.0805649 -0.1129,-0.3225682 -0.20967,-0.6451364 -0.30644,-0.9838329 -0.0645,-0.1612841 -0.1129,-0.3225682 -0.16129,-0.4999807 -0.12902,-0.3870819 -0.24192,-0.8064205 -0.37095,-1.1935023 -4.45144,-0.064513 -8.90288,-0.016129 -13.35432,-0.032257 0.62901,1.9515375 1.3064,3.8708182 1.93541,5.8062274 0.0645,0.161284 0.1129,0.3225682 0.17742,0.4677238 0.0484,0.1612844 0.0968,0.3225694 0.16127,0.4838524 0.0484,0.161284 0.0968,0.322568 0.16129,0.483853 1.33865,3.983716 2.67731,7.967434 4.01597,11.951151 0.0645,0.161284 0.1129,0.30644 0.17741,0.467724 0.0484,0.161284 0.0968,0.322567 0.16129,0.483852 0.0484,0.161284 0.0968,0.322568 0.16128,0.483852 0.0484,0.161285 0.0968,0.322569 0.16129,0.483852 0.0484,0.161284 0.1129,0.322569 0.16128,0.483853 0.0484,0.145156 0.1129,0.30644 0.16129,0.467724 0.1129,0.322568 0.20967,0.645136 0.32256,0.967705 0.0484,0.161283 0.1129,0.322567 0.16128,0.483851 0.37096,1.080604 0.74192,2.177335 1.11287,3.25794 0.17741,0.532237 0.29031,1.080603 0.0806,1.61284 -2.46766,7.467454 -4.96756,14.934907 -7.45133,22.386232 -0.0806,0.403211 -0.37096,0.677394 -0.69353,0.91932 -0.46772,0.177413 -0.95157,0.177413 -1.43543,0 -0.56449,-0.387082 -0.8548,-1.048347 -0.91931,-1.709612 -0.0323,-1.080603 -0.14516,-2.161206 -0.16129,-3.24181 0.0161,-1.499942 -0.19354,-2.999884 -0.17741,-4.515954 -0.0806,-1.290273 -0.16129,-2.580546 -0.16129,-3.870818 -0.0968,-1.177375 -0.14515,-2.370877 -0.16127,-3.548251 -0.0968,-1.241887 -0.14516,-2.467646 -0.16129,-3.709534 -0.0968,-1.177374 -0.14516,-2.370876 -0.16128,-3.54825 -0.0968,-1.241888 -0.14516,-2.467647 -0.16129,-3.709534 -0.0968,-1.177374 -0.14516,-2.370876 -0.16128,-3.548251 -0.0968,-1.177373 -0.14516,-2.370876 -0.16129,-3.548249 -0.0968,-1.241888 -0.14516,-2.467647 -0.16129,-3.709535 -0.0968,-1.177373 -0.14515,-2.370876 -0.16128,-3.548249 -0.0968,-1.241888 -0.14516,-2.467647 -0.16129,-3.7095351 -0.0968,-1.1773738 -0.14514,-2.3708762 -0.16127,-3.54825 -0.0484,-0.7419069 -0.1129,-1.4838137 -0.1129,-2.2257205 -4.64499,0.016128 -9.28997,0 -13.93495,0.016128 -0.12902,0.1774126 -0.25805,0.3709535 -0.38708,0.5644944 -10.12864,13.9026872 -20.24116,27.8053762 -30.35367,41.7080652 -0.40321,0.516109 -0.72578,1.161245 -1.33865,1.4193 -0.37096,0.145156 -0.77417,0.20967 -1.16125,0.20967 -4.62885,0 -9.24158,0 -13.87044,0 -0.54836,0 -1.12898,-0.09677 -1.53219,-0.483853 -0.29031,-0.290311 -0.40321,-0.677393 -0.46773,-1.064475 0.0323,-0.419338 0.17742,-0.838677 0.30645,-1.225759 0.4032,-1.193502 0.80641,-2.387004 1.20963,-3.580507 0.0645,-0.161284 0.1129,-0.30644 0.17741,-0.467723 0.69352,-2.048309 1.38704,-4.096617 2.09669,-6.144924 0.0484,-0.161285 0.0968,-0.30644 0.16128,-0.467725 0.69353,-2.048307 1.38705,-4.096615 2.0967,-6.144924 0.69352,-2.032179 1.38704,-4.080487 2.08056,-6.128795 0.0645,-0.161285 0.1129,-0.30644 0.17742,-0.467724 0.7419,-2.209592 1.49994,-4.419184 2.25797,-6.612648 0.69353,-2.048308 1.38704,-4.096616 2.0967,-6.1449237 0.0484,-0.1612842 0.0968,-0.3064398 0.16128,-0.4677239 0.5161,-1.4999421 0.99996,-3.0160125 1.54833,-4.5159546 -3.37084,0 -6.74168,0 -10.11251,0 -0.46773,0.016128 -0.91932,-0.016129 -1.37092,0.032257 -0.1129,0.2257977 -0.17741,0.4677239 -0.24193,0.70965 -0.12903,0.3870819 -0.30644,0.7902921 -0.66127,1.0160898 -0.56449,0.354825 -1.33865,0.3709534 -1.90314,0 -0.85481,-0.5161091 -1.80639,-0.8548057 -2.75796,-1.1612454 -1.56446,-0.467724 -3.20956,-0.5644944 -4.83853,-0.6773933 -6.72554,0 -13.45109,0.016128 -20.17663,0 -0.6774,2.0644364 -1.43543,4.1127444 -2.14509,6.1771808 -0.38707,1.0644753 -0.69351,2.1612073 -1.16124,3.1934243 -0.0968,0.274183 -0.35483,0.435467 -0.56449,0.629009 -0.46773,0.177412 -0.95158,0.161284 -1.4193,0 -0.2258,-0.193542 -0.41934,-0.387082 -0.61288,-0.61288 -0.0645,-0.322569 -0.14516,-0.645136 -0.20967,-0.967705 -0.0645,-0.322568 -0.0968,-0.645136 -0.14516,-0.967704 -0.56449,-2.048308 -1.74186,-3.9675887 -3.4676,-5.2578614 -1.32253,-0.9677046 -2.87086,-1.5805841 -4.43532,-1.9999228 -1.22576,-0.2096692 -2.46764,-0.2741829 -3.72566,-0.3386965 -0.96771,0.080642 -1.95154,0.080642 -2.91924,0.1774124 -0.91933,0.1451558 -1.83864,0.274183 -2.74183,0.4838523 -1.0161,0.3225682 -2.06444,0.5644944 -3.03214,1.0160898 -0.72579,0.3386966 -1.49995,0.6128795 -2.2096,0.9999614 -1.12899,0.6451363 -2.29023,1.2096307 -3.32245,1.9999228 -1.45155,0.9193193 -2.66118,2.161206 -4.01597,3.193425 -0.46773,0.193541 -0.95158,0.177413 -1.4193,0.01613 -0.2258,-0.193541 -0.41934,-0.387081 -0.61288,-0.61288 -0.17742,-0.6935208 -0.20967,-1.4031708 -0.35483,-2.0966924 -0.25805,-0.7580352 -0.59675,-1.499942 -1.14512,-2.0966931 -0.95157,-1.3064013 -2.548285,-1.9192808 -4.032105,-2.4031331 -1.99991,-0.5483658 -4.06436,-0.7580352 -6.12879,-0.8548056 -7.0965,0 -14.193,0 -21.289502,0 -0.467724,0.016128 -0.951577,-0.016129 -1.4193,0.032257 -0.983833,3.0321411 -2.064437,6.0158967 -3.112784,9.0157812 -0.193541,0.612879 -0.40321,1.209631 -0.629007,1.806382 -0.467724,1.403172 -0.951577,2.806343 -1.451557,4.193387 -0.09677,0.322567 -0.209669,0.645136 -0.322569,0.951576 -0.370953,1.080603 -0.741906,2.161206 -1.128989,3.24181 -0.483851,1.387043 -0.967704,2.790215 -1.451556,4.177258 -0.129027,0.435467 -0.30644,0.854806 -0.580623,1.225759 -0.483852,0.354825 -1.080603,0.483852 -1.677354,0.483852 -7.741637,0 -15.483274,0 -23.22491,0 -0.40321,0 -0.822548,-0.01613 -1.225759,0.01613 -0.145155,0.193542 -0.145155,0.451596 -0.225798,0.677393 -0.693521,1.999924 -1.403172,3.999847 -2.096693,5.999769 -0.19354,0.548366 -0.387082,1.11286 -0.580623,1.661226 2.983756,-0.01613 5.983641,0 8.967396,-0.01613 0.580623,0.01613 1.241887,0.112899 1.628969,0.596751 0.435467,0.483852 0.483853,1.193503 0.241927,1.774125 -1.096732,2.290234 -2.467648,4.515955 -4.419185,6.177181 -1.903152,1.806381 -4.338541,2.919242 -6.822317,3.693406 -0.758035,0.161284 -1.516071,0.306439 -2.274105,0.467723 -0.790293,0.177413 -1.596713,0.08064 -2.403133,0.177413 -1.112861,-0.01613 -2.257978,-0.04839 -3.35471,-0.338697 -1.370914,-0.258055 -2.709573,-0.80642 -3.806305,-1.677354 -0.59675,-0.483853 -1.225759,-0.935448 -1.661226,-1.580584 -0.967704,-1.11286 -1.741867,-2.435391 -2.128949,-3.870818 -0.419339,-1.338659 -0.661266,-2.757959 -0.596751,-4.16113 -0.03226,-1.241888 0.04838,-2.467647 0.274182,-3.693406 0.467725,-2.548289 1.209631,-5.048192 2.354748,-7.370683 0.838677,-1.983795 2.064436,-3.774048 3.290195,-5.532044 0.870935,-1.161246 1.72574,-2.354748 2.806344,-3.338581 1.806381,-1.903153 3.919203,-3.532122 6.241694,-4.741752 1.741869,-0.967705 3.693406,-1.548328 5.644944,-1.919282 2.580545,-0.516108 5.290118,-0.209668 7.70938,0.806422 1.20963,0.580623 2.306362,1.435427 3.048269,2.564416 0.951576,1.161246 1.467685,2.596675 1.82251,4.048231 0.04839,0.241926 0.09677,0.483853 0.129027,0.725779 1.72574,-0.661265 3.483737,-1.290273 5.209476,-1.951538 0.435467,-0.145156 0.870934,-0.322569 1.290273,-0.483853 0.870934,-0.322567 1.72574,-0.629007 2.580545,-0.967704 1.161246,-0.387082 2.257978,-0.919319 3.435352,-1.209631 C 59.908641,14.320517 59.811872,13.78828 59.698973,13.256042 59.473175,12.256081 59.086094,11.304505 58.747397,10.352929 58.360416,9.6110213 58.021719,8.8529861 57.537867,8.1755929 57.150786,7.4981997 56.570163,6.9820906 56.102438,6.3692111 54.812165,5.0144247 53.183196,4.0144633 51.489713,3.2402996 50.731679,2.9822451 49.973643,2.7241905 49.231737,2.4500076 49.005938,2.4016224 48.79627,2.3532371 48.570471,2.304852 48.360802,2.2564667 48.135004,2.1919531 47.925335,2.1274394 45.312533,1.675844 42.651345,1.4984314 40.006286,1.7081007 38.538601,1.6919724 37.087044,1.9984122 35.635487,2.1274394 Z"
     id="path1" />
  <path
     fill="#ffffff"
     stroke="#ffffff"
     stroke-width="0.0937493"
     opacity="1"
     d="m 78.585445,11.530302 c 0.629,-0.338696 1.37092,-0.274183 2.06443,-0.274183 0.69353,0.01613 1.38704,0.129027 2.0967,0.129027 1.0806,0 2.1612,0.177413 3.20955,0.435468 0.79029,0.209669 1.51607,0.596751 2.17734,1.080603 0.58061,0.435467 0.95157,1.080604 1.32253,1.693483 0.0806,0.30644 0.16128,0.629008 0.2258,0.951576 0.27417,1.01609 -0.1129,2.03218 -0.32257,3.032142 -0.30645,1.048346 -0.80643,2.01605 -1.48382,2.886985 -0.93544,1.258016 -2.25797,2.161206 -3.6934,2.757957 -1.43543,0.548366 -2.96763,0.935448 -4.49983,0.967705 -1.24189,0.09677 -2.46764,0.161284 -3.70954,0.129027 -0.35482,0 -0.70965,-0.08064 -1.03222,-0.209669 -0.677387,-0.370954 -1.048341,-1.258016 -0.741901,-1.983794 1.209631,-3.483737 2.435391,-6.967473 3.628891,-10.467338 0.16129,-0.419339 0.32257,-0.919319 0.75804,-1.128989 m 0.82255,1.290273 c -1.25802,3.645021 -2.51603,7.290041 -3.80631,10.935061 0.77416,0 1.54833,0.01613 2.32249,-0.01613 1.38704,-0.09677 2.80634,-0.08064 4.16113,-0.435468 0.72578,-0.209669 1.45156,-0.435467 2.11283,-0.806421 2.0483,-0.967704 3.49986,-2.999883 3.90307,-5.209475 0.12903,-0.677393 0.19354,-1.403172 -0.0645,-2.048308 -0.3387,-0.693522 -0.91933,-1.258016 -1.61285,-1.596713 -0.87093,-0.483852 -1.88702,-0.580623 -2.87085,-0.661265 -1.37092,-0.06451 -2.75796,-0.161284 -4.145,-0.161284 z"
     id="path2" />
  <path
     fill="#ffffff"
     stroke="#ffffff"
     stroke-width="0.0937493"
     opacity="1"
     d="m 314.786,12.901217 c 0.20967,-0.661265 0.80642,-1.128989 1.49994,-1.177374 1.51607,-0.09677 3.01602,0.06452 4.53209,0.193541 1.54833,0.225798 3.16116,0.596751 4.40306,1.596713 0.88706,0.645136 1.38704,1.661226 1.72573,2.677316 0.0806,0.419339 0.17741,0.854806 0.2258,1.274144 0.0484,0.887062 -0.17742,1.741868 -0.38709,2.596674 -0.46771,1.403172 -1.04834,2.822472 -1.9354,4.032102 -0.4516,0.467724 -0.7903,1.032219 -1.3064,1.451557 -1.08061,0.887062 -2.25798,1.693483 -3.59664,2.161207 -2.24185,0.854806 -4.6611,1.145117 -7.04812,1.161246 -0.77416,0 -1.59671,0.112898 -2.32248,-0.20967 -0.67739,-0.370953 -1.04835,-1.258016 -0.74191,-1.967666 0.58062,-1.677355 1.1935,-3.338581 1.79025,-4.999807 1.03223,-2.935371 2.11283,-5.870741 3.16117,-8.789983 m 1.49994,0.370954 c -1.69348,4.677238 -3.37084,9.354477 -5.04818,14.031716 2.06443,0 4.145,0.03226 6.16104,-0.435467 2.54829,-0.499981 4.99981,-1.903152 6.46749,-4.080488 0.66127,-1.048346 1.129,-2.209592 1.51607,-3.403094 0.43547,-1.435429 0.27419,-3.128912 -0.72577,-4.306285 -0.91932,-0.935449 -2.22572,-1.354787 -3.49987,-1.548328 -1.61283,-0.193541 -3.24181,-0.274183 -4.87078,-0.258054 z"
     id="path3" />
  <path
     fill="#ffffff"
     stroke="#ffffff"
     stroke-width="0.0937493"
     opacity="1"
     d="m 117.10009,12.449622 c 0.48385,-0.08064 0.9677,-0.09677 1.45156,-0.161284 0.37095,0.04839 0.7419,0.08064 1.11285,0.161284 1.69349,0.435466 3.25795,1.806382 3.56439,3.580507 0.49997,1.51607 0.27417,3.145039 -0.16129,4.661109 -1.03222,3.257939 -3.03214,6.09654 -5.20948,8.693213 -1.11286,1.241888 -2.29023,2.419262 -3.48373,3.580507 -0.95158,0.838677 -1.90316,1.645099 -2.85473,2.451519 -3.41923,2.774086 -6.85457,5.515915 -10.2738,8.290002 -0.4032,0.338697 -0.83868,0.645137 -1.274155,0.951576 -0.45158,0.193541 -0.93544,0.177412 -1.40317,0.01613 -0.2258,-0.19354 -0.41933,-0.387081 -0.61287,-0.612879 -0.0484,-0.258054 -0.14516,-0.499981 -0.14516,-0.774164 0.12903,-0.693522 0.48385,-1.322529 0.69352,-1.983795 0.25806,-0.838677 0.53224,-1.661226 0.69353,-2.51603 0.25805,-1.661228 0.37095,-3.403095 -0.16129,-5.032064 -0.29031,-0.935449 -0.88706,-1.741869 -1.61284,-2.403134 -0.88706,-0.725778 -1.96767,-1.161245 -3.04827,-1.483813 -0.83868,-0.241927 -1.72575,-0.30644 -2.58055,-0.532238 -0.37095,-0.274183 -0.79029,-0.564495 -0.88706,-1.064475 -0.25805,-0.822549 0.32257,-1.677354 1.0806,-1.999923 1.11286,-0.49998 2.17734,-1.048346 3.20956,-1.677355 0.53223,-0.370953 1.03222,-0.790291 1.54833,-1.193501 0.64513,-0.580623 1.14512,-1.32253 1.87089,-1.838639 0.46773,-0.258055 1.01609,-0.30644 1.548335,-0.30644 2.75795,0.01613 5.51591,-0.01613 8.27387,0.01613 0.37096,-1.193502 0.93544,-2.290233 1.49994,-3.386965 0.54837,-0.838677 1.04835,-1.709612 1.80639,-2.387005 1.38704,-1.580584 3.29019,-2.677316 5.35463,-3.048269 m -3.87082,3.725662 c -0.3387,0.354825 -0.70965,0.693522 -1.01609,1.080604 -1.20963,1.661226 -2.11282,3.54825 -2.59668,5.564301 -3.37083,0.03226 -6.74167,-0.01613 -10.112505,0.01613 -0.82256,0.661265 -1.4193,1.564456 -2.29024,2.177335 -0.75803,0.661266 -1.6451,1.161246 -2.51603,1.677355 -0.77416,0.435467 -1.62897,0.70965 -2.37088,1.193503 1.38705,0.241925 2.79022,0.516108 4.08049,1.080603 1.06447,0.483853 2.12895,1.080603 2.82247,2.032179 1.483825,1.709612 1.854765,4.112745 1.693495,6.322337 -0.1129,1.999923 -0.77417,3.919203 -1.435435,5.790098 3.290195,-2.62893 6.564265,-5.290118 9.854455,-7.935177 1.35479,-1.096732 2.70958,-2.209592 3.99985,-3.403094 1.17737,-1.128989 2.30636,-2.32249 3.43535,-3.499865 1.62897,-1.983794 3.1773,-4.080488 4.20951,-6.451364 0.4516,-0.967704 0.82256,-1.983793 0.91932,-3.048269 0.1129,-1.274145 0.0484,-2.693444 -0.80642,-3.709534 -0.629,-0.645137 -1.46768,-1.193503 -2.40313,-1.20963 -2.03218,-0.01613 -4.04823,0.870933 -5.46753,2.32249 z"
     id="path4" />
  <path
     fill="#ffffff"
     stroke="#ffffff"
     stroke-width="0.0937493"
     opacity="1"
     d="m 148.00212,12.723805 c 0.43546,-0.419339 1.09673,-0.483853 1.67736,-0.499981 1.40317,0.01613 2.80634,-0.01613 4.19339,0.112898 0.8548,0.01613 1.72573,0.09677 2.56441,0.274183 0.82255,0.177413 1.66122,0.403211 2.35475,0.903192 0.7419,0.580623 1.35478,1.370914 1.59671,2.290234 0.2258,0.758035 0.43547,1.548327 0.3387,2.354748 -0.1129,0.854805 -0.30644,1.709611 -0.5645,2.532159 -0.49998,1.661227 -1.17737,3.306325 -2.22572,4.709497 -0.70965,1.048346 -1.758,1.806382 -2.82247,2.483775 -0.82255,0.532237 -1.77413,0.774163 -2.70957,1.032217 -2.37088,0.596752 -4.8224,0.40321 -7.24166,0.435467 -0.62901,0 -1.35478,0.09677 -1.8709,-0.338696 -0.56449,-0.483852 -0.629,-1.338658 -0.35482,-1.999923 1.43542,-4.193386 2.87085,-8.402901 4.33854,-12.580159 0.2258,-0.580622 0.30644,-1.241888 0.72578,-1.709611 m 1.09673,1.064475 c -0.25805,0.854805 -0.58062,1.693483 -0.8548,2.548289 -1.33866,3.822432 -2.64507,7.677123 -3.98373,11.499555 1.16126,-0.01613 2.3225,0.01613 3.48375,-0.04839 1.66122,0 3.37084,-0.01613 4.96754,-0.548365 1.29027,-0.338696 2.4354,-1.145117 3.38697,-2.064437 1.24189,-1.322529 1.96767,-2.999883 2.53216,-4.709495 0.30644,-0.967704 0.59676,-1.983795 0.54837,-3.016012 -0.0645,-1.048347 -0.49998,-2.145079 -1.40317,-2.757958 -1.03223,-0.61288 -2.25798,-0.693523 -3.41923,-0.774164 -1.74187,-0.145156 -3.49986,-0.112899 -5.25786,-0.129027 z"
     id="path5" />
  <path
     fill="#ffffff"
     stroke="#ffffff"
     stroke-width="0.0937493"
     opacity="1"
     d="m 284.43234,13.352812 c 0.32257,-0.209668 0.67738,-0.370953 1.06447,-0.419338 4.08049,-0.04839 8.16097,0 12.24146,-0.01613 1.22576,0 2.46764,-0.03226 3.69341,0.01613 0.59675,0.08064 1.29027,0.370953 1.45156,1.01609 0.22579,0.467723 0.0484,0.983833 -0.0968,1.451556 -0.95158,2.693445 -1.93541,5.38689 -2.88699,8.080333 -0.19354,0.499982 -0.30644,1.048347 -0.6774,1.435429 -0.43547,0.419339 -1.06447,0.532237 -1.6451,0.532237 -4.67723,0 -9.35447,0 -14.03171,0 -0.53223,-0.01613 -1.0806,0.04839 -1.59671,-0.09677 -0.54837,-0.08064 -1.04835,-0.467724 -1.22576,-1.01609 -0.0807,-0.354824 -0.0645,-0.725779 0.0322,-1.080603 1.08061,-3.048269 2.2096,-6.08041 3.27407,-9.144808 0.1129,-0.258054 0.25806,-0.499981 0.40322,-0.758036 m 1.09673,1.128989 c -0.30645,1.048346 -0.74191,2.064436 -1.08061,3.096655 -0.77416,2.096693 -1.49994,4.209515 -2.29024,6.306208 5.32239,-0.03226 10.64476,0.01613 15.96713,-0.01613 1.11286,-3.128912 2.22572,-6.257823 3.35472,-9.386735 -5.32239,0 -10.62863,0 -15.951,0 z"
     id="path6" />
  <path
     fill="#ffffff"
     stroke="#ffffff"
     stroke-width="0.0937493"
     opacity="1"
     d="m 218.32198,18.191335 c 0.64514,-0.322568 1.49994,-0.306439 2.06444,0.177413 0.2258,0.30644 0.38708,0.661264 0.43546,1.048347 0.0484,0.741906 0.0161,1.499942 0.0161,2.241848 0,4.515955 0,9.03191 0,13.547864 0,0.741907 0.0323,1.499942 -0.0161,2.241849 -0.0484,0.387082 -0.20966,0.741907 -0.43546,1.048347 -0.30644,0.225797 -0.66127,0.387082 -1.04834,0.435466 -3.80631,0.06451 -7.62874,0 -11.43505,0.03226 -0.54837,0.01613 -1.0806,-0.08064 -1.61284,-0.177411 -0.58062,-0.258056 -0.91931,-0.854806 -0.91931,-1.467686 0.0484,-0.629008 0.48384,-1.096732 0.82254,-1.580585 3.77405,-5.532044 7.5481,-11.047959 11.30602,-16.580004 0.24193,-0.338697 0.43547,-0.758035 0.82254,-0.967705 m 0.61289,1.612842 c -3.99985,5.854612 -7.98356,11.741482 -12.01568,17.596093 4.12888,-0.01613 8.24163,-0.03226 12.3705,0 -0.0484,-6.015895 0,-12.031792 -0.0161,-18.047689 -0.0968,0.112898 -0.25806,0.338697 -0.3387,0.451596 z"
     id="path7" />
  <path
     fill="#ffffff"
     stroke="#ffffff"
     stroke-width="0.0937493"
     opacity="1"
     d="m 336.60774,24.191103 c 0.37095,-0.145155 0.77416,0 1.16124,0.09677 0.19354,0.177412 0.37096,0.370954 0.5645,0.564495 0.12903,0.483852 0.24193,0.983833 0.19354,1.483813 -0.0645,0.596752 0.14516,1.193502 0.14516,1.790253 0.25805,0.806421 0.59674,1.612841 1.16124,2.241849 1.09673,1.290273 2.62893,2.128951 4.19339,2.709574 1.79025,0.790291 3.66114,1.274143 5.48366,1.967665 1.99992,0.596751 4.06435,1.467686 5.40301,3.14504 0.74191,1.064475 1.25802,2.451518 0.88707,3.757919 -0.17741,0.919319 -0.5645,1.774125 -0.96771,2.596674 -0.61288,0.935447 -1.32253,1.806382 -2.1612,2.53216 -2.8386,2.257978 -6.70942,3.04827 -10.24155,2.306363 -0.82254,-0.145156 -1.62897,-0.338696 -2.41926,-0.629008 -1.1935,-0.419339 -2.2741,-1.128989 -3.25794,-1.91928 -0.90319,-0.629009 -1.69348,-1.403172 -2.51603,-2.145079 -1.58058,1.887024 -3.25794,3.693406 -4.87077,5.532044 -0.61289,0.806421 -2.01606,0.806421 -2.59669,-0.01613 -0.27417,-0.467724 -0.41933,-0.999961 -0.629,-1.483814 -1.66123,-4.2579 -3.32245,-8.499672 -4.99981,-12.741443 -0.24192,-0.580623 -0.1774,-1.306401 0.27418,-1.774126 0.27419,-0.274182 0.64515,-0.387081 1.0161,-0.467723 0.25805,-0.04839 0.53223,-0.09677 0.80642,-0.145156 3.09665,-0.693521 5.99977,-2.22572 8.38677,-4.322413 0.75803,-0.596752 1.38704,-1.306402 2.06443,-1.983795 0.70966,-0.693521 1.33866,-1.467685 1.90316,-2.290233 0.24193,-0.370954 0.5645,-0.709651 1.01609,-0.806422 m -5.30625,7.322299 c -2.56442,1.935409 -5.58043,3.257938 -8.7416,3.757919 0.32257,0.967705 0.72578,1.919281 1.09674,2.870857 1.46769,3.725662 2.91924,7.467454 4.38692,11.193116 2.11283,-2.306363 4.17726,-4.677239 6.2417,-7.031987 0.61288,0.596751 1.09673,1.32253 1.72574,1.887024 1.24189,1.161245 2.59667,2.257978 4.16113,2.967627 2.32249,0.935449 4.93529,1.177374 7.3868,0.677394 1.8709,-0.467724 3.70954,-1.338658 4.96756,-2.806343 0.46773,-0.580623 0.9677,-1.161246 1.24189,-1.854768 0.46772,-0.967704 0.82254,-2.112821 0.40321,-3.145039 -0.35483,-0.983833 -1.20963,-1.693483 -2.08057,-2.241849 -1.12899,-0.725779 -2.45152,-1.048347 -3.70953,-1.499943 -1.6451,-0.629007 -3.35471,-1.064474 -4.96756,-1.774125 -2.19346,-0.838677 -4.40304,-2.145077 -5.54817,-4.274028 -0.72577,-1.387043 -0.9677,-2.999884 -0.8548,-4.564339 -1.54833,2.257976 -3.51599,4.225642 -5.70946,5.838484 z"
     id="path8" />
  <path
     fill="#ffffff"
     stroke="#ffffff"
     stroke-width="0.0937493"
     opacity="1"
     d="m 129.85766,27.513556 c 0.46772,-0.177412 0.95157,-0.161284 1.4193,0 0.2258,0.193541 0.41933,0.387082 0.61288,0.612879 0.0484,0.322569 0.2258,0.661265 0.0968,0.983834 -0.20967,0.790291 -0.46772,1.580584 -0.75803,2.354747 -1.77413,5.128834 -3.58052,10.257668 -5.37076,15.386503 -0.16129,0.483852 -0.51612,0.951576 -1.0161,1.128989 -0.5161,0.161283 -1.06447,0.177412 -1.61283,0.177412 -4.77402,-0.03226 -9.56416,0.03226 -14.33816,-0.03226 -0.38709,-0.04839 -0.74191,-0.209669 -1.04834,-0.435467 -0.51612,-0.61288 -0.54837,-1.612841 0,-2.22572 4.46756,-3.209554 8.93513,-6.435236 13.37044,-9.693175 1.25802,-0.983833 2.53216,-1.967666 3.6934,-3.080526 1.17738,-0.967704 2.24186,-2.064436 3.22569,-3.225682 0.58063,-0.645136 1.06447,-1.387043 1.72574,-1.951537 m -7.53197,9.354477 c -3.87082,2.854729 -7.77389,5.661072 -11.67696,8.483543 -0.59676,0.419339 -1.17738,0.887063 -1.80639,1.258016 0.75803,-0.06451 1.5322,-0.03226 2.29023,-0.03226 4.35468,0 8.70935,0 13.06402,0 0.19354,0.01613 0.19354,-0.274183 0.27418,-0.403211 1.95154,-5.661071 3.96759,-11.306014 5.90299,-16.983215 -2.2741,2.951499 -5.1127,5.38689 -8.04807,7.677123 z"
     id="path9" />
  <path
     fill="#ffffff"
     stroke="#ffffff"
     stroke-width="0.0937493"
     opacity="1"
     d="m 70.263182,34.319745 c 0.241926,-0.661265 0.822549,-1.177374 1.532199,-1.22576 1.225759,-0.04838 2.467647,-0.01613 3.693404,-0.01613 1.88702,0 3.80631,-0.06451 5.64495,0.419338 1.61284,0.322568 3.30632,0.983832 4.30628,2.370876 0.61288,0.774164 0.79029,1.757997 0.87093,2.725701 -0.0484,0.822549 -0.25805,1.628969 -0.48385,2.419262 -0.54836,1.51607 -1.33866,2.999884 -2.58055,4.04823 -0.7419,0.70965 -1.66122,1.177374 -2.58054,1.62897 -1.01609,0.532237 -2.1612,0.790292 -3.27407,1.016089 -1.85476,0.403211 -3.725659,0.564494 -5.612682,0.51611 -1.387043,0.08064 -2.790215,0.129027 -4.177258,0.06451 -0.483853,-0.08064 -0.999962,-0.241926 -1.290273,-0.661265 -0.258055,-0.419338 -0.370953,-0.951576 -0.161284,-1.4193 0.741907,-2.161206 1.499941,-4.306285 2.241849,-6.467491 0.112898,-0.322569 0.225797,-0.645137 0.338697,-0.951576 0.258054,-0.758036 0.516108,-1.532199 0.790291,-2.290235 0.241926,-0.725779 0.483852,-1.451557 0.741907,-2.177335 m 1.516071,0.322568 c -1.387043,4.032102 -2.790215,8.064204 -4.193387,12.096306 2.74183,-0.03226 5.499787,0.03226 8.241619,-0.29031 1.43543,-0.274184 2.91924,-0.483853 4.24177,-1.177374 0.75804,-0.387082 1.53219,-0.790292 2.17734,-1.370915 0.56449,-0.467724 0.9677,-1.080603 1.35478,-1.693483 0.5645,-1.080603 1.06447,-2.241849 1.14512,-3.467608 0.0323,-0.741907 -0.16129,-1.548327 -0.69352,-2.096693 -0.64514,-0.790292 -1.59671,-1.209631 -2.56443,-1.499942 -1.11285,-0.290312 -2.25797,-0.499981 -3.41921,-0.483853 -2.0967,-0.03226 -4.193389,-0.01613 -6.290082,-0.01613 z"
     id="path10" />
  <path
     fill="#ffffff"
     stroke="#ffffff"
     stroke-width="0.0937493"
     opacity="1"
     d="m 276.19072,36.013227 c 0.2258,-0.693521 0.80642,-1.258016 1.56446,-1.3064 0.7419,-0.04839 1.49994,-0.01613 2.24184,-0.01613 3.9192,0 7.85453,0 11.77375,0 0.7419,0 1.4838,-0.04838 2.22571,0.09677 0.49999,0.09677 0.93545,0.499982 1.0806,0.999962 0.0968,0.49998 0.0645,1.032219 -0.1129,1.499942 -0.38707,1.01609 -0.7419,2.03218 -1.11285,3.048269 -0.69352,1.951538 -1.40318,3.886947 -2.08056,5.838484 -0.12903,0.322569 -0.25806,0.677394 -0.54837,0.903191 -0.41935,0.354825 -0.99996,0.467725 -1.54833,0.467725 -4.51596,0 -9.03191,0 -13.54786,0 -0.69353,0 -1.38705,0.03226 -2.08057,-0.04839 -0.77416,-0.129027 -1.37092,-0.822549 -1.33866,-1.596713 0.0806,-0.580622 0.32257,-1.128988 0.51611,-1.677354 0.98383,-2.74183 1.96766,-5.483659 2.96763,-8.209361 m 1.54833,0.241927 c -1.20964,3.225682 -2.3225,6.499749 -3.53213,9.725431 5.3385,-0.03226 10.67701,0.01613 15.99939,-0.01613 1.14511,-3.24181 2.32249,-6.48362 3.48373,-9.709302 -5.32237,0.01613 -10.62862,0 -15.95099,1e-6 z"
     id="path11" />
</svg>
