<?xml version="1.0" encoding="UTF-8" standalone="no"?>
<svg
   width="380.0994pt"
   height="53.843964pt"
   viewBox="0 0 380.0994 53.843964"
   version="1.1"
   id="svg10"
   xmlns="http://www.w3.org/2000/svg"
   xmlns:svg="http://www.w3.org/2000/svg">
  <defs
     id="defs10" />
  <path
     fill="#ffffff"
     stroke="#ffffff"
     stroke-width="0.09375"
     opacity="1"
     d="m 37.16413,0.046875 h 1.580888 c 1.509031,0.15808887 3.046804,0.21557573 4.527091,0.61798377 2.241987,0.50301003 4.412116,1.37968473 6.251696,2.75936943 1.997668,1.5090301 3.506699,3.636044 4.35463,5.9786336 0.58924,1.4946582 0.862303,3.1042902 1.077878,4.6851792 -4.61332,1.738977 -9.226641,3.463583 -13.839962,5.188189 -0.08623,-1.638376 -0.431151,-3.305495 -1.279082,-4.728294 -0.589241,-0.91979 -1.33657,-1.782093 -2.313846,-2.285103 -1.882695,-1.020392 -4.110311,-1.106622 -6.179838,-0.83356 -3.707903,0.574869 -7.056512,2.615653 -9.672165,5.245677 -1.968925,1.882694 -3.506698,4.153425 -4.857639,6.510387 -0.617984,1.17848 -1.149738,2.400076 -1.638376,3.650415 -0.905418,2.543794 -1.408428,5.260048 -1.235967,7.976302 0.143717,1.394057 0.459894,2.788113 1.192852,4.009709 0.819188,1.379685 2.01204,2.558165 3.477955,3.248008 1.50903,0.646727 3.190521,0.790444 4.828896,0.689842 2.170129,-0.04312 4.311515,-0.689842 6.222953,-1.710234 1.049135,-0.517382 2.01204,-1.221596 2.831228,-2.055155 1.480287,-1.350942 2.500679,-3.089919 3.334238,-4.886384 -3.449212,0 -6.912795,0 -10.376378,0 1.17848,-3.420468 2.356961,-6.840936 3.564185,-10.247033 7.746355,0.01437 15.492709,0.01437 23.253436,0 2.60128,-7.45892 5.188189,-14.9322118 7.789469,-22.3911321 6.151095,0.028743 12.287817,0.014372 18.424541,0.014372 1.4228,-0.014372 2.83123,0 4.23965,0.08623 2.5438,0.2730626 5.17382,0.6754706 7.35832,2.1126421 1.33657,0.9772767 2.34259,2.4575634 2.63003,4.1103107 0.37366,1.8252078 0.0575,3.7079023 -0.44553,5.4899953 -0.31617,1.164109 -0.77607,2.299474 -1.27908,3.406096 0.84793,-1.020392 1.63838,-2.069527 2.57254,-3.003688 0.79044,-0.876675 1.60963,-1.75335 2.50068,-2.529422 0.93416,-0.905418 1.96892,-1.6814906 2.96057,-2.5006784 0.77607,-0.6467272 1.638377,-1.1497372 2.457557,-1.7246059 0.84793,-0.5892403 1.7821,-1.0778786 2.67314,-1.6240038 0.90542,-0.5604969 1.89707,-0.9772767 2.8456,-1.465915 0.87668,-0.4598949 1.81084,-0.7617009 2.73063,-1.1353655 0.93416,-0.3880363 1.91144,-0.6754706 2.87434,-1.0060201 1.26471,-0.4455232 2.58691,-0.6898424 3.88036,-0.99164839 1.3222,-0.20120401 2.63003,-0.48863832 3.9666,-0.48863832 3.08992,-0.17246059 6.22295,0.0574869 9.18352,1.00602011 1.39406,0.3305495 2.70189,0.9341615 4.03846,1.4371716 -1.23597,3.7222742 -2.50068,7.4158047 -3.75102,11.1380787 0.35929,-0.531753 0.71858,-1.077878 1.14974,-1.552145 0.70421,-0.819188 1.35094,-1.710234 2.15575,-2.4431912 2.42882,-2.5437936 5.33191,-4.6564358 8.55117,-6.107979 3.5067,-1.6383756 7.44455,-2.2994745 11.29617,-1.9258099 2.21325,0.2299474 4.38337,0.9772766 6.17984,2.2994745 1.17848,0.8479312 2.02641,2.069527 2.71625,3.3198662 0.51739,1.063507 0.87668,2.2132442 0.94854,3.4060964 1.00602,-3.0180601 2.09827,-6.0073769 3.11866,-9.0254371 5.97863,0 11.95727,0 17.9359,0 1.92581,0.028743 3.88036,0.1580889 5.74869,0.7185858 1.00602,0.301806 2.02641,0.6610989 2.91745,1.2359675 0.21558,-0.6179838 0.43116,-1.2503392 0.63236,-1.8826947 4.38337,0 8.75237,0 13.12138,0 -4.45524,13.0351455 -8.91047,26.0846635 -13.3657,39.1341805 4.31152,-0.01437 8.62303,0 12.93454,0 0.17247,0 0.37367,-0.01437 0.4599,-0.186832 8.80986,-12.086613 17.61972,-24.187597 26.41521,-36.2885812 0.64673,-0.8910463 1.30783,-1.767721 1.92581,-2.6587673 4.00971,0 8.00505,0 12.01476,0 0.7617,0 1.5234,0.028743 2.29947,-0.028744 0.0287,0.2155758 0.0575,0.4167798 0.11497,0.6179838 0.0575,0.6467272 0.0719,1.2934544 0.10061,1.9401816 0.6611,14.5729191 1.29345,29.1458381 1.95455,43.7331291 2.19887,-6.639732 4.41212,-13.265093 6.61099,-19.890454 0.0719,-0.186832 0.0719,-0.388036 0,-0.574869 -2.70188,-7.947558 -5.37502,-15.909489 -8.06253,-23.8714182 -0.18684,-0.5317534 -0.33055,-1.0922503 -0.60362,-1.5952604 0,-0.1724606 0.0144,-0.3592929 0.0144,-0.5461252 l 0.0144,0.2155758 c 4.9295,0 9.84462,0 14.75975,0 0.2012,0.804816 0.48864,1.5952604 0.73296,2.3857047 1.17848,3.7653895 2.40007,7.5164063 3.57855,11.2817963 2.34259,-2.400077 4.71393,-4.77141 7.02777,-7.1858574 2.12702,-2.1557573 4.2684,-4.2971429 6.38104,-6.4816436 1.43718,0 2.87435,0 4.31152,0 3.01806,-0.071859 6.03612,-0.014372 9.05418,-0.043115 0.96291,-0.014372 1.91144,0.057487 2.87434,0.043115 5.0301,0 10.0602,0 15.0903,0 1.91144,-0.057487 3.83725,0.028743 5.74869,0 4.64206,0 9.2985,0 13.94056,0 2.78812,0.014372 5.63372,0.3449211 8.19188,1.5090301 2.0839,0.9629049 3.85162,2.7737411 4.48398,5.0157287 0.40241,1.2503392 0.44552,2.5725362 0.43115,3.8803622 0.68984,-1.178481 1.624,-2.170128 2.50068,-3.2192633 1.49466,-1.4802867 3.0468,-2.9462017 4.85764,-4.0528238 3.92348,-2.5581653 8.60865,-3.9522218 13.30821,-3.8659914 1.53777,0.057487 3.07554,0.2299474 4.58457,0.50301 1.45155,0.3592929 2.90309,0.7185858 4.31152,1.2072241 1.624,0.6323555 3.20489,1.3940564 4.64206,2.4000765 -2.90308,3.3917248 -5.84929,6.7403339 -8.75237,10.1320589 -2.12702,-2.572537 -5.73432,-3.794133 -8.9967,-3.161778 -1.63837,0.388037 -3.21926,1.149738 -4.38337,2.400077 -0.68984,0.67547 -1.06351,1.624004 -1.20722,2.572537 -0.12935,0.67547 0.22994,1.307826 0.63235,1.825208 0.5605,0.661099 1.33657,1.106622 2.12702,1.465915 2.24198,0.919789 4.61332,1.494658 6.79782,2.543793 1.20722,0.661099 2.47193,1.307826 3.49232,2.25636 1.20723,1.207224 2.14139,2.802484 2.22762,4.541462 0.27306,2.155757 -0.28743,4.311514 -1.04914,6.309183 -0.43115,1.077878 -0.81918,2.170129 -1.39405,3.190521 -0.54613,1.135365 -1.2216,2.213244 -1.86833,3.291122 -1.35094,2.227616 -3.19052,4.124683 -5.24567,5.6912 -2.80249,2.112642 -6.02175,3.679159 -9.41347,4.555834 -0.68985,0.158088 -1.37969,0.316177 -2.06953,0.474266 -0.91979,0.215576 -1.86832,0.273063 -2.78811,0.488638 h -5.51874 c -2.31385,-0.316177 -4.61332,-0.776072 -6.75471,-1.710234 -0.37366,-0.129345 -0.7617,-0.08623 -1.13537,-0.08623 -4.58457,0.01437 -9.16915,-0.01437 -13.7681,0.01437 -1.27908,-4.886383 -2.57254,-9.758395 -3.86599,-14.644778 -0.43115,-1.580889 -0.81919,-3.190521 -1.26471,-4.77141 -0.31618,0.589241 -0.50301,1.221596 -0.73296,1.83958 -1.76772,4.915126 -3.52107,9.815881 -5.28879,14.716636 -0.33055,0.948534 -0.70421,1.882695 -1.00602,2.859972 -3.7079,-0.02874 -7.43018,-0.01437 -11.15245,-0.01437 -1.10662,0.07186 -2.19887,-0.01437 -3.3055,0 -8.45056,0 -16.90113,-0.01437 -25.3517,0.01437 0.57487,-1.50903 1.09225,-3.01806 1.63837,-4.527091 3.72228,-10.333263 7.43018,-20.666526 11.12371,-30.99979 -3.73664,3.779761 -7.51641,7.516407 -11.28179,11.281797 -0.33055,0.359293 -0.38804,0.876674 -0.54613,1.322198 -2.54379,7.631381 -5.07322,15.277133 -7.64575,22.908514 -3.44921,0 -6.88405,0 -10.33327,0 -0.8623,0.04312 -1.7246,0.04312 -2.5869,0 -4.00971,0 -8.03379,-0.01437 -12.0435,0 -0.1006,-2.888715 -0.22995,-5.791801 -0.34492,-8.694888 -6.07924,0 -12.15847,0 -18.22334,0 -2.17013,2.903087 -4.31151,5.820545 -6.49601,8.694888 -2.24199,0 -4.48398,0 -6.72597,0 -1.25034,0.05749 -2.4863,0.02874 -3.73664,0.02874 -1.43717,0 -2.87435,0.02874 -4.31152,-0.02874 -7.114,0 -14.21362,-0.01437 -21.32762,0.01437 0.3018,-0.776073 0.54612,-1.566517 0.81918,-2.34259 1.85396,-5.403765 3.67916,-10.80753 5.53311,-16.211295 -1.12099,0.41678 -2.24198,0.876675 -3.42046,1.120994 -1.13537,0.344921 -2.32822,0.445523 -3.5067,0.58924 -3.10429,0.258691 -6.20858,0.129346 -9.32725,0.158089 -1.88269,5.403765 -3.77976,10.793158 -5.66245,16.196923 -0.1006,0.129346 -0.0862,0.445524 -0.31618,0.402408 -3.73664,0.01437 -7.47329,0 -11.19557,0 -0.0431,0.07186 -0.11497,0.215576 -0.14371,0.287435 -12.00038,0 -23.9864,0 -35.97241,0 0.25869,-0.201204 0.50301,-0.388037 0.74733,-0.574869 -2.04078,0.50301 -4.09594,0.991649 -6.20858,1.164109 -2.14138,0.244319 -4.29714,0.158089 -6.43853,-0.129345 -1.782087,-0.172461 -3.521067,-0.689843 -5.202557,-1.293455 -1.00602,-0.316177 -1.92581,-0.847931 -2.85997,-1.322198 -0.73296,-0.459894 -1.43717,-0.948533 -2.12701,-1.465915 -0.58924,-0.517381 -1.20723,-0.991648 -1.76772,-1.537773 -1.16411,-1.221596 -2.27073,-2.51505 -3.04681,-4.02408 -0.51738,0.560497 -0.97727,1.192852 -1.55214,1.68149 -0.61799,0.531754 -1.17848,1.135366 -1.85395,1.595261 -0.60362,0.416779 -1.16411,0.876674 -1.7821,1.250339 -0.9629,0.531753 -1.91143,1.120994 -2.9462,1.523402 -1.04913,0.488638 -2.14138,0.833559 -3.233634,1.192852 -3.43484,0.991649 -7.013397,1.279083 -10.577583,1.365313 -7.171486,0 -14.342972,0 -21.52883,0 1.609633,-4.584577 3.190521,-9.154783 4.800153,-13.724988 -2.01204,2.960573 -4.584577,5.475624 -7.286459,7.803841 -1.83958,1.451544 -3.751018,2.8456 -5.834917,3.952222 -0.962905,0.560497 -1.997668,0.962905 -3.01806,1.4228 -3.276751,1.279083 -6.740335,2.09827 -10.247033,2.34259 -2.687511,0.129345 -5.418137,0.07186 -8.062533,-0.517382 C 10.18847,52.316799 7.5153305,51.15269 5.3595725,49.31311 3.9224015,48.192116 2.7870355,46.726201 1.9391045,45.116569 0.45881751,42.371572 -0.02982049,39.209794 0.05640951,36.119875 c 0.100602,-2.414448 0.474267,-4.828896 1.16410899,-7.142742 0.301806,-0.91979 0.589241,-1.868323 0.948534,-2.773741 0.388036,-0.991649 0.732957,-2.01204 1.207224,-2.960574 0.445523,-0.905418 0.819187,-1.839579 1.322198,-2.701882 0.50301,-0.83356 0.962904,-1.710234 1.494658,-2.529422 0.689842,-1.034763 1.307826,-2.09827 2.127014,-3.032432 C 10.001638,12.794581 11.941819,10.811285 14.011346,9.0004493 14.873649,8.3393503 15.649722,7.5776494 16.569511,6.9740374 17.374328,6.4422839 18.1504,5.8530436 18.98396,5.378777 19.817519,4.9045104 20.607963,4.3727569 21.484638,3.9847206 22.461915,3.5248257 23.42482,3.0074439 24.459583,2.648151 27.405785,1.4840421 30.481332,0.62173912 33.643109,0.29118966 34.807218,0.10435736 35.985699,0.13310079 37.16418,0.0468705 M 33.068191,2.5044384 C 31.918454,2.6194121 30.79746,2.8637313 29.676466,3.1224221 29.058482,3.2948827 28.45487,3.5248302 27.822515,3.682919 27.53508,3.7835211 27.247646,3.8697513 26.960212,3.9559816 c -0.41678,0.2012041 -0.862303,0.3305495 -1.279083,0.5030101 -0.445523,0.1724606 -0.891046,0.3305494 -1.322198,0.50301 -1.17848,0.6036121 -2.414448,1.0922504 -3.535442,1.8108362 -1.264711,0.6898423 -2.471935,1.5234018 -3.650415,2.371333 -0.83356,0.7042141 -1.695863,1.3796841 -2.500679,2.1126421 -0.718586,0.632355 -1.365313,1.322198 -2.040784,1.983297 -0.560496,0.546125 -1.020391,1.17848 -1.580888,1.724605 -0.776073,1.00602 -1.6383765,1.940182 -2.2994755,3.032432 -0.488638,0.74733 -1.00602,1.494659 -1.437171,2.285103 -0.617984,1.063507 -1.25034,2.141386 -1.738978,3.276751 -0.273062,0.560497 -0.517382,1.135366 -0.776072,1.710234 -0.201204,0.574869 -0.445524,1.149738 -0.661099,1.738978 -0.359293,0.876675 -0.617984,1.796464 -0.934162,2.687511 -0.488638,1.4228 -0.675471,2.917458 -0.876675,4.412116 0.02874,0.718586 -0.186832,1.4228 -0.158088,2.155758 0.01437,0.761701 -0.05749,1.537773 0.100602,2.285102 0.07186,1.106622 0.201204,2.213245 0.58924,3.248008 0.01437,0.07186 0.02874,0.215576 0.04311,0.287434 0.129346,0.287435 0.258691,0.574869 0.373665,0.847932 0.732957,1.796464 1.825208,3.463583 3.348609,4.670807 0.74733,0.675471 1.609633,1.221596 2.500679,1.695863 2.0264125,1.077878 4.2683995,1.724605 6.5535025,1.911438 0.617984,0.02874 1.235968,0.17246 1.868323,0.143717 1.437172,-0.04312 2.888715,0.100602 4.311515,-0.129346 2.069527,-0.17246 4.11031,-0.603612 6.107979,-1.207224 0.186832,-0.07186 0.373664,-0.129345 0.574868,-0.201204 0.761701,-0.273062 1.552146,-0.50301 2.285103,-0.862303 0.388036,-0.17246 0.776073,-0.344921 1.178481,-0.50301 0.603612,-0.273062 1.178481,-0.632355 1.767721,-0.948533 1.063507,-0.546125 2.026412,-1.264711 3.032432,-1.92581 0.991648,-0.761701 2.040783,-1.465915 2.917458,-2.371333 1.063507,-0.891046 2.01204,-1.911438 3.003689,-2.888715 0.546125,-0.646727 1.149737,-1.250339 1.667119,-1.940181 0.58924,-0.704214 1.077878,-1.480287 1.652747,-2.198873 0.50301,-0.474266 1.264711,-0.718585 1.940181,-0.517381 0.790445,0.08623 1.4228,0.790444 1.537774,1.566517 0.172461,0.574868 -0.129345,1.149737 -0.244319,1.710234 -1.221596,3.52107 -2.443192,7.04214 -3.679159,10.548839 6.12235,0 12.244701,0 18.367052,0 1.149737,0.02874 2.299474,-0.114974 3.449212,-0.143717 1.983296,-0.186833 3.980965,-0.373665 5.906775,-0.891047 3.477952,-0.991648 6.884042,-2.558165 9.485322,-5.11633 0.93417,-0.732958 1.49466,-1.897067 2.63003,-2.371333 0.58924,-0.158089 1.17848,0.01437 1.75335,0.143717 0.45989,0.301806 0.91979,0.689842 1.02039,1.250339 l 0.15809,-0.01437 c -0.0144,0.07186 -0.0575,0.215576 -0.0719,0.273063 l 0.15809,0.02874 c 0.1006,0.402408 0.47427,0.661099 0.63235,1.034764 l 0.10062,-0.05749 c 0.1006,0.58924 0.8623,0.790444 1.04913,1.365313 0.24432,0.273063 0.50301,0.531753 0.7617,0.790444 0.17246,0.02874 0.31618,0.129346 0.41678,0.273063 0.24432,0.244319 0.50301,0.488638 0.7617,0.732957 0.28744,0.114974 0.47427,0.388037 0.7617,0.531754 0.22995,0.158089 0.48864,0.301806 0.67547,0.531753 l 0.20121,-0.08623 -0.0575,0.201204 c 0.15809,0.05749 0.31618,0.114974 0.47427,0.172461 0.0144,0.02874 0.0431,0.114973 0.0575,0.158088 l 0.21557,-0.07186 c 0.0144,0.05749 0.0431,0.158089 0.0575,0.215576 l 0.22995,-0.07186 c 0.0144,0.05749 0.0431,0.172461 0.0575,0.215576 l 0.22995,-0.07186 c 0.0144,0.05749 0.0431,0.172461 0.0431,0.229948 l 0.24431,-0.100602 c 0.0144,0.07186 0.0431,0.186832 0.0431,0.244319 l 0.24432,-0.100602 c 0.0144,0.07186 0.0287,0.186832 0.0431,0.244319 l 0.24432,-0.100602 0.0288,0.172461 c 0.14371,0.04312 0.3018,0.08623 0.44552,0.129345 0.64673,0.215576 1.29345,0.445523 1.94018,0.661099 0.20121,0.08623 0.41678,0.100602 0.63236,0.100602 l -0.0144,0.158089 c 0.20121,-0.01437 0.40241,-0.02874 0.58925,-0.02874 l -0.0144,0.143717 c 0.934157,0.07186 1.853947,0.258691 2.788117,0.316178 3.73664,0.431152 7.48766,-0.186832 11.09496,-1.120994 0.38804,-0.143717 0.79044,0.05749 1.17848,0.129346 0.0862,0.02874 0.24432,0.100602 0.33055,0.129345 l 0.0144,0.158089 c 0.0862,-0.02874 0.22995,-0.07186 0.30181,-0.08623 l -0.11498,0.215576 c 1.81084,0.04312 3.63605,0.01437 5.44688,0.01437 9.01107,0 18.00776,0 27.01883,0 0.44552,0.01437 0.8623,-0.129345 1.27908,-0.273062 0.48864,0.01437 0.96291,0.04312 1.45155,0.02874 2.85997,-0.01437 5.73431,0.01437 8.59428,-0.01437 1.72461,-5.058843 3.53544,-10.074572 5.27442,-15.119044 0.22995,-0.603612 0.71859,-1.149737 1.36531,-1.293455 0.37367,-0.100602 0.76171,-0.201204 1.14974,-0.201204 1.96893,0.01437 3.92348,0.01437 5.8924,0.01437 2.22762,-0.07186 4.46961,-0.186832 6.62537,-0.804816 1.0635,-0.316178 2.06952,-0.862303 3.17614,-1.00602 0.58924,0.04312 1.2216,0.201204 1.60964,0.675471 0.41678,0.402408 0.48864,1.00602 0.58924,1.566517 -0.0575,0.517381 -0.24432,1.00602 -0.40241,1.494658 -1.55215,4.52709 -3.08992,9.054181 -4.62769,13.595643 -0.14372,0.388036 -0.27307,0.790444 -0.44553,1.17848 0.60362,-0.05749 1.20723,-0.02874 1.81084,-0.02874 5.41814,-0.01437 10.8219,0 16.24004,0 2.91746,0.05749 5.84929,0.05749 8.76674,-0.01437 1.75335,0.01437 3.52107,0 5.27442,0.01437 1.92581,-2.615652 3.866,-5.216933 5.80618,-7.818213 0.47426,-0.617984 1.25034,-0.847931 1.99767,-0.862303 5.50436,0 11.0231,0 16.52747,0 0.61798,0 1.25034,-0.05749 1.85395,0.129345 0.6611,0.100602 1.23597,0.560497 1.48029,1.164109 0.22994,0.603612 0.28743,1.235968 0.27306,1.868323 0.1006,1.83958 0.15809,3.679159 0.22995,5.518739 3.13303,-0.01437 6.25169,0 9.38473,0 0.48863,0 0.99164,-0.04312 1.48028,0.100602 -0.68984,-0.388036 -1.04913,-1.135365 -1.16411,-1.882695 -0.18683,-1.624004 -0.14371,-3.248007 -0.25869,-4.872011 -0.56049,-13.06389 -1.17848,-26.113407 -1.7246,-39.1629245 -3.75102,0.014372 -7.51641,0 -11.26743,0 -9.08292,12.4459055 -18.12273,24.9205545 -27.20565,37.3664595 -0.40241,0.546126 -0.74733,1.192853 -1.39406,1.480287 -0.4599,0.158089 -0.94853,0.287434 -1.43717,0.301806 -4.12468,0 -8.235,0 -12.35968,0 -0.74733,-0.04312 -1.58089,-0.201204 -2.05515,-0.833559 -0.33055,-0.402408 -0.43115,-0.91979 -0.50301,-1.4228 0.15809,-0.948533 0.51738,-1.83958 0.81918,-2.75937 3.89474,-11.368027 7.7751,-22.750425 11.66984,-34.1328235 -2.85997,0 -5.71995,0.014372 -8.57992,0 -0.18683,0.7904444 -0.7617,1.566517 -1.59526,1.7102341 -0.77607,0.2730626 -1.59526,-0.043115 -2.24198,-0.4598949 -1.17849,-0.5604969 -2.4432,-0.9916483 -3.75102,-1.1209938 -1.36532,-0.1580888 -2.73063,-0.2299474 -4.11031,-0.2155757 -5.17382,0 -10.36201,0 -15.53583,0 -0.87667,2.4719351 -1.7246,4.9582418 -2.60128,7.4301768 -0.21557,0.718586 -0.7617,1.408428 -1.55214,1.537773 -0.44553,0.172461 -0.90542,-0.01437 -1.35094,-0.04312 -0.48864,-0.229947 -0.86231,-0.646727 -1.121,-1.106622 -0.0287,-0.215576 -0.0575,-0.41678 -0.11497,-0.617984 -0.1006,-0.474266 -0.15809,-0.962905 -0.28744,-1.4371709 -0.15809,-0.4311515 -0.31617,-0.8623029 -0.50301,-1.2790827 -0.37366,-0.603612 -0.70421,-1.2503392 -1.20722,-1.767721 -1.13537,-1.2647109 -2.745,-1.9545533 -4.34026,-2.4431916 -1.92582,-0.402408 -3.92349,-0.402408 -5.87803,-0.201204 -0.71859,0.1149737 -1.43717,0.1580889 -2.14139,0.3592929 -0.2012,0.043115 -0.4024,0.071858 -0.58924,0.1724606 -0.0862,0 -0.27306,0.014372 -0.35929,0.014372 v 0.1293454 c -0.61798,0.057487 -1.19285,0.3161778 -1.76772,0.5604969 -0.33055,0.1293455 -0.6611,0.2874343 -0.99165,0.4311515 -0.61798,0.2155757 -1.17848,0.5461252 -1.73898,0.8623029 -0.44552,0.2730626 -0.93416,0.4886383 -1.37968,0.7760726 -1.00602,0.7042141 -2.05516,1.3796847 -2.93183,2.2419876 -0.74733,0.5461248 -1.35094,1.2503388 -2.01204,1.8826938 -0.79044,0.74733 -1.43717,1.638376 -2.15576,2.443192 -0.67547,0.761701 -1.03476,1.825208 -1.98329,2.299474 -0.2587,0.02874 -0.51739,0.07186 -0.76171,0.129346 0.0719,0.316178 0.21558,0.646727 0.17246,0.991648 -0.0431,0.287435 -0.12934,0.546125 -0.2012,0.83356 2.58691,-0.01437 5.17382,0 7.74636,-0.01437 0,-0.07186 -0.0288,-0.229947 -0.0431,-0.316178 0.0431,0 0.11497,-0.01437 0.14372,-0.01437 0.11497,-0.50301 0.38803,-0.934162 0.60361,-1.394057 0.40241,-0.934161 1.03476,-1.724606 1.59526,-2.572537 0.67547,-0.689842 1.30783,-1.408428 2.11264,-1.940181 0.53176,-0.459895 1.19285,-0.704215 1.78209,-1.063507 0.34493,-0.07186 0.67548,-0.172461 1.00603,-0.287435 0.18683,-0.04312 0.37366,-0.08623 0.57486,-0.129345 0.58924,-0.143717 1.19286,-0.244319 1.79647,-0.229948 0.47426,0 0.93416,0.143718 1.40843,0.215576 0.43115,0.172461 0.87667,0.316178 1.25034,0.603612 0.45989,0.33055 0.97727,0.632356 1.29345,1.106622 0.40241,0.517382 0.73296,1.092251 0.89105,1.724606 0.1006,0.689842 0.37366,1.33657 0.31617,2.040784 0.0431,0.632355 -0.0862,1.264711 -0.17246,1.897066 -0.22994,0.991649 -0.57487,1.954553 -1.00602,2.888715 -0.97727,2.184501 -2.44319,4.095939 -3.93785,5.94989 -0.34492,0.41678 -0.7617,0.776073 -1.10662,1.192853 -1.40843,1.624003 -3.07555,2.974945 -4.69955,4.369001 -6.94154,5.590597 -13.89745,11.209938 -20.83899,16.814907 -0.37366,0.287434 -0.74733,0.58924 -1.14973,0.847931 -0.5605,0.100602 -1.121,0.100602 -1.66712,0 -0.38804,-0.215575 -0.70422,-0.517381 -1.00602,-0.819187 -0.0431,-0.07186 -0.11498,-0.229948 -0.14372,-0.316178 -0.0575,-0.316178 -0.18683,-0.617984 -0.17246,-0.934162 0.1006,-0.603612 0.34492,-1.17848 0.43115,-1.796464 l 0.11497,-0.01437 c 0.0144,-0.459895 0.30181,-0.833559 0.31618,-1.293454 h 0.15809 c -0.0144,-0.100602 -0.0287,-0.33055 -0.0287,-0.445523 l 0.17246,0.02874 c -0.0144,-0.114974 -0.0287,-0.344921 -0.0287,-0.459895 l 0.17246,0.02874 c 0,-0.114974 -0.0287,-0.344922 -0.0287,-0.459895 l 0.17246,0.04312 c 0,-0.129346 -0.0287,-0.359293 -0.0287,-0.474267 l 0.17246,0.04312 c 0,-0.129345 -0.0287,-0.359293 -0.0431,-0.474266 l 0.18684,0.04312 c 0,-0.114974 -0.0288,-0.359293 -0.0431,-0.474267 l 0.18683,0.04312 c 0,-0.114973 -0.0287,-0.359292 -0.0431,-0.474266 l 0.2012,0.04312 c -0.0144,-0.114974 -0.0431,-0.359293 -0.0575,-0.488638 l 0.15808,0.07186 c 0.0719,-0.301806 0.14372,-0.58924 0.17246,-0.891046 h 0.17247 c 0,-0.04312 -0.0144,-0.143717 -0.0144,-0.186832 -0.45989,0.244319 -0.91979,0.517381 -1.4228,0.661098 -0.0144,0.02874 -0.0144,0.07186 -0.0287,0.100602 -0.38804,0.07186 -0.7617,0.24432 -1.16411,0.33055 l 0.0431,0.129345 c -0.11498,0 -0.34492,-0.02874 -0.4599,-0.02874 l 0.0288,0.143717 c -1.04914,0.158089 -2.06953,0.531754 -3.11867,0.718586 -1.00602,0.129345 -2.01204,0.330549 -3.03243,0.316178 -0.7617,-0.01437 -1.55214,0.04312 -2.31385,-0.114974 -1.25033,-0.08623 -2.45756,-0.50301 -3.67915,-0.776073 V 41.49492 c -0.10061,0.01437 -0.33055,0.02874 -0.44553,0.04312 l 0.0288,-0.158089 c -0.25869,-0.01437 -0.50301,-0.143717 -0.70422,-0.301806 l -0.15809,0.04312 c 0,-0.04312 -0.0144,-0.114973 -0.0287,-0.158088 -0.50301,-0.172461 -0.93416,-0.517382 -1.39406,-0.790445 -0.27306,-0.158089 -0.41678,-0.546125 -0.77607,-0.531753 l 0.1006,-0.114974 c -0.416777,-0.158089 -0.747327,-0.517382 -0.934157,-0.91979 -0.38804,-0.373664 -0.7617,-0.776072 -1.00602,-1.264711 -0.14372,-0.273062 -0.37366,-0.517381 -0.43115,-0.847931 h -0.17246 l 0.0862,-0.244319 c -0.0287,-0.01437 -0.11497,-0.02874 -0.15809,-0.04312 -0.24432,-0.891047 -0.58924,-1.75335 -0.71859,-2.673139 -0.35929,-2.01204 -0.21557,-4.110311 0.31618,-6.079236 0.14372,-0.546125 0.3593,-1.077879 0.40241,-1.652747 l 0.14372,0.02874 c -0.0144,-0.114973 -0.0288,-0.344921 -0.0288,-0.459895 l 0.12935,0.04312 c 0.0719,-0.244319 0.15809,-0.488638 0.17246,-0.747329 l 0.12935,0.01437 c 0.0575,-0.244319 0.11497,-0.488638 0.15808,-0.732957 h 0.17247 c -0.0144,-0.05749 -0.0431,-0.201205 -0.0719,-0.258691 0.0575,-0.01437 0.15809,-0.04312 0.21557,-0.05749 l -0.0719,-0.229948 c 0.0575,-0.01437 0.17246,-0.04312 0.21558,-0.05749 l -0.0719,-0.229947 c 0.0575,-0.01437 0.17246,-0.02874 0.22995,-0.04312 l -0.0862,-0.258691 0.21557,-0.01437 c -0.0144,-0.07186 -0.0575,-0.215575 -0.0719,-0.287434 h 0.22994 c -0.0287,-0.07186 -0.0719,-0.215576 -0.1006,-0.287434 l 0.17246,0.02874 c -0.0144,-0.229947 0.12935,-0.402408 0.27306,-0.560497 0.14372,-0.244319 0.30181,-0.474266 0.445527,-0.718586 0.0719,-0.158088 0.17246,-0.301806 0.27306,-0.431151 0.11497,-0.215576 0.31618,-0.373665 0.33055,-0.632356 l 0.1006,0.04312 c 0.11497,-0.201204 0.31618,-0.373665 0.33055,-0.617984 l 0.1006,0.07186 c 0.15809,-0.287434 0.31618,-0.58924 0.5605,-0.819187 0.8623,-0.905418 1.76772,-1.75335 2.63002,-2.658768 0.0431,0 0.12935,0 0.17246,0 0.15809,-0.17246 0.33055,-0.330549 0.48864,-0.50301 0.22995,-0.229947 0.51738,-0.388036 0.80482,-0.546125 l -0.0575,-0.100602 c 0.24432,-0.01437 0.43115,-0.229947 0.64673,-0.330549 0.12934,-0.100602 0.24432,-0.287435 0.45989,-0.24432 l -0.11497,-0.201204 0.21558,0.05749 c 0.0718,-0.04312 0.21557,-0.143717 0.28743,-0.186832 l -0.0575,-0.158089 0.17246,0.05749 c 0.0719,-0.04312 0.22995,-0.143717 0.31618,-0.186832 l -0.0431,-0.158089 c 0.0719,0.02874 0.21557,0.07186 0.28743,0.100602 l 0.0144,-0.229948 0.24432,0.07186 c 0.0144,-0.04312 0.0287,-0.129345 0.0431,-0.158089 0.15809,-0.05749 0.3018,-0.114974 0.47426,-0.172461 l -0.0575,-0.186832 c 0.0719,0.02874 0.21557,0.07186 0.28743,0.100602 l 0.0144,-0.229947 0.24432,0.07186 c 0.0144,-0.05749 0.0431,-0.17246 0.0575,-0.229947 l 0.24432,0.100602 c 0.0144,-0.04311 0.0144,-0.129346 0.0144,-0.172461 0.28743,-0.04312 0.5605,-0.129345 0.79044,-0.316177 0.0575,0.01437 0.15809,0.04312 0.21558,0.04312 V 12.06166 c 0.24431,-0.05749 0.48864,-0.129346 0.73295,-0.186832 l -0.0144,-0.114974 c 0.41677,0.01437 0.79044,-0.186832 1.19286,-0.287434 1.3222,-0.388037 2.68751,-0.632356 4.05281,-0.83356 1.20724,-0.08623 2.40009,-0.08623 3.60731,0 0.58923,0.114974 1.19284,0.186832 1.78209,0.301806 0.40241,0.08623 0.79045,0.244319 1.20723,0.244319 l -0.0144,0.114974 c 0.34492,0.04312 0.67547,0.172461 1.02039,0.172461 l -0.0144,0.114973 c 0.34492,0.07186 0.6611,0.287435 1.02039,0.33055 l -0.0144,0.17246 c 0.0719,-0.02874 0.21557,-0.07186 0.28743,-0.08623 0,0.05749 0.0287,0.172461 0.0287,0.215576 l 0.24432,-0.08623 c 0.0144,0.07186 0.0288,0.186833 0.0431,0.24432 l 0.27305,-0.114974 -0.0575,0.186832 c 0.2587,0.100602 0.51739,0.229948 0.73296,0.41678 0.20121,0.114974 0.38804,0.316178 0.63236,0.330549 l -0.0575,0.08623 c 0.24432,0.07186 0.34492,0.287434 0.44552,0.488638 0.0144,-0.100602 0.0288,-0.301806 0.0288,-0.388036 0.63235,-1.954554 1.29345,-3.8947346 1.94018,-5.8492879 0.11497,-0.3592929 0.3018,-0.7185858 0.33055,-1.1209938 h 0.15809 c -0.0144,-0.1149737 -0.0288,-0.3305495 -0.0431,-0.4311515 h 0.18683 c -0.0144,-0.1149737 -0.0287,-0.3305494 -0.0431,-0.4311514 h 0.14372 c 0.0431,-0.5461252 0.33055,-1.0347636 0.47426,-1.566517 -0.41682,-0.2156071 -0.87671,-0.4168111 -1.35098,-0.4168111 l 0.0431,-0.1149737 c -0.43115,-0.028743 -0.80482,-0.201204 -1.2216,-0.301806 -1.4228,-0.4455232 -2.93183,-0.5748686 -4.42649,-0.7185858 -1.92581,0 -3.86599,-0.1293454 -5.77743,0.2586909 -1.33657,0.1149737 -2.61565,0.5173817 -3.93785,0.7617009 l 0.0288,0.1437172 c -0.11498,-0.014372 -0.34492,-0.028744 -0.4599,-0.043115 l 0.0288,0.1868323 c -0.11498,-0.014372 -0.34493,-0.028743 -0.4599,-0.043115 l 0.0287,0.1868323 c -0.11497,-0.014372 -0.34492,-0.028744 -0.45989,-0.043115 l 0.0287,0.1868323 c -0.11497,-0.014372 -0.34492,-0.028743 -0.45989,-0.043115 l 0.0144,0.1580888 c -0.5605,0.028743 -1.04914,0.3592929 -1.59526,0.4598949 l 0.0144,0.1149738 c -0.25869,0.014372 -0.50301,0.100602 -0.74733,0.1580888 l 0.0431,0.1580889 c -0.11498,-0.014372 -0.33055,-0.028743 -0.44553,-0.043115 v 0.1437164 c -0.25869,0.057487 -0.48864,0.1293454 -0.73295,0.1868323 l 0.0144,0.1149737 c -0.27307,-0.014372 -0.51738,0.1293455 -0.74733,0.2443192 -0.0719,0.043115 -0.21558,0.1149737 -0.28744,0.1580889 -0.0718,0.028743 -0.21557,0.100602 -0.28743,0.1293454 -0.21558,0.100602 -0.41678,0.2155757 -0.60361,0.3305495 -0.0575,0 -0.15809,0 -0.20121,0 l -0.0431,0.1724605 c -0.0575,0 -0.18683,-0.028743 -0.24432,-0.043115 l -0.0287,0.1293454 c -0.21558,0.071859 -0.41678,0.1868323 -0.61799,0.2874343 -0.14372,0.071859 -0.28743,0.1293455 -0.43115,0.2012041 l 0.0431,0.1724605 c -0.0719,-0.028743 -0.21558,-0.071859 -0.28744,-0.100602 l -0.0144,0.1724606 c -0.38804,0.100602 -0.68984,0.3880363 -1.04914,0.5604969 -0.2012,0.1293455 -0.4024,0.301806 -0.64672,0.3449212 -0.0144,0.043115 -0.0288,0.1149737 -0.0288,0.1580889 l -0.14371,-0.043115 c -0.0862,0.043115 -0.24432,0.1437172 -0.31618,0.1868323 l 0.0431,0.1580889 -0.17246,-0.057487 c -0.0862,0.043115 -0.22994,0.1437172 -0.3018,0.1868323 l 0.0431,0.1724606 -0.2012,-0.08623 c -0.22995,0.2874343 -0.5605,0.4455232 -0.84793,0.6323555 -0.14372,0.100602 -0.27307,0.2299474 -0.44553,0.2730626 -0.0862,0.071859 -0.15808,0.1437171 -0.22994,0.2155757 -0.30181,0.08623 -0.48864,0.3736634 -0.70422,0.5748674 -0.28743,0.114974 -0.488637,0.33055 -0.689837,0.531754 -0.21558,0.229947 -0.50301,0.373665 -0.73296,0.560497 -0.0719,0.158089 -0.21557,0.244319 -0.37366,0.287434 -0.51738,0.459895 -0.96291,0.991648 -1.49466,1.437172 -0.11497,0.201204 -0.33055,0.258691 -0.48864,0.388036 -0.12934,0.158089 -0.2012,0.373665 -0.37366,0.488638 -0.5605,0.617984 -1.17848,1.178481 -1.73898,1.782093 -0.12935,0.359293 -0.48864,0.574869 -0.71859,0.862303 -0.12934,0.359293 -0.47426,0.574869 -0.71858,0.862303 -0.0575,0.258691 -0.28744,0.41678 -0.48864,0.560497 l 0.0719,0.215576 -0.15809,-0.04312 c -0.11497,0.186833 -0.22995,0.373665 -0.34492,0.560497 -0.27306,0.172461 -0.53176,0.388037 -0.84793,0.474267 -0.0144,0.330549 -0.10061,0.646727 -0.17246,0.977277 -0.14372,0.301806 -0.28744,0.58924 -0.41678,0.891046 -0.0431,0.01437 -0.11498,0.02874 -0.15809,0.04312 l 0.0431,0.172461 c -0.22994,0.344921 -0.47426,0.689842 -0.61798,1.09225 l -0.12935,0.02874 c 0.0144,0.04312 0.0144,0.143718 0.0288,0.201204 -0.12935,0.186833 -0.24432,0.388037 -0.33055,0.603612 -0.18683,0.445524 -0.50301,0.847932 -0.5605,1.322198 l -0.18683,-0.01437 c 0.0287,0.07186 0.0862,0.215575 0.11497,0.287434 h -0.17246 c -0.2012,0.617984 -0.31618,1.293454 -0.70421,1.839579 -0.15809,0.33055 -0.44553,0.589242 -0.74733,0.790445 -0.54613,0.244319 -1.14974,0.287434 -1.73898,0.229947 -0.0431,-0.04312 -0.12934,-0.129345 -0.17246,-0.186832 -0.45989,-0.100602 -0.87667,-0.301806 -1.33657,-0.431151 -0.77607,-0.273063 -1.60963,-0.273063 -2.3857,-0.531754 -0.58924,-0.287434 -1.16411,-0.790444 -1.27909,-1.480287 -0.24432,-0.833559 0.11498,-1.767721 0.80482,-2.285102 0.80482,-0.603612 1.81084,-0.847932 2.63002,-1.408429 1.53778,-0.833559 2.80249,-2.09827 3.86599,-3.477955 0.22995,-0.229947 0.51739,-0.373664 0.80482,-0.517381 0.0719,-1.149738 0.80482,-2.069527 1.17848,-3.133034 0.68984,-1.667119 1.20723,-3.463584 1.13537,-5.3031626 0.0862,-1.6958624 -0.91979,-3.4060965 -2.45757,-4.139054 -1.33657,-0.7042141 -2.81685,-1.0778787 -4.31151,-1.2215958 -1.46592,-0.2155758 -2.96057,-0.2586909 -4.44086,-0.2443192 -5.978635,0 -11.957269,0 -17.935902,0 -2.385705,6.9559096 -4.828897,13.8974476 -7.243345,20.8389866 -0.186832,0.531753 -0.560497,0.991648 -1.049135,1.250339 -0.661099,0.244319 -1.379685,0.373665 -2.083899,0.301806 -6.884051,-0.01437 -13.782475,0 -20.666527,-0.01437 -0.574868,1.566517 -1.106622,3.133034 -1.638375,4.713922 -0.08623,0.186833 -0.143717,0.388037 -0.229948,0.574869 -0.05749,0.215576 -0.129345,0.431151 -0.201204,0.646727 2.313847,0 4.613321,0 6.927167,0 0.344921,-0.01437 0.689843,0.08623 1.034764,0.158089 0.732957,0.186832 1.307826,0.833559 1.437171,1.580889 0.215576,0.661098 -0.08623,1.350941 -0.388036,1.940181 -0.776073,1.667119 -1.83958,3.190521 -3.075547,4.527091 -0.474267,0.388036 -0.905418,0.833559 -1.365313,1.250339 -0.790444,0.560497 -1.566517,1.164109 -2.457563,1.566517 -0.373665,0.201204 -0.761701,0.388036 -1.135366,0.58924 -0.531753,0.186832 -1.063507,0.359293 -1.59526,0.560497 -0.862303,0.273063 -1.767721,0.41678 -2.658768,0.603612 -0.330549,0.07186 -0.661099,0.158089 -1.00602,0.158089 -1.00602,0 -2.026412,0.04312 -3.032432,-0.01437 -1.049135,-0.186832 -2.083898,-0.373664 -3.089919,-0.732957 -1.149737,-0.431152 -2.112642,-1.221596 -3.046803,-2.01204 -0.344921,-0.344922 -0.603612,-0.74733 -0.91979,-1.106623 -0.574869,-0.67547 -0.962905,-1.465915 -1.350941,-2.241987 -0.546125,-1.595261 -0.991649,-3.26238 -0.91979,-4.958242 -0.08623,-2.42882 0.517382,-4.800153 1.192852,-7.113999 0.100602,-0.344921 0.201204,-0.675471 0.344921,-0.991648 0.100602,-0.24432 0.186833,-0.488639 0.287435,-0.718586 0.129345,-0.344921 0.273062,-0.689843 0.431151,-1.020392 0.905418,-2.112642 2.198873,-4.038452 3.549814,-5.892403 0.661099,-0.790445 1.235967,-1.638376 1.983297,-2.34259 1.451543,-1.566517 3.133034,-2.874343 4.929498,-4.009709 0.847931,-0.459895 1.681491,-0.948533 2.586909,-1.293454 0.229947,-0.100602 0.474266,-0.201204 0.718586,-0.301806 1.250339,-0.3449204 2.51505,-0.7042133 3.808504,-0.8766739 0.804816,-0.028743 1.624004,-0.1724605 2.42882,-0.043115 0.862303,-0.014372 1.681491,0.2443192 2.500679,0.4167797 0.459895,0.08623 0.876674,0.2730626 1.307826,0.4311512 1.063507,0.431152 1.983296,1.149738 2.744997,1.983297 0.344922,0.41678 0.661099,0.862303 0.977277,1.293455 0.359293,0.474266 0.517382,1.049135 0.790444,1.566517 0.172461,0.474266 0.287435,0.962904 0.388037,1.465914 0.186832,-0.05749 0.373664,-0.129345 0.560497,-0.186832 0.388036,-0.143717 0.776072,-0.287434 1.149737,-0.431151 0.388036,-0.143717 0.776072,-0.287435 1.149737,-0.431152 2.34259,-0.876674 4.685179,-1.738977 7.013397,-2.644395 C 52.513122,12.190974 52.398148,11.687964 52.297546,11.184954 52.110714,10.81129 51.981368,10.423253 51.866395,10.035217 51.4065,8.986082 50.917861,7.9513185 50.199276,7.0602722 49.926213,6.7584662 49.667522,6.4422884 49.408831,6.1404824 48.201607,4.8901431 46.663834,4.0422119 45.068573,3.3954847 43.918836,3.0074484 42.769099,2.576297 41.547503,2.475695 38.730647,2.0732869 35.870675,2.1164021 33.068191,2.5044384 M 363.43081,3.4242282 c -0.60361,0.100602 -1.19285,0.1868323 -1.78209,0.2874343 -2.37134,0.5173817 -4.64207,1.4946584 -6.72597,2.7306259 -0.80481,0.5317535 -1.66711,0.9916484 -2.37133,1.6527473 -0.81919,0.6179838 -1.50903,1.3796847 -2.27073,2.0407833 -0.35929,0.316178 -0.64673,0.704214 -0.94853,1.063507 -0.50301,0.603612 -1.06351,1.178481 -1.46592,1.853951 -0.37366,0.589241 -0.91979,1.149737 -1.63837,1.279083 -0.94854,0.273062 -2.0839,-0.258691 -2.41445,-1.207224 -0.25869,-0.732958 -0.15809,-1.523402 -0.17246,-2.299475 -0.0144,-1.4946578 -0.57487,-3.0324313 -1.65275,-4.0959383 -0.81919,-0.9341615 -1.9833,-1.465915 -3.13303,-1.8826947 -1.2216,-0.4598949 -2.52942,-0.6036121 -3.82288,-0.7473292 -2.06953,-0.1149737 -4.12468,-0.071859 -6.19421,-0.08623 -4.45523,0 -8.91046,0.014372 -13.36569,0 -0.90542,-0.08623 -1.82521,0.028743 -2.73063,0 -5.27442,0 -10.53447,0.014372 -15.80889,0 -1.00602,-0.057487 -2.01204,-0.028743 -3.01806,-0.043115 -2.15575,0.014372 -4.31151,0 -6.46727,0.014372 -1.60963,0.100602 -3.24801,-0.028744 -4.85764,0.057487 -1.88269,1.868323 -3.73664,3.7653895 -5.5906,5.6768276 -2.14138,2.2132436 -4.32588,4.3833726 -6.48164,6.5966176 -0.45989,0.488638 -0.93416,1.020391 -1.60963,1.17848 -1.03477,0.373665 -2.35696,-0.229947 -2.6444,-1.322198 -1.27908,-4.052823 -2.60128,-8.0912751 -3.86599,-12.1584706 -3.42047,0 -6.84094,0.028743 -10.27578,-0.014372 0.91979,2.6156522 1.7821,5.2600478 2.67314,7.8757006 1.62401,4.828896 3.24801,9.643421 4.88639,14.472317 0.17246,0.517382 0.34492,1.034764 0.41678,1.580889 -0.0719,0.546125 -0.24432,1.063507 -0.41678,1.580888 -2.14139,6.424157 -4.2684,12.848314 -6.40979,19.272471 -0.12934,0.445523 -0.44552,0.847931 -0.8623,1.077878 0.27306,-0.02874 0.54612,-0.04312 0.83356,-0.04312 2.50068,0.01437 5.01573,0 7.53078,0.01437 2.45756,-7.487664 4.97261,-14.946584 7.44455,-22.434248 0.24431,-0.776072 0.87667,-1.322198 1.43717,-1.882695 3.49232,-3.449211 6.95591,-6.927166 10.44823,-10.39075 0.77608,-0.804816 2.14139,-0.977276 3.01806,-0.244319 0.51739,0.388036 0.71859,1.049135 0.76171,1.667119 -0.11498,0.819188 -0.41678,1.59526 -0.70422,2.356961 -3.69353,10.30452 -7.40143,20.623412 -11.09496,30.927932 7.80384,-0.01437 15.60768,0 23.41152,0 1.00602,0.08623 2.01204,-0.02874 3.01806,0 2.91746,0 5.83492,0 8.76675,-0.01437 2.12701,-5.892403 4.23965,-11.799178 6.36667,-17.691581 0.2012,-0.661099 0.73296,-1.235968 1.4228,-1.408429 0.35929,-0.08623 0.74733,-0.244319 1.13536,-0.100602 0.80482,0.100602 1.49466,0.704215 1.71024,1.480287 1.27908,4.872012 2.57253,9.744023 3.86599,14.616035 0.25869,1.034763 0.57487,2.069527 0.80482,3.118662 4.13905,-0.02874 8.2781,0 12.43153,-0.01437 0.60361,-0.01437 1.20722,0.129346 1.78209,0.316178 1.96893,0.876675 4.12468,1.33657 6.26607,1.50903 1.25034,0 2.48631,0 3.73665,0 0.45989,0 0.93416,0.02874 1.40842,-0.05749 1.0204,-0.17246 2.05516,-0.287434 3.07555,-0.531753 3.65042,-0.790445 7.114,-2.42882 10.08895,-4.685179 1.00602,-0.847932 1.96892,-1.75335 2.87434,-2.716255 1.07788,-1.264711 1.89706,-2.730626 2.745,-4.167797 0.51738,-1.063507 1.13536,-2.098271 1.53777,-3.219264 0.44552,-1.077879 0.87667,-2.170129 1.14974,-3.319867 0.14371,-0.790444 0.18683,-1.609632 0.15809,-2.42882 -0.0431,-0.632355 -0.0431,-1.279082 -0.31618,-1.853951 -0.44553,-0.905418 -1.04914,-1.767721 -1.89707,-2.342589 -0.71858,-0.531754 -1.55214,-0.91979 -2.32822,-1.365313 -2.24198,-1.092251 -4.71392,-1.652748 -6.99902,-2.644396 -1.2216,-0.603612 -2.41445,-1.4228 -3.11866,-2.615652 -0.40241,-0.603612 -0.53176,-1.33657 -0.67547,-2.040784 -0.0431,-0.603612 0.15808,-1.207224 0.28743,-1.796464 0.31618,-1.350942 1.16411,-2.558166 2.24199,-3.420469 1.88269,-1.652747 4.39774,-2.4719347 6.86968,-2.6012801 0.89104,0.043115 1.76772,0.1149737 2.63002,0.3592931 1.65275,0.330549 3.24801,0.991648 4.57021,2.055155 1.86832,-2.170129 3.73664,-4.3258863 5.60497,-6.4816436 -1.8827,-0.9916484 -3.95223,-1.5808887 -6.00738,-2.0407836 -0.67547,-0.1149737 -1.35094,-0.201204 -2.01204,-0.2874343 -0.68984,-0.1149737 -1.37969,-0.071859 -2.05516,-0.1437172 -0.48864,-0.043115 -0.9629,-0.028743 -1.43717,0.014372 -0.58924,0.057487 -1.19285,0.028743 -1.76772,0.1149738 M 142.07765,14.634166 c -0.63236,0.574869 -1.07788,1.322198 -1.53777,2.040784 -0.61799,1.164108 -1.19286,2.385704 -1.46592,3.679159 -4.2684,-0.01437 -8.55117,-0.01437 -12.81957,0 0.53175,-1.063507 1.00602,-2.155758 1.58089,-3.190521 -1.25034,-2.01204 -3.4061,-3.305495 -5.64808,-3.880363 -2.93183,-0.790445 -6.03613,-0.574869 -8.92484,0.273062 -2.35696,0.617984 -4.49835,1.882695 -6.42416,3.362982 -1.78209,1.451543 -3.5067,3.061175 -4.71392,5.0301 -1.29345,1.954553 -2.256357,4.139054 -2.802477,6.409785 -0.44553,2.098271 -0.51739,4.325886 0.22994,6.352298 0.38804,1.135366 1.120997,2.112643 1.954557,2.946202 1.29345,1.235968 2.97494,2.01204 4.72829,2.356961 3.10429,0.603612 6.36667,0.215576 9.32724,-0.847931 0.97728,-0.330549 1.89707,-0.804816 2.83123,-1.221596 1.59526,-0.847931 3.07555,-1.853951 4.51272,-2.946201 -1.43717,4.210912 -2.85997,8.421825 -4.28277,12.647109 0.48864,-0.359293 0.94853,-0.761701 1.43717,-1.135365 6.03612,-4.886383 12.08661,-9.758395 18.13711,-14.644778 1.78209,-1.451544 3.59293,-2.888715 5.21693,-4.555834 0.70421,-0.675471 1.35094,-1.408428 2.04078,-2.112642 1.3222,-1.609632 2.57254,-3.291123 3.49233,-5.173818 0.44552,-1.00602 0.94853,-2.040783 1.06351,-3.161777 0.12934,-1.164109 0.0862,-2.486307 -0.70422,-3.43484 -0.56049,-0.574869 -1.30782,-1.063507 -2.14138,-1.077879 -1.92581,-0.01437 -3.79414,0.876675 -5.08759,2.285103 M 86.631573,22.29429 c -0.57487,0.50301 -1.22159,0.891047 -1.88269,1.279083 -0.79045,0.50301 -1.68149,0.804816 -2.50068,1.264711 1.27908,0.258691 2.58691,0.474266 3.77976,1.034763 0.27306,-0.646727 0.47427,-1.322197 0.7617,-1.968925 0.53175,-1.135365 1.07788,-2.270731 1.69586,-3.377353 -0.64672,0.574869 -1.14973,1.264711 -1.85395,1.767721 z"
     id="path1" />
  <path
     fill="#ffffff"
     stroke="#ffffff"
     stroke-width="0.09375"
     opacity="1"
     d="m 70.621483,9.3022598 c 0.790445,-0.1293455 1.595261,0 2.385705,0.043115 0.661099,0.071859 1.322198,0 1.983295,0.1149738 0.70422,0.08623 1.4228,0.2443191 2.11264,0.4311514 1.27909,0.388036 2.40008,1.235967 3.07555,2.385705 0.34492,0.488638 0.40241,1.09225 0.53175,1.652747 0.15809,0.632355 0.0288,1.279083 -0.12934,1.897066 -0.14372,0.589241 -0.24432,1.192853 -0.48864,1.75335 -0.41678,1.077878 -1.12099,2.026411 -1.89707,2.874343 -0.89104,0.790444 -1.89706,1.480286 -3.01806,1.897066 -1.063503,0.388036 -2.155753,0.646727 -3.276747,0.819188 -1.063507,0.04312 -2.127014,0.186832 -3.190521,0.158089 -0.574869,-0.01437 -1.164109,0.05749 -1.724606,-0.100602 -1.221596,-0.186833 -1.997668,-1.595261 -1.609632,-2.730626 0.215576,-0.776073 0.517382,-1.537774 0.776073,-2.299475 0.776072,-2.285102 1.59526,-4.541462 2.356961,-6.826564 0.201204,-0.603613 0.431152,-1.264711 0.977277,-1.6527476 C 69.816667,9.4747203 70.233447,9.38849 70.621483,9.3022597 M 70.7652,11.429273 c -1.120993,3.248008 -2.241987,6.496016 -3.391724,9.744023 1.408428,0.02874 2.802484,-0.05749 4.210912,-0.143717 1.192853,-0.114973 2.385705,-0.416779 3.449215,-0.977276 2.12701,-1.020392 3.53544,-3.305495 3.57855,-5.648085 0,-0.991648 -0.74733,-1.825207 -1.59526,-2.241987 -0.77607,-0.431152 -1.68149,-0.517382 -2.54379,-0.58924 -1.235968,-0.05749 -2.471935,-0.143718 -3.707903,-0.143718 z"
     id="path2" />
  <path
     fill="#ffffff"
     stroke="#ffffff"
     stroke-width="0.09375"
     opacity="1"
     d="m 322.9888,9.7334112 c 0.25869,-0.071858 0.53176,-0.057487 0.81919,-0.057487 2.0839,-0.014372 4.21091,0.1149737 6.19421,0.8048158 0.81919,0.273063 1.50903,0.790444 2.14139,1.350941 0.61798,0.689843 1.12099,1.523402 1.32219,2.443192 0.15809,0.704214 0.34493,1.437172 0.21558,2.155757 -0.31618,1.940182 -1.00602,3.837248 -2.15576,5.44688 -0.44552,0.503011 -0.80481,1.092251 -1.35094,1.494659 -0.94853,0.761701 -1.94018,1.494658 -3.06117,1.92581 -2.28511,0.876674 -4.74267,1.250339 -7.18586,1.192852 -0.71859,0.01437 -1.46592,0.02874 -2.14139,-0.273062 -0.87667,-0.445524 -1.36531,-1.537774 -1.07788,-2.486307 0.12935,-0.560497 0.37367,-1.092251 0.5605,-1.652747 1.30783,-3.650416 2.61565,-7.300832 3.92348,-10.951248 0.3018,-0.732957 0.97728,-1.3221974 1.79646,-1.394056 m 0.24432,2.09827 c -1.50903,4.167798 -2.98931,8.335595 -4.49834,12.503393 1.46591,0.01437 2.91745,0 4.369,-0.172461 1.69586,-0.258691 3.39172,-0.747329 4.80015,-1.767721 1.26471,-0.847931 2.25636,-2.09827 2.83123,-3.52107 0.40241,-0.962905 0.81919,-1.954553 0.80481,-3.01806 0.0288,-0.876675 -0.3018,-1.738978 -0.84793,-2.414448 -0.81919,-0.83356 -1.98329,-1.207225 -3.11866,-1.379685 -1.43717,-0.172461 -2.88871,-0.244319 -4.34026,-0.229948 z"
     id="path3" />
  <path
     fill="#ffffff"
     stroke="#ffffff"
     stroke-width="0.09375"
     opacity="1"
     d="m 174.22718,10.150191 c 1.65274,-0.114974 3.33423,0 5.00135,0.100602 1.03477,0.05749 2.04079,0.301806 3.01806,0.58924 1.20723,0.388036 2.12702,1.408428 2.65877,2.51505 0.31618,1.034764 0.6611,2.127014 0.44552,3.219264 -0.45989,2.34259 -1.19285,4.699551 -2.65876,6.61099 -0.48864,0.761701 -1.20723,1.322197 -1.94018,1.825207 -0.67548,0.517382 -1.40843,0.962905 -2.24199,1.192853 -1.20723,0.402408 -2.47194,0.632355 -3.73665,0.718586 -1.58089,-0.01437 -3.16178,0.08623 -4.75704,0.04312 -0.56049,-0.07186 -1.14973,-0.201204 -1.55214,-0.632356 -0.44552,-0.402408 -0.5605,-1.00602 -0.63236,-1.566517 0.0431,-0.50301 0.20121,-0.962905 0.3593,-1.437171 1.32219,-3.837248 2.64439,-7.660125 3.95222,-11.497373 0.15809,-0.58924 0.56049,-1.120993 1.10662,-1.408428 0.30181,-0.129345 0.64673,-0.201204 0.97728,-0.273062 m 0.0287,2.141385 c -0.50301,1.580889 -1.09225,3.133034 -1.60963,4.713923 -0.90542,2.60128 -1.78209,5.216933 -2.70188,7.803841 1.65274,-0.01437 3.31986,-0.01437 4.97261,-0.07186 1.63837,-0.114974 3.33424,-0.488638 4.64206,-1.50903 1.14974,-0.776073 1.94018,-1.968925 2.51505,-3.204893 0.50301,-1.192852 0.96291,-2.42882 1.13537,-3.722274 0.14372,-1.164109 -0.21558,-2.51505 -1.2216,-3.204893 -0.91979,-0.546125 -2.01204,-0.617983 -3.0468,-0.689842 -1.56652,-0.129345 -3.13303,-0.100602 -4.68518,-0.114974 z"
     id="path4" />
  <path
     fill="#ffffff"
     stroke="#ffffff"
     stroke-width="0.09375"
     opacity="1"
     d="m 295.71129,10.768174 c 0.44552,-0.07186 0.90542,-0.02874 1.36531,-0.02874 4.1678,0 8.3356,0 12.50339,-0.01437 0.73296,0.04312 1.53778,0.201204 2.05516,0.776073 0.37366,0.388036 0.50301,0.962905 0.53175,1.480287 -0.1006,0.804816 -0.43115,1.537773 -0.68984,2.299474 -0.79045,2.198873 -1.58089,4.383373 -2.35696,6.582246 -0.22995,0.661099 -0.74733,1.235967 -1.43717,1.408428 -0.37367,0.100602 -0.73296,0.201204 -1.121,0.201204 -4.21091,0 -8.43619,0 -12.64711,0 -0.74733,0.02874 -1.5234,-0.05749 -2.1845,-0.388036 -0.6611,-0.373665 -0.99165,-1.120994 -1.03476,-1.853952 0.0719,-0.560497 0.25869,-1.106622 0.45989,-1.638375 0.90542,-2.500679 1.79647,-5.015729 2.70189,-7.516407 0.31617,-0.761701 1.0635,-1.235968 1.85395,-1.307827 m 0.11497,2.141386 c -0.12934,0.459895 -0.3018,0.905418 -0.45989,1.365313 -0.86231,2.328218 -1.68149,4.685179 -2.5438,7.013397 4.74267,-0.02874 9.48533,0.01437 14.228,-0.01437 0.99165,-2.788112 1.9833,-5.576225 2.98932,-8.364338 -4.74267,0 -9.47096,0.01437 -14.21363,0 z"
     id="path5" />
  <path
     fill="#ffffff"
     stroke="#ffffff"
     stroke-width="0.09375"
     opacity="1"
     d="m 236.77288,15.209035 c 0.51738,0.05749 1.06351,0.186832 1.46592,0.560496 0.54612,0.474267 0.70421,1.25034 0.71858,1.954554 0,5.073215 0,10.160803 0.0144,15.234018 -0.0144,0.431152 -0.1006,0.876675 -0.24431,1.279083 -0.24432,0.546125 -0.74733,0.977276 -1.3222,1.106622 -0.50301,0.158089 -1.03477,0.158089 -1.55215,0.158089 -3.26238,-0.01437 -6.52476,0 -9.77276,-0.01437 -0.63236,-0.05749 -1.30783,-0.172461 -1.7821,-0.617984 -0.74733,-0.661099 -0.84793,-1.882694 -0.33055,-2.716254 3.62168,-5.288791 7.24335,-10.577583 10.85065,-15.880746 0.21557,-0.330549 0.50301,-0.646727 0.89105,-0.804816 0.34492,-0.129345 0.68984,-0.215575 1.0635,-0.25869 m -9.44221,15.852002 c -0.53176,0.747329 -1.00602,1.537773 -1.58089,2.270731 3.69353,-0.01437 7.37269,-0.02874 11.05185,0 -0.0431,-5.36065 0,-10.7213 -0.0144,-16.08195 -3.17615,4.584577 -6.29481,9.21227 -9.45658,13.811219 z"
     id="path6" />
  <path
     fill="#ffffff"
     stroke="#ffffff"
     stroke-width="0.09375"
     opacity="1"
     d="m 340.53667,21.072694 c 0.93416,-0.58924 2.31384,-0.359292 2.91746,0.589241 0.50301,0.847931 0.33055,1.868323 0.44552,2.802484 0.0287,0.689843 0.37366,1.307826 0.73296,1.882695 0.94853,1.293454 2.47193,1.968925 3.92348,2.543794 1.25033,0.546125 2.57253,0.891046 3.85161,1.365313 0.99165,0.388036 2.04079,0.646727 3.00369,1.09225 1.43717,0.747329 2.87435,1.782093 3.5067,3.334238 0.28744,0.804816 0.51738,1.695862 0.33055,2.558165 -0.17246,0.747329 -0.31618,1.50903 -0.67547,2.198873 -0.28743,0.747329 -0.84793,1.350941 -1.30783,1.997668 -1.68149,1.997669 -4.19654,3.118662 -6.7547,3.463584 -1.4228,0.244319 -2.88872,0.143717 -4.29714,-0.158089 -1.25034,-0.258691 -2.50068,-0.589241 -3.59293,-1.264711 -0.64673,-0.33055 -1.19286,-0.819188 -1.7821,-1.235968 -0.54612,-0.388036 -1.03476,-0.847931 -1.53777,-1.293454 -1.30783,1.480287 -2.61565,2.960573 -3.93785,4.44086 -0.9629,1.063507 -3.00369,0.833559 -3.6073,-0.517382 -1.49466,-3.751018 -2.9462,-7.516407 -4.44086,-11.281796 -0.24432,-0.632356 -0.54613,-1.264711 -0.64673,-1.954554 -0.1006,-1.00602 0.57487,-2.055155 1.59526,-2.241987 1.26471,-0.244319 2.51505,-0.546126 3.67916,-1.106622 2.11264,-0.862303 4.00971,-2.241988 5.60497,-3.865992 0.77607,-0.761701 1.55215,-1.552145 2.17013,-2.457563 0.22995,-0.33055 0.47427,-0.661099 0.81919,-0.891047 m -3.83725,6.955911 c -2.31385,1.738977 -5.01573,2.960573 -7.8757,3.406096 0.17246,0.560497 0.40241,1.106622 0.61798,1.652748 1.4228,3.650415 2.85997,7.272088 4.2684,10.922503 1.85395,-2.112642 3.72228,-4.210912 5.5906,-6.309183 0.53175,0.589241 0.99165,1.221596 1.59526,1.753349 1.33657,1.25034 2.8456,2.443192 4.64206,2.946202 1.85396,0.517382 3.82288,0.617984 5.70558,0.201204 1.73897,-0.459895 3.46358,-1.336569 4.55583,-2.816856 0.64673,-0.761701 1.09225,-1.681491 1.30783,-2.658767 0.25869,-1.106623 -0.34493,-2.241988 -1.2216,-2.917459 -1.07788,-0.934161 -2.47194,-1.350941 -3.79413,-1.782092 -1.17848,-0.445524 -2.38571,-0.804816 -3.56419,-1.221596 -1.39405,-0.560497 -2.83123,-1.063507 -4.02408,-1.997669 -1.26471,-0.876674 -2.25636,-2.198872 -2.58691,-3.707902 -0.2012,-0.862303 -0.3018,-1.75335 -0.2012,-2.644396 -1.35094,2.01204 -3.10429,3.722274 -5.01573,5.173818 z"
     id="path7" />
  <path
     fill="#ffffff"
     stroke="#ffffff"
     stroke-width="0.09375"
     opacity="1"
     d="m 156.89489,23.731462 c 0.21557,-0.01437 0.41678,-0.05749 0.61798,-0.143717 0.11498,0 0.34492,0 0.47427,-0.01437 0.6611,0.201204 1.35094,0.546125 1.63837,1.221596 0.10061,0.402408 0.27307,0.819188 0.14372,1.235967 -0.12934,0.546125 -0.27306,1.077879 -0.47427,1.609632 -1.68149,4.843268 -3.37735,9.672165 -5.05884,14.515433 -0.21558,0.50301 -0.58924,0.977277 -1.09225,1.235968 -0.61798,0.244319 -1.27908,0.316177 -1.94018,0.316177 -3.73665,0 -7.47329,0 -11.20994,0 -0.67547,-0.01437 -1.36531,0.02874 -2.04078,-0.08623 -0.15809,-0.05749 -0.30181,-0.100602 -0.4599,-0.143717 -0.40241,-0.244319 -0.73296,-0.574869 -0.9629,-0.977277 -0.0575,-0.158089 -0.1006,-0.316178 -0.15809,-0.459895 -0.0575,-0.359293 -0.0575,-0.704214 0,-1.063507 0.0575,-0.143717 0.1006,-0.301806 0.14372,-0.459895 0.17246,-0.244319 0.33054,-0.50301 0.57486,-0.689842 3.77977,-2.730626 7.5739,-5.461252 11.33929,-8.220621 0.87667,-0.632356 1.71023,-1.33657 2.55816,-2.01204 0.94854,-0.876675 1.95456,-1.695863 2.8456,-2.630024 0.80482,-0.776073 1.48029,-1.681491 2.19888,-2.529422 0.24431,-0.287434 0.54612,-0.517382 0.8623,-0.704214 m -1.58089,4.85764 c -0.83356,0.905418 -1.79647,1.652747 -2.68751,2.486306 -0.73296,0.603612 -1.48029,1.192853 -2.22762,1.782093 -3.72227,2.759369 -7.50203,5.44688 -11.25305,8.177506 -0.24432,0.186832 -0.50301,0.344921 -0.77607,0.50301 0.77607,-0.05749 1.56651,-0.01437 2.34259,-0.02874 3.82287,-0.01437 7.63138,0.01437 11.45425,-0.01437 0.0288,-0.05749 0.0862,-0.186832 0.11498,-0.258691 1.78209,-5.116331 3.56418,-10.232661 5.36065,-15.33462 -0.71859,0.948533 -1.48029,1.853951 -2.32822,2.687511 z"
     id="path8" />
  <path
     fill="#ffffff"
     stroke="#ffffff"
     stroke-width="0.09375"
     opacity="1"
     d="m 64.039238,28.732819 c 1.825207,-0.04312 3.650415,-0.02874 5.475623,-0.01437 1.135366,0 2.241988,0.201204 3.334238,0.488638 1.408428,0.287435 2.802484,0.934162 3.722274,2.083899 0.30181,0.359293 0.58924,0.761701 0.74733,1.221596 0.25869,0.847931 0.45989,1.738977 0.28743,2.630024 -0.28743,1.480287 -0.74733,2.974945 -1.66712,4.182169 -0.80481,1.250339 -2.040779,2.155757 -3.334233,2.802485 -1.552145,0.862302 -3.334238,1.09225 -5.044472,1.422799 -0.617984,0.04312 -1.235968,0.143718 -1.868323,0.186833 -1.767721,-0.01437 -3.535442,0.129345 -5.317535,0.07186 -0.833559,-0.05749 -1.738977,-0.445523 -2.09827,-1.264711 -0.100602,-0.388036 -0.273063,-0.804816 -0.143717,-1.207224 0.158088,-0.747329 0.459894,-1.437171 0.689842,-2.141385 1.00602,-2.903087 2.01204,-5.791802 3.003688,-8.680517 0.201204,-0.632355 0.617984,-1.221595 1.207224,-1.537773 0.33055,-0.129346 0.661099,-0.201204 1.006021,-0.244319 m -0.07186,2.141385 c -1.250339,3.592929 -2.486307,7.185858 -3.736646,10.778787 0.862303,0 1.724606,0.01437 2.586909,-0.01437 1.882694,-0.04312 3.794133,-0.01437 5.662456,-0.41678 1.020391,-0.17246 2.040783,-0.416779 2.960573,-0.919789 0.876675,-0.41678 1.710234,-0.948534 2.356961,-1.681491 0.776073,-0.948533 1.307832,-2.083899 1.595262,-3.262379 0.17246,-0.761701 0.2012,-1.595261 -0.18683,-2.285103 -0.546129,-0.934162 -1.566521,-1.465915 -2.586912,-1.753349 -0.991649,-0.258691 -2.01204,-0.445524 -3.046804,-0.431152 -1.868323,-0.02874 -3.736646,0 -5.604969,-0.01437 z"
     id="path9" />
  <path
     fill="#ffffff"
     stroke="#ffffff"
     stroke-width="0.09375"
     opacity="1"
     d="m 288.81286,30.16999 c 0.40241,-0.05749 0.81919,-0.02874 1.2216,-0.02874 4.21091,0 8.4362,0 12.64711,0 0.68984,0.02874 1.46591,0.17246 1.94018,0.718586 0.38804,0.416779 0.50301,0.991648 0.57487,1.537773 -0.0575,0.589241 -0.27306,1.149737 -0.4599,1.710234 -0.89104,2.486307 -1.78209,4.958242 -2.67313,7.444549 -0.21558,0.661099 -0.74733,1.221596 -1.4228,1.408428 -0.37367,0.100602 -0.73296,0.201204 -1.121,0.201204 -4.41211,0 -8.80986,0 -13.22198,0 -0.48863,0 -0.9629,-0.114974 -1.4228,-0.258691 -0.79044,-0.330549 -1.22159,-1.164109 -1.25034,-1.983297 0.0719,-0.574868 0.27307,-1.120993 0.4599,-1.667119 0.87667,-2.428819 1.75335,-4.872011 2.63002,-7.300831 0.21558,-0.632355 0.63236,-1.221596 1.23597,-1.537774 0.27306,-0.114973 0.57487,-0.186832 0.8623,-0.244319 m 0.0862,2.141386 c -1.09225,2.874343 -2.08389,5.791801 -3.16177,8.666144 4.74266,-0.02874 9.4997,0.01437 14.25674,-0.01437 1.03476,-2.888715 2.06953,-5.77743 3.10429,-8.651773 -4.74267,0 -9.47096,0 -14.19926,-10e-7 z"
     id="path10" />
</svg>
