<?xml version="1.0" encoding="UTF-8" standalone="no"?>
<svg
   version="1.1"
   viewBox="0 0 379.99811 47.501003"
   id="svg22"
   width="379.99811"
   height="47.501003"
   xmlns="http://www.w3.org/2000/svg"
   xmlns:svg="http://www.w3.org/2000/svg">
  <defs
     id="defs22" />
  <rect
     x="18.650711"
     y="-40.288528"
     transform="rotate(90)"
     class="st1"
     width="10.578869"
     height="22.404636"
     style="fill:#ffffff;stroke-width:0.0989604"
     id="rect1" />
  <rect
     x="66.442024"
     y="16.160236"
     class="st1"
     width="10.578869"
     height="30.687626"
     style="fill:#ffffff;stroke-width:0.0989604"
     id="rect2" />
  <path
     class="st1"
     d="m 77.020891,16.160235 c -3.522991,0 -7.055878,0 -10.578868,0 0,-4.601659 -6.897542,-4.601659 -6.897542,0 -3.52299,0 -7.055877,0 -10.578868,0 -0.0099,-18.7134137 28.055278,-18.7134137 28.055278,0 z"
     style="fill:#ffffff;stroke-width:0.0989604"
     id="path2" />
  <rect
     x="48.955719"
     y="16.160236"
     class="st1"
     width="10.578869"
     height="30.687626"
     style="fill:#ffffff;stroke-width:0.0989604"
     id="rect3" />
  <rect
     x="23.940224"
     y="-76.078293"
     transform="rotate(90)"
     class="st1"
     width="10.578869"
     height="25.739605"
     style="fill:#ffffff;stroke-width:0.0989604"
     id="rect4" />
  <rect
     x="295.92136"
     y="9.1439419"
     class="st1"
     width="10.578869"
     height="37.703918"
     style="fill:#ffffff;stroke-width:0.0989604"
     id="rect5" />
  <rect
     x="2.1308379"
     y="-313.30872"
     transform="rotate(90)"
     class="st1"
     width="10.578869"
     height="24.205719"
     style="fill:#ffffff;stroke-width:0.0989604"
     id="rect6" />
  <rect
     x="239.19724"
     y="16.160236"
     class="st1"
     width="10.578869"
     height="30.687626"
     style="fill:#ffffff;stroke-width:0.0989604"
     id="rect7" />
  <path
     class="st1"
     d="m 249.77608,16.160235 c -3.52299,0 -7.05587,0 -10.57886,0 0,-4.601659 -6.89754,-4.601659 -6.89754,0 -3.52299,0 -7.05588,0 -10.57888,0 0,-18.7134137 28.05528,-18.7134137 28.05528,0 z"
     style="fill:#ffffff;stroke-width:0.0989604"
     id="path7" />
  <rect
     x="221.72081"
     y="16.160236"
     class="st1"
     width="10.578869"
     height="30.687626"
     style="fill:#ffffff;stroke-width:0.0989604"
     id="rect8" />
  <rect
     x="23.944071"
     y="-248.83955"
     transform="rotate(90)"
     class="st1"
     width="10.578869"
     height="25.739605"
     style="fill:#ffffff;stroke-width:0.0989604"
     id="rect9" />
  <rect
     x="99.761993"
     y="15.705018"
     class="st1"
     width="10.578869"
     height="31.142845"
     style="fill:#ffffff;stroke-width:0.0989604"
     id="rect10" />
  <rect
     x="82.285583"
     y="15.705018"
     class="st1"
     width="10.578869"
     height="31.142845"
     style="fill:#ffffff;stroke-width:0.0989604"
     id="rect11" />
  <path
     class="st1"
     d="m 105.05638,16.160235 c -3.523,0 -1.76149,0 -5.294386,0 0,-4.601659 -6.897541,-4.601659 -6.897541,0 -3.52299,0 -7.055878,0 -10.578868,0 0,-18.7134137 22.770795,-18.7134137 22.770795,0 z"
     style="fill:#ffffff;stroke-width:0.0989604"
     id="path11" />
  <path
     class="st1"
     d="m 127.82716,16.160235 c -3.52298,0 -7.05587,0 -10.57886,0 0,-4.601659 -6.89754,-4.601659 -6.89754,0 -3.52299,0 -1.7615,0 -5.29438,0 0,-18.7134137 22.77078,-18.7134137 22.77078,0 z"
     style="fill:#ffffff;stroke-width:0.0989604"
     id="path12" />
  <rect
     x="117.24831"
     y="15.705018"
     class="st1"
     width="10.578869"
     height="31.142845"
     style="fill:#ffffff;stroke-width:0.0989604"
     id="rect12" />
  <rect
     x="188.39093"
     y="15.705018"
     class="st1"
     width="10.578869"
     height="31.142845"
     style="fill:#ffffff;stroke-width:0.0989604"
     id="rect13" />
  <rect
     x="170.90463"
     y="15.705018"
     class="st1"
     width="10.578869"
     height="31.142845"
     style="fill:#ffffff;stroke-width:0.0989604"
     id="rect14" />
  <path
     class="st1"
     d="m 193.68532,16.160235 c -3.52299,0 -1.76149,0 -5.29438,0 0,-4.601659 -6.89753,-4.601659 -6.89753,0 -3.523,0 -7.05589,0 -10.57888,0 -0.01,-18.7134137 22.77079,-18.7134137 22.77079,0 z"
     style="fill:#ffffff;stroke-width:0.0989604"
     id="path14" />
  <path
     class="st1"
     d="m 216.45611,16.160235 c -3.52298,0 -7.05587,0 -10.57887,0 0,-4.601659 -6.89753,-4.601659 -6.89753,0 -3.52299,0 -1.7615,0 -5.29439,0 0,-18.7134137 22.77079,-18.7134137 22.77079,0 z"
     style="fill:#ffffff;stroke-width:0.0989604"
     id="path15" />
  <rect
     x="205.86736"
     y="15.705018"
     class="st1"
     width="10.578869"
     height="31.142845"
     style="fill:#ffffff;stroke-width:0.0989604"
     id="rect15" />
  <rect
     x="19.199759"
     y="-155.28108"
     transform="rotate(90)"
     class="st1"
     width="10.578869"
     height="19.079569"
     style="fill:#ffffff;stroke-width:0.0989604"
     id="rect16" />
  <rect
     x="2.1310675"
     y="-155.28305"
     transform="rotate(90)"
     class="st1"
     width="10.578869"
     height="19.079569"
     style="fill:#ffffff;stroke-width:0.0989604"
     id="rect17" />
  <path
     class="st1"
     d="M 143.67073,36.259096 V 2.1177528 H 133.09187 V 38.307576 c 0,4.710517 3.81987,8.530389 8.53038,8.530389 h 13.65654 V 36.259096 Z"
     style="fill:#ffffff;stroke-width:0.0989604"
     id="path17" />
  <rect
     x="19.192957"
     y="-339.52249"
     transform="rotate(90)"
     class="st1"
     width="10.578869"
     height="19.079569"
     style="fill:#ffffff;stroke-width:0.0989604"
     id="rect18" />
  <rect
     x="2.1242666"
     y="-339.52448"
     transform="rotate(90)"
     class="st1"
     width="10.578869"
     height="19.079569"
     style="fill:#ffffff;stroke-width:0.0989604"
     id="rect19" />
  <path
     class="st1"
     d="M 327.91523,36.259096 V 2.1177528 H 317.33636 V 38.307576 c 0,4.710517 3.81987,8.530389 8.53039,8.530389 h 13.65654 V 36.259096 Z"
     style="fill:#ffffff;stroke-width:0.0989604"
     id="path19" />
  <rect
     x="344.78799"
     y="17.614954"
     class="st1"
     width="10.578869"
     height="29.232906"
     style="fill:#ffffff;stroke-width:0.0989604"
     id="rect20" />
  <polygon
     class="st1"
     points="3749.9,480 3825.5,404.4 3697.6,276.6 3675,299.2 3591,233.5 3622.1,352.2 "
     style="fill:#ffffff"
     id="polygon20"
     transform="scale(0.09896042)" />
  <path
     class="st1"
     d="m 362.39304,0 c -9.72781,0 -17.61496,7.8871451 -17.61496,17.614954 0,7.22411 4.35426,13.428928 10.57887,16.140444 V 23.107257 l 3.04798,11.647641 c 1.28649,0.296881 2.61256,0.465113 3.97821,0.465113 9.72781,0 17.61496,-7.887144 17.61496,-17.614953 C 380.008,7.8871451 372.12084,0 362.39304,0 Z m 0,24.641143 c -3.87925,0 -7.03609,-3.146941 -7.03609,-7.036085 0,-3.879248 3.14694,-7.036086 7.03609,-7.036086 3.88914,0 7.03609,3.146942 7.03609,7.036086 0,3.889144 -3.14695,7.036085 -7.03609,7.036085 z"
     style="fill:#ffffff;stroke-width:0.0989604"
     id="path20" />
  <path
     class="st1"
     d="m 285.08516,2.1276489 h -6.22461 v 0 c -6.18502,0 -11.46951,4.4730108 -12.47891,10.5788691 l -3.25579,19.62385 c -0.37605,2.266193 -2.33547,3.938624 -4.64125,3.938624 h -4.69073 V 46.84786 h 6.92724 c 6.18503,0 11.46951,-4.47301 12.47891,-10.578868 l 3.25579,-19.62385 c 0.37605,-2.266194 2.33547,-3.938624 4.64125,-3.938624 h 3.9881 z"
     style="fill:#ffffff;stroke-width:0.0989604"
     id="path21" />
  <path
     class="st1"
     d="m 37.614853,18.654038 -4.037584,4.037585 c 0.01979,0.257298 0.03958,0.504698 0.03958,0.761995 0,6.363155 -5.155837,11.518993 -11.518991,11.518993 -6.363155,0 -11.518993,-5.155838 -11.518993,-11.518993 0,-6.363154 5.155838,-11.518991 11.518993,-11.518991 3.730807,0 7.026189,1.781287 9.134046,4.52249 L 38.752899,8.9361255 C 34.705417,4.294882 28.748001,1.3557576 22.097861,1.3557576 9.8960415,1.3557576 0,11.251799 0,23.453618 c 0,12.201819 9.8960415,22.097861 22.097861,22.097861 12.201819,0 22.097861,-9.896042 22.097861,-22.097861 0,-1.652639 -0.178129,-3.255798 -0.524491,-4.79958 z"
     style="fill:#ffffff;stroke-width:0.0989604"
     id="path22" />
</svg>
