<?xml version="1.0" encoding="UTF-8" standalone="no"?>
<svg
   version="1.1"
   width="376.00125"
   height="78.287003"
   id="svg22"
   xmlns="http://www.w3.org/2000/svg"
   xmlns:svg="http://www.w3.org/2000/svg">
  <style
     id="style1">.s0{fill:none;stroke-linecap:round;stroke-width:0.80000001;stroke:#000;}.s1{fill:#fff;}.s2{fill:#18161a;}</style>
  <defs
     id="defs8" />
  <path
     d="M 62.983973,30.248775 70.264869,21.065308 56.267119,23.568476 55.306797,11.669862 44.957831,21.216829 35.136462,8.4700786 33.393501,23.908919 16.815964,19.64911 l 7.512895,16.803332 -10.41807,5.552899 12.977793,6.927402 -6.305003,13.582599 17.370185,-8.655451 2.615614,11.119886 8.803694,-10.894992 14.344797,7.061347 -4.280533,-12.617667"
     style="fill:none;stroke:#ffffff;stroke-width:2.42987;stroke-opacity:1"
     id="path9" />
  <path
     id="path20"
     style="fill:#ffffff;fill-opacity:1;stroke-width:0.186913"
     d="m 111.61252,21.148968 a 28.878018,28.130557 0 0 0 -28.878294,28.130328 28.878108,28.130644 0 0 0 57.756214,0 28.878018,28.130557 0 0 0 -28.87792,-28.130328 z m 0,15.696584 a 10.373326,12.429959 0 0 1 10.37345,12.433375 10.373326,12.429959 0 1 1 -20.74653,0 10.373326,12.429959 0 0 1 10.37308,-12.433375 z m 30.94084,-24.110088 v 51.030989 c 0.297,3.591217 0.73511,13.433915 11.2148,14.390789 h 18.87766 V 63.204256 c -8.17746,1.803597 -10.08254,-2.806669 -10.46657,-8.97111 V 38.158599 h 9.90693 L 172.24921,24.32628 H 162.17925 V 12.735464 Z m 33.26368,-0.01001 v 51.030987 c 0.29701,3.591218 0.73512,13.433915 11.21481,14.39079 h 18.87767 V 63.194248 c -8.17746,1.803597 -10.08255,-2.806669 -10.46658,-8.971109 V 38.148591 h 9.90694 L 205.5129,24.316273 H 195.44294 V 12.725457 Z m -33.26368,0.01 v 51.03099 m 0,-51.030989 V 63.766453 M 208.52615,12.35455 h 19.8128 v 65.792685 h -19.8128 z m 25.42022,0.373096 h 18.87856 v 8.224019 h -18.87856 z m 0,11.776274 h 18.87856 v 53.643317 h -18.87856 z m 135.13966,45.046217 v 7.102604 h 1.49472 v -5.795383 l 1.30839,5.795383 h 1.49532 l 1.30766,-5.795383 v 5.795383 h 1.30912 v -7.102604 h -2.05678 l -1.30745,5.609899 -1.3086,-5.609899 z m -6.54231,0 c 0,0 0,1.307221 0,1.307221 h 2.05508 v 5.795383 h 1.49603 v -5.795383 h 2.24258 l 0.0124,-1.307221 z m 6.54231,0 v 7.102604 h 1.49472 v -5.795383 l 1.30839,5.795383 h 1.49532 l 1.30766,-5.795383 v 5.795383 h 1.30912 v -7.102604 h -2.05678 l -1.30745,5.609899 -1.3086,-5.609899 m -2.24238,0 v 7.102604 h 1.49472 v -5.795383 l 1.30839,5.795383 h 1.49532 l 1.30766,-5.795383 v 5.795383 h 1.30912 v -7.102604 h -2.05678 l -1.30745,5.609899 -1.3086,-5.609899 M 283.84973,24.130173 c -15.60676,0.99633 -26.42289,10.520825 -27.09999,26.754103 -0.53486,15.704871 13.10517,27.44992 26.72948,27.263028 h 26.91458 l -0.0126,-13.83163 -26.90172,-0.187634 c -3.95788,0.09156 -7.51284,-1.197701 -8.63737,-7.849026 h 36.12404 c 3.26516,-17.553748 -10.3998,-32.148841 -27.11653,-32.148841 z m -0.15275,13.549265 c 4.32683,-0.07262 8.71877,2.813596 10.43623,8.319394 h -20.18656 c 1.67865,-5.571904 5.68574,-8.251175 9.75033,-8.319394 z m 30.8321,-25.661352 v 66.166672 h 20.00076 c 27.29213,1.661487 33.00825,-17.360585 34.10119,-25.546421 1.26604,-9.482041 -4.9897,-33.062146 -34.10119,-29.966269 V 12.018086 Z m 25.08522,25.781055 c 6.70427,-5.64e-4 10.44124,5.379236 10.59305,12.124937 -0.0305,9.651856 -6.80117,14.878805 -15.70101,11.963376 V 38.708666 c 1.85563,-0.622512 3.56083,-0.909395 5.10796,-0.909525 z M 41.239927,46.185135 h 21.73882 L 70.02482,68.24164 50.585103,58.335233 38.997205,72.72756 35.276463,59.240593 14.885384,68.614735 21.613535,50.484141 6.4735534,41.886858 19.18366,35.157248 10.959474,14.785154 30.398461,19.271075 32.829065,0.95283579 45.537711,15.719719 58.435464,4.6918329 59.183847,16.839011 H 78.435192 V 0.01826948 H 34.322805 C 24.316589,-0.54247055 -1.1420863,11.769414 0.03979678,41.840433 0.38999706,50.750688 7.9314583,75.553879 37.127239,77.651605 L 78.435192,77.399662 V 32.168094 c 0,0 -37.096644,0.08835 -37.098909,0.09319 0,0 -0.09636,13.920175 -0.09636,13.923853 z" />
</svg>
