<?xml version="1.0" encoding="UTF-8" standalone="no"?>
<svg
   width="380.07843pt"
   height="80.322998pt"
   viewBox="0 0 380.07843 80.322998"
   version="1.1"
   id="svg5"
   xmlns="http://www.w3.org/2000/svg"
   xmlns:svg="http://www.w3.org/2000/svg">
  <defs
     id="defs5" />
  <path
     fill="#ffffff"
     stroke="#ffffff"
     stroke-width="0.0937497"
     opacity="1"
     d="m 30.84749,1.1816985 c 4.752146,-1.1386933 9.716849,-1.42716226 14.575274,-0.83504177 7.803845,0.94131977 15.288855,4.26630407 21.225242,9.39801507 4.311852,3.7045492 7.849392,8.3048702 10.248239,13.4669462 3.006151,6.346317 4.235939,13.527676 3.598271,20.526844 -0.501025,5.708648 -2.262204,11.311019 -5.131711,16.290905 -0.227739,0.379564 -0.409929,0.804676 -0.65285,1.184241 -1.715631,2.748046 -3.750097,5.313901 -6.088214,7.560923 -0.425112,0.440294 -0.850224,0.880589 -1.320884,1.244971 C 62.852362,74.01252 57.508095,76.95794 51.784264,78.658388 46.455179,80.207011 40.822443,80.647305 35.32635,79.964089 28.236087,79.0835 21.388744,76.259541 15.725644,71.886959 11.656712,68.728983 8.1647207,64.811878 5.5685,60.348201 5.3711265,59.999001 5.0371099,59.771263 4.8852841,59.391699 4.7638235,59.163959 4.6423628,58.921038 4.5209023,58.678117 4.2020681,57.979719 3.776956,57.326868 3.5340347,56.598104 l -0.106278,-0.01518 c -0.015183,-0.379567 -0.2429212,-0.683218 -0.3491993,-1.0476 l -0.106278,-0.01518 c 0,-0.288469 -0.1366432,-0.546573 -0.2732864,-0.804677 C 2.5168021,54.153709 2.3497937,53.576772 2.09169,53.045381 1.9550468,52.377348 1.7121256,51.724497 1.4692043,51.086829 0.95299667,48.809442 0.4064239,46.532056 0.23941555,44.193939 -0.01868826,42.083561 0.04204205,39.942818 0.08758979,37.817257 0.23941555,35.145123 0.69489286,32.488172 1.3477437,29.891952 1.909499,27.827121 2.6382627,25.807839 3.488487,23.849286 5.4622221,19.552617 8.119173,15.574781 11.459339,12.219432 16.697329,6.7992519 23.514305,2.9428773 30.84749,1.1816985 m 5.602371,3.8867396 C 28.205722,5.9490275 20.325964,9.8054021 14.571768,15.787337 9.0908579,21.420073 5.5685,28.93545 4.8397363,36.769659 c -0.3340166,3.583088 -0.1518257,7.242089 0.6376683,10.764447 0.106278,0.622485 0.2732863,1.229788 0.4554773,1.837092 0.8198591,3.051698 2.0951956,5.997117 3.7349139,8.714799 0.3036517,0.53139 0.6832152,1.032415 1.0172322,1.563805 0.258103,0.394747 0.576938,0.759129 0.819859,1.184241 0.576938,0.592121 1.017233,1.275337 1.563805,1.882639 0.364382,0.303652 0.637668,0.683216 0.910955,1.062781 0.819859,0.819859 1.624536,1.624535 2.459578,2.429212 0.379564,0.151826 0.622485,0.501026 0.910954,0.759129 0.379565,0.136644 0.622486,0.501025 0.910954,0.759129 0.242922,0.0911 0.425113,0.273286 0.607304,0.455477 0.242921,0.106278 0.425112,0.273287 0.607303,0.440295 0.167008,0.0911 0.318834,0.197374 0.485842,0.303651 0.151826,0.0911 0.303652,0.197374 0.440295,0.303652 0.151826,0.0911 0.303651,0.197374 0.455478,0.303652 0.926136,0.546572 1.806726,1.153875 2.778411,1.609353 0.07591,0.03037 0.227738,0.121461 0.303652,0.151825 0.197373,0.106278 0.394747,0.197374 0.607302,0.303652 0.197374,0.106278 0.394747,0.197374 0.607303,0.303652 0.334018,0.18219 0.668034,0.379564 1.047598,0.455477 0.349199,0.167008 0.683216,0.364381 1.06278,0.455477 0.531391,0.273286 1.108329,0.40993 1.670085,0.607303 0.151825,0.04555 0.303651,0.106278 0.455476,0.151826 0.151827,0.04555 0.303652,0.106279 0.455478,0.151825 0.349199,0.121461 0.698398,0.242922 1.06278,0.28847 0.576938,0.227738 1.184241,0.394746 1.806727,0.455477 0.440294,0.151826 0.895772,0.258104 1.366432,0.318834 0.288469,0.121461 0.607303,0.121461 0.910954,0.136643 0.379565,0.182191 0.804677,0.121461 1.214607,0.151827 0.425111,0.227738 0.910954,0.0911 1.366432,0.18219 0.273286,0.06073 0.561755,0.106278 0.850224,0.106278 1.260154,0.01518 2.53549,0 3.795644,0.01518 0.819859,0.03037 1.609354,-0.182191 2.414029,-0.182191 0.485843,-0.151826 1.017233,-0.04555 1.472711,-0.242921 0.895771,-0.0911 1.776361,-0.258104 2.641768,-0.485843 1.47271,-0.364382 2.960603,-0.713581 4.342217,-1.336067 0.546572,-0.136642 1.032415,-0.364382 1.548622,-0.561755 0.440295,-0.167009 0.835043,-0.455477 1.29052,-0.561756 v -0.106277 c 0.470659,-0.03037 0.880589,-0.318834 1.275336,-0.546573 0.501026,-0.3492 1.077963,-0.546573 1.578989,-0.880589 0.986867,-0.561756 1.867456,-1.260155 2.839141,-1.837093 0.182191,-0.18219 0.364382,-0.349199 0.607304,-0.455477 0.18219,-0.182191 0.364382,-0.364382 0.607303,-0.455477 0.24292,-0.227739 0.440295,-0.485843 0.759129,-0.607304 0.409928,-0.334016 0.713581,-0.835041 1.214605,-1.062779 0.774312,-0.759129 1.548623,-1.533441 2.307752,-2.307752 0.227739,-0.501025 0.713581,-0.804676 1.06278,-1.214606 0.136644,-0.379565 0.501025,-0.622486 0.759129,-0.910955 0.07591,-0.167008 0.182191,-0.318834 0.288469,-0.470659 0.121461,-0.22774 0.28847,-0.40993 0.455477,-0.607304 0.106279,-0.227739 0.288469,-0.409929 0.455478,-0.607303 0.0911,-0.151825 0.197373,-0.318834 0.303651,-0.455478 0.273287,-0.394746 0.470661,-0.835041 0.759129,-1.214605 0.227739,-0.3492 0.440294,-0.698399 0.607303,-1.077963 0.227739,-0.470661 0.561755,-0.880589 0.759129,-1.366432 0.227739,-0.516207 0.561755,-0.986868 0.698399,-1.533441 0.167008,-0.349199 0.364382,-0.683216 0.455476,-1.062779 0.212557,-0.379565 0.334017,-0.804677 0.455478,-1.214607 0.273286,-0.576938 0.485843,-1.184241 0.59212,-1.806727 0.06073,-0.167008 0.106279,-0.318834 0.167009,-0.470659 0.258104,-0.789494 0.485843,-1.594171 0.59212,-2.41403 0.22774,-0.850225 0.364382,-1.715631 0.455478,-2.581038 0.197373,-0.425113 0.106278,-0.910955 0.151825,-1.366432 0.242922,-0.561755 0.0911,-1.184242 0.136644,-1.776362 -9.625754,-0.07591 -19.26669,-0.106278 -28.892444,-0.106278 -0.683216,0 -1.366432,-0.01518 -2.049648,0.01518 0.03036,2.656952 0.03036,5.29872 0,7.955671 4.266304,0 8.517426,0.01518 12.783729,-0.03037 -0.01518,0.136644 -0.03037,0.273288 -0.03037,0.40993 -0.258104,0.288469 -0.455477,0.592121 -0.637669,0.926138 -0.546572,0.94132 -1.275336,1.745996 -1.958552,2.59622 -0.637668,0.683216 -1.320884,1.320884 -1.958552,1.988917 -0.136644,0.151827 -0.318834,0.273288 -0.501025,0.364382 -0.592121,0.516208 -1.244971,0.971686 -1.94337,1.336068 -0.106278,0.07591 -0.212557,0.167008 -0.318834,0.242921 -0.349199,0.136642 -0.622486,0.455477 -1.00205,0.516207 l -0.01518,0.136644 c -0.06073,0 -0.167009,0 -0.22774,0 -0.09109,0.03037 -0.273286,0.121461 -0.364382,0.167007 l -0.01518,0.0911 c -0.212556,0.04555 -0.40993,0.121461 -0.607303,0.197374 -0.40993,0.242921 -0.865406,0.349199 -1.275336,0.561755 -1.275337,0.440295 -2.596221,0.774312 -3.917105,0.956502 -0.880589,0.197374 -1.776362,0.121461 -2.641768,0.22774 -0.759129,0.106277 -1.518258,-0.07591 -2.277387,-0.07591 -0.880589,-0.01518 -1.730814,-0.258103 -2.596221,-0.364381 -0.197374,-0.07591 -0.409929,-0.121461 -0.622486,-0.151827 -3.097246,-0.819858 -6.027482,-2.338116 -8.456695,-4.448494 -1.214606,-1.123511 -2.368481,-2.307752 -3.294619,-3.689366 -2.231839,-3.173159 -3.47681,-6.999168 -3.583088,-10.870726 -0.07591,-3.88674 0.971685,-7.803844 3.066881,-11.083281 0.07591,-0.167007 0.227738,-0.258103 0.364381,-0.349199 0.227739,0.622485 0.683216,1.123511 1.047598,1.654901 0.182191,0.288468 0.516207,0.409929 0.743947,0.637668 0.409928,0.394747 0.910954,0.652851 1.411979,0.926138 0.07591,0.01518 0.227739,0.04555 0.303652,0.06073 0.151825,0.06073 0.303651,0.106277 0.455476,0.167008 0.242922,0.0911 0.501026,0.106278 0.743947,0.136644 0.06073,0.01518 0.182191,0.07591 0.242922,0.09109 0.531389,0 1.108327,0.136644 1.609353,-0.106277 0.24292,-0.03037 0.516207,0 0.743946,-0.136644 0.0911,-0.01518 0.242921,-0.04555 0.318834,-0.06073 0.136643,-0.0911 0.288469,-0.182191 0.425112,-0.258104 0.0911,-0.01518 0.242921,-0.03036 0.334017,-0.04555 0.167008,-0.167007 0.364382,-0.288468 0.576938,-0.394747 0.485842,-0.242921 0.804677,-0.713581 1.199424,-1.06278 0.516207,-0.440294 0.835041,-1.047598 1.153875,-1.639718 0.01518,-0.07591 0.03036,-0.227738 0.04555,-0.318834 0.07591,-0.136644 0.167008,-0.288469 0.258103,-0.425113 0.01518,-0.212555 0.03036,-0.409929 0.04555,-0.607302 0.197374,-0.303652 0.106278,-0.668034 0.136644,-1.00205 -0.01518,-0.334017 0.04555,-0.683216 -0.121461,-0.986868 -0.03037,-0.212556 -0.07591,-0.409929 -0.136643,-0.607303 -0.04555,-0.151826 -0.106278,-0.303652 -0.182191,-0.455477 0,-0.07591 -0.03037,-0.242921 -0.04555,-0.318834 -0.40993,-0.607304 -0.743947,-1.275337 -1.305702,-1.776362 -0.303651,-0.288469 -0.576937,-0.65285 -0.986867,-0.789494 0.04555,-0.197373 0.106278,-0.394747 0.334017,-0.40993 2.975784,-1.199423 6.224856,-1.639718 9.413198,-1.381614 4.797694,0.409929 9.458744,2.581038 12.814094,6.057848 1.578988,1.563805 2.854325,3.446445 3.841192,5.435362 5.511276,0 11.007368,-0.04555 16.518644,-0.03037 -0.394747,-0.94132 -0.516207,-1.988918 -0.941319,-2.930238 -0.364383,-0.941307 -0.668034,-1.928174 -1.16906,-2.808763 C 72.888045,24.896884 72.402202,24.152937 71.97709,23.408992 71.916361,23.272348 71.840448,23.150887 71.779717,23.014245 70.701754,21.101239 69.456783,19.294513 68.029621,17.624429 67.634874,17.305595 67.422318,16.819753 67.042753,16.470554 66.116616,15.544416 65.190479,14.587914 64.233977,13.67696 63.626674,13.175934 63.01937,12.644545 62.381702,12.189067 59.846211,10.230515 57.037435,8.6363437 54.076832,7.4521027 52.922956,6.9814428 51.753898,6.5715133 50.554474,6.2526791 45.999701,4.9166123 41.171642,4.5370479 36.449861,5.0684381 Z"
     id="path1" />
  <path
     fill="#ffffff"
     stroke="#ffffff"
     stroke-width="0.0937497"
     opacity="1"
     d="m 187.09139,20.296562 c 17.61179,-0.01518 35.2084,0 52.805,0 0.39475,0.01518 0.80468,-0.07591 1.18424,0.106279 1.71563,0.789494 3.17317,2.155926 3.96265,3.88674 0.91096,1.958552 0.95651,4.205574 0.53139,6.285587 -0.50102,2.414029 -1.62453,4.66105 -3.06688,6.665151 -2.41402,3.355349 -5.70864,6.0123 -9.33728,7.970853 -0.3492,0.212556 -0.78949,0.12146 -1.16906,0.136642 -9.10954,0 -18.20391,0 -27.31345,0 0.85022,-2.854324 1.68526,-5.708648 2.55067,-8.562973 5.93639,0 11.85759,0 17.7788,0 0.22774,0.01518 0.44029,-0.04555 0.62248,-0.197373 1.18425,-0.926137 2.3533,-2.095195 2.7025,-3.613453 0.28847,-1.214607 -0.13664,-2.444395 -0.77431,-3.47681 -8.09231,0 -16.18463,0 -24.26176,0 -0.72876,0 -1.45752,-0.01518 -2.18629,0.01518 -0.27329,0.865407 -0.59212,1.700449 -0.88059,2.550673 -3.15798,9.063998 -6.31595,18.143179 -9.48911,27.22236 -5.83011,0 -11.66022,0 -17.47515,0 4.58515,-12.996285 9.23101,-25.977389 13.81615,-38.988858 z"
     id="path2" />
  <path
     fill="#ffffff"
     stroke="#ffffff"
     stroke-width="0.0937497"
     opacity="1"
     d="m 255.3067,20.402841 c 0.68322,-0.03036 1.36644,-0.01518 2.04966,-0.01518 16.1998,0 32.38443,0 48.58424,0 0.4403,0.01518 0.94133,-0.0911 1.35125,0.167009 1.33607,0.698399 2.64177,1.548622 3.67418,2.672133 0.77431,0.81986 1.38162,1.82191 1.68527,2.915055 0.31884,1.169058 0.28847,2.429213 0,3.613453 -0.36438,1.563806 -1.07796,3.006151 -1.89783,4.372583 -1.00204,1.639718 -2.18628,3.173158 -3.41608,4.645868 0.27329,2.459577 0.28847,4.964703 -0.30365,7.378732 -0.5162,2.277386 -1.57898,4.433313 -3.06688,6.240039 -2.32293,2.854325 -5.52645,4.82806 -8.80589,6.391866 -0.45548,0.18219 -0.88059,0.440294 -1.35125,0.576937 -0.40993,0.03037 -0.81985,0.01518 -1.22978,0.01518 -16.91339,0 -33.82679,0 -50.725,0 1.19943,-3.036515 2.41404,-6.073031 3.64382,-9.109546 14.39309,0 28.77099,0 43.16407,0 0.68322,-0.622486 1.15387,-1.427163 1.44234,-2.292569 0.53139,-1.609354 0.60731,-3.309802 0.65285,-4.995068 -12.90518,0 -25.81037,0.01518 -38.71557,0 1.15388,-2.611403 2.29258,-5.222807 3.43126,-7.83421 l -0.0759,-0.197374 c 0.54657,-0.288468 1.21461,-0.04555 1.80673,-0.136642 11.64503,0 23.27489,0 34.91993,0 0.59212,0.03037 1.19942,-0.04555 1.80672,0.04555 -0.3492,0.06073 -0.6984,0.04555 -1.04759,0.04555 -11.88796,0 -23.79111,0 -35.67906,0 -0.56176,0.03037 -1.18424,-0.136643 -1.67009,0.182191 12.2979,-0.03037 24.59578,0 36.89367,-0.01518 0.54658,-0.01518 1.09314,0.04555 1.63971,-0.03037 0.80468,-0.546572 1.39681,-1.41198 1.54863,-2.383664 0.13665,-0.986868 -0.0607,-1.973735 -0.10628,-2.960603 -0.72876,-0.03037 -1.44235,-0.01518 -2.17111,-0.01518 -13.78578,0 -27.58674,0 -41.37252,0 1.09315,-3.097246 2.24703,-6.179309 3.34016,-9.276554 z"
     id="path3" />
  <path
     fill="#ffffff"
     stroke="#ffffff"
     stroke-width="0.0937497"
     opacity="1"
     d="m 323.79532,20.903866 c 0.42511,-0.288468 0.88058,-0.607304 1.42715,-0.607304 16.65529,0 33.2954,0 49.95068,0 0.22774,0 0.45548,0.03037 0.63767,0.167009 1.2146,0.789495 2.32293,1.745997 3.1428,2.945421 0.44029,0.637668 0.77431,1.351249 1.07795,2.080013 v 5.647918 c -0.83503,2.581038 -2.33811,4.919155 -4.25111,6.83216 -1.85228,1.882639 -4.06893,3.400897 -6.49814,4.433312 -0.45548,0.182191 -0.89578,0.40993 -1.3968,0.394747 -11.64504,0 -23.27489,0 -34.91993,0 -0.51621,0 -1.01724,-0.03036 -1.53345,0.01518 -0.16701,0.151825 -0.24291,0.379563 -0.34919,0.561755 -0.75913,1.548622 -1.67009,3.036515 -2.14075,4.706598 -0.2581,0.865408 -0.22774,1.791544 0.12146,2.626587 0.94133,0.03036 1.89783,0.01518 2.83914,0.01518 12.70783,0 25.40046,0 38.10827,0 0.85023,0 1.70046,-0.01518 2.55068,0.03037 -0.80468,2.672134 -1.56381,5.374632 -2.32294,8.061948 -0.10628,0.167009 -0.0911,0.546573 -0.37956,0.47066 -20.19283,0 -40.40084,0 -60.60885,0 1.48789,-4.402947 2.53549,-8.972903 4.49405,-13.224024 1.22978,-2.687316 2.86951,-5.207624 5.01025,-7.272455 1.59417,-1.548622 3.44644,-2.823959 5.405,-3.856374 0.24291,-0.12146 0.48583,-0.258104 0.75912,-0.242921 12.23716,0 24.4895,0 36.74184,0 0.80467,-0.850225 1.53344,-1.897823 1.60935,-3.097246 0.0607,-0.743946 -0.37957,-1.47271 -1.04759,-1.791544 -0.48585,-0.07591 -0.98687,-0.01518 -1.47272,-0.03036 -13.46694,0 -26.93389,0 -40.38565,0 0.39475,-1.867457 0.66803,-3.765279 1.27533,-5.572006 0.42512,-1.244971 1.06279,-2.489943 2.15594,-3.294619 z"
     id="path4" />
  <path
     fill="#ffffff"
     stroke="#ffffff"
     stroke-width="0.0937497"
     opacity="1"
     d="m 125.60196,20.56985 c 0.37956,-0.136644 0.78949,-0.0911 1.18423,-0.0911 17.49033,0 34.98066,-0.01518 52.47099,0 -1.24497,3.051698 -2.55067,6.07303 -3.79565,9.109546 -13.99833,0.01518 -27.99667,0 -41.995,0 -0.75913,0 -1.50308,-0.01518 -2.24702,0.01518 -0.74395,1.108327 -1.26015,2.338116 -1.79154,3.53754 -1.42717,3.324984 -2.67214,6.710699 -3.81083,10.126778 -0.54658,1.745997 -1.10833,3.491993 -1.4879,5.283537 -0.10628,0.501026 -0.16701,1.017233 -0.0911,1.533441 9.5802,0 19.14523,0 28.72543,0 0.74395,-1.806727 1.47272,-3.643819 2.21666,-5.465728 0.22774,-0.576938 0.48584,-1.138693 0.66803,-1.730814 -3.14279,0 -6.30077,0 -9.44356,0 0.0152,-2.0041 1.06279,-3.780462 2.18629,-5.374632 8.22896,0 16.45791,0 24.68687,0 -1.45752,4.114478 -2.83914,8.289687 -4.88878,12.161244 -1.0476,2.019283 -2.32294,3.94747 -3.88674,5.617554 -1.63973,1.730814 -3.64382,3.142793 -5.87567,4.0082 -0.40993,0.136643 -0.85021,0.06073 -1.27533,0.07591 -14.469,0 -28.95318,0 -43.42217,0 -0.51621,-0.01518 -1.04759,0.07591 -1.51826,-0.151826 -1.63972,-0.637668 -3.23388,-1.654901 -4.02338,-3.279436 -0.86541,-1.776362 -0.65285,-3.841192 -0.19737,-5.693467 0.89577,-3.552723 2.58103,-6.832159 3.53754,-10.3697 0.16701,-0.576938 0.22774,-1.199424 0.42511,-1.776362 1.48789,-3.932287 3.08206,-7.925305 5.61755,-11.326202 2.01929,-2.778411 4.7977,-5.025433 8.03159,-6.209673 z"
     id="path5" />
</svg>
