<?xml version="1.0" encoding="UTF-8" standalone="no"?>
<svg
   version="1.1"
   viewBox="0 0 380 92.37197"
   id="svg13"
   width="380"
   height="92.371971"
   xmlns="http://www.w3.org/2000/svg"
   xmlns:svg="http://www.w3.org/2000/svg">
  <defs
     id="defs13" />
  <path
     class="st3"
     d="M 195.76088,0.9898411 V 91.382131 H 0.9898411 V 0.9898411 H 195.76088 M 196.75072,0 H 0 v 92.371972 h 196.75072 z"
     style="fill:#ffffff;stroke-width:0.0989841"
     id="path1" />
  <path
     class="st3"
     d="m 328.70643,13.560823 c -1.81141,0 -3.28627,5.869758 -3.28627,13.115395 v 38.999739 c 0,7.235739 1.47486,13.115395 3.28627,13.115395 1.81141,0 3.28628,-5.869758 3.28628,-13.115395 V 26.676218 c 0,-7.235739 -1.47487,-13.115395 -3.28628,-13.115395 z"
     style="fill:#ffffff;stroke-width:0.0989841"
     id="path2" />
  <path
     class="st3"
     d="m 301.99062,13.560823 c -1.81141,0 -3.28627,5.869758 -3.28627,13.115395 v 38.999739 c 0,7.235739 1.47486,13.115395 3.28627,13.115395 1.81141,0 3.28628,-5.869758 3.28628,-13.115395 V 26.676218 c 0,-7.235739 -1.47487,-13.115395 -3.28628,-13.115395 z"
     style="fill:#ffffff;stroke-width:0.0989841"
     id="path3" />
  <path
     class="st3"
     d="M 196.75072,0 V 92.371972 H 380 V 0 Z m 34.62464,80.840323 h -0.68299 l -2.39542,-7.809846 h -0.0297 c -1.41548,5.058088 -2.534,8.106798 -5.29565,8.106798 -6.2558,0 -11.32379,-15.639489 -11.32379,-34.951289 0,-19.3118 5.06799,-34.951289 11.32379,-34.951289 1.78171,0 3.27637,1.158114 4.45428,3.395155 l 2.18755,-3.127898 h 0.68299 v 21.30138 c 0,0 -0.38604,0 -0.57411,0 -0.0396,0 -0.0594,0 -0.0792,0 -0.0297,0 -0.0396,0 -0.0396,0 -1.58374,-9.809325 -4.50377,-19.242511 -6.63193,-19.242511 -2.12816,0 -3.84059,5.869758 -3.84059,13.115395 v 39.009638 c 0,7.235738 1.72233,13.115394 3.84059,13.115394 1.79161,0 2.5043,-4.167231 2.93983,-9.809325 V 44.691326 l -3.37536,-2.36572 v -0.682991 h 8.83928 z m 31.92237,-0.0099 h -11.77911 v -0.682991 l 3.04872,-2.138057 -5.85986,-26.418859 -6.44387,26.715812 2.63298,1.841104 v 0.682991 h -8.53243 v -0.682991 l 3.26647,-2.276634 7.76036,-32.219328 -6.78041,-30.58609 -3.1378,-2.197448 v -0.68299 h 11.77911 v 0.68299 L 246.21308,15.005991 251.31076,38 l 5.6025,-23.231571 -2.73196,-1.900495 v -0.68299 h 8.54233 v 0.68299 l -3.1477,2.197448 -6.95858,28.873665 7.54259,34.020838 3.13779,2.187549 z M 285.9651,60.251628 h -4.73145 v 17.698359 l 3.1477,2.197447 v 0.682991 h -11.76921 v -0.682991 l 3.13779,-2.197447 V 60.251628 h -10.5418 l 10.17556,-48.066684 h 6.81011 l -13.45194,45.394113 h 7.00807 V 45.235738 l 5.48372,-3.86038 v 16.203699 h 4.73145 z m 16.02552,20.875749 c -5.36494,0 -9.70044,-15.63949 -9.70044,-34.951289 0,-19.3118 4.3454,-34.95129 9.70044,-34.95129 5.35504,0 9.70045,15.63949 9.70045,34.95129 0,19.311799 -4.34541,34.951289 -9.70045,34.951289 z m 26.70592,0 c -5.36494,0 -9.70045,-15.63949 -9.70045,-34.951289 0,-19.3118 4.34541,-34.95129 9.70045,-34.95129 5.35504,0 9.70044,15.63949 9.70044,34.95129 0,19.311799 -4.33551,34.951289 -9.70044,34.951289 z m 26.70591,0 c -5.36494,0 -9.70044,-15.63949 -9.70044,-34.951289 0,-19.3118 4.3454,-34.95129 9.70044,-34.95129 5.34514,0 9.70044,15.63949 9.70044,34.95129 0,19.311799 -4.3355,34.951289 -9.70044,34.951289 z"
     style="fill:#ffffff;stroke-width:0.0989841"
     id="path4" />
  <path
     class="st3"
     d="m 355.40245,13.560823 c -1.81141,0 -3.28627,5.869758 -3.28627,13.115395 v 39.009638 c 0,7.235738 1.47486,13.115394 3.28627,13.115394 1.81141,0 3.28627,-5.879656 3.28627,-13.125293 V 26.676218 c 0,-7.235739 -1.47486,-13.115395 -3.28627,-13.115395 z"
     style="fill:#ffffff;stroke-width:0.0989841"
     id="path5" />
  <path
     class="st3"
     d="M 34.357385,70.298515 H 24.775723 L 23.98385,60.786142 H 20.093774 L 19.37119,70.298515 H 9.8588174 L 15.916645,22.24173 H 28.378744 Z M 22.033863,34.189112 20.667882,52.857515 h 2.74186 z"
     style="fill:#ffffff;stroke-width:0.0989841"
     id="path6" />
  <path
     class="st3"
     d="M 66.646002,70.298515 H 57.49987 V 43.058088 L 53.896848,70.298515 H 47.987497 L 44.16671,42.909612 V 70.298515 H 35.020578 V 22.231831 h 13.412347 l 2.385517,21.251889 2.524095,-21.251889 h 13.33316 v 48.066684 z"
     style="fill:#ffffff;stroke-width:0.0989841"
     id="path7" />
  <path
     class="st3"
     d="m 81.622297,38.732482 v -5.701484 c 0,-1.514457 -0.06929,-2.019276 -0.207866,-2.385517 -0.287054,-0.504819 -0.722584,-0.871061 -1.227403,-0.871061 -0.504819,0 -1.078927,0.356343 -1.296692,0.871061 -0.148476,0.43553 -0.207867,0.791872 -0.207867,2.385517 v 3.523834 c 0,1.593644 0.43553,2.157854 2.30633,3.167492 l 4.325606,2.385517 c 5.701485,3.167491 6.483459,4.464183 6.483459,10.947642 v 7.720761 c 0,4.187028 -0.287054,5.553008 -1.445168,7.067465 -1.583746,2.157854 -3.315968,2.593384 -10.809065,2.593384 -5.988539,0 -7.631675,-0.356343 -9.225319,-2.157854 C 69.387861,67.269601 68.952331,66.121386 68.734566,64.319875 68.58609,63.389424 68.58609,62.300599 68.58609,59.05392 v -8.641313 h 10.096379 v 8.067205 1.227403 c 0,1.949987 0.43553,2.74186 1.514457,2.74186 0.930451,0 1.43527,-0.791873 1.43527,-2.157853 v -1.227403 -5.335244 l -0.06929,-1.009638 C 81.493616,50.917426 81.275852,50.561084 79.54363,49.620735 78.900233,49.264392 78.385516,49.046627 78.316227,48.977338 L 74.050013,46.591821 C 69.368065,43.91925 68.576192,42.404793 68.576192,36.436051 v -5.622297 c 0,-3.959365 0.43553,-5.701485 1.949987,-7.067466 1.583745,-1.43527 3.464444,-1.801511 10.452722,-1.801511 6.117218,0 7.780151,0.43553 9.294608,2.444908 1.227403,1.593644 1.514457,3.098202 1.514457,7.562386 v 6.780411 z"
     style="fill:#ffffff;stroke-width:0.0989841"
     id="path8" />
  <path
     class="st3"
     d="M 107.69471,70.298515 H 97.529044 V 30.011982 h -5.117478 v -7.780151 h 20.252144 v 7.780151 h -4.969 z"
     style="fill:#ffffff;stroke-width:0.0989841"
     id="path9" />
  <path
     class="st3"
     d="m 124.10628,22.231831 3.60302,0.06929 c 7.06746,0.148476 8.78979,2.019276 8.78979,9.294608 v 5.038291 c 0,6.701225 -1.00964,9.017453 -4.54337,9.947903 1.72232,0.574108 2.74186,1.365981 3.46444,2.672571 0.93045,1.653035 1.07893,2.959625 1.07893,8.581923 V 70.298515 H 126.40271 V 55.886429 c 0,-4.751238 0,-4.681949 -2.5241,-4.751238 -0.14847,0 -0.20786,0 -0.43553,0 V 70.308414 H 113.28731 V 22.231831 Z m 0.0594,20.103673 c 1.94999,0 2.23704,-0.43553 2.23704,-3.523834 v -5.186768 l -0.0693,-1.296692 c 0,-1.722323 -0.43553,-2.23704 -1.80151,-2.23704 h -0.6434 -0.43553 v 12.254232 c 0.35635,-0.0099 0.58401,-0.0099 0.71269,-0.0099 z"
     style="fill:#ffffff;stroke-width:0.0989841"
     id="path10" />
  <path
     class="st3"
     d="m 161.28471,70.298515 h -9.58166 l -0.79188,-9.512373 h -3.89007 l -0.72258,9.512373 h -9.51238 l 6.05783,-48.056785 h 12.4621 z m -12.32352,-36.109403 -1.36598,18.668403 h 2.74186 z"
     style="fill:#ffffff;stroke-width:0.0989841"
     id="path11" />
  <path
     class="st3"
     d="m 171.79682,22.231831 c 8.7205,0 9.94791,0.207867 11.60094,2.157854 1.51446,1.722323 1.8708,3.603021 1.8708,10.234957 v 23.716593 c 0,5.909351 -0.20787,7.502995 -1.36598,9.225319 -1.36598,2.019276 -3.38526,2.672571 -8.35426,2.672571 l -5.11748,0.06929 h -8.50273 V 22.231831 Z m 1.2373,40.217244 c 1.58375,0 1.94999,-0.504819 1.94999,-2.524095 0,-0.287053 0,-0.504818 0,-1.009637 0,-0.791873 0,-1.653035 0,-2.385518 v -22.54858 -1.227403 c 0,-2.157853 -0.35634,-2.672571 -1.94999,-2.672571 -0.20786,0 -0.5741,0.06929 -0.93045,0.06929 v 32.278718 c 0.34645,0.0198 0.70279,0.0198 0.93045,0.0198 z"
     style="fill:#ffffff;stroke-width:0.0989841"
     id="path12" />
  <polygon
     class="st3"
     points="1215.9,933.2 1227,933.2 1675.4,0 1664.3,0 "
     style="fill:#ffffff"
     id="polygon12"
     transform="scale(0.09898411)" />
  <polygon
     class="st3"
     points="830,933.2 841.2,933.2 1303.3,0 1292.1,0 "
     style="fill:#ffffff"
     id="polygon13"
     transform="scale(0.09898411)" />
</svg>
