<?xml version="1.0" encoding="UTF-8" standalone="no"?>
<svg
   version="1.1"
   id="svg2"
   viewBox="0 0 760 393.57176"
   height="196.60475"
   width="380"
   xmlns="http://www.w3.org/2000/svg"
   xmlns:svg="http://www.w3.org/2000/svg"
   xmlns:rdf="http://www.w3.org/1999/02/22-rdf-syntax-ns#"
   xmlns:cc="http://creativecommons.org/ns#"
   xmlns:dc="http://purl.org/dc/elements/1.1/">
  <defs
     id="defs4" />
  <metadata
     id="metadata7">
    <rdf:RDF>
      <cc:Work
         rdf:about="">
        <dc:format>image/svg+xml</dc:format>
        <dc:type
           rdf:resource="http://purl.org/dc/dcmitype/StillImage" />
      </cc:Work>
    </rdf:RDF>
  </metadata>
  <path
     id="path3347"
     d="m 664.46223,345.06848 -0.13208,-132.44193 -21.17563,73.99041 -21.14828,-73.6528 -0.128,100.53663 -69.04917,-51.78757 5.23389,-3.92412 L 557.82334,0.00825576 623.45488,0.17914163 643.12858,69.093249 662.83098,0.08668486 759.9263,0.40216262 728.06542,24.20875 728.009,392.9806 Z M 31.463574,24.147881 -0.77388312,1.2620852e-6 180.93416,0.24631417 201.73141,16.133705 l 0.0171,241.569175 5.50952,3.99065 L 31.505248,393.57177 Z M 138.10596,212.6108 138.03671,73.197806 133.16567,69.220209 95.380675,69.403026 95.297854,244.71352 Z m 69.00547,37.48323 -0.0325,-233.985419 21.31466,-15.97311002 127.55186,-0.007064 21.27246,16.03885202 0.0785,270.756031 -60.32373,45.37029 z m 101.03238,-181.011911 -32.17034,0.223085 -5.02546,3.861047 0.0719,139.508299 42.25517,31.69294 0.11296,-171.125056 z M 382.76874,287.1768 382.61426,16.042937 403.85897,0.08689315 531.57959,0.20899911 552.95993,16.183241 552.81295,249.62683 443.53675,332.24095 Z m 106.24954,-74.5948 -0.0136,-139.473649 -5.37589,-4.108224 -32.11989,0.105393 -5.16408,3.976596 0.31883,170.852594 z"
     style="fill:#ffffff;fill-opacity:1;stroke:none;stroke-width:0.452798" />
</svg>
