<?xml version="1.0" encoding="UTF-8" standalone="no"?>
<svg
   version="1.2"
   viewBox="0 0 376 157"
   width="376"
   height="157"
   id="svg1"
   xmlns="http://www.w3.org/2000/svg"
   xmlns:svg="http://www.w3.org/2000/svg">
  <defs
     id="defs1" />
  <style
     id="style1">.a{fill:#ec192e}</style>
  <path
     fill-rule="evenodd"
     class="a"
     d="m 84.884148,23.018186 c -6.257514,0 -11.301988,-5.148027 -11.301988,-11.509094 C 73.58216,5.1480261 78.626634,0 84.884148,0 c 6.242721,0 11.301989,5.1480261 11.301989,11.509092 0,6.361067 -5.059268,11.509094 -11.301989,11.509094 z M 104.66263,103.2268 c 0,7.21907 0.96155,13.92038 2.82549,19.67493 h -5.1924 c -15.488459,0 -28.210592,-12.97362 -28.210592,-29.320087 V 31.686988 h 21.64242 v 61.894655 c 0,3.890609 2.825497,7.219077 6.568172,7.219077 h 2.36691 c 0,0.96156 0,1.46452 0,2.42608 z M 216.73575,63.373977 200.22656,78.699711 c -10.78423,-7.159903 -18.35834,-10.029776 -28.25497,-10.029776 -22.10101,0 -31.98285,17.751811 -31.98285,34.556865 0,19.67493 16.45001,31.6722 31.98285,31.6722 3.32847,0 6.61255,-0.50297 9.89663,-0.94677 5.651,-1.46452 10.39961,-5.29596 12.70735,-10.54753 h -19.77848 v -22.10101 h 28.25496 c 8.0327,0 14.58608,6.21313 14.58608,14.37896 0,19.21635 -13.16593,36.02139 -31.53906,39.85283 C 181.86822,156.49704 176.7202,157 171.97159,157 c -25.88806,0 -53.64007,-20.1779 -53.64007,-53.7732 0,-22.101011 8.93508,-35.518426 16.96778,-42.737494 9.83746,-9.127391 22.5448,-13.920381 36.67229,-13.920381 17.47074,0 30.17808,5.754547 44.76416,16.805052 z m 85.68209,16.790258 c 0,19.674926 -16.00623,33.610095 -39.11317,33.610095 -20.23707,0 -31.03609,-9.58598 -46.56892,-22.101006 -0.50297,-0.458584 -0.50297,-0.458584 -0.96156,-0.458584 l 16.49439,-15.384908 c 13.18072,10.591914 19.27551,15.384908 31.03609,15.384908 10.8582,0 17.45595,-4.334403 17.45595,-11.050505 0,-7.662867 -13.21031,-11.99727 -21.18383,-13.417415 -21.19862,-4.334403 -34.36455,-17.810986 -34.36455,-35.059832 0,-9.127391 4.23085,-17.308019 11.30199,-23.5507398 7.05634,-5.2515784 16.45001,-7.67765967 27.29341,-7.67765967 16.95298,0 29.67512,8.68359567 36.22849,14.88193747 l -16.45001,14.881937 c -4.23085,-3.328465 -11.30199,-8.165834 -19.77848,-8.165834 -9.88184,0 -16.95298,3.875812 -16.95298,9.630359 0,7.219071 8.93508,11.509092 17.41157,12.973617 14.12749,3.328465 38.15161,11.997268 38.15161,35.50363 z"
     id="path1"
     style="stroke-width:0.147932;fill:#ffffff;fill-opacity:1" />
</svg>
