<?xml version="1.0" encoding="UTF-8" standalone="no"?>
<svg
   width="380.07861pt"
   height="54.442001pt"
   viewBox="0 0 380.07861 54.442001"
   version="1.1"
   id="svg9"
   xmlns="http://www.w3.org/2000/svg"
   xmlns:svg="http://www.w3.org/2000/svg">
  <defs
     id="defs9" />
  <path
     fill="#ffffff"
     stroke="#ffffff"
     stroke-width="0.0937498"
     opacity="1"
     d="M 0.0468749,0.0468749 H 18.993278 c 0.452903,0.36232167 1.177546,0.6642564 1.117159,1.3587062 0,17.1649889 0,34.3148819 0,51.4798709 0.06039,0.679353 -0.558579,1.102062 -0.996385,1.509673 H 0.0468749 V 0.0468749 M 1.5716453,3.8059622 C 1.3904845,4.3494447 1.4659681,4.9231207 1.4508714,5.4817 c 0,15.685509 0,31.371018 0,47.056527 0.8907074,-0.04529 1.7814148,-0.0151 2.6721223,-0.0151 4.5592144,0 9.1184283,-0.0151 13.6625453,0 -0.03019,-0.981288 0,-1.977672 -0.0151,-2.958961 0.0151,-15.715702 -0.0151,-31.446501 0.0151,-47.1622033 -0.377418,0.015097 -0.754837,0.015097 -1.132255,0.015097 -4.906439,-0.015094 -9.8128778,0.0151 -14.7193171,-0.015094 -0.1056771,0.4679989 -0.226451,0.9359977 -0.3623216,1.4039965 z"
     id="path1" />
  <path
     fill="#ffffff"
     stroke="#ffffff"
     stroke-width="0.0937498"
     opacity="1"
     d="m 41.321352,0.0468749 h 19.56537 c 0.07548,0.24154779 0.105677,0.49819229 0.120773,0.75483681 0.105678,4.98192299 0.241549,9.96384529 0.362322,14.94576829 0.0151,1.011481 0.07548,2.022963 0.06039,3.019348 0.800127,-1.207739 1.705932,-2.355091 2.551349,-3.532637 3.396766,-4.604505 6.778434,-9.2241052 10.1752,-13.8286099 0.332128,-0.45290202 0.649159,-0.92090085 1.026578,-1.3587062 h 13.164354 c 0.135871,0.75483681 0.256644,1.5096736 0.332128,2.2796072 0.03019,0.2717412 -0.211354,0.4830956 -0.362321,0.6944498 -1.811608,2.1286398 -3.593024,4.2572797 -5.389535,6.3859195 -2.12864,2.5211546 -4.21199,5.0574056 -6.340629,7.5785616 1.66064,3.260895 3.291088,6.536886 4.981923,9.782685 1.253028,2.521154 2.536251,5.027213 3.804377,7.548368 1.449287,2.732509 2.792896,5.525406 4.242183,8.257915 1.600254,3.185411 3.230701,6.325532 4.846052,9.495847 0.120775,0.256644 0.256645,0.513288 0.286838,0.78503 -0.301934,0.573676 -0.78503,1.026578 -1.162449,1.539867 H 71.982823 c -0.543483,-0.78503 -0.920901,-1.660641 -1.34361,-2.521155 -2.294704,-4.830955 -4.498827,-9.707201 -6.70295,-14.568351 -0.347225,-0.754837 -0.709547,-1.509673 -0.996385,-2.279607 -0.513289,0.679354 -1.086965,1.328513 -1.600254,2.022963 -0.150967,0.166065 -0.09058,0.392515 -0.105677,0.588773 0,5.027213 -0.0151,10.069523 0,15.096736 -0.0151,0.241548 0,0.498193 -0.09058,0.724643 -0.256644,0.347225 -0.588772,0.64916 -0.905804,0.935998 H 41.74406 c -0.332128,-0.301934 -0.649159,-0.634063 -0.966191,-0.966191 -0.332128,0.301934 -0.664256,0.618967 -0.966191,0.966191 H 22.118303 c -0.317031,-0.392515 -0.69445,-0.769933 -0.951094,-1.222835 -0.105677,-0.483096 -0.03019,-0.996385 -0.03019,-1.494577 0.07548,-4.227086 0.181161,-8.454173 0.241548,-12.681259 0.0151,-0.286838 0.0151,-0.588772 0.181161,-0.830321 0.18116,-0.150966 0.452901,-0.120774 0.679353,-0.150966 5.631082,-0.09058 11.277262,-0.181162 16.908345,-0.226452 0.241547,0.0151 0.513288,0.0151 0.679353,0.196258 0.362321,0.422709 0.664256,0.890707 0.935997,1.358706 -0.04529,-0.709546 -0.0151,-1.43419 -0.0151,-2.158833 -0.0151,-11.171585 0,-22.34317 -0.0151,-33.5147544 0.0151,-0.6038694 -0.04529,-1.2228356 0.105678,-1.8116084 0.150968,-0.6038694 0.332128,-1.20773884 0.483096,-1.8116083 m 1.766317,2.3701876 c -0.03019,3.0344439 0.03019,6.068888 -0.06039,9.1033315 0,12.273647 0,24.56239 0,36.836037 0.07548,1.3889 0.03019,2.777799 0.04529,4.166699 5.283858,0 10.552619,-0.0151 15.836476,0 -0.0151,-2.189027 0,-4.39315 0.0151,-6.582177 0.07548,-0.905805 0.06039,-1.811608 0,-2.717413 -0.0151,-2.068253 0,-4.121408 -0.0151,-6.189662 -0.04529,-0.543482 0.347225,-0.96619 0.64916,-1.358706 0.966191,-1.328513 2.098447,-2.506058 3.125024,-3.78928 0.150968,-0.166065 0.317032,-0.377419 0.573677,-0.377419 0.211354,0.03019 0.362321,0.211354 0.483095,0.392516 0.845417,1.268125 1.403997,2.687219 2.022963,4.076118 2.460768,5.525405 5.072503,10.990424 7.472884,16.546023 6.310436,0 12.605774,-0.0151 18.916211,0 -1.026578,-2.234318 -2.143736,-4.438441 -3.291088,-6.612371 -1.328514,-2.626832 -2.687219,-5.22347 -4.015733,-7.835206 -0.135871,-0.256644 -0.467999,-0.301935 -0.603869,-0.543482 -0.347225,-0.528386 -0.377418,-1.177546 -0.679354,-1.721029 -2.777798,-5.615985 -5.615985,-11.216874 -8.408882,-16.832861 -0.07548,-0.03019 -0.211354,-0.120773 -0.286838,-0.150966 -0.271741,-0.588774 -0.588772,-1.147352 -0.860514,-1.736126 -0.09058,-0.18116 -0.105676,-0.407611 0.0151,-0.588772 0.392515,-0.543483 0.875611,-1.041674 1.313417,-1.554964 3.442055,-4.030829 6.869014,-8.0616566 10.129909,-12.2434525 0.07548,-0.075484 0.226452,-0.2415478 0.301936,-0.3170314 -3.155219,0.060387 -6.325533,0.015097 -9.480752,0.030194 -5.495211,7.2766268 -10.899843,14.6287359 -16.334668,21.9506529 -0.13587,0.241549 -0.452902,0.166065 -0.664256,0.105679 -0.407612,-1.056772 -0.377419,-2.189027 -0.377419,-3.291088 0,-2.672123 -0.0151,-5.329148 0,-8.00127 0.105678,-0.800128 0.04529,-1.615351 -0.0151,-2.415479 0,-2.7777992 0,-5.5706954 0,-8.3484949 -5.268761,0 -10.537522,0 -15.806284,0 M 23.099591,45.789985 c 0.13587,2.249414 0.317032,4.483732 0.437805,6.733145 5.117794,-0.0151 10.250685,0 15.383574,0 -0.150966,-1.887092 -0.105677,-3.78928 -0.18116,-5.676373 0.03019,-2.339994 -0.150968,-4.664891 -0.135871,-7.004885 -0.875611,0.03019 -1.751221,0 -2.626832,0.0151 -4.25728,0 -8.51456,0.0151 -12.771839,-0.0151 -0.241548,1.977672 -0.13587,3.970441 -0.105677,5.948113 z"
     id="path2" />
  <path
     fill="#ffffff"
     stroke="#ffffff"
     stroke-width="0.0937498"
     opacity="1"
     d="m 117.71083,0.0468749 h 39.64404 c 0.13587,0.54348251 0.10567,1.1020617 0.13587,1.660641 0.0604,2.7627027 0.16606,5.5405022 0.24154,8.3032051 0.0453,0.437805 -0.31703,0.724643 -0.58877,0.996384 -0.36232,0.347225 -0.69445,0.724643 -1.07187,1.041674 -0.22645,0.226452 -0.54348,0.196258 -0.83032,0.211355 -5.87263,-0.0151 -11.74526,0 -17.63299,0 0,2.792897 0.0151,5.600889 0,8.408882 6.23495,0.03019 12.46991,0.120775 18.70486,0.226451 0.33213,-0.0151 0.66426,0.241548 0.63406,0.60387 0.10568,2.95896 0.18116,5.933017 0.28684,8.891978 -0.0151,0.347225 0.0604,0.754837 -0.19626,1.026578 -0.36232,0.407612 -0.67935,0.845417 -1.05677,1.237932 -0.18116,0.196257 -0.49819,0.13587 -0.73974,0.166064 -5.87263,-0.0151 -11.76036,0 -17.63299,-0.0151 0,3.291089 0,6.582177 0,9.873265 5.97831,-0.0151 11.95662,0.0151 17.93492,0 0.36232,0 0.73974,-0.03019 1.08697,0.03019 0.31703,0.105677 0.54348,0.392515 0.78503,0.60387 0.33213,0.362322 0.83033,0.709547 0.75484,1.268125 0.0151,2.717413 0,5.434825 0.0151,8.152238 -0.0302,0.271741 0.0151,0.588773 -0.16607,0.815224 -0.25664,0.301935 -0.55858,0.573676 -0.84542,0.845417 h -39.04016 c -0.36232,-0.377418 -0.9058,-0.694449 -0.99639,-1.237932 0.0453,-3.910055 0,-7.835207 0.0302,-11.745261 0,-0.709546 -0.0453,-1.403997 -0.0453,-2.113543 0,-11.881132 0,-23.747167 0,-35.6282974 0,-0.6038694 -0.0604,-1.2228356 0.0906,-1.8116084 0.15097,-0.6038694 0.33213,-1.20773884 0.49819,-1.8116083 m 1.75123,2.3701876 c 0,1.2228357 0.0302,2.4456713 -0.0453,3.6685069 0,14.7948006 0,29.5896026 0,44.3844046 0,0.679353 0,1.373802 -0.0151,2.053156 12.15288,-0.0151 24.29064,0 36.44352,0 0,-1.086966 -0.0151,-2.17393 0,-3.260895 0.0906,-1.43419 0,-2.86838 0.0604,-4.287474 -1.28321,0.04529 -2.55134,0 -3.83457,0 -2.67212,-0.04529 -5.32914,-0.0151 -8.00127,-0.13587 -2.52115,0.0151 -5.0272,-0.03019 -7.54837,-0.07548 -0.21135,0 -0.468,0 -0.60387,-0.181162 -0.22644,-0.18116 -0.18116,-0.498191 -0.19624,-0.754837 -0.0151,-1.66064 -0.0604,-3.321281 -0.0604,-4.981923 0,-0.905803 0.0302,-1.811608 -0.0453,-2.717411 -0.0453,-1.554964 -0.0453,-3.125025 -0.0755,-4.679989 0.0151,-0.301934 -0.0302,-0.679353 0.24154,-0.890708 0.28684,-0.07548 0.58878,-0.07548 0.89071,-0.07548 6.0689,0.0151 12.15288,-0.0151 18.22176,0.0151 -0.0604,-1.147352 0.0151,-2.279607 -0.0604,-3.426959 -0.0604,-1.539867 0.13586,-3.064637 0.0755,-4.589408 -6.28024,0.0151 -12.56048,0 -18.84073,0 -0.22645,0 -0.52838,0 -0.63405,-0.256644 -0.22645,-0.437805 0.19626,-0.845417 0.3925,-1.222836 -0.22644,-1.086964 -0.55857,-2.173929 -0.54347,-3.291088 0,-1.811609 0,-3.623217 0,-5.434825 -0.0151,-0.452902 0.10568,-0.905805 0.0604,-1.373804 -0.0151,-0.241547 -0.0906,-0.483094 -0.0151,-0.724643 0.21135,-0.2717403 0.58876,-0.2566435 0.8907,-0.2566435 6.38593,0.015097 12.75674,-0.015097 19.14266,0.015097 -0.0151,-2.5060582 -0.0151,-5.0121165 -0.0151,-7.5332715 -11.95661,0.030194 -23.91322,0.015097 -35.88493,0.015097 z"
     id="path3" />
  <path
     fill="#ffffff"
     stroke="#ffffff"
     stroke-width="0.0937498"
     opacity="1"
     d="m 180.58874,0.0468749 h 24.20006 c 0.25665,0.63406293 0.40762,1.313416 0.60388,1.9625757 2.11354,7.3370139 4.19689,14.6891234 6.37083,22.0110414 0.25664,-0.981288 0.61895,-1.932383 0.92089,-2.898573 2.24942,-7.004886 4.36296,-14.0550617 6.59728,-21.0750441 h 23.80755 c 0.0604,0.90580418 0.0302,1.8116083 0.0453,2.7174126 0.10567,16.6667965 0.18116,33.3184965 0.24154,49.9701965 0.0604,0.724643 -0.60386,1.147352 -0.98128,1.660641 h -18.13118 c -0.40762,-0.407611 -0.84541,-0.78503 -1.22283,-1.207739 -0.16607,-0.166064 -0.15097,-0.392515 -0.16607,-0.60387 -0.0151,-8.801397 -0.0755,-17.61789 -0.0302,-26.419287 -0.15097,0.498191 -0.28684,1.011481 -0.4529,1.509673 -2.59664,8.348495 -5.148,16.69699 -7.71444,25.060582 -0.10567,0.377419 -0.19625,0.754837 -0.36232,1.117159 -0.16606,0.286837 -0.49819,0.392515 -0.76994,0.543482 H 200.2447 c -0.40762,-0.78503 -0.99639,-1.47948 -1.29833,-2.3098 -2.14373,-7.291724 -4.25728,-14.568351 -6.4312,-21.844978 -0.43781,-1.509673 -0.90581,-3.00425 -1.32852,-4.498827 -0.0604,8.18243 -0.15097,16.379959 -0.18116,24.577486 -0.0302,1.056772 0,2.12864 -0.0302,3.185412 0.0151,0.483096 -0.5133,0.649159 -0.83033,0.890707 h -9.02784 c -0.28684,-0.181161 -0.60387,-0.332128 -0.76994,-0.618966 -0.0906,-0.437806 -0.0604,-0.890707 -0.0755,-1.343609 0,-3.47225 0,-6.944499 0,-10.416749 0,-0.649159 0.0755,-1.283223 0.0604,-1.932382 0.0302,-12.741646 0.12077,-25.483291 0.18116,-38.2249358 0,-0.6038694 0,-1.20773884 0.0755,-1.8116083 m 2.08335,2.3701876 c -0.18116,0.9661912 -0.4831,1.9172855 -0.54349,2.9136701 -0.0151,15.5949284 -0.0151,31.1898564 0,46.7847854 0.13588,0.150967 0.28684,0.286838 0.43781,0.437806 2.12865,-0.06039 4.24218,-0.211355 6.37083,-0.241549 0.0755,-5.0876 0.0604,-10.190296 0.16606,-15.277897 -0.0151,-7.140756 0.0604,-14.296608 0.0755,-21.437365 0,-0.347225 -0.0151,-0.69445 0.0453,-1.026578 0.12076,-0.211355 0.36231,-0.166065 0.57367,-0.211355 0.10567,0.166065 0.27174,0.301936 0.31703,0.498193 2.89858,9.707202 5.79715,19.429499 8.74101,29.121604 0.83032,2.762703 1.72103,5.525406 2.53625,8.303205 3.7138,-0.0151 7.42759,0 11.14139,-0.0151 0.13587,-0.558579 0.31703,-1.102062 0.4831,-1.645543 3.6987,-12.062293 7.3823,-24.139682 11.05081,-36.217072 0.0151,-0.211353 0.21135,-0.392515 0.4529,-0.347224 0.31703,0.0151 0.36232,0.392515 0.40761,0.634063 0.0453,0.860513 -0.0151,1.721028 0.0302,2.566445 0.0604,0.951094 0.0151,1.917286 0.0453,2.868379 0.0604,6.29534 0.10568,12.575582 0.0906,18.870921 -0.0151,0.64916 0.0604,1.313417 0.0453,1.962576 0,3.864765 0.0755,7.714432 0.0453,11.579197 5.29896,-0.04529 10.58281,-0.0151 15.86667,-0.0151 -0.0151,-0.679354 0,-1.373803 -0.0151,-2.053156 0,-15.353381 0.0151,-30.691665 0.0151,-46.0450456 0,-0.6793531 -0.0302,-1.3587062 0,-2.0229627 -0.37742,0.015097 -0.73974,0.015097 -1.11716,0.015097 -6.37082,-0.015097 -12.72654,0.015097 -19.09737,-0.015097 -2.70232,8.7863003 -5.43482,17.5575043 -8.18243,26.3287083 -0.15097,0.422708 -0.22646,0.875611 -0.42271,1.268126 -0.19625,0.120773 -0.46799,0.256644 -0.67935,0.105676 -0.31703,-0.18116 -0.39252,-0.558578 -0.51329,-0.87561 -0.69445,-2.068253 -1.29832,-4.151603 -1.91729,-6.250049 -2.03806,-6.838821 -3.97044,-13.7078362 -5.91792,-20.5617545 -6.83882,0 -13.69274,0 -20.53156,0 z"
     id="path4" />
  <path
     fill="#ffffff"
     stroke="#ffffff"
     stroke-width="0.0937498"
     opacity="1"
     d="m 266.67033,0.0468749 h 39.55345 c 0.0604,0.45290209 0.0906,0.90580418 0.10568,1.3587062 0.0604,2.5060583 0.13587,5.0272133 0.21135,7.5483682 0,0.6642564 0.10568,1.3436087 -0.0755,1.9776717 -0.57368,0.317032 -1.07187,0.694451 -1.58516,1.086966 -0.39252,0.317031 -0.92089,0.22645 -1.38889,0.241547 -5.67638,-0.0151 -11.35275,0 -17.02913,0 0,2.792897 0,5.600889 0,8.393786 6.23495,0.04529 12.46991,0.135871 18.70486,0.241547 0.33213,-0.0151 0.66426,0.241548 0.63406,0.588773 0.10568,2.823089 0.16607,5.631083 0.27174,8.454173 -0.0151,0.332128 0.0453,0.679353 -0.0302,1.011481 -0.30194,0.452902 -0.73974,0.78503 -1.10206,1.192642 -0.33213,0.301934 -0.63407,0.73974 -1.14735,0.664256 -5.78205,0.0151 -11.5641,0 -17.34615,0 0.0151,3.291089 0.0151,6.582177 0.0151,9.873265 6.23495,0 12.46991,0 18.68976,0 0.4831,-0.04529 0.80013,0.347225 1.10207,0.649161 0.34722,0.347225 0.83032,0.69445 0.76993,1.253028 0,2.762703 0,5.540503 0,8.303206 0.0755,0.69445 -0.58877,1.071868 -0.99639,1.509673 h -39.05526 c -0.30193,-0.286838 -0.63406,-0.573676 -0.89071,-0.920901 -0.21135,-0.467999 -0.0604,-0.996384 -0.0755,-1.494577 0.0151,-3.577927 0,-7.140756 0,-10.718682 0.0151,-0.64916 -0.0453,-1.313416 -0.0453,-1.962576 0.0151,-12.575582 0,-25.16626 0,-37.7418405 0,-0.58877268 0.40761,-1.04167478 0.70955,-1.5096736 m 1.64555,2.3701876 c 0.0151,0.8756107 -0.0755,1.7361246 -0.0453,2.6117353 -0.0151,15.8364752 0.0151,31.6578552 -0.0151,47.4943322 12.15287,-0.0151 24.29064,0 36.42842,0 0,-2.143737 0.0151,-4.287473 0.0151,-6.43121 -0.0151,-0.377419 0.0302,-0.754837 0.0755,-1.117159 -2.03805,0.04529 -4.07612,-0.03019 -6.11417,-0.03019 -1.85691,-0.03019 -3.7289,0 -5.5858,-0.105677 -2.56644,0.0151 -5.13288,-0.03019 -7.69934,-0.07548 -0.22645,-0.0151 -0.468,0.0151 -0.64915,-0.135871 -0.15096,-0.181161 -0.15096,-0.422709 -0.16606,-0.64916 -0.0302,-2.113542 -0.0604,-4.227086 -0.0453,-6.340629 -0.0906,-1.962576 -0.0906,-3.925151 -0.13587,-5.887727 0.0151,-0.377419 -0.0604,-0.800127 0.16606,-1.132255 0.18116,-0.150968 0.45289,-0.120775 0.67935,-0.135871 6.17457,0.0151 12.34913,0 18.5237,0.0151 -0.0453,-2.672122 -0.0453,-5.344244 0,-8.031463 -6.23496,0.03019 -12.45481,0 -18.67467,0.0151 -0.27173,0 -0.64915,0.04529 -0.78502,-0.256644 -0.24155,-0.452902 0.18116,-0.890708 0.42271,-1.253029 -0.18117,-1.343609 -0.60388,-2.657026 -0.58878,-4.015731 0.0151,-2.264511 -0.0151,-4.529022 0.0604,-6.793533 0.21135,-0.2566433 0.58877,-0.2415465 0.8907,-0.2415465 6.38592,0.015097 12.75674,-0.015097 19.12756,0.015097 0,-2.5060582 0,-5.0121165 0,-7.5332715 -11.9566,0.030194 -23.92832,0.015097 -35.88493,0.015097 z"
     id="path5" />
  <path
     fill="#ffffff"
     stroke="#ffffff"
     stroke-width="0.0937498"
     opacity="1"
     d="m 329.44256,0.0468749 h 24.42652 c 0.52838,0.09058042 0.63406,0.63406293 0.83032,1.0567715 4.58941,10.7488756 9.20901,21.4977526 13.85881,32.2315316 0.12077,-10.552619 0.16606,-21.090141 0.22645,-31.6276621 -0.0302,-0.70954661 0.58876,-1.17754544 0.99638,-1.660641 h 10.25069 V 53.806352 c -0.28684,0.211355 -0.60387,0.392515 -0.89071,0.588773 h -23.18859 c -0.468,-0.407611 -1.10206,-0.709546 -1.34361,-1.313416 -4.42335,-10.446942 -8.89197,-20.878786 -13.36061,-31.295534 -0.25664,-0.588772 -0.52839,-1.177546 -0.73974,-1.781415 0.0302,0.73974 0,1.494577 0,2.234317 -0.13587,10.009136 -0.28684,20.033369 -0.42271,30.057602 -0.0151,0.437805 0.0302,0.890707 -0.0755,1.328513 -0.25665,0.347225 -0.67936,0.528385 -1.02659,0.769933 h -8.46926 c -0.39251,-0.377418 -0.76993,-0.769933 -1.14735,-1.162448 -0.39252,0.377418 -0.76994,0.78503 -1.17755,1.162448 h -17.70845 c -0.28684,-0.422708 -0.67935,-0.754836 -0.936,-1.207739 -0.0755,-0.347224 -0.0453,-0.709546 -0.0302,-1.056771 0.0906,-4.378054 0.18116,-8.756107 0.25664,-13.134161 0.0151,-0.271741 0,-0.573675 0.15097,-0.815224 0.42271,-0.22645 0.9511,-0.150966 1.4191,-0.166063 5.38953,-0.09058 10.77907,-0.181162 16.1535,-0.226452 0.27174,0.0151 0.61897,-0.0151 0.78503,0.256644 0.30194,0.407612 0.57368,0.830321 0.90581,1.222836 0.0302,-12.213259 0.10567,-24.441616 0.18116,-36.6548749 0.0151,-0.860514 -0.0453,-1.72102796 0.0755,-2.5664452 m 2.18903,2.2796072 c -0.0453,1.2077389 -0.0302,2.400381 -0.0906,3.60812 -0.12077,15.5345409 -0.0755,31.0690829 -0.0906,46.6036249 2.18904,-0.03019 4.37806,-0.03019 6.55199,0 0,-0.196258 -0.0151,-0.377418 -0.0151,-0.55858 0,-12.726549 0.0151,-25.468193 0,-38.194742 -0.0906,-0.905805 0.0906,-1.811609 0.25664,-2.702316 0.13586,-0.271741 0.46799,-0.166065 0.72464,-0.150968 0.0755,0.105677 0.15097,0.241548 0.21135,0.377418 0.92091,2.189028 1.85691,4.362958 2.79291,6.551984 4.66488,10.930038 9.29958,21.875171 14.07015,32.775015 0.25665,0.634063 0.57368,1.237932 0.80013,1.887092 7.09547,-0.0151 14.20603,-0.0151 21.31659,0 -0.0453,-2.234318 0,-4.483731 -0.0151,-6.733145 0,-14.462673 -0.0151,-28.925346 0,-43.3880193 -2.2645,0.030194 -4.52902,0.030194 -6.79353,-0.060387 0,2.2041235 -0.0453,4.408247 -0.0755,6.6123705 -0.0906,1.2530288 -0.0302,2.5211548 -0.0453,3.7741838 -0.0453,3.064638 -0.0453,6.144372 -0.15097,9.20901 0,4.227086 -0.0453,8.454172 -0.15097,12.681257 0.0151,2.415478 -0.0151,4.830956 -0.0604,7.246435 0,0.256644 -0.0302,0.634062 -0.37742,0.634062 -0.31704,0.06039 -0.4831,-0.256644 -0.57368,-0.483096 -4.06102,-9.390169 -8.09185,-18.765243 -12.16797,-28.125219 -1.66064,-3.819474 -3.30619,-7.6389486 -5.04231,-11.4131327 -0.86051,0 -1.70593,-0.090581 -2.56645,-0.060387 -3.06463,-0.015097 -6.14437,-0.075484 -9.209,-0.1056771 -2.26452,-0.090581 -4.52902,-0.030194 -6.79353,-0.04529 -0.84542,-0.030194 -1.67574,0.060387 -2.50606,0.060387 M 311.56803,39.841872 c 0.19625,2.430574 0.16605,4.876245 0.18115,7.30682 0.0755,1.796511 0.0906,3.593023 0.0906,5.389535 5.14799,-0.03019 10.29598,-0.0151 15.42887,-0.0151 -0.0604,-3.200508 -0.19626,-6.401017 -0.18116,-9.601524 -0.0604,-1.026579 -0.0906,-2.053157 -0.10568,-3.079734 -5.13289,0.0151 -10.26578,0.03019 -15.41376,0 z"
     id="path6" />
  <path
     fill="#ffffff"
     stroke="#ffffff"
     stroke-width="0.0937498"
     opacity="1"
     d="m 99.534367,38.00007 c 5.132893,-0.09058 10.265773,-0.150968 15.398673,-0.211355 0.24154,0.0151 0.55858,-0.04529 0.73974,0.150968 0.31703,0.347225 0.55858,0.754837 0.86051,1.117158 0.21135,0.301935 0.49819,0.603869 0.51328,0.996384 0.0604,0.649161 0.0302,1.313417 0.0453,1.962576 0,2.974057 -0.0151,5.933018 0,8.907075 -0.0151,0.649159 0.0302,1.298319 -0.0604,1.947479 -0.0302,0.226451 -0.21136,0.392515 -0.36233,0.543482 -0.33211,0.332128 -0.66424,0.664257 -0.99637,0.981288 H 98.024694 c -0.422709,-0.543482 -1.132256,-1.041675 -1.026579,-1.811609 0.105677,-4.589407 0.196258,-9.163719 0.286839,-13.73803 0,-0.317031 0.07548,-0.754836 0.452901,-0.78503 0.60387,-0.07548 1.192642,-0.04529 1.796512,-0.06039 m -0.347225,5.072503 c 0.105677,3.155218 0.166064,6.295339 0.196257,9.450557 5.132891,0 10.250681,-0.0151 15.368471,0 -0.0302,-1.736125 -0.0906,-3.487346 -0.0755,-5.223471 -0.0755,-2.490961 -0.18116,-4.966826 -0.13587,-7.457787 -5.13289,0.03019 -10.26578,0.0151 -15.398668,0 0.03019,1.071868 0.06039,2.158833 0.04529,3.230701 z"
     id="path7" />
  <path
     fill="#ffffff"
     stroke="#ffffff"
     stroke-width="0.0937498"
     opacity="1"
     d="m 161.28002,38.015167 c 5.63107,-0.09058 11.27726,-0.181162 16.90834,-0.226452 0.22645,0.0151 0.49819,0 0.67935,0.196258 0.30194,0.317031 0.52839,0.69445 0.80013,1.041675 0.25665,0.347225 0.58877,0.709546 0.54348,1.177545 -0.0604,4.181796 -0.0151,8.348495 -0.0302,12.530291 -0.0151,0.211355 -0.0453,0.437806 -0.21135,0.573677 -0.36233,0.362321 -0.73975,0.724643 -1.11717,1.086964 h -17.69337 c -0.30193,-0.407611 -0.69445,-0.769933 -0.95109,-1.207739 -0.0906,-0.558579 -0.0151,-1.102061 -0.0151,-1.660641 0.0755,-4.227086 0.16606,-8.454172 0.25664,-12.681259 0.0151,-0.256644 0,-0.573675 0.24155,-0.73974 0.18116,-0.04529 0.37742,-0.07548 0.58878,-0.09058 m 0.96619,1.826705 c -0.22645,1.871995 -0.12077,3.759087 -0.10568,5.646179 0.12078,2.339994 0.33213,4.695085 0.4378,7.035079 5.13289,-0.0151 10.25069,0 15.36848,0 -0.0906,-2.143737 -0.12078,-4.287473 -0.16606,-6.43121 0.0302,-2.083349 -0.13587,-4.166699 -0.12077,-6.250048 -0.89071,0.03019 -1.76632,0 -2.64194,0.0151 -4.25728,-0.0151 -8.51456,0.0151 -12.77183,-0.0151 z"
     id="path8" />
  <path
     fill="#ffffff"
     stroke="#ffffff"
     stroke-width="0.0937498"
     opacity="1"
     d="m 246.87851,38.030264 c 5.63108,-0.105678 11.27726,-0.181162 16.90834,-0.241549 0.21136,0.0151 0.468,-0.0151 0.66426,0.09058 0.31704,0.301934 0.52839,0.679353 0.80013,1.011481 0.24155,0.362321 0.60386,0.694449 0.64915,1.162448 0.0604,0.603871 0.0453,1.20774 0.0453,1.81161 -0.0151,3.426959 0,6.838821 0,10.26578 -0.0453,0.377419 0.0302,0.83032 -0.27173,1.132255 -0.37742,0.377419 -0.76993,0.754837 -1.14735,1.132255 h -17.66319 c -0.37741,-0.513289 -1.04167,-0.951094 -1.01147,-1.660641 0.0906,-4.378053 0.18116,-8.756107 0.25664,-13.134161 0.0302,-0.422708 -0.0453,-0.860513 0.10568,-1.268125 0.0906,-0.271742 0.4227,-0.286839 0.66425,-0.301934 m 1.16245,5.797145 c 0.12077,2.898574 0.13587,5.797147 0.13587,8.695721 5.14799,0 10.28087,-0.0151 15.42886,0 -0.0302,-0.981288 -0.0453,-1.962576 -0.0604,-2.958961 0,-3.230701 -0.22646,-6.4765 -0.15097,-9.722297 -5.1329,0.0151 -10.28088,0.0151 -15.41377,0 0.0453,1.328512 0.0755,2.657025 0.0604,3.985537 z"
     id="path9" />
</svg>
