<?xml version="1.0" encoding="UTF-8" standalone="no"?>
<!-- Generator: Adobe Illustrator 13.0.2, SVG Export Plug-In . SVG Version: 6.00 Build 14948)  -->

<svg
   version="1.1"
   id="Layer_1"
   x="0px"
   y="0px"
   width="376.00067"
   height="92.711998"
   viewBox="0 0 376.00066 92.711997"
   enable-background="new 0 0 191.725 275.382"
   xml:space="preserve"
   xmlns="http://www.w3.org/2000/svg"
   xmlns:svg="http://www.w3.org/2000/svg"><defs
   id="defs25">
	
	
	
	
</defs>
<g
   id="g26"
   transform="scale(0.43149356)"
   style="fill:#ffffff;fill-opacity:1"><g
     id="g25"
     transform="matrix(3.6522269,0,0,3.6522269,171.17027,-792.4571)"
     style="fill:#ffffff;fill-opacity:1"><g
       id="g10"
       style="fill:#ffffff;fill-opacity:1">
		<path
   d="M 11.253,254.205 H 0.003 v -1 H 3.378 V 238.08 H 0.503 v -1 h 2.804 c 0.56,0 1.26,-0.031 2.1,-0.094 0.84,-0.063 1.726,-0.156 2.659,-0.281 l 0.021,16.5 h 3.166 z M 2.878,228.278 c 0,-0.701 0.237,-1.295 0.713,-1.781 0.475,-0.486 1.067,-0.729 1.776,-0.729 0.695,0 1.287,0.243 1.776,0.729 0.489,0.486 0.734,1.08 0.734,1.781 0,0.701 -0.245,1.292 -0.734,1.771 -0.489,0.479 -1.081,0.719 -1.776,0.719 -0.709,0 -1.302,-0.239 -1.776,-0.719 -0.476,-0.479 -0.713,-1.07 -0.713,-1.771 z"
   id="path1"
   style="fill:#ffffff;fill-opacity:1" />
		<path
   d="M 23.248,254.205 H 12.81 v -1 h 3 V 238.08 h -3 v -1 h 2.827 c 0.559,0 1.254,-0.031 2.086,-0.094 0.832,-0.063 1.721,-0.156 2.667,-0.281 v 3.93 h 0.406 c 0.832,-1.353 1.75,-2.346 2.754,-2.979 1.004,-0.633 2.158,-0.95 3.464,-0.95 1.792,0 3.144,0.425 4.055,1.273 0.91,0.849 1.366,2.114 1.366,3.798 v 0.753 10.676 h 2.75 v 1 H 25.06 v -1 h 2.625 v -12.247 c 0,-1.062 -0.154,-1.775 -0.462,-2.142 -0.308,-0.365 -0.854,-0.549 -1.641,-0.549 -1.273,0 -2.438,0.686 -3.497,2.056 -1.059,1.371 -1.588,2.917 -1.588,4.639 v 8.243 h 2.75 v 0.999 z"
   id="path2"
   style="fill:#ffffff;fill-opacity:1" />
		<path
   d="m 53.104,248.705 h 1.076 c -0.518,2.006 -1.439,3.528 -2.767,4.567 -1.327,1.038 -3.024,1.558 -5.091,1.558 -2.396,0 -4.385,-0.834 -5.963,-2.502 -1.578,-1.668 -2.367,-3.74 -2.367,-6.217 0,-2.691 0.86,-4.932 2.583,-6.722 1.722,-1.789 3.903,-2.685 6.544,-2.685 1.938,0 3.487,0.423 4.649,1.268 1.162,0.845 1.744,1.976 1.744,3.392 0,0.702 -0.208,1.268 -0.624,1.697 -0.416,0.429 -0.976,0.644 -1.679,0.644 -0.732,0 -1.317,-0.211 -1.755,-0.634 -0.438,-0.423 -0.656,-0.979 -0.656,-1.667 0,-0.631 0.189,-1.189 0.57,-1.678 0.38,-0.487 0.57,-0.753 0.57,-0.796 0,-0.387 -0.233,-0.688 -0.699,-0.902 -0.467,-0.215 -1.116,-0.323 -1.948,-0.323 -1.464,0 -2.525,0.448 -3.186,1.345 -0.661,0.897 -0.989,2.341 -0.989,4.333 v 6.416 c 0,1.302 0.337,2.289 1.012,2.961 0.674,0.672 1.671,1.008 2.991,1.008 1.349,0 2.59,-0.482 3.724,-1.447 1.134,-0.966 1.887,-2.171 2.261,-3.616 z"
   id="path3"
   style="fill:#ffffff;fill-opacity:1" />
		<path
   d="m 57.02,254.205 v -1 h 3 V 238.08 h -3 v -1 h 2.827 c 0.547,0 1.241,-0.031 2.084,-0.094 0.842,-0.063 1.731,-0.156 2.668,-0.281 l 0.022,4.282 h 0.345 c 0.728,-1.435 1.584,-2.507 2.568,-3.217 0.984,-0.71 2.104,-1.065 3.359,-1.065 0.97,0 1.743,0.255 2.321,0.764 0.578,0.51 0.867,1.194 0.867,2.055 0,0.732 -0.204,1.32 -0.61,1.765 -0.406,0.445 -0.945,0.667 -1.615,0.667 -0.814,0 -1.428,-0.172 -1.842,-0.516 -0.414,-0.344 -0.62,-0.854 -0.62,-1.527 v -0.388 c 0,-0.301 -0.036,-0.523 -0.107,-0.667 -0.071,-0.143 -0.178,-0.215 -0.32,-0.215 -1.014,0 -1.978,0.663 -2.891,1.988 -0.913,1.325 -1.369,2.775 -1.369,4.352 v 8.223 h 3.875 v 1 H 57.02 Z"
   id="path4"
   style="fill:#ffffff;fill-opacity:1" />
		<path
   d="m 91.866,248.705 h 1.057 c -0.545,2.021 -1.49,3.547 -2.837,4.578 -1.347,1.03 -3.065,1.547 -5.156,1.547 -2.406,0 -4.416,-0.834 -6.027,-2.502 -1.611,-1.668 -2.417,-3.711 -2.417,-6.131 0,-2.591 0.823,-4.82 2.471,-6.689 1.647,-1.868 3.639,-2.803 5.974,-2.803 2.291,0 4.196,0.71 5.715,2.128 1.519,1.419 2.278,3.203 2.278,5.353 v 0.395 h -11.25 v 5.219 c 0,1.201 0.351,2.163 1.052,2.886 0.701,0.723 1.638,1.083 2.811,1.083 1.474,0 2.783,-0.457 3.928,-1.373 1.142,-0.917 1.943,-2.146 2.401,-3.691 z m -3.881,-5.375 v -2.354 c 0,-1.098 -0.257,-1.907 -0.771,-2.428 -0.514,-0.521 -1.306,-0.781 -2.375,-0.781 -1.057,0 -1.849,0.268 -2.376,0.803 -0.527,0.535 -0.791,1.337 -0.791,2.406 v 2.354 z"
   id="path5"
   style="fill:#ffffff;fill-opacity:1" />
		<path
   d="m 114.889,253.205 h 2.813 v 1 h -2.813 c -0.543,0 -1.228,0.035 -2.055,0.108 -0.828,0.071 -1.705,0.164 -2.633,0.279 v -2.396 h -0.623 c -0.676,0.885 -1.444,1.545 -2.306,1.98 -0.862,0.436 -1.84,0.653 -2.932,0.653 -2.227,0 -4.109,-0.866 -5.646,-2.599 -1.537,-1.733 -2.306,-3.887 -2.306,-6.464 0,-2.605 0.782,-4.767 2.349,-6.485 1.566,-1.718 3.521,-2.577 5.862,-2.577 1.049,0 1.972,0.209 2.77,0.626 0.797,0.418 1.563,1.094 2.295,2.028 h 0.537 v -13.592 h -2.813 v -1 h 2.77 c 0.557,0 1.252,-0.04 2.087,-0.121 0.834,-0.081 1.716,-0.187 2.644,-0.316 z m -4.731,-5.281 v -4.658 c 0,-1.416 -0.541,-2.708 -1.621,-3.874 -1.081,-1.166 -2.271,-1.75 -3.567,-1.75 -1.239,0 -2.114,0.372 -2.626,1.116 -0.512,0.744 -0.768,2.133 -0.768,4.164 v 6.14 c 0,1.676 0.244,2.889 0.734,3.641 0.49,0.752 1.275,1.127 2.356,1.127 1.499,0 2.789,-0.555 3.87,-1.664 1.08,-1.109 1.621,-2.494 1.621,-4.155 v -0.087 z"
   id="path6"
   style="fill:#ffffff;fill-opacity:1" />
		<path
   d="m 130.82,254.205 h -11.25 v -1 h 3.375 V 238.08 h -2.875 v -1 h 2.804 c 0.56,0 1.26,-0.031 2.1,-0.094 0.84,-0.063 1.726,-0.156 2.659,-0.281 l 0.021,16.5 h 3.166 z m -8.375,-25.927 c 0,-0.701 0.237,-1.295 0.713,-1.781 0.475,-0.486 1.067,-0.729 1.776,-0.729 0.695,0 1.287,0.243 1.776,0.729 0.489,0.486 0.734,1.08 0.734,1.781 0,0.701 -0.245,1.292 -0.734,1.771 -0.489,0.479 -1.081,0.719 -1.776,0.719 -0.709,0 -1.302,-0.239 -1.776,-0.719 -0.475,-0.479 -0.713,-1.07 -0.713,-1.771 z"
   id="path7"
   style="fill:#ffffff;fill-opacity:1" />
		<path
   d="m 140.048,254.549 -2.829,-0.259 h -0.107 c -1.02,-0.058 -2.139,-0.086 -3.357,-0.086 -0.144,0 -0.366,0.007 -0.667,0.021 -0.302,0.014 -0.538,0.021 -0.71,0.021 v -1.043 h 3 v -27.438 h -3 v -1 h 2.827 c 0.557,0 1.253,-0.04 2.089,-0.121 0.836,-0.081 1.718,-0.187 2.646,-0.316 v 15.029 h 0.628 c 0.748,-0.949 1.514,-1.629 2.297,-2.039 0.783,-0.41 1.7,-0.615 2.751,-0.615 2.344,0 4.307,0.859 5.889,2.577 1.582,1.719 2.373,3.88 2.373,6.485 0,2.563 -0.777,4.714 -2.33,6.453 -1.553,1.74 -3.444,2.609 -5.673,2.609 -1.093,0 -2.063,-0.218 -2.912,-0.653 -0.849,-0.435 -1.618,-1.096 -2.308,-1.98 h -0.606 v 2.355 z m 0,-6.625 c 0,1.676 0.548,3.078 1.646,4.209 1.098,1.131 2.397,1.696 3.899,1.696 1.024,0 1.797,-0.361 2.316,-1.085 0.52,-0.723 0.78,-1.814 0.78,-3.275 v -0.408 -6.139 c 0,-2.031 -0.261,-3.42 -0.78,-4.164 -0.519,-0.744 -1.4,-1.116 -2.642,-1.116 -1.285,0 -2.477,0.584 -3.574,1.75 -1.097,1.166 -1.646,2.458 -1.646,3.874 v 4.658 z"
   id="path8"
   style="fill:#ffffff;fill-opacity:1" />
		<path
   d="m 159.747,225.767 h -3.375 v -1 h 3.289 c 0.559,0 1.262,-0.04 2.107,-0.121 0.845,-0.081 1.734,-0.187 2.666,-0.316 v 28.875 h 3.188 v 1 h -11.25 v -1 h 3.375 z"
   id="path9"
   style="fill:#ffffff;fill-opacity:1" />
		<path
   d="m 184.935,248.705 h 1.057 c -0.545,2.021 -1.49,3.547 -2.837,4.578 -1.347,1.03 -3.065,1.547 -5.156,1.547 -2.406,0 -4.416,-0.834 -6.027,-2.502 -1.611,-1.668 -2.417,-3.711 -2.417,-6.131 0,-2.591 0.823,-4.82 2.471,-6.689 1.647,-1.868 3.639,-2.803 5.974,-2.803 2.291,0 4.196,0.71 5.715,2.128 1.519,1.419 2.278,3.203 2.278,5.353 v 0.395 h -11.25 v 5.219 c 0,1.201 0.351,2.163 1.052,2.886 0.701,0.723 1.638,1.083 2.811,1.083 1.474,0 2.783,-0.457 3.928,-1.373 1.142,-0.917 1.943,-2.146 2.401,-3.691 z m -3.881,-5.375 v -2.354 c 0,-1.098 -0.257,-1.907 -0.771,-2.428 -0.514,-0.521 -1.306,-0.781 -2.375,-0.781 -1.057,0 -1.849,0.268 -2.376,0.803 -0.527,0.535 -0.791,1.337 -0.791,2.406 v 2.354 z"
   id="path10"
   style="fill:#ffffff;fill-opacity:1" />
	</g><g
       id="g23"
       style="fill:#ffffff;fill-opacity:1">
		<path
   d="M 42.376,275.164 V 263.32 h -4.438 v -1.594 h 10.656 v 1.594 h -4.438 v 11.844 z"
   id="path11"
   style="fill:#ffffff;fill-opacity:1" />
		<path
   d="m 50.522,275.164 v -13.438 h 9.719 v 1.594 h -7.938 v 4.094 h 7.438 v 1.594 h -7.438 v 4.563 h 8.25 v 1.594 H 50.522 Z"
   id="path12"
   style="fill:#ffffff;fill-opacity:1" />
		<path
   d="m 72.599,270.445 1.781,0.447 c -0.374,1.46 -1.046,2.573 -2.017,3.34 -0.971,0.767 -2.158,1.15 -3.56,1.15 -1.452,0 -2.632,-0.295 -3.542,-0.884 -0.91,-0.589 -1.602,-1.441 -2.076,-2.558 -0.474,-1.117 -0.712,-2.315 -0.712,-3.597 0,-1.397 0.268,-2.616 0.805,-3.656 0.536,-1.04 1.299,-1.831 2.29,-2.371 0.991,-0.54 2.08,-0.81 3.269,-0.81 1.349,0 2.482,0.342 3.402,1.026 0.919,0.685 1.56,1.647 1.922,2.888 l -1.75,0.411 c -0.313,-0.974 -0.767,-1.683 -1.361,-2.127 -0.594,-0.444 -1.343,-0.667 -2.244,-0.667 -1.036,0 -1.902,0.246 -2.598,0.739 -0.696,0.493 -1.185,1.155 -1.467,1.986 -0.282,0.831 -0.423,1.688 -0.423,2.571 0,1.139 0.167,2.132 0.5,2.981 0.333,0.849 0.852,1.484 1.556,1.904 0.704,0.42 1.466,0.63 2.287,0.63 0.997,0 1.842,-0.286 2.534,-0.858 0.691,-0.57 1.159,-1.419 1.404,-2.545 z"
   id="path13"
   style="fill:#ffffff;fill-opacity:1" />
		<path
   d="m 76.652,275.164 v -13.438 h 1.781 v 5.5 h 6.969 v -5.5 h 1.781 v 13.438 h -1.781 v -6.344 h -6.969 v 6.344 z"
   id="path14"
   style="fill:#ffffff;fill-opacity:1" />
		<path
   d="m 90.142,275.164 v -13.438 h 1.838 l 7.068,10.548 v -10.548 h 1.719 v 13.438 h -1.838 l -7.068,-10.549 v 10.549 z"
   id="path15"
   style="fill:#ffffff;fill-opacity:1" />
		<path
   d="m 103.163,268.623 c 0,-2.226 0.601,-3.968 1.804,-5.227 1.203,-1.259 2.756,-1.889 4.658,-1.889 1.246,0 2.369,0.295 3.369,0.887 1,0.592 1.763,1.416 2.288,2.474 0.524,1.059 0.787,2.258 0.787,3.6 0,1.359 -0.276,2.576 -0.829,3.649 -0.553,1.073 -1.335,1.886 -2.348,2.438 -1.013,0.552 -2.104,0.828 -3.276,0.828 -1.271,0 -2.406,-0.305 -3.406,-0.915 -1.001,-0.609 -1.759,-1.441 -2.274,-2.497 -0.516,-1.055 -0.773,-2.172 -0.773,-3.348 z m 1.844,0.022 c 0,1.614 0.437,2.885 1.311,3.813 0.874,0.928 1.971,1.393 3.289,1.393 1.344,0 2.449,-0.47 3.317,-1.407 0.867,-0.938 1.302,-2.268 1.302,-3.99 0,-1.09 -0.186,-2.041 -0.557,-2.854 -0.371,-0.813 -0.914,-1.442 -1.629,-1.89 -0.715,-0.448 -1.517,-0.671 -2.405,-0.671 -1.264,0 -2.352,0.431 -3.262,1.292 -0.911,0.861 -1.366,2.299 -1.366,4.314 z"
   id="path16"
   style="fill:#ffffff;fill-opacity:1" />
		<path
   d="m 118.294,275.163 v -13.438 h 1.781 v 11.844 h 6.656 v 1.594 z"
   id="path17"
   style="fill:#ffffff;fill-opacity:1" />
		<path
   d="m 128.255,268.623 c 0,-2.226 0.601,-3.968 1.804,-5.228 1.203,-1.259 2.756,-1.889 4.658,-1.889 1.246,0 2.369,0.296 3.369,0.888 1,0.592 1.763,1.416 2.288,2.474 0.524,1.059 0.787,2.258 0.787,3.6 0,1.359 -0.276,2.576 -0.829,3.649 -0.553,1.073 -1.335,1.886 -2.348,2.438 -1.013,0.552 -2.104,0.827 -3.276,0.827 -1.271,0 -2.406,-0.305 -3.406,-0.914 -1.001,-0.609 -1.759,-1.442 -2.274,-2.497 -0.515,-1.055 -0.773,-2.172 -0.773,-3.348 z m 1.844,0.022 c 0,1.613 0.437,2.885 1.311,3.813 0.874,0.929 1.971,1.393 3.289,1.393 1.344,0 2.449,-0.469 3.317,-1.406 0.867,-0.938 1.302,-2.268 1.302,-3.99 0,-1.09 -0.186,-2.041 -0.557,-2.854 -0.371,-0.813 -0.914,-1.442 -1.629,-1.89 -0.715,-0.448 -1.517,-0.672 -2.405,-0.672 -1.264,0 -2.352,0.432 -3.262,1.293 -0.911,0.86 -1.366,2.298 -1.366,4.313 z"
   id="path18"
   style="fill:#ffffff;fill-opacity:1" />
		<path
   d="m 149.761,269.913 v -1.594 h 5.688 v 4.971 c -0.875,0.694 -1.776,1.217 -2.706,1.566 -0.93,0.351 -1.884,0.525 -2.861,0.525 -1.321,0 -2.521,-0.282 -3.601,-0.847 -1.08,-0.565 -1.895,-1.38 -2.444,-2.448 -0.551,-1.067 -0.825,-2.26 -0.825,-3.578 0,-1.306 0.273,-2.524 0.82,-3.656 0.547,-1.132 1.334,-1.973 2.361,-2.521 1.026,-0.549 2.209,-0.824 3.548,-0.824 0.972,0 1.851,0.158 2.637,0.473 0.785,0.315 1.4,0.755 1.847,1.317 0.446,0.563 0.786,1.298 1.019,2.203 l -1.639,0.44 c -0.201,-0.684 -0.451,-1.221 -0.749,-1.611 -0.298,-0.39 -0.724,-0.703 -1.276,-0.938 -0.554,-0.234 -1.168,-0.353 -1.843,-0.353 -0.81,0 -1.509,0.124 -2.099,0.371 -0.59,0.247 -1.066,0.572 -1.428,0.975 -0.362,0.402 -0.644,0.845 -0.844,1.326 -0.341,0.829 -0.511,1.729 -0.511,2.699 0,1.195 0.205,2.195 0.615,3.001 0.41,0.805 1.008,1.402 1.793,1.793 0.784,0.391 1.618,0.585 2.5,0.585 0.766,0 1.514,-0.146 2.244,-0.441 0.729,-0.295 1.283,-0.609 1.66,-0.944 v -2.489 h -3.906 z"
   id="path19"
   style="fill:#ffffff;fill-opacity:1" />
		<path
   d="m 158.392,275.163 v -13.438 h 1.781 v 13.438 z"
   id="path20"
   style="fill:#ffffff;fill-opacity:1" />
		<path
   d="m 163.398,275.163 v -13.438 h 9.719 v 1.594 h -7.938 v 4.094 h 7.438 v 1.594 h -7.438 v 4.563 h 8.25 v 1.594 h -10.031 z"
   id="path21"
   style="fill:#ffffff;fill-opacity:1" />
		<path
   d="m 175.288,270.85 1.688,-0.156 c 0.079,0.672 0.264,1.223 0.553,1.652 0.289,0.431 0.738,0.778 1.348,1.044 0.61,0.266 1.294,0.397 2.056,0.397 0.676,0 1.272,-0.101 1.79,-0.302 0.518,-0.201 0.903,-0.478 1.156,-0.828 0.253,-0.35 0.379,-0.732 0.379,-1.146 0,-0.419 -0.124,-0.785 -0.372,-1.098 -0.248,-0.313 -0.652,-0.575 -1.213,-0.788 -0.359,-0.14 -1.155,-0.357 -2.386,-0.652 -1.231,-0.295 -2.095,-0.574 -2.59,-0.838 -0.643,-0.336 -1.121,-0.753 -1.436,-1.251 -0.315,-0.498 -0.473,-1.057 -0.473,-1.674 0,-0.679 0.192,-1.313 0.578,-1.902 0.385,-0.59 0.947,-1.038 1.687,-1.344 0.74,-0.306 1.562,-0.459 2.466,-0.459 0.996,0 1.875,0.161 2.636,0.483 0.761,0.322 1.346,0.796 1.755,1.422 0.409,0.626 0.63,1.335 0.66,2.126 l -1.719,0.125 c -0.092,-0.845 -0.4,-1.483 -0.928,-1.915 -0.528,-0.432 -1.306,-0.647 -2.335,-0.647 -1.073,0 -1.854,0.196 -2.345,0.589 -0.491,0.393 -0.736,0.865 -0.736,1.419 0,0.481 0.174,0.877 0.521,1.187 0.341,0.311 1.231,0.629 2.673,0.954 1.442,0.325 2.433,0.61 2.973,0.854 0.785,0.359 1.365,0.814 1.74,1.365 0.374,0.552 0.562,1.187 0.562,1.904 0,0.713 -0.204,1.385 -0.613,2.015 -0.409,0.63 -0.997,1.12 -1.763,1.471 -0.767,0.35 -1.629,0.524 -2.588,0.524 -1.215,0 -2.232,-0.177 -3.054,-0.529 -0.821,-0.354 -1.466,-0.885 -1.933,-1.595 -0.466,-0.709 -0.712,-1.511 -0.737,-2.407 z"
   id="path22"
   style="fill:#ffffff;fill-opacity:1" />
		<path
   d="m 189.344,261.859 c 0.4,0 0.79,0.103 1.172,0.308 0.381,0.205 0.678,0.498 0.891,0.879 0.212,0.382 0.318,0.779 0.318,1.193 0,0.41 -0.104,0.805 -0.313,1.183 -0.21,0.379 -0.504,0.672 -0.882,0.882 -0.378,0.209 -0.773,0.313 -1.186,0.313 -0.413,0 -0.808,-0.104 -1.186,-0.313 -0.378,-0.209 -0.673,-0.503 -0.883,-0.882 -0.211,-0.378 -0.316,-0.772 -0.316,-1.182 0,-0.414 0.107,-0.813 0.321,-1.193 0.213,-0.382 0.511,-0.675 0.892,-0.88 0.381,-0.205 0.771,-0.308 1.172,-0.308 z m 0,0.391 c -0.336,0 -0.662,0.086 -0.979,0.258 -0.317,0.171 -0.566,0.417 -0.745,0.735 -0.18,0.319 -0.27,0.651 -0.27,0.997 0,0.343 0.088,0.672 0.265,0.986 0.176,0.315 0.423,0.561 0.739,0.736 0.316,0.175 0.646,0.264 0.99,0.264 0.344,0 0.674,-0.088 0.99,-0.264 0.316,-0.176 0.563,-0.421 0.737,-0.736 0.176,-0.314 0.263,-0.644 0.263,-0.987 0,-0.345 -0.089,-0.677 -0.268,-0.996 -0.178,-0.319 -0.426,-0.564 -0.745,-0.736 -0.318,-0.172 -0.644,-0.257 -0.977,-0.257 z m -1.049,3.304 v -2.563 h 0.885 c 0.302,0 0.521,0.023 0.656,0.07 0.135,0.048 0.243,0.13 0.323,0.248 0.08,0.117 0.12,0.242 0.12,0.374 0,0.188 -0.067,0.35 -0.202,0.488 -0.135,0.138 -0.313,0.217 -0.536,0.233 0.091,0.038 0.163,0.083 0.218,0.136 0.104,0.102 0.23,0.271 0.38,0.51 l 0.313,0.503 h -0.506 l -0.23,-0.405 c -0.182,-0.315 -0.325,-0.515 -0.431,-0.597 -0.076,-0.06 -0.187,-0.091 -0.332,-0.092 h -0.243 v 1.094 h -0.415 z m 0.414,-1.445 h 0.51 c 0.243,0 0.409,-0.036 0.498,-0.107 0.089,-0.071 0.133,-0.166 0.133,-0.284 0,-0.076 -0.021,-0.144 -0.063,-0.204 -0.043,-0.06 -0.103,-0.104 -0.178,-0.134 -0.076,-0.029 -0.217,-0.044 -0.422,-0.044 h -0.478 z"
   id="path23"
   style="fill:#ffffff;fill-opacity:1" />
	</g></g><path
     fill="#ffd100"
     d="M 46.918,0 C 67.946,0 85.095003,17.151 85.095003,38.175 85.095003,59.205 67.946,76.359 46.918,76.359 25.895,76.359 8.738,59.206 8.738,38.175 8.738,17.151 25.895,0 46.918,0 Z"
     id="path24"
     style="fill:#ffffff;fill-opacity:1" /><path
     d="m 135.355,124.456 -19.657,0.027 -0.02,64.82 c 0.02,2.293 -0.045,6.944 3.617,4.605 7.624,-5.25 11.009,-23.78 12.174,-27.27 l 4.382,1.617 c -5.05,18.527 -9.762,43.508 -33.624,46.607 v 0 H 69.019 v -5.319 h 8.503003 v 0 C 73.890003,206.482 70.605,202.711 69.019,198.517 V 91.763 c 22.198003,-7.391 40.227,-29.487 46.66,-52.21 l 0.02,78.078 h 19.657 v 6.825 z M 69.019,214.863 H 0 V 209.52 H 12.469 L 12.492,93.793 c 8.121,2.755 16.836,4.27 25.869,4.27 4.319,0 8.557,-0.343 12.702,-0.988 3.354,-0.371 6.531,-1.538 9.41,-2.167 l 0.031,22.722 h 7.468 V 92.1 c 0.375,-0.097 0.707,-0.209 1.046,-0.337 v 106.754 c -0.652,-1.691 -1.015,-3.459 -1.015,-5.288 l -0.031,-68.773 h -7.468 v 85.088 h 8.514 v 5.319 z"
     id="path25"
     style="fill:#ffffff;fill-opacity:1" /></g>
</svg>
