<?xml version="1.0" encoding="UTF-8" standalone="no"?>
<!-- Created with Inkscape (http://www.inkscape.org/) -->

<svg
   width="99.483337mm"
   height="48.47377mm"
   viewBox="0 0 352.50002 171.75735"
   id="svg2"
   version="1.1"
   xmlns="http://www.w3.org/2000/svg"
   xmlns:svg="http://www.w3.org/2000/svg"
   xmlns:rdf="http://www.w3.org/1999/02/22-rdf-syntax-ns#"
   xmlns:cc="http://creativecommons.org/ns#"
   xmlns:dc="http://purl.org/dc/elements/1.1/">
  <defs
     id="defs4" />
  <metadata
     id="metadata7">
    <rdf:RDF>
      <cc:Work
         rdf:about="">
        <dc:format>image/svg+xml</dc:format>
        <dc:type
           rdf:resource="http://purl.org/dc/dcmitype/StillImage" />
      </cc:Work>
    </rdf:RDF>
  </metadata>
  <path
     id="path3357"
     style="fill:#ffffff;fill-opacity:1;fill-rule:evenodd;stroke:none;stroke-width:2.90722px;stroke-linecap:butt;stroke-linejoin:miter;stroke-opacity:1"
     d="M 0,31.753421 31.56986,63.32329 62.956197,31.936953 31.019248,0 Z M 15.050789,74.140362 H 49.924494 V 165.17904 H 15.050789 Z m 73.893592,97.617048 31.381149,-13.8002 -13.20285,-38.29336 c -4.01826,-11.6545 1.13752,-19.39323 9.46217,-22.26341 2.49739,-0.86105 3.82934,-1.32028 5.21868,-1.61302 l -3.08154,-34.331621 c -2.6122,0.528072 -5.33349,1.280033 -7.83088,2.141088 C 98.737131,67.787358 93.030181,76.088685 94.264031,87.771781 L 93.931051,87.886587 88.24808,71.40379 58.864838,84.515149 Z M 352.4999,163.63912 v -59.18904 c 0,-18.051785 -11.28237,-31.7642 -29.85488,-31.7642 -8.33159,0 -15.10101,3.645072 -20.48183,9.199471 -5.38082,-6.248699 -11.62952,-9.199471 -21.17613,-9.199471 -11.62952,0 -19.78754,5.380824 -26.38338,14.23314 h -0.34715 V 72.68588 l -30.89633,2.777197 v 90.953243 l 33.67352,-2.7772 V 110.5252 c 0,-4.51294 2.60363,-7.11657 6.59585,-7.11657 4.86009,0 7.46372,2.7772 7.46372,6.943 v 56.06469 l 33.67352,-2.7772 V 110.5252 c 0,-3.29792 2.0829,-7.11657 7.11657,-7.11657 4.8601,0 6.943,2.7772 6.943,6.59585 v 56.41184 z m -196.07722,-42.1787 c -0.6943,-1.56217 -1.3886,-2.60363 -1.3886,-6.42227 0,-7.81087 5.72797,-15.62174 14.05957,-15.62174 4.33937,0 7.81086,0.86788 10.58806,4.51295 z m 41.13724,8.15802 c -5.55439,4.68652 -11.62951,8.67874 -21.00256,8.67874 -3.12434,0 -7.29014,-0.34715 -9.72019,-1.56217 l 46.51807,-35.06213 c -7.46372,-17.531057 -23.25904,-28.987 -43.91445,-28.987 -25.68908,0 -46.86521,18.39894 -46.86521,49.46884 0,24.99478 19.96111,45.65017 48.08024,45.65017 17.01034,0 29.6813,-3.9922 42.17869,-13.01809 z" />
</svg>
