<?xml version="1.0" encoding="UTF-8" standalone="no"?>
<!-- Created with Inkscape (http://www.inkscape.org/) -->

<svg
   width="380.00003"
   height="93.676109"
   viewBox="0 0 356.25003 87.821299"
   id="svg4410"
   version="1.1"
   sodipodi:docname="jaleco.svg"
   inkscape:version="1.4 (e7c3feb100, 2024-10-09)"
   xmlns:inkscape="http://www.inkscape.org/namespaces/inkscape"
   xmlns:sodipodi="http://sodipodi.sourceforge.net/DTD/sodipodi-0.dtd"
   xmlns="http://www.w3.org/2000/svg"
   xmlns:svg="http://www.w3.org/2000/svg"
   xmlns:rdf="http://www.w3.org/1999/02/22-rdf-syntax-ns#"
   xmlns:cc="http://creativecommons.org/ns#"
   xmlns:dc="http://purl.org/dc/elements/1.1/">
  <sodipodi:namedview
     id="namedview1"
     pagecolor="#ffffff"
     bordercolor="#000000"
     borderopacity="0.25"
     inkscape:showpageshadow="2"
     inkscape:pageopacity="0.0"
     inkscape:pagecheckerboard="0"
     inkscape:deskcolor="#d1d1d1"
     inkscape:document-units="mm"
     inkscape:zoom="2.2886196"
     inkscape:cx="209.95189"
     inkscape:cy="79.742392"
     inkscape:window-width="1920"
     inkscape:window-height="1164"
     inkscape:window-x="1920"
     inkscape:window-y="0"
     inkscape:window-maximized="1"
     inkscape:current-layer="svg4410" />
  <defs
     id="defs4412" />
  <metadata
     id="metadata4415">
    <rdf:RDF>
      <cc:Work
         rdf:about="">
        <dc:format>image/svg+xml</dc:format>
        <dc:type
           rdf:resource="http://purl.org/dc/dcmitype/StillImage" />
      </cc:Work>
    </rdf:RDF>
  </metadata>
  <path
     id="path3383"
     style="font-style:normal;font-variant:normal;font-weight:bold;font-stretch:condensed;font-size:128.273px;line-height:125%;font-family:'Impact MT Std';-inkscape-font-specification:'Impact MT Std Bold Condensed';letter-spacing:0px;word-spacing:0px;fill:#ffffff;fill-opacity:1;stroke:none;stroke-width:0.735125px;stroke-linecap:butt;stroke-linejoin:miter;stroke-opacity:1"
     d="M 342.90115,48.994625 V 38.124689 c 0,-6.521968 -0.22087,-11.111497 -0.6626,-13.768594 -0.44173,-2.576581 -1.76694,-4.992123 -4.08604,-7.246626 -2.20867,-2.25451 -5.19037,-3.945388 -8.94512,-4.992123 -3.75474,-1.127252 -7.95121,-1.690884 -12.58942,-1.690884 -4.96952,0 -9.27642,0.644148 -12.92073,1.7714 -3.75474,1.207774 -6.62601,2.818136 -8.83469,5.072639 -2.20867,2.173987 -3.42343,4.589529 -3.86517,7.246626 -0.44173,2.657097 -0.6626,7.246632 -0.6626,13.607562 v 10.869936 c 0,6.602484 0.22087,11.192015 0.6626,13.768595 0.44174,2.657098 1.76694,5.072638 4.08604,7.327147 2.20867,2.173987 5.19038,3.864868 8.94512,4.99212 3.75474,1.127257 7.95121,1.690881 12.58943,1.690881 4.96951,0 9.27642,-0.644147 12.92072,-1.771399 3.75475,-1.20777 6.62602,-2.89865 8.83469,-5.072637 2.20867,-2.254505 3.42344,-4.670049 3.86517,-7.327147 0.44173,-2.657093 0.6626,-7.166106 0.6626,-13.60756 z M 320.15184,28.140443 v 29.228064 c 0,3.703838 -0.22087,6.119377 -0.6626,7.085589 -0.44173,1.046735 -1.43564,1.529846 -2.9817,1.529846 -1.43564,0 -2.42955,-0.483111 -2.87128,-1.288288 -0.3313,-0.885699 -0.55217,-3.140203 -0.55217,-6.844036 V 28.140443 c 0,-3.301239 0.3313,-5.314194 0.88347,-5.958335 0.6626,-0.644149 1.54607,-0.96622 2.76084,-0.96622 1.43563,0 2.31911,0.402594 2.76084,1.207774 0.44173,0.805181 0.6626,2.737613 0.6626,5.716781 z m -37.40246,11.353052 v -6.038858 c 0,-5.958336 -0.66261,-10.306316 -2.09824,-13.124446 -1.32521,-2.818135 -4.19647,-5.233677 -8.50338,-7.085594 -4.41734,-1.851916 -9.93902,-2.818135 -16.56504,-2.818135 -4.96951,0 -9.27642,0.563632 -13.14159,1.851916 -3.75474,1.207774 -6.73645,2.818136 -8.83469,4.992123 -2.09824,2.093471 -3.42343,4.347981 -3.86517,6.602484 -0.44174,2.335026 -0.6626,5.716781 -0.6626,10.306316 v 18.59968 c 0,6.280407 0.77303,10.950456 2.09823,14.010142 1.43564,3.140209 4.30691,5.555749 8.61382,7.327147 4.30691,1.771393 9.82859,2.657098 16.4546,2.657098 6.40515,0 11.70596,-1.046735 16.1233,-3.140204 4.41734,-2.093474 7.17818,-4.509014 8.50339,-7.246629 1.21476,-2.73762 1.87737,-7.407664 1.87737,-14.010147 v -2.415545 h -22.74932 v 7.971293 c 0,3.462279 -0.22086,5.716779 -0.77303,6.602483 -0.44174,0.966212 -1.54607,1.449323 -3.31301,1.449323 -1.76694,0 -2.87127,-0.483111 -3.31301,-1.449323 -0.55216,-0.885704 -0.77303,-2.979168 -0.77303,-6.038859 V 28.945624 c 0,-3.220723 0.22087,-5.314194 0.77303,-6.280413 0.44174,-0.966213 1.65651,-1.449323 3.53388,-1.449323 1.6565,0 2.6504,0.402594 3.20258,1.207774 0.44173,0.724659 0.66259,2.737613 0.66259,6.038852 v 11.030981 z m -98.9502,-27.778743 v 63.68981 h 39.31435 V 62.682703 H 206.54849 V 48.672555 h 14.1355 V 36.594844 h -14.1355 V 24.517127 H 221.6779 V 11.714752 Z m -19.31034,0 h -22.74931 v 63.68981 h 36.55351 V 62.682703 h -13.8042 z m -39.62494,0 H 92.065131 l -11.595514,63.68981 h 23.522343 l 1.3252,-11.433567 h 8.17208 l 1.10434,11.433567 h 23.30148 z m -12.03726,40.983706 h -7.73035 c 0.55218,-5.636267 1.98781,-14.573769 4.30691,-26.732002 1.10434,10.628388 2.3191,19.485377 3.42344,26.732002 z M 76.927111,11.714752 H 54.288235 v 44.848579 c 0,2.41554 -0.110436,4.025903 -0.220868,4.831084 -0.110436,0.885695 -0.662604,1.529846 -1.656502,2.173987 -0.883472,0.563624 -2.208675,0.805182 -3.754743,0.805182 -0.662604,0 -1.656503,0 -2.981706,-0.08052 V 75.40456 h 11.374657 c 4.969508,0 8.72425,-0.241553 11.26422,-0.805181 2.539975,-0.563634 4.527777,-1.610363 5.963416,-3.059691 1.435635,-1.529845 2.208671,-3.140204 2.429534,-4.99212 0.220868,-1.771393 0.220868,-5.877824 0.220868,-12.238748 z" />
  <path
     id="rect3368"
     style="fill:none;stroke:#ffffff;stroke-width:2.74759;stroke-opacity:1"
     d="M 1.373795,1.373795 H 354.8761 V 86.44753 H 1.373795 Z" />
  <path
     id="rect3370"
     style="fill:#ffffff;fill-opacity:1;stroke-width:0.433417"
     d="M 1.9045952,1.9116699 H 27.695165 V 85.212541 H 1.9045952 Z" />
</svg>
