<?xml version="1.0" encoding="UTF-8" standalone="no"?>
<svg
   width="375.99918"
   height="68.158997"
   viewBox="0 0 99.483121 18.033734"
   version="1.1"
   id="svg8"
   xmlns="http://www.w3.org/2000/svg"
   xmlns:svg="http://www.w3.org/2000/svg"
   xmlns:rdf="http://www.w3.org/1999/02/22-rdf-syntax-ns#"
   xmlns:cc="http://creativecommons.org/ns#"
   xmlns:dc="http://purl.org/dc/elements/1.1/">
  <defs
     id="defs2" />
  <metadata
     id="metadata5">
    <rdf:RDF>
      <cc:Work
         rdf:about="">
        <dc:format>image/svg+xml</dc:format>
        <dc:type
           rdf:resource="http://purl.org/dc/dcmitype/StillImage" />
      </cc:Work>
    </rdf:RDF>
  </metadata>
  <path
     id="path1541"
     style="fill:#ffffff;stroke:none;stroke-width:0.106457;stroke-linecap:round;stroke-linejoin:round"
     d="M 90.637528,6.3016739e-5 C 85.739291,0.03843321 81.788514,4.0641759 81.788589,9.0168994 c 7.4e-5,4.9798346 3.992732,9.0167706 8.917922,9.0168356 4.925198,-6.6e-5 8.77652,-4.037002 8.776604,-9.0168356 -8.4e-5,-4.9798348 -3.851406,-9.01677103257 -8.776604,-9.016836383261 -0.02297,-8.4022319e-5 -0.04603,-8.4022319e-5 -0.06899,0 z M 90.73112,3.7028052 h 0.01783 c 2.606998,1.774e-4 4.578953,2.373089 4.578868,5.3000997 -1.58e-4,2.9268341 -1.972038,5.1015831 -4.578868,5.1017601 -2.607016,1.21e-4 -4.720531,-2.174711 -4.720689,-5.1017601 -9.4e-5,-2.9194114 2.10262,-5.2891862 4.702839,-5.3000997 z m -20.044596,6.1856572 6.390971,7.5388566 h 5.170257 L 73.957999,8.4466773 81.329033,0.73945008 H 76.357115 L 70.686524,7.0870467 Z M 53.902021,0.79512886 V 3.8774503 h 15.01069 V 0.79512886 Z m 0,5.98806514 V 17.4273 H 68.888587 V 13.886665 H 57.442656 V 10.323829 H 68.888587 V 6.783194 Z M 51.108912,5.7097343 V 17.427318 H 47.223139 V 7.6318568 c 0,-2.1391896 -1.586747,-3.3354339 -3.226919,-3.3354339 v 0 H 40.293326 V 17.427318 h -4.14017 V 0.76311636 h 9.36945 c 3.605809,0 5.586306,2.63416494 5.586306,4.94661794 z M 22.848433,0.73945008 h 4.331473 L 35.0225,17.427318 h -4.799056 -13.04301 v -1.473882 l 4.058022,-8.7776711 h 4.013915 l -2.9553,6.9030491 h 6.682504 M 4.8960953,9.8884624 11.027236,17.427319 h 5.390112 L 8.1875613,8.3667253 15.358713,0.73945008 H 10.506729 L 4.8960953,6.7072846 Z M 0,0.73945008 H 4.0192645 V 17.427318 H 0 Z" />
</svg>
