<?xml version="1.0" encoding="UTF-8" standalone="no"?>
<!-- Created with Inkscape (http://www.inkscape.org/) -->

<svg
   id="svg2985"
   version="1.1"
   width="376.00146"
   height="63.332001"
   xml:space="preserve"
   xmlns="http://www.w3.org/2000/svg"
   xmlns:svg="http://www.w3.org/2000/svg"
   xmlns:rdf="http://www.w3.org/1999/02/22-rdf-syntax-ns#"
   xmlns:cc="http://creativecommons.org/ns#"
   xmlns:dc="http://purl.org/dc/elements/1.1/"><metadata
     id="metadata2991"><rdf:RDF><cc:Work
         rdf:about=""><dc:format>image/svg+xml</dc:format><dc:type
           rdf:resource="http://purl.org/dc/dcmitype/StillImage" /></cc:Work></rdf:RDF></metadata><defs
     id="defs2989" /><path
     id="path3087"
     style="fill:#ffffff;fill-opacity:1;fill-rule:nonzero;stroke:none;stroke-width:1.05902"
     d="M 221.93916,40.443121 231.1813,20.09919 c 0.45221,-1.030434 0.85463,-1.95073 0.99549,-2.447414 h 0.14825 c 0.18217,0.589879 0.57082,1.488994 0.99761,2.483421 l 9.00069,20.307924 z m 29.56489,20.731533 h 16.24974 L 242.10517,5.7917202 c -0.93723,-2.002622 -2.96952,-3.6398797 -5.61814,-3.6398797 h -11.2151 c -0.62167,0 -0.67885,0.6407122 -0.22346,0.865226 1.37143,0.6862503 2.32032,2.9610426 1.32484,5.0822759 l -24.8088,53.0753116 h 10.96835 l 6.16356,-13.593684 h 26.78916 z M 187.44937,2.1516344 V 35.89333 c 0,1.653142 0.0773,2.696285 0.14614,4.175747 h -0.14614 c -1.13846,-1.594895 -2.40188,-3.241686 -4.25518,-5.421164 L 157.82199,5.3064791 c -1.98885,-2.2726742 -3.5774,-3.1474313 -7.21833,-3.1548447 h -12.89579 c -0.60576,0 -0.67566,0.6544795 -0.21816,0.865226 1.94862,0.8895835 3.46832,1.9327264 3.46832,5.4010433 V 61.174449 h 9.64563 V 23.229471 c 0,-2.040748 -0.0784,-3.614462 -0.13874,-5.304672 h 0.13874 c 1.77705,2.3987 4.23293,5.568371 6.21119,7.860107 l 30.44706,35.389543 h 5.07275 c 2.63592,0 4.76775,-2.140295 4.76775,-4.771981 V 2.1516344 Z m 183.78437,0 H 357.8402 c -0.62164,0 -0.6873,0.6544795 -0.22663,0.865226 1.94226,0.8895835 3.4662,1.9327264 3.4662,5.4010433 V 61.174449 h 14.9217 V 6.920438 c 0,-2.6253307 -2.13499,-4.7688036 -4.76773,-4.7688036 M 349.54844,61.174355 340.72674,7.3195976 C 340.27559,4.6222532 337.789,2.1515404 334.70087,2.1515404 h -8.26572 l -14.4695,33.6019036 c -0.67248,1.512292 -1.09926,2.687814 -1.41274,3.569983 h -0.0784 c -0.29548,-0.927708 -0.71591,-2.028038 -1.29944,-3.384653 L 296.4011,5.977809 h -0.008 c -0.92665,-2.1413548 -3.06059,-3.8262686 -5.72618,-3.8262686 h -12.67656 c -0.61741,0 -0.6873,0.6544795 -0.22663,0.865226 1.72834,0.786858 2.96739,2.0407471 2.44529,5.3533871 l -8.66603,52.8042015 h 9.13837 l 5.76216,-37.242842 c 0.27958,-1.903075 0.60683,-4.214933 0.7159,-5.384099 h 0.0699 c 0.5708,1.534532 1.30154,3.373005 2.12864,5.27396 l 15.91191,37.352981 h 4.72221 l 16.10038,-38.007459 c 0.93301,-2.258909 1.55148,-3.84745 1.97828,-5.055802 h 0.0784 c 0.17792,1.451928 0.46703,3.669533 0.8091,5.899847 l 5.96231,37.163414 z M 95.668691,57.296599 c -11.875941,0 -18.656898,-11.61648 -18.656898,-24.880807 0,-15.271186 6.780957,-26.3825089 18.656898,-26.3825089 11.866409,0 18.647369,11.6111849 18.647369,24.8797479 0,15.678911 -6.78096,26.383568 -18.647369,26.383568 M 95.668691,0 C 75.758963,0 61.074479,13.864796 61.074479,31.670236 c 0,17.788495 13.521672,31.661764 34.594212,31.661764 19.901249,0 34.582559,-13.873269 34.582559,-31.661764 C 130.25125,13.864796 116.73276,0 95.668691,0 M 67.809265,60.627778 C 62.713222,59.510504 58.745043,57.087447 54.427384,52.708367 49.675526,47.901438 32.713072,27.843444 32.713072,27.843444 L 59.765945,2.1514224 H 45.132295 L 20.437878,26.308912 c -1.082327,1.050557 -1.715626,1.737866 -2.268438,2.423058 h -0.138733 c 0.03812,-0.808038 0.0699,-1.660556 0.0699,-2.492952 V 6.921285 c 0,-2.6263897 -2.135,-4.7698626 -4.768804,-4.7698626 H 3.7603032 0.5217952 c -0.60788215,0 -0.68625022,0.6544795 -0.22663203,0.865226 C 2.2363617,3.9062321 3.7603032,4.9493748 3.7603032,8.4176917 V 61.174237 H 18.100603 V 33.98263 c 0,-0.691545 -0.03177,-1.23059 -0.0699,-2.017449 h 0.138733 c 0.491389,0.803805 1.349202,1.729394 2.268438,2.847728 0,0 15.069969,17.722836 16.671222,19.390806 6.386997,6.687761 15.332607,9.049393 30.631327,7.575226 0.824983,-0.08472 0.833455,-0.973246 0.06884,-1.151163" /></svg>
