<?xml version="1.0" encoding="UTF-8" standalone="no"?>
<svg
   width="380.00082"
   height="130.416"
   viewBox="0 0 285.00062 97.811999"
   version="1.1"
   id="svg23"
   xmlns="http://www.w3.org/2000/svg"
   xmlns:svg="http://www.w3.org/2000/svg">
  <defs
     id="defs23" />
  <path
     fill="#ffffff"
     stroke="#ffffff"
     stroke-width="0.0188293"
     opacity="1"
     d="m 29.865817,4.5592054 c 0.100423,-0.4418615 0.461946,-0.7431306 0.7833,-1.0443998 0.421777,0.060254 0.863638,0.1205077 1.285415,0.1807615 1.546515,-0.1205077 3.072946,-0.040169 4.619461,-0.100423 0.662792,-0.040169 1.345669,0.040169 2.008461,0.100423 1.606769,-0.060254 3.213538,-0.1405923 4.820306,-0.100423 1.646939,0.060254 3.293877,-0.1205077 4.92073,0.1606768 0,0.723046 -0.06025,1.446092 -0.220931,2.1490534 -0.301269,1.4661766 -0.502115,2.9323532 -0.803384,4.3985297 -1.144823,5.242084 -2.028546,10.544421 -3.072946,15.826674 -0.723046,3.655399 -1.566599,7.310798 -2.249476,10.986282 -0.7833,3.996837 -1.646938,7.953506 -2.30973,11.970428 2.450322,0.200846 4.900645,0.02009 7.350967,0.08034 5.96513,-0.04017 11.930259,0 17.875304,-0.04017 0.401692,0.06025 0.984146,-0.120507 1.164908,0.361523 0.140592,0.863638 -0.160677,1.727277 -0.30127,2.57083 -0.602538,2.611 -0.964061,5.262168 -1.566599,7.873168 -0.381608,1.687107 -0.582454,3.414384 -1.225161,5.001068 -1.365754,-0.02009 -2.751592,0.08034 -4.117346,0.04017 -2.590915,-0.06025 -5.201914,0 -7.812913,-0.04017 -0.08034,0.04017 -0.2611,0.140592 -0.361523,0.180762 -3.09303,-0.241016 -6.206145,-0.04017 -9.299175,-0.120508 -2.57083,-0.02008 -5.141661,0.04017 -7.692406,0 -1.787531,-0.04017 -3.554976,0.08034 -5.342507,-0.02008 -0.5222,0.06025 -1.024315,0.120508 -1.546515,0.200846 -1.345669,-0.281184 -2.711422,-0.120507 -4.077176,-0.140592 -1.486261,-0.02008 -2.972522,0.02008 -4.458784,0 -0.06025,-1.164907 0.100424,-2.30973 0.421777,-3.414384 1.365754,-6.246314 2.3499,-12.552882 3.635315,-18.799196 0.542284,-2.369984 1.00423,-4.760052 1.5666,-7.130037 0.502115,-2.390068 0.923892,-4.780137 1.446092,-7.170206 0.48203,-2.771676 0.984145,-5.523268 1.566599,-8.274859 0.361523,-2.169138 0.843554,-4.318192 1.325585,-6.447161 0.361523,-2.128968 0.763215,-4.2177679 1.144822,-6.326652 0.180762,-0.9640613 0.2611,-1.9482073 0.5222,-2.9122686 z"
     id="path1" />
  <path
     fill="#ffffff"
     stroke="#ffffff"
     stroke-width="0.0188293"
     opacity="1"
     d="m 249.22994,4.3382747 c 0.28118,-0.060254 0.58245,-0.1205077 0.88372,-0.1807615 -0.12051,0.3213537 -0.24101,0.6427075 -0.34144,0.9640613 -0.20084,-0.2610999 -0.36152,-0.5221999 -0.54228,-0.7832998 z"
     id="path2" />
  <path
     fill="#ffffff"
     stroke="#ffffff"
     stroke-width="0.0188293"
     opacity="1"
     d="m 97.410364,14.260073 c 3.816076,-0.06025 7.632156,-0.08034 11.448226,0.02008 0.18076,0.100423 0.34144,0.180762 0.50212,0.281185 0.94397,3.173368 1.3055,6.467244 1.9482,9.680782 0.30127,1.968292 0.70297,3.916499 0.96407,5.884791 0.36152,2.550746 0.94397,5.041238 1.26533,7.591983 0.7833,4.157515 1.40592,8.335114 2.14905,12.512713 0.0602,0.562369 0.30127,1.084569 0.58245,1.566599 5.46302,-0.100423 10.92603,0.02009 16.36896,-0.06025 0.94398,-0.04017 1.90804,0.04017 2.85202,-0.04017 2.43023,-0.281184 4.86047,0.04017 7.29071,-0.160676 0.62262,-0.02009 1.02432,-0.542285 1.46618,-0.903808 0.0402,-0.562369 0.16067,-1.144823 0.0201,-1.687107 -0.24101,-0.5222 -0.74313,-0.843554 -1.18499,-1.205077 -0.66279,-0.241015 -1.44609,-0.321354 -1.86787,-0.984146 -0.56237,-0.241015 -1.12474,-0.482031 -1.70719,-0.702961 -0.34144,-0.241016 -0.68288,-0.482031 -1.00423,-0.743131 -0.62262,-0.2611 -1.34567,-0.341438 -1.8277,-0.843554 -0.76322,-0.461946 -1.58669,-0.823469 -2.36999,-1.245245 l -0.0402,-0.120508 c -1.24525,-0.421777 -2.30974,-1.245246 -3.49473,-1.767446 -0.5222,-0.140592 -0.92389,-0.562369 -1.426,-0.763215 -1.7072,-0.803385 -3.29388,-1.867869 -4.76006,-3.072946 -1.50634,-1.747361 -2.59091,-3.996837 -2.611,-6.346737 -0.14059,-1.887953 0.0402,-3.795991 0.54229,-5.623691 0.36152,-1.606769 1.14482,-3.052861 1.94821,-4.478868 0.70296,-0.723046 1.24524,-1.5666 1.90803,-2.329815 0.56237,-0.441861 1.10466,-0.903807 1.64694,-1.365753 1.12474,-0.803385 2.39007,-1.405923 3.6554,-1.988377 1.24525,-0.421777 2.55075,-0.702961 3.85625,-0.943977 1.60676,-0.301269 3.2537,0.120508 4.88056,-0.04017 1.28541,0.04017 2.57083,0.06025 3.85624,-0.02008 0.7833,0.100423 1.5666,0.140592 2.3499,0.100423 3.19345,-0.160677 6.40699,0.04017 9.62053,-0.08034 1.40592,-0.120507 2.83193,-0.180761 4.25794,-0.120507 1.3055,0.08034 2.611,-0.04017 3.9165,0.100423 0.0602,0.702961 0.0803,1.446092 -0.0803,2.149053 -0.70296,3.434468 -1.24525,6.909106 -2.12897,10.303405 -0.72305,0.2611 -1.58669,0.100423 -2.3499,0.200846 -1.74736,-0.08034 -3.47464,0 -5.222,-0.04017 -0.96406,-0.04017 -1.94821,0.06025 -2.91227,0.06025 -0.76321,-0.100423 -1.54651,0.06025 -2.30973,-0.08034 -0.66279,0.100423 -1.32558,0.06025 -1.98837,0.08034 -0.38161,-0.04017 -0.7833,-0.120508 -1.14483,0 -3.01269,-0.180761 -6.04547,-0.02009 -9.05816,0.281185 -0.34144,0.74313 -0.86364,1.606769 -0.44186,2.430238 0.34144,0.421776 0.70296,1.00423 1.32559,1.044399 1.06448,0.542285 2.14905,1.084569 3.2537,1.5666 1.48626,0.823469 3.11312,1.385838 4.57929,2.249476 1.24525,0.723046 2.65117,1.0444 3.89642,1.747362 1.18499,0.441861 2.28964,1.064484 3.41438,1.606768 0.88373,0.421777 1.70719,0.964062 2.51058,1.526431 l 0.0402,0.120508 c 0.28118,0.200846 0.64271,0.301269 0.82347,0.602538 0.86364,1.024315 1.78753,2.008461 2.41015,3.213538 1.10465,1.928122 1.58668,4.177599 1.52643,6.386906 -0.0402,1.606769 -0.0803,3.273792 -0.68288,4.800222 -0.6427,2.0888 -2.12896,3.755822 -3.35413,5.503183 -0.6427,0.542285 -1.22516,1.184992 -1.90803,1.707192 -0.68288,0.542285 -1.46618,0.964062 -2.2294,1.426008 l 0.0201,0.100423 c -1.18499,0.361523 -2.3499,0.763215 -3.51481,1.205076 -2.49049,0.30127 -5.00107,0.321354 -7.49156,0.281185 -0.94397,0.100423 -1.86787,0.100423 -2.81184,0.100423 -7.71249,0.02008 -15.4049,0 -23.11739,0.02008 -3.07295,0.04017 -6.16598,0.100423 -9.25901,0.04017 -0.58245,0.04017 -1.1649,0.100423 -1.76744,0.08034 -0.46195,0.02008 -0.84356,-0.301269 -1.22516,-0.542284 -0.1406,-1.225161 -0.4017,-2.450323 -0.56237,-3.695569 -0.12051,-0.923892 -0.34144,-1.847784 -0.62263,-2.731507 -4.960894,0.04017 -9.921793,0 -14.862608,0.02008 -0.943976,0 -1.887953,0.06025 -2.83193,0.140592 -0.04017,0.04017 -0.140592,0.140592 -0.180761,0.180762 -1.506346,2.088799 -2.671253,4.39853 -4.117345,6.547583 -1.385839,0.120508 -2.751592,-0.04017 -4.13743,0.04017 -1.124739,0.08034 -2.249477,-0.04017 -3.374215,0 -2.329815,0.08034 -4.65963,0.06025 -6.989445,0.100423 -0.08034,-0.723046 0.120508,-1.405923 0.381608,-2.04863 0.421777,-0.02009 0.361523,-0.542285 0.582454,-0.803385 0.723046,-1.104653 1.225161,-2.329814 2.04863,-3.35413 0.642708,-1.184992 1.325584,-2.349899 1.928123,-3.57506 l 0.100423,-0.02009 c 0.06025,-0.220931 0.140592,-0.421777 0.22093,-0.642708 0.622623,-0.461946 0.803385,-1.325584 1.225162,-1.948207 0.984146,-1.405923 1.747361,-2.912268 2.651168,-4.35836 0.281185,-0.863639 0.823469,-1.586685 1.3055,-2.329815 0.301269,-0.843554 0.823469,-1.5666 1.265331,-2.329815 1.385838,-2.490492 2.751591,-4.980984 4.257937,-7.411222 1.345669,-2.289645 2.590915,-4.639545 3.87633,-6.96936 0.441861,-0.421776 0.662792,-0.964061 0.923892,-1.506345 0.662792,-1.144823 1.285415,-2.309731 1.928123,-3.454554 1.78753,-3.293876 3.775907,-6.44716 5.543352,-9.720951 0.220931,-0.140593 0.421777,-0.281185 0.642708,-0.401692 0.984146,0.08034 1.988376,0.06025 2.992607,0 m -0.120508,21.149095 c -0.200846,0.5222 -0.361523,1.064484 -0.702961,1.52643 -1.626854,2.611 -3.09303,5.342507 -4.65963,7.993675 -0.341438,0.5222 -0.562369,1.124739 -0.702961,1.727277 2.30973,0.06025 4.639545,-0.06025 6.96936,0.06025 0.361523,-0.100423 0.723046,-0.02009 1.084569,0 0.220931,-0.160677 0.441861,-0.341439 0.642707,-0.502115 -0.22093,-2.068715 -0.562369,-4.13743 -0.964061,-6.186061 -0.301269,-1.626853 -0.502115,-3.273791 -0.943977,-4.88056 -0.241015,0.08034 -0.48203,0.160677 -0.723046,0.2611 z"
     id="path3" />
  <path
     fill="#ffffff"
     stroke="#ffffff"
     stroke-width="0.0188293"
     opacity="1"
     d="m 173.08918,14.099396 c 0.66279,0.06025 1.3055,0.08034 1.96829,0.06025 9.47994,0 18.93979,-0.04017 28.39964,-0.02008 2.00846,0.06025 4.01692,-0.200846 6.02538,-0.02008 1.48626,-0.04017 2.99261,0.06025 4.47887,-0.02008 0.10042,0.783299 0.12051,1.606768 -0.0402,2.390068 -0.40169,1.948208 -0.76321,3.916499 -1.16491,5.864707 -0.36152,1.767446 -0.54228,3.57506 -1.12473,5.282252 -1.72728,0.04017 -3.43447,-0.06025 -5.16175,0 -3.21354,0.02008 -6.42707,0 -9.64061,0.02008 -3.93659,-0.06025 -7.89325,0.08034 -11.82984,0.120508 -0.14059,0.120507 -0.2611,0.241015 -0.40169,0.381607 -0.38161,1.466177 -0.66279,2.972523 -0.7833,4.498953 1.60677,0.120508 3.23362,-0.100423 4.84039,0.180762 1.66702,-0.241016 3.35413,-0.120508 5.02115,0 0.98415,-0.04017 1.9683,-0.160677 2.95244,-0.140593 2.04863,0.04017 4.11735,-0.08034 6.16598,0.140593 0.88372,-0.08034 1.74736,-0.04017 2.63108,0.140592 -0.0402,2.04863 -0.54228,4.037007 -0.92389,6.025383 -0.42178,1.867869 -0.66279,3.775907 -1.20508,5.623691 -1.0444,0.02009 -2.10888,0 -3.15328,0.08034 -1.42601,-0.160677 -2.85202,0.06025 -4.27802,-0.04017 -0.48203,0 -1.00423,0.200846 -1.46618,-0.06025 -0.40169,0.06025 -0.80338,0.180761 -1.22516,0.120507 -1.18499,-0.100423 -2.36998,0.06025 -3.53489,-0.120507 -0.10043,0.08034 -0.32136,0.22093 -0.42178,0.301269 -0.14059,-0.08034 -0.40169,-0.241015 -0.54228,-0.321354 -0.46195,0.220931 -0.98415,0.281185 -1.50635,0.2611 -0.10042,-0.06025 -0.30127,-0.200846 -0.40169,-0.2611 -0.50212,0.2611 -1.0444,0.160677 -1.58669,0.180762 -1.28541,-0.06025 -2.59091,0.02008 -3.87633,0.160676 -0.14059,0.5222 -0.28118,1.064485 -0.3816,1.606769 -0.2611,1.405923 -0.60254,2.791761 -0.62263,4.237853 4.4387,0.06025 8.8774,-0.06025 13.3161,0.02008 1.46618,0.120508 2.91227,0.100423 4.37845,0.140592 0.94397,-0.08034 1.90803,-0.180761 2.85201,-0.120507 1.86787,0.200846 3.75582,-0.220931 5.58352,0.261099 0,1.426008 -0.40169,2.811846 -0.70296,4.197684 -0.30127,1.325584 -0.5222,2.691338 -0.80338,4.016922 -0.34144,1.606769 -0.56237,3.253707 -1.02432,4.820307 -4.25794,0.08034 -8.51587,-0.06025 -12.77381,0.06025 -1.84779,-0.06025 -3.69557,-0.04017 -5.56344,-0.02009 -4.67971,0.100423 -9.35943,0 -14.03914,0.06025 -2.06872,0.02009 -4.15752,-0.06025 -6.22623,0.08034 -0.76322,0.04017 -1.54652,-0.02009 -2.30973,-0.100424 -0.0402,-0.241015 -0.10042,-0.502115 -0.14059,-0.74313 0.30127,-1.928123 0.7833,-3.816076 1.1649,-5.724114 0.50212,-1.887954 0.7833,-3.836161 1.22517,-5.744199 0.40169,-1.747361 0.66279,-3.494722 1.02431,-5.242084 1.0444,-5.463014 2.30973,-10.865774 3.33405,-16.348873 0.28118,-1.78753 0.72304,-3.575061 1.0444,-5.362591 0.44186,-2.490492 0.92389,-4.960899 1.426,-7.451391 0.24102,-1.164907 0.36153,-2.430238 1.02432,-3.474637 z"
     id="path4" />
  <path
     fill="#ffffff"
     stroke="#ffffff"
     stroke-width="0.0188293"
     opacity="1"
     d="m 219.32395,14.11948 c 3.01269,-0.02008 6.02539,0.02008 9.01799,-0.02008 6.84886,0.04017 13.67762,-0.02008 20.50639,0.02008 3.01269,-0.06025 5.76428,1.3055 8.37528,2.651169 0.10043,0.140592 0.20085,0.301269 0.30127,0.441861 0.70296,0.582454 1.40593,1.164908 2.00846,1.8277 0.80339,0.823469 1.40593,1.8277 2.12897,2.691338 0.72305,1.26533 1.18499,2.631084 1.74736,3.976753 0,0.22093 0,0.441861 -0.0201,0.682877 0.62262,2.088799 0.76321,4.338276 0.24101,6.467244 -0.1205,0.180762 0.0803,0.381608 -0.0402,0.562369 -0.34144,1.365754 -0.82347,2.711423 -1.4461,3.976753 -0.60253,1.205077 -1.50634,2.249477 -2.28964,3.334046 -0.58246,0.361523 -0.90381,0.964061 -1.40592,1.385838 -0.94398,0.803384 -1.90804,1.546515 -3.0127,2.068715 -0.48203,0 -0.84355,0.321354 -1.22516,0.562369 -0.0402,-0.02008 -0.14059,-0.06025 -0.20084,-0.08034 -0.24102,0.140592 -0.48203,0.261099 -0.74313,0.401692 -0.0201,0.241015 -0.0603,0.48203 -0.0803,0.723046 -0.0603,-0.180762 -0.10043,-0.341439 -0.1406,-0.5222 -0.30126,-0.02009 -0.58245,-0.04017 -0.86363,-0.06025 -0.16068,0.421777 -0.30127,0.903808 -0.0603,1.325584 0.92389,2.048631 1.78753,4.097261 2.69134,6.145891 0.90381,1.867869 1.76745,3.715653 2.65117,5.583522 0.5222,1.064485 0.88372,2.209307 1.34567,3.293876 0.34144,0.763216 0.64271,1.546515 0.92389,2.329815 -0.46195,0.120508 -0.92389,0.220931 -1.40592,0.321354 -2.0888,-0.200846 -4.1776,-0.120508 -6.2664,-0.06025 -2.36999,-0.04017 -4.76005,-0.04017 -7.13004,0.02009 -0.32135,-0.301269 -0.56237,-0.622623 -0.56237,-1.064485 -0.66279,-1.546515 -1.20507,-3.133199 -1.6871,-4.739968 -0.0603,-0.08034 -0.1406,-0.2611 -0.20085,-0.341438 -0.48203,-1.546515 -1.18499,-3.012692 -1.76745,-4.539122 -0.58245,-1.466177 -1.20507,-2.952438 -1.74736,-4.438699 -0.22093,-0.743131 -0.56237,-1.426008 -0.86364,-2.128969 -0.42177,-1.225161 -0.92389,-2.450323 -1.38583,-3.675484 -0.76322,-1.948207 -1.74737,-3.836161 -2.24948,-5.864706 0.10042,-0.100423 0.30127,-0.281185 0.40169,-0.361523 2.85202,0.02008 5.72412,-0.06025 8.59622,-0.04017 0.10042,-0.04017 0.32135,-0.120508 0.42177,-0.160677 0.38161,0.140592 0.74313,-0.180762 1.12474,-0.2611 0.70296,-0.321354 1.32558,-0.823469 1.92812,-1.3055 0.48203,-0.743131 1.08457,-1.446092 1.24525,-2.349899 0.24101,-1.506346 -0.0201,-3.1332 -0.94398,-4.39853 -0.42177,-0.803385 -1.38584,-1.024315 -2.12897,-1.466177 -0.88372,-0.180761 -1.78753,-0.2611 -2.69133,-0.220931 -2.99261,0.06025 -5.98522,-0.160677 -8.97783,0.140593 -0.58245,2.731507 -1.00423,5.503183 -1.58668,8.254775 -0.54228,3.133199 -1.26533,6.246314 -1.86787,9.379513 -0.30127,1.626854 -0.72304,3.213538 -1.00423,4.840391 -0.70296,4.057092 -1.72728,8.074014 -2.53066,12.131105 -0.14059,0.943977 -0.30127,1.928123 -0.84355,2.751592 -1.68711,-0.02008 -3.35413,0.02008 -5.04124,0.04017 -3.23362,-0.100423 -6.46725,0.08034 -9.68078,-0.02008 -0.44187,0.180761 -0.90381,-0.02008 -1.34567,0 -0.16068,-0.723046 -0.12051,-1.466177 0.0602,-2.169138 0.48203,-2.209307 0.80339,-4.438699 1.34567,-6.648007 0.84355,-3.775906 1.52643,-7.571898 2.32981,-11.347805 1.62686,-9.399598 3.81608,-18.678688 5.46302,-28.078286 0.12051,-0.662792 0.34144,-1.325584 0.58245,-1.968292 z"
     id="path5" />
  <path
     fill="#ffffff"
     stroke="#ffffff"
     stroke-width="0.0188293"
     opacity="1"
     d="m 264.63484,15.143795 c 0.0602,0.04017 0.20084,0.120508 0.2611,0.140593 0.24101,-0.06025 0.46194,-0.120508 0.70296,-0.180762 0.28118,0.140592 0.56237,0.2611 0.84355,0.381608 -0.48203,0.301269 -0.94398,0.582453 -1.42601,0.863638 -0.0402,0.863638 -0.18076,1.707192 -0.0201,2.57083 -0.18076,0.401692 -0.40169,0.823469 -0.88372,0.883723 -0.4017,-1.184992 -0.10043,-2.490492 -0.34144,-3.715653 -0.38161,-0.100423 -0.7833,-0.200846 -1.16491,-0.281184 0.0602,-0.120508 0.16068,-0.361523 0.22093,-0.482031 0.60254,-0.100423 1.20508,-0.140592 1.80762,-0.180762 z"
     id="path6" />
  <path
     fill="#ffffff"
     stroke="#ffffff"
     stroke-width="0.0188293"
     opacity="1"
     d="m 267.36634,19.241056 c 0.28119,-1.385838 -0.0602,-2.872099 0.58246,-4.177599 0.42177,0.08034 0.86363,0.160677 1.3055,0.2611 0.28118,0.682877 0.56236,1.345669 0.7833,2.04863 0.20084,0.180762 0.42177,0.361523 0.6427,0.542285 0.18076,-0.5222 0.36153,-1.0444 0.54229,-1.5666 0.24101,-0.401692 0.50211,-0.7833 0.74313,-1.164907 0.38161,0.100423 0.80338,0.120507 1.14482,0.341438 0.16068,0.200846 0.12051,0.502115 0.16068,0.743131 0.0602,1.225161 0.10042,2.430238 -0.0803,3.635314 -0.28119,0 -0.56237,-0.02008 -0.84355,-0.02008 -0.0402,-0.923893 -0.18077,-1.867869 -0.0603,-2.791761 -0.80338,0.301269 -0.86364,1.245246 -1.22516,1.928122 -0.16068,0.401693 -0.54228,0.662792 -0.86364,0.943977 -0.20084,-0.301269 -0.40169,-0.602538 -0.60254,-0.903807 -0.20084,-0.682877 -0.42177,-1.345669 -0.66279,-1.988377 -0.14059,0.02008 -0.40169,0.08034 -0.5222,0.100423 0.0803,0.883723 0.0402,1.78753 -0.30127,2.611 -0.2611,-0.180762 -0.50211,-0.361523 -0.74313,-0.542285 z"
     id="path7" />
  <path
     fill="#ffffff"
     stroke="#ffffff"
     stroke-width="0.0188293"
     opacity="1"
     d="m 250.33459,67.524461 c 2.06872,-0.482031 4.31819,0.02008 6.06555,1.245246 0.74314,0.542284 1.26534,1.345669 1.68711,2.149053 0.36153,0.702962 0.32136,1.526431 0.54229,2.289646 0.14059,0.281184 0.3816,0.542284 0.58245,0.803384 0.12051,-0.2611 0.24102,-0.542284 0.36152,-0.803384 -0.0402,0.341438 -0.10042,0.682877 -0.1205,1.0444 -0.30127,-0.200847 -0.60254,-0.381608 -0.90381,-0.56237 -0.0803,0.803385 -0.14059,1.606769 -0.28119,2.390069 -0.58245,3.072946 -1.44609,6.065553 -2.16913,9.078244 -0.62263,2.390069 -1.90804,4.679715 -3.95667,6.105722 -1.44609,0.923892 -3.17337,1.506346 -4.90065,1.405923 -1.68711,-0.120508 -3.43447,-0.622623 -4.67971,-1.8277 -0.94398,-0.923892 -1.62686,-2.149053 -1.74736,-3.474637 -0.10043,-1.184993 0.0402,-2.369985 0.28118,-3.534892 0.48203,-2.289646 1.02432,-4.579291 1.5666,-6.868937 0.38161,-1.646938 0.60254,-3.35413 1.34567,-4.88056 0.42178,-0.923893 1.10465,-1.687108 1.80761,-2.410154 1.3055,-1.0444 2.85202,-1.807615 4.51904,-2.149053 m -0.7833,3.072945 c -1.16491,0.502116 -2.04863,1.466177 -2.71142,2.530661 -0.70296,1.184992 -0.92389,2.590915 -1.3055,3.916499 -0.62262,2.189223 -1.00423,4.458784 -1.54651,6.688176 -0.2611,1.104654 -0.56237,2.269561 -0.34144,3.414384 0.16067,0.943977 0.88372,1.687107 1.70719,2.108884 1.68711,0.903807 3.83616,0.662792 5.36259,-0.401692 0.64271,-0.642708 1.3055,-1.285415 1.76745,-2.068715 0.6427,-1.064485 0.82346,-2.329815 1.10465,-3.514807 0.50211,-2.329815 1.12474,-4.619461 1.72728,-6.929191 0.0602,-0.04017 0.18076,-0.140592 0.22093,-0.200846 0.0402,-0.883723 0.18076,-1.747361 0.18076,-2.631084 0,-1.184992 -0.64271,-2.390069 -1.72728,-2.912269 -1.38584,-0.662792 -3.05286,-0.642707 -4.4387,0 z"
     id="path8" />
  <path
     fill="#ffffff"
     stroke="#ffffff"
     stroke-width="0.0188293"
     opacity="1"
     d="m 206.48989,70.316222 c 1.28541,-1.225161 2.97252,-2.048631 4.71988,-2.329815 0.96406,-0.140592 1.94821,-0.160677 2.93235,-0.180762 1.48626,0.321354 2.97253,0.883723 4.05709,2.008462 1.3055,1.405922 1.78753,3.434468 1.5666,5.302337 -0.1205,1.104653 -0.66279,2.108884 -1.1649,3.09303 -0.64271,0.984146 -1.80762,1.546515 -2.41016,2.57083 0.1406,0.622623 0.50212,1.164908 0.74313,1.727277 0.5222,1.064484 0.54229,2.289645 0.36153,3.434468 -0.30127,1.526431 -1.18499,2.8721 -2.12897,4.097261 -1.20508,1.586684 -3.01269,2.631084 -4.92073,3.133199 -1.16491,0.301269 -2.39007,0.220931 -3.57506,0.100423 -1.22516,-0.321354 -2.3499,-0.843553 -3.43447,-1.466176 -0.68288,-0.682877 -1.48626,-1.325585 -1.70719,-2.309731 -0.16068,-0.562369 0.24101,-1.044399 0.50211,-1.52643 0.30127,-0.06025 0.60254,-0.140592 0.90381,-0.241015 1.16491,0.723046 2.24948,1.606768 3.57506,2.008461 1.16491,0.361523 2.39007,0.160677 3.57506,0.08034 1.22516,-0.401692 2.43024,-1.00423 3.27379,-1.988376 0.86364,-1.0444 1.42601,-2.450323 1.06449,-3.795992 -0.22093,-0.74313 -0.72305,-1.486261 -1.48626,-1.707192 -0.7833,-0.220931 -1.58669,-0.321354 -2.39007,-0.441861 -0.28119,-0.401692 -0.68288,-0.823469 -0.68288,-1.345669 -0.0402,-0.502115 0.28119,-0.903808 0.50212,-1.325585 2.14905,-0.361523 4.4387,-1.00423 5.8647,-2.751591 0.84356,-0.943977 0.96406,-2.30973 0.58246,-3.474638 -0.42178,-1.144823 -1.52643,-1.948207 -2.71143,-2.108884 -1.80761,-0.2611 -3.57506,0.441861 -5.06132,1.385838 -0.76321,0.482031 -1.46617,1.124738 -2.39007,1.285415 -0.62262,0.08034 -1.1649,-0.48203 -1.18499,-1.064484 -0.0803,-0.843554 0.46195,-1.586684 1.02432,-2.169138 z"
     id="path9" />
  <path
     fill="#ffffff"
     stroke="#ffffff"
     stroke-width="0.0188293"
     opacity="1"
     d="m 233.94555,68.649199 c 0.60254,-0.301269 1.24525,-0.100423 1.84778,0.04017 0.20085,0.863639 0.30127,1.787531 0.0402,2.651169 -0.56237,1.847784 -1.06448,3.715653 -1.66702,5.543353 -0.74313,2.490491 -1.40592,5.001068 -2.18922,7.49156 -0.5222,1.727276 -1.14483,3.454553 -1.58669,5.221998 -0.24101,0.903808 -0.46194,1.847785 -0.94397,2.671254 -0.34144,0.602538 -0.94398,1.144822 -1.68711,1.184992 -0.5222,0.04017 -0.90381,-0.441862 -1.00423,-0.903808 -0.22093,-0.964061 0.0602,-1.928122 0.32135,-2.83193 0.48203,-1.546515 0.98415,-3.072945 1.42601,-4.619461 0.72305,-2.269561 1.22516,-4.599375 1.96829,-6.848852 0.38161,-1.084569 0.68288,-2.189222 0.94398,-3.293876 -0.12051,-0.100423 -0.36152,-0.2611 -0.48203,-0.341438 -0.66279,0.341438 -1.26533,0.783299 -1.94821,1.104653 -0.62262,0.281185 -1.48626,0.2611 -1.90804,-0.341438 -0.42177,-0.502116 -0.16067,-1.184992 -0.0602,-1.767446 1.52643,-1.466177 3.29388,-2.671253 5.04124,-3.836161 0.50211,-0.562369 1.22516,-0.823469 1.88795,-1.124738 z"
     id="path10" />
  <path
     fill="#ffffff"
     stroke="#ffffff"
     stroke-width="0.0188293"
     opacity="1"
     d="m 180.25938,72.023414 c 2.59092,0 5.16175,0.04017 7.75266,-0.100423 0.76322,0 1.50635,0.160677 2.24948,0.301269 0.64271,0.682877 1.12474,1.546515 1.10465,2.510576 0.1406,1.084569 -0.30126,2.108884 -0.88372,3.012692 0.28119,0.441861 0.64271,0.863638 0.70296,1.385838 0.0803,0.723046 0,1.446092 -0.0402,2.169138 -0.76321,0.02008 -1.52643,0.04017 -2.28964,0 -0.16068,-0.863638 -0.28119,-1.807615 -1.0444,-2.329815 -1.46618,0.06025 -2.91227,0 -4.35836,0.04017 -0.22093,0.08034 -0.42178,0.140593 -0.64271,0.200846 -0.14059,0.743131 -0.2611,1.466177 -0.40169,2.189223 -0.72305,0 -1.44609,0 -2.14906,0.02008 -0.18076,-0.622623 -0.30126,-1.245246 -0.28118,-1.887954 0,-1.867869 -0.0402,-3.755822 -0.0402,-5.643775 0,-0.622623 0.14059,-1.265331 0.32135,-1.867869 m 2.77168,2.369984 c -0.0803,0.08034 -0.24101,0.241015 -0.34144,0.321354 0.0402,0.582453 0.0603,1.144822 0.12051,1.727276 1.8277,0.301269 3.69557,-0.02008 5.54335,0 0.12051,-0.341438 0.36153,-0.682877 0.34144,-1.064484 -0.10042,-0.461946 -0.38161,-1.024315 -0.92389,-1.004231 -1.58669,-0.06025 -3.15329,0.02009 -4.73997,0.02009 z"
     id="path11" />
  <path
     fill="#ffffff"
     stroke="#ffffff"
     stroke-width="0.0188293"
     opacity="1"
     d="m 168.02786,72.204175 c 1.76744,-0.180761 3.53489,-0.120507 5.30233,-0.120507 1.38584,0 2.79176,-0.08034 4.1776,0.04017 0.32136,0.662792 0.2611,1.385838 0.14059,2.088799 -1.38583,-0.04017 -2.79176,-0.08034 -4.19768,0.04017 -0.92389,0.100423 -1.84778,0.120507 -2.79176,0.140592 0.0201,0.421777 0.0402,0.823469 0.0602,1.245246 1.74737,0.06025 3.49473,0 5.24209,0.06025 0.42177,0.04017 0.94397,0.02008 1.26533,0.361523 0.28118,0.421776 0.12051,0.943976 0.10042,1.426007 -1.14482,0.2611 -2.28964,0.08034 -3.43447,0.180761 -1.08457,0.08034 -2.14905,0.02009 -3.23362,0.08034 -0.0201,0.502115 0,1.00423 0.12051,1.486261 2.36998,0.08034 4.76005,-0.08034 7.13003,0.140592 0.0201,0.682877 0,1.365754 -0.0803,2.048631 -3.21354,0 -6.42708,-0.04017 -9.64062,0.02008 -0.24101,-0.74313 -0.32135,-1.52643 -0.30127,-2.30973 0.0402,-2.30973 -0.22093,-4.61946 0.1406,-6.929191 z"
     id="path12" />
  <path
     fill="#ffffff"
     stroke="#ffffff"
     stroke-width="0.0188293"
     opacity="1"
     d="m 151.89991,72.384937 c 0.76322,-0.04017 1.50635,-0.08034 2.26956,-0.140593 0.32136,1.124739 0.30127,2.309731 0.28119,3.474638 -0.0201,1.405923 0.16068,2.8721 -0.38161,4.217768 -0.2611,0.702962 -0.7833,1.325585 -1.50634,1.5666 -1.20508,0.401692 -2.4905,0.301269 -3.73574,0.301269 -1.66702,0.02008 -3.43447,0.06025 -4.9609,-0.723046 -0.64271,-0.321353 -0.98415,-1.024315 -1.08457,-1.727276 -0.20085,-1.325585 -0.14059,-2.691338 -0.18076,-4.037007 -0.0402,-0.964061 0,-1.948207 0.30127,-2.892184 0.74313,0.02008 1.46617,0.02008 2.20931,0 0.62262,2.169138 -0.10043,4.458784 0.58245,6.607837 1.54651,0.482031 3.19345,0.602538 4.78014,0.301269 0.46194,-0.08034 0.82347,-0.421777 1.20507,-0.723046 0.0402,-2.068715 -0.0803,-4.157514 0.22093,-6.226229 z"
     id="path13" />
  <path
     fill="#ffffff"
     stroke="#ffffff"
     stroke-width="0.0188293"
     opacity="1"
     d="m 155.79633,72.445191 c 3.45455,0.06025 6.92919,-0.281185 10.40383,0 0.10042,0.723046 0.1205,1.466176 0.0602,2.209307 -1.24525,-0.04017 -2.51058,0.08034 -3.75582,0.140592 -0.18076,2.04863 0.0803,4.097261 -0.10042,6.125806 -0.0402,0.281185 -0.0803,0.662793 -0.42178,0.743131 -0.70296,0.220931 -1.46618,0.02008 -2.16914,-0.06025 -0.32135,-2.229392 0.0602,-4.498953 -0.32135,-6.728345 -0.88373,-0.08034 -1.74736,-0.100423 -2.63109,-0.120507 -0.36152,-0.02008 -0.74313,-0.04017 -1.0444,-0.220931 -0.50211,-0.602538 -0.16067,-1.426007 -0.0201,-2.088799 z"
     id="path14" />
  <path
     fill="#ffffff"
     stroke="#ffffff"
     stroke-width="0.0188293"
     opacity="1"
     d="m 103.2349,72.605867 c 1.80762,-0.140592 3.61523,-0.100423 5.42285,0.02008 0.58245,0.301269 1.24524,0.502115 1.72727,0.964061 0.58246,0.622623 0.68288,1.526431 0.74313,2.329815 0.0603,1.124738 0.0803,2.269561 -0.0603,3.414384 -0.10042,0.7833 -0.54228,1.446092 -0.90381,2.128969 -1.68711,0.702961 -3.53489,0.602538 -5.32242,0.622623 -1.54651,-0.02008 -3.11311,0.100423 -4.63955,-0.281185 -0.321349,-0.22093 -0.582449,-0.5222 -0.843549,-0.803384 -0.602538,-0.662792 -0.723046,-1.586684 -0.74313,-2.450323 -0.02009,-1.626853 -0.200846,-3.334045 0.582453,-4.840391 0.361523,-0.2611 0.723046,-0.5222 1.064486,-0.803384 0.98414,-0.220931 1.96829,-0.2611 2.97252,-0.30127 m -1.66702,3.233623 c -0.22093,0.74313 -0.18076,1.546515 -0.14059,2.30973 0.0602,0.441862 0.0803,1.004231 0.50211,1.3055 0.54229,0.301269 1.20508,0.321354 1.8277,0.401692 1.14482,-0.160677 2.30973,-0.120508 3.47464,-0.200846 0.46194,0 0.82347,-0.361523 0.94398,-0.803385 0.32135,-1.164907 0.18076,-2.390068 -0.10043,-3.534891 -0.16067,-0.120508 -0.32135,-0.241015 -0.48203,-0.361523 -1.58668,-0.100423 -3.17337,-0.200846 -4.73997,0 -0.54228,0.06025 -1.12473,0.321354 -1.28541,0.883723 z"
     id="path15" />
  <path
     fill="#ffffff"
     stroke="#ffffff"
     stroke-width="0.0188293"
     opacity="1"
     d="m 113.03619,72.666121 c 1.28542,-0.180761 2.611,-0.241015 3.9165,-0.04017 1.24525,1.687107 2.06872,3.635315 3.17337,5.422845 0.22093,-0.04017 0.44186,-0.06025 0.66279,-0.08034 1.34567,-1.606769 1.88795,-3.755823 3.31396,-5.302338 1.28542,-0.22093 2.611,-0.281184 3.9165,-0.02008 0.44186,1.727276 0.2611,3.514807 0.28119,5.282252 -0.0402,1.3055 0.1205,2.631084 -0.28119,3.896415 -0.68288,-0.02008 -1.52643,0.241015 -2.0888,-0.2611 -0.56237,-1.928123 0.16068,-3.996838 -0.42178,-5.945045 -0.3816,0.2611 -0.68287,0.602538 -0.88372,1.004231 -0.76321,1.426007 -1.58668,2.811845 -2.43024,4.197683 -0.28118,0.401693 -0.56237,0.903808 -1.10465,0.964062 -0.66279,0.08034 -1.54651,0.180761 -1.94821,-0.482031 -0.58245,-0.863638 -1.00423,-1.78753 -1.5666,-2.651169 -0.66279,-1.044399 -1.0444,-2.30973 -2.06871,-3.072945 -0.44186,2.088799 0.10042,4.237853 -0.38161,6.326652 -0.74313,-0.02008 -1.50634,-0.04017 -2.24948,-0.02008 -0.32135,-2.108884 -0.16067,-4.237853 -0.20084,-6.366822 -0.0201,-0.964061 0.0803,-1.928123 0.36152,-2.852015 z"
     id="path16" />
  <path
     fill="#ffffff"
     stroke="#ffffff"
     stroke-width="0.0188293"
     opacity="1"
     d="m 130.28887,72.866967 c 0.20085,-0.140592 0.42178,-0.281184 0.64271,-0.421776 1.68711,0.02008 3.37421,-0.02008 5.04124,0.06025 1.20507,0.06025 2.43024,-0.06025 3.61523,0.180762 0.68287,0.140592 1.26533,0.642707 1.52643,1.3055 0.28118,0.74313 0.2611,1.546515 0.24101,2.329814 -0.0402,0.883723 -0.18076,1.867869 -0.82347,2.550746 -0.58245,0.5222 -1.40592,0.602538 -2.14905,0.682877 -1.74736,0.120508 -3.47464,0 -5.222,0.02008 -0.14059,0.743131 -0.28118,1.506346 -0.48203,2.229392 -0.62262,0 -1.22516,0.02008 -1.84778,0.06025 -0.34144,-0.361523 -0.62263,-0.803384 -0.56237,-1.3055 0,-2.57083 -0.14059,-5.14166 0.0201,-7.692406 m 2.83193,2.108885 c -0.0803,0.702961 -0.0803,1.405922 0.0201,2.088799 1.22516,0 2.43023,0.04017 3.6554,0.04017 0.50211,-0.02008 1.06448,0.02008 1.46617,-0.321353 0.36153,-0.56237 0.10043,-1.225162 -0.0402,-1.807615 -1.70719,-0.120508 -3.41438,-0.381608 -5.10149,0 z"
     id="path17" />
  <path
     fill="#ffffff"
     stroke="#ffffff"
     stroke-width="0.0188293"
     opacity="1"
     d="m 32.938763,72.826798 c 2.068715,0.02009 4.13743,-0.04017 6.226229,0.02009 0.602538,0.180761 1.144823,0.502115 1.727277,0.7833 0.923892,1.546515 0.702961,3.394299 0.682876,5.121575 0,0.964062 -0.22093,1.968292 -0.863638,2.711423 -0.441861,0.542284 -1.225161,0.301269 -1.747361,0.702961 -1.807615,0.120508 -3.61523,0.100423 -5.422845,0.120508 -0.582454,0 -1.144823,0.02009 -1.707192,-0.08034 -0.662792,-0.100424 -1.205077,-0.502116 -1.747361,-0.82347 -0.964061,-1.807615 -0.7833,-3.956668 -0.642708,-5.92496 0.02008,-0.923892 0.582454,-1.646938 1.184992,-2.269561 0.763216,-0.200846 1.526431,-0.361523 2.309731,-0.361523 m -0.381608,2.530661 c -0.723046,1.325584 -0.622623,2.932353 -0.160677,4.338276 1.867869,0.441862 3.856246,0.482031 5.724114,0 0.421777,-0.08034 0.682877,-0.441861 0.763216,-0.843554 0.2611,-1.245245 0.301269,-2.651168 -0.502116,-3.715653 -1.948207,-0.160676 -3.916499,-0.160676 -5.824537,0.220931 z"
     id="path18" />
  <path
     fill="#ffffff"
     stroke="#ffffff"
     stroke-width="0.0188293"
     opacity="1"
     d="m 54.690396,73.369083 c 1.124739,-0.682877 2.490492,-0.723046 3.755823,-0.723046 1.626853,0 3.253707,-0.08034 4.88056,0.160677 0.702962,0.120507 1.466177,0.321353 1.887954,0.964061 0.542284,0.803384 0.662792,1.807615 0.702961,2.751592 0.04017,1.586684 -0.08034,3.233622 -0.723046,4.719883 -0.723046,0.421777 -1.466177,0.903808 -2.329815,0.943977 -1.546515,0.08034 -3.072945,0 -4.61946,0.02008 -1.265331,0.04017 -2.611,-0.06025 -3.6554,-0.82347 -0.723046,-0.542284 -0.984146,-1.466176 -1.064484,-2.329814 -0.08034,-1.164908 -0.06025,-2.3499 0.08034,-3.514807 0.100423,-0.803385 0.341439,-1.707192 1.084569,-2.169138 m 2.972523,1.78753 c -0.482031,0.08034 -1.104654,0.241015 -1.205077,0.803384 -0.220931,1.0444 -0.08034,2.128969 -0.02008,3.193454 0.160676,0.160677 0.301269,0.341438 0.461946,0.502115 1.847784,0.361523 3.715653,0.241015 5.563437,0 0.341438,-0.482031 0.682877,-0.964061 0.723046,-1.546515 0.06025,-0.7833 0.100423,-1.606769 -0.180762,-2.329815 -0.241015,-0.642708 -0.984146,-0.723046 -1.566599,-0.7833 -1.265331,-0.06025 -2.530661,-0.02008 -3.775907,0.160677 z"
     id="path19" />
  <path
     fill="#ffffff"
     stroke="#ffffff"
     stroke-width="0.0188293"
     opacity="1"
     d="m 86.906112,73.208406 c 0.723046,-0.2611 1.466177,-0.542285 2.249477,-0.562369 1.144823,-0.06025 2.289646,0 3.434468,-0.02009 0.943977,0 1.887954,-0.06025 2.811846,0.06025 0.743131,0.08034 1.426007,0.622623 1.727276,1.3055 0.220931,0.622623 0.100424,1.26533 0.08034,1.908038 -0.662792,0.04017 -1.3055,0.140592 -1.968292,0.02008 -0.361523,-0.180761 -0.582454,-0.562369 -0.843554,-0.843553 -1.506345,-0.341439 -3.072945,-0.2611 -4.599376,-0.08034 -0.381607,0.04017 -0.843553,0.120508 -1.024315,0.5222 -0.341438,0.743131 -0.281184,1.606769 -0.241015,2.430238 0.04017,0.562369 0.120508,1.245246 0.642708,1.5666 0.642707,0.2611 1.345668,0.180761 2.008461,0.200846 0.943976,-0.02008 1.928122,0.08034 2.852014,-0.140593 0.482031,-0.241015 0.883723,-0.642707 1.104654,-1.124738 0.723046,0 1.446092,0 2.169138,0 0.06025,0.602539 0.160677,1.225162 0.06025,1.847784 -0.120508,0.482031 -0.461946,0.863639 -0.743131,1.285416 -0.341438,0.100423 -0.702961,0.22093 -1.0444,0.341438 -2.189222,0.281185 -4.418614,0.08034 -6.627921,0.100423 -1.3055,0.06025 -2.611,-0.823469 -2.972523,-2.0888 -0.341438,-1.184992 -0.241015,-2.410153 -0.241015,-3.61523 -0.02008,-1.00423 0.2611,-1.988376 0.7833,-2.83193 l 0.180761,-0.02008 c 0.06025,-0.06025 0.140593,-0.200846 0.200846,-0.2611 z"
     id="path20" />
  <path
     fill="#ffffff"
     stroke="#ffffff"
     stroke-width="0.0188293"
     opacity="1"
     d="m 43.68403,72.826798 c 0.723046,0.02009 1.446092,0.02009 2.189222,0.02009 0.602539,2.149053 -0.02008,4.418614 0.381608,6.607837 1.928122,0.341438 3.916499,0.180761 5.864706,0.180761 0.140592,0.421777 0.321354,0.843554 0.321354,1.3055 -0.04017,0.441861 -0.180762,0.863638 -0.301269,1.285415 -2.83193,-0.02008 -5.643776,-0.08034 -8.475706,0 -0.180762,-0.602538 -0.301269,-1.245246 -0.301269,-1.867869 -0.02009,-1.827699 0.04017,-3.635314 0,-5.442929 -0.02009,-0.723046 0.100423,-1.426008 0.321354,-2.0888 z"
     id="path21" />
  <path
     fill="#ffffff"
     stroke="#ffffff"
     stroke-width="0.0188293"
     opacity="1"
     d="m 67.705224,72.907137 c 0.602539,-0.06025 1.184992,-0.100423 1.787531,-0.08034 2.209307,0.02009 4.418614,0 6.627921,0 0.743131,-0.02008 1.446092,0.120508 2.149054,0.321354 0.542284,0.823469 0.883723,1.767446 0.823469,2.771676 0.06025,1.104654 -0.702962,1.968292 -0.943977,3.012692 0.120508,0.02009 0.381608,0.08034 0.5222,0.100423 0.281185,1.004231 0.301269,2.04863 0.200846,3.072945 -0.7833,0.04017 -1.667023,0.321354 -2.369984,-0.140592 -0.381608,-0.582454 -0.2611,-1.385838 -0.662792,-1.968292 -0.582454,-0.321353 -1.285415,-0.200846 -1.928123,-0.241015 -1.184992,0.06025 -2.390069,-0.120508 -3.554976,0.220931 -0.140592,0.682876 -0.2611,1.365753 -0.381608,2.068715 -0.74313,0.04017 -1.506345,0.06025 -2.249476,0.06025 -0.180762,-0.702961 -0.2611,-1.426007 -0.2611,-2.169138 0.04017,-1.807615 0.02009,-3.61523 0,-5.442929 0,-0.542285 0.100423,-1.064484 0.241015,-1.586684 m 2.892184,2.30973 c -0.08034,0.08034 -0.241015,0.220931 -0.321353,0.301269 0,0.582454 0.04017,1.164907 0.120507,1.727277 1.285415,0.281184 2.611,0.140592 3.916499,0.180761 0.723046,0.04017 1.385839,-0.200846 2.008461,-0.5222 -0.02008,-0.48203 0,-0.964061 -0.140592,-1.426007 -0.341438,-0.421777 -0.964061,-0.381608 -1.446092,-0.421777 -1.385838,0 -2.751592,0.100423 -4.13743,0.160677 z"
     id="path22" />
  <path
     fill="#ffffff"
     stroke="#ffffff"
     stroke-width="0.0188293"
     opacity="1"
     d="m 17.875304,73.48959 c 0.923893,-0.22093 1.847785,-0.441861 2.811846,-0.441861 2.028546,-0.02009 4.097261,-0.100423 6.085637,0.401692 0.662792,0.823469 1.084569,1.887954 0.863638,2.952438 -0.622623,0.04017 -1.245245,0.160677 -1.847784,0.02008 -0.622623,-0.281185 -1.00423,-0.964062 -1.727276,-1.024316 -1.506346,-0.180761 -3.032777,-0.02008 -4.519038,0.180762 -0.803384,1.164907 -0.5222,2.631084 -0.421777,3.936584 0.140593,0.160677 0.30127,0.341438 0.461946,0.502115 1.807615,0.220931 3.675484,0.421777 5.422845,-0.160677 0.120508,-0.281185 0.2611,-0.582454 0.381608,-0.863638 0.7833,-0.06025 1.546515,-0.08034 2.329815,-0.02008 0.160677,1.004231 0.200846,2.209307 -0.642708,2.932353 -0.823469,0.662793 -1.968292,0.542285 -2.952438,0.582454 -1.867868,-0.06025 -3.755822,0.180762 -5.583521,-0.160677 -0.823469,-0.140592 -1.365754,-0.7833 -1.867869,-1.385838 -0.321354,-1.887953 -0.562369,-3.836161 -0.100423,-5.724114 0.140592,-0.763215 0.723046,-1.265331 1.305499,-1.727277 z"
     id="path23" />
</svg>
