<?xml version="1.0" encoding="UTF-8" standalone="no"?>
<svg
   width="23.749878pc"
   height="4.9714999pc"
   viewBox="0 0 29.298761 6.1330333"
   version="1.1"
   id="svg2"
   xmlns="http://www.w3.org/2000/svg"
   xmlns:svg="http://www.w3.org/2000/svg">
  <defs
     id="defs2" />
  <path
     d="M 0.95774285,1.6670894e-4 H 2.6463376 L 2.0415176,3.5539012 H 0.40326892 Z M 0.30241002,4.0833688 H 1.9658318 L 1.9154856,4.4864709 H 3.3016704 L 3.1001194,5.9233353 H 0 Z M 21.977907,0.30257673 h 1.537556 L 23.363925,1.3108324 H 21.826868 Z M 21.763685,1.7392743 h 1.53739 l -0.277404,1.8651396 h -1.53739 z m -0.352922,2.3440945 h 1.537389 l -0.27707,1.8399665 h -1.537557 z m -7.03195,0 h 1.53739 l -0.277237,1.8399665 h -1.53739 z m -9.4012176,0 c -0.013003,0.1188634 -0.021839,0.2702351 -0.0085,0.4064363 0.018338,0.1660421 0.082855,0.2989092 0.2403943,0.2989092 0.2073859,0 0.3325844,-0.182713 0.4042692,-0.3982677 0.04051,-0.1120284 0.069518,-0.205052 0.090523,-0.3109122 L 7.1369763,4.0757001 6.845069,5.9283365 H 5.571246 L 5.6460983,5.5594096 C 5.3305182,5.9611782 5.0777875,6.057536 4.5466528,6.057536 c -1.0144239,0 -1.176465,-1.1252854 -1.112282,-1.9738338 z M 5.7681292,3.6044139 A 2.749864,2.749864 0 0 0 5.7627945,3.3625192 C 5.7479575,3.1716375 5.6882756,3.0055955 5.4973938,3.0055955 c -0.1992171,0 -0.318414,0.1992171 -0.4017685,0.4399448 -0.012003,0.03751 -0.022339,0.073519 -0.069185,0.1585402 L 3.4700462,3.6027505 C 3.6765985,2.7155255 4.1415498,1.6777623 5.15464,1.656757 5.4312102,1.651087 5.9478411,1.688765 6.1500591,2.0840321 l 0.044178,0.00867 0.06535,-0.3572573 H 7.5079037 L 7.2203307,3.6042472 H 5.7681292 Z m 1.8309642,0 C 7.5062366,3.4188669 7.4672267,3.1968106 7.5042361,2.9324102 7.6306014,2.0278475 8.3107739,1.5685644 9.3315328,1.5685644 c 0.4399448,0 0.7456902,0.1033596 1.0972792,0.3190809 L 10.261436,3.0492732 C 10.006204,2.835719 9.5439199,2.7221902 9.2700172,2.7221902 c -0.1161962,0 -0.2603994,0.027507 -0.2959084,0.1653754 -0.05168,0.2002173 0.1725437,0.3105787 0.4452795,0.406603 0.2255573,0.079854 0.4172725,0.178712 0.5703113,0.3084115 z m 2.7391946,0.4831225 c 0.06952,0.190215 0.09019,0.4194397 0.05635,0.6613345 -0.138201,0.9875836 -0.9855836,1.3590112 -1.8901463,1.3590112 -0.5974849,0 -0.8488819,-0.1113616 -1.3240024,-0.3935999 L 7.3928745,4.4144527 C 7.5547488,4.6218386 8.1030545,4.9527558 8.469981,4.9340844 8.6110167,4.9265826 8.8955889,4.8298913 8.9175945,4.6720179 8.9396001,4.5144781 8.8719162,4.3981152 8.5179931,4.2859201 8.3522845,4.2332401 8.1949112,4.1775593 8.0553758,4.0915375 Z m 1.682761,-0.00367 c -0.06118,0.370594 -0.07519,0.9524081 0.262566,0.993752 0.217555,0.02634 0.444446,-0.1500382 0.51313,-0.5971515 h 1.366514 c -0.238228,1.4046921 -1.06127,1.65959 -2.040685,1.6524215 -1.066937,-0.00784 -1.705599,-0.8762221 -1.627413,-2.0506866 z M 26.362518,3.6044139 c 0.200551,-1.1012792 0.736854,-2.0008406 2.270743,-2.0358495 a 1.2953285,1.2953285 0 0 1 0.665501,0.1678759 l -0.198217,1.1923023 c -0.608486,-0.2468959 -0.939738,0.2377269 -1.0566,0.6771717 z m 1.646251,0.479455 c 0.04101,0.2744029 0.198884,0.5304678 0.506628,0.5304678 L 28.850149,4.5889967 28.6551,5.923335 C 28.417373,5.986184 28.190815,6.0240272 27.883071,6.019693 26.71194,6.003356 26.231985,5.1421371 26.300336,4.0823684 Z m -8.651027,0 c -0.18338,0.2969085 -0.366593,0.5161308 -0.782365,0.4782879 l 0.07202,-0.4796216 -1.619244,0.001 -0.29274,1.8396331 h 1.638415 c 1.35551,0 2.28608,-0.5933171 2.742528,-1.8436342 z M 18.708243,3.6052475 19.028992,1.5375566 c 0.6555,0 0.806538,0.5041278 0.680505,1.4113578 -0.03134,0.2267242 -0.07552,0.4664516 -0.134533,0.6601674 l 1.704598,0.00167 C 21.341078,3.3555175 21.368419,3.072279 21.398426,2.7725363 21.624984,0.50412783 20.390004,0 19.155024,0 H 17.617467 L 17.40358,1.6130757 c -0.252398,0.050346 -0.86972,0.1258652 -1.197304,0.5671438 -0.06318,0.06285 -0.100858,0.037843 -0.08819,-0.037843 l 0.06285,-0.403269 h -1.4492 l -0.277237,1.8651398 h 1.537556 c 0.06285,-0.2647337 0.756026,-0.6553328 1.184467,-0.453615 l -0.07202,0.4522814 z m 4.668518,-8.336e-4 c -0.09286,-0.185547 -0.131534,-0.4076033 -0.09469,-0.6720037 0.126366,-0.9045627 0.806538,-1.3638458 1.827297,-1.3638458 0.439945,0 0.745689,0.1033596 1.097278,0.3190809 l -0.167377,1.1616279 c -0.255565,-0.2135542 -0.717681,-0.327083 -0.991418,-0.327083 -0.116195,0 -0.260399,0.027507 -0.296241,0.1653754 -0.05151,0.2002173 0.172877,0.3105787 0.445446,0.406603 0.225724,0.079854 0.417439,0.178712 0.570477,0.3084115 z m 2.739195,0.4831225 c 0.06935,0.190215 0.09019,0.4194397 0.05635,0.6613345 -0.138035,0.9875836 -0.985583,1.3590112 -1.890146,1.3590112 -0.597485,0 -0.848882,-0.1113616 -1.323835,-0.3935999 l 0.21222,-1.2998295 c 0.161875,0.2073859 0.71018,0.5383031 1.077106,0.5196317 0.141036,-0.0075 0.425608,-0.1041931 0.447781,-0.2620665 0.02184,-0.1575398 -0.04584,-0.2739027 -0.399768,-0.3860978 -0.165709,-0.05268 -0.323082,-0.1083608 -0.462618,-0.1943826 z m 2.349596,-3.29333501 h 0.31708 v 0.0466785 h -0.1322 V 1.1848005 h -0.05268 V 0.84087989 h -0.1322 z M 29.153226,1.1848005 V 0.95407525 c 0,-0.0115029 0.0013,-0.0610155 0.0013,-0.097358 h -0.0013 L 29.043531,1.1848005 h -0.05235 l -0.10969,-0.32758314 h -0.0013 c 0,0.0358424 0.0013,0.085355 0.0013,0.0968579 V 1.1848005 h -0.05118 V 0.79420139 h 0.07552 l 0.111361,0.33025041 h 0.0013 l 0.111027,-0.33025041 h 0.07485 V 1.1848005 Z M 12.638371,1.5685644 c -1.233645,0.00834 -1.840633,0.8742216 -2.08036,2.0351827 l 3.724778,10e-4 C 14.324129,3.0661104 14.304629,2.5443115 14.141753,2.3075848 13.857847,1.8943133 13.484086,1.562896 12.638371,1.5685644 Z m 0.02401,0.9725799 c 0.290408,0 0.337587,0.3154133 0.312414,0.5559744 h -0.755192 c 0.02301,-0.2240569 0.168876,-0.5559744 0.442778,-0.5559744 z"
     id="path2"
     style="clip-rule:evenodd;fill:#ffffff;fill-opacity:1;fill-rule:evenodd;stroke-width:0.166709" />
</svg>
