<?xml version="1.0" encoding="UTF-8" standalone="no"?>
<svg
   viewBox="0 0 380.06721 91.288"
   version="1.1"
   id="svg8"
   width="380.0672"
   height="91.288002"
   xmlns="http://www.w3.org/2000/svg"
   xmlns:svg="http://www.w3.org/2000/svg">
  <defs
     id="defs8" />
  <path
     fill="#ffffff"
     stroke="#ffffff"
     stroke-width="0.0937499"
     opacity="1"
     d="m 21.520601,0.21656482 c 0.77818,-0.11116866 1.584152,-0.13896083 2.390125,-0.16675299 109.389954,0 218.807694,0 328.225454,0 2.86259,0.02779216 5.80856,-0.16675298 8.61556,0.6114276 6.69792,1.75090627 12.70102,6.08648377 16.39739,11.92283857 1.22284,1.945451 2.11219,4.085448 2.55687,6.308821 0.44468,2.223374 0.27792,4.502331 0.30571,6.753496 0,13.062317 0,26.124634 0,39.18695 -0.0278,2.167789 0.11117,4.335577 -0.27792,6.475574 -0.55584,2.862593 -1.83428,5.530641 -3.47401,7.920767 -3.66858,5.336095 -9.17142,9.449336 -15.39687,11.283619 -3.00155,0.917141 -6.16986,0.694804 -9.28258,0.722596 -107.8336,0 -215.66719,0 -323.500779,0 -2.084412,-0.02779 -4.168825,0.08338 -6.253237,-0.166753 -2.751424,-0.361299 -5.39168,-1.361816 -7.83739,-2.69584 C 8.8473737,85.5663 4.4840041,81.230722 1.8993329,75.978003 0.89881493,73.865799 0.20401084,71.614633 0.09284219,69.280091 0.00946569,67.807107 0.06505002,66.30633 0.06505002,64.833345 c 0,-13.256862 0,-26.485931 0,-39.742794 0,-2.028828 -0.11116865,-4.085447 0.25012948,-6.086483 0.38909028,-1.91766 1.0838944,-3.751943 2.028828,-5.475056 C 5.5956906,7.8594097 10.959578,3.5238323 17.073854,1.3004592 18.519047,0.80020025 19.992031,0.41110996 21.520601,0.21656482 M 23.18813,12.194988 c -1.806491,0.250129 -3.446228,1.195062 -4.919213,2.223373 -2.529087,1.862075 -4.669083,4.279993 -5.975315,7.142586 -0.611427,1.361816 -0.833765,2.862592 -0.833765,4.335577 0.02779,12.061799 0,24.095806 0,36.157605 0.02779,2.362334 -0.250129,4.835836 0.667012,7.05921 1.195063,3.001554 3.362852,5.502848 5.864147,7.476091 1.611945,1.195063 3.446228,2.278958 5.475056,2.501295 1.639737,0.194545 3.251684,0.08338 4.891421,0.08338 107.833597,0 215.667187,0 323.500787,0 1.55635,0 3.11271,0.08338 4.64129,-0.05558 1.83428,-0.194544 3.5018,-1.111686 5.00258,-2.139996 2.69585,-1.917659 5.00259,-4.502331 6.30882,-7.559469 0.63923,-1.445193 0.80598,-3.029345 0.80598,-4.585707 -0.0278,-13.062316 0,-26.124633 0,-39.18695 0.0278,-2.973762 -1.4452,-5.697393 -3.27947,-7.920767 -1.7787,-2.05662 -3.9187,-3.890903 -6.44778,-4.947005 -2.11221,-0.944933 -4.50234,-0.63922 -6.7535,-0.667012 -106.24945,0 -212.52668,0 -318.776118,0 -2.30675,0 -4.641291,0.02779 -6.948041,-0.02779 -1.083894,0 -2.167788,-0.02779 -3.223891,0.111169 z"
     id="path1" />
  <path
     fill="#ffffff"
     stroke="#ffffff"
     stroke-width="0.0937499"
     opacity="1"
     d="m 206.67199,24.117826 c 8.5044,-3.835319 18.7875,-3.668565 27.06957,0.667012 3.00155,1.584153 5.6696,3.835318 7.58726,6.642327 1.61194,2.362334 2.41791,5.224926 2.41791,8.08752 -0.0278,8.365441 0,16.703089 -0.0278,25.040739 0,1.639737 0.11117,3.307268 -0.0278,4.947005 -1.91765,0.166753 -3.86311,0.02779 -5.78077,0.05558 -1.83428,0 -3.66856,0.111169 -5.50285,-0.05558 -0.19454,-2.390126 0,-4.780252 -0.0556,-7.170378 -0.0834,-2.417919 0.11117,-4.808045 -0.0556,-7.225963 -0.72259,-0.05559 -1.44519,-0.111169 -2.16778,-0.111169 -4.91922,0.05558 -9.81064,0 -14.72985,0.02779 -1.36182,0 -2.75143,0.05559 -4.11324,-0.02779 -0.25013,-1.806491 -0.11116,-3.640773 -0.11116,-5.447264 0.0278,-1.945451 -0.11117,-3.890902 0.0834,-5.836354 0.72259,-0.05558 1.44519,-0.111169 2.19558,-0.111169 4.91921,0.05559 9.81064,0 14.72985,0.02779 1.36182,0 2.72362,0.05558 4.08544,-0.02779 0.22234,-1.862075 0.13896,-3.807526 -0.66701,-5.53064 -0.83377,-1.750906 -2.25116,-3.168307 -3.83532,-4.224409 -4.78025,-3.057138 -11.28361,-3.251683 -16.17503,-0.333506 -1.91766,1.111687 -3.44623,2.862593 -4.30779,4.89142 -0.66702,1.584154 -0.41689,3.362853 -0.44468,5.030382 0.0278,7.142587 0,14.25738 0,21.399966 0,1.556362 0.0834,3.112722 -0.0834,4.669084 -1.83427,0.166753 -3.69635,0.05558 -5.53063,0.05558 -1.91766,-0.02779 -3.83532,0.111169 -5.72519,-0.05558 -0.13896,-1.556362 -0.0556,-3.112722 -0.0556,-4.669084 0,-7.309339 0,-14.64647 0,-21.955809 0,-1.584153 -0.0556,-3.140515 0.0556,-4.696875 0.19455,-2.890385 1.36182,-5.64181 3.14052,-7.892975 2.1122,-2.69584 4.947,-4.75246 8.03193,-6.16986 z"
     id="path2" />
  <path
     fill="#ffffff"
     stroke="#ffffff"
     stroke-width="0.0937499"
     opacity="1"
     d="m 28.468642,21.783285 c 1.80649,-0.194546 3.640773,-0.08338 5.447264,-0.08338 1.945451,0.02779 3.890902,-0.111169 5.808561,0.08338 0.194546,1.750906 0.08338,3.501812 0.08338,5.252718 0,9.25479 0,18.537373 0,27.792164 0,1.55636 -0.08338,3.08493 0.05558,4.641291 0.500259,0.02779 1.02831,0.08338 1.52857,0.08338 6.142068,-0.05558 12.256344,-0.02779 18.37062,-0.02779 1.389607,-0.02779 2.779216,0.111169 4.168824,-0.02779 0.08338,-0.08338 0.305713,-0.194546 0.38909,-0.250129 -0.38909,-0.08338 -0.805972,-0.111169 -1.222855,-0.111169 -7.670637,0.02779 -15.369067,0 -23.067495,0.02779 1.195063,-0.222337 2.417918,0.02779 3.612981,-0.05558 5.28051,0.02779 10.561022,0 15.841533,0.02779 1.611946,0 3.251683,-0.111169 4.863628,0.02779 0.277922,1.695322 0.111169,3.418436 0.138961,5.113758 -0.02779,1.750907 0.111169,3.501813 -0.05558,5.224927 -1.639738,0.166753 -3.307267,0.05558 -4.947005,0.05558 -8.698948,0 -17.425686,0 -26.124634,0 -1.639738,0 -3.279475,0.111169 -4.89142,-0.05558 -0.138961,-1.472985 -0.05559,-2.945969 -0.05559,-4.391162 0,-12.978941 0,-25.930089 0,-38.909029 0,-1.472984 -0.08338,-2.945969 0.05559,-4.418953 z"
     id="path3" />
  <path
     fill="#ffffff"
     stroke="#ffffff"
     stroke-width="0.0937499"
     opacity="1"
     d="m 70.156887,21.783285 c 1.80649,-0.194546 3.640773,-0.08338 5.447264,-0.08338 1.945451,0.02779 3.890903,-0.111169 5.808561,0.08338 0.194546,1.639737 0.08338,3.307266 0.08338,4.974796 0,12.58985 0,25.207492 0,37.797343 0,1.639737 0.111169,3.307268 -0.08338,4.947005 -1.834282,0.166753 -3.696356,0.05558 -5.53064,0.05558 -1.917659,-0.02779 -3.835318,0.111169 -5.725185,-0.05558 -0.138961,-1.472985 -0.05559,-2.918177 -0.05559,-4.391162 0,-12.978941 0,-25.930089 0,-38.909029 0,-1.472984 -0.08338,-2.945969 0.05559,-4.418953 z"
     id="path4" />
  <path
     fill="#ffffff"
     stroke="#ffffff"
     stroke-width="0.0937499"
     opacity="1"
     d="m 87.110106,21.783285 c 0.694804,-0.05559 1.389609,-0.111169 2.112205,-0.111169 5.085966,0.05558 10.199724,0 15.285689,0.02779 4.91921,0 9.83842,-0.111169 14.72985,0.250129 3.36285,0.222337 6.78128,0.917142 9.72725,2.556879 2.69585,1.556362 4.89142,4.057656 5.78077,7.031418 0.61143,2.056619 0.80598,4.224409 0.7226,6.336612 -0.0556,1.862075 -0.75039,3.696358 -1.97325,5.085967 -0.88935,1.083894 -2.13999,1.80649 -3.19609,2.69584 1.0561,1.000517 2.33453,1.778698 3.27947,2.890385 0.94493,1.056101 1.58416,2.390125 1.7787,3.807526 0.25013,1.528569 0.13896,3.112723 -0.0278,4.669083 -0.25013,1.945452 -0.80598,3.918696 -1.91766,5.586225 -1.27845,1.945452 -3.08493,3.529605 -5.19714,4.530123 -2.61245,1.27844 -5.50284,1.91766 -8.42102,2.112204 -2.86259,0.222338 -5.75298,0.333507 -8.61557,0.305714 -6.30882,0 -12.58985,0 -18.898671,0 -1.723114,0 -3.446229,0.111169 -5.169343,-0.05558 -0.138961,-1.472985 -0.05558,-2.945969 -0.05558,-4.391162 0,-12.978941 0,-25.930089 0,-38.909029 0,-1.472984 -0.08338,-2.945969 0.05558,-4.418953 m 11.394788,10.060762 c -0.138961,1.52857 -0.05558,3.08493 -0.05558,4.641292 0,6.114276 0,12.228552 0,18.342828 0,1.55636 -0.08338,3.08493 0.05558,4.641291 0.77818,0.05558 1.584156,0.111168 2.390126,0.08338 3.69636,-0.05558 7.4205,0.02779 11.14466,-0.05558 2.83479,-0.08338 5.72518,-0.05559 8.4766,-0.889349 0.97273,-0.305714 2.00104,-0.694804 2.75143,-1.417401 1.19506,-1.139478 0.94493,-3.362852 -0.44468,-4.279993 -1.47298,-0.972726 -3.25167,-1.222855 -4.97479,-1.389608 -3.2239,-0.250129 -6.47558,-0.194546 -9.72726,-0.194546 -1.7509,0 -3.50181,0.111169 -5.25272,-0.111167 -0.19455,-1.945452 -0.0556,-3.890904 -0.0834,-5.836355 0,-1.806491 -0.13896,-3.612981 0.11117,-5.419472 4.9748,-0.138961 9.97739,0.138961 14.9244,-0.194545 1.72311,-0.194545 3.5296,-0.38909 4.97479,-1.389608 1.16727,-0.750388 1.55637,-2.390127 0.97273,-3.640774 -0.44468,-0.861557 -1.33403,-1.334023 -2.19559,-1.723114 -2.05661,-0.833764 -4.30778,-1.056102 -6.53115,-1.167271 -3.86311,-0.166753 -7.75401,-0.05558 -11.64492,-0.08338 -1.63974,0 -3.27947,-0.08338 -4.891416,0.08338 z"
     id="path5" />
  <path
     fill="#ffffff"
     stroke="#ffffff"
     stroke-width="0.0937499"
     opacity="1"
     d="m 141.30482,21.783285 c 0.69481,-0.05559 1.38961,-0.111169 2.11221,-0.111169 5.00259,0.05558 10.00518,0 15.00776,0.02779 4.72467,0 9.44934,-0.08338 14.17401,0.305713 3.69635,0.25013 7.4483,1.083894 10.6444,3.001554 2.41792,1.500777 4.55791,3.696358 5.50284,6.447782 0.80598,2.334542 0.94494,4.835836 0.83377,7.253755 -0.13896,2.390126 -0.63922,4.863628 -2.08442,6.836872 -1.08388,1.584153 -2.69583,2.695839 -4.08544,4.002071 1.02831,1.195063 2.27896,2.195582 3.16831,3.529606 1.80648,2.640254 3.05713,5.752977 3.05713,8.976868 -0.0278,2.473503 0.11117,4.974797 -0.0834,7.4483 -1.86208,0.166753 -3.69636,0.05558 -5.55843,0.05558 -1.91767,-0.02779 -3.83532,0.111169 -5.72519,-0.08338 -0.25013,-2.417918 0.3613,-4.974798 -0.47247,-7.309339 -0.83376,-2.223374 -2.14,-4.279993 -3.94648,-5.780771 -0.75039,-0.639219 -1.58416,-1.139478 -2.52909,-1.334024 -1.05611,-0.194544 -2.11221,-0.13896 -3.1683,-0.13896 -2.69585,0.05559 -5.36389,-0.02779 -8.05973,0.02779 -1.00052,0.02779 -2.02883,0 -3.02935,-0.111169 -0.19455,-1.834283 -0.0556,-3.696358 -0.0834,-5.558433 0.0278,-1.834283 -0.11117,-3.668566 0.0834,-5.502848 5.16935,-0.277922 10.44986,0.361297 15.56361,-0.861558 1.50078,-0.361298 3.05714,-0.833764 4.14103,-1.973244 1.0839,-1.139478 1.4452,-2.862592 1.05611,-4.363369 -0.30572,-1.139479 -1.25065,-1.945451 -2.22338,-2.556879 -2.13999,-1.278439 -4.66908,-1.778698 -7.14258,-2.028828 -3.2239,-0.333506 -6.50337,-0.194545 -9.75505,-0.222338 -2.00104,0.02779 -4.00207,-0.111168 -6.00311,0.08338 -0.11117,1.361816 -0.0556,2.723633 -0.0556,4.085449 0.0278,10.644398 -0.0278,21.316589 0.0278,31.960987 -0.0278,0.555844 -0.0556,1.083895 -0.11117,1.611946 -1.83429,0.166753 -3.69636,0.05558 -5.53064,0.05558 -1.91766,-0.02779 -3.83532,0.111169 -5.72519,-0.05558 -0.13896,-1.472985 -0.0556,-2.918177 -0.0556,-4.391162 0,-12.978941 0,-25.930089 0,-38.909029 0,-1.472984 -0.0834,-2.945969 0.0556,-4.418953 z"
     id="path6" />
  <path
     fill="#ffffff"
     stroke="#ffffff"
     stroke-width="0.0937499"
     opacity="1"
     d="m 249.41634,21.783285 c 0.6948,-0.05559 1.38961,-0.111169 2.1122,-0.111169 5.00259,0.05558 10.00518,0 15.00778,0.02779 4.72466,0 9.44933,-0.111169 14.17399,0.305713 3.69637,0.25013 7.4483,1.083894 10.64441,3.001554 2.41791,1.500777 4.55791,3.696358 5.50285,6.447782 0.80597,2.334542 0.97272,4.835836 0.83376,7.253755 -0.13896,2.390126 -0.63922,4.863628 -2.08441,6.836872 -1.0839,1.584153 -2.69585,2.695839 -4.08545,4.002071 1.00051,1.139479 2.19558,2.112205 3.05713,3.362852 1.25065,1.778699 2.19559,3.751942 2.75143,5.864146 0.50026,1.889868 0.41689,3.835319 0.41689,5.780771 0,1.639737 0.0834,3.307268 -0.0834,4.947005 -1.86208,0.166753 -3.69636,0.05558 -5.55844,0.05558 -1.91765,0 -3.83532,0.111169 -5.72519,-0.08338 -0.25013,-2.501295 0.38909,-5.113759 -0.55584,-7.531677 -1.00051,-2.473502 -2.58467,-4.808044 -4.83584,-6.281029 -1.25065,-0.77818 -2.75141,-0.77818 -4.16882,-0.750388 -2.1122,0.02779 -4.25219,0.02779 -6.3922,0.02779 -1.7509,-0.02779 -3.5018,0.08338 -5.25271,-0.111169 -0.19455,-1.834283 -0.0556,-3.696358 -0.0834,-5.558433 0.0278,-1.834283 -0.11117,-3.668566 0.0834,-5.502848 4.80804,-0.277922 9.64387,0.277921 14.42412,-0.611428 1.75091,-0.333506 3.61299,-0.750389 4.97481,-1.945452 1.3896,-1.16727 1.83427,-3.196099 1.27843,-4.863628 -0.38908,-1.167271 -1.44518,-1.945452 -2.4735,-2.529087 -2.44571,-1.334024 -5.28051,-1.750906 -8.03193,-1.945452 -2.91818,-0.194545 -5.86415,-0.08338 -8.81011,-0.111169 -1.91767,0.02779 -3.83533,-0.111168 -5.72519,0.08338 -0.11117,1.361816 -0.0556,2.723633 -0.0556,4.085449 0.0278,10.644398 -0.0278,21.316589 0.0278,31.960987 -0.0278,0.555844 -0.0556,1.083895 -0.11117,1.611946 -1.83429,0.166753 -3.69636,0.05558 -5.53065,0.05558 -1.91765,-0.02779 -3.83531,0.111169 -5.72518,-0.05558 -0.13897,-1.472985 -0.0556,-2.945969 -0.0556,-4.391162 0,-12.978941 0,-25.930089 0,-38.909029 0,-1.472984 -0.0834,-2.945969 0.0556,-4.418953 z"
     id="path7" />
  <path
     fill="#ffffff"
     stroke="#ffffff"
     stroke-width="0.0937499"
     opacity="1"
     d="m 303.33314,21.783285 c 1.80648,-0.194546 3.64077,-0.08338 5.44726,-0.08338 1.94545,0.02779 3.8909,-0.111169 5.80856,0.08338 0.19455,1.639737 0.0834,3.307266 0.0834,4.974796 0,2.69584 0.0278,5.363888 -0.0278,8.059727 0,1.306232 -0.0278,2.668048 0.50026,3.890904 0.91714,2.084412 2.50129,3.863111 4.50233,4.974797 4.89142,2.779216 11.3392,2.556879 16.06386,-0.555843 1.63974,-1.111687 3.08494,-2.612464 3.86312,-4.446747 0.66701,-1.584152 0.61143,-3.307267 0.61143,-4.974797 -0.0278,-3.140515 0.0278,-6.308821 -0.0278,-9.449335 -0.0278,-0.833765 0,-1.639738 0.0834,-2.473502 1.91766,-0.194546 3.86311,-0.05559 5.78077,-0.08338 1.83428,0 3.66856,-0.111169 5.50285,0.08338 0.13896,1.750906 0.0278,3.501812 0.0278,5.252718 0.0278,3.140515 0,6.308821 0.0278,9.449336 0,1.611945 -0.0278,3.251682 -0.47246,4.808044 -0.83377,3.251682 -2.8626,6.086484 -5.39168,8.22648 -3.08494,2.640256 -6.92025,4.36337 -10.86675,5.252719 -0.58362,0.138961 -1.13947,0.305714 -1.7231,0.500259 -0.19455,2.251165 0,4.530123 -0.0556,6.781288 -0.0834,2.473503 0.13896,4.974797 -0.11117,7.4483 -1.94545,0.166753 -3.8909,0.02779 -5.83635,0.05558 -1.80649,0 -3.61299,0.111169 -5.41947,-0.08338 -0.13896,-2.556879 0.0278,-5.141551 -0.0278,-7.69843 -0.0556,-2.195581 0.19454,-4.391161 -0.13896,-6.55895 -1.25065,-0.416882 -2.52909,-0.667012 -3.75195,-1.056102 -3.5296,-1.111687 -6.92025,-2.834802 -9.58829,-5.419472 -2.1678,-2.084413 -3.86312,-4.724668 -4.55792,-7.69843 -0.36129,-1.584153 -0.38909,-3.223891 -0.36129,-4.835836 0.0278,-3.057138 0,-6.114276 0,-9.171414 0.0278,-1.750906 -0.0834,-3.501812 0.0556,-5.252718 z"
     id="path8" />
</svg>
