<?xml version="1.0" encoding="UTF-8" standalone="no"?>
<svg
   viewBox="0 0 380.00101 44.706001"
   version="1.1"
   id="svg2"
   width="380.00101"
   height="44.706001"
   xmlns="http://www.w3.org/2000/svg"
   xmlns:svg="http://www.w3.org/2000/svg">
  <defs
     id="defs2" />
  <style
     id="style1">
    .st2{fill:#222}
  </style>
  <path
     style="fill:#ffffff;stroke-width:0.465687"
     d="M 268.236,36.323625 259.85363,44.706 H 120.14738 L 111.76501,36.323625 103.38262,44.706 H 0 V 0 H 22.353 L 33.529501,11.176501 V 27.94125 H 44.706 V 8.382375 L 53.088375,0 H 81.076194 L 89.412001,8.382375 89.458569,0 H 170.44163 L 178.824,8.382375 V 0 H 223.53 V 8.382375 L 231.91237,0 H 268.236 Z M 16.76475,33.529501 V 5.5882501 H 5.5882501 V 39.11775 H 39.11775 V 33.529501 Z M 173.23575,16.76475 V 11.176501 L 167.6475,5.5882501 H 139.70625 V 39.11775 h 11.1765 V 25.147125 l 13.97063,13.970625 h 8.38237 V 33.529501 L 162.05925,22.353 h 5.58825 z m -11.1765,0 h -11.1765 v -5.588249 h 11.1765 z m 55.88251,-5.588249 V 5.5882501 H 184.41225 V 39.11775 h 33.52951 v -5.588249 h -22.353 V 22.353 h 11.1765 v -5.58825 h -11.1765 v -5.588249 z m 44.70599,0 V 5.5882501 H 234.7065 l -5.58825,5.5882509 v 5.588249 l 5.58825,5.58825 h 16.76475 v 11.176501 h -22.353 v 5.588249 h 27.94125 l 5.58825,-5.588249 V 22.353 L 257.0595,16.76475 H 240.29475 V 11.176501 Z M 78.235501,5.5882501 h -22.353 l -5.58825,5.5882509 v 22.353 l 5.58825,5.588249 h 22.353 l 5.588249,-5.588249 v -22.353 z M 61.47075,33.529501 v -22.353 h 11.176501 v 22.353 z M 117.35325,5.5882501 V 22.306432 L 111.81157,16.718181 106.17675,22.353 V 5.5882501 H 95.000251 V 39.11775 h 5.588259 l 11.1765,-11.1765 11.17649,11.1765 h 5.58825 V 5.5882501 Z"
     id="path1" />
  <path
     style="fill:#ffffff;stroke-width:0.465687"
     d="m 380.001,13.970625 -5.58825,5.588251 5.58825,5.588249 V 44.706 H 290.58901 V 0 H 380.001 Z M 318.53025,5.5882501 V 16.76475 L 307.35375,5.5882501 h -11.1765 V 39.11775 h 11.1765 V 22.353 l 11.1765,11.176501 v 5.588249 h 11.1765 V 5.5882501 Z m 55.8825,0 h -11.1765 l -5.54168,5.5882509 -5.63482,-5.5882509 h -11.1765 v 5.5882509 l 8.38238,8.382375 -8.38238,8.382374 v 11.1765 h 11.1765 v -8.428944 l 5.58825,-5.541681 5.58825,5.541681 v 8.428944 h 11.1765 v -11.1765 l -8.38237,-8.382374 8.38237,-8.382375 z"
     id="path2" />
</svg>
