<?xml version="1.0" encoding="UTF-8" standalone="no"?>
<svg
   version="1.1"
   viewBox="0 0 380.00143 99.179"
   id="svg17"
   width="380.00143"
   height="99.179001"
   xmlns="http://www.w3.org/2000/svg"
   xmlns:svg="http://www.w3.org/2000/svg">
  <path
     class="st1"
     d="M 54.834448,15.82391 C 56.635544,13.617073 58.040794,11.212314 58.971031,8.540359 59.970539,5.6111049 60.307008,2.8006044 59.970539,0 57.496507,0.12864967 54.893825,0.87085931 52.152598,2.2662134 49.41137,3.6615676 47.214429,5.4032862 45.403438,7.471577 c -1.810992,2.068291 -3.137073,4.403777 -4.136582,6.947083 -1.138055,3.008422 -1.533899,5.739753 -1.138055,8.411709 2.671955,0.197922 5.343909,-0.395846 8.144514,-1.801096 2.553202,-1.256808 4.760038,-2.998527 6.561133,-5.205363 z"
     style="fill:#ffffff;stroke-width:0.0989613"
     id="path1" />
  <path
     class="st1"
     d="m 26.115883,99.179 c 1.335978,-0.06927 2.741227,-0.336468 4.077205,-0.732313 0.663041,-0.197923 1.801095,-0.66304 3.542814,-1.40525 1.464627,-0.603664 2.671955,-1.068782 3.740737,-1.335978 1.5339,-0.395845 3.137073,-0.603663 4.809518,-0.603663 1.672446,0 3.275619,0.197922 4.809519,0.603663 0.930236,0.267196 2.206837,0.732314 3.740737,1.40525 1.5339,0.663042 2.741227,1.068782 3.542813,1.335978 1.40525,0.395845 2.800605,0.603664 4.275128,0.534391 2.137563,0 4.136582,-0.603664 6.00695,-1.801096 1.603173,-1.068782 3.206345,-2.533408 4.878792,-4.542323 1.068782,-1.266704 2.474032,-3.206345 4.275127,-5.809027 1.939641,-2.93915 3.671464,-6.076223 5.145986,-9.549764 0.534391,-1.266705 1.138056,-2.800605 1.672447,-4.542323 C 79.564874,72.3407 78.426819,71.737036 77.160115,70.866177 74.557433,69.134354 72.419869,66.99679 70.816696,64.522759 68.550483,61.11849 67.412428,57.179831 67.343155,52.696885 c 0,-3.671464 0.87086,-7.214279 2.671954,-10.420624 1.266705,-2.266213 3.008424,-4.3444 5.076715,-6.214768 0.930235,-0.87086 1.939641,-1.603173 3.008423,-2.266214 -2.53341,-3.740736 -5.947573,-6.412691 -10.153428,-8.085137 -2.40476,-0.930236 -5.076715,-1.5339 -8.015865,-1.731822 -1.5339,-0.128651 -3.137072,-0.06927 -4.740245,0.197922 -1.335978,0.197922 -2.800604,0.603664 -4.3444,1.068782 -0.999509,0.395845 -2.266214,0.870859 -3.869387,1.464627 -1.603173,0.663041 -2.741227,1.068782 -3.334995,1.266704 -1.068782,0.336468 -1.999018,0.534391 -2.671955,0.534391 -0.870859,0 -1.999017,-0.197923 -3.334995,-0.66304 -0.395845,-0.12865 -1.672446,-0.663041 -3.938659,-1.5339 -1.731823,-0.663041 -3.206345,-1.197432 -4.403778,-1.5339 -1.672445,-0.395846 -3.206345,-0.603664 -4.670972,-0.603664 -4.205855,0.06927 -8.085137,1.197431 -11.756601,3.473541 C 9.1935035,29.85662 6.3236262,32.855147 4.1860624,36.665156 1.4052502,41.405402 0,47.08578 0,53.567744 c 0,5.809027 0.99950899,11.746705 3.0677998,17.961473 1.8703683,5.680378 4.3444005,10.687819 7.3429272,15.022323 1.731823,2.602682 3.206346,4.611597 4.403777,6.006951 1.731823,2.137563 3.473541,3.671463 5.145988,4.740245 2.008913,1.276601 4.017828,1.880264 6.155391,1.880264 z"
     style="fill:#ffffff;stroke-width:0.0989613"
     id="path2" />
  <defs
     id="defs2">
    <path
       id="SVGID_37_"
       d="m 263.9,1002.2 c 13.5,-0.7 27.7,-3.4 41.2,-7.4 6.7,-2 18.2,-6.7 35.8,-14.2 14.8,-6.1 27,-10.8 37.8,-13.5 15.5,-4 31.7,-6.1 48.6,-6.1 16.9,0 33.1,2 48.6,6.1 9.4,2.7 22.3,7.4 37.8,14.2 15.5,6.7 27.7,10.8 35.8,13.5 14.2,4 28.3,6.1 43.2,5.4 21.6,0 41.8,-6.1 60.7,-18.2 16.2,-10.8 32.4,-25.6 49.3,-45.9 10.8,-12.8 25,-32.4 43.2,-58.7 19.6,-29.7 37.1,-61.4 52,-96.5 5.4,-12.8 11.5,-28.3 16.9,-45.9 C 804,731 792.5,724.9 779.7,716.1 753.4,698.6 731.8,677 715.6,652 692.7,617.6 681.2,577.8 680.5,532.5 c 0,-37.1 8.8,-72.9 27,-105.3 12.8,-22.9 30.4,-43.9 51.3,-62.8 9.4,-8.8 19.6,-16.2 30.4,-22.9 -25.6,-37.8 -60.1,-64.8 -102.6,-81.7 -24.3,-9.4 -51.3,-15.5 -81,-17.5 -15.5,-1.3 -31.7,-0.7 -47.9,2 -13.5,2 -28.3,6.1 -43.9,10.8 -10.1,4 -22.9,8.8 -39.1,14.8 -16.2,6.7 -27.7,10.8 -33.7,12.8 -10.8,3.4 -20.2,5.4 -27,5.4 -8.8,0 -20.2,-2 -33.7,-6.7 -4,-1.3 -16.9,-6.7 -39.8,-15.5 -17.5,-6.7 -32.4,-12.1 -44.5,-15.5 -16.9,-4 -32.4,-6.1 -47.2,-6.1 C 206.3,245 167.1,256.4 130,279.4 92.9,301.7 63.9,332 42.3,370.5 14.2,418.4 0,475.8 0,541.3 0,600 10.1,660 31,722.8 c 18.9,57.4 43.9,108 74.2,151.8 17.5,26.3 32.4,46.6 44.5,60.7 17.5,21.6 35.1,37.1 52,47.9 20.3,12.9 40.6,19 62.2,19 z" />
  </defs>
  <path
     d="m 26.115883,99.179 c 1.335978,-0.06927 2.741227,-0.336468 4.077205,-0.732313 0.663041,-0.197923 1.801095,-0.66304 3.542814,-1.40525 1.464627,-0.603664 2.671955,-1.068782 3.740737,-1.335978 1.5339,-0.395845 3.137073,-0.603663 4.809518,-0.603663 1.672446,0 3.275619,0.197922 4.809519,0.603663 0.930236,0.267196 2.206837,0.732314 3.740737,1.40525 1.5339,0.663042 2.741227,1.068782 3.542813,1.335978 1.40525,0.395845 2.800605,0.603664 4.275128,0.534391 2.137563,0 4.136582,-0.603664 6.00695,-1.801096 1.603173,-1.068782 3.206345,-2.533408 4.878792,-4.542323 1.068782,-1.266704 2.474032,-3.206345 4.275127,-5.809027 1.939641,-2.93915 3.671464,-6.076223 5.145986,-9.549764 0.534391,-1.266705 1.138056,-2.800605 1.672447,-4.542323 C 79.564874,72.3407 78.426819,71.737036 77.160115,70.866177 74.557433,69.134354 72.419869,66.99679 70.816696,64.522759 68.550483,61.11849 67.412428,57.179831 67.343155,52.696885 c 0,-3.671464 0.87086,-7.214279 2.671954,-10.420624 1.266705,-2.266213 3.008424,-4.3444 5.076715,-6.214768 0.930235,-0.87086 1.939641,-1.603173 3.008423,-2.266214 -2.53341,-3.740736 -5.947573,-6.412691 -10.153428,-8.085137 -2.40476,-0.930236 -5.076715,-1.5339 -8.015865,-1.731822 -1.5339,-0.128651 -3.137072,-0.06927 -4.740245,0.197922 -1.335978,0.197922 -2.800604,0.603664 -4.3444,1.068782 -0.999509,0.395845 -2.266214,0.870859 -3.869387,1.464627 -1.603173,0.663041 -2.741227,1.068782 -3.334995,1.266704 -1.068782,0.336468 -1.999018,0.534391 -2.671955,0.534391 -0.870859,0 -1.999017,-0.197923 -3.334995,-0.66304 -0.395845,-0.12865 -1.672446,-0.663041 -3.938659,-1.5339 -1.731823,-0.663041 -3.206345,-1.197432 -4.403778,-1.5339 -1.672445,-0.395846 -3.206345,-0.603664 -4.670972,-0.603664 -4.205855,0.06927 -8.085137,1.197431 -11.756601,3.473541 C 9.1935035,29.85662 6.3236262,32.855147 4.1860624,36.665156 1.4052502,41.405402 0,47.08578 0,53.567744 c 0,5.809027 0.99950899,11.746705 3.0677998,17.961473 1.8703683,5.680378 4.3444005,10.687819 7.3429272,15.022323 1.731823,2.602682 3.206346,4.611597 4.403777,6.006951 1.731823,2.137563 3.473541,3.671463 5.145988,4.740245 2.008913,1.276601 4.017828,1.880264 6.155391,1.880264 z"
     style="overflow:visible;fill:#ffffff;stroke-width:0.0989613"
     id="path3" />
  <defs
     id="defs3">
    <path
       id="SVGID_39_"
       d="m 263.9,1002.2 c 13.5,-0.7 27.7,-3.4 41.2,-7.4 6.7,-2 18.2,-6.7 35.8,-14.2 14.8,-6.1 27,-10.8 37.8,-13.5 15.5,-4 31.7,-6.1 48.6,-6.1 16.9,0 33.1,2 48.6,6.1 9.4,2.7 22.3,7.4 37.8,14.2 15.5,6.7 27.7,10.8 35.8,13.5 14.2,4 28.3,6.1 43.2,5.4 21.6,0 41.8,-6.1 60.7,-18.2 16.2,-10.8 32.4,-25.6 49.3,-45.9 10.8,-12.8 25,-32.4 43.2,-58.7 19.6,-29.7 37.1,-61.4 52,-96.5 5.4,-12.8 11.5,-28.3 16.9,-45.9 C 804,731 792.5,724.9 779.7,716.1 753.4,698.6 731.8,677 715.6,652 692.7,617.6 681.2,577.8 680.5,532.5 c 0,-37.1 8.8,-72.9 27,-105.3 12.8,-22.9 30.4,-43.9 51.3,-62.8 9.4,-8.8 19.6,-16.2 30.4,-22.9 -25.6,-37.8 -60.1,-64.8 -102.6,-81.7 -24.3,-9.4 -51.3,-15.5 -81,-17.5 -15.5,-1.3 -31.7,-0.7 -47.9,2 -13.5,2 -28.3,6.1 -43.9,10.8 -10.1,4 -22.9,8.8 -39.1,14.8 -16.2,6.7 -27.7,10.8 -33.7,12.8 -10.8,3.4 -20.2,5.4 -27,5.4 -8.8,0 -20.2,-2 -33.7,-6.7 -4,-1.3 -16.9,-6.7 -39.8,-15.5 -17.5,-6.7 -32.4,-12.1 -44.5,-15.5 -16.9,-4 -32.4,-6.1 -47.2,-6.1 C 206.3,245 167.1,256.4 130,279.4 92.9,301.7 63.9,332 42.3,370.5 14.2,418.4 0,475.8 0,541.3 0,600 10.1,660 31,722.8 c 18.9,57.4 43.9,108 74.2,151.8 17.5,26.3 32.4,46.6 44.5,60.7 17.5,21.6 35.1,37.1 52,47.9 20.3,12.9 40.6,19 62.2,19 z" />
  </defs>
  <path
     d="m 26.115883,99.179 c 1.335978,-0.06927 2.741227,-0.336468 4.077205,-0.732313 0.663041,-0.197923 1.801095,-0.66304 3.542814,-1.40525 1.464627,-0.603664 2.671955,-1.068782 3.740737,-1.335978 1.5339,-0.395845 3.137073,-0.603663 4.809518,-0.603663 1.672446,0 3.275619,0.197922 4.809519,0.603663 0.930236,0.267196 2.206837,0.732314 3.740737,1.40525 1.5339,0.663042 2.741227,1.068782 3.542813,1.335978 1.40525,0.395845 2.800605,0.603664 4.275128,0.534391 2.137563,0 4.136582,-0.603664 6.00695,-1.801096 1.603173,-1.068782 3.206345,-2.533408 4.878792,-4.542323 1.068782,-1.266704 2.474032,-3.206345 4.275127,-5.809027 1.939641,-2.93915 3.671464,-6.076223 5.145986,-9.549764 0.534391,-1.266705 1.138056,-2.800605 1.672447,-4.542323 C 79.564874,72.3407 78.426819,71.737036 77.160115,70.866177 74.557433,69.134354 72.419869,66.99679 70.816696,64.522759 68.550483,61.11849 67.412428,57.179831 67.343155,52.696885 c 0,-3.671464 0.87086,-7.214279 2.671954,-10.420624 1.266705,-2.266213 3.008424,-4.3444 5.076715,-6.214768 0.930235,-0.87086 1.939641,-1.603173 3.008423,-2.266214 -2.53341,-3.740736 -5.947573,-6.412691 -10.153428,-8.085137 -2.40476,-0.930236 -5.076715,-1.5339 -8.015865,-1.731822 -1.5339,-0.128651 -3.137072,-0.06927 -4.740245,0.197922 -1.335978,0.197922 -2.800604,0.603664 -4.3444,1.068782 -0.999509,0.395845 -2.266214,0.870859 -3.869387,1.464627 -1.603173,0.663041 -2.741227,1.068782 -3.334995,1.266704 -1.068782,0.336468 -1.999018,0.534391 -2.671955,0.534391 -0.870859,0 -1.999017,-0.197923 -3.334995,-0.66304 -0.395845,-0.12865 -1.672446,-0.663041 -3.938659,-1.5339 -1.731823,-0.663041 -3.206345,-1.197432 -4.403778,-1.5339 -1.672445,-0.395846 -3.206345,-0.603664 -4.670972,-0.603664 -4.205855,0.06927 -8.085137,1.197431 -11.756601,3.473541 C 9.1935035,29.85662 6.3236262,32.855147 4.1860624,36.665156 1.4052502,41.405402 0,47.08578 0,53.567744 c 0,5.809027 0.99950899,11.746705 3.0677998,17.961473 1.8703683,5.680378 4.3444005,10.687819 7.3429272,15.022323 1.731823,2.602682 3.206346,4.611597 4.403777,6.006951 1.731823,2.137563 3.473541,3.671463 5.145988,4.740245 2.008913,1.276601 4.017828,1.880264 6.155391,1.880264 z"
     style="overflow:visible;fill:#ffffff;stroke-width:0.0989613"
     id="path4" />
  <defs
     id="defs4">
    <path
       id="SVGID_41_"
       d="m 263.9,1002.2 c 13.5,-0.7 27.7,-3.4 41.2,-7.4 6.7,-2 18.2,-6.7 35.8,-14.2 14.8,-6.1 27,-10.8 37.8,-13.5 15.5,-4 31.7,-6.1 48.6,-6.1 16.9,0 33.1,2 48.6,6.1 9.4,2.7 22.3,7.4 37.8,14.2 15.5,6.7 27.7,10.8 35.8,13.5 14.2,4 28.3,6.1 43.2,5.4 21.6,0 41.8,-6.1 60.7,-18.2 16.2,-10.8 32.4,-25.6 49.3,-45.9 10.8,-12.8 25,-32.4 43.2,-58.7 19.6,-29.7 37.1,-61.4 52,-96.5 5.4,-12.8 11.5,-28.3 16.9,-45.9 C 804,731 792.5,724.9 779.7,716.1 753.4,698.6 731.8,677 715.6,652 692.7,617.6 681.2,577.8 680.5,532.5 c 0,-37.1 8.8,-72.9 27,-105.3 12.8,-22.9 30.4,-43.9 51.3,-62.8 9.4,-8.8 19.6,-16.2 30.4,-22.9 -25.6,-37.8 -60.1,-64.8 -102.6,-81.7 -24.3,-9.4 -51.3,-15.5 -81,-17.5 -15.5,-1.3 -31.7,-0.7 -47.9,2 -13.5,2 -28.3,6.1 -43.9,10.8 -10.1,4 -22.9,8.8 -39.1,14.8 -16.2,6.7 -27.7,10.8 -33.7,12.8 -10.8,3.4 -20.2,5.4 -27,5.4 -8.8,0 -20.2,-2 -33.7,-6.7 -4,-1.3 -16.9,-6.7 -39.8,-15.5 -17.5,-6.7 -32.4,-12.1 -44.5,-15.5 -16.9,-4 -32.4,-6.1 -47.2,-6.1 C 206.3,245 167.1,256.4 130,279.4 92.9,301.7 63.9,332 42.3,370.5 14.2,418.4 0,475.8 0,541.3 0,600 10.1,660 31,722.8 c 18.9,57.4 43.9,108 74.2,151.8 17.5,26.3 32.4,46.6 44.5,60.7 17.5,21.6 35.1,37.1 52,47.9 20.3,12.9 40.6,19 62.2,19 z" />
  </defs>
  <path
     d="m 26.115883,99.179 c 1.335978,-0.06927 2.741227,-0.336468 4.077205,-0.732313 0.663041,-0.197923 1.801095,-0.66304 3.542814,-1.40525 1.464627,-0.603664 2.671955,-1.068782 3.740737,-1.335978 1.5339,-0.395845 3.137073,-0.603663 4.809518,-0.603663 1.672446,0 3.275619,0.197922 4.809519,0.603663 0.930236,0.267196 2.206837,0.732314 3.740737,1.40525 1.5339,0.663042 2.741227,1.068782 3.542813,1.335978 1.40525,0.395845 2.800605,0.603664 4.275128,0.534391 2.137563,0 4.136582,-0.603664 6.00695,-1.801096 1.603173,-1.068782 3.206345,-2.533408 4.878792,-4.542323 1.068782,-1.266704 2.474032,-3.206345 4.275127,-5.809027 1.939641,-2.93915 3.671464,-6.076223 5.145986,-9.549764 0.534391,-1.266705 1.138056,-2.800605 1.672447,-4.542323 C 79.564874,72.3407 78.426819,71.737036 77.160115,70.866177 74.557433,69.134354 72.419869,66.99679 70.816696,64.522759 68.550483,61.11849 67.412428,57.179831 67.343155,52.696885 c 0,-3.671464 0.87086,-7.214279 2.671954,-10.420624 1.266705,-2.266213 3.008424,-4.3444 5.076715,-6.214768 0.930235,-0.87086 1.939641,-1.603173 3.008423,-2.266214 -2.53341,-3.740736 -5.947573,-6.412691 -10.153428,-8.085137 -2.40476,-0.930236 -5.076715,-1.5339 -8.015865,-1.731822 -1.5339,-0.128651 -3.137072,-0.06927 -4.740245,0.197922 -1.335978,0.197922 -2.800604,0.603664 -4.3444,1.068782 -0.999509,0.395845 -2.266214,0.870859 -3.869387,1.464627 -1.603173,0.663041 -2.741227,1.068782 -3.334995,1.266704 -1.068782,0.336468 -1.999018,0.534391 -2.671955,0.534391 -0.870859,0 -1.999017,-0.197923 -3.334995,-0.66304 -0.395845,-0.12865 -1.672446,-0.663041 -3.938659,-1.5339 -1.731823,-0.663041 -3.206345,-1.197432 -4.403778,-1.5339 -1.672445,-0.395846 -3.206345,-0.603664 -4.670972,-0.603664 -4.205855,0.06927 -8.085137,1.197431 -11.756601,3.473541 C 9.1935035,29.85662 6.3236262,32.855147 4.1860624,36.665156 1.4052502,41.405402 0,47.08578 0,53.567744 c 0,5.809027 0.99950899,11.746705 3.0677998,17.961473 1.8703683,5.680378 4.3444005,10.687819 7.3429272,15.022323 1.731823,2.602682 3.206346,4.611597 4.403777,6.006951 1.731823,2.137563 3.473541,3.671463 5.145988,4.740245 2.008913,1.276601 4.017828,1.880264 6.155391,1.880264 z"
     style="overflow:visible;fill:#ffffff;stroke-width:0.0989613"
     id="path5" />
  <defs
     id="defs5">
    <path
       id="SVGID_43_"
       d="m 263.9,1002.2 c 13.5,-0.7 27.7,-3.4 41.2,-7.4 6.7,-2 18.2,-6.7 35.8,-14.2 14.8,-6.1 27,-10.8 37.8,-13.5 15.5,-4 31.7,-6.1 48.6,-6.1 16.9,0 33.1,2 48.6,6.1 9.4,2.7 22.3,7.4 37.8,14.2 15.5,6.7 27.7,10.8 35.8,13.5 14.2,4 28.3,6.1 43.2,5.4 21.6,0 41.8,-6.1 60.7,-18.2 16.2,-10.8 32.4,-25.6 49.3,-45.9 10.8,-12.8 25,-32.4 43.2,-58.7 19.6,-29.7 37.1,-61.4 52,-96.5 5.4,-12.8 11.5,-28.3 16.9,-45.9 C 804,731 792.5,724.9 779.7,716.1 753.4,698.6 731.8,677 715.6,652 692.7,617.6 681.2,577.8 680.5,532.5 c 0,-37.1 8.8,-72.9 27,-105.3 12.8,-22.9 30.4,-43.9 51.3,-62.8 9.4,-8.8 19.6,-16.2 30.4,-22.9 -25.6,-37.8 -60.1,-64.8 -102.6,-81.7 -24.3,-9.4 -51.3,-15.5 -81,-17.5 -15.5,-1.3 -31.7,-0.7 -47.9,2 -13.5,2 -28.3,6.1 -43.9,10.8 -10.1,4 -22.9,8.8 -39.1,14.8 -16.2,6.7 -27.7,10.8 -33.7,12.8 -10.8,3.4 -20.2,5.4 -27,5.4 -8.8,0 -20.2,-2 -33.7,-6.7 -4,-1.3 -16.9,-6.7 -39.8,-15.5 -17.5,-6.7 -32.4,-12.1 -44.5,-15.5 -16.9,-4 -32.4,-6.1 -47.2,-6.1 C 206.3,245 167.1,256.4 130,279.4 92.9,301.7 63.9,332 42.3,370.5 14.2,418.4 0,475.8 0,541.3 0,600 10.1,660 31,722.8 c 18.9,57.4 43.9,108 74.2,151.8 17.5,26.3 32.4,46.6 44.5,60.7 17.5,21.6 35.1,37.1 52,47.9 20.3,12.9 40.6,19 62.2,19 z" />
  </defs>
  <path
     d="m 26.115883,99.179 c 1.335978,-0.06927 2.741227,-0.336468 4.077205,-0.732313 0.663041,-0.197923 1.801095,-0.66304 3.542814,-1.40525 1.464627,-0.603664 2.671955,-1.068782 3.740737,-1.335978 1.5339,-0.395845 3.137073,-0.603663 4.809518,-0.603663 1.672446,0 3.275619,0.197922 4.809519,0.603663 0.930236,0.267196 2.206837,0.732314 3.740737,1.40525 1.5339,0.663042 2.741227,1.068782 3.542813,1.335978 1.40525,0.395845 2.800605,0.603664 4.275128,0.534391 2.137563,0 4.136582,-0.603664 6.00695,-1.801096 1.603173,-1.068782 3.206345,-2.533408 4.878792,-4.542323 1.068782,-1.266704 2.474032,-3.206345 4.275127,-5.809027 1.939641,-2.93915 3.671464,-6.076223 5.145986,-9.549764 0.534391,-1.266705 1.138056,-2.800605 1.672447,-4.542323 C 79.564874,72.3407 78.426819,71.737036 77.160115,70.866177 74.557433,69.134354 72.419869,66.99679 70.816696,64.522759 68.550483,61.11849 67.412428,57.179831 67.343155,52.696885 c 0,-3.671464 0.87086,-7.214279 2.671954,-10.420624 1.266705,-2.266213 3.008424,-4.3444 5.076715,-6.214768 0.930235,-0.87086 1.939641,-1.603173 3.008423,-2.266214 -2.53341,-3.740736 -5.947573,-6.412691 -10.153428,-8.085137 -2.40476,-0.930236 -5.076715,-1.5339 -8.015865,-1.731822 -1.5339,-0.128651 -3.137072,-0.06927 -4.740245,0.197922 -1.335978,0.197922 -2.800604,0.603664 -4.3444,1.068782 -0.999509,0.395845 -2.266214,0.870859 -3.869387,1.464627 -1.603173,0.663041 -2.741227,1.068782 -3.334995,1.266704 -1.068782,0.336468 -1.999018,0.534391 -2.671955,0.534391 -0.870859,0 -1.999017,-0.197923 -3.334995,-0.66304 -0.395845,-0.12865 -1.672446,-0.663041 -3.938659,-1.5339 -1.731823,-0.663041 -3.206345,-1.197432 -4.403778,-1.5339 -1.672445,-0.395846 -3.206345,-0.603664 -4.670972,-0.603664 -4.205855,0.06927 -8.085137,1.197431 -11.756601,3.473541 C 9.1935035,29.85662 6.3236262,32.855147 4.1860624,36.665156 1.4052502,41.405402 0,47.08578 0,53.567744 c 0,5.809027 0.99950899,11.746705 3.0677998,17.961473 1.8703683,5.680378 4.3444005,10.687819 7.3429272,15.022323 1.731823,2.602682 3.206346,4.611597 4.403777,6.006951 1.731823,2.137563 3.473541,3.671463 5.145988,4.740245 2.008913,1.276601 4.017828,1.880264 6.155391,1.880264 z"
     style="overflow:visible;fill:#ffffff;stroke-width:0.0989613"
     id="path6" />
  <defs
     id="defs6">
    <path
       id="SVGID_45_"
       d="m 263.9,1002.2 c 13.5,-0.7 27.7,-3.4 41.2,-7.4 6.7,-2 18.2,-6.7 35.8,-14.2 14.8,-6.1 27,-10.8 37.8,-13.5 15.5,-4 31.7,-6.1 48.6,-6.1 16.9,0 33.1,2 48.6,6.1 9.4,2.7 22.3,7.4 37.8,14.2 15.5,6.7 27.7,10.8 35.8,13.5 14.2,4 28.3,6.1 43.2,5.4 21.6,0 41.8,-6.1 60.7,-18.2 16.2,-10.8 32.4,-25.6 49.3,-45.9 10.8,-12.8 25,-32.4 43.2,-58.7 19.6,-29.7 37.1,-61.4 52,-96.5 5.4,-12.8 11.5,-28.3 16.9,-45.9 C 804,731 792.5,724.9 779.7,716.1 753.4,698.6 731.8,677 715.6,652 692.7,617.6 681.2,577.8 680.5,532.5 c 0,-37.1 8.8,-72.9 27,-105.3 12.8,-22.9 30.4,-43.9 51.3,-62.8 9.4,-8.8 19.6,-16.2 30.4,-22.9 -25.6,-37.8 -60.1,-64.8 -102.6,-81.7 -24.3,-9.4 -51.3,-15.5 -81,-17.5 -15.5,-1.3 -31.7,-0.7 -47.9,2 -13.5,2 -28.3,6.1 -43.9,10.8 -10.1,4 -22.9,8.8 -39.1,14.8 -16.2,6.7 -27.7,10.8 -33.7,12.8 -10.8,3.4 -20.2,5.4 -27,5.4 -8.8,0 -20.2,-2 -33.7,-6.7 -4,-1.3 -16.9,-6.7 -39.8,-15.5 -17.5,-6.7 -32.4,-12.1 -44.5,-15.5 -16.9,-4 -32.4,-6.1 -47.2,-6.1 C 206.3,245 167.1,256.4 130,279.4 92.9,301.7 63.9,332 42.3,370.5 14.2,418.4 0,475.8 0,541.3 0,600 10.1,660 31,722.8 c 18.9,57.4 43.9,108 74.2,151.8 17.5,26.3 32.4,46.6 44.5,60.7 17.5,21.6 35.1,37.1 52,47.9 20.3,12.9 40.6,19 62.2,19 z" />
  </defs>
  <path
     d="m 26.115883,99.179 c 1.335978,-0.06927 2.741227,-0.336468 4.077205,-0.732313 0.663041,-0.197923 1.801095,-0.66304 3.542814,-1.40525 1.464627,-0.603664 2.671955,-1.068782 3.740737,-1.335978 1.5339,-0.395845 3.137073,-0.603663 4.809518,-0.603663 1.672446,0 3.275619,0.197922 4.809519,0.603663 0.930236,0.267196 2.206837,0.732314 3.740737,1.40525 1.5339,0.663042 2.741227,1.068782 3.542813,1.335978 1.40525,0.395845 2.800605,0.603664 4.275128,0.534391 2.137563,0 4.136582,-0.603664 6.00695,-1.801096 1.603173,-1.068782 3.206345,-2.533408 4.878792,-4.542323 1.068782,-1.266704 2.474032,-3.206345 4.275127,-5.809027 1.939641,-2.93915 3.671464,-6.076223 5.145986,-9.549764 0.534391,-1.266705 1.138056,-2.800605 1.672447,-4.542323 C 79.564874,72.3407 78.426819,71.737036 77.160115,70.866177 74.557433,69.134354 72.419869,66.99679 70.816696,64.522759 68.550483,61.11849 67.412428,57.179831 67.343155,52.696885 c 0,-3.671464 0.87086,-7.214279 2.671954,-10.420624 1.266705,-2.266213 3.008424,-4.3444 5.076715,-6.214768 0.930235,-0.87086 1.939641,-1.603173 3.008423,-2.266214 -2.53341,-3.740736 -5.947573,-6.412691 -10.153428,-8.085137 -2.40476,-0.930236 -5.076715,-1.5339 -8.015865,-1.731822 -1.5339,-0.128651 -3.137072,-0.06927 -4.740245,0.197922 -1.335978,0.197922 -2.800604,0.603664 -4.3444,1.068782 -0.999509,0.395845 -2.266214,0.870859 -3.869387,1.464627 -1.603173,0.663041 -2.741227,1.068782 -3.334995,1.266704 -1.068782,0.336468 -1.999018,0.534391 -2.671955,0.534391 -0.870859,0 -1.999017,-0.197923 -3.334995,-0.66304 -0.395845,-0.12865 -1.672446,-0.663041 -3.938659,-1.5339 -1.731823,-0.663041 -3.206345,-1.197432 -4.403778,-1.5339 -1.672445,-0.395846 -3.206345,-0.603664 -4.670972,-0.603664 -4.205855,0.06927 -8.085137,1.197431 -11.756601,3.473541 C 9.1935035,29.85662 6.3236262,32.855147 4.1860624,36.665156 1.4052502,41.405402 0,47.08578 0,53.567744 c 0,5.809027 0.99950899,11.746705 3.0677998,17.961473 1.8703683,5.680378 4.3444005,10.687819 7.3429272,15.022323 1.731823,2.602682 3.206346,4.611597 4.403777,6.006951 1.731823,2.137563 3.473541,3.671463 5.145988,4.740245 2.008913,1.276601 4.017828,1.880264 6.155391,1.880264 z"
     style="overflow:visible;fill:#ffffff;stroke-width:0.0989613"
     id="path7" />
  <defs
     id="defs7">
    <path
       id="SVGID_47_"
       d="m 263.9,1002.2 c 13.5,-0.7 27.7,-3.4 41.2,-7.4 6.7,-2 18.2,-6.7 35.8,-14.2 14.8,-6.1 27,-10.8 37.8,-13.5 15.5,-4 31.7,-6.1 48.6,-6.1 16.9,0 33.1,2 48.6,6.1 9.4,2.7 22.3,7.4 37.8,14.2 15.5,6.7 27.7,10.8 35.8,13.5 14.2,4 28.3,6.1 43.2,5.4 21.6,0 41.8,-6.1 60.7,-18.2 16.2,-10.8 32.4,-25.6 49.3,-45.9 10.8,-12.8 25,-32.4 43.2,-58.7 19.6,-29.7 37.1,-61.4 52,-96.5 5.4,-12.8 11.5,-28.3 16.9,-45.9 C 804,731 792.5,724.9 779.7,716.1 753.4,698.6 731.8,677 715.6,652 692.7,617.6 681.2,577.8 680.5,532.5 c 0,-37.1 8.8,-72.9 27,-105.3 12.8,-22.9 30.4,-43.9 51.3,-62.8 9.4,-8.8 19.6,-16.2 30.4,-22.9 -25.6,-37.8 -60.1,-64.8 -102.6,-81.7 -24.3,-9.4 -51.3,-15.5 -81,-17.5 -15.5,-1.3 -31.7,-0.7 -47.9,2 -13.5,2 -28.3,6.1 -43.9,10.8 -10.1,4 -22.9,8.8 -39.1,14.8 -16.2,6.7 -27.7,10.8 -33.7,12.8 -10.8,3.4 -20.2,5.4 -27,5.4 -8.8,0 -20.2,-2 -33.7,-6.7 -4,-1.3 -16.9,-6.7 -39.8,-15.5 -17.5,-6.7 -32.4,-12.1 -44.5,-15.5 -16.9,-4 -32.4,-6.1 -47.2,-6.1 C 206.3,245 167.1,256.4 130,279.4 92.9,301.7 63.9,332 42.3,370.5 14.2,418.4 0,475.8 0,541.3 0,600 10.1,660 31,722.8 c 18.9,57.4 43.9,108 74.2,151.8 17.5,26.3 32.4,46.6 44.5,60.7 17.5,21.6 35.1,37.1 52,47.9 20.3,12.9 40.6,19 62.2,19 z" />
  </defs>
  <path
     d="m 26.115883,99.179 c 1.335978,-0.06927 2.741227,-0.336468 4.077205,-0.732313 0.663041,-0.197923 1.801095,-0.66304 3.542814,-1.40525 1.464627,-0.603664 2.671955,-1.068782 3.740737,-1.335978 1.5339,-0.395845 3.137073,-0.603663 4.809518,-0.603663 1.672446,0 3.275619,0.197922 4.809519,0.603663 0.930236,0.267196 2.206837,0.732314 3.740737,1.40525 1.5339,0.663042 2.741227,1.068782 3.542813,1.335978 1.40525,0.395845 2.800605,0.603664 4.275128,0.534391 2.137563,0 4.136582,-0.603664 6.00695,-1.801096 1.603173,-1.068782 3.206345,-2.533408 4.878792,-4.542323 1.068782,-1.266704 2.474032,-3.206345 4.275127,-5.809027 1.939641,-2.93915 3.671464,-6.076223 5.145986,-9.549764 0.534391,-1.266705 1.138056,-2.800605 1.672447,-4.542323 C 79.564874,72.3407 78.426819,71.737036 77.160115,70.866177 74.557433,69.134354 72.419869,66.99679 70.816696,64.522759 68.550483,61.11849 67.412428,57.179831 67.343155,52.696885 c 0,-3.671464 0.87086,-7.214279 2.671954,-10.420624 1.266705,-2.266213 3.008424,-4.3444 5.076715,-6.214768 0.930235,-0.87086 1.939641,-1.603173 3.008423,-2.266214 -2.53341,-3.740736 -5.947573,-6.412691 -10.153428,-8.085137 -2.40476,-0.930236 -5.076715,-1.5339 -8.015865,-1.731822 -1.5339,-0.128651 -3.137072,-0.06927 -4.740245,0.197922 -1.335978,0.197922 -2.800604,0.603664 -4.3444,1.068782 -0.999509,0.395845 -2.266214,0.870859 -3.869387,1.464627 -1.603173,0.663041 -2.741227,1.068782 -3.334995,1.266704 -1.068782,0.336468 -1.999018,0.534391 -2.671955,0.534391 -0.870859,0 -1.999017,-0.197923 -3.334995,-0.66304 -0.395845,-0.12865 -1.672446,-0.663041 -3.938659,-1.5339 -1.731823,-0.663041 -3.206345,-1.197432 -4.403778,-1.5339 -1.672445,-0.395846 -3.206345,-0.603664 -4.670972,-0.603664 -4.205855,0.06927 -8.085137,1.197431 -11.756601,3.473541 C 9.1935035,29.85662 6.3236262,32.855147 4.1860624,36.665156 1.4052502,41.405402 0,47.08578 0,53.567744 c 0,5.809027 0.99950899,11.746705 3.0677998,17.961473 1.8703683,5.680378 4.3444005,10.687819 7.3429272,15.022323 1.731823,2.602682 3.206346,4.611597 4.403777,6.006951 1.731823,2.137563 3.473541,3.671463 5.145988,4.740245 2.008913,1.276601 4.017828,1.880264 6.155391,1.880264 z"
     style="overflow:visible;fill:#ffffff;stroke-width:0.0989613"
     id="path8" />
  <path
     class="st1"
     d="m 115.70554,34.824476 c 0.28698,0 0.52449,0.03958 0.72241,0.128651 0.19792,0.08906 0.35626,0.296883 0.46512,0.643247 l 11.33107,34.428631 c 0.22761,0.682834 0.42553,1.019302 0.59377,1.019302 0.22761,0 0.45522,-0.30678 0.68283,-0.940132 l 11.16283,-33.834863 c 0.10886,-0.455223 0.26719,-0.811484 0.46512,-1.068783 0.19793,-0.2573 0.5245,-0.385949 0.97972,-0.385949 H 153.103 c 0.79169,0 1.19743,0.366157 1.19743,1.09847 0,0.455223 -0.12865,0.752106 -0.38595,0.890653 -0.25729,0.138545 -0.58387,0.237506 -0.97971,0.296883 -0.39584,0.05938 -0.84117,0.09896 -1.32609,0.12865 -0.4849,0.02969 -0.97971,0.158338 -1.4943,0.385949 -0.62346,0.286988 -1.00941,0.633352 -1.14796,1.058886 -0.13855,0.425533 -0.21772,1.197431 -0.21772,2.325589 v 2.028707 l 0.94014,37.080794 c 0.0594,1.524003 0.15834,2.622474 0.29689,3.305306 0.13854,0.672938 0.66303,1.217225 1.57347,1.613069 0.51461,0.227611 1.01931,0.356262 1.53391,0.376054 0.5146,0.02969 0.95002,0.05938 1.31619,0.07917 0.36615,0.02969 0.66304,0.128651 0.89065,0.296884 0.22761,0.168235 0.33646,0.514599 0.33646,1.019302 0,0.336468 -0.15833,0.643248 -0.46511,0.890651 -0.31668,0.257299 -0.75211,0.385949 -1.31619,0.385949 -0.91044,0 -1.99901,-0.09896 -3.28551,-0.296883 -1.2766,-0.197923 -2.77092,-0.296884 -4.47306,-0.296884 -1.87036,0 -3.51312,0.09896 -4.89857,0.296884 -1.39536,0.197922 -2.48393,0.296883 -3.28553,0.296883 -1.13805,0 -1.70212,-0.455222 -1.70212,-1.365665 0,-0.851067 0.42553,-1.276601 1.27659,-1.276601 1.07869,0 1.91985,-0.07917 2.51362,-0.257299 0.59377,-0.168235 1.04899,-0.465119 1.36567,-0.890652 0.31668,-0.425533 0.49481,-0.969821 0.55418,-1.652654 0.0594,-0.672936 0.0891,-1.524004 0.0891,-2.543304 v -1.949538 l -0.59377,-31.321247 c 0,-0.623456 -0.13854,-0.930236 -0.42554,-0.930236 -0.16823,0 -0.33647,0.286988 -0.5146,0.851067 l -12.52849,38.347499 c -0.287,0.851067 -0.74222,1.2766 -1.36567,1.2766 -0.74221,0 -1.19743,-0.336469 -1.36567,-1.019301 L 112.51899,46.828481 c -0.28699,-0.732314 -0.48492,-1.098471 -0.59378,-1.098471 -0.28699,0 -0.45522,0.534391 -0.5146,1.613069 l -1.44483,25.898169 c -0.0594,0.959924 -0.099,1.830784 -0.12865,2.622474 -0.0297,0.79169 -0.0396,1.494315 -0.0396,2.117771 0,2.652163 0.22761,4.581908 0.68283,5.799132 0.45522,1.217223 1.50421,1.820888 3.15686,1.820888 0.16824,0 0.33647,-0.0099 0.5146,-0.03958 0.16823,-0.02969 0.36616,-0.03958 0.59378,-0.03958 1.07867,0 1.62295,0.425534 1.62295,1.276601 0,0.910444 -0.71251,1.365665 -2.12766,1.365665 -0.62346,0 -1.43494,-0.05938 -2.42456,-0.168233 -0.98961,-0.108858 -2.14745,-0.168235 -3.45374,-0.168235 -1.13805,0 -2.14746,0.05938 -3.02822,0.168235 -0.88075,0.118753 -1.63286,0.168233 -2.25632,0.168233 -1.36566,0 -2.0485,-0.455221 -2.0485,-1.365665 0,-0.851067 0.39585,-1.276601 1.19744,-1.276601 0.33647,0 0.64325,0.0099 0.89065,0.03958 0.2573,0.02969 0.46511,0.03958 0.64324,0.03958 0.74222,0 1.33599,-0.237508 1.79121,-0.722418 0.45522,-0.475014 0.79168,-1.256809 1.01929,-2.325591 0.22761,-1.068781 0.39586,-2.464135 0.51461,-4.186062 0.10886,-1.721926 0.22761,-3.849593 0.33647,-6.392899 l 1.44485,-28.93628 c 0,-0.108857 0.01,-0.30678 0.0396,-0.593768 0.0297,-0.286987 0.0396,-0.653145 0.0396,-1.09847 0,-1.296393 -0.11876,-2.196941 -0.33647,-2.71154 -0.22761,-0.504701 -0.74221,-0.900547 -1.53389,-1.187534 -0.51461,-0.168235 -0.98962,-0.267196 -1.44484,-0.296884 -0.45522,-0.02969 -0.85107,-0.05938 -1.19743,-0.08906 -0.33648,-0.02969 -0.61357,-0.108858 -0.81149,-0.257299 -0.19792,-0.138547 -0.29688,-0.43543 -0.29688,-0.890653 0,-0.742209 0.39584,-1.108366 1.19743,-1.108366 h 11.18263 z"
     style="fill:#ffffff;stroke-width:0.0989613"
     id="path9" />
  <path
     class="st1"
     d="m 180.78248,78.634637 c 0,1.820888 0.10886,3.186554 0.33647,4.087102 0.22761,0.910443 0.82137,1.365666 1.79119,1.365666 0.62346,0 1.19744,-0.286988 1.70214,-0.851067 0.5146,-0.56408 1.0193,-0.851068 1.5339,-0.851068 0.68283,0 1.0193,0.425534 1.0193,1.276601 0,0.455222 -0.2573,1.009405 -0.7719,1.662549 -0.5146,0.653145 -1.11826,1.296393 -1.83078,1.91985 -0.71252,0.623455 -1.47453,1.167742 -2.3058,1.622965 -0.82138,0.455222 -1.57349,0.682832 -2.26622,0.682832 -1.48441,0 -2.71154,-0.48491 -3.68135,-1.444834 -0.96983,-0.969821 -1.77141,-2.414656 -2.39487,-4.3444 h -0.51459 l -1.8011,1.533899 c -1.48442,1.246912 -2.87977,2.315694 -4.18607,3.196449 -1.31618,0.880756 -2.76102,1.316185 -4.36418,1.316185 -1.82089,0 -3.29541,-0.613559 -4.40378,-1.830783 -1.10837,-1.217224 -1.66255,-2.909461 -1.66255,-5.066818 0,-1.870368 0.31668,-3.523022 0.94013,-4.938168 0.62345,-1.415147 1.53389,-2.71154 2.74123,-3.879282 1.19743,-1.167744 2.63237,-2.256318 4.31471,-3.285516 1.68234,-1.029196 3.55271,-2.048497 5.60121,-3.067799 l 2.13756,-1.108366 c 0.45523,-0.227611 0.72242,-0.465118 0.81149,-0.722418 0.0891,-0.257299 0.12865,-0.692729 0.12865,-1.316185 v -6.046534 c 0,-2.384967 -0.18803,-4.11679 -0.55419,-5.195468 -0.36616,-1.078678 -1.29639,-1.622965 -2.78081,-1.622965 -1.48442,0 -2.65216,0.494806 -3.50323,1.494316 -0.85107,0.989613 -1.68234,2.404759 -2.48393,4.21575 -0.63335,1.425043 -1.32608,2.632371 -2.09797,3.621983 -0.77191,0.999509 -2.00892,1.494315 -3.72095,1.494315 -0.45522,0 -0.84117,-0.138545 -1.15785,-0.425532 -0.31667,-0.286989 -0.46512,-0.653145 -0.46512,-1.108368 0,-1.246911 0.38595,-2.582888 1.15785,-4.007931 0.7719,-1.415147 1.85058,-2.711539 3.24593,-3.879283 1.39536,-1.167743 3.048,-2.127668 4.95796,-2.899566 1.90996,-0.762001 3.97825,-1.14795 6.20487,-1.14795 1.82089,0 3.29542,0.217715 4.40378,0.643248 1.10836,0.425533 1.94954,1.04899 2.52351,1.870369 0.57398,0.821378 0.94013,1.850576 1.10836,3.067799 0.16824,1.22712 0.25731,2.63237 0.25731,4.215751 v 19.752672 z m -7.50127,-9.628932 c -0.16823,0 -0.45522,0.118753 -0.85107,0.336468 l -2.8105,1.365666 c -3.35478,1.702134 -5.02723,4.542322 -5.02723,8.520566 0,1.652654 0.29689,2.899566 0.89065,3.750633 0.59377,0.851067 1.37556,1.2766 2.34539,1.2766 0.68283,0 1.36566,-0.188026 2.04849,-0.554183 0.68284,-0.366156 1.30629,-0.880755 1.87037,-1.533899 0.56408,-0.653145 1.0391,-1.434939 1.40525,-2.345383 0.36616,-0.910444 0.55419,-1.929745 0.55419,-3.0678 v -6.729368 c 0,-0.682832 -0.14845,-1.0193 -0.42554,-1.0193 z"
     style="fill:#ffffff;stroke-width:0.0989613"
     id="path10" />
  <path
     class="st1"
     d="m 206.7895,49.559812 c 1.19744,0.30678 2.22663,0.702625 3.10739,1.197431 0.88075,0.494807 1.59327,1.04899 2.12766,1.672446 0.5344,0.623456 0.81149,1.306289 0.81149,2.048499 0,2.157356 -0.21771,3.849594 -0.64326,5.066818 -0.42553,1.227119 -0.97971,1.830784 -1.66254,1.830784 -0.80158,0 -1.56359,-0.821379 -2.3058,-2.474033 -0.5146,-1.078678 -0.96982,-2.088083 -1.36567,-3.028215 -0.39584,-0.940133 -0.82137,-1.721927 -1.27659,-2.345383 -0.45522,-0.623455 -0.95003,-1.118262 -1.49432,-1.494315 -0.54429,-0.366157 -1.20733,-0.554183 -1.99901,-0.554183 -1.01931,0 -2.07819,0.385949 -3.15688,1.147951 -1.07867,0.762001 -2.04849,1.860472 -2.89956,3.305307 -0.85107,1.444835 -1.55369,3.176657 -2.08808,5.21526 -0.54429,2.038602 -0.81149,4.354296 -0.81149,6.956978 0,2.662058 0.29689,5.037129 0.89066,7.125212 0.59377,2.088083 1.41514,3.859491 2.47402,5.304325 1.049,1.444835 2.28601,2.543305 3.71106,3.305307 1.41514,0.762002 2.97873,1.147951 4.69077,1.147951 1.07867,0 2.05838,-0.188027 2.93914,-0.554183 0.88076,-0.366157 1.62296,-0.781794 2.21674,-1.237017 0.59376,-0.455221 1.07867,-0.860963 1.44483,-1.237015 0.36615,-0.366157 0.64324,-0.554183 0.81148,-0.554183 0.73232,0 1.10837,0.366156 1.10837,1.108366 0,0.514599 -0.29688,1.177639 -0.89065,1.999018 -0.59377,0.821379 -1.42505,1.622965 -2.47403,2.384966 -1.049,0.771899 -2.3157,1.43494 -3.79022,1.999019 -1.47452,0.564079 -3.0678,0.851067 -4.76994,0.851067 -2.2761,0 -4.37408,-0.465119 -6.30383,-1.40525 -1.92975,-0.940133 -3.61208,-2.27611 -5.02723,-4.007932 -1.42504,-1.731823 -2.52352,-3.829802 -3.3251,-6.303834 -0.79169,-2.474033 -1.19744,-5.244948 -1.19744,-8.312749 0,-3.176657 0.43544,-6.036638 1.32609,-8.56015 0.88075,-2.523514 2.08808,-4.690766 3.62198,-6.481965 1.5339,-1.791199 3.35479,-3.166761 5.45276,-4.136581 2.09798,-0.969821 4.40378,-1.444835 6.90751,-1.444835 1.36566,0.0099 2.64226,0.158338 3.83969,0.465118 z"
     style="fill:#ffffff;stroke-width:0.0989613"
     id="path11" />
  <path
     class="st1"
     d="m 225.31505,81.583684 c 0,1.019301 0.099,1.791199 0.29689,2.305798 0.19793,0.514599 0.55418,0.910443 1.06878,1.197432 0.45522,0.22761 0.89065,0.366156 1.31618,0.425533 0.42554,0.05938 0.7917,0.12865 1.10837,0.217715 0.30678,0.08906 0.56408,0.217715 0.7719,0.385948 0.19792,0.168235 0.29688,0.455222 0.29688,0.851068 0,0.910443 -0.5146,1.365666 -1.53389,1.365666 -0.85108,0 -1.87037,-0.09896 -3.0579,-0.296884 -1.18755,-0.197923 -2.45425,-0.296884 -3.80012,-0.296884 -1.45473,0 -2.70165,0.09896 -3.71105,0.296884 -1.01931,0.197923 -1.84068,0.296884 -2.46413,0.296884 -0.85108,0 -1.27661,-0.484911 -1.27661,-1.444836 0,-0.395844 0.0693,-0.682832 0.21771,-0.851066 0.13855,-0.168234 0.33647,-0.286988 0.59378,-0.336469 0.2573,-0.05938 0.52449,-0.09896 0.81148,-0.12865 0.28699,-0.02969 0.59376,-0.128649 0.94013,-0.296883 0.62345,-0.336469 1.00941,-0.752106 1.14795,-1.237016 0.13855,-0.48491 0.21772,-1.296393 0.21772,-2.424552 V 61.474751 c 0,-1.533901 -0.18803,-2.553202 -0.55418,-3.067801 -0.36617,-0.514598 -0.77191,-0.84117 -1.19744,-0.979716 -0.42553,-0.138546 -0.82138,-0.227611 -1.19743,-0.257299 -0.36616,-0.02969 -0.55419,-0.326572 -0.55419,-0.890652 0,-0.623456 0.38596,-1.138055 1.14796,-1.533899 0.77189,-0.395846 1.86047,-0.989613 3.26572,-1.7912 0.84117,-0.514599 1.55369,-1.019301 2.14746,-1.5339 0.58387,-0.514599 1.07867,-0.969821 1.47452,-1.365665 0.39585,-0.395846 0.71253,-0.722418 0.96982,-0.979718 0.2573,-0.257299 0.49481,-0.385948 0.71252,-0.385948 0.56408,0 0.84117,0.593767 0.84117,1.791198 z m -0.5146,-46.016998 c 0.74222,0.969821 1.10838,2.048499 1.10838,3.236034 0,1.197432 -0.36616,2.27611 -1.10838,3.236034 -0.7422,0.969821 -1.62295,1.444835 -2.64226,1.444835 -1.0193,0 -1.90005,-0.48491 -2.64227,-1.444835 -0.74221,-0.96982 -1.10836,-2.048498 -1.10836,-3.236034 0,-1.197431 0.36615,-2.27611 1.10836,-3.236034 0.74222,-0.969821 1.62297,-1.444835 2.64227,-1.444835 1.01931,-0.0099 1.90006,0.475014 2.64226,1.444835 z"
     style="fill:#ffffff;stroke-width:0.0989613"
     id="path12" />
  <path
     class="st1"
     d="m 242.62338,54.260473 c 0,0.74221 0.0792,1.108366 0.2573,1.108366 0.16824,0 0.39585,-0.168234 0.68283,-0.514598 l 0.93025,-1.108367 c 1.18753,-1.474523 2.56309,-2.612578 4.11678,-3.404268 1.5537,-0.79169 3.18655,-1.197432 4.88869,-1.197432 3.51312,0 6.24445,1.207328 8.19399,3.621983 1.95944,2.414656 2.92925,5.977262 2.92925,10.697716 v 18.317733 c 0,1.761512 0.42554,2.929254 1.27661,3.493334 0.39584,0.227611 0.81148,0.366157 1.23701,0.425533 0.42553,0.05938 0.81149,0.118754 1.14796,0.168235 0.33647,0.05938 0.61356,0.168234 0.81148,0.336468 0.19792,0.168234 0.29688,0.484911 0.29688,0.940132 0,0.910444 -0.5146,1.365666 -1.53389,1.365666 -0.8016,0 -1.76152,-0.09896 -2.88968,-0.296884 -1.12816,-0.197922 -2.42454,-0.296884 -3.88918,-0.296884 -1.45473,0 -2.71154,0.09896 -3.76052,0.296884 -1.049,0.197922 -1.85058,0.296884 -2.42455,0.296884 -0.91045,0 -1.36567,-0.48491 -1.36567,-1.444835 0,-0.395845 0.0693,-0.682833 0.21771,-0.851067 0.13855,-0.168234 0.33647,-0.286987 0.59377,-0.336468 0.2573,-0.05938 0.53439,-0.09896 0.85107,-0.12865 0.30678,-0.02969 0.64325,-0.128649 0.97971,-0.296884 0.68283,-0.336468 1.07869,-0.781794 1.19744,-1.326081 0.10886,-0.534391 0.16823,-1.316185 0.16823,-2.345383 V 64.562343 c 0,-3.404268 -0.63336,-5.977262 -1.89016,-7.709084 -1.25681,-1.731823 -3.0579,-2.602682 -5.40329,-2.602682 -2.16725,0 -3.93866,0.742209 -5.31422,2.216732 -1.37556,1.474524 -2.05839,3.750633 -2.05839,6.818433 v 18.495864 c 0,0.969821 0.0693,1.721927 0.21771,2.256318 0.13855,0.544287 0.4948,0.950028 1.06879,1.237016 0.51459,0.286987 0.96982,0.445326 1.36566,0.465118 0.39584,0.02969 0.7521,0.06927 1.06878,0.12865 0.30679,0.05938 0.55419,0.168234 0.72242,0.336468 0.16823,0.168234 0.2573,0.514599 0.2573,1.019301 0,0.851067 -0.5146,1.276601 -1.5339,1.276601 -0.79169,0 -1.76151,-0.09896 -2.88967,-0.296885 -1.12816,-0.197921 -2.39487,-0.296883 -3.80011,-0.296883 -1.45474,0 -2.70164,0.09896 -3.71106,0.296883 -1.01929,0.197923 -1.84067,0.296885 -2.46413,0.296885 -0.91044,0 -1.36566,-0.48491 -1.36566,-1.444835 0,-0.395845 0.0693,-0.682833 0.21771,-0.851067 0.13855,-0.168234 0.32657,-0.286988 0.55418,-0.336468 0.22761,-0.05938 0.49481,-0.09896 0.81148,-0.12865 0.30679,-0.02969 0.64326,-0.128649 0.97972,-0.296884 0.62346,-0.286988 1.0193,-0.682833 1.19743,-1.197432 0.16823,-0.514599 0.2573,-1.335977 0.2573,-2.474032 V 61.672673 c 0,-1.5339 -0.18803,-2.553201 -0.55418,-3.0678 -0.36616,-0.514599 -0.78179,-0.821378 -1.23701,-0.940131 -0.45522,-0.108858 -0.87087,-0.188027 -1.23702,-0.217715 -0.36616,-0.02969 -0.55419,-0.326572 -0.55419,-0.890653 0,-0.564079 0.36616,-1.068782 1.10837,-1.494314 0.74221,-0.425534 1.82089,-1.068782 3.23604,-1.91985 1.64275,-0.96982 2.8006,-1.900057 3.48343,-2.8105 0.68283,-0.910444 1.2766,-1.365666 1.78131,-1.365666 0.16823,0 0.33647,0.138546 0.5047,0.425533 0.16823,0.286988 0.2573,0.74221 0.2573,1.365666 v 3.50323 z"
     style="fill:#ffffff;stroke-width:0.0989613"
     id="path13" />
  <path
     class="st1"
     d="m 276.93326,49.569708 c 0,0.74221 0.36616,1.108366 1.10836,1.108366 h 6.39291 c 0.5146,0 0.82137,0.05938 0.94013,0.168235 0.10885,0.118753 0.16823,0.336468 0.16823,0.682832 v 1.712031 c 0,0.455222 -0.0594,0.762002 -0.16823,0.940131 -0.11876,0.168235 -0.42553,0.2573 -0.94013,0.2573 h -6.47207 c -0.68284,0 -1.0193,0.366157 -1.0193,1.108367 v 21.563663 c 0,2.671955 0.2375,4.621493 0.72241,5.838716 0.48491,1.22712 1.37557,1.830784 2.68185,1.830784 0.62347,0 1.17765,-0.108857 1.66256,-0.336468 0.4849,-0.227611 0.92033,-0.494807 1.31618,-0.811483 0.39585,-0.306779 0.75211,-0.583871 1.06878,-0.811482 0.30678,-0.227611 0.61356,-0.336468 0.89065,-0.336468 0.56408,0 0.85107,0.395844 0.85107,1.197431 0,0.395846 -0.2573,0.940133 -0.7719,1.622965 -0.5146,0.682833 -1.20732,1.365666 -2.08808,2.048499 -0.88076,0.682833 -1.90005,1.266704 -3.0678,1.751615 -1.16774,0.48491 -2.39487,0.722417 -3.70115,0.722417 -4.44337,0 -6.6601,-3.602191 -6.6601,-10.826364 v -3.582399 l 0.33647,-18.317735 c 0,-0.79169 -0.0594,-1.434938 -0.16824,-1.919848 -0.10885,-0.484911 -0.45522,-0.722418 -1.01929,-0.722418 h -1.53391 c -1.01929,0 -1.53389,-0.366156 -1.53389,-1.108366 0,-0.336468 0.13854,-0.653144 0.42553,-0.940132 0.28699,-0.286987 0.68283,-0.593768 1.19743,-0.940132 0.5146,-0.336469 1.08858,-0.762002 1.74172,-1.276601 0.65314,-0.514599 1.36567,-1.197431 2.13757,-2.048498 1.33597,-1.593278 2.31569,-2.949047 2.95894,-4.087102 0.63335,-1.138054 1.20732,-1.702133 1.70213,-1.702133 0.38595,0 0.62346,0.188025 0.70263,0.554183 0.0792,0.366156 0.12865,0.870859 0.12865,1.494315 v 5.165779 z"
     style="fill:#ffffff;stroke-width:0.0989613"
     id="path14" />
  <path
     class="st1"
     d="m 285.48351,61.078906 c 0.85108,-2.503721 2.07819,-4.631389 3.66158,-6.3929 1.59327,-1.76151 3.49333,-3.127177 5.71006,-4.0871 2.21674,-0.969821 4.69077,-1.444836 7.4122,-1.444836 2.61258,0 4.99754,0.494807 7.1549,1.494316 2.15736,0.989613 3.98814,2.384967 5.49235,4.176166 1.50422,1.7912 2.67195,3.93866 3.49334,6.432484 0.82137,2.503721 1.23701,5.284532 1.23701,8.352332 0,3.008423 -0.42553,5.769443 -1.2766,8.263267 -0.85107,2.503721 -2.05839,4.631389 -3.62198,6.392899 -1.56359,1.761511 -3.48344,3.127177 -5.74965,4.087102 -2.27611,0.969821 -4.82932,1.444834 -7.6695,1.444834 -2.55321,0 -4.88869,-0.494805 -6.98666,-1.494315 -2.10788,-0.989613 -3.90898,-2.384967 -5.41319,-4.176166 -1.50421,-1.7912 -2.67195,-3.928763 -3.49334,-6.432483 -0.82137,-2.503721 -1.23701,-5.254845 -1.23701,-8.263268 0.01,-3.067799 0.43543,-5.858508 1.28649,-8.352332 z m 8.95601,-5.205364 c -1.76152,2.899566 -2.64227,7.016355 -2.64227,12.360265 0,6.026742 0.95003,10.727402 2.85998,14.101982 1.90005,3.384477 4.38398,5.066818 7.45179,5.066818 3.12717,0 5.58141,-1.464626 7.37261,-4.39388 1.7912,-2.929254 2.68185,-7.026252 2.68185,-12.310785 0,-6.016846 -0.95003,-10.727403 -2.85009,-14.101982 -1.90005,-3.37458 -4.36418,-5.066819 -7.37262,-5.066819 -3.24592,0 -5.74965,1.454731 -7.50125,4.344401 z"
     style="fill:#ffffff;stroke-width:0.0989613"
     id="path15" />
  <path
     class="st1"
     d="m 340.25859,50.242644 c 1.30628,0.732314 1.95943,1.84068 1.95943,3.334996 0,1.989122 -0.0891,3.453749 -0.25729,4.383985 -0.16824,0.940132 -0.5443,1.40525 -1.10838,1.40525 -0.62345,0 -0.98961,-0.395844 -1.10836,-1.197431 -0.11875,-0.79169 -0.5146,-1.791199 -1.19744,-2.978735 -1.42503,-2.444344 -3.2954,-3.661568 -5.621,-3.661568 -1.65264,0 -2.96883,0.465118 -3.95844,1.405251 -0.98962,0.930236 -1.49432,2.137564 -1.49432,3.60219 0,0.959925 0.19792,1.771407 0.59376,2.414655 0.39586,0.653145 0.96983,1.256809 1.70214,1.820888 0.74221,0.56408 1.63287,1.118263 2.68185,1.652654 1.04899,0.534391 2.22663,1.147951 3.53292,1.820888 2.78081,1.474523 4.82931,3.127176 6.1356,4.967856 1.30629,1.84068 1.95943,4.146478 1.95943,6.917394 0,2.14746 -0.32657,4.077205 -0.97971,5.769442 -0.65315,1.692239 -1.57349,3.127177 -2.77092,4.285025 -1.19743,1.157847 -2.60268,2.048499 -4.21575,2.671954 -1.62296,0.623456 -3.39437,0.930236 -5.32412,0.930236 -1.92974,0 -3.66156,-0.217714 -5.19547,-0.643248 -1.53389,-0.425534 -2.70164,-0.890651 -3.49333,-1.40525 -0.5146,-0.286987 -0.82137,-0.653145 -0.94013,-1.108367 -0.11875,-0.455221 -0.16823,-1.078678 -0.16823,-1.870368 v -2.127668 c 0,-2.32559 0.0594,-4.017828 0.16823,-5.066817 0.10886,-1.04899 0.48491,-1.573485 1.10836,-1.573485 0.39585,0 0.68284,0.138546 0.85107,0.425534 0.16824,0.286988 0.32658,0.692728 0.46512,1.237015 0.13855,0.544287 0.30678,1.197432 0.5146,1.959434 0.19792,0.762002 0.52449,1.632861 0.97971,2.602682 1.59329,3.463645 3.8595,5.195467 6.81844,5.195467 1.82089,0 3.30531,-0.623456 4.47305,-1.870368 1.16774,-1.246911 1.75161,-2.929254 1.75161,-5.027233 0,-1.078678 -0.18802,-2.028706 -0.55418,-2.850085 -0.36615,-0.821379 -0.91044,-1.563588 -1.62297,-2.216733 -0.71252,-0.653144 -1.57348,-1.276601 -2.60268,-1.870368 -1.0193,-0.593768 -2.15735,-1.237016 -3.40426,-1.919849 -1.42504,-0.74221 -2.67196,-1.464627 -3.75063,-2.177149 -1.07869,-0.71252 -1.98913,-1.474522 -2.73133,-2.305797 -0.74222,-0.821379 -1.2964,-1.761511 -1.66256,-2.810501 -0.36615,-1.04899 -0.55418,-2.286006 -0.55418,-3.711048 0,-3.523021 1.08857,-6.323626 3.28551,-8.391917 2.18705,-2.078187 4.98765,-3.107385 8.39192,-3.107385 3.5923,-0.0099 6.03664,0.356261 7.34293,1.088574 z"
     style="fill:#ffffff;stroke-width:0.0989613"
     id="path16" />
  <path
     class="st1"
     d="m 355.12258,54.260473 c 0,0.74221 0.0594,1.108366 0.16823,1.108366 0.16823,0 0.39584,-0.168234 0.68283,-0.514598 l 0.85106,-1.108367 c 1.07869,-1.415147 2.35528,-2.543305 3.83971,-3.364683 1.47452,-0.821379 3.00842,-1.237017 4.60169,-1.237017 3.40428,0 6.06633,1.167744 7.96638,3.493334 1.90006,2.32559 2.8501,5.650689 2.8501,9.975297 v 19.089633 c 0,0.910443 0.0594,1.622965 0.16823,2.127667 0.10886,0.514599 0.39585,0.910444 0.85107,1.197431 0.45522,0.336469 0.85106,0.554183 1.19742,0.643249 0.33648,0.08906 0.64326,0.168234 0.89066,0.2573 0.2573,0.08906 0.45522,0.217715 0.59377,0.385948 0.13854,0.168235 0.21771,0.484911 0.21771,0.940133 0,0.79169 -0.42553,1.197431 -1.2766,1.197431 -0.62346,0 -1.46463,-0.08907 -2.50372,-0.2573 -1.04899,-0.168233 -2.26621,-0.257299 -3.67147,-0.257299 -1.45472,0 -2.77091,0.08906 -3.92875,0.257299 -1.15786,0.168235 -2.13757,0.2573 -2.92926,0.2573 -1.01931,0 -1.5339,-0.455221 -1.5339,-1.365666 0,-0.395844 0.0891,-0.682832 0.2573,-0.851067 0.16823,-0.168234 0.39584,-0.286987 0.68283,-0.336468 0.28699,-0.05938 0.61356,-0.108858 0.97972,-0.168234 0.36616,-0.05938 0.7521,-0.168235 1.14795,-0.336468 0.85107,-0.395846 1.36567,-0.851067 1.5339,-1.365666 0.16823,-0.514599 0.2573,-1.276601 0.2573,-2.305798 V 64.502966 c 0,-6.87781 -2.25632,-10.311766 -6.76896,-10.311766 -2.05838,0 -3.76052,0.742209 -5.1064,2.216733 -1.34587,1.474523 -2.0188,3.750632 -2.0188,6.818433 V 81.72223 c 0,0.851067 0.0891,1.563588 0.2573,2.127667 0.16823,0.56408 0.51459,1.019302 1.01929,1.365666 0.39585,0.286988 0.79169,0.445326 1.19744,0.465118 0.39584,0.02969 0.7521,0.08906 1.06878,0.168234 0.31667,0.08907 0.56407,0.217715 0.77189,0.385949 0.19792,0.168235 0.29689,0.514599 0.29689,1.019302 0,0.79169 -0.48491,1.197431 -1.44483,1.197431 -0.56408,0 -1.41515,-0.08907 -2.55321,-0.2573 -1.12816,-0.168233 -2.51361,-0.257299 -4.13658,-0.257299 -1.63286,0 -3.00842,0.08906 -4.13658,0.257299 -1.12816,0.168235 -2.0386,0.2573 -2.72143,0.2573 -1.01931,0 -1.53391,-0.455221 -1.53391,-1.365666 0,-0.395844 0.0891,-0.66304 0.2573,-0.811482 0.16824,-0.138546 0.38595,-0.237507 0.64325,-0.296884 0.25731,-0.05938 0.56408,-0.108857 0.94014,-0.168235 0.36615,-0.05938 0.78179,-0.168233 1.23701,-0.336468 0.91045,-0.336468 1.43494,-0.781794 1.57349,-1.326081 0.13854,-0.534391 0.21771,-1.345873 0.21771,-2.424551 V 39.178773 c 0,-1.246912 -0.19792,-2.127668 -0.59377,-2.642266 -0.39584,-0.514599 -0.82138,-0.860964 -1.2766,-1.068783 -0.45522,-0.197922 -0.88075,-0.336468 -1.2766,-0.425533 -0.39584,-0.08906 -0.59376,-0.356261 -0.59376,-0.811482 0,-0.623457 0.38595,-1.039094 1.14794,-1.237016 0.762,-0.197923 1.69225,-0.494807 2.77092,-0.890652 1.96933,-0.742209 3.41416,-1.434939 4.33451,-2.088083 0.93023,-0.653145 1.53389,-0.979717 1.81098,-0.979717 0.44534,0 0.73232,0.138546 0.84118,0.425534 0.10886,0.286988 0.16823,0.682832 0.16823,1.197431 0,0.79169 -0.0396,1.672446 -0.12865,2.642266 -0.0891,0.969821 -0.12864,2.018811 -0.12864,3.156865 v 17.803136 z"
     style="fill:#ffffff;stroke-width:0.0989613"
     id="path17" />
</svg>
