<?xml version="1.0" encoding="UTF-8" standalone="no"?>
<!-- Generator: Adobe Illustrator 22.0.0, SVG Export Plug-In . SVG Version: 6.00 Build 0)  -->

<svg
   version="1.1"
   id="Layer_1"
   x="0px"
   y="0px"
   viewBox="0 0 375.99867 95.787"
   xml:space="preserve"
   width="375.99866"
   height="95.787003"
   xmlns="http://www.w3.org/2000/svg"
   xmlns:svg="http://www.w3.org/2000/svg"><defs
   id="defs9" />
<style
   type="text/css"
   id="style1">
	.st0{fill:#D73648;}
</style>








<path
   id="path7"
   d="m 352.07297,70.513386 c 0,-1.347927 1.09519,-2.358871 2.35887,-2.358871 1.26368,0 2.35887,1.010944 2.35887,2.358871 0,1.347926 -1.09519,2.35887 -2.35887,2.35887 -1.26368,0 -2.35887,-1.010944 -2.35887,-2.35887 z m 2.35887,2.021889 c 1.09519,0 1.8534,-0.842454 1.8534,-1.937644 0,-1.09519 -0.84245,-1.937644 -1.8534,-1.937644 -1.09519,0 -1.93764,0.842454 -1.93764,1.937644 0.0842,1.09519 0.9267,1.937644 1.93764,1.937644 z m -0.42122,-0.673963 h -0.42123 v -2.695853 h 1.01094 c 0.67397,0 0.9267,0.252737 0.9267,0.758209 0,0.505472 -0.33698,0.673963 -0.67396,0.758208 l 0.75821,1.179436 h -0.42123 l -0.67396,-1.179436 h -0.50547 z m 0.42122,-1.432172 c 0.33698,0 0.67397,0 0.67397,-0.421227 0,-0.336981 -0.33699,-0.421227 -0.58972,-0.421227 h -0.58972 v 0.842454 z m -14.4902,-13.479261 -6.73963,-28.559185 h 13.05803 l 2.69585,16.764831 11.71011,-16.764831 h 15.33266 l -22.99899,28.390694 -4.54925,16.680586 H 335.39239 Z M 315.76321,28.390694 h 12.8053 l 5.13897,45.07128 h -12.8053 l -0.50547,-6.402649 h -13.81625 l -3.45406,6.402649 h -13.31077 z m -4.12802,28.980412 h 8.1718 l -1.01094,-13.479261 h -0.0842 z m -27.12702,16.090868 h -12.55256 l 2.61161,-23.335971 h -0.0842 l -11.79435,23.335971 h -12.55256 l 1.8534,-45.07128 h 12.80529 l -2.86434,26.200314 h 0.0842 l 13.05803,-26.200314 h 11.37313 l -2.86435,26.200314 h 0.0842 l 12.88954,-26.200314 h 13.31077 z m -71.27159,-45.07128 h 19.54493 c 7.75057,0 17.01757,5.138968 14.6587,19.88191 -2.35888,14.995679 -12.29983,25.18937 -27.04277,25.18937 h -20.9771 z m 2.86434,33.529663 h 6.31841 c 8.50878,0 11.54161,-9.435483 11.96284,-13.563507 0.75821,-6.739631 -2.35887,-8.424538 -6.73963,-8.424538 h -4.80199 z M 195.37656,28.390694 h 13.05803 l -13.81624,45.07128 h -13.05803 z m -53.49582,0 h 18.197 l -2.10613,24.26267 h 0.0842 l 14.23747,-24.26267 h 18.53399 l -13.90049,45.07128 h -12.13134 l 9.94096,-31.086546 h -0.0842 l -17.35454,31.086546 h -9.68822 l 1.8534,-31.086546 h -0.0842 l -9.26699,31.086546 h -12.04709 z"
   style="fill:#ffffff;fill-opacity:1;stroke-width:0.842454" /><path
   id="path9"
   class="st0"
   d="m 85.94181,82.644721 c 0,-1.347926 1.09519,-2.358871 2.358871,-2.358871 1.263681,0 2.358871,1.010945 2.358871,2.358871 0,1.347926 -1.09519,2.35887 -2.358871,2.35887 C 87.037,84.919351 85.94181,83.992647 85.94181,82.644721 Z m 2.358871,1.937644 c 1.09519,0 1.853399,-0.842454 1.853399,-1.937644 0,-1.09519 -0.842454,-1.937644 -1.853399,-1.937644 -1.09519,0 -1.937644,0.842454 -1.937644,1.937644 0.08425,1.09519 0.842454,1.937644 1.937644,1.937644 z m -0.505472,-0.589718 h -0.421227 v -2.695852 h 1.010945 c 0.673963,0 0.926699,0.252736 0.926699,0.758208 0,0.505472 -0.336982,0.673963 -0.673963,0.758208 l 0.758208,1.179436 h -0.421227 l -0.673963,-1.179436 h -0.505472 z m 0.505472,-1.516417 c 0.336982,0 0.673963,0 0.673963,-0.421227 0,-0.336981 -0.336981,-0.421227 -0.589717,-0.421227 H 87.795209 V 82.47623 Z M 21.999565,76.242072 C 7.1723769,71.103103 -3.1055598,61.414884 0.85397324,49.620531 6.4984139,32.687209 39.775341,19.544929 75.242647,20.387383 c 4.970477,0.08424 8.256047,0.336981 12.805298,0.926699 L 106.07645,0 99.08409,23.251726 c 21.06134,5.138968 34.28787,16.427849 29.90711,29.233148 C 123.26251,69.418196 91.586251,80.117359 68.166035,81.38104 L 79.876143,40.943256 33.541182,95.787 45.504027,51.473929 Z M 117.19684,49.45204 c 2.7801,-9.351238 -4.80198,-17.354549 -19.123694,-22.240781 L 86.447283,66.553853 C 100.51626,64.026491 114.66948,58.045069 117.19684,49.45204 Z M 85.857565,23.757198 C 81.813787,23.16748 78.275481,22.914744 73.72623,22.746253 45.167045,22.07229 18.208522,32.687209 13.659272,46.419206 10.96342,54.591008 15.344179,59.814222 24.358435,63.352528 L 64.374992,26.284559 56.287436,58.634787 85.857565,23.757198"
   style="fill:#ffffff;fill-opacity:1;stroke-width:0.842454" />
</svg>
