<?xml version="1.0" encoding="UTF-8" standalone="no"?>
<svg
   version="1.1"
   viewBox="0 0 380 127.93696"
   id="svg2"
   width="380"
   height="127.93696"
   xmlns="http://www.w3.org/2000/svg"
   xmlns:svg="http://www.w3.org/2000/svg">
  <defs
     id="defs2" />
  <path
     class="st1"
     d="m 147.48632,27.190935 c 0,-3.36546 -2.80125,-6.156812 -6.15681,-6.156812 h -4.48398 c -4.05835,0 -7.42381,-3.365459 -7.42381,-7.423808 0,-4.0583483 3.36546,-7.4238081 7.42381,-7.4238081 h 17.36182 V 0.72258401 h -17.5004 c -7.14665,0 -12.88773,5.74107839 -12.88773,12.88773099 0,7.146653 5.74108,12.887731 12.88773,12.887731 h 4.48399 c 0.41573,0 0.70278,0.277156 0.70278,0.702788 0,0.415733 -0.27715,0.702787 -0.56421,0.702787 h -17.51029 v 5.454024 h 17.50039 c 3.36546,0 6.16671,-2.80125 6.16671,-6.16671 z m -6.16671,-12.858036 h -4.48398 c -0.41573,0 -0.70278,-0.277155 -0.70278,-0.702787 0,-0.277156 0.27715,-0.564209 0.56421,-0.564209 h 17.51029 V 7.4634019 l -17.5004,0.0099 c -3.36545,0 -6.15681,2.8012511 -6.15681,6.1667101 0,3.36546 2.80125,6.156812 6.16671,6.156812 h 4.48398 c 4.05835,0 7.42381,3.355561 7.42381,7.41391 0,4.058348 -3.35556,7.423808 -7.41391,7.423808 l -17.36181,0.0099 v 5.463923 l 17.50039,-0.0099 c 7.14665,0 12.87783,-5.750977 12.87783,-12.887731 0,-7.136754 -5.76087,-12.877833 -12.90753,-12.877833 z m 60.92472,-1.425371 h 15.54051 V 7.4436051 h -18.20318 c -2.38552,0 -4.19692,1.8213076 -4.19692,4.1969259 v 17.500391 c 0,2.385517 1.8213,4.196926 4.19692,4.196926 h 11.34358 V 21.034123 h -8.68091 v 5.463923 h 3.21699 v 1.257099 h -3.21699 c -0.70278,0 -1.25709,-0.56421 -1.25709,-1.257099 v -12.33342 c 0,-0.692889 0.55431,-1.257098 1.25709,-1.257098 z m 44.53296,20.450117 -8.68091,-25.7655637 c -0.27716,-0.7027872 -0.84137,-1.2570982 -1.68273,-1.2570982 -0.70279,0 -1.39568,0.5642094 -1.68273,1.1185204 l -11.205,32.6251625 h 6.44386 l 3.91977,-11.620734 v 4.899713 z m -10.50222,-11.769211 1.82131,5.602501 h -3.78119 z M 244.8075,6.4339672 C 243.68898,2.8012503 240.32352,0 236.26517,0 c -4.05835,0 -7.42381,2.6626726 -8.40375,6.3052878 l -10.20526,29.9723882 -0.01,-21.98437 -15.40193,0.0099 v 5.463923 l 10.08649,-0.0099 0.01,14.847617 -12.60067,0.0099 c -3.07841,0 -5.46393,-2.514196 -5.46393,-5.454024 l -0.01,-17.500391 c 0,-3.0784056 2.51419,-5.4639227 5.45402,-5.4639227 l 18.0646,-0.0099 V 0.72258401 l -18.20318,0.009898 c -6.01823,0 -10.91795,4.90961189 -10.91795,10.92784599 l 0.01,17.500391 c 0,6.018234 4.90961,10.917947 10.92785,10.917947 l 22.54858,-0.0099 11.32378,-32.9122172 c 0.41573,-1.2570982 1.54415,-2.0984632 2.93983,-2.0984632 1.39568,0 2.52409,0.841365 2.93983,2.0984632 l 9.25501,27.4383962 -14.56056,0.0099 v 5.463923 l 22.12295,-0.0099 z M 162.33394,29.150821 V 11.65043 c 0,-3.078406 2.5241,-5.4639231 5.46392,-5.4639231 h 18.76739 V 0.72258401 h -18.76739 c -6.01823,0 -10.92784,4.89971349 -10.92784,10.92784599 v 17.500391 c 0,6.018233 4.89971,10.927845 10.92784,10.927845 h 18.76739 v -5.463923 h -18.76739 c -3.0883,0 -5.46392,-2.524094 -5.46392,-5.463922 z m 7.98802,-1.108623 c -0.70279,-0.138577 -1.2571,-0.702787 -1.2571,-1.395675 l 13.58062,-0.0099 V 21.1727 l -19.04454,0.0099 v 8.126595 c 0,2.385517 1.82131,4.196926 4.20682,4.196926 l 18.76739,-0.0099 V 28.0323 Z m -0.01,-14.996092 h 16.10472 V 7.4436051 h -18.62881 c -2.38552,0 -4.19693,1.8213076 -4.19693,4.1969259 v 8.126596 h 19.04454 v -5.463923 h -13.58062 c 0,-0.692889 0.56421,-1.257098 1.2571,-1.257098 z"
     style="fill:#ffffff;stroke-width:0.0989841"
     id="path1" />
  <path
     class="st1"
     d="m 378.18859,65.705653 c -1.19771,-2.890337 -2.79135,-5.384736 -4.80073,-7.493098 -1.99948,-2.108361 -4.31571,-3.771294 -6.94868,-4.988799 -2.62308,-1.217504 -5.34515,-1.831206 -8.15629,-1.831206 h -56.91587 v 10.373535 h 55.65877 c 1.97968,0 3.7416,0.386038 5.30555,1.168012 1.56395,0.781975 2.87054,1.791613 3.93956,3.038813 1.06903,1.247199 1.8906,2.662672 2.45481,4.256316 0.57411,1.583746 0.86116,3.157593 0.86116,4.721542 v 29.418082 c 0,1.56394 -0.28705,3.13779 -0.86116,4.72154 -0.57411,1.58374 -1.39568,2.99922 -2.45481,4.25631 -1.06902,1.2472 -2.37561,2.26674 -3.93956,3.03882 -1.56395,0.78197 -3.32587,1.16801 -5.30555,1.16801 h -33.56551 v 0 h -28.31936 c -1.97968,0 -3.7416,-0.38604 -5.30555,-1.16801 -1.56395,-0.78198 -2.87054,-1.79162 -3.93956,-3.03882 -1.06903,-1.24719 -1.8906,-2.66267 -2.45481,-4.25631 -0.57411,-1.58375 -0.86116,-3.1576 -0.86116,-4.72154 V 51.39255 H 272.2063 v 52.9763 c 0,3.27637 0.59391,6.35478 1.79162,9.24511 1.1977,2.89034 2.79135,5.38474 4.80073,7.4931 1.99947,2.10836 4.3157,3.77129 6.94868,4.9888 2.62308,1.2274 5.34514,1.8312 8.15629,1.8312 h 26.03282 v 0 h 38.36624 c 2.81115,0 5.52332,-0.6137 8.15629,-1.8312 2.62308,-1.21751 4.93931,-2.89034 6.94869,-4.9888 1.99948,-2.10836 3.60302,-4.60276 4.80073,-7.4931 C 379.4061,110.72363 380,107.64522 380,104.36885 V 74.950768 c -0.0198,-3.276374 -0.6137,-6.354779 -1.81141,-9.245115 z m -21.42016,9.799426 c 0.33655,0.366242 0.50482,0.861162 0.50482,1.484762 v 1.088825 h -22.62777 v 10.294348 h 32.14014 V 76.514717 c 0,-1.356082 -0.21776,-2.741859 -0.66319,-4.177129 -0.44543,-1.425371 -1.10862,-2.722063 -1.98958,-3.86038 -0.88096,-1.148216 -1.99948,-2.078667 -3.35556,-2.811149 -1.35609,-0.732483 -2.93983,-1.088825 -4.76114,-1.088825 h -54.64913 v 10.373534 h 54.41157 c 0.32665,0 0.65329,0.18807 0.98984,0.554311 z M 148.54545,56.698098 c -1.77181,-1.870799 -4.01875,-3.226882 -6.75071,-4.058348 -2.73196,-0.831467 -5.99844,-1.2472 -9.78953,-1.2472 h -9.9875 c -3.7416,0 -6.96848,0.415733 -9.67074,1.2472 -2.70227,0.831466 -4.95911,2.187549 -6.75072,4.058348 -1.79161,1.8708 -3.118,4.305809 -3.97916,7.295129 -0.86116,2.989321 -1.2868,6.641834 -1.2868,10.957541 v 29.418082 c 0,4.15733 0.42564,7.74055 1.2868,10.72987 0.86116,2.98932 2.18755,5.43423 3.97916,7.33473 1.79161,1.90049 4.04845,3.28627 6.75072,4.17713 2.70226,0.88095 5.92914,1.32638 9.67074,1.32638 h 9.9875 c 3.80099,0 7.05757,-0.44543 9.78953,-1.32638 2.73196,-0.88096 4.9789,-2.27664 6.75071,-4.17713 1.77182,-1.9005 3.06851,-4.34541 3.89998,-7.33473 0.83147,-2.98932 1.2472,-6.56264 1.2472,-10.72987 V 74.950768 c 0,-4.315707 -0.41573,-7.96822 -1.2472,-10.957541 -0.83147,-2.98932 -2.13806,-5.424329 -3.89998,-7.295129 z m -4.68194,49.848402 c 0,1.56395 -0.19797,3.01901 -0.58401,4.3652 -0.38604,1.35608 -1.00964,2.52409 -1.8708,3.51393 -0.86116,0.98984 -1.95989,1.75202 -3.31597,2.30633 -1.35608,0.54441 -3.01901,0.82157 -4.9888,0.82157 h -6.08752 -6.08752 c -1.97968,0 -3.64262,-0.27716 -4.9888,-0.82157 -1.35608,-0.54441 -2.45481,-1.31649 -3.31597,-2.30633 -0.86116,-0.98984 -1.48476,-2.15785 -1.8708,-3.51393 -0.38604,-1.35609 -0.58401,-2.81115 -0.58401,-4.3652 V 72.773118 c 0,-1.563949 0.19797,-3.019015 0.58401,-4.365199 0.38604,-1.356083 1.00964,-2.524095 1.8708,-3.513936 0.86116,-0.989841 1.97968,-1.752019 3.35556,-2.30633 1.37588,-0.544413 3.05861,-0.821568 5.0284,-0.821568 h 12.01667 c 1.97968,0 3.65251,0.277155 5.02839,0.821568 1.37588,0.544413 2.4944,1.316489 3.35556,2.30633 0.86116,0.989841 1.48476,2.157853 1.8708,3.513936 0.38604,1.356082 0.58401,2.811148 0.58401,4.365199 z m -4.60277,-39.158118 c -0.67309,-0.880958 -1.60354,-1.573847 -2.77155,-2.068768 -1.16801,-0.49492 -2.66267,-0.74238 -4.48398,-0.74238 h -4.9888 -4.9888 c -1.82131,0 -3.31597,0.24746 -4.48398,0.74238 -1.16801,0.494921 -2.09846,1.18781 -2.77155,2.068768 -0.6731,0.880959 -1.14822,1.920292 -1.40558,3.118 -0.25736,1.197708 -0.38604,2.474603 -0.38604,3.820787 v 30.665281 c 0,1.8213 0.12868,3.34566 0.38604,4.56316 0.25736,1.22741 0.71269,2.22715 1.36598,2.99922 0.6533,0.78198 1.56395,1.33629 2.73196,1.67283 1.16802,0.33655 2.66268,0.50482 4.48398,0.50482 h 10.14588 c 1.8213,0 3.31596,-0.16827 4.48398,-0.50482 1.16801,-0.33654 2.07866,-0.90075 2.73196,-1.67283 0.65329,-0.78197 1.10862,-1.78171 1.36598,-2.99922 0.25736,-1.2175 0.38604,-2.74186 0.38604,-4.56316 V 74.327169 c 0,-1.356083 -0.12868,-2.623079 -0.38604,-3.820787 -0.27716,-1.197708 -0.74238,-2.237041 -1.41548,-3.118 z m -8.27507,34.941388 c 0,0.6236 -0.0891,1.11852 -0.27715,1.48477 -0.17817,0.36624 -0.58401,0.54441 -1.20761,0.54441 h -4.9888 c -0.6236,0 -1.02943,-0.17817 -1.2076,-0.54441 -0.17818,-0.36625 -0.27716,-0.86117 -0.27716,-1.48477 V 76.979943 c 0,-0.6236 0.0891,-1.118521 0.27716,-1.484762 0.17817,-0.366241 0.584,-0.544413 1.2076,-0.544413 h 4.9888 c 0.6236,0 1.02944,0.178172 1.20761,0.544413 0.17817,0.366241 0.27715,0.861162 0.27715,1.484762 z M 205.5801,56.698098 c -1.77182,-1.870799 -4.01876,-3.226882 -6.75072,-4.058348 -2.73196,-0.831467 -5.99843,-1.2472 -9.78953,-1.2472 h -30.04167 v 10.373535 h 31.05131 c 1.97968,0 3.65252,0.277155 5.02839,0.821568 1.37588,0.544413 2.4944,1.316489 3.35557,2.30633 0.86116,0.989841 1.48476,2.157853 1.8708,3.513936 0.38603,1.356082 0.584,2.811148 0.584,4.365199 v 33.783272 c 0,1.56395 -0.19797,3.01902 -0.584,4.3652 -0.38604,1.35609 -1.00964,2.5241 -1.8708,3.51394 -0.86117,0.98984 -1.95989,1.75202 -3.31597,2.30633 -1.35608,0.54441 -3.01902,0.82157 -4.9888,0.82157 H 168.8273 V 77.455066 h -9.82912 v 50.481894 h 30.04167 c 3.80099,0 7.05757,-0.44543 9.78953,-1.32638 2.73196,-0.88096 4.9789,-2.27664 6.75072,-4.17713 1.77181,-1.9005 3.06851,-4.34541 3.89997,-7.33473 0.83147,-2.98932 1.2472,-6.56264 1.2472,-10.72987 V 74.950768 c 0,-4.315707 -0.41573,-7.96822 -1.2472,-10.957541 -0.83146,-2.98932 -2.13805,-5.424329 -3.89997,-7.295129 z m -17.82704,18.797083 c 0.38604,0.366241 0.58401,0.861162 0.58401,1.484762 v 25.359727 c 0,0.6236 -0.19797,1.11852 -0.58401,1.48476 -0.38604,0.36624 -0.90075,0.54442 -1.52435,0.54442 h -1.71243 c -1.29669,0 -1.94999,-0.6731 -1.94999,-2.02918 V 77.455066 h -10.92784 v 37.297214 h 17.48059 c 1.82131,0 3.31597,-0.16827 4.48398,-0.50482 1.16801,-0.33655 2.07867,-0.90076 2.73196,-1.67283 0.6533,-0.78198 1.10863,-1.78172 1.36598,-2.99922 0.25736,-1.2175 0.38604,-2.74186 0.38604,-4.56317 V 74.327169 c 0,-1.356083 -0.12868,-2.623079 -0.38604,-3.820787 -0.25735,-1.197708 -0.73248,-2.237041 -1.40557,-3.118 -0.67309,-0.880958 -1.60354,-1.573847 -2.77156,-2.068768 -1.16801,-0.49492 -2.66267,-0.74238 -4.48398,-0.74238 h -30.04167 v 10.373534 h 27.23053 c 0.6236,0 1.12841,0.18807 1.52435,0.544413 z m 41.42485,-22.271425 c -2.62308,1.227403 -4.93931,2.890336 -6.94868,4.988799 -1.99948,2.108362 -3.60303,4.602761 -4.80073,7.493098 -1.19771,2.890336 -1.79162,5.968741 -1.79162,9.245115 v 29.418082 c 0,3.27637 0.59391,6.35478 1.79162,9.24511 1.1977,2.89034 2.79135,5.38474 4.80073,7.4931 1.99948,2.10836 4.3157,3.77129 6.94868,4.9888 2.62308,1.2274 5.34514,1.8312 8.15629,1.8312 h 29.56656 V 117.55353 H 238.5814 c -1.97968,0 -3.7416,-0.38604 -5.30555,-1.16801 -1.56395,-0.78198 -2.87054,-1.79162 -3.93956,-3.03882 -1.06903,-1.24719 -1.8906,-2.66267 -2.45481,-4.25631 -0.57411,-1.58375 -0.86116,-3.1576 -0.86116,-4.72154 V 74.950768 c 0,-1.563949 0.28705,-3.137796 0.86116,-4.721542 0.57411,-1.583745 1.39568,-2.999218 2.45481,-4.256316 1.06902,-1.2472 2.37561,-2.266737 3.93956,-3.038813 1.56395,-0.781974 3.32587,-1.168012 5.30555,-1.168012 h 28.31936 V 51.39255 H 237.3342 c -2.81115,0 -5.53321,0.613702 -8.15629,1.831206 z m 5.66189,12.442303 c -1.35608,0.732482 -2.4746,1.662933 -3.35556,2.811149 -0.88096,1.148215 -1.54415,2.435009 -1.98958,3.86038 -0.44543,1.43527 -0.66319,2.821047 -0.66319,4.177129 v 11.858297 h 32.15004 V 78.078666 h -22.63767 v -1.088825 c 0,-0.6236 0.16827,-1.11852 0.50482,-1.484762 0.33654,-0.366241 0.66319,-0.544412 0.97994,-0.544412 h 27.07216 V 64.577234 h -27.30972 c -1.82131,0 -3.40505,0.366241 -4.75124,1.088825 z m 4.01876,38.148481 c -0.33655,-0.36625 -0.50482,-0.86117 -0.50482,-1.48477 v -1.00963 h 22.62777 V 90.946601 H 228.83147 V 102.8049 c 0,1.35608 0.21776,2.74186 0.66319,4.17713 0.44543,1.43527 1.10862,2.72206 1.98958,3.86038 0.88096,1.14821 1.99948,2.07866 3.35556,2.81115 1.35608,0.73248 2.93983,1.08882 4.76114,1.08882 h 27.30971 V 104.36885 H 239.8286 c -0.30685,-0.01 -0.6335,-0.18807 -0.97004,-0.55431 z m 49.1753,7.01797 c 0.88096,1.14821 1.99948,2.07866 3.35556,2.81115 1.35609,0.73248 2.93983,1.08882 4.76114,1.08882 h 23.76608 v 0 h 36.10941 c 1.82131,0 3.40505,-0.36624 4.76113,-1.08882 1.35609,-0.73249 2.47461,-1.66294 3.35557,-2.81115 0.88095,-1.14822 1.54415,-2.43501 1.98958,-3.86038 0.44542,-1.42537 0.66319,-2.82105 0.66319,-4.17713 V 90.946601 h -32.15004 v 10.373539 h 22.62777 v 1.00963 c 0,0.6236 -0.16827,1.11852 -0.50482,1.48477 -0.33655,0.36624 -0.66319,0.54441 -0.97994,0.54441 h -32.32821 v 0 h -25.90415 v -0.0792 c -0.31674,0 -0.63349,-0.16827 -0.97994,-0.50482 -0.33654,-0.33654 -0.50482,-0.82157 -0.50482,-1.44517 V 51.39255 h -10.69028 v 51.41235 c 0,1.35608 0.21776,2.74186 0.66319,4.17713 0.44543,1.42537 1.10862,2.71216 1.98958,3.85048 z M 76.81167,56.737692 C 76.108883,55.728054 75.247721,54.8174 74.238083,54.005731 73.228445,53.203959 72.030737,52.560563 70.64496,52.095337 69.26908,51.630112 67.71503,51.39255 66.002605,51.39255 c -1.771816,0 -3.306069,0.237562 -4.602761,0.702787 -1.296692,0.465226 -2.435009,1.108622 -3.395155,1.910394 -0.960146,0.811669 -1.791613,1.712425 -2.4944,2.731961 -0.702787,1.009638 -1.336285,2.068768 -1.910393,3.157593 l -2.336025,4.681949 -2.336025,-4.681949 C 48.40323,58.80646 47.799427,57.74733 47.09664,56.737692 46.393853,55.728054 45.552488,54.8174 44.562647,54.005731 43.572805,53.203959 42.42459,52.560563 41.127898,52.095337 39.831206,51.630112 38.296952,51.39255 36.525137,51.39255 c -1.771816,0 -3.325866,0.237562 -4.681949,0.702787 -1.356082,0.465226 -2.533993,1.108622 -3.553529,1.910394 -1.009638,0.811669 -1.860902,1.712425 -2.533993,2.731961 -0.673092,1.009638 -1.227403,2.068768 -1.643137,3.157593 L 0,127.91717 H 10.373535 L 32.842928,63.785361 c 0.158374,-0.514718 0.6236,-0.989841 1.405574,-1.405575 0.781975,-0.415733 1.534254,-0.623599 2.266736,-0.623599 0.831467,0 1.583746,0.207866 2.266736,0.623599 0.673092,0.415734 1.118521,0.880959 1.326388,1.405575 L 51.263871,93.668664 62.41938,63.785361 c 0.207867,-0.514718 0.653295,-0.989841 1.326387,-1.405575 0.673092,-0.415733 1.425371,-0.623599 2.266736,-0.623599 0.732483,0 1.484762,0.207866 2.266736,0.623599 0.781975,0.415734 1.2472,0.880959 1.405575,1.405575 L 92.154207,127.91717 H 102.52774 L 78.415212,59.895285 C 78.048971,58.80646 77.514457,57.74733 76.81167,56.737692 Z m -9.631154,8.185986 c -0.415734,-0.237562 -0.81167,-0.346444 -1.168013,-0.346444 -0.366241,0 -0.742381,0.118781 -1.128419,0.346444 -0.386038,0.237562 -0.633498,0.504819 -0.74238,0.821568 L 51.263871,101.24095 38.386038,65.745246 c -0.108882,-0.316749 -0.346444,-0.584006 -0.742381,-0.821568 -0.386038,-0.237562 -0.772076,-0.346444 -1.128419,-0.346444 -0.366241,0 -0.752279,0.118781 -1.168012,0.346444 -0.415733,0.237562 -0.673092,0.504819 -0.781975,0.821568 L 13.184684,127.92706 H 23.558218 L 36.50534,88.600677 51.253972,127.92706 66.002605,88.600677 79.345663,127.92706 H 89.33316 L 67.952592,65.745246 c -0.09898,-0.306851 -0.356343,-0.584006 -0.772076,-0.821568 z"
     style="fill:#ffffff;stroke-width:0.0989841"
     id="path2" />
</svg>
