<?xml version="1.0" encoding="UTF-8" standalone="no"?>
<svg
   viewBox="0 0 380.00137 90.478995"
   height="90.478996"
   width="380.00137"
   version="1.1"
   id="svg2"
   xmlns="http://www.w3.org/2000/svg"
   xmlns:svg="http://www.w3.org/2000/svg">
  <defs
     id="defs1" />
  <path
     id="path106"
     style="fill:#ffffff;fill-opacity:1;fill-rule:nonzero;stroke:none;stroke-width:0.734432"
     d="m 45.2395,16.695827 c -15.764568,0 -28.543673,12.779839 -28.543673,28.543673 0,15.764568 12.779105,28.544407 28.543673,28.544407 15.764568,0 28.543673,-12.779839 28.543673,-28.544407 0,-15.763834 -12.779105,-28.543673 -28.543673,-28.543673 M 90.478265,45.2395 C 90.478265,70.224853 70.224853,90.479 45.2395,90.479 20.254147,90.479 0,70.224853 0,45.2395 0,20.254881 20.254147,0 45.2395,0 70.224853,0 90.478265,20.254881 90.478265,45.2395" />
  <path
     id="path108"
     style="fill:#ffffff;fill-opacity:1;fill-rule:nonzero;stroke:none;stroke-width:0.918039"
     d="M 46.113473,73.783907 H 43.403421 V 16.695092 h 2.710052 z" />
  <path
     id="path110"
     style="fill:#ffffff;fill-opacity:1;fill-rule:nonzero;stroke:none;stroke-width:0.918039"
     d="m 16.053934,44.803247 h 57.729973 v 2.710052 H 16.053934 Z" />
  <path
     id="path114"
     style="fill:#ffffff;fill-opacity:1;fill-rule:nonzero;stroke:none;stroke-width:0.734432"
     d="m 25.466406,67.526552 -1.916866,-1.916866 41.203065,-41.20233 1.916131,1.916866 z" />
  <path
     id="path118"
     style="fill:#ffffff;fill-opacity:1;fill-rule:nonzero;stroke:none;stroke-width:0.734432"
     d="M 66.067237,65.008187 64.150371,66.925053 23.550275,26.323487 25.466406,24.406621 Z" />
  <path
     id="path122"
     style="fill:#ffffff;fill-opacity:1;fill-rule:nonzero;stroke:none;stroke-width:0.734432"
     d="m 130.28077,49.158425 c -0.14835,-4.017339 -0.29744,-8.879274 -0.29744,-13.740475 h -0.14836 c -1.04216,4.266311 -2.43097,9.028364 -3.72063,12.946555 l -4.06801,13.045703 h -5.90189 L 112.5729,48.463654 c -1.0921,-3.918192 -2.23267,-8.680245 -3.02587,-13.045704 h -0.0991 c -0.1983,4.513815 -0.34665,9.67246 -0.59562,13.839623 l -0.59489,12.698318 h -6.994 l 2.13275,-33.432048 h 10.06906 l 3.27409,11.160418 c 1.04142,3.869719 2.08359,8.035413 2.82757,11.953604 h 0.14835 c 0.94301,-3.868249 2.08432,-8.283651 3.17494,-12.003545 L 126.461,28.523843 h 9.87148 l 1.83535,33.432048 h -7.39132 z" />
  <path
     id="path126"
     style="fill:#ffffff;fill-opacity:1;fill-rule:nonzero;stroke:none;stroke-width:0.734432"
     d="m 150.42255,45.338648 c 0,6.547455 3.07579,11.160419 8.13456,11.160419 5.10944,0 8.03541,-4.860467 8.03541,-11.358715 0,-6.001773 -2.87676,-11.160419 -8.08388,-11.160419 -5.11018,0 -8.08609,4.861201 -8.08609,11.358715 m 24.15618,-0.4458 c 0,10.962122 -6.6466,17.608725 -16.41748,17.608725 -9.92144,0 -15.72491,-7.490465 -15.72491,-17.013835 0,-10.019847 6.39837,-17.510312 16.26912,-17.510312 10.26882,0 15.87327,7.688762 15.87327,16.915422" />
  <path
     id="path130"
     style="fill:#ffffff;fill-opacity:1;fill-rule:nonzero;stroke:none;stroke-width:0.734432"
     d="m 185.99106,45.338648 c 0,6.547455 3.07653,11.160419 8.13456,11.160419 5.11017,0 8.03541,-4.860467 8.03541,-11.358715 0,-6.001773 -2.87676,-11.160419 -8.08388,-11.160419 -5.11018,0 -8.08609,4.861201 -8.08609,11.358715 m 24.15618,-0.4458 c 0,10.962122 -6.64661,17.608725 -16.41748,17.608725 -9.9207,0 -15.72491,-7.490465 -15.72491,-17.013835 0,-10.019847 6.3991,-17.510312 16.26986,-17.510312 10.26808,0 15.87253,7.688762 15.87253,16.915422" />
  <path
     id="path134"
     style="fill:#ffffff;fill-opacity:1;fill-rule:nonzero;stroke:none;stroke-width:0.734432"
     d="M 215.11126,61.955891 V 28.523843 h 8.8286 l 6.94478,12.251783 c 1.9837,3.521599 3.96814,7.688028 5.45609,11.457863 h 0.14835 c -0.49574,-4.414667 -0.64409,-8.928481 -0.64409,-13.938037 v -9.771609 h 6.94404 v 33.432048 h -7.93625 l -7.14235,-12.896614 c -1.98444,-3.571539 -4.16716,-7.887058 -5.80421,-11.805984 l -0.14836,0.04921 c 0.1983,4.415401 0.29745,9.127513 0.29745,14.584338 v 10.069053 z" />
  <path
     id="path138"
     style="fill:#ffffff;fill-opacity:1;fill-rule:nonzero;stroke:none;stroke-width:0.734432"
     d="m 249.33943,28.523843 h 7.58962 v 27.082889 h 13.2932 v 6.349159 h -20.88282 z" />
  <path
     id="path140"
     style="fill:#ffffff;fill-opacity:1;fill-rule:nonzero;stroke:none;stroke-width:0.918039"
     d="m 282.27794,61.955156 h -7.58961 V 28.523109 h 7.58961 z" />
  <path
     id="path144"
     style="fill:#ffffff;fill-opacity:1;fill-rule:nonzero;stroke:none;stroke-width:0.734432"
     d="m 316.75141,60.417992 c -2.33109,0.793186 -6.74575,1.885284 -11.15968,1.885284 -6.10239,0 -10.51633,-1.537898 -13.59139,-4.514549 -3.07653,-2.876767 -4.76206,-7.241492 -4.71357,-12.152635 0.0507,-11.111211 8.13602,-17.460369 19.09814,-17.460369 4.31479,0 7.63809,0.843862 9.27587,1.637781 l -1.58711,6.05098 c -1.83534,-0.793186 -4.11721,-1.438016 -7.78791,-1.438016 -6.30068,0 -11.06127,3.571539 -11.06127,10.813032 0,6.895575 4.31552,10.962121 10.51632,10.962121 1.73474,0 3.12354,-0.198296 3.71991,-0.49574 v -6.993255 h -5.15939 v -5.90336 h 12.45008 z" />
  <path
     id="path148"
     style="fill:#ffffff;fill-opacity:1;fill-rule:nonzero;stroke:none;stroke-width:0.734432"
     d="m 330.24659,28.523843 v 12.846673 h 12.4508 V 28.523843 h 7.53895 v 33.432048 h -7.53895 V 47.967912 h -12.4508 V 61.955891 H 322.6577 V 28.523843 Z" />
  <path
     id="path152"
     style="fill:#ffffff;fill-opacity:1;fill-rule:nonzero;stroke:none;stroke-width:0.734432"
     d="m 363.28424,34.873002 h -8.97695 v -6.349159 h 25.69408 v 6.349159 h -9.12677 v 27.082889 h -7.59036 z" />
</svg>
