<?xml version="1.0" encoding="UTF-8" standalone="no"?>
<svg
   version="1.1"
   viewBox="0 0 379.99924 128.60001"
   id="svg1"
   width="379.99924"
   height="128.60001"
   xmlns="http://www.w3.org/2000/svg"
   xmlns:svg="http://www.w3.org/2000/svg">
  <defs
     id="defs1" />
  <path
     d="M 288.64698,0 312.62217,33.750742 336.59479,0 h 40.5834 l -44.26323,62.317696 47.08427,66.282204 h -40.5933 L 312.62138,90.888907 285.83584,128.5999 h -40.58341 l 47.07755,-66.279927 -20.7606,-29.229652 h -83.57914 c 0,-2.759176 0,-5.518353 0,0 -9.76971,0 -9.76971,14.659517 0,14.659517 h 29.05178 c 53.89347,0 53.89674,80.830262 0.01,80.840162 h -55.40397 l 0.003,0.01 H 127.3527 L 111.54496,70.674512 95.747136,128.5999 H 65.893589 L 50.105656,70.674512 34.297925,128.5999 H 0 L 35.079898,0 H 65.121514 L 80.820363,57.559144 96.519211,0 h 30.051509 l 26.05069,95.499677 h 64.42061 c 9.76971,0 9.76971,-14.659517 0,-14.659517 H 187.99024 C 134.0935,80.84016 134.0935,0 187.99024,0 Z"
     class="st0"
     style="fill:#ffffff;stroke-width:0.0989839"
     id="path1" />
</svg>
