<?xml version="1.0" encoding="UTF-8" standalone="no"?>
<svg
   version="1.1"
   id="Layer_1"
   x="0px"
   y="0px"
   viewBox="0 0 379.99899 128.679"
   width="379.99899"
   height="128.679"
   xmlns="http://www.w3.org/2000/svg"
   xmlns:svg="http://www.w3.org/2000/svg">
  <defs
     id="defs3" />
  <path
     class="st0"
     d="M 314.16484,2.9695155 V 125.69959 H 2.9695155 V 2.9695155 H 314.16484 M 317.13435,0 H 0 v 128.66911 h 317.13435 z"
     style="fill:#ffffff;stroke-width:0.0989838"
     id="path1" />
  <path
     d="m 201.25396,42.404681 v -0.0099 h -44.09731 c -6.86948,0 -6.86948,10.304218 0,10.304218 0,0.0033 0,0.0066 0,0.0099 h 20.41048 c 37.87122,0 37.87122,56.816731 0,56.816731 0,-0.003 0,-0.007 0,-0.01 H 114.53421 L 103.42823,68.813572 92.342033,109.51573 H 71.357456 L 60.251469,68.813572 49.155379,109.51573 H 25.042914 L 49.699791,19.143476 h 21.113255 l 11.036699,40.4547 11.036699,-40.4547 H 113.9898 l 18.30568,67.120948 h 45.28154 v 0.0099 c 6.85958,-0.0099 6.85632,-10.304219 -0.01,-10.304219 0,-0.0033 0,-0.0066 0,-0.0099 h -20.41048 c 0,-1.936817 0,-3.873534 0,0 -37.87122,0 -37.87122,-56.816729 0,-56.816729 h 70.73387 l 16.84081,23.713264 16.84339,-23.713264 h 28.51724 l -31.10072,43.792336 33.0804,46.579918 H 263.55439 L 244.73162,83.014587 225.91084,109.51573 h -28.52715 l 33.08615,-46.580809 -14.58181,-20.53024 z m -44.09731,33.555524 c 0,1.936817 0,3.873635 0,0 z m 0,-33.565422 c 0,7.750435 0,-7.740538 0,0 z"
     class="st0"
     style="fill:#ffffff;stroke-width:0.0989838"
     id="path2" />
  <path
     class="st0"
     d="m 324.76601,72.475975 c 0.11878,-8.76997 1.1977,-15.857214 5.28574,-20.885593 4.08803,-5.048176 11.04659,-7.928606 22.56832,-7.928606 22.33075,0 27.36903,10.452694 27.36903,23.172118 0,11.531619 -4.20681,18.856424 -10.57148,25.211187 l -13.20444,12.848099 c -1.92029,1.92029 -4.68194,4.44438 -5.52331,6.96846 H 379.999 V 128.679 h -55.95558 c 0,-11.76918 2.99922,-22.56831 12.72933,-32.535988 l 14.89707,-15.13463 c 4.32559,-4.325595 6.00831,-7.562366 6.00831,-13.927027 0,-7.206025 -2.28652,-9.492552 -5.76085,-9.492552 -3.11799,0 -6.24588,1.682725 -6.24588,11.294057 v 3.603012 h -20.90539 z"
     style="fill:#ffffff;stroke-width:0.0989838"
     id="path3" />
</svg>
