<?xml version="1.0" encoding="UTF-8" standalone="no"?>
<svg
   width="379.99817"
   height="102.427"
   version="1.1"
   id="svg2"
   xmlns="http://www.w3.org/2000/svg"
   xmlns:svg="http://www.w3.org/2000/svg">
  <defs
     id="defs2" />
  <path
     d="M 341.26135,102.427 V 73.666434 H 314.9851 v -13.0033 h 26.27694 V 31.901886 h 12.45921 v 28.761248 h 26.27693 v 13.0033 H 353.72125 V 102.427 Z M 0,0 H 252.91008 V 102.42631 H 6.8438423e-4 Z m 234.26951,14.115424 -23.77551,-0.0034 -12.63715,17.663958 -12.21558,-17.61126 -60.62412,0.05338 c -6.32576,0.268279 -11.72761,2.537697 -16.26644,7.087483 -6.42774,6.526973 -8.48226,16.633959 -4.97001,25.066941 3.24262,8.42477 11.94046,14.152381 20.6951,14.422029 l 18.47838,0.0034 c 1.13197,0 2.21193,0.212159 3.07972,0.969089 0.92051,0.917074 1.24217,2.265996 0.86302,3.569062 -0.9732,2.912741 -4.27261,2.265313 -6.64401,2.37892 H 105.88656 L 91.135341,14.266674 73.899124,14.27078 65.470248,44.962675 57.204255,14.27078 H 39.638165 C 38.395324,18.812354 19.268838,87.649088 19.268838,87.649088 h 20.801858 l 8.268731,-28.582623 7.565183,28.642848 18.801404,-0.0034 7.943647,-28.52924 c 0.05338,0.04928 7.944333,28.52924 7.944333,28.52924 h 51.549876 c 8.96543,0.321661 17.23553,-4.057713 21.87976,-11.887754 3.67651,-6.163563 4.1638,-15.023602 0.86369,-21.509511 -3.72373,-7.728067 -11.6708,-13.073107 -20.25914,-13.289373 h -18.53517 l -1.45843,-0.109502 c -0.96977,-0.268962 -1.83757,-1.132655 -2.21262,-2.04973 -0.43526,-0.814417 -0.27237,-2.003877 0.10677,-2.810081 1.08338,-2.436409 3.73127,-1.780769 5.89118,-1.951865 l 46.30543,-0.05201 10.91593,15.186486 c 0,0 -25.61034,37.064196 -26.26187,38.41654 h 23.99108 l 14.48637,-20.589015 14.37069,20.539055 h 24.14988 l -26.1517,-38.366605 24.04311,-35.117124 z"
     style="fill:#ffffff;stroke-width:0.684385"
     id="path1" />
  <path
     d="m 284.20834,87.704523 c 1.23531,-8.705367 23.61537,-14.030561 23.61537,-33.044808 0,-18.112229 -12.60157,-22.724978 -23.61605,-22.724978 -11.00901,0 -22.74277,8.342643 -22.74277,22.023484 v 5.150676 h 16.52788 v -3.729894 c 0,-4.705141 2.30432,-7.643887 6.39351,-7.643887 4.0892,0 6.03011,2.404925 6.03011,7.284585 0,11.013795 -18.65084,15.455449 -26.45829,29.315599 -3.34664,5.915132 -3.5588,17.75977 -3.5588,17.75977 h 46.36703 V 87.704523 Z"
     style="fill:#ffffff;stroke-width:0.684385"
     id="path2" />
</svg>
