<?xml version="1.0" encoding="UTF-8" standalone="no"?>
<svg
   version="1.1"
   viewBox="0 0 380 139.80516"
   id="svg8"
   width="380"
   height="139.80516"
   xmlns="http://www.w3.org/2000/svg"
   xmlns:svg="http://www.w3.org/2000/svg">
  <defs
     id="defs8" />
  <path
     class="st0"
     d="M 377.07997,2.9200313 V 136.88513 H 2.9200313 V 2.9200313 H 377.07997 M 380,0 H 377.07997 2.9200313 0 V 2.9200313 136.88513 139.80516 H 2.9200313 377.07007 379.9901 V 136.88513 2.9200313 0 Z"
     style="fill:#ffffff;stroke-width:0.0989841"
     id="path1" />
  <path
     d="m 157.73118,19.262308 11.18887,15.756291 11.19144,-15.756291 h 18.95545 l -20.66788,29.104793 21.98437,30.958765 H 181.42798 L 168.91965,61.716197 156.41469,79.325866 h -18.96535 l 21.98882,-30.957874 -9.69173,-13.644366 h -39.0327 c -4.56317,0 -4.56317,6.8497 0,6.8497 h 13.57072 c 25.15849,0 25.16176,37.742642 0.01,37.75254 H 82.394374 L 75.020057,52.283407 67.635843,79.325866 H 53.69888 L 46.324564,52.283407 38.940349,79.325866 H 22.914822 L 39.30659,19.262308 h 14.035947 l 7.324824,26.893983 7.334723,-26.893983 h 14.026048 l 12.16495,44.60224 h 30.091368 c 4.56317,0 4.56317,-6.8497 0,-6.8497 v 0.0198 h -13.57072 v -0.0198 c -25.161763,0 -25.161763,-37.75254 0,-37.75254 z"
     class="st0"
     style="fill:#ffffff;stroke-width:0.0989841"
     id="path2" />
  <path
     class="st0"
     d="m 45.41391,115.2472 h 9.542068 v 5.29565 H 36.247981 c -2.920031,0 -5.29565,-2.36572 -5.29565,-5.29565 v -13.47174 h -8.037509 v -5.295648 h 8.037509 v -8.136493 h 12.452201 v 8.136493 H 54.94608 v 5.295648 H 43.404532 v 11.47226 c 0,1.10862 0.900756,2.00938 2.009378,1.99948 z"
     style="fill:#ffffff;stroke-width:0.0989841"
     id="path3" />
  <path
     class="st0"
     d="M 80.602761,96.479812 V 115.2472 H 73.594686 V 96.479812 H 61.132587 V 115.2472 c 0,2.92993 2.375618,5.29565 5.29565,5.29565 h 1.771815 5.394634 7.008075 9.769732 2.682469 V 96.489711 H 80.602761 Z"
     style="fill:#ffffff;stroke-width:0.0989841"
     id="path4" />
  <path
     class="st0"
     d="m 124.85856,96.479812 h -11.29409 -4.46418 c -4.41469,0 -7.99792,3.583228 -7.99792,7.997918 v 16.06512 h 12.4522 v -18.76739 h 11.29409 l 0.01,-5.295648 z"
     style="fill:#ffffff;stroke-width:0.0989841"
     id="path5" />
  <path
     class="st0"
     d="M 142.25007,96.479812 V 88.33342 h -12.45221 v 32.19953 h 23.92446 c 4.41469,0 7.99792,-4.41469 7.99792,-11.00703 v -2.05887 c 0,-6.58244 -3.58323,-11.007034 -7.99792,-11.007034 h -11.47225 z m 0,18.777288 v -13.47174 h 7.00807 v 13.47174 z"
     style="fill:#ffffff;stroke-width:0.0989841"
     id="path6" />
  <path
     class="st0"
     d="m 192.39542,96.479812 h -2.90024 -8.56212 -4.46419 c -4.41469,0 -7.99791,4.414688 -7.99791,11.007038 v 2.05887 c 0,6.58244 3.58322,11.00703 7.99791,11.00703 h 1.57385 11.45246 2.90024 c 4.41469,0 7.99791,-4.41469 7.99791,-11.00703 v -2.05887 c -0.01,-6.58245 -3.58322,-11.007038 -7.99791,-11.007038 z m -4.46419,18.777288 h -7.00807 v -13.47174 h 7.00807 z"
     style="fill:#ffffff;stroke-width:0.0989841"
     id="path7" />
  <path
     class="st0"
     d="M 233.81037,8.4730399 V 131.35191 H 371.52696 V 8.4730399 Z M 342.27716,120.54285 H 320.10471 V 80.563167 h -13.90726 v -0.0099 H 285.23261 V 120.54285 H 263.06017 V 19.262308 h 22.17244 v 0 h 21.95468 v 0 h 7.31492 v 0 0 0 l 22.19224,17.757749 -0.01,0.0099 h 0.01 V 58.380828 H 314.52201 V 39.138317 h -0.01 v 2.316228 h -29.2795 v 16.936182 h 29.2696 v 0 0 h 0.01 v 0 l 27.75515,22.17244 h 0.01 z"
     style="fill:#ffffff;stroke-width:0.0989841"
     id="path8" />
</svg>
