<?xml version="1.0" encoding="UTF-8" standalone="no"?>
<svg
   viewBox="0 0 379.99886 53.384001"
   version="1.1"
   id="svg1"
   width="379.99887"
   height="53.383999"
   xmlns="http://www.w3.org/2000/svg"
   xmlns:svg="http://www.w3.org/2000/svg">
  <defs
     id="defs1" />
  <path
     id="rect1682"
     style="fill:#ffffff;fill-opacity:1;stroke:none;stroke-width:0.355138;stroke-linecap:square;stroke-miterlimit:4;stroke-dasharray:none;stroke-opacity:0.998405;stop-color:#000000"
     d="M 142.31116,4.9624122e-4 C 140.21562,0.00939942 138.10919,0.13833075 137.86881,0.37871677 c -0.30733,0.30732479 -0.34327,2.48102113 -0.34327,20.64747823 0,12.919841 -0.0791,20.511622 -0.21731,20.875332 -0.43823,1.152469 -0.91637,1.205888 -10.76263,1.205888 -10.1127,0 -10.17931,-0.0099 -10.93872,-1.530359 -0.3558,-0.711595 -0.38251,-2.164463 -0.38251,-20.809713 0,-17.9306874 -0.0366,-20.08130144 -0.34392,-20.38862623 -0.30139,-0.30138933 -1.46837,-0.34326729 -9.50597,-0.34326729 h -9.162365 l -0.347224,0.5302342 C 95.55196,1.0428285 95.52591,3.0809986 95.603731,20.95365 c 0.0831,19.064689 0.104529,19.936872 0.53485,21.825996 1.374389,6.033392 4.312769,9.243815 9.402089,10.272957 1.1871,0.239727 4.50535,0.290508 16.57048,0.253246 13.62023,-0.04221 15.21357,-0.08376 16.39803,-0.428341 4.34508,-1.264253 6.51251,-3.619641 7.80314,-8.479791 0.48572,-1.82944 0.48803,-1.921769 0.55958,-22.793805 0.0534,-15.6738939 0.008,-21.03427136 -0.18202,-21.26278646 -0.19818,-0.23873729 -2.28317,-0.34953248 -4.37872,-0.34062929878 z M 375.26534,0.01434564 c -2.13183,0.007914 -4.25573,0.11508192 -4.42159,0.31523873 -0.17477,0.21070874 -0.26017,5.79795253 -0.30007,19.67801963 l -0.0557,19.384215 -8.73138,-19.374982 C 356.95445,9.3607125 352.88899,0.50566961 352.72213,0.33881731 352.47087,0.08754961 350.37796,0.03544948 340.53071,0.03544948 h -11.88773 l -0.34063,0.48571827 c -0.30337,0.43328838 -0.3403,3.28395665 -0.3403,26.23703025 0,25.459485 0.005,25.755928 0.43725,26.188226 0.4046,0.404601 0.72906,0.437576 4.33122,0.437576 3.01752,0 3.98896,-0.07024 4.31805,-0.310622 0.41318,-0.302049 0.42736,-0.826019 0.53387,-19.818493 l 0.10914,-19.508199 8.84449,19.615697 c 5.1533,11.429053 9.00244,19.700443 9.22304,19.818493 0.21928,0.117389 5.26344,0.203124 11.96589,0.203124 10.24196,0 11.62656,-0.04023 11.93026,-0.343927 0.30832,-0.308314 0.3436,-3.004661 0.3436,-26.411796 0,-19.9836958 -0.0613,-26.12953209 -0.26248,-26.33067815 -0.19884,-0.19883782 -2.3389,-0.29083741 -4.47104,-0.28325321 z M 224.95714,0.03479 205.98279,0.03544948 c -18.0451,0 -19.05545,0.02044436 -20.62835,0.42273647 -2.25152,0.57573935 -3.73966,1.37372865 -5.10021,2.73426735 -1.88417,1.884178 -3.13557,4.8997201 -3.58732,8.6436757 -0.29282,2.429579 -0.29513,27.32058 -0.003,29.653874 0.43263,3.451138 1.53168,6.388861 3.09105,8.263805 1.3434,1.615434 3.93159,2.975972 6.47526,3.404315 v -0.0013 c 1.60983,0.271712 39.57103,0.271382 40.07753,0 0.41218,-0.220272 0.42306,-0.630807 0.42306,-16.184674 V 21.013664 l -0.5609,-0.213346 c -0.34261,-0.130251 -5.81609,-0.213348 -14.05385,-0.213348 -11.85805,0 -13.55162,0.04155 -13.97865,0.34063 -0.47583,0.333045 -0.48605,0.436586 -0.48605,4.875649 0,3.235813 0.0752,4.610201 0.26248,4.797497 0.1873,0.187298 1.56432,0.26248 4.81002,0.26248 h 4.54789 v 5.454025 c 0,5.448421 -0.001,5.454356 -0.52727,6.067027 l -0.52727,0.61366 -4.2689,0.06727 c -4.73914,0.07518 -5.44942,-0.07485 -5.76961,-1.219076 -0.21829,-0.780184 -0.21829,-29.494278 0,-30.274131 0.35712,-1.276453 0.17279,-1.260955 15.01771,-1.260955 13.27498,0 13.57604,-0.0096 14.00372,-0.4372452 0.40723,-0.4072384 0.43724,-0.7287423 0.43724,-4.6520795 0,-3.4610312 -0.0607,-4.30188767 -0.34029,-4.7008823 z M 0.68059911,0.03544948 0.34029955,0.52116775 C 0.03693174,0.95445613 0,3.8051244 0,26.758198 0,52.217683 0.00461647,52.514126 0.43691561,52.946424 0.84151596,53.351025 1.1656579,53.384 4.7681507,53.384 c 3.0171909,0 3.9892869,-0.07024 4.3180453,-0.310622 0.4125142,-0.30139 0.4273529,-0.806893 0.5338614,-17.920135 L 9.7292039,17.5434 15.167402,35.190175 c 3.138867,10.185904 5.582957,17.762515 5.781135,17.920464 0.256543,0.204114 1.923418,0.273361 6.600228,0.273361 4.667248,0 6.348632,-0.06958 6.618036,-0.273361 0.22192,-0.167842 2.536419,-7.124528 5.999758,-18.031919 l 5.638685,-17.758229 0.109145,17.820881 c 0.0953,15.522539 0.152015,17.84792 0.437576,18.028292 0.192573,0.122006 4.046333,0.20873 9.346696,0.210708 8.729739,0.0033 9.033107,-0.01055 9.456503,-0.433948 0.4323,-0.432298 0.437246,-0.728741 0.437246,-26.188226 0,-22.9530736 -0.03693,-25.80374187 -0.3403,-26.23703025 L 64.911481,0.03544948 H 53.450442 41.989074 L 41.672516,0.5271032 C 41.49841,0.79782601 39.465516,6.8734261 37.154974,14.02829 34.844103,21.183485 32.888698,27.111028 32.80956,27.201049 32.73042,27.29107 30.857124,21.409032 28.646496,14.129523 26.436198,6.8503438 24.492335,0.7015397 24.326472,0.46511065 24.033656,0.04699065 23.709514,0.03544948 12.353006,0.03544948 Z m 256.68512089,0 -0.34063,0.48571827 c -0.30337,0.43328838 -0.3403,3.28395665 -0.3403,26.23703025 0,25.459485 0.005,25.755928 0.43724,26.188226 0.43099,0.430981 0.72908,0.437576 20.67617,0.437576 13.53318,0 20.37874,-0.07518 20.66166,-0.226537 0.39767,-0.213017 0.42306,-0.502865 0.42306,-4.875649 0,-3.324845 -0.0749,-4.724293 -0.26247,-4.91192 -0.19719,-0.196859 -2.99808,-0.262479 -11.26023,-0.262479 H 276.36281 V 36.98565 30.863886 h 10.17205 10.17206 l 0.22587,-0.593876 c 0.33899,-0.891967 0.17246,-8.92495 -0.19257,-9.289321 -0.22291,-0.222579 -2.45332,-0.297102 -10.33099,-0.344916 l -10.04642,-0.061 v -5.131532 -5.131863 h 10.83682 c 7.05232,0 10.98489,-0.07881 11.26023,-0.226207 0.39767,-0.213017 0.42306,-0.5028651 0.42306,-4.8759782 0,-3.3245156 -0.0749,-4.72396454 -0.26247,-4.91159095 -0.20049,-0.20048656 -5.10846,-0.26214937 -20.75861,-0.26214937 z M 53.602785,1.7841012 h 10.240314 v 0.00297 H 53.684233 Z M 80.569218,38.078764 c -7.729945,0 -8.866255,0.04287 -9.167315,0.343597 -0.298092,0.298091 -0.343597,1.268539 -0.343597,7.308856 0,6.040647 0.0455,7.011094 0.343597,7.308856 0.30106,0.301059 1.43737,0.343927 9.167315,0.343927 7.730272,0 8.866253,-0.04287 9.167313,-0.343927 0.297762,-0.297762 0.343597,-1.268209 0.343597,-7.308856 0,-6.040317 -0.04583,-7.010765 -0.343597,-7.308856 -0.30106,-0.30073 -1.437041,-0.343597 -9.167313,-0.343597 z m 81.553182,0 c -7.72994,0 -8.86625,0.04287 -9.16731,0.343597 -0.2981,0.298091 -0.3436,1.268539 -0.3436,7.308856 0,6.040647 0.0455,7.011094 0.3436,7.308856 0.30106,0.301059 1.43737,0.343927 9.16731,0.343927 7.73027,0 8.86659,-0.04287 9.16765,-0.343927 0.29776,-0.297762 0.34327,-1.268209 0.34327,-7.308856 0,-6.040317 -0.0455,-7.010765 -0.34327,-7.308856 -0.30106,-0.30073 -1.43738,-0.343597 -9.16765,-0.343597 z m 79.58559,0 c -7.73028,0 -8.86627,0.04287 -9.16733,0.343597 -0.29776,0.298091 -0.34359,1.268539 -0.34359,7.308856 0,6.040647 0.0458,7.011094 0.34359,7.308856 0.30106,0.301059 1.43705,0.343927 9.16733,0.343927 7.72993,0 8.86625,-0.04287 9.16731,-0.343927 0.29809,-0.297762 0.34359,-1.268209 0.34359,-7.308856 0,-6.040317 -0.0455,-7.010765 -0.34359,-7.308856 -0.30106,-0.30073 -1.43738,-0.343597 -9.16731,-0.343597 z m 71.27692,0 c -7.72994,0 -8.86592,0.04287 -9.16698,0.343597 -0.2981,0.298091 -0.3436,1.268539 -0.3436,7.308856 0,6.040647 0.0455,7.011094 0.3436,7.308856 0.30106,0.301059 1.43704,0.343927 9.16698,0.343927 7.73027,0 8.86659,-0.04287 9.16764,-0.343927 0.29776,-0.297762 0.3436,-1.268209 0.3436,-7.308856 0,-6.040317 -0.0458,-7.010765 -0.3436,-7.308856 -0.30105,-0.30073 -1.43737,-0.343597 -9.16764,-0.343597 z" />
</svg>
