<?xml version="1.0" encoding="UTF-8" standalone="no"?>
<svg
   version="1.1"
   viewBox="0 0 380 159.21281"
   id="svg18"
   width="380"
   height="159.21281"
   xmlns="http://www.w3.org/2000/svg"
   xmlns:svg="http://www.w3.org/2000/svg">
  <defs
     id="defs18" />
  <path
     class="st0"
     d="m 190.76218,21.318042 3.42485,3.42485 1.97969,-1.979682 -2.97943,-2.979422 h 6.62204 v 1.62334 c 0,0.296952 -0.23756,0.534514 -0.53451,0.534514 h -1.70253 v 2.80125 h 3.16749 c 1.02944,0 1.8708,-0.841365 1.8708,-1.8708 v -0.93045 -2.147955 h 4.11774 v -2.167753 h -4.10784 v -0.960145 h 2.55379 V 8.9351293 h -0.99974 v 0 h -5.45402 V 7.9749834 h 8.01771 v -2.167752 h -8.01771 V 4.5501331 h -2.80126 v 1.2570983 h -8.02761 v 2.167752 h 8.02761 v 0.9601459 h -4.9294 v 0 h -1.52436 v 7.7306597 h 2.80125 v 0 h 7.55249 v 0.960145 h -11.92759 v 2.167753 h 4.3949 z m 11.61084,-6.384475 h -3.65251 v -1.662934 h 3.65251 z m 0,-4.266216 v 0.87106 h -3.65251 v -0.87106 z m -6.45377,0.87106 h -3.65251 v -0.87106 h 3.65251 z m -3.65251,1.732222 h 3.65251 v 1.662934 h -3.65251 z"
     style="fill:#ffffff;stroke-width:0.0989841"
     id="path1" />
  <path
     class="st0"
     d="m 213.38005,18.71476 v 0 -0.366242 h 3.64262 v 6.404273 h 2.80125 v -6.404273 h 3.65251 v 1.445169 0 1.623339 c 0,0.296952 -0.23756,0.534514 -0.53451,0.534514 h -1.70253 v 2.801251 h 3.16749 c 1.02944,0 1.8708,-0.841365 1.8708,-1.8708 v -0.930451 -6.641834 0 -9.5123731 h -0.78197 v 0 H 211.49935 210.5689 V 18.724658 c 0.01,1.752019 -1.04923,3.216984 -2.28653,4.464184 0.66319,0.653295 1.70253,1.534253 2.36572,2.187548 1.76192,-1.771815 2.74186,-4.167231 2.73196,-6.66163 z m 0,-3.167492 V 13.4785 h 3.64262 v 2.068768 z m 10.10628,-4.870018 h -3.65251 V 8.5985833 h 3.65251 z m -6.46366,0 h -3.64262 V 8.5985833 h 3.64262 z m 2.80125,4.870018 V 13.4785 h 3.65251 v 2.068768 z"
     style="fill:#ffffff;stroke-width:0.0989841"
     id="path2" />
  <rect
     x="247.48007"
     y="5.896317"
     class="st0"
     width="1.4946601"
     height="4.503777"
     style="fill:#ffffff;stroke-width:0.0989841"
     id="rect2" />
  <rect
     x="250.86533"
     y="5.896317"
     class="st0"
     width="1.4946601"
     height="4.503777"
     style="fill:#ffffff;stroke-width:0.0989841"
     id="rect3" />
  <path
     class="st0"
     d="m 312.7898,15.873916 c 2.87054,0.197968 5.6124,1.326387 8.23548,2.682469 0.49492,-0.960146 1.1977,-2.583485 1.69262,-3.543631 -3.0883,-1.593644 -6.49335,-2.415212 -9.9281,-2.454806 V 6.3813392 h -3.24668 V 24.752791 h 3.24668 z"
     style="fill:#ffffff;stroke-width:0.0989841"
     id="path3" />
  <rect
     x="327.49884"
     y="6.06459"
     class="st0"
     width="12.076062"
     height="3.2466788"
     style="fill:#ffffff;stroke-width:0.0989841"
     id="rect4" />
  <path
     class="st0"
     d="m 350.90858,24.742892 h 3.24668 V 13.399313 c 2.28653,-1.801511 4.12764,-4.1969266 5.25605,-7.0179738 h -3.56342 c -2.34593,4.5334728 -7.04767,7.4337068 -12.23444,7.4139098 v 3.246679 c 2.57359,0.0099 5.05809,-0.574108 7.29513,-1.633238 z"
     style="fill:#ffffff;stroke-width:0.0989841"
     id="path4" />
  <rect
     x="236.28499"
     y="6.2427616"
     class="st0"
     width="9.2055225"
     height="3.2466788"
     style="fill:#ffffff;stroke-width:0.0989841"
     id="rect5" />
  <path
     class="st0"
     d="m 252.60746,18.932525 c 1.63323,-0.08909 3.42485,-0.584007 5.12737,-1.415473 v 7.235739 h 3.24668 v -9.334202 c 1.84111,-1.534254 3.29617,-3.513936 3.90987,-5.7707741 -1.07892,0 -2.16775,0 -3.24667,0 -1.40558,3.4347491 -6.52306,6.0578281 -9.58167,6.0578281 z"
     style="fill:#ffffff;stroke-width:0.0989841"
     id="path5" />
  <path
     class="st0"
     d="m 267.09873,21.545705 c 0.0792,0.287054 0.77208,2.999219 0.82157,3.197187 3.15759,-0.346444 6.236,-2.603282 8.45324,-5.54311 1.9104,1.484762 3.49414,3.939568 5.10758,6.305288 l 2.36572,-2.880438 c -1.72232,-2.30633 -3.68221,-4.741339 -5.77077,-6.156812 1.00964,-1.999479 1.61344,-4.117739 1.61344,-6.067726 V 7.1534153 h -11.8385 v 3.2466787 h 8.59182 c -0.01,2.514197 -2.68247,9.076843 -9.3441,11.145611 z"
     style="fill:#ffffff;stroke-width:0.0989841"
     id="path6" />
  <rect
     x="317.64001"
     y="5.896317"
     class="st0"
     width="1.4946601"
     height="4.503777"
     style="fill:#ffffff;stroke-width:0.0989841"
     id="rect6" />
  <rect
     x="321.02527"
     y="5.896317"
     class="st0"
     width="1.4946601"
     height="4.503777"
     style="fill:#ffffff;stroke-width:0.0989841"
     id="rect7" />
  <rect
     x="378.50534"
     y="5.896317"
     class="st0"
     width="1.4946601"
     height="4.4938788"
     style="fill:#ffffff;stroke-width:0.0989841"
     id="rect8" />
  <path
     class="st0"
     d="m 330.75541,21.506112 h -3.75149 l 0.50481,3.246679 h 3.24668 c 6.8893,0 10.29435,-4.978901 10.29435,-10.145872 v 0 -3.207085 H 325.2123 v 3.246679 h 12.59078 c -0.0198,3.523834 -2.34592,6.859599 -7.04767,6.859599 z"
     style="fill:#ffffff;stroke-width:0.0989841"
     id="path8" />
  <path
     class="st0"
     d="m 291.37953,10.390196 h 6.10732 v 0.999739 h 0.01 c 0,5.780673 -5.35504,9.621256 -11.03673,10.145872 0.15838,1.138317 0.34645,2.266736 0.50482,3.207085 7.99792,-1.217504 13.77859,-5.909351 13.77859,-13.352957 0,0 -0.01,0 -0.01,0 v -1.8114089 0 -2.4350092 h -8.13649 c 0.0792,-0.2474603 0.14847,-0.4850222 0.21776,-0.722584 L 289.61762,5.62906 c -0.83147,2.9893202 -2.18755,6.651732 -4.385,8.868976 l 1.33629,3.078406 c 1.98958,-1.851003 3.61292,-4.474082 4.81062,-7.186246 z"
     style="fill:#ffffff;stroke-width:0.0989841"
     id="path9" />
  <path
     class="st0"
     d="m 372.91275,11.706684 c 0,6.176609 -3.63272,9.858818 -9.79943,9.858818 0,0 0,0 -0.50482,0 0,0 0.44543,2.870539 0.49492,3.187289 8.98776,0 13.05601,-5.077885 13.05601,-13.036208 v 0 -0.0099 c 0,0 0,0 0,0 v 0 -1.316488 0 -4.4938789 h -1.49466 V 10.04375 h -1.17792 V 7.1534153 H 361.975 v 3.2466787 h 10.93775 z"
     style="fill:#ffffff;stroke-width:0.0989841"
     id="path10" />
  <polygon
     class="st0"
     points="190.9,259.8 190.9,60.4 130.2,60.4 130.2,174.8 129.7,174.8 89.7,60.4 0,60.4 0,259.8 60.7,259.8 60.7,144.7 61.2,144.7 101.2,259.8 "
     style="fill:#ffffff"
     id="polygon10"
     transform="matrix(0.09898411,0,0,0.09898411,0,-0.00313606)" />
  <polygon
     class="st0"
     points="529.3,259.8 529.3,60.4 468.7,60.4 468.7,174.8 468.2,174.8 428.1,60.4 338.4,60.4 338.4,259.8 399.1,259.8 399.1,144.7 399.6,144.7 439.6,259.8 "
     style="fill:#ffffff"
     id="polygon11"
     transform="matrix(0.09898411,0,0,0.09898411,0,-0.00313606)" />
  <polygon
     class="st0"
     points="1112.1,259.8 1112.1,60.4 1051.5,60.4 1051.5,174.8 1050.9,174.8 1010.9,60.4 921.2,60.4 921.2,259.8 981.9,259.8 981.9,144.7 982.4,144.7 1022.4,259.8 "
     style="fill:#ffffff"
     id="polygon12"
     transform="matrix(0.09898411,0,0,0.09898411,0,-0.00313606)" />
  <rect
     x="22.518887"
     y="5.9755049"
     class="st0"
     width="7.4040117"
     height="19.727533"
     style="fill:#ffffff;stroke-width:0.0989841"
     id="rect12" />
  <polygon
     class="st0"
     points="721.1,114.6 721.1,60.4 551,60.4 551,114.6 598.6,114.6 598.6,259.8 673.4,259.8 673.4,114.6 "
     style="fill:#ffffff"
     id="polygon13"
     transform="matrix(0.09898411,0,0,0.09898411,0,-0.00313606)" />
  <path
     class="st0"
     d="m 131.90623,16.052087 c 0,-5.840063 -2.38552,-10.0765826 -9.86872,-10.0765826 h -8.76999 V 25.703038 h 9.21542 c 5.75098,0 9.42329,-3.692107 9.42329,-9.650951 z m -11.39307,5.186768 V 10.479281 h 0.72258 c 1.19771,0 1.98958,0.366242 2.45481,1.158115 0.48502,0.821568 0.54441,2.316228 0.54441,4.226621 0,1.900495 -0.0495,3.395155 -0.54441,4.216723 -0.46523,0.791873 -1.267,1.158115 -2.45481,1.158115 z"
     style="fill:#ffffff;stroke-width:0.0989841"
     id="path13" />
  <path
     class="st0"
     d="m 143.51707,26.237552 c 6.45376,0 9.66084,-4.226621 9.66084,-10.383433 0,-6.156812 -3.21698,-10.393332 -9.66084,-10.393332 -6.45377,0 -9.66085,4.23652 -9.66085,10.393332 0,6.146913 3.21698,10.383433 9.66085,10.383433 z m 0,-15.778067 c 1.1878,0 1.98958,0.673092 1.98958,5.394634 0,4.830425 -0.85127,5.384736 -1.98958,5.384736 -1.13832,0 -1.99948,-0.56421 -1.98959,-5.384736 0,-4.731441 0.80178,-5.394634 1.98959,-5.394634 z"
     style="fill:#ffffff;stroke-width:0.0989841"
     id="path14" />
  <path
     class="st0"
     d="m 162.32405,16.279751 c 3.32586,0 5.82026,-2.514197 5.82026,-5.750977 0,-3.3753587 -2.26673,-5.1768696 -4.74134,-5.1768696 -1.28679,0 -2.25683,0.3167492 -3.02891,0.9997396 h -0.0792 c 0.42563,-1.5045585 1.68273,-2.8309457 4.81063,-2.9794218 0.53451,-0.029695 0.92055,-0.039594 1.30659,-0.0099 l 0.0198,-3.31596781 c -0.31675,-0.02969523 -0.73248,-0.06928887 -1.40558,-0.02969523 -2.55379,0.05939047 -4.64235,0.81166973 -6.26569,2.31622824 -1.70253,1.5936442 -2.74186,4.068247 -2.74186,6.9981768 0,3.5931228 1.91039,6.9486848 6.30529,6.9486848 z m -2.02918,-6.7012249 c 0.24746,-0.6433968 0.90076,-1.1581142 1.72233,-1.1581142 1.35608,0 1.8609,1.2175046 1.8708,2.3360251 0,1.316489 -0.61371,2.355822 -1.63324,2.355822 -1.39568,0.0099 -1.99948,-1.316489 -2.08857,-2.583485 0,-0.475124 0.0297,-0.7522797 0.12868,-0.9502479 z"
     style="fill:#ffffff;stroke-width:0.0989841"
     id="path15" />
  <path
     class="st0"
     d="m 175.88487,16.022392 v 0 h 3.95936 v -3.543631 h 1.67284 V 9.2320817 h -1.67284 V 0.2245274 h -5.25605 l -5.28575,9.4133891 v 2.8408445 h 6.58244 z m -2.77155,-6.7903103 0.0198,-0.049492 1.29669,-2.623079 c 0.55431,-1.0987236 0.97995,-2.1083616 1.47487,-3.17739 h 0.0891 c -0.0495,1.1086221 -0.10888,2.1479552 -0.10888,3.1476948 v 2.7121647 z"
     style="fill:#ffffff;stroke-width:0.0989841"
     id="path16" />
  <polygon
     class="st0"
     points="885.3,185.2 885.3,134 816.8,134 816.8,113.1 891.2,113.1 891.2,60.4 743.2,60.4 743.2,259.8 893.5,259.8 893.5,207.5 816.8,207.5 816.8,185.2 "
     style="fill:#ffffff"
     id="polygon16"
     transform="matrix(0.09898411,0,0,0.09898411,0,-0.00313606)" />
  <path
     class="st0"
     d="m 325.01433,37.887982 h -14.21411 -19.3217 -3.55353 -6.16671 -2.12816 V 76.808536 C 273.79006,54.04219 255.90363,37.887982 226.7627,37.887982 h -14.21411 -19.3217 -3.55353 -6.16671 -2.11826 V 105.93956 H 163.38318 V 37.878084 H 123.63116 L 89.026311,99.574882 C 83.493099,84.489703 70.150041,76.600669 55.876532,76.600669 c -9.769732,0 -17.025268,2.36572 -22.885127,7.502996 h -0.56421 c 3.246679,-11.373275 12.768951,-21.410264 36.38656,-22.538683 4.068247,-0.18807 6.928888,-0.257359 9.90831,-0.04949 V 36.423017 C 76.287056,36.195354 73.238345,35.928097 68.110968,36.195354 48.759574,36.670478 32.991405,42.39176 20.717375,53.72544 7.8593386,65.791604 0.00989841,84.519398 0.00989841,106.64234 c 0,27.20084 14.47147759,52.58037 47.71034259,52.57047 19.846315,0 35.713468,-11.80881 41.563429,-28.76479 h 44.18651 v 26.76531 l 29.913,-0.01 v -26.76531 h 18.00521 v 26.77521 h 2.11826 6.16671 3.55353 19.3217 14.21411 c 29.14093,0 47.02736,-16.15421 52.86742,-38.92056 v 38.92056 h 2.11826 6.16671 3.55353 19.3217 14.21412 c 36.16879,0 54.98567,-24.88461 54.98567,-56.40115 v -6.532948 c 0.01,-31.516542 -18.81688,-56.39125 -54.97578,-56.39125 z M 47.245117,135.17946 h -0.158374 c -10.452723,0 -15.035687,-10.02709 -15.688982,-19.55926 0,-3.54363 0.277155,-5.65199 0.979942,-7.12685 1.821308,-4.81063 6.73092,-8.750195 12.966919,-8.750195 10.294348,0 14.154728,9.175825 14.20422,17.629065 0,9.9974 -4.612659,17.80724 -12.303725,17.80724 z M 133.47018,85.430052 v 20.519408 h -20.87575 l 0.12868,-0.37614 9.79943,-19.876011 c 4.17712,-8.304767 7.39411,-15.966137 11.13571,-24.023444 h 0.6335 c -0.39594,8.304767 -0.82157,16.193801 -0.82157,23.756187 z M 226.7627,132.54649 H 212.54859 V 62.564722 h 14.21411 c 11.19511,0 20.83616,11.373274 20.83616,34.990884 0,23.617604 -9.64105,34.990884 -20.83616,34.990884 z m 98.25163,0 H 310.80022 V 62.564722 h 14.21411 c 11.19511,0 20.83616,11.373274 20.83616,34.990884 0,23.617604 -9.64105,34.990884 -20.83616,34.990884 z"
     style="fill:#ffffff;stroke-width:0.0989841"
     id="path17" />
  <path
     class="st0"
     d="m 233.87966,11.914551 v 3.246679 h 7.30503 v 2.068768 0.0099 c 0,1.851003 0.46522,2.92993 -5.54311,4.830425 l 0.84136,2.68247 c 4.4048,-1.128419 7.94843,-2.425111 7.94843,-7.512895 v -0.0099 -2.068768 h 6.08752 v -3.246679 z"
     style="fill:#ffffff;stroke-width:0.0989841"
     id="path18" />
</svg>
