<?xml version="1.0" encoding="UTF-8" standalone="no"?>
<svg
   viewBox="24.6442 18.21 380.00063 75.627001"
   width="380.00061"
   height="75.626999"
   version="1.1"
   id="svg1"
   xmlns="http://www.w3.org/2000/svg"
   xmlns:svg="http://www.w3.org/2000/svg">
  <defs
     id="defs1" />
  <path
     d="m 283.10147,54.587418 h 42.02026 a 0.08353929,0.08353929 0 0 1 0.0835,0.08354 v 14.066124 a 0.2695324,0.2695324 0 0 1 -0.26953,0.269532 q -22.49572,0.0063 -44.81016,0.0079 c -6.91327,0 -12.9675,-4.760163 -13.93056,-11.761701 q -0.13241,-0.96149 -0.13398,-3.147697 -0.005,-11.028761 0.0205,-22.059099 c 0.0142,-6.691024 4.54421,-12.374848 11.12017,-13.616904 q 1.11912,-0.211212 3.12406,-0.211212 22.31286,-0.0032 44.75656,-0.0016 0.12295,0 0.12295,0.122944 v 14.141782 a 0.11821596,0.11821596 0 0 1 -0.11822,0.118217 h -42.00607 a 0.07881065,0.07881065 0 0 0 -0.0788,0.07881 v 21.811634 q 0,0.09773 0.0993,0.09773 z"
     id="path14"
     style="fill:#ffffff;stroke-width:0.157621" />
  <path
     d="M 404.64482,55.306171 A 13.698866,13.698866 0 0 1 390.94596,69.005036 H 348.28418 A 13.698866,13.698866 0 0 1 334.58532,55.306171 V 31.908866 A 13.698866,13.698866 0 0 1 348.28418,18.21 h 42.66178 a 13.698866,13.698866 0 0 1 13.69886,13.698866 z M 387.70211,32.663873 a 0.06462473,0.06462473 0 0 0 -0.0646,-0.06462 h -36.36008 a 0.06462473,0.06462473 0 0 0 -0.0646,0.06462 v 21.858919 a 0.06462473,0.06462473 0 0 0 0.0646,0.06462 h 36.36008 a 0.06462473,0.06462473 0 0 0 0.0646,-0.06462 z"
     id="path16"
     style="fill:#ffffff;stroke-width:0.157621" />
  <path
     d="M 41.526352,33.663191 V 68.97036 a 0.07881065,0.07881065 0 0 1 -0.07881,0.07881 H 24.976117 q -0.07881,0 -0.07881,-0.07881 V 19.277096 a 0.07565821,0.07565821 0 0 1 0.07566,-0.07566 q 25.350231,-0.0016 50.717802,0.0016 c 6.739886,0 12.582907,5.228298 13.432486,11.950846 q 0.121368,0.96149 0.121368,3.147697 0.0032,17.341495 0.0016,34.694022 a 0.05359124,0.05359124 0 0 1 -0.05359,0.05359 H 73.011204 q -0.07881,0 -0.07881,-0.07881 V 33.702596 q 0,-0.07881 -0.07881,-0.07881 H 41.565758 a 0.03940532,0.03940532 0 0 0 -0.03941,0.0394 z"
     id="path20"
     style="fill:#ffffff;stroke-width:0.157621" />
  <path
     d="m 145.61946,32.321834 -45.02453,0.0016 a 0.11821596,0.11821596 0 0 1 -0.11822,-0.118216 V 19.277096 a 0.074082,0.07565821 0 0 1 0.0741,-0.07566 q 23.81501,-0.0016 47.64577,0.0016 c 6.88174,0 12.65226,4.958766 13.64212,11.758548 q 0.14974,1.021387 0.14974,3.142969 0,17.434491 0,34.880015 a 0.06462473,0.06462473 0 0 1 -0.0646,0.06462 q -25.8294,0 -51.67456,0 c -6.34426,0.0016 -12.039121,-4.90675 -13.189756,-11.126486 -0.365681,-1.979723 -0.233279,-4.514274 -0.239584,-6.716243 q -0.0047,-2.216156 0.100877,-3.147697 C 97.608006,42.065982 102.16957,37.11825 108.145,36.063763 q 1.09073,-0.192297 3.13981,-0.192297 17.1618,-0.0032 34.33465,-0.0016 a 0.05516745,0.05359124 0 0 0 0.0552,-0.05359 v -3.439297 a 0.05516745,0.05516745 0 0 0 -0.0552,-0.05517 z m 0.0552,16.868631 a 0.04098154,0.04098154 0 0 0 -0.041,-0.04098 h -31.75753 a 0.04098154,0.04098154 0 0 0 -0.041,0.04098 v 7.010994 a 0.04098154,0.04098154 0 0 0 0.041,0.04098 h 31.75753 a 0.04098154,0.04098154 0 0 0 0.041,-0.04098 z"
     id="path22"
     style="fill:#ffffff;stroke-width:0.157621" />
  <path
     d="m 205.96477,33.663191 a 0.03940532,0.03940532 0 0 0 -0.0394,-0.0394 h -16.9837 a 0.07881065,0.07881065 0 0 0 -0.0788,0.07881 v 35.267764 q 0,0.07881 -0.0788,0.07881 h -16.47143 q -0.0788,0 -0.0788,-0.07881 V 19.277096 a 0.074082,0.07565821 0 0 1 0.0741,-0.07566 q 35.14482,-0.0016 70.30383,-0.0016 c 7.53587,0 13.73511,5.999066 13.75245,13.605869 q 0.0441,18.074433 0.0441,36.164629 a 0.07881065,0.07881065 0 0 1 -0.0788,0.07881 h -16.16567 a 0.07565821,0.074082 0 0 1 -0.0757,-0.07408 l 0.002,-35.272492 q 0,-0.07881 -0.0788,-0.07881 h -17.29933 q -0.0788,0 -0.0788,0.07881 v 35.267764 q 0,0.07881 -0.0788,0.07881 H 206.083 a 0.11821596,0.11821596 0 0 1 -0.11821,-0.118215 z"
     id="path24"
     style="fill:#ffffff;stroke-width:0.157621" />
  <path
     d="m 71.86845,80.574439 v -7.74551 a 0.16077371,0.16077371 0 0 1 0.160774,-0.160774 l 6.109401,0.0095 q 0.08196,0 0.07723,0.08196 c -0.02049,0.392478 0.04098,0.79126 0.0331,1.14906 -0.0662,3.327386 0.05359,5.619198 -0.02522,7.652514 q -0.0268,0.676195 -0.27899,1.270427 -0.57059,1.339781 -1.606161,2.343829 c -0.485474,0.471287 -2.47623,1.891455 -3.210746,1.911946 q -2.049077,0.05674 -4.091848,0.093 c -0.424002,0.0079 -0.518574,0.204908 -0.518574,0.60369 q 0.0032,2.925451 0.0016,5.858783 a 0.11506354,0.11506354 0 0 1 -0.115063,0.115064 l -6.219737,-0.0032 a 0.0488626,0.0488626 0 0 1 -0.04886,-0.04886 q 0.0016,-2.931756 -0.0016,-5.863512 -0.0016,-0.616299 -0.589504,-0.630485 -1.078129,-0.0268 -2.156258,-0.0331 c -2.112123,-0.01419 -3.563815,-0.33731 -4.966644,-1.905641 -1.272004,-1.421745 -2.069568,-2.807236 -2.055382,-4.772773 q 0.02679,-3.882212 0.04571,-7.762849 0,-0.06935 0.06778,-0.06935 l 6.066842,0.0095 q 0.239585,0 0.239585,0.239585 v 7.677733 a 0.07881065,0.07881065 0 0 0 0.07881,0.07881 H 71.76915 q 0.0993,0 0.0993,-0.0993 z"
     id="path28"
     style="fill:#ffffff;stroke-width:0.157621" />
  <path
     d="m 117.64955,79.136933 h -9.52347 a 0.08826792,0.08826792 0 0 1 -0.0883,-0.08827 l 0.008,-6.285937 a 0.08826792,0.08826792 0 0 1 0.0883,-0.08827 h 25.6308 a 0.08826792,0.08826792 0 0 1 0.0883,0.08827 v 6.285937 a 0.08826792,0.08826792 0 0 1 -0.0883,0.08827 h -9.56447 a 0.08826792,0.08826792 0 0 0 -0.0883,0.08827 l 0.0236,14.441262 a 0.08826792,0.08826792 0 0 1 -0.0883,0.08827 l -6.22289,0.0079 a 0.08826792,0.08826792 0 0 1 -0.0883,-0.08827 l 0.002,-14.449143 a 0.08826792,0.08826792 0 0 0 -0.0883,-0.08827 z"
     id="path30"
     style="fill:#ffffff;stroke-width:0.157621" />
  <path
     d="m 192.42982,79.136933 h -7.76127 a 0.0362529,0.0362529 0 0 0 -0.0363,0.03625 l 0.0205,14.498006 a 0.08984414,0.08984414 0 0 1 -0.0899,0.08984 l -6.06211,-0.0063 a 0.3546479,0.35307169 0.1 0 1 -0.35307,-0.353072 q -0.005,-6.695753 -0.003,-13.240189 c 0,-0.214365 0.0741,-0.627333 0.0236,-0.931541 q -0.0142,-0.093 -0.10876,-0.093 h -7.95357 a 0.07881065,0.07881065 0 0 0 -0.0788,0.07881 v 14.460176 a 0.07723444,0.07723444 0 0 1 -0.0772,0.07723 l -6.20555,0.0079 q -0.10088,0 -0.10088,-0.100878 V 72.912469 q 0,-0.241161 0.24116,-0.241161 c 9.96166,0.0047 19.98638,-0.119792 30.01425,0.06935 0.84958,0.01576 1.85993,0.737667 2.51405,1.240479 1.95766,1.502132 2.83719,4.211641 2.82773,6.623247 q -0.0284,6.538131 -0.009,13.087296 A 0.05674366,0.05831988 0 0 1 199.175,93.75 l -6.55547,0.02049 q -0.0914,0 -0.0914,-0.09142 l 0.002,-14.442838 q 0,-0.0993 -0.0993,-0.0993 z"
     id="path32"
     style="fill:#ffffff;stroke-width:0.157621" />
  <path
     d="m 231.05335,80.675317 a 0.09142035,0.08984414 0 0 0 0.0914,-0.08984 V 77.79558 a 0.1591975,0.1591975 0 0 0 -0.1592,-0.159198 l -19.18881,0.0047 a 0.11821596,0.11979218 0 0 1 -0.11822,-0.119792 v -4.635643 q 0,-0.217517 0.21752,-0.217517 9.40053,0.01103 18.93347,0.0063 c 2.24925,-0.0016 4.86104,0.859037 5.97542,2.881317 0.31524,0.57059 0.67935,1.130145 0.70772,1.803188 0.0977,2.306 0.38302,4.575746 -1.31771,6.191364 -1.06553,1.010353 -2.77572,1.927708 -4.32829,2.000214 -4.37084,0.204908 -8.79527,0.09142 -13.17398,0.08827 -0.3184,0 -0.49651,0.145012 -0.52015,0.477592 q -0.0804,1.141179 0.011,2.279205 0.0378,0.483897 0.51857,0.485473 9.37374,0.02207 18.7459,0.03625 0.0804,0 0.0804,0.08039 v 4.665589 q 0,0.09142 -0.093,0.09142 -12.47887,0.0047 -24.94357,0.0016 c -0.1986,0 -0.47601,0.08984 -0.73766,-0.01419 q -0.0757,-0.02995 -0.0757,-0.111912 0,-4.060324 0,-8.119072 c 0,-2.168869 2.02385,-3.221779 3.78921,-4.241589 0.78022,-0.449221 2.1673,-0.595809 3.05786,-0.595809 q 6.2686,0 12.52774,0.0016 z"
     id="path34"
     style="fill:#ffffff;stroke-width:0.157621" />
  <path
     d="m 265.11845,72.753271 -0.10875,0.08039 q -0.0646,0.04729 -0.0694,0.127674 -0.11191,2.034891 -0.0804,4.924089 0.0662,5.976999 -0.0268,14.92516 -0.002,0.209636 0.12925,0.535912 0.0236,0.05517 0.082,0.04413 l 0.13871,-0.02837 q -0.14974,0.403511 -0.6226,0.398782 -2.97274,-0.02522 -5.95967,0.02207 a 0.10718248,0.10560626 89.2 0 1 -0.10875,-0.107183 v -6.188212 a 0.11506354,0.11506354 0 0 0 -0.11507,-0.115063 q -5.86666,0 -11.74751,0 c -1.22472,0 -2.77571,-0.275837 -3.85384,-0.881102 -1.76694,-0.991439 -3.43142,-3.537022 -3.43615,-5.570337 q -0.009,-4.025648 0.008,-8.063906 0.002,-0.184416 0.18599,-0.184416 l 6.11255,0.0032 q 0.0788,0 0.0788,0.07724 v 7.841659 a 0.07881065,0.07881065 0 0 0 0.0788,0.07881 h 12.65542 q 0.0362,0 0.0362,-0.03625 l -0.005,-7.685613 a 0.28214211,0.28214211 0 0 1 0.28214,-0.282143 q 3.04525,0.0016 6.13147,0.04098 0.11191,0.0016 0.21436,0.04256 z"
     id="path36"
     style="fill:#ffffff;stroke-width:0.157621" />
  <path
     d="m 273.8759,77.42359 q 0.32785,0.140282 0.70299,0.140282 4.02723,0.0016 8.05287,-0.0032 c 1.95608,-0.0016 4.26208,-0.297904 6.13304,0.365682 4.24002,1.503706 4.90833,6.412033 4.29361,10.235925 -0.40666,2.525094 -2.55977,4.708149 -5.00448,5.354396 q -1.2988,0.345191 -2.25556,0.318395 -5.49468,-0.146587 -10.99251,-0.0331 c -3.57958,0.07408 -6.19136,-1.677091 -7.31362,-5.065949 q -0.17811,-0.537488 -0.17811,-1.251513 0.009,-7.376676 0.003,-14.660356 a 0.15446886,0.15604508 0 0 1 0.15447,-0.156045 l 6.15353,0.0095 a 0.06304851,0.0614723 0 0 1 0.0631,0.06147 q 0.0252,2.038044 0.0158,4.072934 -0.002,0.25377 0.0678,0.493355 0.0236,0.08354 0.10403,0.118216 z m -0.12767,9.633813 -0.0772,0.184417 a 0.09299656,0.09299656 0 0 0 0.0851,0.130825 q 5.47419,-0.03625 10.81282,-0.0063 0.55955,0.0032 0.84012,-0.285294 l 0.95676,0.0079 q 0.10403,0 0.10403,-0.102453 V 84.07208 a 0.0488626,0.0488626 0 0 0 -0.0489,-0.04886 h -12.6034 q -0.093,0 -0.0977,0.09457 -0.0694,1.497402 0.0284,2.939637 z"
     id="path38"
     style="fill:#ffffff;stroke-width:0.157621" />
  <rect
     x="304.67511"
     y="72.67131"
     width="6.3836622"
     height="16.238144"
     rx="0.11506353"
     id="rect40"
     style="fill:#ffffff;stroke-width:0.157621" />
  <path
     d="m 342.34658,80.659554 v -2.920722 q 0,-0.0993 -0.0977,-0.0993 h -19.25029 a 0.11821596,0.11821596 0 0 1 -0.11821,-0.118215 v -4.719182 a 0.12924946,0.12924946 0 0 1 0.12925,-0.129249 q 9.32487,0.0032 18.66709,0 c 2.19723,0 3.76556,0.364105 5.43951,1.771663 0.78337,0.657281 1.60458,2.075872 1.61877,3.111444 0.0315,2.3391 0.45867,4.593085 -1.76063,6.336376 -1.56519,1.231022 -2.99796,1.73541 -5.05019,1.741715 q -6.03532,0.01576 -12.06906,0.0016 c -0.40509,0 -0.49966,0.308939 -0.50754,0.669891 q -0.0236,1.010353 0.0142,2.017553 c 0.0189,0.502812 0.28845,0.586351 0.74713,0.586351 q 9.26971,0 18.52996,0 a 0.08826792,0.08826792 0 0 1 0.0883,0.08827 l 0.005,4.643523 a 0.11663975,0.11663975 0 0 1 -0.11664,0.11664 q -12.43789,-0.0032 -24.77333,-0.0016 c -0.23013,0 -0.57059,0.09615 -0.88426,-0.01261 q -0.0772,-0.02679 -0.0772,-0.108759 0,-3.864874 -0.002,-7.726595 c 0,-2.484112 1.67867,-3.503922 3.71198,-4.591509 0.84486,-0.452372 2.02701,-0.643095 2.97747,-0.643095 q 6.38839,0 12.76417,0 a 0.01418591,0.01418591 0 0 0 0.0142,-0.01419 z"
     id="path42"
     style="fill:#ffffff;stroke-width:0.157621" />
  <path
     d="m 357.32218,80.646945 q 8.26409,0.08984 10.51965,0.01734 c 2.4715,-0.08196 4.8437,0.0268 6.84234,1.521046 0.94887,0.709296 1.92298,1.992333 1.98603,3.245422 q 0.14028,2.83876 0.0347,3.60007 c -0.43819,3.142969 -4.2542,4.821636 -7.05041,4.788535 q -9.34379,-0.110334 -18.69861,-0.04886 a 0.0977252,0.09614899 0 0 1 -0.0977,-0.09615 v -4.763315 q 0,-0.08827 0.0883,-0.08827 9.26025,0.02522 18.49843,-0.03625 0.41139,-0.0032 0.72349,-0.0993 a 0.20175525,0.20175525 0 0 0 0.14186,-0.192298 l -0.006,-2.720543 a 0.21121253,0.20963631 0 0 0 -0.21122,-0.209637 q -5.93601,-0.01419 -11.6687,-0.0047 -2.23192,0.0047 -3.13509,-0.217517 c -1.83629,-0.452373 -4.43232,-2.214579 -4.43862,-4.410243 q -0.009,-4.096578 0.0158,-8.10804 0.002,-0.151316 0.15289,-0.151316 l 25.61032,0.0032 a 0.07881065,0.07723444 0 0 1 0.0788,0.07724 v 4.763315 a 0.1229446,0.1229446 0 0 1 -0.12294,0.122944 h -19.27079 q -0.0741,0 -0.0741,0.07408 v 2.85137 q 0,0.08196 0.082,0.08196 z"
     id="path44"
     style="fill:#ffffff;stroke-width:0.157621" />
  <path
     d="M 50.583271,77.363694 Q 49.2892,77.234444 47.991977,77.250207 c -5.605013,0.06305 -11.211602,-0.02207 -16.819767,0.04098 q -0.08511,0.0016 -0.105606,0.08512 -0.02995,0.122945 0.122944,0.209636 -0.130826,1.508437 -0.04571,3.004262 0.0047,0.07881 0.08354,0.07881 5.844597,0.01261 11.676585,0.01261 c 2.898656,0 6.017981,0.726634 7.345152,3.582732 0.639943,1.376034 0.419273,3.901127 0.261651,5.393801 -0.151316,1.439082 -1.837864,2.441554 -2.900231,3.086225 -1.16955,0.709295 -2.75522,1.05291 -4.044562,1.045029 q -8.989143,-0.05674 -17.978284,-0.02679 c -0.215942,0 -0.49966,0.08354 -0.775498,-0.02049 q -0.0725,-0.02837 -0.0725,-0.105607 v -4.641946 q 0,-0.08196 0.08196,-0.08196 9.362705,-0.0095 18.712799,-0.0032 c 0.849579,0 0.586352,-1.963962 0.567437,-2.646462 -0.02364,-0.78653 -0.400358,-0.710872 -1.059215,-0.707719 q -3.97048,0.01891 -7.937808,-0.0063 c -0.985133,-0.0063 -2.901809,0.03783 -4.348772,-0.0331 -1.725953,-0.08354 -3.018447,-0.551674 -4.331433,-1.550993 -0.824359,-0.628908 -1.629804,-2.120006 -1.707038,-3.149274 q -0.159198,-2.091634 0.02679,-3.724591 c 0.255347,-2.235069 2.668529,-3.689914 4.641948,-4.214793 q 0.758158,-0.201755 1.997061,-0.201755 9.543969,0 19.089514,0 a 0.08196307,0.08196307 0 0 1 0.08196,0.08039 z"
     id="path46"
     style="fill:#ffffff;stroke-width:0.157621" />
  <path
     d="m 106.19364,77.373151 q -3.36521,-0.176536 -6.733584,-0.13713 c -4.240012,0.04886 -8.478448,-0.01261 -12.721613,0.05044 q -0.104031,0.0016 -0.08512,0.10403 0.02364,0.132402 0.146589,0.204908 l -0.03152,3.001109 q 0,0.07251 0.07251,0.07251 c 3.956293,0 7.951994,0.116639 11.900406,0.02522 2.707932,-0.06147 5.512012,0.767616 6.963702,3.218627 0.80387,1.35712 0.60211,3.514954 0.49651,5.124268 q -0.0977,1.511588 -1.16009,2.465197 c -2.21143,1.987604 -4.29991,2.29339 -7.33254,2.277628 q -8.639224,-0.04413 -17.158655,-0.01734 -0.190721,0.0016 -0.190721,-0.189147 l 0.01576,-4.564712 a 0.10245384,0.10245384 0 0 1 0.102454,-0.102453 q 9.367433,0.0047 18.566212,0.0016 0.326275,0 0.463407,-0.09457 c 0.343613,-0.239585 0.21594,-1.725953 0.209636,-2.581837 q -0.0032,-0.379867 -0.214366,-0.609995 -0.05832,-0.06305 -0.143435,-0.06305 -6.260718,0.0063 -12.516706,0.0016 -2.774135,-0.0016 -4.887836,-1.667633 C 81.321,83.392708 80.424134,81.849595 80.378424,81.047303 q -0.12452,-2.162564 -0.03941,-3.642628 c 0.141859,-2.493569 2.581836,-3.946837 4.698691,-4.523731 q 0.766039,-0.20806 2.132615,-0.20806 9.47304,0.0032 18.95554,0.0016 a 0.06462473,0.06462473 0 0 1 0.0646,0.06463 z"
     id="path48"
     style="fill:#ffffff;stroke-width:0.157621" />
  <path
     d="m 142.47018,88.857438 c 0.18914,-0.0016 0.38775,0.05044 0.56113,0.05044 q 9.35798,0.0032 18.71122,0.0016 a 0.08826792,0.08826792 0 0 1 0.0883,0.08827 v 4.676623 a 0.0851155,0.0851155 0 0 1 -0.0851,0.08512 q -8.00243,-0.0063 -15.99225,-0.0032 c -0.91262,0 -2.81669,0.127673 -4.09815,-0.03941 -3.17291,-0.409816 -5.75633,-3.29271 -5.72008,-6.501879 q 0.0583,-5.270856 0.0426,-8.342895 c -0.009,-1.94347 1.50528,-4.106034 3.1146,-5.088015 1.45642,-0.887408 2.63858,-1.109654 4.47486,-1.11123 q 5.90134,-0.0032 11.79795,0.01576 c 3.91059,0.01261 6.45932,3.2801 6.46405,6.998386 q 0.003,2.857673 0.002,5.710619 0,0.08512 -0.0741,0.129249 -0.18284,0.110335 -0.44765,0.110335 -9.17197,0 -18.34396,0.0095 -0.57059,0 -0.5895,0.548522 -0.0473,1.327171 0.0331,2.605481 0.005,0.05832 0.0615,0.05674 z m 0.23485,-8.171088 12.2787,-0.02207 a 0.34519062,0.34519062 0 0 0 0.34362,-0.34519 l -0.003,-2.38481 a 0.34361441,0.2206698 89.9 0 0 -0.22224,-0.343615 l -12.52774,0.02207 a 0.34361441,0.2206698 89.9 0 0 -0.2191,0.343615 l 0.003,2.38481 a 0.34519062,0.34519062 0 0 0 0.34676,0.34519 z"
     id="path50"
     style="fill:#ffffff;stroke-width:0.157621" />
  <path
     d="m 384.97841,77.292764 a 0.43030611,0.4287299 78 0 0 0.3846,0.250618 q 5.80835,0.04886 11.59935,-0.03783 0.80072,-0.01103 2.04435,0.200178 c 3.48186,0.592656 5.33863,3.844384 5.41902,7.174922 0.0725,2.945942 -0.14344,5.445815 -2.72685,7.346728 -1.10019,0.810173 -1.92456,1.267275 -3.3069,1.465878 -1.42174,0.203332 -3.00268,0.07251 -4.1549,0.06778 q -2.65118,-0.0095 -5.30079,-0.0063 c -3.12406,0.0047 -6.51291,0.472863 -8.66603,-2.216156 -0.90474,-1.131721 -1.65186,-2.375353 -1.76377,-3.771877 q -0.0158,-0.189146 -0.008,-1.593552 0.0394,-6.724124 0.0173,-13.445096 a 0.05359124,0.05359124 0 0 1 0.0536,-0.05359 h 6.26072 a 0.07565821,0.07723444 0 0 1 0.0757,0.07723 q 0,2.003368 -0.0173,4.02092 -0.002,0.316818 0.0898,0.52015 z m -0.008,9.797739 q -0.0709,0.09457 -0.0599,0.200179 0.008,0.08669 0.0946,0.08669 3.83651,0.0063 7.673,-0.03152 c 0.9473,-0.0095 2.60391,0.105606 3.85069,-0.04413 q 0.13083,-0.01576 0.11822,-0.230127 l 0.92839,0.01103 q 0.0961,0.0016 0.0961,-0.09457 v -2.901808 a 0.06462473,0.06304851 0 0 0 -0.0646,-0.06305 h -12.61916 q -0.0646,0 -0.0678,0.0662 -0.0694,1.503707 0.0504,3.001109 z"
     id="path52"
     style="fill:#ffffff;stroke-width:0.157621" />
  <rect
     x="304.67511"
     y="90.408432"
     width="6.3836622"
     height="3.3573334"
     rx="0.13870673"
     id="rect54"
     style="fill:#ffffff;stroke-width:0.157621" />
</svg>
