<?xml version="1.0" encoding="UTF-8" standalone="no"?>
<svg
   version="1.1"
   viewBox="0 0 379.99847 82.690999"
   id="svg5"
   width="379.99847"
   height="82.691002"
   xmlns="http://www.w3.org/2000/svg"
   xmlns:svg="http://www.w3.org/2000/svg">
  <defs
     id="defs5" />
  <rect
     x="83.04734"
     y="50.610374"
     class="st2"
     width="60.508747"
     height="11.887945"
     style="fill:#ffffff;stroke-width:0.0989837"
     id="rect1" />
  <rect
     x="368.11053"
     y="4.8205075"
     class="st2"
     width="11.887945"
     height="71.545433"
     style="fill:#ffffff;stroke-width:0.0989837"
     id="rect2" />
  <polygon
     class="st2"
     points="2732.6,771.4 2732.6,371.4 3038.3,725.7 3344.1,371.4 3344.1,771.4 3464.2,771.4 3464.2,48.7 3038.3,541.9 2612.5,48.7 2612.5,771.4 "
     style="fill:#ffffff"
     id="polygon2"
     transform="scale(0.09898372)" />
  <rect
     x="58.499378"
     y="4.8205075"
     class="st2"
     width="11.887945"
     height="59.429829"
     style="fill:#ffffff;stroke-width:0.0989837"
     id="rect3" />
  <rect
     y="16.243229"
     class="st2"
     width="11.887945"
     height="60.122711"
     style="fill:#ffffff;stroke-width:0.0989837"
     id="rect4"
     x="0" />
  <polygon
     class="st2"
     points="711,616.2 711,771.4 0,188.9 0,33.7 "
     style="fill:#ffffff"
     id="polygon4"
     transform="scale(0.09898372)" />
  <path
     class="st2"
     d="m 205.83664,0 c -22.82564,0 -41.34549,18.509956 -41.34549,41.3455 0,22.835544 18.50995,41.3455 41.34549,41.3455 22.82565,0 41.34551,-18.509956 41.34551,-41.3455 C 247.18215,18.509956 228.67219,0 205.83664,0 Z m 0,11.887945 c -16.27292,0 -29.45755,13.184632 -29.45755,29.457555 0,16.272923 13.18463,29.457555 29.45755,29.457555 16.27293,0 29.45757,-13.184632 29.45757,-29.457555 0,-16.272923 -13.18464,-29.457555 -29.45757,-29.457555 z m 0,56.777062 c -15.07522,0 -27.3195,-12.264083 -27.3195,-27.319507 0,-15.07522 12.26408,-27.319507 27.3195,-27.319507 15.07522,0 27.31952,12.264083 27.31952,27.319507 0.01,15.065322 -12.2542,27.319507 -27.31952,27.319507 z m 0,2.138048 c -16.27292,0 -29.45755,-13.184632 -29.45755,-29.457555 0,-16.272923 13.18463,-29.457555 29.45755,-29.457555 16.27293,0 29.45757,13.184632 29.45757,29.457555 0,16.263025 -13.18464,29.457555 -29.45757,29.457555 z"
     style="fill:#ffffff;stroke-width:0.0989837"
     id="path4" />
  <polygon
     class="st2"
     points="1242.7,32.5 838.3,771.4 975.2,771.4 1242.7,282.5 1510.3,771.4 1647.1,771.4 "
     style="fill:#ffffff"
     id="polygon5"
     transform="scale(0.09898372)" />
</svg>
