<?xml version="1.0" encoding="UTF-8" standalone="no"?>
<svg
   version="1.1"
   viewBox="27.95 78.93 380.05418 68.611998"
   id="svg6"
   width="380.05417"
   height="68.612"
   xmlns="http://www.w3.org/2000/svg"
   xmlns:svg="http://www.w3.org/2000/svg">
  <defs
     id="defs6" />
  <path
     fill="#ffffff"
     stroke="#ffffff"
     stroke-width="0.0937495"
     opacity="1"
     d="m 382.26989,79.306673 c 4.14378,-0.523001 8.52895,-0.563232 12.5118,0.92531 4.66677,1.569004 8.64964,5.310475 10.25887,9.977255 1.32762,3.339162 1.52877,7.000171 1.12646,10.500252 -0.40231,4.02309 -2.17247,7.72434 -4.10355,11.18419 -4.66678,7.5634 -11.14394,13.79918 -17.46019,19.95451 -1.68969,1.68969 -3.58055,3.2587 -5.10932,5.10932 1.52877,0.12069 3.01732,0.12069 4.54609,0.12069 7.92548,-0.0402 15.85096,0.0402 23.77644,-0.0402 0.20115,2.37362 0.16092,4.74724 0.0402,7.08063 -13.5578,0.0402 -27.1156,0.0402 -40.71364,0 0,-1.569 -0.16092,-3.17823 0.0402,-4.74725 0.0402,-0.72414 0.68393,-1.20692 1.12647,-1.68969 4.34494,-3.98286 8.56918,-8.04617 12.75318,-12.18995 4.90817,-5.06909 9.8968,-10.13818 13.55781,-16.21304 2.01154,-3.58055 3.37939,-7.68409 3.05754,-11.827876 -0.16093,-3.661009 -1.6897,-7.563404 -4.98862,-9.414023 -3.17825,-2.051774 -7.1611,-2.172467 -10.74165,-1.569004 -3.86216,0.643694 -7.28178,2.695468 -10.37956,5.028859 -0.84485,-2.011544 -2.09201,-3.862164 -2.61501,-5.954168 3.66101,-3.339163 8.44848,-5.350706 13.31642,-6.235785 z"
     id="path1" />
  <path
     fill="#ffffff"
     stroke="#ffffff"
     stroke-width="0.0937495"
     opacity="1"
     d="m 189.88588,79.708981 c 6.67833,-0.844848 13.59803,-0.04023 19.75336,2.695469 3.661,1.729927 7.12086,3.982856 9.89679,7.000171 2.61501,2.293159 4.46563,5.270243 6.19555,8.247328 1.89085,3.580551 2.89663,7.563401 3.45986,11.546261 0.32185,3.90239 0.36207,7.92548 -0.60346,11.74741 -0.56324,2.2127 -1.16669,4.46563 -2.05178,6.59786 -1.08624,2.61501 -2.85639,4.82771 -4.46563,7.12087 -1.60923,2.37362 -3.90239,4.14378 -6.11509,5.9944 -3.21846,2.53455 -7.00016,4.26447 -10.90257,5.55186 -3.94262,1.046 -8.12663,1.60923 -12.18995,1.08623 -3.98285,-0.32184 -7.92548,-1.20693 -11.54625,-2.81616 -3.58055,-1.72993 -6.83925,-4.06332 -9.69564,-6.79902 -2.61501,-2.41385 -4.54609,-5.47139 -6.27602,-8.56918 -1.40807,-2.89661 -2.89662,-5.8737 -3.17824,-9.1324 -0.28161,-2.65524 -0.84484,-5.31047 -0.64369,-8.00594 0.1207,-2.29316 0.20116,-4.62655 0.88508,-6.87948 1.20693,-3.86216 2.77593,-7.643866 5.02886,-11.023259 3.50008,-4.948397 8.24733,-9.051945 13.79918,-11.546259 2.77594,-1.287387 5.63232,-2.494313 8.64964,-2.816161 m 2.81616,10.057717 c -3.58055,0.523001 -7.12086,1.689697 -10.09795,3.821932 -6.95993,4.465627 -11.50602,12.87388 -10.7014,21.20166 0.44253,4.94841 2.01154,9.93704 5.27024,13.7992 2.57478,3.2587 6.11509,5.67255 9.93702,7.24155 3.94262,1.569 8.32779,1.72993 12.5118,1.20693 5.39093,-0.92531 10.46003,-3.82194 13.96011,-8.0864 5.06909,-5.75302 6.75879,-14.08081 5.06909,-21.48329 -1.28739,-4.62655 -3.98285,-8.850791 -7.5634,-12.02903 -2.7357,-2.172466 -5.75302,-4.063317 -9.17264,-4.948396 -2.97709,-0.92531 -6.15532,-0.965541 -9.21287,-0.724156 z"
     id="path2" />
  <path
     fill="#ffffff"
     stroke="#ffffff"
     stroke-width="0.0937495"
     opacity="1"
     d="m 329.00422,79.910136 c 3.45985,0.04023 6.87948,0.04023 10.2991,0 0.0805,1.40808 0.0805,2.856391 0.0805,4.304702 -0.0402,19.954512 0.0402,39.949252 -0.0402,59.903762 -3.45986,-0.0402 -6.87949,0 -10.33934,-0.0402 0,-21.40282 -0.0402,-42.76541 0,-64.168234 z"
     id="path3" />
  <path
     fill="#ffffff"
     stroke="#ffffff"
     stroke-width="0.0937495"
     opacity="1"
     d="m 75.549758,80.956138 c 3.459855,-0.160923 6.879478,-0.160923 10.299102,0 -0.04023,20.678672 0,41.357332 -0.04023,62.036002 -0.643694,-0.523 -1.327618,-1.00578 -2.011543,-1.52878 -13.43711,-10.98302 -26.87422,-21.92582 -40.35156,-32.86861 -2.051774,-1.60924 -3.982856,-3.45986 -6.195553,-4.86794 -0.160924,1.97131 -0.160924,3.9024 -0.120693,5.83348 0,11.38533 -0.04023,22.77067 0,34.156 -3.017315,0.16092 -6.074861,0.12069 -9.092176,0.0402 0,-1.32761 -0.04023,-2.69546 -0.04023,-4.02309 0.04023,-19.4315 -0.04023,-38.90324 0.04023,-58.334752 4.546088,3.620778 8.931253,7.442711 13.43711,11.063489 8.408251,7.040401 16.856733,14.000343 25.305215,20.960283 2.936853,2.33339 5.632322,4.9484 8.730099,7.12087 0.120692,-1.93108 0.120692,-3.82193 0.120692,-5.75303 -0.04023,-11.26463 0,-22.569509 -0.08046,-33.834152 z"
     id="path4" />
  <path
     fill="#ffffff"
     stroke="#ffffff"
     stroke-width="0.0937495"
     opacity="1"
     d="m 306.91748,83.530914 c 0.68392,-0.844848 1.48854,-1.609235 2.29316,-2.373621 0.24137,2.373621 0.16091,4.707011 0.16091,7.080633 0,16.494654 0,32.989314 0,49.483964 0,2.13224 0,4.26447 -0.0805,6.39671 -3.62079,0 -7.24156,0 -10.82211,-0.0402 0.0402,-8.16687 0,-16.2935 -0.0402,-24.46037 -0.0402,-3.09777 0.0402,-6.19555 -0.12069,-9.29332 -0.48277,0.48276 -0.92531,0.96553 -1.36785,1.44831 -6.55763,7.92547 -13.11526,15.85095 -19.6729,23.77643 -0.9253,1.20694 -1.93108,2.3334 -3.01731,3.41963 -6.43694,-7.56341 -12.71295,-15.20727 -19.14989,-22.8109 -1.569,-1.85062 -2.97709,-3.86216 -4.74725,-5.59209 -0.24138,2.05178 -0.16092,4.14378 -0.16092,6.23578 0,6.71856 0,13.39688 0,20.11544 0.0402,2.41384 0.0402,4.78747 -0.0805,7.20132 -3.37939,0 -6.71855,0 -10.05772,-0.0402 -0.12069,-2.25293 -0.12069,-4.50586 -0.0805,-6.75879 0,-16.37396 0,-32.70769 0,-49.081654 -0.0402,-2.172468 -0.0805,-4.344934 0.12069,-6.517401 1.60924,1.488542 2.81617,3.298931 4.3047,4.948396 8.8508,10.178409 17.5809,20.477509 26.39145,30.696149 1.20693,1.48854 2.45409,2.93686 3.82193,4.26448 8.24733,-9.73587 16.49466,-19.43151 24.70176,-29.167383 2.61501,-2.936854 5.06909,-5.954169 7.60364,-8.931253 z"
     id="path5" />
  <path
     fill="#ffffff"
     stroke="#ffffff"
     stroke-width="0.0937495"
     opacity="1"
     d="m 118.63702,96.445022 c 2.85639,-4.908166 5.39093,-10.017486 8.32779,-14.84519 1.48854,2.212698 2.73569,4.62655 4.02309,6.95994 9.41402,16.896968 18.7878,33.793928 28.1616,50.731128 0.92531,1.52877 1.85062,3.09777 2.53455,4.74724 -4.14378,0.0805 -8.28756,0.12069 -12.43134,0 -1.28739,-2.81616 -2.69547,-5.55186 -4.22424,-8.24733 -0.92532,-1.60923 -1.48854,-3.50008 -2.65524,-4.98862 -1.20692,-0.36208 -2.49432,-0.20116 -3.74147,-0.24139 -9.09218,0.0805 -18.14412,0 -27.2363,0.0805 -2.49432,4.46563 -4.78747,9.01171 -7.44271,13.39688 -3.7817,0.12069 -7.523172,0.0805 -11.304873,0 2.293159,-4.54609 5.149551,-8.81056 7.603633,-13.27618 -2.373621,-0.28162 -4.747242,-0.1207 -7.120863,-0.24139 -0.08046,-3.09778 -0.08046,-6.23578 0,-9.3738 4.023087,-0.16092 8.005943,-0.0402 11.988793,-0.0402 4.50586,-8.24733 9.05195,-16.45442 13.51758,-24.661518 m 5.9944,7.965718 c -1.77016,3.29893 -3.62078,6.59785 -5.39094,9.93702 -1.12646,2.13224 -2.49431,4.18401 -3.29893,6.47717 3.66101,0.20115 7.36224,0.0402 11.02326,0.0805 3.62078,-0.0402 7.24155,0.16092 10.86233,-0.0805 -3.45985,-6.79902 -7.36225,-13.35665 -10.74164,-20.1959 -1.28739,0.92531 -1.72993,2.49432 -2.45408,3.78171 z"
     id="path6" />
</svg>
