<?xml version="1.0" encoding="UTF-8" standalone="no"?>
<svg
   version="1.1"
   viewBox="0 0 379.99759 66.507001"
   id="svg6"
   width="379.99759"
   height="66.507004"
   xmlns="http://www.w3.org/2000/svg"
   xmlns:svg="http://www.w3.org/2000/svg">
  <defs
     id="defs6" />
  <path
     class="st3"
     d="M 63.676072,1.5837357 H 44.374294 v 2.533977 h 2.51418 c 3.375337,0 6.107281,3.1476747 6.107281,6.5032143 V 41.939301 L 20.083748,1.5837357 H 0 v 2.533977 c 4.4839516,0 8.0275602,4.0484243 8.0275602,8.5422743 v 43.889274 c 0,4.483953 -4.7314103,5.978603 -8.0275602,5.978603 v 2.533977 H 21.815959 V 62.527864 C 17.727941,62.508064 15.570102,61.943861 14.174435,60.627381 12.778768,59.301003 12.40263,57.548995 12.40263,55.143696 V 14.006163 L 55.015018,65.96259 h 2.326111 V 10.690216 c 0,-3.2763534 2.563673,-6.0577891 6.334943,-6.196366 z"
     style="fill:#ffffff;stroke-width:0.0989835"
     id="path1" />
  <path
     id="circle1"
     style="fill:#ffffff;stroke-width:0.0989835"
     class="st3"
     d="m 199.75856,33.119873 a 7.3643711,7.3643711 0 0 1 -7.36437,7.364371 7.3643711,7.3643711 0 0 1 -7.36438,-7.364371 7.3643711,7.3643711 0 0 1 7.36438,-7.364371 7.3643711,7.3643711 0 0 1 7.36437,7.364371 z" />
  <path
     class="st3"
     d="m 233.85837,35.366798 v 3.068487 h 2.39539 c 3.89006,0 4.99867,1.880686 4.99867,5.236227 v 15.005895 c -0.89084,1.088818 -3.92964,2.45479 -8.21563,2.45479 -0.87105,0 -5.84002,-0.09898 -9.5519,-3.147675 -3.88015,-3.187267 -6.49331,-9.64099 -6.49331,-24.98343 0,-19.974866 7.02782,-28.4379536 17.21322,-28.4379536 3.31595,0 14.55057,2.2370266 19.33147,16.6886156 h 2.9992 V 0.40583226 h -2.83093 C 253.34821,3.2070648 251.13099,4.7611053 246.94399,3.0189962 240.61894,0.39593392 234.96698,0 230.82948,0 c -16.29269,0 -30.18007,15.094981 -30.18007,33.119872 0,20.766734 15.67898,32.931804 32.51607,32.931804 7.97807,0 16.44116,-1.841093 23.14235,-5.236227 V 43.671512 c 0,-4.01873 2.80123,-5.236227 6.58239,-5.236227 v -3.068487 z"
     style="fill:#ffffff;stroke-width:0.0989835"
     id="path2" />
  <path
     class="st3"
     d="m 117.31522,45.47301 c -1.57384,8.700649 -9.07679,15.490915 -17.490381,15.273152 h -7.265387 c -2.276621,0 -4.127612,-1.850991 -4.127612,-4.127612 V 34.367064 h 1.989569 c 5.939009,0 9.730071,4.96897 9.730071,13.521144 h 2.60327 V 32.733836 31.961765 17.094447 h -2.60327 c 0,7.522744 -3.177365,12.956937 -9.73997,12.956937 H 88.421942 V 5.3945996 H 98.8647 c 14.05565,0 14.53078,12.5214104 14.53078,14.1348404 h 2.80123 V 5.9291104 1.5837357 H 65.54686 v 2.5240787 h 3.573303 c 2.731945,0 4.949175,2.5834688 4.949175,5.3055145 V 56.143429 c 0,4.91948 -3.226862,6.037993 -5.958806,6.037993 H 65.54686 v 2.890317 h 8.522478 42.859842 l 2.89033,-19.598729 z"
     style="fill:#ffffff;stroke-width:0.0989835"
     id="path3" />
  <path
     class="st3"
     d="m 151.79116,0.92054636 c -18.27234,0 -32.3379,13.45185464 -32.3379,32.79322664 0,19.341372 14.07545,32.793227 32.3379,32.793227 18.27236,0 32.34781,-13.451855 32.34781,-32.793227 0,-19.341372 -14.07545,-32.79322664 -32.34781,-32.79322664 z m 0,61.34006164 c -8.77983,0 -15.87695,-8.037458 -15.87695,-28.556733 0,-20.519275 7.11692,-28.5468357 15.87695,-28.5468357 8.77984,0 15.87695,8.0374587 15.87695,28.5567337 0.0198,20.509377 -7.09711,28.546835 -15.87695,28.546835 z"
     style="fill:#ffffff;stroke-width:0.0989835"
     id="path4" />
  <path
     class="st3"
     d="m 313.17383,45.47301 c -1.57384,8.700649 -9.07679,15.490915 -17.49039,15.273152 h -7.26538 c -2.27661,0 -4.12761,-1.850991 -4.12761,-4.127612 V 34.367064 h 1.98956 c 5.93902,0 9.73008,4.96897 9.73008,13.521144 h 2.60327 V 32.733836 31.961765 17.094447 h -2.60327 c 0,7.522744 -3.17737,12.956937 -9.73997,12.956937 h -1.98956 V 5.3945996 h 10.44275 c 14.05565,0 14.53078,12.5214104 14.53078,14.1348404 h 2.80123 V 5.9291104 1.5837357 h -50.64985 v 2.5240787 h 3.5733 c 2.73195,0 4.94918,2.5834688 4.94918,5.3055145 V 56.143429 c 0,4.91948 -3.22686,6.037993 -5.9588,6.037993 h -2.56368 v 2.890317 h 8.52248 42.85985 l 2.89032,-19.598729 z"
     style="fill:#ffffff;stroke-width:0.0989835"
     id="path5" />
  <path
     class="st3"
     d="m 347.64977,0.92054636 c -18.27234,0 -32.3379,13.45185464 -32.3379,32.79322664 0,19.341372 14.07545,32.793227 32.3379,32.793227 18.27236,0 32.34781,-13.451855 32.34781,-32.793227 0,-19.341372 -14.07545,-32.79322664 -32.34781,-32.79322664 z m 0,61.34006164 c -8.77983,0 -15.87695,-8.037458 -15.87695,-28.556733 0,-20.519275 7.11692,-28.5567341 15.87695,-28.5567341 8.77984,0 15.87695,8.0374591 15.87695,28.5567341 0.0198,20.519275 -7.09711,28.556733 -15.87695,28.556733 z"
     style="fill:#ffffff;stroke-width:0.0989835"
     id="path6" />
</svg>
