<?xml version="1.0" encoding="UTF-8" standalone="no"?>
<svg
   id="Warstwa_1"
   data-name="Warstwa 1"
   viewBox="0 0 379.99928 104.906"
   version="1.1"
   width="379.99927"
   height="104.906"
   xmlns="http://www.w3.org/2000/svg"
   xmlns:svg="http://www.w3.org/2000/svg"
   xmlns:rdf="http://www.w3.org/1999/02/22-rdf-syntax-ns#"
   xmlns:cc="http://creativecommons.org/ns#"
   xmlns:dc="http://purl.org/dc/elements/1.1/">
  <defs
     id="defs13" />
  <title
     id="title1">neogeocd</title>
  <path
     d="m 167.89609,0 c 0.15562,0.19019745 0.29048,0.39422744 0.46339,0.56713421 q 7.17909,7.07534509 14.36509,14.15068979 c 0.66742,0.653588 1.36251,1.279511 2.09564,1.960763 0.29394,-0.25936 0.54984,-0.459932 0.78154,-0.691626 3.68291,-3.631044 7.37274,-7.2620852 11.02799,-10.9173345 a 2.4933156,2.4933156 0 0 1 1.94001,-0.819578 q 10.37441,0.048414 20.74881,0 a 1.9054327,1.9054327 0 0 1 1.46625,0.5740504 q 6.82983,6.6050381 13.70805,13.1582061 a 1.7290677,1.7290677 0 0 1 0.58788,1.383253 q -0.0242,10.4989 0,20.994341 a 1.5181215,1.5181215 0 0 1 -0.46339,1.248387 q -7.03038,6.570457 -14.02619,13.185871 c -0.11758,0.114117 -0.24899,0.210945 -0.44264,0.373478 L 208.53264,43.5483 c -0.24207,0.231695 -0.45994,0.428808 -0.66397,0.636297 q -5.99639,6.13819 -11.97897,12.31442 a 1.6391562,1.6391562 0 0 1 -1.29334,0.563676 q -12.03432,-0.02766 -24.06518,0 a 1.7290677,1.7290677 0 0 1 -1.31408,-0.529095 q -8.06438,-7.888007 -16.16678,-15.748349 a 1.5596191,1.5596191 0 0 1 -0.49798,-1.238012 c 0,-3.292145 -0.0346,-6.570458 -0.045,-9.872977 0,-4.73073 0,-9.461459 -0.0277,-14.178356 a 1.4489587,1.4489587 0 0 1 0.49452,-1.151558 Q 160.12903,7.4280749 167.2528,0.46339015 a 2.8010897,2.8010897 0 0 0 0.31123,-0.44955761 z m 38.67579,42.040553 c -0.26973,-0.304317 -0.5118,-0.601716 -0.78154,-0.874908 q -4.66848,-4.716897 -9.33696,-9.433794 a 1.3417565,1.3417565 0 0 0 -1.03745,-0.40806 c -3.89732,-0.05879 -7.7981,-0.138325 -11.69541,-0.214404 -0.37694,0 -0.75388,-0.0415 -1.19652,-0.0657 0,-0.383853 0,-0.691627 0,-0.98211 0,-3.679456 0.0277,-7.358913 0.0657,-11.034911 a 1.8777675,1.8777675 0 0 0 -0.54293,-1.383254 C 177.5512,12.746688 172.79627,8.1231601 168.09666,3.4339285 a 2.4656506,2.4656506 0 0 0 -0.31469,-0.2316951 c -0.15907,0.1452417 -0.28702,0.2489857 -0.4046,0.3458135 q -6.09324,5.9272442 -12.20376,11.8475721 a 1.7290677,1.7290677 0 0 0 -0.5775,1.383254 q 0.0277,10.66489 0,21.326321 a 1.9227233,1.9227233 0 0 0 0.65012,1.504289 q 7.65631,7.459198 15.26421,14.980643 a 1.7843979,1.7843979 0 0 0 1.38325,0.567134 c 5.33936,-0.01729 10.67527,0 16.01463,0 q 2.65585,0 5.31169,0.02075 a 1.1895986,1.1895986 0 0 0 0.96828,-0.345814 q 5.92379,-6.10015 11.86833,-12.18301 c 0.16945,-0.179824 0.31815,-0.376938 0.51526,-0.608632 z m 7.85688,-6.241935 c 0.20403,0.902573 0.36656,1.729067 0.58097,2.562479 a 6.0482789,6.0482789 0 0 0 2.00572,3.07774 c 0.61555,0.532553 1.22417,0.826494 2.10254,0.598258 a 32.16066,32.16066 0 0 1 3.26449,-0.549844 1.1100615,1.1100615 0 0 0 1.06509,-1.037441 c 0.10029,-0.791913 0.26628,-1.576909 0.41152,-2.365365 0.26974,-1.431668 0.3804,-1.531954 1.85703,-1.729067 0.34581,-0.04496 0.71237,-0.08991 1.0651,-0.152158 0.29395,-0.05533 0.57751,-0.138326 0.83342,-0.20403 0.50488,-2.527897 0.5533,-3.112322 0.0795,-5.152622 -0.13486,-0.591341 -0.24898,-1.189599 -0.4046,-1.777481 -0.25936,-0.989028 -0.51526,-1.978054 -0.82995,-2.94979 -0.22478,-0.691627 -0.40115,-0.774622 -1.11698,-0.632839 -1.4628,0.287026 -2.92558,0.580967 -4.37454,0.923323 -1.2069,0.280108 -1.26223,0.411518 -1.02016,1.587284 0.0519,0.245527 0.11758,0.487597 0.14525,0.733124 0.0761,0.657046 0.1729,1.31755 0.18674,1.978053 0.038,1.694487 -0.50143,3.032786 -2.3135,3.537674 a 6.611955,6.611955 0 0 0 -0.90948,0.401143 z M 200.64464,18.888336 c -0.22478,1.452416 -0.43919,2.787257 -0.61901,4.125555 a 0.73658285,0.73658285 0 0 0 0.17636,0.577509 c 0.75734,0.691627 1.5285,1.355589 2.3377,1.981511 a 1.2933426,1.2933426 0 0 0 0.90603,0.266277 21.343612,21.343612 0 0 0 2.23396,-0.605174 0.93023844,0.93023844 0 0 0 0.69163,-0.757332 c 0.18674,-1.03744 0.36656,-2.074881 0.52564,-3.112322 a 1.4385844,1.4385844 0 0 0 -0.72276,-1.552702 21.58914,21.58914 0 0 0 -1.96076,-1.07548 2.1889997,2.1889997 0 0 0 -1.03744,-0.179823 c -0.82996,0.07262 -1.64953,0.214404 -2.53135,0.331981 z m 9.49258,-4.205093 c 0,1.469707 0.75733,2.3377 1.85702,2.420694 a 0.89219894,0.89219894 0 0 0 0.60862,-0.169447 19.472761,19.472761 0 0 0 1.44896,-1.573452 0.70891777,0.70891777 0 0 0 0.10375,-0.61209 c -0.40806,-0.96482 -0.99595,-1.791315 -2.02301,-2.178626 -0.59826,-0.224779 -1.05473,-0.100286 -1.34521,0.459932 a 13.884414,13.884414 0 0 0 -0.65013,1.652989 z"
     fill="#ffffff"
     id="path1"
     style="stroke-width:0.345813" />
  <path
     d="m 216.19933,104.906 c -0.26974,-0.0311 -0.54293,-0.0865 -0.81612,-0.0934 -5.53302,-0.0934 -11.06604,-0.16254 -16.59905,-0.28357 -1.79824,-0.038 -3.58955,-0.20057 -5.38432,-0.31123 a 1.967679,1.967679 0 0 1 -0.30432,-0.0657 c -0.18328,-0.71583 -0.0588,-0.97174 0.61209,-1.16885 0.50489,-0.1487 1.03745,-0.23861 1.53196,-0.36656 0.37348,-0.0968 0.74004,-0.22478 1.11352,-0.34581 1.16193,-0.32506 1.72906,-1.06511 1.74635,-2.292747 0.0173,-1.383253 0.1487,-2.766507 0.1487,-4.149762 q 0,-12.103474 -0.0311,-24.231154 c 0,-1.037442 -0.10374,-2.102547 -0.10374,-3.150362 a 2.0506743,2.0506743 0 0 0 -1.27952,-2.047217 25.064565,25.064565 0 0 0 -2.67659,-0.843784 c -0.31123,-0.09337 -0.63976,-0.141784 -0.96828,-0.214405 0.045,-0.366562 0.28703,-0.428809 0.53256,-0.459932 0.46339,-0.05879 0.93369,-0.131409 1.40054,-0.145241 3.15036,-0.08991 6.30419,-0.197114 9.45454,-0.235154 6.08632,-0.07954 12.17264,-0.117577 18.2555,-0.176365 1.07894,0 2.15788,-0.0415 3.23682,-0.06225 h 1.03744 a 5.4880609,5.4880609 0 0 1 0.0692,0.622465 c 0,2.545188 0,5.090376 -0.0415,7.632105 a 22.076737,22.076737 0 0 1 -0.17636,2.482941 8.8632011,8.8632011 0 0 1 -0.3804,1.352131 1.3382984,1.3382984 0 0 1 -0.94407,-0.750415 8.0851207,8.0851207 0 0 1 -0.75388,-1.652989 c -1.03744,-3.544588 -3.45813,-5.598721 -6.95431,-6.38026 a 43.807659,43.807659 0 0 0 -5.1872,-0.66742 c -1.23801,-0.121034 -2.48294,-0.148699 -3.71404,-0.217862 -0.19711,0.605174 -0.27319,13.611221 -0.0968,15.215796 a 5.6021794,5.6021794 0 0 0 4.08751,-0.829953 6.5324178,6.5324178 0 0 0 2.32041,-2.766508 c 0.41152,-0.902574 0.69163,-1.863935 1.03745,-2.797632 0.21786,-0.594799 0.42535,-1.193057 0.69162,-1.770566 0.0761,-0.162531 0.32853,-0.248985 0.49798,-0.37002 0.11066,0.172907 0.29393,0.345813 0.31814,0.518721 0.11757,0.906031 0.23861,1.812063 0.27319,2.721552 0.19711,4.865597 0.21095,9.734651 0,14.600248 -0.0346,0.854159 -0.1487,1.708319 -0.26282,2.555562 -0.0277,0.190198 -0.20749,0.345814 -0.31814,0.532553 -0.1902,-0.127951 -0.48414,-0.217862 -0.55676,-0.394227 a 19.49351,19.49351 0 0 1 -0.81612,-2.3377 10.066632,10.066632 0 0 0 -3.55497,-5.460396 5.6263864,5.6263864 0 0 0 -1.50428,-0.850702 c -1.11007,-0.421892 -1.86394,0.02421 -2.01956,1.20689 a 21.997199,21.997199 0 0 0 -0.1902,2.977454 c 0.0173,2.711179 0.0484,5.422357 0.15562,8.130077 a 14.648662,14.648662 0 0 0 0.49106,2.593608 0.96136166,0.96136166 0 0 0 0.94407,0.79191 c 0.96482,0.0657 1.92963,0.18674 2.89445,0.19366 1.60112,0 3.2057,-0.0415 4.81027,-0.0692 a 6.356053,6.356053 0 0 0 3.70713,-1.265688 c 2.34807,-1.729068 4.35379,-3.752077 5.66442,-6.39755 a 11.200901,11.200901 0 0 1 0.86799,-1.410919 1.7290677,1.7290677 0 0 1 0.53947,-0.50143 0.44264134,0.44264134 0 0 1 0.72967,0.345813 5.3774006,5.3774006 0 0 1 0,1.155018 c -0.34582,3.779741 -1.10661,7.490326 -1.81552,11.211276 -0.0415,0.2144 -0.0588,0.43573 -0.0864,0.65359 z"
     fill="#ffffff"
     id="path2"
     style="stroke-width:0.345813" />
  <path
     d="m 66.475892,104.906 c -0.269734,-0.0311 -0.542927,-0.0865 -0.812661,-0.0934 -5.533018,-0.0934 -11.066034,-0.16254 -16.599051,-0.28011 -1.79823,-0.0415 -3.589545,-0.20403 -5.384316,-0.31124 a 2.5002319,2.5002319 0 0 1 -0.304317,-0.0588 c -0.200571,-0.71584 -0.145241,-0.8922 0.432267,-1.11007 0.345814,-0.13486 0.750416,-0.18328 1.120436,-0.28702 0.61209,-0.16945 1.238013,-0.31124 1.829354,-0.53601 a 2.3515321,2.3515321 0 0 0 1.642615,-2.265079 c 0.09683,-2.680054 0.266275,-5.360109 0.280108,-8.040164 0.03458,-6.224644 0,-12.449289 -0.02421,-18.673932 0,-1.573452 -0.131409,-3.150362 -0.231694,-4.720355 a 2.6281829,2.6281829 0 0 0 -1.933096,-2.444852 c -0.674336,-0.231695 -1.383254,-0.345813 -2.074881,-0.515262 -0.318148,-0.07608 -0.636296,-0.145242 -1.165391,-0.262819 a 3.0362429,3.0362429 0 0 1 0.691626,-0.394227 9.4856655,9.4856655 0 0 1 1.400546,-0.155615 c 3.178026,-0.08991 6.356052,-0.197114 9.537537,-0.238612 6.082861,-0.07954 12.169179,-0.117577 18.255498,-0.176365 1.078938,0 2.154417,-0.0415 3.233355,-0.06225 h 1.037441 c 0.02766,0.259361 0.0657,0.4461 0.0657,0.629381 0,2.572853 0,5.145705 -0.05187,7.718559 a 23.204089,23.204089 0 0 1 -0.300857,2.797631 5.8546233,5.8546233 0 0 1 -0.404601,1.065106 4.8690547,4.8690547 0 0 1 -0.729667,-0.805745 11.453344,11.453344 0 0 1 -0.781539,-1.729068 c -1.231096,-3.689831 -3.828156,-5.792377 -7.583691,-6.51167 a 41.189851,41.189851 0 0 0 -8.092036,-0.657045 0.99594301,0.99594301 0 0 0 -0.228238,0.05187 c -0.169449,0.598257 -0.221321,13.970867 -0.05533,15.101677 2.029925,0.25936 3.803949,-0.193655 5.225243,-1.78094 a 9.4580005,9.4580005 0 0 0 1.850103,-3.554963 c 0.245527,-0.791913 0.484138,-1.583826 0.764247,-2.361907 a 6.2765158,6.2765158 0 0 1 0.508346,-0.912947 0.82995251,0.82995251 0 0 1 0.560218,0.829953 c 0.162533,1.317549 0.37002,2.631641 0.442641,3.952648 A 116.7674,116.7674 0 0 1 68.440112,92.5397 c -0.04496,0.670877 0,1.383254 -0.525637,1.933097 -0.511805,0 -0.622465,-0.394227 -0.740041,-0.691627 -0.345814,-0.930238 -0.657046,-1.877767 -0.947529,-2.825296 a 9.2712611,9.2712611 0 0 0 -3.499634,-4.910553 5.6090957,5.6090957 0 0 0 -1.784397,-0.829952 c -0.778081,-0.214405 -1.137727,0.02421 -1.383255,0.795371 a 6.3975506,6.3975506 0 0 0 -0.345813,1.697944 81.14169,81.14169 0 0 0 0.411518,11.844114 c 0.103744,0.919862 0.598257,1.452412 1.438585,1.566532 a 25.016151,25.016151 0 0 0 3.627584,0.25245 43.818034,43.818034 0 0 0 4.464452,-0.32161 7.5629422,7.5629422 0 0 0 3.762452,-1.628782 16.443434,16.443434 0 0 0 4.882887,-5.80275 14.178355,14.178355 0 0 1 0.885282,-1.497373 2.0748812,2.0748812 0 0 1 0.584425,-0.577509 0.4495576,0.4495576 0 0 1 0.736583,0.345814 5.8788303,5.8788303 0 0 1 -0.01729,1.155018 90.367996,90.367996 0 0 1 -1.812063,11.373802 c -0.03458,0.15907 -0.05533,0.32506 -0.083,0.4876 z"
     fill="#ffffff"
     id="path3"
     style="stroke-width:0.345813" />
  <path
     d="m 340.16656,65.06136 a 4.3987483,4.3987483 0 0 1 1.75328,-0.311232 c 5.66443,-0.321607 11.33231,-0.421893 17.0002,-0.190197 2.4034,0.09683 4.80335,0.293941 7.19637,0.508346 a 6.6188713,6.6188713 0 0 1 1.99189,0.532552 20.323462,20.323462 0 0 1 10.6891,10.170377 10.512732,10.512732 0 0 1 1.03744,3.98723 65.068277,65.068277 0 0 1 0.083,7.877632 c -0.34582,5.467313 -2.85297,9.682779 -7.32434,12.746692 -3.16419,2.15787 -6.69841,3.23335 -10.50236,3.54112 -6.01369,0.47723 -12.04123,0.64322 -18.0653,0.87146 a 29.926704,29.926704 0 0 1 -3.13998,-0.18329 1.5250377,1.5250377 0 0 1 -0.48068,-0.11411 0.69162709,0.69162709 0 0 1 -0.17983,-1.24839 2.3169508,2.3169508 0 0 1 0.74696,-0.34582 c 0.57751,-0.17636 1.1896,-0.27319 1.72907,-0.50143 1.12735,-0.45992 1.86393,-1.27258 1.98497,-2.534806 0.0657,-0.691628 0.13832,-1.383255 0.14178,-2.074881 q 0.0484,-10.872379 0.0726,-21.741298 c 0,-2.074882 -0.0519,-4.149763 -0.0968,-6.224644 0,-0.466848 -0.0934,-0.933696 -0.1072,-1.404003 a 2.0264673,2.0264673 0 0 0 -1.25875,-1.895059 c -0.82304,-0.380394 -1.69795,-0.643213 -2.55211,-0.957903 -0.26628,-0.09683 -0.53256,-0.200572 -0.79883,-0.300857 z m 14.97373,1.673738 c 0,0.432267 0,0.760789 0,1.089313 0,5.418897 0,10.837796 0.038,16.253236 0.0207,3.371682 0.0519,6.746822 0.15907,10.115046 0.0588,1.791314 0.23861,3.586087 0.46339,5.363568 0.16254,1.269139 0.57406,1.569999 1.84319,1.729069 a 8.8389941,8.8389941 0 0 0 9.23322,-5.069627 16.796164,16.796164 0 0 0 1.38326,-4.41604 45.04913,45.04913 0 0 0 0.45993,-12.082725 19.168444,19.168444 0 0 0 -1.31755,-5.629844 c -0.69163,-1.649531 -1.56308,-3.191859 -2.96708,-4.336502 -2.66968,-2.164793 -5.8235,-2.904833 -9.29547,-3.015494 z"
     fill="#ffffff"
     id="path4"
     style="stroke-width:0.345813" />
  <path
     d="m 106.64214,104.44261 c -1.97114,-0.0588 -3.62759,-0.0934 -5.2944,-0.17291 a 10.931166,10.931166 0 0 1 -5.11805,-1.5285 C 91.066693,99.718794 87.311159,95.530992 85.817243,89.600289 a 22.339555,22.339555 0 0 1 0.13141,-11.411847 16.851494,16.851494 0 0 1 1.535412,-3.655249 22.042155,22.042155 0 0 1 7.777346,-8.112786 14.939146,14.939146 0 0 1 7.763509,-2.330783 c 2.98784,-0.05879 5.97566,-0.155616 8.94967,0.169448 a 11.131738,11.131738 0 0 1 2.89445,0.653588 21.094626,21.094626 0 0 1 11.44989,10.51619 16.080329,16.080329 0 0 1 1.49737,6.017156 c 0.22133,2.987829 0.13833,5.968741 -0.62592,8.890866 -0.88528,3.385514 -2.76651,6.183146 -5.1872,8.645338 -0.69163,0.691628 -1.38326,1.35905 -2.09909,2.00226 a 11.539798,11.539798 0 0 1 -6.57046,2.91867 c -2.30312,0.24898 -4.65465,0.36656 -6.69149,0.53947 z M 96.997396,84.243637 c 0,2.043758 0.100286,4.097891 -0.03112,6.134733 a 9.6827792,9.6827792 0 0 0 1.331383,5.609095 19.614545,19.614545 0 0 0 2.157871,3.229899 c 2.73884,3.112316 8.94966,4.495576 12.66715,-0.228237 2.01264,-2.545188 3.25757,-5.332445 3.34056,-8.645338 0.11758,-4.450621 0.12104,-8.897783 -0.17636,-13.344945 -0.24207,-3.586087 -1.83627,-6.49092 -4.49558,-8.845911 a 5.8304164,5.8304164 0 0 0 -3.24719,-1.545786 25.088772,25.088772 0 0 0 -2.97399,-0.09337 c -1.56654,0.02421 -2.87372,0.691627 -4.03219,1.729068 a 13.514393,13.514393 0 0 0 -3.164193,4.108265 c -0.387311,0.764248 -0.760789,1.535412 -1.085854,2.327325 a 3.5203819,3.5203819 0 0 0 -0.280109,1.269135 c -0.02421,2.763051 -0.01037,5.529559 -0.01037,8.296067 z"
     fill="#ffffff"
     id="path5"
     style="stroke-width:0.345813" />
  <path
     d="m 256.42436,63.98588 c 1.79477,0.08645 3.58954,0.155616 5.38431,0.262819 a 10.485067,10.485067 0 0 1 3.80395,1.068563 22.024865,22.024865 0 0 1 9.46147,8.316816 16.484932,16.484932 0 0 1 2.29273,6.611955 24.812122,24.812122 0 0 1 -0.75387,10.996871 14.295932,14.295932 0 0 1 -2.19937,4.343418 41.701655,41.701655 0 0 1 -4.79989,5.266738 c -1.77403,1.68065 -3.91807,2.57285 -6.25231,3.02933 a 23.224838,23.224838 0 0 1 -4.11172,0.4703 c -2.68006,0.0415 -5.36357,-0.0277 -8.04363,-0.10374 a 11.757661,11.757661 0 0 1 -5.73013,-1.75674 c -5.1872,-3.112313 -8.75945,-7.473022 -10.0943,-13.46943 a 21.889997,21.889997 0 0 1 0.80229,-12.33171 16.536803,16.536803 0 0 1 1.72907,-3.385515 22.751073,22.751073 0 0 1 5.63331,-5.916869 c 2.81491,-2.074882 5.92723,-3.299062 9.46491,-3.292145 h 3.4028 z m 9.68277,20.309629 q 0,-4.149762 0,-8.299525 a 2.3169508,2.3169508 0 0 0 -0.0934,-0.895656 c -0.88874,-2.026468 -1.81897,-4.025271 -3.28868,-5.726673 -1.96422,-2.271995 -4.42295,-3.195317 -7.3935,-2.873711 a 6.6811177,6.6811177 0 0 0 -3.55496,1.314092 14.372011,14.372011 0 0 0 -4.212,5.356652 c -0.71584,1.552703 -0.79883,3.209149 -0.80921,4.865596 -0.0311,4.395291 0,8.79058 -0.0588,13.185871 a 7.403868,7.403868 0 0 0 0.89912,3.869654 c 0.72621,1.307174 1.36251,2.655848 2.31349,3.821239 a 7.9122139,7.9122139 0 0 0 5.73704,3.084662 c 2.73194,0.20749 5.07309,-0.52564 6.88861,-2.68006 a 18.00997,18.00997 0 0 0 2.4449,-3.734786 c 0.26628,-0.542927 0.50489,-1.106604 0.78154,-1.646073 a 2.9290407,2.9290407 0 0 0 0.32161,-1.431668 c 0.003,-2.735385 0.0104,-5.474228 0.0104,-8.209614 z"
     fill="#ffffff"
     id="path6"
     style="stroke-width:0.345813" />
  <path
     d="m 186.28645,77.687013 a 1.4143774,1.4143774 0 0 1 -0.92677,-0.795372 c -0.53256,-0.87145 -1.06165,-1.749816 -1.53196,-2.655848 a 13.704591,13.704591 0 0 0 -5.36357,-5.726672 c -2.95324,-1.711776 -6.10361,-2.396488 -9.48912,-1.801688 a 10.229164,10.229164 0 0 0 -6.50821,3.942274 15.347205,15.347205 0 0 0 -3.00512,7.365828 42.047469,42.047469 0 0 0 0.13833,13.459064 16.536803,16.536803 0 0 0 1.65644,4.931301 10.637225,10.637225 0 0 0 5.31169,4.91401 5.3670262,5.3670262 0 0 0 1.50775,0.42881 35.511593,35.511593 0 0 0 8.10587,-0.15561 c 0.40806,-0.0484 0.8092,-0.16254 1.26568,-0.25591 a 5.411982,5.411982 0 0 0 0.038,-0.65358 c -0.1487,-2.621273 -0.2974,-5.245998 -0.47031,-7.867265 a 8.7214176,8.7214176 0 0 0 -0.26628,-1.729068 c -0.42881,-1.583826 -1.45241,-2.393029 -3.08465,-2.517522 a 4.9831732,4.9831732 0 0 1 -0.90257,-0.13141 5.6333027,5.6333027 0 0 1 -0.76425,-0.345813 1.7671072,1.7671072 0 0 1 1.24839,-0.456474 c 2.37574,-0.114118 4.74802,-0.290484 7.12376,-0.307773 2.81837,-0.01729 5.64022,0.07954 8.45859,0.169448 a 8.9669452,8.9669452 0 0 1 2.81838,0.397685 c -1.29334,1.120436 -2.81146,1.611491 -4.16705,2.420695 -0.17291,3.824699 0.083,7.677061 -0.56714,11.501767 -2.88408,1.06164 -5.76471,2.01262 -8.83207,2.19591 -4.11518,0.24898 -8.23382,0.3216 -12.35592,0.31815 a 14.869983,14.869983 0 0 1 -8.054,-2.43798 c -3.96302,-2.489867 -7.10993,-5.726681 -8.83207,-10.146179 -2.10255,-5.401608 -1.66337,-10.720219 0.72966,-15.938546 a 14.524169,14.524169 0 0 1 2.6766,-3.969939 47.85022,47.85022 0 0 1 5.0143,-4.713439 13.583556,13.583556 0 0 1 7.6079,-2.922124 61.855669,61.855669 0 0 1 11.59512,0.193655 23.083054,23.083054 0 0 1 3.68984,0.909489 c 1.00976,0.287026 1.99879,0.643214 2.98436,0.999402 a 0.69162709,0.69162709 0 0 0 0.92333,-0.266277 16.19099,16.19099 0 0 1 1.07548,-1.262218 3.2195241,3.2195241 0 0 1 0.69163,-0.580967 c 0.48758,-0.293942 0.83686,-0.155617 1.03743,0.383852 a 1.9780534,1.9780534 0 0 1 0.10374,0.567135 84.506456,84.506456 0 0 1 -0.13141,11.190525 1.7290677,1.7290677 0 0 1 -0.54984,1.348674 z"
     fill="#ffffff"
     id="path7"
     style="stroke-width:0.345813" />
  <path
     d="m 35.401088,104.6328 c -0.456475,-0.40114 -0.788456,-0.63975 -1.05819,-0.93369 -1.639156,-1.79823 -3.31981,-3.56534 -4.886346,-5.425817 Q 20.4654,87.57728 11.501913,76.832854 C 10.96936,76.196557 10.4126,75.581008 9.8489248,74.972376 A 7.1445078,7.1445078 0 0 0 9.1572976,74.387951 2.451818,2.451818 0 0 0 8.7181145,75.861117 c -0.127951,2.123295 -0.3458136,4.250048 -0.3458136,6.376802 0,4.422955 0.076079,8.849368 0.1936557,13.272324 a 35.729455,35.729455 0 0 0 0.4772227,4.277714 2.7008038,2.7008038 0 0 0 2.1094627,2.389573 21.68251,21.68251 0 0 1 2.482941,0.92677 c 0.345813,0.14179 0.812661,0.30432 0.740041,0.77117 -0.07262,0.46685 -0.574051,0.47377 -0.944072,0.50143 a 82.79122,82.79122 0 0 1 -11.1905252,0.16599 6.0171556,6.0171556 0 0 1 -1.76019089,-0.42881 c -0.61900625,-0.24207 -0.63975506,-0.69163 -0.0657046,-1.00632 A 6.075944,6.075944 0 0 1 1.8675481,102.51642 C 3.804104,102.03575 4.6340566,100.70091 4.7308843,98.830053 4.8553772,96.755172 5.0144514,94.68029 5.0386584,92.605409 5.1251122,84.834978 5.1596932,77.06109 5.2150233,69.29066 c 0,-0.345813 0,-0.660504 0,-1.009776 C 4.3677801,67.696459 3.5758671,67.087827 2.7217076,66.58294 1.8675481,66.078052 0.99263996,65.690741 0.04856898,65.223893 A 1.3348403,1.3348403 0 0 1 1.1413397,64.72938 c 1.404003,-0.124494 2.808006,-0.287026 4.2154672,-0.314691 2.9048337,-0.05879 5.8096671,-0.03458 8.7145011,-0.06916 a 1.2483869,1.2483869 0 0 1 1.106603,0.546385 q 8.53122,10.720221 17.086647,21.395484 c 0.200572,0.252444 0.408061,0.497972 0.740041,0.899116 0.107203,-0.867993 0.24207,-1.535412 0.266277,-2.209749 0.083,-2.292744 0.20403,-4.588945 0.172906,-6.881689 -0.03458,-2.790716 -0.214404,-5.577973 -0.321606,-8.368688 -0.06916,-1.729068 -0.968278,-2.897917 -2.531355,-3.558421 -0.580967,-0.245528 -1.210348,-0.380395 -1.812063,-0.584425 -0.2974,-0.103745 -0.577509,-0.248987 -0.899115,-0.387311 0.259359,-0.487597 0.643213,-0.46339 0.98211,-0.470307 2.545188,-0.06225 5.086917,-0.141783 7.628646,-0.159074 1.24493,0 2.486401,0.09683 3.72787,0.172907 a 1.8431862,1.8431862 0 0 1 1.383255,0.522178 c -0.345814,0.16599 -0.580967,0.318149 -0.850702,0.421893 -0.615548,0.238611 -1.238011,0.473764 -1.867392,0.691626 a 2.4967737,2.4967737 0 0 0 -1.829354,2.054134 27.865656,27.865656 0 0 0 -0.4461,3.696745 c -0.155615,5.944536 -0.245527,11.889071 -0.376936,17.833605 -0.08991,3.897319 -0.210947,7.794638 -0.328523,11.691962 a 14.544917,14.544917 0 0 1 -0.169449,1.72906 11.878695,11.878695 0 0 1 -0.33198,1.25184 z"
     fill="#ffffff"
     id="path8"
     style="stroke-width:0.345813" />
  <path
     d="m 334.48139,94.721787 a 4.6511921,4.6511921 0 0 1 -0.0692,3.271397 6.2453926,6.2453926 0 0 1 -1.9573,2.534816 16.695878,16.695878 0 0 1 -9.09491,3.86965 c -0.93368,0.0968 -1.86392,0.24207 -2.80108,0.30777 a 15.478614,15.478614 0 0 1 -2.56248,0.0346 c -2.03338,-0.20749 -4.07714,-0.32507 -6.07248,-0.82996 a 21.948785,21.948785 0 0 1 -5.163,-1.99188 15.675728,15.675728 0 0 1 -6.30418,-6.075947 c -1.11006,-1.950388 -2.20284,-3.928441 -2.61436,-6.152022 a 23.262877,23.262877 0 0 1 2.17172,-15.215796 c 1.06856,-2.09563 2.64201,-3.803949 4.41603,-5.335903 a 25.064565,25.064565 0 0 1 6.82637,-4.19126 c 2.93595,-1.20689 6.01715,-1.324466 9.13293,-1.123895 3.64487,0.231696 7.13759,1.144643 10.56806,2.330784 0.26282,0.08991 0.5291,0.165991 0.79192,0.242069 a 0.93369657,0.93369657 0 0 0 0.23169,0 l 2.66622,-2.828754 a 3.4754261,3.4754261 0 0 1 0.55676,1.677196 c 0.0795,2.514064 0.16599,5.02467 0.18674,7.538734 0,1.213806 -0.11412,2.420696 -0.20057,3.641417 -0.0346,0.491055 -0.0968,0.999401 -0.69163,1.321008 a 3.3647658,3.3647658 0 0 1 -1.11006,-1.832812 3.9353581,3.9353581 0 0 0 -0.26974,-0.864534 20.088309,20.088309 0 0 0 -4.27079,-5.664425 9.2435961,9.2435961 0 0 0 -5.7163,-2.351533 21.094626,21.094626 0 0 0 -4.87597,0.145242 7.7842629,7.7842629 0 0 0 -3.54113,1.542328 c -2.78725,2.123296 -4.68232,4.84139 -5.36703,8.299525 a 35.272982,35.272982 0 0 0 0.14179,14.89419 13.11325,13.11325 0 0 0 3.89731,6.89898 8.7871221,8.7871221 0 0 0 5.18721,2.389578 19.116573,19.116573 0 0 0 6.34913,-0.34582 c 2.34462,-0.5533 4.32267,-1.791314 6.13128,-3.340559 0.79537,-0.691627 1.59075,-1.383254 2.39648,-2.043758 0.28357,-0.217863 0.59826,-0.432266 1.03053,-0.750416 z"
     fill="#ffffff"
     id="path9"
     style="stroke-width:0.345813" />
  <path
     d="m 137.78611,89.164564 c -2.39649,0.152158 -4.72727,-1.774024 -4.75494,-4.955508 -0.0242,-2.918666 1.96076,-4.917468 4.94514,-4.958966 2.7665,-0.03804 5.12841,2.213207 5.14916,4.903636 0.0242,2.932499 -2.14405,4.96934 -5.33936,5.010838 z"
     fill="#ffffff"
     id="path10"
     style="stroke-width:0.345813" />
  <path
     d="m 171.87294,45.042214 a 2.7111782,2.7111782 0 0 1 0.3804,0.121035 8.7352501,8.7352501 0 0 0 4.85868,0.657046 12.449287,12.449287 0 0 0 5.08692,-1.614949 6.3007228,6.3007228 0 0 0 2.73884,-3.216066 c 0.42536,-1.137727 0.81267,-2.289287 1.22419,-3.430471 0.29739,-0.833411 0.59479,-1.666821 0.91639,-2.486399 a 4.9105523,4.9105523 0 0 1 0.43227,-0.733125 l 0.19712,0.0415 a 7.4107843,7.4107843 0 0 1 0.22132,0.930239 c 0.40114,3.669082 -0.39769,7.033847 -2.64201,9.994012 a 9.9179325,9.9179325 0 0 1 -1.72907,1.659904 c -0.91987,0.736583 -2.05068,0.940614 -3.19532,0.978653 -1.2968,0.04496 -2.5936,0.02766 -3.89387,0.02075 -2.11291,-0.01383 -3.51346,-1.220722 -4.59586,-2.922125 z"
     fill="#ffffff"
     id="path11"
     style="stroke-width:0.345813" />
  <path
     d="m 178.3362,23.051931 c -0.52909,0.778081 -0.9994,1.459333 -1.45933,2.144044 a 1.6668213,1.6668213 0 0 1 -1.32446,0.691627 2.8910012,2.8910012 0 0 1 -3.08467,-1.608033 c -0.0277,-0.04841 -0.0622,-0.08991 -0.0899,-0.138325 -1.14464,-2.02301 -0.98557,-1.857019 0.15908,-3.693289 0.7435,-1.196515 3.23681,-1.172308 3.92844,-0.100286 0.58096,0.92678 1.22072,1.78094 1.87085,2.704262 z"
     fill="#ffffff"
     id="path12"
     style="stroke-width:0.345813" />
  <path
     d="m 164.36188,27.537133 c 1.27604,0 2.42069,0.899115 2.66276,1.881225 a 0.81611996,0.81611996 0 0 1 -0.11412,0.61209 3.7209537,3.7209537 0 0 1 -2.13021,1.345215 1.0028593,1.0028593 0 0 1 -0.70891,-0.13141 9.4925818,9.4925818 0 0 1 -1.49392,-1.151558 c -0.47377,-0.477223 -0.45302,-1.037441 -0.0277,-1.573452 a 2.4898576,2.4898576 0 0 1 1.81207,-0.98211 z"
     fill="#ffffff"
     id="path13"
     style="stroke-width:0.345813" />
  <metadata
     id="metadata13">
    <rdf:RDF>
      <cc:Work
         rdf:about="">
        <dc:title>neogeocd</dc:title>
      </cc:Work>
    </rdf:RDF>
  </metadata>
</svg>
