<?xml version="1.0" encoding="UTF-8" standalone="no"?>
<svg
   id="svg8"
   version="1.1"
   viewBox="0 0 376.00201 92.63"
   height="92.629997"
   width="376.00201"
   xmlns="http://www.w3.org/2000/svg"
   xmlns:svg="http://www.w3.org/2000/svg"
   xmlns:rdf="http://www.w3.org/1999/02/22-rdf-syntax-ns#"
   xmlns:cc="http://creativecommons.org/ns#"
   xmlns:dc="http://purl.org/dc/elements/1.1/">
  <defs
     id="defs2" />
  <metadata
     id="metadata5">
    <rdf:RDF>
      <cc:Work
         rdf:about="">
        <dc:format>image/svg+xml</dc:format>
        <dc:type
           rdf:resource="http://purl.org/dc/dcmitype/StillImage" />
      </cc:Work>
    </rdf:RDF>
  </metadata>
  <path
     d="M 49.17856,92.63 C 19.698387,92.620012 0,71.728241 0,46.397461 v 0 C 0,21.06669 19.743326,-0.06476258 49.133617,1.4918409e-4 H 326.86839 C 356.25868,-0.06476992 376.00201,21.06669 376.00201,46.397461 v 0 c 0,25.33078 -19.69839,46.222551 -49.17856,46.232539 z M 49.26843,11.394758 C 25.929968,11.439702 11.604322,27.038616 11.604322,46.337544 v 0 c 0,19.293934 14.235767,35.022684 37.664112,34.937796 H 326.73357 c 23.42835,0.07989 37.66911,-15.643862 37.66911,-34.937796 v 0 c 0,-19.293935 -14.32564,-34.892856 -37.66412,-34.937799 z M 341.6584,27.682747 c 2.12214,0 3.17572,0.71903 3.17572,2.14211 0,0.978677 -0.60918,1.717675 -1.62281,1.972337 l 1.66275,3.320508 h -2.01228 l -1.42308,-3.045881 h -0.8838 v 3.045881 h -1.81255 v -7.434955 z m -0.16477,-2.90607 c -3.705,0 -6.71093,3.005938 -6.71093,6.710931 0,3.704994 3.00593,6.710932 6.71093,6.710932 3.705,0 6.71094,-3.005938 6.71094,-6.710932 0,-3.704993 -3.00594,-6.710931 -6.71094,-6.710931 z m 5.42767,6.715925 c 0,2.995951 -2.43171,5.42767 -5.42767,5.42767 -2.99595,0 -5.42767,-2.431719 -5.42767,-5.42767 0,-2.99595 2.43172,-5.42767 5.42767,-5.42767 2.99596,0 5.42767,2.426726 5.42767,5.42767 z m -6.3664,-0.509314 h 0.8838 c 1.03361,0 1.53293,-0.31457 1.53293,-1.053576 0,-0.773956 -0.53427,-1.108501 -1.62281,-1.108501 H 340.5549 Z M 188.87982,49.15374 c -0.02,-2.541567 0.035,-4.239268 0.86882,-5.687317 1.02362,-1.787581 2.90608,-2.636435 4.61377,-2.646422 h -0.005 c 1.7077,0.01 3.59015,0.858841 4.61377,2.646422 0.83387,1.453035 0.86882,3.150743 0.84886,5.692311 z m 10.89528,8.743186 c 0,0 0.01,0.12983 0.01,1.757625 0,5.30284 -3.49029,6.481247 -5.42767,6.481247 -1.93738,0 -5.48759,-1.178407 -5.48759,-6.481247 0,-1.587852 0.01,-5.986907 0.01,-5.986907 0,0 24.70162,0.01 24.70162,-0.0051 0,-8.992853 -8.68327,-16.442789 -19.34885,-16.442789 -10.6656,0 -19.30892,7.29015 -19.30892,16.283002 0,8.992852 8.64332,16.278009 19.30892,16.278009 8.84804,0 16.32293,-5.04818 18.60486,-11.893927 z m 41.25926,-20.192719 c 4.90337,-0.139811 14.84993,3.070856 14.78002,14.550346 -0.01,2.037248 -0.005,15.778682 -0.005,15.778682 h -13.0274 c 0,0 0,-17.231717 0,-19.044275 0,-2.526586 -2.41673,-5.337782 -5.9919,-5.337782 -3.57018,0 -6.22659,2.811196 -6.22659,5.337782 0,1.238332 0.015,19.044275 0.015,19.044275 h -13.01741 l 0.01,-28.995829 13.01242,-0.01 c 0,0 -0.015,2.331845 0,3.050874 2.50661,-2.391768 6.12173,-4.249255 10.45089,-4.374092 z m -106.56603,0 c 4.90337,-0.139811 14.84994,3.070856 14.78004,14.550346 -0.01,2.037248 -0.005,15.778682 -0.005,15.778682 h -13.02741 c 0,0 0,-17.231717 0,-19.044275 0,-2.526586 -2.41674,-5.337782 -5.99191,-5.337782 -3.57017,0 -6.22658,2.811196 -6.22658,5.337782 0,1.238332 0.015,19.044275 0.015,19.044275 h -13.01741 l -0.005,-28.995829 13.0274,-0.01 c 0,0 -0.015,2.331845 0,3.050874 2.50661,-2.391768 6.11673,-4.249255 10.45088,-4.374092 z M 284.0762,24.437137 h 12.94252 v 43.606086 h -12.9625 c 0,0 -0.005,-1.408099 -0.005,-1.677733 -5.01821,3.150743 -10.68056,3.145749 -15.08961,1.088526 -1.1834,-0.549257 -8.96788,-4.284213 -8.96788,-14.375579 0,-7.654659 7.22026,-16.013367 16.67248,-15.184481 3.11079,0.274629 5.3228,1.408098 7.41998,2.586505 -0.01,-6.710939 -0.01,-16.043324 -0.01,-16.043324 z m 0.0949,28.960873 c 0,0 0,-3.635096 0,-5.183005 0,-4.483941 -3.09582,-5.627391 -5.13307,-5.627391 -2.08718,0 -5.14306,1.14345 -5.14306,5.627391 0,1.487992 0.005,5.168024 0.005,5.168024 0,0 -0.005,3.615112 -0.005,5.158027 0,4.478948 3.05588,5.652368 5.13807,5.652368 2.04224,0 5.14305,-1.17342 5.14305,-5.652368 0,-1.86248 -0.005,-5.143046 -0.005,-5.143046 z m 41.54886,-0.08489 c 0,0 -0.005,4.384074 -0.005,6.141699 0,4.623753 -2.73131,6.531177 -5.35776,6.531177 -2.63145,0 -5.37275,-1.907424 -5.37275,-6.531177 0,-1.757625 0.005,-6.251554 0.005,-6.251554 0,0 0.01,-4.2892 0.01,-6.046826 0,-4.603784 2.74629,-6.496227 5.35777,-6.496227 2.61645,0 5.35776,1.892443 5.35776,6.496227 0,1.757626 -0.005,5.00823 0.01,6.171662 z m -5.26788,-16.248053 c -10.58571,0 -19.16411,7.290158 -19.16411,16.283003 0,8.992851 8.5834,16.283001 19.16411,16.283001 10.5857,0 19.1641,-7.29015 19.1641,-16.283001 0,-8.992845 -8.5784,-16.283003 -19.1641,-16.283003 z M 90.627561,33.340109 v -8.91296 H 103.7698 v 8.91296 z m 0.02996,34.703114 V 39.042399 l 13.112289,0.0051 v 28.995829 z m 65.786119,0 0.005,-28.940905 h -7.13035 v -4.30418 l 7.13535,-0.0051 -0.01,-5.872065 h 13.12227 v 5.867071 h 7.10041 v 4.314168 h -7.10041 l 0.01,28.940905 z m -119.149021,0 0.005,-43.606086 H 50.886262 L 69.68087,54.84605 69.67087,24.437137 H 83.152663 V 68.043223 H 69.690845 L 50.796376,37.634302 v 30.408921 z"
     style="fill:#ffffff;stroke-width:0.734379"
     id="path29" />
  <style
     type="text/css"
     id="style7">.logo{fill:#939598}</style>
</svg>
