<?xml version="1.0" encoding="UTF-8" standalone="no"?>
<svg
   version="1.0"
   width="380.00317"
   height="38.092999"
   viewBox="0 0 380.00317 38.092999"
   preserveAspectRatio="xMidYMid"
   id="svg7"
   xmlns="http://www.w3.org/2000/svg"
   xmlns:svg="http://www.w3.org/2000/svg">
  <defs
     id="defs7" />
  <path
     d="m 364.4877,37.497438 c -0.28515,-0.332677 -3.61192,-5.32283 -7.36642,-11.073388 l -6.84364,-10.455559 6.84364,-0.142576 6.89116,-0.142576 V 12.404095 9.0773266 H 351.8935 339.77456 V 23.334908 37.592489 h -7.36642 -7.36642 V 18.820007 0 l 23.42996,0.14257581 c 25.66365,0.14257581 24.66562,0.0475253 27.46961,3.08914259 2.32874,2.471314 2.80399,4.0396479 2.80399,8.9347506 0,2.803991 -0.23763,5.132729 -0.66536,6.083235 -0.9505,2.233687 -3.23171,4.134698 -5.98818,5.037678 l -2.42379,0.80793 4.84758,6.368386 c 2.70894,3.51687 5.0852,6.510962 5.2753,6.558487 0.23763,0.09505 0.28516,0.380202 0.0951,0.617829 -0.42773,0.712879 -14.78036,0.522778 -15.39819,-0.142576 z"
     id="path1"
     style="fill:#ffffff;stroke-width:0.475253" />
  <path
     d="M 61.466576,36.87961 C 61.324,36.594458 61.324,30.178546 61.371525,22.622029 L 61.514101,8.8397002 h 18.582381 18.534855 l 1.996063,1.2831828 c 2.66141,1.80596 3.61192,3.706971 3.65944,7.508992 0,3.897072 -1.09308,6.463437 -3.42182,8.079296 -1.710905,1.188132 -1.75843,1.188132 -14.732829,1.330708 l -13.021924,0.142575 0.09505,4.990154 0.09505,4.990153 -5.845608,0.09505 c -3.564395,0.04753 -5.893133,-0.09505 -5.988184,-0.380202 z M 92.1679,18.107128 v -2.376264 h -9.219902 -9.219902 l -0.190101,2.043587 c -0.142576,1.093081 -0.142576,2.138637 -0.04753,2.376263 0.09505,0.190102 4.372325,0.332677 9.457529,0.332677 H 92.1679 Z"
     id="path2"
     style="fill:#ffffff;stroke-width:0.475253" />
  <path
     d="m 155.09136,37.164761 c -0.0951,-0.09505 -0.1901,-6.606012 -0.1901,-14.400157 V 8.6020739 h 17.82197 c 19.39031,0 19.72299,0.047525 22.1943,2.6614151 0.71288,0.760404 1.47329,2.328738 1.75844,3.51687 0.47525,1.996061 0.7604,21.956675 0.33268,22.384402 -0.095,0.09505 -2.56637,0.142576 -5.46541,0.04753 l -5.2753,-0.142575 -0.0951,-10.55061 -0.14257,-10.55061 -9.26743,-0.142576 c -5.0852,-0.04753 -9.74268,0 -10.31298,0.142576 -1.09308,0.237626 -1.09308,0.285151 -1.09308,10.693185 v 10.408035 l -5.03768,0.142575 c -2.75647,0.09505 -5.13273,0.04753 -5.22778,-0.04753 z"
     id="path3"
     style="fill:#ffffff;stroke-width:0.475253" />
  <path
     d="m 203.09188,36.87961 c -0.14258,-0.285152 -0.14258,-5.417881 -0.0951,-11.406065 l 0.14258,-10.930812 20.43586,-0.09505 20.43587,-0.09505 0.42773,-1.901011 c 0.80793,-3.6119208 2.23368,-3.3742944 -20.8636,-3.3742944 H 202.90178 V 4.5624259 0.04752527 h 23.47748 c 16.68137,0 23.90521,0.14257581 25.04582,0.57030324 2.47131,0.85545489 4.03965,2.18616239 5.37036,4.65747649 1.61585,2.994092 1.75843,8.411973 0.28515,10.835762 l -0.95051,1.568333 0.95051,1.853486 c 1.23565,2.376263 1.3307,8.934751 0.1901,11.691216 -0.80793,1.948536 -2.66142,4.182224 -4.22975,5.085204 -1.28318,0.760405 -49.71143,1.283183 -49.94906,0.570304 z m 39.96875,-11.643692 v -3.089142 h -14.4952 -14.49521 l -0.14258,2.566364 c -0.095,1.378233 -0.0475,2.851517 0.0951,3.184193 0.23763,0.570304 2.75647,0.665354 14.63779,0.570304 l 14.40015,-0.142576 z"
     id="path4"
     style="fill:#ffffff;stroke-width:0.475253" />
  <path
     d="M 4.6263531,35.881579 C 3.6283224,35.26375 2.2500896,33.837992 1.5372106,32.744911 L 0.206503,30.796375 0.06392719,19.39031 C -0.07864862,8.0317706 -0.07864862,7.9842454 1.1094831,5.5604566 2.3926654,2.994092 4.436252,1.2831823 7.1451924,0.52277797 9.3788801,-0.14257581 46.25849,-0.09505054 48.587228,0.57030324 c 0.998031,0.23762635 2.518839,1.14060646 3.469345,1.94853606 3.089142,2.7089404 3.231718,3.3742942 3.421819,14.1150047 0.09505,5.370356 0.04753,10.835762 -0.142576,12.213995 -0.332677,2.899041 -1.901011,5.180254 -4.752527,7.03374 l -1.853485,1.235657 -21.196271,-0.04753 H 6.3847881 Z M 41.078235,18.724956 V 9.3149529 H 27.77116 14.464084 l -0.142576,9.0298011 c -0.04753,4.942628 -0.04753,9.219903 0.04753,9.505054 0.142576,0.332677 4.705002,0.427728 13.449652,0.380202 l 13.25955,-0.09505 z"
     id="path5"
     style="fill:#ffffff;stroke-width:0.475253" />
  <path
     d="m 110.4176,34.978599 c -1.23565,-1.235657 -2.13863,-2.756466 -2.32873,-3.659446 -0.19011,-0.90298 -0.23763,-5.132729 -0.14258,-9.457529 0.14258,-7.794144 0.14258,-7.889195 1.47328,-9.600104 0.76041,-0.998031 2.18617,-2.186163 3.1842,-2.7089407 1.75843,-0.9029802 2.85151,-0.9505054 19.72298,-0.9505054 h 17.82198 v 3.5643951 3.564395 l -15.54076,0.09505 -15.58829,0.142576 v 1.901011 1.90101 l 14.63778,0.142576 14.63778,0.09505 -0.14257,2.994092 -0.14258,2.946566 -14.4952,0.09505 -14.49521,0.09505 -0.14258,1.90101 -0.14257,1.948536 15.58828,0.09505 15.58829,0.142576 0.14258,3.469344 0.14258,3.42182 h -18.86754 -18.86753 z"
     id="path6"
     style="fill:#ffffff;stroke-width:0.475253" />
  <path
     d="m 268.3916,35.548902 c -1.1406,-0.855455 -2.51884,-2.471314 -3.08914,-3.659446 -1.04556,-1.996061 -1.09308,-2.661415 -1.09308,-13.069449 0,-10.8832869 0,-11.0258627 1.23565,-13.4496515 0.90299,-1.8534855 1.80597,-2.8039909 3.42182,-3.8020216 l 2.23369,-1.28318228 19.58041,-0.14257581 c 13.63976,-0.09505054 20.24577,0.0475253 21.624,0.42772743 2.70894,0.71287906 5.79808,3.80202156 6.55849,6.55848726 0.3802,1.4257581 0.52278,5.6079815 0.3802,12.8318225 -0.14258,10.265459 -0.1901,10.835762 -1.23566,12.499146 -0.61783,0.950506 -1.99606,2.423789 -3.04161,3.231719 l -1.99607,1.425758 h -21.24379 -21.2438 z m 36.59446,-16.728895 -0.14258,-9.2674277 -13.21202,-0.1425758 -13.1645,-0.095051 v 9.4100035 9.362479 h 13.30707 13.30708 z"
     id="path7"
     style="fill:#ffffff;stroke-width:0.475253" />
</svg>
