<?xml version="1.0" encoding="UTF-8" standalone="no"?>
<svg
   version="1.1"
   viewBox="0 0 380 140.23095"
   id="svg17"
   width="380"
   height="140.23094"
   xmlns="http://www.w3.org/2000/svg"
   xmlns:svg="http://www.w3.org/2000/svg">
  <defs
     id="defs17" />
  <path
     d="m 224.30689,17.321565 -27.58706,12.452281 -8.79975,-8.017764 3.19722,11.472334 -23.53858,19.024871 27.58704,-12.462183 8.79976,8.017765 -3.19721,-11.462433 z"
     class="st0"
     style="fill:#ffffff;stroke-width:0.0989848"
     id="path1" />
  <path
     d="m 224.30689,17.321565 -27.58706,12.452281 -8.79975,-8.017764 3.19722,11.472334 -23.53858,19.024871 27.58704,-12.462183 8.79976,8.017765 -3.19721,-11.462433 z"
     class="st0"
     style="fill:#ffffff;stroke-width:0.0989848"
     id="path2" />
  <path
     class="st0"
     d="m 197.00688,28.38806 0.24747,-0.108883 c 0.11878,-0.465228 0.20786,-0.930457 0.28705,-1.405584 l 0.45533,-2.949745 -4.83046,0.960152 z"
     style="fill:#ffffff;stroke-width:0.0989848"
     id="path3" />
  <path
     class="st0"
     d="m 174.57694,42.196433 4.81066,-0.960152 10.3736,-8.384008 -1.9203,-6.909136 -1.40559,0.277157 -0.39594,2.593401 c -0.10888,0.682994 -0.6236,1.227411 -1.3066,1.365989 l -6.13705,1.217513 c -0.60381,0.118781 -1.14822,-0.395939 -1.04924,-1.009645 l 2.5934,-16.867002 c 0.10888,-0.682995 0.62361,-1.227411 1.3066,-1.36599 l 6.13705,-1.217512 c 0.60381,-0.118782 1.14823,0.395939 1.04924,1.009644 l -0.37614,2.474619 11.56142,-2.296446 0.55432,-3.5931463 c 0.78197,-5.0779179 -3.72183,-9.39365326 -8.76016,-8.38400876 L 181.36729,2.1867959 C 174.73531,3.5032931 169.6574,8.808876 168.62795,15.47055 l -2.82106,18.341875 c -0.78198,5.077918 3.72183,9.383755 8.77005,8.384008 z"
     style="fill:#ffffff;stroke-width:0.0989848"
     id="path4" />
  <path
     class="st0"
     d="M 94.033043,62.47841 C 89.578729,58.914959 87.292181,55.183233 87.23279,51.392117 87.094211,40.741358 105.01045,30.199481 133.03304,24.349482 l 0.29695,-1.920304 c -28.70558,5.879694 -48.076895,16.768017 -47.908621,28.992635 0.09898,7.245684 7.047715,13.847967 18.718021,19.08426 l 0.28705,-1.870811 C 100.25918,66.734754 96.784819,64.675871 94.033043,62.47841 Z"
     style="fill:#ffffff;stroke-width:0.0989848"
     id="path5" />
  <path
     class="st0"
     d="m 181.63455,17.816488 -0.27716,1.82132 c 10.75965,-0.0099 21.20254,0.613705 30.97233,1.831218 l 3.13782,-1.415482 c -10.44289,-1.445178 -21.85583,-2.237056 -33.83299,-2.237056 z"
     style="fill:#ffffff;stroke-width:0.0989848"
     id="path6" />
  <path
     class="st0"
     d="m 221.565,21.003797 -1.89061,1.524366 c 8.64137,1.395685 16.63934,3.286294 23.69695,5.632232 8.38401,2.781472 14.9467,6.047969 19.5198,9.700506 4.45431,3.563451 6.74086,7.295177 6.80025,11.086293 0.14848,10.868526 -18.50025,21.628169 -47.51268,27.39898 -10.85863,2.157868 -22.91497,3.553553 -35.26827,4.097969 -0.31675,0.633502 -0.6533,1.257106 -1.01954,1.870812 13.18476,-0.514721 25.58755,-1.969797 36.64415,-4.177157 29.28959,-5.830202 49.13603,-16.837307 48.97766,-29.210401 -0.16828,-12.392891 -20.39086,-22.895174 -49.94771,-27.9236 z"
     style="fill:#ffffff;stroke-width:0.0989848"
     id="path7" />
  <path
     class="st0"
     d="m 241.40155,40.503794 -9.50254,1.890609 c -0.56421,0.108883 -0.98985,0.564213 -1.07893,1.128426 l -0.29696,1.920304 11.41294,-2.26675 c 0.56422,-0.108884 0.98985,-0.564214 1.07894,-1.128427 0.13858,-0.930456 -0.683,-1.732233 -1.61345,-1.544162 z"
     style="fill:#ffffff;stroke-width:0.0989848"
     id="path8" />
  <path
     class="st0"
     d="m 168.78633,55.688056 -1.45508,9.482739 c -0.11878,0.752284 0.54442,1.385787 1.28681,1.23731 l 10.81903,-2.157868 1.81142,-11.769287 -11.59111,2.296446 c -0.45533,0.08909 -0.80178,0.45533 -0.87107,0.91066 z m 3.9,2.860659 3.40507,-0.673096 -0.42563,2.761674 -3.40508,0.673097 z"
     style="fill:#ffffff;stroke-width:0.0989848"
     id="path9" />
  <path
     class="st0"
     d="m 251.29012,33.921308 c -1.70253,-2.573604 -4.76116,-3.781218 -7.67132,-3.207106 l -11.94746,2.375634 c -3.15761,0.623604 -5.86979,2.454822 -7.66142,4.978933 -0.0594,-0.05939 -0.11878,-0.118781 -0.17817,-0.178172 -1.75203,-1.682741 -4.22665,-2.395431 -6.61218,-1.930203 l -14.49137,2.880456 1.14823,4.137563 14.17461,-2.821065 c 2.15787,-0.425635 4.08807,1.415482 3.75152,3.593146 l -2.70228,17.569794 -4.79086,0.950254 2.36573,-15.352536 c 0.11879,-0.752284 -0.54441,-1.385786 -1.2868,-1.237309 l -10.81903,2.157868 -2.6033,16.906596 -4.79086,0.950253 3.02893,-19.678169 -5.31548,-4.840354 -14.2736,6.443907 1.43528,-0.287056 4.79086,-0.950253 -3.98909,25.914209 c -1.16802,7.621826 -6.98832,13.689591 -14.54086,15.194159 l -5.33528,1.059137 0.79188,-5.137309 3.73173,-0.742385 c 5.64213,-1.118528 9.97766,-5.65203 10.85863,-11.343653 l 0.29695,-1.95 -12.69974,2.524111 c -2.15787,0.425635 -4.08807,-1.415482 -3.75153,-3.593146 l 1.84112,-11.987054 c 0.32665,-2.138071 1.48477,-3.989086 3.13782,-5.226395 l 0.01,-0.0099 8.48299,-6.859643 -6.06777,1.207614 c -3.15761,0.623604 -5.86979,2.454822 -7.66142,4.978933 -0.0594,-0.05939 -0.11878,-0.118782 -0.17817,-0.178172 -1.75203,-1.682741 -4.22665,-2.395431 -6.61218,-1.930203 l -12.83832,2.573604 0.35634,-2.326142 1.48477,-9.641115 9.05711,-1.801523 c 6.61218,-1.316497 11.6901,-6.62208 12.71954,-13.283754 l 1.33629,-8.70076 c 0.78198,-5.077918 -3.72182,-9.3936529 -8.76015,-8.3840084 l -21.25202,4.2266484 -3.95939,25.736037 -21.55888,4.286039 c -0.56422,0.108884 -0.98985,0.564214 -1.07894,1.128427 l -6.86954,44.67182 c -0.14848,0.930456 0.68299,1.722334 1.61345,1.544162 l 28.94314,-5.760913 9.35406,-1.860913 2.6033,-16.906596 3.40508,-0.682995 -2.6231,16.906596 13.72919,-2.731979 0.35634,-2.316244 c 1.63325,1.098731 3.65254,1.514467 5.61244,1.128427 l 5.44416,-1.088833 c -1.35609,1.742132 -3.31599,2.999238 -5.57284,3.44467 l -5.74112,1.138324 c -0.56421,0.108884 -0.98985,0.564214 -1.07893,1.128427 l -1.73224,11.284262 c -0.14847,0.930456 0.683,1.722334 1.61346,1.544162 l 9.42334,-1.870812 c 9.32437,-1.851015 16.49086,-9.344161 17.94594,-18.747713 l 0.13858,-0.900761 9.26497,-1.841116 9.26498,-1.841117 2.60329,-16.906596 3.40508,-0.682995 -2.6132,16.916495 13.72919,-2.731979 0.35634,-2.316244 c 1.63325,1.098731 3.65254,1.514467 5.61244,1.128427 l 19.5,-3.880203 c 0.56421,-0.108883 0.98984,-0.564213 1.07893,-1.128426 l 2.02919,-13.204566 -0.54442,0.108883 c 0.50482,-1.059137 0.86117,-2.20736 1.04924,-3.405076 l 0.45533,-2.949745 c 0.28706,-1.880711 -0.0792,-3.810913 -1.12843,-5.384771 z M 147.22745,18.97461 l 7.26548,-1.445177 c 0.60381,-0.118782 1.14822,0.395939 1.04924,1.009644 l -1.10863,7.225887 c -0.10888,0.682995 -0.6236,1.227411 -1.3066,1.36599 l -7.37436,1.464974 z m -16.65913,59.974863 -2.07868,0.415736 -2.44493,0.485025 -13.6302,2.712183 -3.76142,0.752284 5.92919,-38.524867 1.58375,-0.316751 11.7099,-2.326142 5.30558,-1.059137 -0.79187,5.137309 -1.52437,0.306853 -12.28401,2.444923 -1.74213,11.343653 5.75101,-1.148223 1.02945,-0.207868 3.76142,-0.752284 -0.79188,5.137309 -2.01929,0.405837 -2.77157,0.554315 -5.75102,1.148223 -1.82132,11.759389 12.60076,-2.504314 0.6929,-0.138579 3.8406,-0.762183 z m -11.17538,-7.126902 0.42563,-2.761675 10.54188,-2.098477 2.17766,-14.144921 -10.54187,2.098477 0.35634,-2.326142 8.76015,-1.742132 3.97919,-0.791878 -0.56421,3.692131 -2.39544,15.540607 z m 37.6538,1.860913 -4.79086,0.950254 2.36573,-15.372333 c 0.11878,-0.752284 -0.54441,-1.385786 -1.2868,-1.237309 l -10.82893,2.157867 -2.6033,16.906597 -4.79086,0.950253 3.39517,-22.043905 17.49061,-3.484263 c 2.15787,-0.425634 4.08807,1.415482 3.75152,3.593147 z m 35.65431,-7.097207 -4.79087,0.950254 3.39518,-22.043905 4.79086,-0.950254 z m 55.50075,-28.081975 -0.47513,3.088324 c -0.51472,3.355584 -3.06853,6.018274 -6.39441,6.681471 l -11.60102,2.306345 -0.34644,2.227157 c -0.11878,0.752284 0.54441,1.385787 1.2868,1.23731 l 10.81903,-2.157868 2.14797,-0.425634 2.64289,-0.52462 -0.79187,5.137309 -0.90076,0.178173 -16.58985,3.296192 c -2.15787,0.425635 -4.08807,-1.415482 -3.75152,-3.593147 l 1.84111,-11.987053 c 0.51473,-3.355584 3.06853,-6.018273 6.39442,-6.681471 l 11.94746,-2.375634 c 2.17766,-0.425635 4.10787,1.42538 3.77132,3.593146 z"
     style="fill:#ffffff;stroke-width:0.0989848"
     id="path10" />
  <path
     class="st0"
     d="m 19.933055,140.22104 h 38.198217 v -9.33426 H 19.933055 c -14.135023,0 -14.135023,-21.20254 0,-21.20254 h 38.198217 v -9.33426 H 19.933055 c -26.5774067,0.01 -26.5774067,39.87106 0,39.87106 z"
     style="fill:#ffffff;stroke-width:0.0989848"
     id="path11" />
  <path
     class="st0"
     d="M 103.67416,100.35988 H 65.475941 v 39.65329 0.21777 h 38.198219 c 26.5774,-0.01 26.5774,-39.87106 0,-39.87106 z m 0,30.53679 H 74.810203 v -21.20253 h 28.863957 c 14.13502,-0.01 14.13502,21.20253 0,21.20253 z"
     style="fill:#ffffff;stroke-width:0.0989848"
     id="path12" />
  <path
     class="st0"
     d="m 258.46652,100.35988 h -24.6868 c -26.57741,0 -26.57741,39.86116 0,39.86116 h 24.6868 c 26.5774,0 26.5774,-39.86116 0,-39.86116 z m 0,30.53679 h -24.6868 c -14.13502,0 -14.13502,-21.20253 0,-21.20253 0,-1.12843 0,0 0,0 h 24.6868 c 14.13502,-0.01 14.13502,21.20253 0,21.20253 z"
     style="fill:#ffffff;stroke-width:0.0989848"
     id="path13" />
  <path
     class="st0"
     d="m 136.93304,115.27688 h -2.03909 c -2.5736,0 -4.66218,2.08858 -4.66218,4.66218 0,2.5736 2.08858,4.66218 4.66218,4.66218 h 2.03909 c 2.5736,0 4.66218,-2.08858 4.66218,-4.66218 0,-2.5736 -2.08858,-4.66218 -4.66218,-4.66218 z"
     style="fill:#ffffff;stroke-width:0.0989848"
     id="path14" />
  <path
     class="st0"
     d="m 202.7678,122.54236 c 1.96979,-2.45482 2.96954,-5.60254 2.96954,-8.75025 0,-6.72107 -4.47411,-13.43223 -13.43223,-13.43223 0,0 0,0 0,0 h -34.25863 -9.33426 v 39.86116 h 9.33426 v -12.9967 h 34.25863 c 2.04898,0 4.10786,1.36599 4.10786,4.10787 v 8.89873 h 9.33427 v -8.89873 c -0.01,-3.70203 -1.15812,-6.62208 -2.97944,-8.78985 z m -10.46269,-4.65228 c 0,0 0,0 0,0 h -34.25863 v -8.20584 h 34.25863 c 2.73198,0 4.10786,2.04898 4.10786,4.10787 0,2.04898 -1.36598,4.09797 -4.10786,4.09797 z"
     style="fill:#ffffff;stroke-width:0.0989848"
     id="path15" />
  <path
     class="st0"
     d="M 333.80381,100.35988 H 299.5155 c -8.95812,0 -13.43224,6.72106 -13.43224,13.43223 v 26.42893 h 9.33427 v -26.42893 c 0,-2.04899 1.36599,-4.10787 4.10786,-4.10787 h 12.85812 v 30.5368 h 9.33427 v -30.5368 h 12.09593 c 2.73198,0 4.10787,2.04898 4.10787,4.10787 v 26.42893 h 9.33426 v -26.42893 c -0.0198,-6.72107 -4.5038,-13.43223 -13.45203,-13.43223 z"
     style="fill:#ffffff;stroke-width:0.0989848"
     id="path16" />
  <path
     class="st0"
     d="m 361.94518,109.12003 c 0,-1.25711 0.84137,-2.51422 2.51421,-2.51422 h 1.9995 0.96015 4.97893 c 10.13604,0 10.13604,-15.213953 0,-15.213953 h -14.52106 v 5.087816 h 14.52106 c 3.35558,0 3.35558,5.028427 0,5.028427 h -4.97893 -2.95965 c -5.06802,0 -7.60203,3.80101 -7.60203,7.60203 v 0.56421 2.39543 2.69239 h 22.42005 v -5.08782 h -17.33223 z"
     style="fill:#ffffff;stroke-width:0.0989848"
     id="path17" />
</svg>
