<?xml version="1.0" encoding="UTF-8" standalone="no"?>
<svg
   width="380.00351pt"
   height="49.277pt"
   viewBox="0 0 380.00351 49.277"
   version="1.1"
   id="svg5"
   xmlns="http://www.w3.org/2000/svg"
   xmlns:svg="http://www.w3.org/2000/svg">
  <defs
     id="defs5" />
  <path
     fill="#ffffff"
     stroke="#ffffff"
     stroke-width="0.0937312"
     opacity="1"
     d="m 97.695554,0.0468656 h 60.013886 c 0.99427,0.13356204 2.01825,0.10388159 3.01254,0.20776318 2.78997,0.25228384 5.56509,0.68265042 8.23635,1.54338362 2.4783,0.7716916 4.85275,1.8995489 6.91554,3.4726129 2.55251,1.9737502 4.49657,4.6746714 5.69865,7.6575567 1.45433,3.576495 1.98858,7.464634 1.95891,11.308253 0.0297,3.086766 -0.31165,6.188374 -1.12788,9.17126 -0.84587,2.982886 -2.19634,5.876729 -4.21461,8.251165 -2.2112,2.61188 -5.13472,4.585631 -8.35503,5.743168 -3.78428,1.380142 -7.86534,1.869869 -11.88704,1.825349 -19.24777,-0.01485 -38.48071,0 -57.72848,0 -0.845891,0 -1.676942,0 -2.507995,-0.02968 -0.02968,-3.175807 -0.01485,-6.366456 -0.01485,-9.542264 0.890415,-0.04452 1.780829,-0.02968 2.671245,-0.02968 4.68949,0 9.37901,0 14.05369,0 -0.0148,-10.076514 -0.0148,-20.153027 0,-30.2443819 -0.6233,-0.04452 -1.26142,-0.059361 -1.88471,-0.04452 -4.9418,0.01484 -9.88359,-0.01484 -14.810544,0.01484 -0.05935,-3.1016075 -0.01484,-6.2032146 -0.02968,-9.30482209 M 125.00157,9.3665279 c -0.0297,9.6609881 0,19.3071361 -0.0148,28.9681221 0,0.430367 0.0148,0.875574 0.0297,1.30594 8.80026,-0.02968 17.60052,0 26.40077,-0.01484 3.23518,-0.01485 6.51488,0.133561 9.70551,-0.489729 2.31508,-0.430366 4.60047,-1.276258 6.39615,-2.804803 1.55821,-1.38014 2.64154,-3.220327 3.27968,-5.179239 0.46005,-1.602743 0.66781,-3.264849 0.86073,-4.912114 0.19293,-2.879003 0.11873,-5.832209 -0.69749,-8.637011 -0.48973,-1.795667 -1.48402,-3.457772 -2.83449,-4.734032 -1.00913,-0.964615 -2.27055,-1.587905 -3.54681,-2.092473 -2.77513,-1.0536558 -5.77284,-1.3653005 -8.7112,-1.4246613 -9.64615,-0.01484 -19.2923,0 -28.93844,-0.01484 -0.63814,0 -1.29111,0 -1.92924,0.02968 z"
     id="path1" />
  <path
     fill="#ffffff"
     stroke="#ffffff"
     stroke-width="0.0937312"
     opacity="1"
     d="m 335.73279,0.0468656 h 26.44529 c 0.0297,13.1929614 0.0148,26.3859224 0.0148,39.5937244 5.92125,0 11.84251,-0.01484 17.76376,0 v 9.557105 c -0.40071,0 -0.80138,0.01485 -1.18723,0.02968 -14.14273,-0.01485 -28.3003,0 -42.44304,0 -0.83105,0 -1.67695,0 -2.508,-0.02968 -0.0148,-3.190647 0,-6.366456 0,-9.542264 1.12784,-0.04452 2.27055,-0.01485 3.3984,-0.02968 4.92696,0 9.86876,0.01484 14.79571,0 -0.0297,-2.70092 0,-5.416682 -0.0148,-8.117603 0.0148,-7.375593 -0.0148,-14.751185 0.0148,-22.1119388 -0.68266,-0.05936 -1.35045,-0.074202 -2.0331,-0.05936 -4.73403,0.01484 -9.48291,-0.01484 -14.21693,0.01484 -0.0594,-3.1016075 -0.0148,-6.2032146 -0.0297,-9.30482209 z"
     id="path2" />
  <path
     fill="#ffffff"
     stroke="#ffffff"
     stroke-width="0.0937312"
     opacity="1"
     d="m 0.0468656,0.16558742 c 1.2317388,-0.0445207 2.4783178,-0.0148402 3.7100567,-0.0296805 22.2158187,0 44.4167977,0 66.6326157,0 0.845893,0 1.691787,-0.0148402 2.522839,0.0445207 2.864164,0.23744362 5.713487,1.11301706 8.043402,2.81964306 2.018271,1.4098215 3.472613,3.5022934 4.52627,5.6986469 1.023974,2.2557144 1.38014,4.7637134 1.424662,7.2271904 0.01484,1.662105 -0.148402,3.339051 -0.563929,4.956637 -0.385845,1.469181 -1.038816,2.849322 -1.825347,4.125581 -1.528545,2.433798 -3.917821,4.259145 -6.574221,5.297963 -1.92923,0.74201 -3.992021,1.142697 -6.069652,1.187218 -0.979456,0.02968 -1.973751,0.01485 -2.968046,0.01485 -12.910997,0 -25.821994,0 -38.732991,0 -0.875573,0 -1.751147,-0.01485 -2.62672,0.02968 0.01484,2.70092 0.01484,5.387003 0,8.087923 5.223759,0 10.462359,0 15.686119,0 0.890413,0 1.765987,0 2.6564,0.02968 0,3.175808 0.01485,6.351617 0,9.542264 -1.187218,0.05936 -2.359595,0.01484 -3.546814,0.02968 -13.207801,0 -26.415602,0 -39.6234036,0 -0.8904136,0 -1.78082722,0 -2.6712408,-0.02968 v -9.557105 c 5.6244458,-0.02968 11.2488904,0 16.8733364,-0.01484 -0.01485,-9.972631 -0.01485,-19.960105 0,-29.9475774 -1.216898,-0.089043 -2.448636,-0.01484 -3.665536,-0.02968 -4.4075461,0 -8.8002532,-0.02968 -13.2078004,0.01484 V 0.16558742 M 27.545805,9.6930128 c 0.01484,4.1404242 0.01484,8.2956872 -0.01485,12.4361102 0.445207,0.01485 0.875572,0.02968 1.305939,0.01485 10.091355,-0.04453 20.182708,-0.02968 30.274062,-0.02968 2.478318,-0.08905 4.941795,-0.04452 7.420114,-0.05935 1.202058,0 2.418956,0.05935 3.606174,-0.148403 1.454343,-0.267124 2.908686,-0.905254 3.917819,-2.018271 0.727172,-0.697491 1.009137,-1.706626 1.216901,-2.6564 0.237442,-1.113018 0.133561,-2.270556 -0.133563,-3.368733 -0.222603,-1.394981 -1.202058,-2.582199 -2.418956,-3.235168 -1.335621,-0.7716927 -2.908687,-0.9349352 -4.407548,-0.979456 -13.311683,-0.01484 -26.623366,0 -39.92021,-0.01484 -0.281964,0.01484 -0.563928,0.02968 -0.845892,0.059361 z"
     id="path3" />
  <path
     fill="#ffffff"
     stroke="#ffffff"
     stroke-width="0.0937312"
     opacity="1"
     d="m 194.03831,0.18042764 c 0.68265,-0.0593609 1.3653,-0.0445207 2.04795,-0.0296804 23.04687,-0.0148402 46.10857,0 69.15546,-0.0148402 2.21118,-0.04452067 4.43722,0.35616544 6.51485,1.12785734 1.60274,0.6232893 3.11645,1.5433833 4.40754,2.7009211 1.4692,1.4246617 2.61189,3.1758084 3.44295,5.0308367 0.93492,2.2853949 1.30593,4.7637129 1.27624,7.2271909 0.0148,2.59704 -0.4452,5.26828 -1.69176,7.568516 -1.35048,2.760281 -3.73975,4.971474 -6.54456,6.218054 -1.78082,0.816213 -3.72489,1.246579 -5.66897,1.424661 -1.51369,0.103883 -3.04224,0.0742 -4.55595,0.0742 -13.60848,0 -27.21698,-0.01485 -40.84029,0 -0.0594,1.632425 0,3.26485 -0.0148,4.897274 0.0148,1.083337 -0.0445,2.151834 0.0297,3.235169 5.04568,-0.01484 10.1062,0 15.15188,-0.01484 1.0388,0.01484 2.07762,-0.01484 3.11645,0.02968 0.0148,3.175808 0.0297,6.366457 0,9.542264 -0.99431,0.04453 -1.97375,0.01485 -2.96804,0.02968 -13.65301,0 -27.30603,0 -40.95903,0 -0.63815,0 -1.26142,0 -1.89955,-0.04452 0.0148,-3.175807 0.0148,-6.336777 0,-9.512584 0.63813,-0.04452 1.2614,-0.04452 1.89955,-0.04452 4.98629,0.01484 9.97262,0 14.95894,0.01484 0.0148,-9.987471 0,-19.974945 0,-29.9624174 -0.48974,-0.02968 -0.96462,-0.04452 -1.45434,-0.04452 -5.13471,0.02968 -10.26944,-0.01484 -15.38933,0.01484 0,-3.1461279 0,-6.3070962 -0.0148,-9.46806436 M 221.58186,9.66333 c -0.0594,1.394981 0,2.789962 -0.0148,4.184944 0.0148,2.760282 -0.0445,5.535403 0.0148,8.295686 9.36418,-0.02968 18.71352,-0.04453 28.0777,-0.04453 1.72147,0 3.45778,0.02968 5.19408,-0.02968 2.27055,-0.01484 4.54111,-0.01484 6.82649,0 1.32081,0.01485 2.6861,-0.05936 3.93268,-0.57877 1.54338,-0.563929 2.99772,-1.736306 3.44292,-3.383571 0.51942,-1.617585 0.35618,-3.383571 -0.11873,-4.986316 -0.63811,-1.721467 -2.32989,-2.834484 -4.08105,-3.1906491 -1.67694,-0.3858457 -3.39842,-0.2671239 -5.10504,-0.2819643 -11.72378,0 -23.44755,0 -35.17133,0 -0.9943,0 -2.00344,-0.02968 -2.99772,0.01484 z"
     id="path4" />
  <path
     fill="#ffffff"
     stroke="#ffffff"
     stroke-width="0.0937312"
     opacity="1"
     d="m 291.24178,26.299228 c 0.87557,-0.05936 1.76599,-0.02968 2.64157,-0.02968 7.67238,0 15.32994,0 23.00235,0 0.99427,0 1.98858,-0.02968 2.98288,0.01484 0.0445,1.498863 0,2.982884 0.0148,4.481747 -0.0148,1.587905 0.0297,3.175808 -0.0148,4.778553 -0.94977,0.04453 -1.88471,0.01485 -2.83448,0.01485 -7.6724,0 -15.32997,0 -23.00235,0 -0.93494,0 -1.86987,0.04453 -2.78997,-0.02968 0.0148,-3.071927 0.0148,-6.158694 0,-9.23062 z"
     id="path5" />
</svg>
