<?xml version="1.0" encoding="UTF-8" standalone="no"?>
<svg
   version="1.1"
   viewBox="0 0 380 124.16302"
   id="svg4"
   width="380"
   height="124.16302"
   xmlns="http://www.w3.org/2000/svg"
   xmlns:svg="http://www.w3.org/2000/svg">
  <defs
     id="defs4" />
  <path
     id="path4595_13_"
     d="m 334.89479,15.645312 h -7.05573 v 20.246875 h 7.3625 V 25.313542 c 0,-2.760938 1.69219,-4.146355 4.7599,-4.146355 3.06771,0 3.83958,0.920313 3.98802,3.522917 h 6.90729 c 0,-6.897396 -0.92031,-9.509896 -8.28281,-9.509896 -4.45313,0 -5.98698,0.920313 -7.66927,4.294792 l -0.01,-3.829688 z m 33.90313,16.258855 c -7.05573,0 -8.12448,-0.613542 -8.12448,-4.146355 H 380 c -0.30677,-9.816666 -0.30677,-12.1125 -13.34948,-12.1125 -11.04375,0 -13.50781,1.989063 -13.50781,10.73698 0,8.134375 3.22604,10.123437 12.12239,10.28177 9.975,0 14.725,-0.465104 14.725,-7.055729 h -7.21406 c -0.29687,1.533854 -0.91041,2.295834 -3.97812,2.295834 z m -8.28282,-8.43125 c 0.30677,-2.147396 0.92032,-2.919271 5.82865,-2.919271 5.37344,0 6.13542,0.306771 6.44219,2.919271 z M 86.222396,24.234896 h 7.3625 c -0.613542,-6.907292 -2.6125,-8.589584 -12.884375,-8.589584 -11.657292,0 -14.269792,1.840625 -14.269792,10.430209 0,8.589583 2.454167,10.588541 13.349479,10.588541 11.508854,0 13.804688,-1.533854 13.804688,-8.747916 h -7.3625 c 0,1.998958 -0.761979,2.919271 -6.442188,2.919271 -4.908333,0 -5.986979,-1.227084 -5.986979,-5.215105 0,-3.839583 1.06875,-3.839583 6.907292,-3.839583 4.294791,0 5.056771,0.465104 5.521875,2.454167 z m 171.049484,1.227083 c 0,-8.282812 -2.45417,-9.965104 -14.2698,-9.965104 -12.73593,0 -14.25989,2.147396 -14.25989,10.736979 0,8.589583 2.14739,10.430208 14.25989,10.430208 12.88438,0 14.2698,-2.147395 14.2698,-11.202083 z m -21.01876,0.465104 c 0,-4.146354 0.92032,-4.601562 6.29375,-4.601562 5.98698,0 7.05573,0.148437 7.05573,4.601562 0,4.146354 -0.77187,4.908334 -6.44218,4.908334 -6.14532,0 -6.9073,-0.613542 -6.9073,-4.908334 z m 87.13282,-0.465104 c 0,-8.282812 -2.30573,-9.965104 -14.11146,-9.965104 -12.57761,0 -14.11146,1.989062 -14.11146,10.588542 0,8.747916 2.1474,10.588541 14.11146,10.588541 12.88437,-0.0099 14.11146,-2.157291 14.11146,-11.211979 z m -20.86042,0.465104 c 0,-4.146354 0.92031,-4.601562 6.28385,-4.601562 5.98698,0 7.05573,0.148437 7.05573,4.601562 0,4.146354 -0.76198,4.908334 -6.44218,4.908334 -6.12552,0 -6.8974,-0.613542 -6.8974,-4.908334 z M 126.26094,25.461979 c 0,-8.282812 -2.30573,-9.965104 -14.11146,-9.965104 -12.735938,0 -14.269792,1.989062 -14.269792,10.588542 0,8.747916 2.147392,10.588541 14.269792,10.588541 12.88437,-0.0099 14.11146,-2.157291 14.11146,-11.211979 z m -20.71198,0.465104 c 0,-4.146354 0.92031,-4.601562 6.13541,-4.601562 5.98698,0 7.05573,0.148437 7.05573,4.601562 0,4.146354 -0.77187,4.908334 -6.44218,4.908334 -5.98698,0 -6.74896,-0.613542 -6.74896,-4.908334 z M 282.89219,7.0557292 V 18.871354 c -1.68229,-2.305729 -3.21615,-3.522917 -9.35157,-3.522917 -9.81666,0 -11.65729,2.6125 -11.65729,10.588542 0,8.134375 2.6125,10.430208 12.1224,10.430208 5.98698,0 7.8276,-1.533854 9.20312,-4.136458 v 3.68125 h 7.3625 V 7.0557292 Z m -5.37344,14.1114578 c 4.13646,0 5.52187,0.613542 5.52187,3.829688 0,4.908333 -0.30677,5.373437 -6.13541,5.373437 -5.82865,0 -7.3625,-0.158333 -7.3625,-4.294791 0,-4.75 1.84062,-4.908334 7.97604,-4.908334 z M 137.91823,15.645312 h -6.8974 v 20.246875 h 7.3625 V 25.461979 c 0,-3.067708 1.53386,-4.136458 5.68021,-4.136458 3.83958,0 4.90833,1.375521 4.90833,5.215104 v 9.351562 h 7.52084 V 25.155208 c 0,-2.919271 2.29583,-3.829687 5.82864,-3.829687 3.37448,0 4.90834,0.920312 4.90834,3.829687 v 10.736979 h 7.3625 V 23.928125 c 0,-5.977083 -3.68125,-8.747917 -10.43021,-8.747917 -5.82865,0 -7.97604,2.147396 -8.74792,4.453125 -1.53385,-2.6125 -3.68125,-4.453125 -9.50989,-4.453125 -5.52188,0 -7.05573,1.840625 -7.97605,5.215104 l -0.01,-4.75 z m 49.54844,0 h -6.9073 v 20.246875 h 7.3625 V 25.461979 c 0,-3.067708 1.84063,-4.136458 5.52188,-4.136458 3.83958,0 4.90833,1.227083 4.90833,5.215104 v 9.351562 h 7.52084 V 25.155208 c 0,-2.919271 2.14739,-3.829687 5.6802,-3.829687 3.37448,0 5.05678,1.06875 5.05678,3.829687 v 10.736979 h 7.3625 V 23.928125 c 0,-5.977083 -3.68125,-8.747917 -10.43021,-8.747917 -5.82865,0 -7.82761,1.989063 -8.74792,4.453125 -1.53385,-2.6125 -3.68125,-4.453125 -9.5099,-4.453125 -5.36354,0 -6.74895,1.840625 -7.8177,5.215104 z"
     style="fill:#ffffff;stroke-width:0.0989583" />
  <path
     d="m 33.111458,38.484896 c -2.01875,1.128125 -4.334375,1.78125 -6.808333,1.78125 -7.689063,0 -13.953125,-6.254167 -13.953125,-13.953125 0,-7.698959 6.254167,-13.953125 13.953125,-13.953125 2.473958,0 4.789583,0.643229 6.808333,1.78125 V 0.890625 C 30.944271,0.30677083 28.658333,0 26.303125,0 11.776042,0 0,11.776042 0,26.313021 0,40.85 11.776042,52.626042 26.313021,52.626042 c 2.355208,0 4.63125,-0.316667 6.808333,-0.890625 V 38.484896 Z"
     style="fill:#ffffff;stroke-width:0.0989583"
     id="path1" />
  <rect
     x="33.111458"
     y="14.823958"
     width="11.033854"
     height="10.529167"
     style="fill:#ffffff;stroke-width:0.0989583"
     id="rect1" />
  <polygon
     points="411,149.8 566.4,149.8 460,256.2 411,256.2 "
     style="fill:#ffffff"
     id="polygon1"
     transform="scale(0.09895833)" />
  <rect
     x="33.111458"
     y="27.272917"
     width="11.033854"
     height="10.529167"
     style="fill:#ffffff;stroke-width:0.0989583"
     id="rect2" />
  <polygon
     points="411,381.9 566.4,381.9 460,275.6 411,275.6 "
     style="fill:#ffffff"
     id="polygon2"
     transform="scale(0.09895833)" />
  <path
     d="m 139.35312,102.52083 c -6.4026,5.88802 -21.1276,5.07657 -29.25208,5.07657 H 84.094792 v 16.55572 H 63.481771 V 56.40625 h 46.421349 c 3.76042,0 7.41198,0 11.1724,0.09896 6.60052,0.09896 14.12135,0.811459 19.09896,5.690104 4.67083,4.571876 4.67083,14.626042 4.67083,20.622917 -0.01,6.392708 -0.41562,15.031771 -5.49219,19.702599 z M 114.87083,73.466667 c -1.62291,0 -3.35468,-0.09896 -4.9776,-0.09896 H 84.094792 v 17.268229 h 30.677078 c 7.92657,0 9.34167,-1.425 9.34167,-9.242708 0.01,-7.411979 -2.63229,-7.817708 -9.24271,-7.926562 z"
     style="fill:#ffffff;stroke-width:0.0989583"
     id="path2" />
  <path
     d="M 150.52552,124.15312 V 56.40625 h 74.96094 v 15.952083 h -54.64479 v 9.85625 h 51.90364 v 14.833855 h -51.90364 v 10.865622 h 55.05052 v 16.24896 h -75.36667 z"
     style="fill:#ffffff;stroke-width:0.0989583"
     id="path3" />
  <path
     d="M 286.12812,73.674479 V 124.15312 H 264.49583 V 73.674479 H 234.32344 V 56.40625 h 81.96718 v 17.268229 z"
     style="fill:#ffffff;stroke-width:0.0989583"
     id="path4" />
</svg>
