<?xml version="1.0" encoding="UTF-8" standalone="no"?>
<svg
   version="1.1"
   viewBox="0 0 379.99826 98.352"
   id="svg25"
   width="379.99826"
   height="98.351997"
   xmlns="http://www.w3.org/2000/svg"
   xmlns:svg="http://www.w3.org/2000/svg">
  <defs
     id="defs25" />
  <path
     class="st0"
     d="m 128.45109,0.00184025 c -2.10835,-0.11878038 -2.04896,5.55298295 0.12868,5.28572715 2.36571,-0.3068493 1.57384,-5.18674349 -0.12868,-5.28572715 z"
     style="fill:#ffffff;stroke-width:0.0989836"
     id="path1" />
  <path
     class="st0"
     d="m 116.31569,3.6444387 c -1.03932,1.1383121 3.93956,5.741052 5.03827,4.088025 1.19771,-1.8212993 -3.99894,-5.226337 -5.03827,-4.088025 z"
     style="fill:#ffffff;stroke-width:0.0989836"
     id="path2" />
  <path
     class="st0"
     d="m 111.94062,11.493842 c -0.95025,1.722316 3.51392,5.067964 4.68192,2.959612 1.267,-2.296421 -4.13752,-3.949448 -4.68192,-2.959612 z"
     style="fill:#ffffff;stroke-width:0.0989836"
     id="path3" />
  <path
     class="st0"
     d="m 141.43775,1.051067 c -1.96978,-1.50455156 -5.67176,4.088025 -3.37535,5.2461337 2.50429,1.2669908 4.95908,-4.0385332 3.37535,-5.2461337 z"
     style="fill:#ffffff;stroke-width:0.0989836"
     id="path4" />
  <path
     class="st0"
     d="m 151.16783,8.0987032 c -0.65328,-2.0984535 -7.2258,0.5246134 -6.07759,2.5141838 1.2472,2.167742 6.60221,-0.8215632 6.07759,-2.5141838 z"
     style="fill:#ffffff;stroke-width:0.0989836"
     id="path5" />
  <path
     class="st0"
     d="m 300.21743,3.7533207 -70.77332,16.5005753 -89.78807,-1.33628 c -0.13858,0.574105 -0.46522,1.177906 -1.2076,1.771808 l 90.96597,1.356076 h 0.21777 l 0.21776,-0.04949 70.37739,-16.4114896 77.37551,16.7480336 -26.52761,71.773049 h -111.3962 l -80.13717,-5.394609 -0.15838,-0.0099 -0.15837,0.0198 L 88.808135,96.540599 20.034292,84.830832 2.2172339,21.768346 47.591341,9.880409 77.761559,12.028354 124.1255,19.125482 c -0.69288,-0.772072 -0.87106,-1.464958 -0.88095,-1.94008 L 77.969425,10.256547 47.423069,8.0789064 0,20.501355 18.618825,86.404673 88.758644,98.352 l 70.664436,-7.849404 80.19655,5.394609 h 112.70279 l 27.67583,-74.871237 z"
     style="fill:#ffffff;stroke-width:0.0989836"
     id="path6" />
  <path
     class="st0"
     d="m 284.40973,15.859021 c -3.28625,2.286523 4.286,13.164826 8.70067,11.096068 2.23703,-1.039328 -5.53318,-13.303403 -8.70067,-11.096068 z"
     style="fill:#ffffff;stroke-width:0.0989836"
     id="path7" />
  <path
     class="st0"
     d="m 321.51871,15.760038 c -3.75148,-1.247195 -12.05621,9.551923 -9.02731,11.472206 3.70199,2.336014 13.927,-9.838976 9.02731,-11.472206 z"
     style="fill:#ffffff;stroke-width:0.0989836"
     id="path8" />
  <path
     class="st0"
     d="m 347.54151,25.945456 c -1.01953,-1.118515 -15.97597,4.919487 -13.09554,8.463103 2.63297,3.236765 15.54044,-5.800443 13.09554,-8.463103 z"
     style="fill:#ffffff;stroke-width:0.0989836"
     id="path9" />
  <path
     class="st0"
     d="m 356.49953,52.839315 c 1.10861,-3.731684 -15.53053,-5.236235 -16.23332,-1.356076 -0.5642,3.177376 15.16429,4.968979 16.23332,1.356076 z"
     style="fill:#ffffff;stroke-width:0.0989836"
     id="path10" />
  <path
     class="st0"
     d="m 346.75954,75.021552 c 2.50428,-2.811136 -10.78922,-11.284136 -12.99656,-8.166152 -1.8114,2.563677 10.57147,10.888202 12.99656,8.166152 z"
     style="fill:#ffffff;stroke-width:0.0989836"
     id="path11" />
  <path
     class="st0"
     d="m 258.30774,31.666711 c 2.49439,-2.840831 15.01582,3.761379 13.49148,8.23544 -1.24719,3.652497 -16.15414,-5.196642 -13.49148,-8.23544 z"
     style="fill:#ffffff;stroke-width:0.0989836"
     id="path12" />
  <path
     class="st0"
     d="m 280.43059,68.844972 c 2.23703,3.662395 -9.65091,12.392753 -12.43234,8.611578 -1.96977,-2.692356 10.83871,-11.244544 12.43234,-8.611578 z"
     style="fill:#ffffff;stroke-width:0.0989836"
     id="path13" />
  <path
     class="st0"
     d="m 299.03952,74.48704 c 3.30606,1.563942 -3.43473,14.045781 -6.41414,12.620416 -3.23676,-1.554044 3.29616,-14.095272 6.41414,-12.620416 z"
     style="fill:#ffffff;stroke-width:0.0989836"
     id="path14" />
  <path
     class="st0"
     d="m 316.65861,73.88324 c 4.69182,-1.969775 9.60142,11.967124 5.454,13.184622 -3.76137,1.098719 -8.89863,-11.729563 -5.454,-13.184622 z"
     style="fill:#ffffff;stroke-width:0.0989836"
     id="path15" />
  <path
     class="st0"
     d="m 254.05145,57.362868 c 0.54441,-3.078392 15.35236,-4.533451 15.78789,-0.178171 0.25736,2.553778 -16.27291,2.929916 -15.78789,0.178171 z"
     style="fill:#ffffff;stroke-width:0.0989836"
     id="path16" />
  <path
     class="st0"
     d="m 306.54248,40.03083 c -0.0693,0.08909 -6.33495,2.286522 -5.40451,3.880159 0.54441,0.930447 1.42537,0.415731 2.13805,-0.108881 2.69235,-1.959877 4.06823,0.762173 2.33601,1.761908 -3.65249,2.108352 -8.00777,0.217764 -7.95828,-2.197436 0.0495,-2.434998 2.91012,-4.266197 2.91012,-4.266197"
     style="fill:#ffffff;stroke-width:0.0989836"
     id="path17" />
  <path
     class="st0"
     d="m 319.59843,42.228267 c -0.0693,0.08909 -7.96819,0.465224 -6.82988,2.692355 0.48502,0.960142 1.22741,0.04949 2.06876,-0.197967 1.42537,-0.405833 2.72205,2.088556 0.75228,2.385506 -2.32612,0.346443 -6.77048,-0.287052 -6.77048,-2.989306 0,-2.434998 2.91012,-4.266195 2.91012,-4.266195"
     style="fill:#ffffff;stroke-width:0.0989836"
     id="path18" />
  <path
     class="st0"
     d="m 311.03634,57.303477 h -6.0281 c -4.99868,0 -10.60115,-3.048696 -10.83871,-3.177375 -0.75228,-0.415731 -1.02944,-1.356076 -0.6137,-2.108351 0.41573,-0.752276 1.35607,-1.029431 2.10835,-0.613699 0.099,0.04949 5.17685,2.801238 9.34406,2.801238 h 6.0281 c 2.51419,0 4.62254,-0.178172 5.64206,-0.475122 0.82157,-0.237561 1.69263,0.227662 1.93018,1.059125 0.23757,0.821564 -0.22765,1.69262 -1.05912,1.930181 -1.69261,0.475122 -4.47406,0.584003 -6.51312,0.584003 z"
     style="fill:#ffffff;stroke-width:0.0989836"
     id="path19" />
  <path
     class="st0"
     d="m 326.72525,48.592916 c -1.69263,2.355811 -2.46469,6.631905 -4.54335,8.413611 -4.80071,4.11772 -9.60142,4.800707 -16.17393,4.800707 -11.79885,0 -16.44118,-2.900221 -19.81653,-7.69103 -1.59364,-2.256828 -0.24746,-4.672028 1.01953,-6.453734 1.8114,-2.553779 4.44437,-7.374282 17.68839,-7.374282 10.83871,0 15.7087,3.256562 17.5696,4.582943 1.63322,1.168007 2.54387,1.761908 3.5931,1.989571 0.79187,0.168273 1.12841,1.078922 0.66319,1.732214 z m -21.83579,-17.38153 c -22.36041,0 -34.03059,11.501901 -34.03059,20.83606 v 1.910384 c 0,5.820239 7.35449,17.252851 35.62422,17.252851 21.39037,0 30.9324,-10.561556 30.9324,-18.321874 v -7.493063 c 0,-7.57225 -9.36386,-14.184358 -32.52603,-14.184358 z"
     style="fill:#ffffff;stroke-width:0.0989836"
     id="path20" />
  <path
     class="st0"
     d="m 61.894479,22.708691 c -27.695626,-1.682723 -26.072294,8.571984 -26.012904,11.482104 0,0 -7.097128,-0.970041 -7.097128,2.395404 0,5.246134 4.978878,8.275034 5.434203,15.164296 0.23756,3.6327 2.613168,20.64799 15.510738,22.221831 5.99841,0.732478 11.897836,-0.989838 11.699868,-8.067168 -0.08909,-3.207071 -3.167477,-6.631906 -3.563411,-8.809546 -0.06929,-0.356341 0.217764,-0.682988 0.584003,-0.682988 24.458862,0.0099 30.546357,-8.95802 31.298632,-15.748299 0.752276,-6.730888 -3.444631,-16.47088 -27.854001,-17.955634 z m 7.394079,16.025453 c -2.642863,4.919488 -10.640743,5.968714 -13.927,6.196377 -0.851259,0.05939 -1.63323,-0.445427 -1.94008,-1.237296 l -2.336014,-6.028104 c -0.267256,-0.692886 0.05939,-1.464959 0.742378,-1.752011 3.989041,-1.712417 6.532922,-2.920018 10.036942,-2.197437 1.890589,0.395934 8.641274,2.751745 7.423774,5.018471 z"
     style="fill:#ffffff;stroke-width:0.0989836"
     id="path21" />
  <path
     class="st0"
     d="m 141.37835,62.777274 c 1.1977,-7.799912 2.89033,-16.71834 -8.64127,-16.71834 -7.79991,0 -11.98692,3.127884 -13.27371,8.66107 -0.53451,2.326117 0.52462,7.196112 0.0891,9.235176 -0.6434,2.969509 -2.05886,9.126293 0.82157,13.095537 3.29615,4.54335 17.65868,6.978347 21.01422,-4.35528 0.97995,-3.27636 -0.65329,-5.790545 -0.01,-9.918163 z"
     style="fill:#ffffff;stroke-width:0.0989836"
     id="path22" />
  <path
     class="st0"
     d="m 173.90438,54.403257 c -0.01,-0.801768 0.31675,-1.57384 0.90076,-2.128148 7.98798,-7.552454 23.5977,-16.332304 42.14723,-16.332304 5.82025,0 12.90747,4.018736 12.90747,6.018206 0,3.929651 -5.81034,3.45453 -12.61051,4.96898 -9.89837,2.217234 -21.93478,5.424304 -21.93478,11.660274 0,3.207071 0.41573,7.790014 9.40345,7.790014 11.04657,0 15.45135,-6.532921 27.2106,-6.948652 3.6525,-0.12868 8.01768,1.227397 8.01768,4.78091 0,3.32585 -11.91763,11.887937 -25.88422,11.887937 h -14.99604 c -7.43366,0 -25.04286,-5.81034 -25.04286,-15.570129 z"
     style="fill:#ffffff;stroke-width:0.0989836"
     id="path23" />
  <path
     class="st0"
     d="m 132.50942,7.2771388 c -11.82855,-0.3959346 -13.92701,8.3344232 -13.92701,10.7892182 0,6.206275 8.06718,6.6616 8.40373,9.14609 0.18806,1.365975 0.34643,4.384976 4.29589,5.087759 0.35633,0.05939 0.40582,0.564207 0.0594,0.682987 -1.59365,0.564208 -3.702,1.544146 -3.702,2.791339 0,1.99947 2.4548,2.781442 6.39434,2.781442 0,0 3.58322,0.227662 3.58322,-0.97004 0,-0.692886 -1.50456,-1.217499 -2.78144,-1.544146 -0.36625,-0.08909 -0.35635,-0.6038 0.01,-0.692885 1.51445,-0.346443 3.44463,-0.989836 3.44463,-1.999469 0,-0.970041 -1.64313,-1.583739 -2.9893,-1.920284 -0.36624,-0.08909 -0.35634,-0.613699 0.0198,-0.692885 l 1.27688,-0.257358 c 0.55431,-0.108882 0.96015,-0.584004 1.03934,-1.14821 0.71267,-5.51339 7.60194,-4.474061 7.60194,-12.105701 0,-2.454795 -2.78145,-9.6113127 -12.7293,-9.9478572 z m 5.83013,13.4914712 c -1.45505,1.08882 -2.84082,2.553779 -3.89995,5.206541 -0.10888,0.267256 -0.35634,0.455324 -0.6434,0.48502 -0.49491,0.03959 -1.13831,-0.0099 -1.56394,-0.04949 -0.27715,-0.0297 -0.52461,-0.197968 -0.6137,-0.465223 -0.70278,-2.019267 -3.39513,-4.216704 -5.31542,-5.226337 -2.61317,-1.375873 -3.05859,-2.821034 -3.05859,-3.593107 0,-1.445161 0.14847,-5.335219 8.49279,-5.196642 0.19797,0 0.40584,0 0.6137,0.0099 6.83978,0.227662 7.37429,4.60274 7.37429,5.20654 0,0.97004 0.33655,2.345912 -1.38578,3.622801 z"
     style="fill:#ffffff;stroke-width:0.0989836"
     id="path24" />
  <path
     d="m 134.36041,40.664325 a 1.7025189,1.5540434 0 0 1 -1.70252,1.554044 1.7025189,1.5540434 0 0 1 -1.70251,-1.554044 1.7025189,1.5540434 0 0 1 1.70251,-1.554043 1.7025189,1.5540434 0 0 1 1.70252,1.554043 z"
     class="st0"
     style="fill:#ffffff;stroke-width:0.0989836"
     id="path25" />
</svg>
