<?xml version="1.0" encoding="UTF-8" standalone="no"?>
<!-- Created with Inkscape (http://www.inkscape.org/) -->

<svg
   width="99.483932mm"
   height="14.846299mm"
   viewBox="0 0 99.483933 14.846299"
   version="1.1"
   id="svg1"
   xml:space="preserve"
   inkscape:version="1.4 (e7c3feb100, 2024-10-09)"
   sodipodi:docname="psikyo.svg"
   xmlns:inkscape="http://www.inkscape.org/namespaces/inkscape"
   xmlns:sodipodi="http://sodipodi.sourceforge.net/DTD/sodipodi-0.dtd"
   xmlns="http://www.w3.org/2000/svg"
   xmlns:svg="http://www.w3.org/2000/svg"><sodipodi:namedview
     id="namedview1"
     pagecolor="#ffffff"
     bordercolor="#000000"
     borderopacity="0.25"
     inkscape:showpageshadow="2"
     inkscape:pageopacity="0.0"
     inkscape:pagecheckerboard="0"
     inkscape:deskcolor="#d1d1d1"
     inkscape:document-units="mm"
     inkscape:zoom="0.21180029"
     inkscape:cx="908.87503"
     inkscape:cy="125.11786"
     inkscape:window-width="1920"
     inkscape:window-height="1164"
     inkscape:window-x="1920"
     inkscape:window-y="0"
     inkscape:window-maximized="1"
     inkscape:current-layer="layer1" /><defs
     id="defs1" /><g
     inkscape:label="Layer 1"
     inkscape:groupmode="layer"
     id="layer1"
     transform="matrix(0.15120743,0,0,0.15120743,-3.6139268,-8.7674672)"
     style="fill:#ffffff;fill-opacity:1"><path
       style="fill:#ffffff;fill-opacity:1"
       d="m 64.112321,155.75677 c 0,-0.28803 1.249692,-1.74124 2.930774,-3.40805 7.528058,-7.46418 12.232063,-14.09452 17.525857,-24.70286 4.097417,-8.2109 6.021093,-12.89694 6.387252,-15.55923 0.160313,-1.16562 0.105605,-1.41996 -0.442489,-2.05716 -0.545257,-0.6339 -0.811051,-0.72487 -2.073713,-0.70979 -3.045955,0.0364 -7.299914,2.01931 -10.437055,4.86511 -0.873125,0.79204 -1.877179,1.59379 -2.23123,1.78166 -0.569774,0.30235 -0.696874,0.27597 -1.106298,-0.22965 -1.081641,-1.33577 -0.846045,-5.53086 0.540632,-9.62664 1.458697,-4.30851 3.729606,-8.156768 7.997671,-13.552763 2.919177,-3.690633 3.865639,-5.051039 4.796143,-6.893779 1.030467,-2.040705 1.137982,-3.024658 0.428989,-3.925997 -0.580097,-0.737473 -0.631591,-0.749262 -2.78021,-0.636488 -3.182806,0.167055 -5.519367,1.36891 -8.450651,4.346754 -1.654886,1.681174 -2.350576,2.214718 -2.887774,2.214718 -3.465161,0 -2.575249,-4.891401 2.912269,-16.007291 5.085133,-10.30079 6.079868,-11.675784 7.941705,-10.977589 0.904359,0.339138 3.687472,2.979247 4.235015,4.017407 0.528336,1.001744 0.280813,1.471755 -2.550759,4.843516 -5.727009,6.819572 -8.184044,10.210698 -8.184044,11.295372 0,0.701995 0.435579,0.592354 1.89093,-0.475972 0.715202,-0.525006 1.862247,-1.167324 2.54899,-1.427374 1.698409,-0.643138 5.436854,-0.932476 6.912877,-0.535025 2.715712,0.731266 4.523365,2.806159 4.520811,5.189161 -0.0016,1.497548 0.03131,1.440589 -3.60272,6.233926 -3.388424,4.469376 -7.747606,11.051304 -8.852486,13.366374 -0.46712,0.97876 -0.909136,2.31034 -0.982256,2.95907 l -0.132947,1.17949 0.898922,-0.16988 c 0.494406,-0.0934 1.549946,-0.34998 2.345644,-0.57011 0.795697,-0.22013 2.514293,-0.40024 3.819101,-0.40024 4.437763,0 6.817504,1.19994 8.277946,4.174 0.670351,1.36511 0.741955,1.77559 0.725733,4.16037 -0.01537,2.26011 -0.142893,3.01227 -0.874706,5.15938 -0.979882,2.87493 -1.436695,3.73596 -5.263933,9.92187 -8.373608,13.53414 -12.213695,18.2721 -18.415611,22.72146 -2.432185,1.74489 -5.96028,3.55264 -7.376191,3.77946 -0.853837,0.13678 -0.992188,0.0889 -0.992188,-0.34321 z m 72.345209,-5.2603 c -0.096,-0.51189 -0.099,-1.67275 -0.006,-2.57969 0.40733,-3.99542 -1.65946,-9.2821 -4.16152,-10.6448 -1.6254,-0.88525 -1.50852,-1.00284 2.73114,-2.74767 1.59177,-0.6551 2.702,-1.28661 3.02746,-1.72206 0.51175,-0.6847 0.51088,-0.70132 -0.20519,-3.92977 -0.39551,-1.78319 -0.78993,-4.01607 -0.87648,-4.96196 -0.19616,-2.14371 0.26657,-6.57493 0.98999,-9.48042 0.30187,-1.21241 0.48859,-2.26465 0.41494,-2.3383 -0.0736,-0.0737 -0.8475,-0.19862 -1.71965,-0.27771 -1.42554,-0.12926 -1.65023,-0.0793 -2.22406,0.49454 -0.41198,0.41198 -0.74924,1.20208 -0.95112,2.22822 -0.40216,2.04413 -0.90049,2.75909 -1.92311,2.75909 -1.01307,0 -1.72032,-0.76142 -3.41912,-3.68097 -1.49343,-2.56659 -2.71626,-5.55744 -3.45807,-8.45789 -0.58037,-2.26923 -0.66827,-7.001871 -0.15785,-8.498642 0.47442,-1.39119 1.27245,-1.374101 2.31336,0.04954 1.40513,1.921774 4.18376,7.905702 4.77868,10.291172 0.30548,1.22485 0.65186,2.33 0.76973,2.45589 0.11928,0.12739 0.72297,0.0407 1.36126,-0.19553 0.63081,-0.23344 2.49263,-0.66124 4.13736,-0.95067 1.64473,-0.28942 3.41182,-0.7262 3.92686,-0.9706 1.48914,-0.70664 3.54037,-2.75185 6.34952,-6.33086 3.10552,-3.956622 3.63436,-4.764734 3.44352,-5.262045 -0.0793,-0.206675 -0.77436,-0.800149 -1.54456,-1.318833 -2.33337,-1.571383 -3.87816,-1.315703 -10.22941,1.693082 -3.82725,1.813088 -5.29287,2.024129 -7.4039,1.066125 -1.57618,-0.715281 -1.43751,-1.373974 0.35293,-1.67647 2.11546,-0.357407 3.39873,-0.904854 6.41968,-2.738656 4.31165,-2.617283 5.16642,-2.990121 7.60246,-3.316059 1.71039,-0.228848 2.63836,-0.219347 4.10067,0.04198 4.57892,0.818299 9.25952,4.640234 9.25952,7.560851 0,1.162821 -0.91582,2.538335 -3.67316,5.516895 -2.05059,2.21512 -2.90915,3.38135 -3.74889,5.09233 -1.18366,2.41174 -2.28512,3.54153 -3.93448,4.03569 -0.5544,0.1661 -2.51223,0.302 -4.35073,0.302 h -3.34275 l 1.8e-4,2.57969 c 1.2e-4,1.66133 0.27257,4.13382 0.76533,6.94531 1.23356,7.0383 1.45773,9.67921 1.47103,17.33021 0.0119,6.82108 -0.0133,7.19155 -0.55714,8.20208 -0.69657,1.29432 -1.32148,1.87878 -3.50635,3.27932 -2.12058,1.35932 -2.5909,1.38526 -2.82159,0.15559 z m -85.306297,-4.62179 c -0.864093,-0.92502 -1.870747,-3.32661 -2.518599,-6.00866 -0.745224,-3.08517 -0.08471,-4.07315 1.712228,-2.56112 0.94652,0.79644 1.125691,0.72179 1.16878,-0.48702 0.036,-1.00987 -0.309317,-7.72444 -0.530605,-10.31747 l -0.151541,-1.77575 -4.935108,4.66136 c -7.133012,6.73733 -8.411375,7.80082 -9.259058,7.70273 -1.072325,-0.12407 -1.450386,-1.55827 -1.276881,-4.84392 0.07685,-1.45524 0.263967,-2.97269 0.415822,-3.3721 0.151855,-0.39941 3.394094,-5.51907 7.204974,-11.37702 3.81088,-5.85795 7.04822,-10.96068 7.194088,-11.3394 0.145867,-0.37872 0.186128,-0.89468 0.08947,-1.14657 -0.221181,-0.57639 0.03287,-0.77607 -9.568105,7.52045 -4.074584,3.52099 -7.765522,6.59474 -8.202084,6.83057 -0.624632,0.33743 -1.509907,0.42144 -4.154996,0.39431 -4.886802,-0.0501 -5.227447,-0.26747 -3.469348,-2.21347 1.516207,-1.67826 17.512305,-14.3718 23.454322,-18.611932 1.435247,-1.024171 1.735871,-1.375496 1.889048,-2.207638 0.290381,-1.577513 1.096393,-3.170467 1.701367,-3.362478 0.882509,-0.280097 1.633083,0.104975 2.022838,1.037792 0.313929,0.751336 0.519289,0.884672 1.588197,1.031182 0.675207,0.09255 1.990372,0.532283 2.92259,0.977189 1.363718,0.650843 1.694941,0.928823 1.694941,1.422486 0,0.367441 -0.969224,1.874436 -2.416187,3.756799 -3.733642,4.85711 -3.402516,3.82417 -3.403657,10.61771 -5.44e-4,3.23784 0.0551,5.88698 0.123642,5.88698 0.06855,0 1.616381,-1.01203 3.439632,-2.24896 1.823251,-1.23693 3.434043,-2.24896 3.579536,-2.24896 0.739595,0 -0.04831,0.97756 -3.433048,4.25943 l -3.710751,3.59796 -0.0015,11.08641 c -9.03e-4,6.78203 -0.107167,11.46696 -0.273697,12.06656 -0.252965,0.91082 -1.31578,2.06256 -1.903314,2.06256 -0.140272,0 -0.58713,-0.35551 -0.993018,-0.79001 z m -3.056237,-23.57587 c 1.222447,-0.73313 2.322948,-1.47409 2.445558,-1.64657 0.122609,-0.17247 0.160556,-2.09953 0.08433,-4.28234 l -0.138601,-3.96875 -0.684824,1.05833 c -1.840581,2.84445 -5.268301,9.49565 -5.268301,10.22268 0,0.49195 1.234079,0.0127 3.561842,-1.38335 z m 65.505194,19.26631 c -0.675,-0.34158 -3.65227,-4.55741 -4.52667,-6.40981 -0.27477,-0.58208 -0.50219,-1.60057 -0.50539,-2.2633 -0.006,-1.20635 0.16581,-1.55303 2.2195,-4.48357 0.35693,-0.50933 0.78487,-1.58089 0.95099,-2.38125 0.58022,-2.79549 0.67109,-3.04271 1.11844,-3.04271 0.24117,0 0.89365,0.65151 1.44996,1.4478 1.35813,1.94399 2.4522,2.65324 4.09281,2.65324 1.37508,0 3.21806,-0.77162 4.61071,-1.93041 0.87291,-0.72632 1.79033,-1.24459 2.20314,-1.24459 0.63357,0 0.17824,1.03637 -1.79086,4.07614 -3.50697,5.41383 -5.64318,9.35076 -6.51121,11.99982 -0.61015,1.86206 -1.71268,2.38766 -3.31142,1.57864 z m 38.15977,-4.15345 c -0.34247,-0.14586 -0.53235,-0.40426 -0.45163,-0.61461 0.1353,-0.3526 4.75222,-3.15929 6.29129,-3.82456 0.42082,-0.1819 1.21995,-0.33073 1.77586,-0.33073 1.29938,0 2.3681,-0.40902 2.3681,-0.90632 0,-0.21464 -0.56555,-0.84056 -1.25678,-1.39092 -0.69122,-0.55036 -2.34963,-2.1041 -3.68535,-3.45275 -2.10997,-2.13041 -2.5459,-2.45209 -3.32286,-2.45209 -0.49186,0 -1.12541,-0.17083 -1.40788,-0.37962 -0.48841,-0.36101 -0.46169,-0.40274 0.54474,-0.85094 0.84746,-0.37741 1.79639,-0.47311 4.7625,-0.48028 3.49829,-0.008 3.83387,0.0374 6.03772,0.82578 4.50584,1.61178 9.2319,5.05255 10.11459,7.36385 0.38097,0.99756 0.40251,1.37068 0.13943,2.41546 -0.58913,2.33968 -2.4415,4.33491 -4.02451,4.33491 -0.32524,0 -2.02087,-0.49169 -3.76807,-1.09266 -2.93362,-1.00904 -3.32978,-1.08178 -5.17649,-0.95045 -1.36274,0.0969 -2.64837,0.40381 -4.03594,0.96346 -2.25827,0.91084 -4.00825,1.20429 -4.90472,0.82247 z M 37.491231,96.86309 c -1.01071,-0.780058 -1.303296,-1.148689 -2.157452,-2.718193 -0.639837,-1.175697 -0.720088,-1.602635 -0.721133,-3.836458 -9.14e-4,-1.952793 0.13744,-2.915022 0.620166,-4.313164 0.623887,-1.806992 2.062044,-4.027261 2.554409,-3.943572 0.145003,0.02465 0.323172,0.850697 0.395933,1.835669 0.07276,0.984972 0.228615,1.939687 0.346344,2.121588 0.356211,0.550375 1.308026,0.372797 2.564073,-0.478375 1.937298,-1.312829 3.546071,-2.05956 5.725082,-2.657363 1.128767,-0.309672 2.273329,-0.698199 2.543471,-0.863391 0.270142,-0.165193 0.954619,-1.136864 1.521059,-2.15927 1.400409,-2.527692 2.567896,-4.094205 3.051318,-4.094205 0.32183,0 0.389754,0.314969 0.339941,1.576323 -0.03424,0.866978 0.01391,1.652485 0.106995,1.745571 0.09309,0.09309 0.531015,-0.04445 0.973176,-0.305644 0.44216,-0.261191 0.873335,-0.405484 0.958167,-0.320653 0.08483,0.08483 -0.325502,0.896492 -0.911852,1.80369 -1.14393,1.769881 -1.198484,1.969564 -1.604407,5.872504 -0.273164,2.626461 -0.658679,3.916473 -1.169899,3.914719 -0.648705,-0.0022 -2.011393,-1.102554 -3.719053,-3.003021 -0.994735,-1.107047 -2.011955,-2.077353 -2.260488,-2.156234 -1.211567,-0.384536 -1.861288,0.560898 -3.668827,5.338658 -1.556394,4.113923 -2.243804,5.53113 -3.153919,6.502315 -0.826181,0.88162 -1.331401,0.911613 -2.333104,0.138506 z M 112.372,92.582837 c -4.56778,-0.739177 -7.38251,-2.014933 -6.43783,-2.917896 0.47961,-0.458426 14.84419,-6.370886 22.86878,-9.412789 12.40705,-4.703172 22.20507,-7.611826 27.53473,-8.173996 5.80389,-0.612191 10.55317,1.193293 15.27987,5.808785 1.69041,1.650636 1.79887,1.826719 1.7198,2.792139 -0.0768,0.938117 -0.23465,1.13111 -1.76204,2.15488 -1.05493,0.707088 -1.97556,1.124479 -2.48024,1.124479 -0.44143,0 -1.77009,-0.446484 -2.95257,-0.992188 -1.86403,-0.86023 -2.39629,-0.98948 -4.00205,-0.971835 -1.60726,0.01766 -2.34028,0.216323 -5.54527,1.502875 -4.42094,1.774658 -4.86591,1.747137 -3.31454,-0.205004 0.43861,-0.551925 1.27205,-1.352503 1.85208,-1.779063 2.77782,-2.04283 -0.14191,-3.607985 -5.33883,-2.861936 -8.28437,1.189273 -16.02059,4.565036 -24.56282,10.718188 -4.46798,3.218386 -4.91233,3.410669 -8.06979,3.492039 -1.45521,0.0375 -3.61038,-0.0879 -4.78928,-0.278678 z M 57.641921,89.798513 c -0.0834,-0.134938 0.09525,-0.871691 0.397,-1.637228 0.617628,-1.566934 3.50364,-7.109732 4.30443,-8.266974 l 0.523717,-0.756837 -1.890915,-1.792353 c -1.040003,-0.985795 -1.890915,-1.865609 -1.890915,-1.955143 0,-0.72433 5.009577,0.541556 7.493776,1.893626 1.311413,0.713761 2.560391,1.957055 2.560391,2.54874 0,0.182172 -1.28639,1.413311 -2.858645,2.735865 -1.572254,1.322554 -4.079133,3.545619 -5.570842,4.940145 -1.491708,1.394526 -2.758135,2.535501 -2.814282,2.535501 -0.05615,0 -0.170318,-0.110404 -0.253715,-0.245342 z M 36.33107,76.99844 c 0,-0.353198 12.772482,-15.068527 15.259024,-17.580104 2.191358,-2.213422 2.389925,-2.152512 7.231223,2.21813 5.101377,4.605439 5.131201,4.768217 0.848777,4.632563 -1.642861,-0.05204 -3.509557,-0.01626 -4.148213,0.07951 -0.896351,0.134416 -3.105716,1.40817 -9.686872,5.584723 -4.689123,2.975826 -8.745787,5.410592 -9.014808,5.410592 -0.269022,0 -0.489131,-0.155437 -0.489131,-0.345416 z m 105.09528,-4.566604 c -0.32517,-0.227756 -1.61536,-1.78446 -2.8671,-3.459341 -2.40624,-3.219661 -4.48553,-5.111293 -6.17462,-5.617357 -3.96696,-1.188532 0.79694,-3.984022 6.81376,-3.998354 2.62776,-0.0063 3.54372,0.510024 6.97665,3.932396 2.22871,2.22186 2.85775,3.012487 2.99998,3.770657 0.27128,1.446046 -0.38923,2.446219 -2.53003,3.831097 -3.04757,1.971462 -4.1424,2.294731 -5.21864,1.540902 z"
       id="path1"
       sodipodi:nodetypes="ssssssssssssssssssssssssssssccsssssssssccsssssscssssssssssssssssssssssssssscsscssccssssscsssssssssssssssssssssssscsssssssscsssssscssssssssssssssssssssccssssssssssssssssssssssssscssssssssssssssssssssssssscsssssssssssssssssssscssss" /><path
       d="M 200.66778,107.08285 V 83.264779 h 41.36971 41.36971 l 1.9743,2.497675 c 3.99625,5.055638 5.7318,9.849106 5.74113,15.856506 0.009,6.12316 -2.34715,11.95256 -6.6343,16.41058 l -1.73524,1.80439 h -29.97567 -29.97567 v 5.5335 5.53349 h -11.067 -11.06697 z m 71.45336,-3.72909 0.96321,-1.8044 -0.96321,-1.804396 -0.96319,-1.804405 -24.1781,-0.124756 -24.1781,-0.124757 v 3.858274 3.85829 l 24.1781,-0.12476 24.17809,-0.12476 z m 21.89424,21.05133 v -6.49585 h 33.44155 33.44154 v -1.6841 -1.68411 h -29.14236 -29.14237 l -2.63498,-2.63499 c -1.62969,-1.62969 -3.22401,-3.8785 -4.17889,-5.89437 -1.33853,-2.8258 -1.54389,-3.77278 -1.54389,-7.11887 0,-3.386047 0.19283,-4.251231 1.57199,-7.052668 0.89039,-1.80866 2.72031,-4.359985 4.22042,-5.884269 l 2.64844,-2.691084 h 37.04018 37.04018 v 6.495848 6.495829 h -30.5545 -30.55451 v 1.684103 1.684103 h 29.03773 29.03775 l 2.66379,2.792698 c 7.79884,8.17628 7.87901,17.25191 0.22468,25.4344 l -2.85232,3.04916 h -39.8822 -39.88223 z m 90.94176,-9.1423 V 99.624662 h 11.06697 11.06699 v 15.638128 15.63813 h -11.06699 -11.06697 z m 24.65558,-8.05965 0.12476,-23.697777 11.17886,-0.129121 11.17885,-0.129122 0.12875,11.808764 0.12876,11.808756 20.08812,-11.799917 20.08812,-11.799908 h 24.78127 24.7813 v 7.458183 7.458181 h 22.85573 22.85573 v -7.458181 -7.458183 h 10.36411 10.36414 l -0.13913,21.291895 c -0.13839,21.17094 -0.1453,21.30188 -1.22941,23.04511 -2.19366,3.52757 1.93216,3.29913 -59.58729,3.29913 H 472.33615 L 452.53228,119.3528 c -10.89213,-6.35149 -19.94254,-11.54816 -20.11201,-11.54816 -0.1695,0 -0.30817,5.19667 -0.30817,11.54816 v 11.54815 H 420.8 409.4879 Z m 91.30716,16.9743 v -6.24232 l 32.64611,-0.13331 c 26.81622,-0.10948 32.78815,-0.25117 33.44154,-0.79361 0.55931,-0.46435 0.79544,-1.42847 0.79544,-3.24791 v -2.58756 l -30.91539,-0.002 c -29.81361,-0.002 -30.97028,-0.0353 -32.45582,-0.94108 -2.97045,-1.81119 -3.21876,-2.89541 -3.49937,-15.279253 l -0.2531,-11.169796 -18.87421,11.638742 c -10.56889,6.517287 -18.6917,11.821267 -18.45943,12.053527 0.56824,0.56825 36.7626,22.8407 37.21336,22.8995 0.19849,0.0258 0.36087,-2.76196 0.36087,-6.19523 z m 96.04426,6.22382 c -2.26674,-0.67832 -4.03273,-2.73939 -4.59546,-5.36333 -0.69938,-3.26115 -0.66847,-31.830823 0.038,-35.12505 0.65609,-3.059152 2.70565,-5.341013 5.49218,-6.114649 2.48937,-0.691125 75.71405,-0.741973 78.18942,-0.05437 2.04695,0.56866 4.45627,2.99621 5.20704,5.246446 0.36684,1.099512 0.54224,7.250333 0.53513,18.765743 -0.009,15.92587 -0.0763,17.27504 -0.9461,19.19136 -0.7142,1.57359 -1.42318,2.28257 -2.99677,2.99677 -1.98874,0.90264 -3.42335,0.93444 -40.79568,0.90474 -21.30395,-0.0164 -39.36144,-0.21841 -40.12777,-0.44774 z m 64.07721,-22.88943 c 0.10457,-6.5551 -0.005,-8.344984 -0.5362,-8.786159 -0.48764,-0.404696 -6.81295,-0.520322 -23.46827,-0.428974 l -22.8007,0.125121 -0.13239,8.162262 c -0.0727,4.48925 -0.0247,8.44296 0.10693,8.78604 0.19241,0.50139 4.7967,0.59925 23.46929,0.49884 l 23.22995,-0.12494 z M 379.33418,97.348057 c 0.12039,-0.203411 1.45692,-3.29297 2.96995,-6.865679 1.51303,-3.57271 2.90632,-6.662396 3.09618,-6.865971 0.18986,-0.203575 5.22382,-0.311836 11.18658,-0.240584 l 10.84138,0.129485 -2.98303,6.977015 -2.98301,6.977015 -11.17352,0.129303 c -6.14543,0.07111 -11.07497,-0.0371 -10.95453,-0.240584 z"
       style="fill:#ffffff;fill-opacity:1;stroke-width:1.81861"
       id="path1-9" /></g></svg>
