<?xml version="1.0" encoding="UTF-8" standalone="no"?>
<svg
   version="1.1"
   viewBox="0 0 379.99997 63.270926"
   id="svg6"
   width="379.99997"
   height="63.270927"
   xmlns="http://www.w3.org/2000/svg"
   xmlns:svg="http://www.w3.org/2000/svg">
  <defs
     id="defs6" />
  <path
     class="st0"
     d="m 0,43.879687 v 18.905978 c 0,0.257359 0.2177652,0.465226 0.44542881,0.465226 H 12.600686 c 0.237562,0 0.445429,-0.207867 0.445429,-0.465226 V 43.879687 c 0,-5.50352 2.900236,-9.334208 6.968486,-9.334208 h 32.070875 c 10.225065,0 16.560053,-6.562651 16.560053,-17.223247 0,-10.6407998 -6.334988,-17.29253674 -16.560053,-17.29253674 H 0.46522565 C 0.2177652,0.02969526 0,0.22766362 0,0.4949209 V 7.3842198 C 0,7.6415787 0.2177652,7.8593439 0.46522565,7.8593439 H 48.056819 c 4.662155,0 7.354525,3.4248531 7.354525,9.4430911 0,6.008339 -2.702268,9.482684 -7.354525,9.482684 H 13.946871 C 6.0677302,26.785119 0,34.109948 0,43.879687"
     style="fill:#ffffff;stroke-width:0.0989842"
     id="path1" />
  <path
     class="st0"
     d="m 112.67369,7.8593439 h 24.30062 c 0.26726,0 0.49492,-0.2177652 0.49492,-0.4751241 V 0.4949209 c 0,-0.2771557 -0.23756,-0.48502248 -0.49492,-0.48502248 l -28.29958,0.01979684 c -10.234963,0 -16.560052,6.61214324 -16.560052,17.27273974 v 28.665818 c 0,6.018238 -2.613182,9.452989 -7.334728,9.452989 H 59.835937 c -0.257359,0 -0.465226,0.237562 -0.465226,0.494921 v 6.869502 c 0,0.257359 0.207867,0.465226 0.465226,0.465226 h 29.022161 c 10.145879,0 16.470972,-6.622042 16.470972,-17.252943 V 17.302435 c 0.01,-6.028137 2.71216,-9.4430911 7.34462,-9.4430911"
     style="fill:#ffffff;stroke-width:0.0989842"
     id="path2" />
  <path
     class="st0"
     d="m 229.80167,62.785665 c 0,0.257359 0.21777,0.465226 0.46523,0.465226 h 12.30373 c 0.24746,0 0.44543,-0.207867 0.44543,-0.465226 V 0.52461616 c 0,-0.29695254 -0.19797,-0.47512407 -0.44543,-0.47512407 H 230.2669 c -0.24746,0 -0.46523,0.18806994 -0.46523,0.47512407 z"
     style="fill:#ffffff;stroke-width:0.0989842"
     id="path3" />
  <path
     class="st0"
     d="M 191.37601,56.292303 221.06137,0.56420983 c 0.14848,-0.27715571 0,-0.55431141 -0.25736,-0.55431141 h -7.59209 c -0.25736,0 -0.54441,0.19796836 -0.67309,0.42563197 L 188.53517,45.067497 c -1.73223,3.31597 -4.70175,3.702008 -6.50326,0.395937 L 157.88967,0.42563198 C 157.79068,0.18806994 157.45414,0 157.19678,0 h -13.46185 c -0.32665,0 -0.43553,0.29695254 -0.27716,0.59390508 L 173.17282,56.282405 c 1.73223,3.197189 3.7911,5.285755 5.99844,6.2558 3.51394,1.643137 7.35453,0.43553 10.42304,-3.533735 0.6335,-0.801772 1.2175,-1.69263 1.78171,-2.712167"
     style="fill:#ffffff;stroke-width:0.0989842"
     id="path4" />
  <path
     class="st0"
     d="m 313.4829,0.04949209 h -61.38999 c -0.28705,0 -0.46523,0.18806994 -0.46523,0.47512407 V 7.3248293 c 0,0.2375621 0.18807,0.4553272 0.46523,0.4553272 h 23.36027 c 0.44542,0 0.84136,0.3662415 0.84136,0.8413656 V 62.775767 c 0,0.257359 0.20787,0.465226 0.46523,0.465226 h 12.04637 c 0.28706,0 0.49492,-0.207867 0.49492,-0.465226 V 8.6314205 c 0,-0.4751241 0.36624,-0.8413655 0.84137,-0.8413655 h 23.34047 c 0.26726,0 0.48502,-0.2177652 0.48502,-0.4553273 V 0.52461616 c 0,-0.29695254 -0.21776,-0.47512407 -0.48502,-0.47512407"
     style="fill:#ffffff;stroke-width:0.0989842"
     id="path5" />
  <path
     class="st0"
     d="M 379.93098,62.706478 350.25552,7.0080799 c -1.70253,-3.2169858 -3.82079,-5.2857552 -5.99844,-6.31519064 -3.54363,-1.5936453 -7.33473,-0.39593672 -10.44283,3.56343044 -0.6434,0.7819751 -1.22741,1.7223248 -1.75202,2.7517602 L 302.09972,62.746072 c -0.13858,0.267257 0,0.524616 0.31675,0.524616 h 7.81975 c 0.23756,0 0.55431,-0.178172 0.68299,-0.405835 l 6.39438,-11.927594 0.01,-0.02969 c 0.20787,-0.405835 0.76218,-0.742382 1.21751,-0.742382 h 39.09875 c 0.43553,0 0.94035,0.31675 1.20761,0.702788 l 0.0198,0.05939 6.40428,11.937492 c 0.0891,0.227663 0.41573,0.405835 0.6632,0.405835 h 13.7093 c 0.34645,0.0099 0.43553,-0.287054 0.28706,-0.56421 M 353.38342,42.414721 H 322.827 c -0.53451,0 -0.74238,-0.366241 -0.51471,-0.81167 h 0.01 l 12.53139,-23.39986 c 1.78172,-3.266478 4.71165,-3.682212 6.51316,-0.405835 l 12.57099,23.894781 c 0.16828,0.395936 -0.0396,0.722584 -0.55431,0.722584"
     style="fill:#ffffff;stroke-width:0.0989842"
     id="path6" />
</svg>
