<?xml version="1.0" encoding="UTF-8" standalone="no"?>
<svg
   version="1.1"
   id="Layer_1"
   x="0px"
   y="0px"
   viewBox="0 0 380 153.13801"
   width="380"
   height="153.13802"
   xmlns="http://www.w3.org/2000/svg"
   xmlns:svg="http://www.w3.org/2000/svg">
  <defs
     id="defs12" />
  <style
     type="text/css"
     id="style1">
	.st0{fill:#2A4E78;}
</style>
  <path
     class="st0"
     d="m 80.86875,71.319271 c 3.889062,0 7.342708,1.504166 10.351042,4.5125 3.008333,3.008333 4.5125,6.175 4.5125,9.490104 0,7.827604 -4.364063,13.636458 -13.102084,17.416665 -8.73802,3.79011 -18.23802,5.68021 -28.5,5.68021 -14.725,0 -27.43125,-5.34375 -38.108854,-16.021354 C 5.34375,81.709896 0,69.013542 0,54.288542 0,39.514062 5.3932292,26.797917 16.179687,16.140104 26.966146,5.4822917 39.613021,0.15833333 54.130208,0.15833333 c 10.628125,0 20.217188,1.87031247 28.777084,5.60104167 8.559895,3.7307292 12.825,9.559375 12.825,17.495833 0,2.958854 -1.425,5.996875 -4.284896,9.133854 -2.859896,3.13698 -6.382813,4.700521 -10.588542,4.700521 -2.652083,0 -5.917708,-0.880729 -9.816667,-2.642187 -5.709895,-2.592709 -11.370312,-3.889063 -16.971354,-3.889063 -6.432291,0 -12.1125,2.384896 -17.010937,7.154688 -4.908334,4.769791 -7.352604,10.291666 -7.352604,16.565625 0,6.175 2.434375,11.667187 7.322916,16.486458 4.878646,4.819271 10.558854,7.233854 17.050521,7.233854 5.551563,0 11.211979,-1.326041 16.971354,-3.968229 3.948438,-1.810937 7.214063,-2.711458 9.816667,-2.711458 z"
     style="fill:#ffffff;stroke-width:0.0989583"
     id="path1" />
  <path
     class="st0"
     d="m 115.24687,91.843229 -3.37447,6.689583 c -3.16667,6.174998 -7.72865,9.252608 -13.695837,9.252608 -4.195834,0 -7.778126,-1.58334 -10.73698,-4.74011 -2.958854,-3.156768 -4.433333,-6.659893 -4.433333,-10.499477 0,-2.068229 0.306771,-3.780208 0.930208,-5.135937 L 119.24479,11.607812 c 1.50417,-3.2755203 3.62188,-5.848437 6.34323,-7.7187495 2.72135,-1.8703125 5.58125,-2.8104167 8.58958,-2.8104167 3.05782,0 5.9573,0.95 8.67865,2.8302084 2.72135,1.8901041 4.83906,4.4432291 6.34323,7.6494788 L 184.18125,87.4 c 0.67292,1.504167 1.00937,3.216146 1.00937,5.135937 0,3.889063 -1.45468,7.402084 -4.36406,10.539063 -2.90937,3.13698 -6.46198,4.70052 -10.65781,4.70052 -5.91771,0 -10.47969,-3.0875 -13.69583,-9.252603 l -3.55261,-6.689584 h -37.67344 z m 25.85782,-28.61875 -6.96667,-15.160417 -6.94687,15.160417 z"
     style="fill:#ffffff;stroke-width:0.0989583"
     id="path2" />
  <path
     class="st0"
     d="m 208.23802,31.963542 c 0,1.197395 0.39583,1.979166 1.20729,2.375 0.80156,0.385937 3.01823,0.880729 6.65,1.474479 3.63177,0.59375 7.09531,1.54375 10.42031,2.840104 3.31511,1.296354 6.74896,3.691146 10.30157,7.194271 3.5526,3.503125 6.20468,7.530729 7.96614,12.092708 1.76146,4.561979 2.64219,9.61875 2.64219,15.160417 0,8.817187 -3.59219,16.872396 -10.76667,24.185416 -7.17448,7.313023 -15.48698,10.974483 -24.9276,10.974483 -10.11354,0 -18.66354,-2.65209 -25.6599,-7.97605 -6.99635,-5.314058 -10.49948,-11.677078 -10.49948,-19.089058 0,-3.780208 1.47448,-7.085416 4.43334,-9.915625 2.95885,-2.820312 6.50156,-4.235416 10.65781,-4.235416 2.17708,0 4.21563,0.385937 6.10573,1.167708 1.8901,0.781771 4.21562,2.681771 6.96667,5.719792 2.75104,3.038021 5.26458,4.552083 7.54062,4.552083 4.45313,0 6.68958,-2.592708 6.68958,-7.778125 0,-3.473437 -3.93854,-5.808854 -11.82552,-6.996354 -8.24323,-1.197396 -14.84375,-4.740104 -19.79166,-10.657813 -4.94792,-5.907812 -7.42188,-13.191145 -7.42188,-21.85 0,-8.19375 3.04792,-15.407812 9.13386,-21.6619787 6.09583,-6.2442708 14.14114,-9.37135413 24.14583,-9.37135413 8.96562,0 15.56615,1.41510413 19.79167,4.23541663 4.22552,2.8302084 6.33333,7.2437502 6.33333,13.2604162 0,3.057813 -1.45469,6.05625 -4.35417,8.985417 -2.90937,2.929167 -6.35312,4.39375 -10.34114,4.39375 -1.34584,0 -3.30521,-0.376042 -5.86823,-1.128125 -2.56302,-0.752083 -4.73021,-1.128125 -6.49167,-1.128125 -0.62344,0 -1.28646,0.336458 -1.97917,1.009375 -0.7125,0.663021 -1.05885,1.385417 -1.05885,2.167188 z"
     style="fill:#ffffff;stroke-width:0.0989583"
     id="path3" />
  <path
     class="st0"
     d="m 275.99479,90.913021 c 0,4.928125 -1.39531,8.896354 -4.19583,11.894789 -2.80052,3.00834 -6.38281,4.5125 -10.73698,4.5125 -4.30469,0 -7.8375,-1.50416 -10.61823,-4.5125 -2.77083,-3.008331 -4.15625,-6.97656 -4.15625,-11.894789 V 17.654167 c 0,-4.928125 1.39531,-8.9161462 4.19583,-11.9739587 2.80052,-3.0578125 6.32344,-4.5916666 10.57865,-4.5916666 4.24531,0 7.80781,1.5338541 10.65781,4.5916666 2.85,3.0578125 4.275,7.0557287 4.275,11.9739587 z"
     style="fill:#ffffff;stroke-width:0.0989583"
     id="path4" />
  <path
     class="st0"
     d="m 325.83021,0 c 14.92291,0 27.67864,5.4328125 38.27708,16.288542 C 374.69583,27.154167 380,39.810937 380,54.278646 c 0,14.467708 -5.28438,27.104687 -15.85312,37.910937 -10.56876,10.806247 -23.33438,16.219267 -38.31667,16.219267 -14.92292,0 -27.66875,-5.40312 -38.2375,-16.219267 -10.56875,-10.816146 -15.85313,-23.443229 -15.85313,-37.901041 0,-14.467709 5.28438,-27.12448 15.85313,-37.990105 C 298.16146,5.4328125 310.90729,0 325.83021,0 Z m 0,78.622396 c 6.79844,0 12.5776,-2.414584 17.3276,-7.233854 4.75,-4.819271 7.125,-10.529167 7.125,-17.109896 0,-6.323438 -2.40469,-11.99375 -7.20416,-16.991146 -4.79948,-5.007292 -10.55886,-7.501042 -17.25834,-7.501042 -6.38281,0 -12.04323,2.49375 -16.98125,7.461459 -4.92812,4.977604 -7.40208,10.657812 -7.40208,17.030729 0,6.53125 2.375,12.221354 7.125,17.070312 4.76979,4.858854 10.51927,7.273438 17.26823,7.273438 z"
     style="fill:#ffffff;stroke-width:0.0989583"
     id="path5" />
  <path
     class="st0"
     d="m 184.32969,146.94323 c 0,1.86042 -0.52448,3.35469 -1.58334,4.49271 -1.04895,1.13802 -2.39479,1.70208 -4.00781,1.70208 -1.61302,0 -2.95885,-0.56406 -4.0276,-1.70208 -1.05886,-1.13802 -1.59323,-2.63229 -1.59323,-4.49271 v -18.2875 c -1.64271,0.45521 -2.60261,0.67292 -2.87969,0.67292 -1.1776,0 -2.31562,-0.51459 -3.43385,-1.55365 -1.11823,-1.03906 -1.6724,-2.23646 -1.6724,-3.61198 0,-2.32552 0.67292,-3.92865 2.01875,-4.80937 l 8.41146,-5.40313 c 0.90052,-0.60365 1.84062,-0.91042 2.81042,-0.91042 1.78125,0 3.21614,0.55417 4.30468,1.6724 1.09844,1.11823 1.64271,2.29583 1.64271,3.5526 v 28.67813 z"
     style="fill:#ffffff;stroke-width:0.0989583"
     id="path6" />
  <path
     class="st0"
     d="m 201.70677,113.0401 c 5.67031,0 10.49948,2.01875 14.46771,6.04636 3.96823,4.0276 5.95729,8.70833 5.95729,14.03229 0,5.30417 -1.98906,9.9651 -5.95729,13.98281 -3.97813,4.01771 -8.7974,6.02656 -14.46771,6.02656 -5.67031,0 -10.49948,-2.00885 -14.46771,-6.02656 -3.96823,-4.01771 -5.95729,-8.67864 -5.95729,-13.98281 0,-5.32396 1.97917,-9.99479 5.9474,-14.03229 3.95833,-4.02761 8.7875,-6.04636 14.4776,-6.04636 z m 0,29.02448 c 2.49375,0 4.65104,-0.88073 6.48177,-2.64218 1.82083,-1.76146 2.74115,-3.85938 2.74115,-6.31355 0,-2.50364 -0.91042,-4.63125 -2.72136,-6.38281 -1.81093,-1.75156 -3.97812,-2.62239 -6.49166,-2.62239 -2.65209,0 -4.84896,0.89062 -6.59063,2.68177 -1.75156,1.79114 -2.62239,3.89895 -2.62239,6.32343 0,2.46407 0.90052,4.57188 2.71145,6.32344 1.79115,1.76146 3.95834,2.63229 6.49167,2.63229 z"
     style="fill:#ffffff;stroke-width:0.0989583"
     id="path7" />
  <path
     class="st0"
     d="m 238.54896,113.0401 c 5.67031,0 10.49948,2.01875 14.46771,6.04636 3.96823,4.0276 5.95729,8.70833 5.95729,14.03229 0,5.30417 -1.98906,9.9651 -5.95729,13.98281 -3.97813,4.01771 -8.7974,6.02656 -14.46771,6.02656 -5.67031,0 -10.49948,-2.00885 -14.46771,-6.02656 -3.96823,-4.01771 -5.95729,-8.67864 -5.95729,-13.98281 0,-5.32396 1.97916,-9.99479 5.94739,-14.03229 3.95834,-4.02761 8.7875,-6.04636 14.47761,-6.04636 z m 0,29.02448 c 2.49375,0 4.65104,-0.88073 6.48177,-2.64218 1.82083,-1.76146 2.74114,-3.85938 2.74114,-6.31355 0,-2.50364 -0.91041,-4.63125 -2.72135,-6.38281 -1.81094,-1.75156 -3.97812,-2.62239 -6.49167,-2.62239 -2.65208,0 -4.84895,0.89062 -6.59062,2.68177 -1.75156,1.79114 -2.6224,3.89895 -2.6224,6.32343 0,2.46407 0.90052,4.57188 2.71146,6.32344 1.79115,1.76146 3.95833,2.63229 6.49167,2.63229 z"
     style="fill:#ffffff;stroke-width:0.0989583"
     id="path8" />
  <path
     class="st0"
     d="m 275.39115,113.0401 c 5.67031,0 10.49947,2.01875 14.4677,6.04636 3.96823,4.0276 5.9573,8.70833 5.9573,14.03229 0,5.30417 -1.98907,9.9651 -5.9573,13.98281 -3.97812,4.01771 -8.79739,6.02656 -14.4677,6.02656 -5.67032,0 -10.49948,-2.00885 -14.46771,-6.02656 -3.96823,-4.01771 -5.95729,-8.67864 -5.95729,-13.98281 0,-5.32396 1.97916,-9.99479 5.94739,-14.03229 3.95833,-4.02761 8.77761,-6.04636 14.47761,-6.04636 z m 0,29.02448 c 2.49375,0 4.65104,-0.88073 6.48177,-2.64218 1.82083,-1.76146 2.74114,-3.85938 2.74114,-6.31355 0,-2.50364 -0.91041,-4.63125 -2.72135,-6.38281 -1.81094,-1.75156 -3.97813,-2.62239 -6.49167,-2.62239 -2.65208,0 -4.84896,0.89062 -6.59062,2.68177 -1.75157,1.79114 -2.6224,3.89895 -2.6224,6.32343 0,2.46407 0.90052,4.57188 2.71146,6.32344 1.79114,1.76146 3.95833,2.63229 6.49167,2.63229 z"
     style="fill:#ffffff;stroke-width:0.0989583"
     id="path9" />
  <path
     class="st0"
     d="m 93.871875,137.5224 v 9.42083 c 0,1.86042 -0.524479,3.35469 -1.583333,4.49271 -1.058855,1.13802 -2.404688,1.70208 -4.047396,1.70208 -1.622917,0 -2.958854,-0.56406 -4.007813,-1.70208 -1.048958,-1.13802 -1.573437,-2.63229 -1.573437,-4.49271 v -28.78698 c 0,-1.36563 0.573958,-2.56302 1.711979,-3.58229 C 85.519792,113.55469 86.925,113.05 88.5875,113.05 h 9.015104 c 3.681246,0 6.669796,1.1875 8.985416,3.5526 2.30573,2.36511 3.46354,5.29427 3.46354,8.77761 0,2.91927 -1.10833,5.67031 -3.33489,8.26302 -2.21667,2.59271 -4.66094,3.88906 -7.32292,3.88906 h -5.521875 z m 0,-10.42032 h 3.908854 c 0.484896,0 0.890625,-0.18802 1.207292,-0.55416 0.306771,-0.37605 0.465104,-0.78177 0.465104,-1.23698 0,-0.44532 -0.158333,-0.86094 -0.465104,-1.24688 -0.316667,-0.38594 -0.7125,-0.57396 -1.207292,-0.57396 h -3.908854 z"
     style="fill:#ffffff;stroke-width:0.0989583"
     id="path10" />
  <path
     class="st0"
     d="m 126.41927,135.40469 8.34219,-19.02969 c 0.43541,-0.9401 1.08854,-1.73177 1.95937,-2.375 0.88073,-0.63333 1.75157,-0.9599 2.60261,-0.9599 1.94948,0 3.48333,0.53438 4.61146,1.60313 1.12812,1.06875 1.68229,2.39479 1.68229,3.97812 0,0.76198 -0.12865,1.40521 -0.38594,1.93959 l -13.3,28.66823 c -0.56406,1.23698 -1.35573,2.19687 -2.375,2.87968 -1.00938,0.68282 -2.10781,1.02917 -3.27552,1.02917 -1.06875,0 -2.11771,-0.35625 -3.14688,-1.05885 -1.01927,-0.70261 -1.81093,-1.65261 -2.3552,-2.85 l -13.3198,-28.66823 c -0.2276,-0.58386 -0.34635,-1.23698 -0.34635,-1.93959 0,-1.4052 0.50469,-2.69166 1.52396,-3.84948 1.01927,-1.15781 2.29583,-1.73177 3.81979,-1.73177 2.72135,0 4.57187,1.10834 5.55156,3.31511 z"
     style="fill:#ffffff;stroke-width:0.0989583"
     id="path11" />
  <path
     class="st0"
     d="m 142.90573,133.83125 c 0,-3.05781 2.47396,-5.53177 5.53177,-5.53177 h 9.5 c 3.05781,0 5.53177,2.47396 5.53177,5.53177 0,3.05781 -2.47396,5.53177 -5.53177,5.53177 h -9.5 c -3.05781,0 -5.53177,-2.47396 -5.53177,-5.53177 z"
     style="fill:#ffffff;stroke-width:0.0989583"
     id="path12" />
</svg>
