<?xml version="1.0" encoding="UTF-8" standalone="no"?>
<svg
   width="379.99814"
   height="77.358002"
   viewBox="0 0 379.99812 77.358002"
   version="1.1"
   style="clip-rule:evenodd;fill-rule:evenodd;stroke-linecap:round;stroke-linejoin:round;stroke-miterlimit:1.5"
   id="svg2"
   xmlns="http://www.w3.org/2000/svg"
   xmlns:svg="http://www.w3.org/2000/svg">
  <defs
     id="defs2" />
  <path
     d="M 0.78390769,25.523658 C 0.08853148,24.946693 -0.2074968,24.234774 0.15905586,19.162823 0.27340404,17.578201 0.52938143,15.645891 0.92698802,14.084487 3.4200105,4.2958185 13.630955,-0.14721755 31.347086,0.84795984 49.92257,1.8916046 58.851015,6.7789733 60.823956,15.173697 c 0.374969,1.59507 0.273681,2.926907 0.277454,4.530394 8.7e-4,0.313441 -0.103029,1.47927 -0.09636,3.458016 0.0038,1.044226 0.03076,2.403343 0.03947,2.544682 -0.282388,0.08068 -1.942178,1.198914 -2.352845,1.113299 -0.410956,-0.08562 -1.256087,-0.559552 -1.877747,-1.053803 -2.110508,-1.677203 -5.474491,-0.679995 -7.507509,2.225436 -2.267228,3.240059 -4.278479,2.490991 -5.166274,-1.924184 -0.165718,-0.823945 -2.398119,-1.70013 -2.398119,-2.232982 0,-1.910543 -2.531333,-3.959813 -3.230772,-4.313886 -2.084387,-1.054093 -4.848769,-1.680106 -7.557428,-1.444444 -4.318239,0.374969 -8.956306,3.47427 -8.956306,10.4913 0,1.85395 -2.612885,-2.38622 -2.392895,-3.000043 0.270489,-0.754291 -0.808564,-0.316635 -1.859464,0.754291 -1.424128,1.450829 -4.683341,3.581362 -5.184848,3.389234 -0.851517,-0.327082 -0.09984,-2.752773 1.263345,-4.077064 1.330095,-1.291206 0.969927,-1.99616 -0.549105,-1.075279 -0.528497,0.320407 -1.77791,0.875895 -2.77657,1.235193 -1.3086197,0.470161 -2.0498512,0.94758 -2.652646,1.708837 -1.6478908,2.080614 -6.6623775,1.133034 -6.6623775,-1.259282 0,-0.213603 -0.1793584,-0.537494 -0.39905781,-0.719754 z M 24.89425,75.669977 C 22.047154,77.342246 17.376002,77.560204 12.735034,77.223545 10.561258,77.065663 5.901424,75.874875 5.2408746,74.243527 4.192296,71.67998 2.5150927,63.992822 1.5826036,56.574412 1.1942842,53.700035 1.5123694,53.298075 2.1340289,52.482546 3.4934371,50.773418 6.5227931,48.404031 7.377212,48.404031 c 0.5049894,0 1.4371882,0.50528 2.1363373,1.165539 1.8643987,1.708838 2.7965967,1.786618 4.9326447,0.54388 1.009978,-0.58306 1.903287,-1.281919 2.019667,-1.553859 0.11667,-0.310829 0.4275,-0.543589 0.699149,-0.543589 0.233049,0 0.776929,-0.349719 1.165539,-0.776929 0.931908,-1.048579 2.757416,-1.009979 3.301295,0.0386 0.27165,0.4275 0.388319,1.514968 0.31083,2.408277 l -0.11667,1.631348 1.903288,-0.03889 c 1.398008,0 2.019377,-0.19416 2.524366,-0.815529 0.699149,-0.893309 2.019957,-1.670238 2.913267,-1.670238 0.31083,0 0.776638,0.621369 1.048578,1.359408 0.582479,1.592459 1.009689,1.553859 3.651016,-0.233049 2.563256,-1.708838 4.194894,-1.359409 4.622104,1.009979 0.27165,1.320518 0.31054,1.359408 2.174937,1.359408 1.747728,0 2.058557,-0.15556 3.689905,-1.708838 1.708838,-1.670238 3.146027,-2.485766 3.572945,-2.019958 0.116671,0.116671 0.31083,0.77693 0.46639,1.476079 0.19416,0.893309 0.50499,1.320518 1.203848,1.475788 l 1.042194,0.348558 c 0,0 -0.581899,0.400219 -1.28395,0.716854 -1.068604,0.48177 -2.434107,0.959189 -2.59344,1.032035 -2.214117,1.009978 -6.602881,1.669947 -11.768575,1.747728 -6.602881,0.116669 -8.583949,0.861384 -10.059737,2.330496 -0.112027,0.71163 0.42721,3.340187 1.204139,6.486212 0.776928,3.185207 1.398007,6.447612 1.437188,7.224542 0.07749,1.631057 -0.932489,3.262405 -2.680217,4.272094 z M 12.248039,77.037511 C 8.9467422,76.610592 6.5384651,75.833663 5.6843365,74.862574 4.285748,73.270116 1.9555412,61.889861 1.1786121,52.723432 1.0230522,51.247644 0.8680726,49.927126 0.79029262,49.810746 0.40197318,49.189087 0.01336351,38.43049 0.01336351,29.031013 c 0,-10.953046 -0.71859412,-18.78967 8.38311449,-24.5778932 3.693098,-2.3496519 12.287786,-4.43781203 25.390229,-3.383429 14.089205,1.1341946 20.486608,4.6183312 23.011555,7.2204778 2.330206,2.4079874 2.785568,3.1245504 4.025404,6.8832384 0.472484,1.431383 0.136115,7.439596 0.2078,10.181921 0.06414,2.421047 0.26033,4.840643 0,7.24892 -0.304155,2.816041 -0.698859,5.243473 -2.058267,9.632238 -0.660259,2.097447 -3.456856,5.748462 -6.097892,7.84591 -0.89331,0.699148 -1.786908,1.437188 -2.019668,1.631058 -0.971379,0.776928 -4.233784,2.058847 -7.069271,2.757996 -1.941888,0.4661 -6.348356,0.889246 -9.218089,0.917978 -2.759737,0.02728 -6.366058,0.32447 -7.906566,0.898242 -0.692184,0.257429 -1.219231,0.547072 -1.700711,1.326904 -0.145112,0.235661 0.112896,1.603196 0.227535,2.144754 0.348559,1.645569 0.49338,2.539168 0.804791,3.794095 0.587703,2.368517 2.065523,8.06474 1.212265,9.73962 -1.538768,3.02065 -5.402807,3.744468 -8.626613,3.900028 -2.097157,0.07749 -4.932643,0 -6.330941,-0.15556 z M 34.65912,37.342732 c 4.427654,-1.631348 7.107581,-6.097892 7.107581,-11.807465 0,-2.602146 -0.07778,-2.874087 -1.359408,-4.350165 -1.631058,-1.903287 -3.767396,-2.835196 -7.224252,-3.107135 -6.563991,-0.54388 -10.758886,3.146025 -11.147205,9.865287 -0.15527,2.485767 -0.0386,3.029646 0.854709,4.544615 2.446877,4.194604 7.72895,6.369541 11.768575,4.854863 z"
     style="fill:#ffffff;fill-rule:nonzero;stroke-width:0.290224"
     id="path1" />
  <path
     d="m 61.207632,26.23993 c -0.02148,-0.20838 -0.0386,-0.424597 -0.0505,-0.647489 -0.238855,-4.546066 0.01393,-11.543071 0.01393,-11.873056 0,-1.359408 1.087178,-4.4276541 2.252717,-6.2534519 1.087469,-1.7866177 5.165693,-4.660704 7.53508,-5.3595629 0.776929,-0.2330497 5.592903,-0.9710888 7.302031,-0.1944499 2.174937,0.9710888 3.340185,2.0585573 4.349874,4.000735 0.932199,1.8255077 0.776929,3.4179656 -0.893308,8.7775287 -0.62137,2.019958 -1.126359,3.962135 -1.126359,4.311565 0,0.970798 1.825507,2.990465 3.456855,3.806575 4.000445,2.019377 11.651906,1.786328 15.225431,-0.427499 1.903297,-1.126359 3.068247,-2.718817 3.068247,-4.039336 0,-0.388609 -0.62136,-1.981067 -1.3594,-3.534345 -1.786627,-3.573525 -2.097166,-6.0592925 -1.009697,-7.7681301 1.708847,-2.7191068 8.117567,-6.56428186 11.613017,-6.99149128 3.7288,-0.42691922 7.18565,2.01966738 10.40946,7.45759068 1.74773,2.8740867 4.44478,9.0108677 4.44478,10.8363757 0.0189,0.651553 0.5105,9.461297 0.5105,9.461297 0,0 -2.50927,2.173485 -3.18666,2.493021 -1.16583,0.549395 -1.77471,-0.126247 -2.23472,-1.50597 -0.69915,-2.136048 -1.63106,-2.951867 -3.65072,-3.184916 -1.47608,-0.155271 -1.82551,-0.03889 -2.83549,0.932198 -1.43719,1.398299 -3.06853,2.447168 -3.84518,2.447168 -1.08746,0 -2.17523,-1.631639 -2.17523,-3.185206 0,-0.815529 -0.19387,-1.475789 -0.42721,-1.475789 -0.19387,0 -1.20384,0.62137 -2.17493,1.359118 -2.05856,1.592458 -2.64103,1.670238 -3.84518,0.54388 l -0.8933,-0.815529 -1.63135,1.786618 c -1.903005,2.097156 -3.689914,2.446877 -4.777382,0.932198 -0.31083,-0.504989 -1.009978,-1.398008 -1.514678,-1.981067 -0.932489,-1.087179 -0.932489,-1.087179 -2.408277,-0.5047 -0.815529,0.34943 -1.747727,0.9708 -2.019667,1.437188 -0.4661,0.65997 -0.932199,0.73775 -3.107137,0.65997 -2.019667,-0.07749 -2.602146,0.03918 -2.874375,0.582769 -0.66026,1.126359 -1.553279,0.73804 -4.116825,-1.709127 -2.835196,-2.718817 -3.379076,-2.757417 -5.554013,-0.349431 -1.359699,1.475789 -3.379076,2.719108 -4.389055,2.719108 -0.27194,0 -1.048869,-0.58306 -1.748017,-1.243319 -1.825218,-1.941887 -3.650725,-2.796306 -5.282363,-2.485767 -0.691024,0.131762 -1.1014,0.388609 -1.1014,0.388609 0,0 0.04702,0.485545 0.0505,0.59612 z m 2.043176,24.072904 c 0.02031,-0.03512 2.307568,-1.591007 3.396779,-1.326033 0.543879,0.11638 1.825507,1.048578 2.835196,2.019667 1.670238,1.670238 1.864688,1.748018 2.991046,1.359409 0.66026,-0.23305 2.019667,-1.048579 2.990467,-1.786619 2.214117,-1.709127 3.223806,-1.747727 4.350164,-0.233048 0.50499,0.660258 1.087759,1.164958 1.320809,1.164958 0.271649,0 1.126358,0.466389 1.941887,1.009978 1.981067,1.398299 4.156004,1.748018 7.88451,1.281918 5.126803,-0.621658 5.593192,-0.738039 6.563992,-1.631347 0.543879,-0.4661 1.514967,-1.281628 2.175227,-1.825507 0.699145,-0.543881 1.941895,-1.553569 2.796305,-2.214119 2.2919,-1.902706 4.58322,-1.631058 4.58322,0.50528 0,0.46581 0.15527,0.931909 0.38832,1.009689 0.19416,0.07778 0.42721,0.504699 0.50499,0.971089 0.23305,1.553568 1.04857,2.097157 2.95186,2.019377 2.13634,-0.11638 2.75771,-0.42692 5.24348,-2.602147 3.06853,-2.679636 4.54432,-2.563256 5.16598,0.42721 0.23305,1.165538 1.4369,2.214117 2.56326,2.214117 0.30967,0 0.68,0.213024 0.84164,0.477709 0.44463,-0.179649 0.8701,0.198223 0.84978,0.280936 -0.73717,3.020069 -1.69258,5.888641 -2.77919,8.251934 -2.13604,4.738483 -2.40797,5.126802 -4.97152,7.535079 -6.0979,5.631794 -12.85605,8.001181 -22.79941,8.001181 -12.545213,0 -23.26521,-3.961846 -29.868092,-10.991937 -3.068246,-3.301296 -4.156004,-5.981512 -3.884064,-9.710017 0.145982,-2.111088 0.88315,-4.303729 1.963364,-6.208757 z M 62.115451,29.71565 c -0.06356,-0.106802 -0.83178,-1.714351 -0.958028,-4.123209 -0.238854,-4.545775 0.01364,-11.542781 0.01364,-11.873056 0,-1.359408 1.087469,-4.4276541 2.252717,-6.2534519 1.087759,-1.7863275 5.165693,-4.660704 7.53508,-5.3595629 0.776929,-0.2330497 5.593193,-0.9710888 7.302031,-0.1944499 2.174937,0.9710888 3.340185,2.0585573 4.349874,4.000735 0.93249,1.8255077 0.776929,3.4179656 -0.893308,8.7778187 -0.62137,2.019958 -1.126359,3.961845 -1.126359,4.311275 0,0.971088 1.825797,2.990465 3.456855,3.806575 4.000735,2.019667 11.652196,1.786618 15.225431,-0.427499 1.903296,-1.126359 3.068536,-2.718817 3.068536,-4.039336 0,-0.388319 -0.62165,-1.981067 -1.35969,-3.534345 -1.786336,-3.573525 -2.097165,-6.0592925 -1.009696,-7.7681301 1.709136,-2.7188166 8.117856,-6.56428186 11.613306,-6.99120107 3.7288,-0.42720943 7.18536,2.01966737 10.40917,7.45730047 1.74802,2.8740867 4.44478,9.0108677 4.44478,10.8363757 0.0389,1.359409 1.27321,22.339687 1.11794,22.339687 -0.11638,0 -0.35814,1.469403 -0.47481,3.256021 -0.38803,6.020402 -2.05827,12.933823 -4.27239,17.750088 -2.13604,4.738483 -2.40797,5.126802 -4.97152,7.535079 -6.0979,5.631794 -12.85605,8.001181 -22.79912,8.001181 -12.545504,0 -23.265501,-3.961556 -29.868093,-10.991937 -3.068536,-3.301296 -4.156004,-5.981512 -3.884354,-9.710017 0.349719,-5.049314 4.078224,-10.564727 7.80702,-11.496635 2.641326,-0.66055 7.41841,0.19416 9.943357,1.786617 1.126358,0.69915 2.679637,2.446877 2.718526,3.029647 0,0.893309 2.446877,3.262405 3.767396,3.728505 3.612125,1.165248 11.574705,-1.087469 14.720738,-4.156005 3.18491,-3.146026 3.49546,-5.243473 1.04858,-6.486502 -2.213836,-1.126358 -4.116834,-1.087178 -9.904186,0.15556 -6.408721,1.359409 -9.943067,1.514678 -14.642952,0.582769 -6.641771,-1.281918 -9.710017,-3.612125 -12.661883,-9.671418 -0.971088,-1.981067 -1.921282,-4.200118 -1.968588,-4.278479 z"
     style="fill:#ffffff;fill-rule:nonzero;stroke-width:0.290224"
     id="path2" />
  <path
     id="g-mid"
     d="m 127.56295,40.684659 c -0.11638,0 -0.98443,-13.021181 -0.98443,-13.021181 l -0.15556,-4.466544 c -0.23305,-5.593193 0.15556,-8.50617 1.47607,-10.409167 0.5436,-0.815819 1.4369,-2.330497 1.98078,-3.4179658 1.20414,-2.4082772 2.95186,-4.2726748 4.97153,-5.3601434 2.40828,-1.2816283 9.43837,-1.1652485 17.08983,0.3108298 3.2238,0.6213691 6.60289,1.1263585 7.57397,1.1263585 1.63106,0.03889 1.74773,-0.03889 1.74773,-1.0099788 0,-1.553568 0.97109,-2.2527172 3.72851,-2.6410366 2.87437,-0.4272094 6.09818,0.1163798 7.30203,1.2041386 1.16524,1.1263585 3.02964,8.0786697 4.07822,15.4970807 2.71882,19.303655 1.63135,42.258326 -2.33021,50.182016 -1.90328,3.728505 -7.49618,6.991201 -13.74964,7.962 -5.35985,0.815819 -15.8468,0.504989 -19.80864,-0.66026 -5.43764,-1.553567 -8.93309,-4.311274 -11.06943,-8.700038 -1.82551,-3.806576 -2.40799,-7.690351 -1.82551,-12.079405 0.58277,-4.544324 1.28192,-5.903732 3.34018,-6.447612 2.29161,-0.660259 5.20488,-0.815529 7.22455,-0.38832 0.97079,0.23305 2.56326,0.50499 3.57323,0.62137 1.3983,0.194159 2.21383,0.582769 3.2627,1.592457 1.39801,1.320519 1.4369,1.359409 1.20385,3.689906 -0.31054,2.602437 0.23305,4.350165 1.70913,5.748463 1.08746,1.009689 3.02936,1.048579 6.09789,0.19416 4.35017,-1.243029 6.68037,-2.912977 7.9234,-5.631793 0.97109,-2.214117 1.63134,-7.8848 1.28162,-11.108316 l -0.31053,-2.641327 -0.4661,1.320518 c -0.54388,1.631349 -1.8644,2.680217 -3.92295,3.146026 -2.91298,0.66055 -13.24466,1.243029 -19.57561,1.087759 -7.84561,-0.15556 -8.85559,-0.504989 -10.40915,-3.689905 -0.54389,-1.126359 -0.80219,-2.01009 -0.95746,-2.01009 z m 27.25231,-9.564326 c 4.6221,-2.369387 5.20458,-11.574414 0.97109,-14.9146 -2.05856,-1.631348 -8.93338,-0.85471 -10.64222,1.203848 -1.04887,1.281919 -1.90329,3.961846 -2.17523,6.913711 -0.38831,4.039335 1.00998,6.136783 4.89405,7.41841 1.39829,0.4661 5.5929,0.116671 6.95231,-0.621369 z m 7.41435,23.242864 c 0.35175,-0.68609 0.69799,-0.909562 1.32486,-0.909562 0.73805,0 1.63135,-0.776929 3.72822,-3.262696 1.51526,-1.786618 3.02994,-3.379075 3.34077,-3.495745 1.47579,-0.58248 2.05798,-0.23305 2.52408,1.437187 0.66025,2.524658 1.78662,4.156006 2.91297,4.156006 0.10187,0 0.19271,0.0023 0.27397,0.0093 0.72934,-0.612663 1.15015,-0.586252 1.02159,0.85529 -0.60511,6.78311 -1.73032,12.356568 -3.31523,15.526102 -1.9027,3.728505 -7.4956,6.991201 -13.74935,7.962 -2.16652,0.329984 -5.17179,0.475676 -8.24497,0.45507 -0.43795,0.01654 -0.80537,0.02119 -1.07644,0.01103 -0.15642,-0.0084 -0.37467,-0.02206 -0.6382,-0.03976 -3.95546,-0.105062 -7.78612,-0.479741 -9.84874,-1.086599 -5.43764,-1.553567 -8.93309,-4.311274 -11.06943,-8.700038 -1.82551,-3.806576 -2.40799,-7.690351 -1.82551,-12.079405 0.0691,-0.538656 0.1396,-1.032326 0.21419,-1.485946 0.0496,-0.300672 1.1992,-0.296609 1.43515,-0.445494 0.45943,-0.290223 1.27612,-0.854999 1.96279,-1.486526 2.83549,-2.679926 4.07822,-3.456856 5.43735,-3.301585 1.2822,0.116669 1.70941,0.582769 2.05884,2.330496 0.27193,1.281919 1.82551,1.864398 5.0882,1.864398 l 2.51537,0.03918 c 0,0 -0.003,0.291675 -0.025,0.623111 -0.0241,0.36394 -0.0673,0.777509 -0.0824,0.930167 -0.31112,2.602437 0.23305,4.350165 1.70855,5.748463 1.08804,1.009689 3.02994,1.048579 6.09847,0.19416 4.35017,-1.243029 6.68037,-2.912977 7.9234,-5.631793 0.0641,-0.146854 0.16775,-0.213314 0.30648,-0.216797 z m -3.67772,-29.487609 c 0,0 0.72207,-6.076706 -2.74117,-8.62487 -2.84157,-2.134307 -9.72975,-0.139018 -10.68256,1.141449 -1.87745,2.523497 -2.05971,7.158951 -2.19728,7.3653 0,0 -2.61955,1.936083 -3.47427,3.606321 -1.32051,2.641037 -3.25834,2.717656 -3.9186,0.03773 -0.11638,-0.50499 -1.03667,-1.165248 -1.81302,-1.514678 -0.69916,-0.310829 -1.45693,-1.142901 -1.72916,-1.49233 -0.73746,-0.89331 -1.33909,-0.449847 -3.47542,1.29788 l -1.88415,1.332998 -0.0578,-0.361909 -0.15556,-4.466544 c -0.23305,-5.593193 0.15556,-8.50617 1.47607,-10.409167 0.5436,-0.815819 1.4369,-2.330497 1.98049,-3.4179658 1.20443,-2.4082772 2.95215,-4.2726748 4.97182,-5.3601434 2.40828,-1.2816283 9.43837,-1.1652485 17.08983,0.3108298 3.2238,0.6213691 6.60289,1.1263585 7.57339,1.1263585 1.63164,0.03889 1.74831,-0.03889 1.74831,-1.0099788 0,-1.553568 0.97109,-2.2527172 3.72851,-2.6410366 2.87437,-0.4272094 6.09818,0.1163798 7.30203,1.2041386 1.16524,1.1263585 3.02964,8.0786697 4.07822,15.4970807 0.50964,3.619671 0.88577,7.36733 1.1339,11.120215 -0.10767,-1.230549 -0.24755,-1.949434 -0.4182,-1.923894 -1.70914,0.194159 -2.96842,0.009 -3.9781,-1.117361 l -1.12636,-1.204139 c 0,0 -1.49669,1.58201 -3.24441,1.838858 -1.04743,0.153819 -2.58213,-0.906659 -2.58213,-0.906659 -0.60715,0.29864 -0.74326,1.084856 -1.2317,1.515839 -1.60408,1.417453 -2.18597,2.290445 -3.8948,-0.97196 -0.91973,-3.926728 -1.99268,-3.360211 -2.47794,-1.972361"
     style="fill:#ffffff;fill-rule:nonzero;stroke-width:0.290224" />
  <path
     id="a-mid"
     d="m 208.84216,77.107164 c -3.68961,-0.388319 -8.93309,-1.592457 -11.84606,-2.757416 -11.14721,-4.350163 -17.20651,-10.059736 -18.44924,-17.439547 -1.00998,-5.864843 0.54359,-10.448057 5.78706,-17.400368 1.51497,-1.980777 5.86484,-5.282363 9.04976,-6.835931 2.44716,-1.204139 3.34048,-1.437188 6.60288,-1.631348 3.61242,-0.19416 3.92295,-0.15527 6.99149,1.009979 1.78662,0.699148 4.19461,1.786617 5.43763,2.407986 1.20386,0.62137 2.95187,1.243029 3.88407,1.359408 1.55356,0.23305 1.78661,0.116671 3.41797,-1.320517 1.66995,-1.475789 1.74773,-1.631348 1.70884,-3.651016 -0.0389,-1.165248 -0.34944,-2.718817 -0.69916,-3.456856 -0.81553,-1.708838 -4.11711,-5.398743 -6.02011,-6.719261 -1.43718,-1.009979 -1.63134,-1.048579 -3.76768,-0.660259 -1.24274,0.233049 -2.95187,0.776638 -3.80629,1.242738 -1.8255,0.932198 -4.24017,3.068536 -5.67068,4.233785 -1.03668,0.844261 -1.32052,1.398298 -2.91298,2.757707 -2.44688,2.097156 -3.30158,2.563256 -5.16598,2.951866 -2.25271,0.427209 -5.51513,0.155269 -6.9912,-0.62166 -2.56326,-1.398298 -4.07823,-5.165693 -4.11712,-10.331387 -0.0386,-2.019667 0.11667,-2.563546 1.24303,-4.194894 2.05855,-2.951867 4.27238,-4.738484 8.42839,-6.8359318 4.07822,-2.0585574 10.08847,-4.1609385 12.81716,-4.8548637 1.01345,-0.2580089 3.61386,-0.885763 5.43762,-1.2041385 8.87012,-1.5480537 13.94381,-0.5824792 16.85679,1.7866177 0.8933,0.7380391 2.3305,2.2527171 3.18491,3.3790756 1.8644,2.4471677 4.05355,5.6172817 5.39875,8.7781097 1.48275,3.482685 2.60243,7.534789 3.49574,12.118004 0.73804,3.845175 0.81553,5.399033 0.66026,13.399923 -0.15527,9.826687 -0.34943,11.302766 -2.60215,17.866757 -1.94217,5.554013 -3.34047,8.00089 -6.36983,11.069426 -4.31128,4.311275 -7.18565,5.476523 -14.21574,5.748462 -2.44688,0.116381 -5.94262,0.0386 -7.76813,-0.19445 z M 207.1934,59.871935 c 3.01223,1.087178 6.05755,1.165829 7.82414,0.409215 0.61354,-0.262943 1.26799,-1.025941 1.67953,-2.589087 0.0786,-0.29893 0.0392,-0.543298 0.0313,-0.618176 -0.1425,-1.401781 -1.22938,-3.049382 -3.29984,-4.880694 -4.1949,-3.767685 -7.68978,-4.103474 -10.79691,-1.229388 -1.38349,1.276985 -1.93173,2.348782 -1.85134,3.375013 0.0369,0.471323 0.24815,1.026812 0.50122,1.481593 1.13797,2.043755 3.01571,3.005847 5.91186,4.051524 z m 1.64876,17.235229 c -3.68961,-0.388319 -8.93309,-1.592457 -11.84606,-2.757416 -11.14721,-4.350163 -17.20651,-10.059736 -18.44924,-17.439547 -0.33376,-1.937534 -0.12073,-5.524991 -0.12073,-5.524991 0,0 0.6353,0.879668 2.998,-2.056235 2.35749,-2.93039 3.934,3.597614 6.62698,3.652176 1.00795,0.02061 3.53956,0.271649 7.51476,-3.996092 1.68301,-1.806933 4.01234,-1.09008 3.84547,0.617306 -0.29864,3.063893 1.34548,4.734421 1.34548,4.734421 0,0 0.38251,2.106154 1.97787,3.276047 2.50928,1.840309 7.17694,3.81354 11.68325,2.890338 1.50335,-0.307637 2.08729,-1.904158 2.27738,-2.896143 0.29952,-1.557922 -1.53412,-3.648113 -1.53412,-3.648113 0,0 1.4636,0.300671 2.79021,-0.438528 1.96772,-1.096176 4.23146,-5.266401 6.9677,-8.070253 2.20686,-2.260553 5.18049,0.896791 4.48134,4.060811 -0.1245,0.563034 1.32168,2.320629 1.75005,2.389413 0.44927,0.07169 2.23821,-2.134597 4.43724,-2.684281 2.30408,-0.575803 3.98825,0.639364 3.97113,0.885474 -0.26846,3.871005 -0.85384,5.984704 -2.36301,10.382175 -1.94217,5.554013 -3.34047,8.00089 -6.36983,11.069426 -4.31128,4.311275 -7.18565,5.476523 -14.21574,5.748462 -2.44688,0.116381 -5.94262,0.0386 -7.76813,-0.19445 z m 25.58932,-50.515192 c -1.25754,1.158863 -2.38709,4.406758 -3.90844,4.741676 -0.50616,0.111446 -1.26828,-1.523675 -1.42935,-1.816801 -0.98764,-1.794164 -1.93144,-4.632262 -5.35492,-4.204472 -1.51062,0.188936 -1.4845,1.575625 -1.8969,1.949433 -0.64749,0.587994 -1.08312,0.195901 -1.11447,0.12973 -0.81553,-1.708838 -4.11711,-5.398743 -6.02011,-6.719261 -1.43718,-1.009979 -1.63134,-1.048579 -3.76768,-0.660259 -1.24274,0.233049 -2.95187,0.776638 -3.80629,1.242738 -1.8255,0.932198 -5.67068,4.233785 -5.67068,4.233785 0,0 -1.13333,-0.599312 -3.29491,1.032616 -1.34461,1.015783 -1.6389,0.300672 -2.34734,0.657647 -0.49946,0.251625 -0.85586,1.364342 -1.79155,1.559373 -0.43214,0.08213 -1.03812,-1.045967 -1.968,-1.106623 -1.13332,-0.07343 -1.23345,1.489137 -3.40113,1.158573 -0.9116,-0.139017 -0.7601,-0.883732 -1.54747,-1.221842 -0.67217,-0.288483 -1.40644,-0.139888 -1.4372,-0.24582 -0.45071,-1.562855 -1.74076,-1.778491 -2.27013,-1.705064 -0.10941,0.01509 -0.49599,-0.237404 -0.53023,-0.368585 -0.37846,-1.454891 -0.5851,-3.13819 -0.59932,-5.003749 -0.0386,-2.019667 0.11667,-2.563546 1.24303,-4.194894 2.05855,-2.951867 4.27238,-4.738484 8.42839,-6.8359318 4.07822,-2.0585574 10.21762,-4.1989579 12.81716,-4.8548637 0.84223,-0.2124438 4.38209,-1.0125908 5.43762,-1.2041385 8.85909,-1.6078398 13.94381,-0.5824792 16.85679,1.7866177 0.8933,0.7380391 2.3305,2.2527171 3.18491,3.3790756 2.93184,3.8643307 4.09448,6.1013757 5.39875,8.7781097 1.12055,2.299733 2.42598,7.281425 2.42598,7.281425 0,0 -2.55165,1.211974 -3.63651,2.211505 z"
     style="fill:#ffffff;fill-rule:nonzero;stroke-width:0.290224" />
  <path
     id="m-mid"
     d="m 315.2649,29.139556 c 0.49077,3.853592 0.43969,6.909068 0.18836,13.141624 -0.25714,6.380861 -1.11794,12.171695 -1.3536,13.075453 -1.20414,4.738483 -2.67993,7.69035 -4.89376,9.865577 -2.95186,2.835196 -5.39903,3.728506 -8.93338,3.184916 -1.55356,-0.233049 -2.13633,-0.62166 -4.38905,-2.835487 -3.18491,-3.184915 -4.54433,-5.864842 -4.85487,-9.593637 -0.27194,-2.796306 0.0386,-5.320963 1.86411,-14.681552 0.50499,-2.757706 1.08776,-6.680371 1.20414,-8.777818 0.27194,-3.573526 0.23305,-3.884065 -0.73804,-5.787353 -1.74773,-3.456856 -3.68961,-3.456856 -4.31128,0.03889 -0.81552,4.544324 -4.07822,16.973158 -4.89374,18.721176 -1.8644,3.961555 -4.73849,4.893754 -7.69035,2.563257 -1.47609,-1.165248 -4.62211,-5.670683 -9.08866,-12.856044 -0.97108,-1.631348 -2.44716,-3.689905 -3.2238,-4.622104 -1.28163,-1.475788 -1.47608,-1.592458 -2.01966,-1.048579 -0.77694,0.776639 -1.50511,4.555063 -0.46611,7.845621 0.46611,1.476078 4.6996,9.477258 5.63179,10.642506 0.505,0.621369 2.21383,3.922665 3.7288,7.185361 1.70883,3.651016 1.32052,9.981957 -0.85471,14.293232 -1.16496,2.291607 -3.72851,4.855153 -5.74818,5.748463 -2.33049,1.048577 -7.30202,1.203848 -9.47725,0.233049 -1.98078,-0.854709 -5.63179,-4.622104 -7.10758,-7.263141 -3.22381,-5.748462 -5.70958,-14.371012 -6.40872,-22.139141 -1.28164,-13.788242 2.25272,-28.858404 8.07867,-34.723246 3.2238,-3.2238064 7.8848,-5.2823637 12.0794,-5.2823637 2.3305,0 2.91297,0.1555599 5.0882,1.4760782 1.35942,0.7766388 3.18492,2.2916071 4.07823,3.3401855 2.3691,2.835487 2.78673,3.728796 3.72851,3.728796 0.94206,0 1.51729,-2.129663 2.34413,-4.558546 0.75633,-2.2207922 0.63617,-3.4321863 2.31686,-5.1128723 3.3013,-3.3012957 13.71075,-4.5054342 19.42004,-2.2916071 5.67068,2.2138271 11.22498,8.8167084 13.9438,16.5073494 1.00997,2.835196 2.3215,6.557607 2.7577,9.981957 z m -23.7908,19.895422 c 0.0865,-0.542428 1.65746,2.236755 4.03527,3.361372 0.50847,0.240305 3.31697,-3.92905 7.15605,-3.9424 1.40962,-0.0046 2.43207,0.213315 5.02667,3.908444 0.50238,0.715111 2.23182,0.848324 4.54839,0.02235 1.87775,-0.669836 2.57661,-1.932891 2.55601,-1.753242 -0.28617,2.485187 -0.57494,4.257873 -0.69683,4.725134 -1.20414,4.738483 -2.67993,7.69035 -4.89376,9.865577 -2.95186,2.835196 -5.39903,3.728506 -8.93338,3.184916 -1.55356,-0.233049 -2.13633,-0.62166 -4.38905,-2.835487 -3.18491,-3.184915 -4.54433,-5.864842 -4.85487,-9.593637 -0.175,-1.797356 -0.10883,-3.482686 0.4455,-6.943024 z m -43.63602,19.177988 c -2.35604,-4.200989 -5.48785,-15.825323 -5.48785,-15.825323 1.61511,0.705825 2.49448,1.014912 3.40172,0.309379 1.05438,-0.820463 1.86962,-4.001315 3.35267,-3.363403 1.19281,0.513986 2.69589,3.471656 3.71457,3.954298 1.54166,0.730784 2.64655,-2.804432 4.15687,-2.906301 3.26009,-0.22057 5.2905,0.661711 6.45662,-1.233451 0.85645,-1.391623 2.57051,-0.639943 2.79456,-0.453329 1.03174,0.858191 1.23316,3.768265 2.77947,4.096508 0.56478,0.119573 0.68029,-0.384256 0.68029,-0.384256 0,0 0.89737,1.843792 1.3388,2.794275 1.70883,3.651016 1.32052,9.981957 -0.85471,14.293232 -1.16496,2.291607 -3.72851,4.855153 -5.74818,5.748463 -2.33049,1.048577 -7.30202,1.203848 -9.47725,0.233049 -1.98078,-0.854709 -5.63179,-4.622104 -7.10758,-7.263141 z m 66.7657,-42.457419 c 0.0238,0.107963 -1.02392,0.703792 -1.37103,1.108944 -1.28162,1.496105 -0.38018,4.359162 -1.66008,5.091687 -1.12171,0.641975 -2.01995,-0.184002 -2.19757,-0.342174 -1.64847,-1.467371 -3.28678,-5.552272 -6.89426,-5.335474 -3.0015,0.180229 -4.80205,3.61909 -6.80982,3.211326 -1.23518,-0.251043 -2.1372,-2.416403 -2.31221,-2.758577 -0.99343,-1.964524 -1.86701,-2.654967 -2.74348,-2.535104 -0.27978,0.0386 -0.93743,0.418503 -1.33765,1.629897 -0.0398,0.220569 -0.7241,-0.521823 -1.10952,-0.07052 -1.34374,1.573883 -1.7454,0.624271 -1.9889,0.938873 -0.88838,1.146966 -1.71842,1.16641 -2.62682,0.989954 -1.05206,-0.204318 -1.75701,-1.98455 -1.75701,-1.98455 -0.193,1.80287 -0.29952,4.815683 -2.94607,2.862477 -1.52106,-1.122875 -2.63261,-2.68399 -4.39456,-2.747258 -2.6512,-0.09461 -5.49917,1.512065 -5.54241,2.766123 -0.10071,2.921393 -1.39627,2.93213 -1.64267,2.923134 -1.46882,-0.05224 -3.16024,-2.47706 -3.73198,-3.211907 -0.6948,-0.893018 -3.94124,-3.611835 -4.99969,-3.07376 -3.71429,1.887905 -1.02188,4.05994 -2.70982,6.321074 -0.44346,0.593798 -1.91431,0.77838 -3.0221,0.09723 -1.66559,-1.0242 -3.04386,-3.29375 -3.1379,-3.393586 -1.01317,-1.073248 -1.76949,-1.078472 -2.67383,-1.569532 -0.64256,-0.348848 -1.27669,-1.023038 -1.4636,-1.709417 -0.14627,-0.538366 -2.51914,-0.08562 -2.51914,-0.08562 0,0 1.49465,-5.118387 2.46255,-7.274169 1.1606,-2.583572 2.52001,-4.730067 4.03382,-6.254032 3.2238,-3.2238064 7.8848,-5.2823637 12.0794,-5.2823637 2.3305,0 2.91297,0.1555599 5.0882,1.4760782 1.35942,0.7766388 3.18492,2.2916071 4.07823,3.3401855 2.3691,2.835487 2.76815,3.728796 3.72851,3.728796 0.96064,0 1.51555,-2.1256 2.3659,-4.6206536 0.75429,-2.2135369 0.65881,-3.414483 2.29509,-5.0507647 3.3013,-3.3012957 13.71075,-4.5054342 19.42004,-2.2916071 5.67068,2.2138271 11.22498,8.8167084 13.9438,16.5073494 1.00997,2.835196 1.2822,2.887146 2.09658,6.597948 z"
     style="fill:#ffffff;fill-rule:nonzero;stroke-width:0.290224" />
  <path
     id="e-mid"
     d="m 342.22002,75.980806 c -9.59364,-2.252717 -16.97316,-6.797041 -21.71164,-13.399923 -2.05856,-2.912975 -4.41111,-7.714729 -4.81627,-9.049758 -1.49523,-4.925678 -0.15527,-23.886869 0.34943,-26.372636 2.40828,-11.613306 9.7878,-20.158075 20.74085,-23.9254701 3.2238,-1.0877587 3.96184,-1.2041384 8.19534,-1.2041384 9.47696,0.03889 16.50706,3.1460259 24.00325,10.7199965 2.95186,2.951867 4.07822,4.427654 5.01041,6.447321 0.66027,1.437189 1.59247,3.223806 2.05856,3.961846 1.28193,2.097447 2.52466,7.76813 2.7966,12.817443 0.19416,3.883775 0.15527,4.582925 -0.42721,5.126804 -1.55356,1.592458 -7.53508,2.252717 -20.04169,2.252717 -8.35061,0.03889 -21.05138,-0.543879 -21.71164,-0.932198 -0.15556,-0.116381 -0.66026,0.03889 -1.04888,0.349719 -0.62136,0.427209 -0.73774,0.970798 -0.69914,3.184916 0.0778,3.146026 0.62165,4.349874 2.95186,6.563992 2.25272,2.136046 3.80658,3.029356 7.4576,4.194604 3.96155,1.320519 5.90373,1.320519 7.80673,0 1.86439,-1.242739 2.56354,-2.136047 4.07822,-4.854864 1.3983,-2.641327 2.05856,-2.951866 6.79704,-3.223806 1.94218,-0.155559 5.1271,-0.427209 7.10787,-0.660259 4.58322,-0.582769 7.76813,-0.310829 8.46728,0.621369 1.55357,2.136338 -1.5498,10.761789 -4.66099,14.953491 -3.39852,4.576539 -10.27973,10.435287 -15.73042,12.506615 -5.28875,2.01009 -12.58411,0.932198 -16.97316,-0.07778 z m 14.72102,-47.076331 c 2.71823,-1.378853 2.7577,-2.252718 0.38832,-4.466545 -1.00998,-0.893308 -3.02965,-2.291606 -4.50543,-3.068535 -3.68991,-1.941888 -6.36984,-1.980778 -9.59364,-0.155271 -3.61213,2.019668 -5.78707,4.699595 -4.85516,5.981223 0.73805,1.009979 2.99077,2.214118 4.69989,2.524656 1.00969,0.19445 4.11712,0.310831 6.87482,0.23305 4.46654,-0.07749 5.28208,-0.194159 6.9912,-1.048578 z m -14.72102,47.076331 c -9.59364,-2.252717 -16.97316,-6.797041 -21.71164,-13.399923 -2.05856,-2.912975 -4.21695,-7.219026 -4.81656,-9.124926 -0.30416,-0.967606 -0.44143,-2.151429 -0.48555,-2.85261 0,0 1.62585,-0.594668 2.4553,-1.370727 0.90173,-0.84339 2.07771,-2.646841 2.81604,-2.838679 1.64093,-0.426919 3.12368,4.398632 3.45773,4.601498 0.33434,0.202577 3.80802,0.320408 4.15223,-0.07778 1.70593,-1.974974 4.43317,-3.622283 5.59958,-2.032147 0.70321,0.958609 1.59478,2.63291 2.61259,3.053735 0.36859,0.152077 0.84282,-0.02699 0.84282,-0.02699 0,0 0.93713,0.806532 1.00446,0.86864 2.10818,1.951174 3.6809,2.818073 7.18043,3.935144 3.96155,1.320519 5.90373,1.320519 7.80673,0 1.41571,-0.943808 2.15955,-1.685911 3.09871,-3.179111 0.29777,-0.473065 2.38564,0.343044 5.35028,-1.048289 4.31969,-2.026633 4.73239,-3.675684 6.21369,-2.603307 1.73816,1.258701 2.47009,0.852387 4.89114,0.975152 4.09216,0.2078 4.45349,-3.150379 5.85933,-2.707789 0.4661,0.147435 0.86226,0.212734 1.03726,0.445784 1.55357,2.136338 -1.5498,10.761789 -4.66099,14.953491 -3.39852,4.576539 -10.27973,10.435287 -15.73042,12.506615 -5.28875,2.01009 -12.58411,0.932198 -16.97316,-0.07778 z m 35.30602,-48.791263 c 0.101,0.394704 -2.33834,-1.952917 -4.77796,-1.39975 -4.93874,1.119103 -4.19896,3.201749 -6.17625,3.533475 -2.38129,0.399638 -4.12292,-4.209696 -4.36526,-3.130934 -0.37962,1.689392 -1.17424,3.480074 -3.64202,1.714641 -0.13756,-0.0981 0.78767,-0.396155 0.34769,-1.550375 -0.80828,-2.119214 -7.84213,-7.019642 -11.85564,-6.458059 -4.43752,0.620788 -9.4822,5.020871 -8.81236,7.059983 0.29603,0.901146 0.18372,2.538588 -1.99093,2.45036 -3.8951,-0.104481 -4.13743,-4.0463 -6.941,-3.599355 -2.63406,0.420244 -4.10754,4.406467 -5.80331,5.808248 -1.04132,0.861095 -1.96801,-3.373271 -4.84064,-3.406937 -1.18934,-0.01393 -1.67575,0.930457 -2.20251,1.421226 -0.29342,0.27281 -0.65736,0.216217 -0.64836,0.0534 0.0685,-1.234321 0.14366,-2.131113 0.22405,-2.526978 2.40828,-11.613306 9.7878,-20.158075 20.74085,-23.9254701 3.2238,-1.0877587 3.96184,-1.2041384 8.19534,-1.2041384 9.47696,0.03889 16.50706,3.1460259 24.00325,10.7199965 2.95186,2.951867 4.07822,4.427654 5.01041,6.447321 0.66027,1.437189 1.59247,3.223806 2.05856,3.961846 0.52067,0.849776 1.0332,2.286963 1.47609,4.0315 z"
     style="fill:#ffffff;fill-rule:nonzero;stroke-width:0.290224" />
</svg>
