<?xml version="1.0" encoding="UTF-8" standalone="no"?>
<svg
   version="1.1"
   viewBox="0 0 380 84.535994"
   id="svg8"
   width="380"
   height="84.535995"
   xmlns="http://www.w3.org/2000/svg"
   xmlns:svg="http://www.w3.org/2000/svg">
  <defs
     id="defs8" />
  <path
     class="st2"
     d="m 17.898016,58.034659 c 0,9.034996 5.353705,10.153237 7.778211,10.153237 4.542237,0 6.343299,-3.423996 6.343299,-6.996431 0,-4.09692 -2.206795,-5.363601 -13.725672,-10.400636 -5.24485,-2.206795 -18.2778058,-7.679251 -18.2778058,-22.285662 0,-15.655381 10.2719878,-23.9184928 23.9679728,-23.9184928 11.192311,0 25.976849,6.0662118 26.273727,24.7695438 H 32.880473 c 0,-2.642217 -0.583861,-8.213632 -6.452155,-8.213632 -3.334932,0 -6.570906,2.41461 -6.570906,6.0959 0,3.572435 1.167722,4.522446 14.596516,10.826161 13.943383,6.51153 18.16895,14.80433 18.16895,22.275767 0,12.399616 -6.946951,24.185683 -26.748732,24.185683 -14.90329,0.0099 -26.36279086,-11.251686 -25.8580978,-26.491438 z"
     style="fill:#ffffff;stroke-width:0.0989594"
     id="path1" />
  <polygon
     class="st2"
     points="1304.3,334.2 1324.4,854.2 1105.6,854.2 1074.3,47.2 "
     style="fill:#ffffff"
     id="polygon1"
     transform="matrix(0.09895943,0,0,0.09895943,-0.00374368,0.00485284)" />
  <polygon
     class="st2"
     points="753.2,47.2 784.5,854.2 565.6,854.2 534.3,47.2 "
     style="fill:#ffffff"
     id="polygon2"
     transform="matrix(0.09895943,0,0,0.09895943,-0.00374368,0.00485284)" />
  <polygon
     class="st2"
     points="1740.8,47.2 2305.5,854.2 2079.7,854.2 1619,195.8 "
     style="fill:#ffffff"
     id="polygon3"
     transform="matrix(0.09895943,0,0,0.09895943,-0.00374368,0.00485284)" />
  <polygon
     class="st2"
     points="1074.3,47.2 1261,47.2 1797.2,813.5 1599.8,854.2 1149.3,210.3 "
     style="fill:#ffffff"
     id="polygon4"
     transform="matrix(0.09895943,0,0,0.09895943,-0.00374368,0.00485284)" />
  <polygon
     class="st2"
     points="760.2,47.2 1300,817.8 1324.4,854.2 1088.8,854.2 563.5,103.4 "
     style="fill:#ffffff"
     id="polygon5"
     transform="matrix(0.09895943,0,0,0.09895943,-0.00374368,0.00485284)" />
  <rect
     x="-73.434044"
     y="61.500759"
     transform="rotate(-90)"
     class="st2"
     width="16.625183"
     height="47.282814"
     style="fill:#ffffff;stroke-width:0.0989594"
     id="rect5" />
  <polygon
     class="st2"
     points="1548.6,47.2 1740.8,47.2 1772.4,172.5 1798.8,854.2 1599.8,854.2 1577.9,801.8 "
     style="fill:#ffffff"
     id="polygon6"
     transform="matrix(0.09895943,0,0,0.09895943,-0.00374368,0.00485284)" />
  <path
     class="st2"
     d="m 241.51663,69.929582 c -1.87033,-3.334932 -2.98857,-9.104267 2.25627,-17.693945 5.34381,-8.738117 10.86575,-10.568867 14.56683,-10.568867 1.88023,0 3.23598,0.475006 3.85942,0.752092 L 288.651,4.6658418 H 211.25484 194.14475 176.718 l 44.61091,63.6507022 0.16823,0.385941 11.19231,15.823612 0.39584,-0.564068 9.10426,-12.993373 c -0.2375,-0.326566 -0.46511,-0.672924 -0.67292,-1.039074 z"
     style="fill:#ffffff;stroke-width:0.0989594"
     id="path6" />
  <path
     class="st2"
     d="M 362.71224,18.975374 C 364.30548,20.331118 380.44577,7.3674341 379.99055,1.3012213 379.47596,-5.5665628 360.25804,16.88733 362.71224,18.975374 Z"
     style="fill:#ffffff;stroke-width:0.0989594"
     id="path7" />
  <path
     class="st2"
     d="m 376.88323,38.361526 c -1.7219,-1.761478 -7.29331,6.768824 -13.02306,5.818814 -3.01827,-0.504693 -2.72139,-3.423996 -2.4542,-4.670885 0.0693,-0.326566 0.33647,-0.583861 0.67293,-0.653132 5.90788,-1.227097 16.34809,-12.775662 12.80535,-16.892374 -3.31514,-3.859418 -12.64702,2.167211 -15.89289,6.363091 -3.87921,5.007347 -7.51102,11.934507 -10.45011,15.497046 -5.80892,7.036015 -5.1162,0.326566 -4.12661,-1.771374 2.08804,-4.41359 3.80994,-12.924101 1.05887,-14.735058 -2.39482,-1.573455 -6.06622,3.028158 -7.30321,4.82922 -3.10733,4.512549 -5.45266,3.562539 -4.01775,-0.267191 1.87033,-4.957867 4.1464,-12.043362 1.29637,-13.02306 -3.9089,-1.345848 -8.44124,12.637118 -9.70792,17.347587 -1.19741,4.472966 -7.5704,20.801271 -11.56836,18.366869 -2.60263,-1.593246 0.11875,-8.797492 1.31616,-11.400125 2.72138,-5.888086 3.38441,-8.520407 1.38543,-9.331874 -4.374,-1.78127 -10.2423,12.676702 -11.9345,15.556421 -2.9391,5.007347 -8.35218,11.162624 -8.61937,5.175578 -0.26719,-5.987045 9.20323,-13.498065 5.54173,-16.338201 -3.65161,-2.840135 -9.80688,9.806879 -9.80688,9.806879 -3.79015,8.619366 -5.58131,6.897472 -5.58131,6.897472 -0.53438,-9.084475 -4.18599,-14.48766 -8.58968,-14.48766 -4.46307,0 -8.25322,4.957868 -9.96522,10.519387 -0.78177,3.701083 -4.01775,10.727202 -10.70741,14.725163 -3.70108,2.206795 -11.14283,3.04795 -8.16415,-5.294329 0,0 2.57295,-6.442259 6.94695,-4.690677 3.38442,1.355744 8.65895,-9.104267 5.41308,-11.043872 0,0 -7.71883,-4.156296 -15.64548,8.817285 -8.40166,13.735568 0.54428,20.068971 5.22506,20.019491 5.56152,-0.05938 13.28035,-9.331873 14.39859,-10.905328 0.78178,-1.088554 1.88023,-2.285963 2.39482,-0.890635 2.14742,5.87819 6.03653,7.125079 8.86677,7.036015 4.30473,-0.128647 6.086,-4.492758 8.0454,-6.8282 1.80106,-2.137524 7.03601,-7.936546 7.14487,-4.1464 0.16823,5.729751 8.10477,8.817285 10.88553,2.751072 2.56305,-5.591208 4.95787,-4.759948 5.36361,-2.315651 0.89063,5.333913 4.20577,4.324527 4.20577,4.324527 4.96776,0 10.4996,-10.34126 12.45899,-14.626203 1.67242,-3.661499 2.70159,-1.830749 2.48388,1.236993 -0.41563,5.729751 -2.35523,11.281374 -3.27555,15.318919 -1.07866,4.700573 0.71251,11.667316 3.95837,11.667316 2.33545,0 3.10733,-12.745974 2.81045,-16.348097 0,-3.988065 4.66099,-3.107326 7.95634,-3.384412 5.3636,-0.455214 8.89645,-5.106307 13.62671,-11.677212 0.26719,-0.36615 0.84116,-0.286983 0.9797,0.148439 2.00888,6.175068 5.89798,6.56101 8.57978,6.125588 7.48134,-1.217201 16.12049,-11.499085 15.01215,-12.627222 z m -8.2928,-11.875131 c 1.48439,1.830749 -3.87921,8.817284 -6.32351,7.372477 -1.89012,-1.118242 4.97766,-9.0251 6.32351,-7.372477 z m -90.19162,36.288421 c -3.21618,2.602633 -5.59121,0.02969 -5.58131,-2.681801 0.01,-2.355234 -0.55418,-5.72975 1.89012,-8.757909 2.02867,-2.513569 4.16619,-3.344828 4.02765,-0.603652 -0.0792,1.642726 -0.41563,3.127118 0.9797,5.888086 1.73179,3.404204 0.99949,4.275047 -1.31616,6.155276 z m 60.77098,-18.119471 c -1.42501,2.869823 -2.57294,4.492758 -4.47297,4.017753 -1.29636,-0.326566 -1.23699,-3.018263 0.0396,-5.957358 1.55366,-3.572435 3.74066,-6.175068 4.96776,-5.640687 1.2271,0.534381 1.42502,3.651603 -0.53438,7.580292 z"
     style="fill:#ffffff;stroke-width:0.0989594"
     id="path8" />
</svg>
