<?xml version="1.0" encoding="UTF-8" standalone="no"?>
<svg
   viewBox="880.0406 77.2 380.00283 40.595008"
   width="380.00284"
   height="40.595009"
   version="1.1"
   id="svg10"
   xmlns="http://www.w3.org/2000/svg"
   xmlns:svg="http://www.w3.org/2000/svg">
  <defs
     id="defs10" />
  <path
     d="m 1140.8783,78.869518 h -24.6447 c -2.0419,0 -3.7114,1.656676 -3.7114,3.711468 0,2.041949 1.6566,3.711467 3.7114,3.711467 h 8.6173 v 26.583867 c 0,2.04195 1.6567,3.71147 3.7115,3.71147 2.0548,0 3.7115,-1.65668 3.7115,-3.71147 V 86.292453 h 8.6172 c 2.042,0 3.7116,-1.656676 3.7116,-3.711467 -0.013,-2.041949 -1.6696,-3.711468 -3.7244,-3.711468 z"
     style="fill:#ffffff;fill-rule:nonzero;stroke-width:0.128425"
     id="path1" />
  <path
     d="M 1108.6181,84.520195 C 1106.7046,80.603248 1102.9802,77.2 1098.9092,77.2 c -4.071,0 -7.7953,3.403248 -9.7089,7.320195 -3.339,6.806497 -6.4983,15.629255 -9.6575,26.981975 -0.5522,2.00343 0.6164,4.07106 2.607,4.62329 0.3339,0.0899 0.6807,0.14127 1.0146,0.14127 1.6438,0 3.1592,-1.09161 3.6215,-2.74829 0.6935,-2.50428 1.3998,-4.86729 2.0933,-7.11471 h 20.0728 c 0.6935,2.24742 1.387,4.61043 2.0933,7.11471 0.5522,2.00342 2.6327,3.17208 4.6233,2.60702 2.0035,-0.55223 3.1721,-2.6327 2.607,-4.62329 -3.1721,-11.35272 -6.3313,-20.175478 -9.6575,-26.981975 z m -17.2859,14.473438 c 1.5282,-4.263692 3.0565,-7.97516 4.6232,-11.160086 0.6678,-1.361299 1.7466,-3.107872 2.9538,-3.107872 1.22,0 2.2988,1.746573 2.9666,3.107872 1.5668,3.197769 3.0951,6.896394 4.6233,11.160086 z"
     style="fill:#ffffff;fill-rule:nonzero;stroke-width:0.128425"
     id="path2" />
  <path
     d="M 1015.6901,84.520195 C 1013.7766,80.603248 1010.0523,77.2 1005.9812,77.2 c -4.071,0 -7.79529,3.403248 -9.70881,7.320195 -3.33904,6.806497 -6.49828,15.629255 -9.65752,26.981975 -0.55223,2.00343 0.61643,4.07106 2.60702,4.62329 0.3339,0.0899 0.68064,0.14127 1.01454,0.14127 1.64385,0 3.15925,-1.09161 3.62158,-2.74829 0.69349,-2.50428 1.39982,-4.86729 2.09332,-7.11471 h 20.05987 c 0.6935,2.24742 1.387,4.61043 2.0933,7.11471 0.5522,2.00342 2.6327,3.17208 4.6233,2.60702 2.0035,-0.55223 3.1721,-2.6327 2.607,-4.62329 -3.1592,-11.35272 -6.3185,-20.175478 -9.6447,-26.981975 z m -17.29871,14.460596 c 1.52826,-4.263693 3.05651,-7.97516 4.62321,-11.160087 0.6678,-1.3613 1.7466,-3.107872 2.9538,-3.107872 1.22,0 2.2988,1.746572 2.9667,3.107872 1.5667,3.197769 3.095,6.896394 4.6232,11.160087 z"
     style="fill:#ffffff;fill-rule:nonzero;stroke-width:0.128425"
     id="path3" />
  <path
     d="m 985.63884,98.60836 c 0,-0.10274 0,-0.205479 -0.0128,-0.295376 0,-0.02568 0,-0.05137 -0.0128,-0.07706 -0.0128,-0.102738 -0.0257,-0.192636 -0.0385,-0.295376 0,-0.02568 -0.0128,-0.05137 -0.0128,-0.07705 -0.0257,-0.0899 -0.0385,-0.192637 -0.0771,-0.282534 -0.0128,-0.02568 -0.0128,-0.05137 -0.0257,-0.07705 -0.0257,-0.0899 -0.0642,-0.179794 -0.10274,-0.269691 -0.0128,-0.02568 -0.0257,-0.05137 -0.0257,-0.07705 -0.0385,-0.0899 -0.0771,-0.166952 -0.11559,-0.256848 -0.0128,-0.02569 -0.0257,-0.05137 -0.0385,-0.07705 -0.0514,-0.07705 -0.0899,-0.15411 -0.14127,-0.231165 -0.0128,-0.02568 -0.0257,-0.05137 -0.0514,-0.06421 -0.0514,-0.07706 -0.10275,-0.141267 -0.16696,-0.218322 -0.0128,-0.02568 -0.0385,-0.03853 -0.0514,-0.06421 -0.0642,-0.06421 -0.11558,-0.141267 -0.17979,-0.20548 -0.0257,-0.02569 -0.0385,-0.03853 -0.0642,-0.06421 -0.0642,-0.06421 -0.12843,-0.128424 -0.19264,-0.179795 -0.0257,-0.01284 -0.0514,-0.03853 -0.0642,-0.05137 -0.0642,-0.05137 -0.14127,-0.10274 -0.21832,-0.154109 -0.0257,-0.01284 -0.0514,-0.03853 -0.077,-0.05137 -0.0771,-0.05137 -0.14127,-0.0899 -0.21832,-0.141267 -0.0257,-0.01284 -0.0642,-0.02569 -0.0899,-0.05137 -0.077,-0.03853 -0.15412,-0.07705 -0.23117,-0.115582 -0.0385,-0.01284 -0.0771,-0.02569 -0.10274,-0.03853 -0.0771,-0.02569 -0.15411,-0.06421 -0.23116,-0.07705 -0.0385,-0.01284 -0.0771,-0.02568 -0.12843,-0.03853 -0.077,-0.02568 -0.15411,-0.03853 -0.21832,-0.05137 -0.0514,-0.01284 -0.0899,-0.01284 -0.14126,-0.02568 -0.0771,-0.01284 -0.14127,-0.02568 -0.21832,-0.03853 -0.0514,0 -0.10274,-0.01284 -0.15411,-0.01284 -0.0514,0 -0.0899,-0.01284 -0.14128,-0.01284 h -14.15237 c -2.04195,0 -3.71147,1.656675 -3.71147,3.711467 0,2.041948 1.65667,3.711478 3.71147,3.711478 h 9.81163 c -1.6952,6.88355 -7.17893,8.02653 -10.99314,8.02653 -7.5642,0 -12.85528,-5.72774 -12.85528,-13.921224 0,-5.98458 6.12584,-11.429778 12.85528,-11.429778 4.12243,0 7.17893,0.937499 10.54366,3.223455 1.6952,1.155819 3.994,0.706334 5.14982,-0.976026 1.15582,-1.695204 0.70633,-3.994002 -0.97603,-5.149823 -4.58475,-3.120714 -9.11814,-4.507698 -14.7046,-4.507698 -5.25257,0 -10.27396,1.977737 -14.16522,5.586464 -3.87842,3.583043 -6.10017,8.424646 -6.10017,13.253406 0,6.215754 2.06764,11.596734 5.98459,15.539374 3.71146,3.73714 8.78423,5.79194 14.2808,5.79194 5.16266,0 9.69604,-1.48973 13.12498,-4.30222 2.85102,-2.33733 5.49657,-6.78081 5.7791,-14.717454 v -0.128424 c -0.0385,0 -0.0385,-0.01284 -0.0385,-0.03853 z"
     style="fill:#ffffff;fill-rule:nonzero;stroke-width:0.128425"
     id="path4" />
  <path
     d="m 942.82212,109.16486 h -17.40151 v -8.37329 h 12.17464 c 2.04195,0 3.71146,-1.65667 3.71146,-3.711461 0,-2.041949 -1.65667,-3.711468 -3.71146,-3.711468 h -12.17464 v -7.101873 h 17.40151 c 2.04195,0 3.71147,-1.656676 3.71147,-3.711467 0,-2.04195 -1.65668,-3.711468 -3.71147,-3.711468 h -21.11298 c -2.04195,0 -3.71147,1.656676 -3.71147,3.711468 v 30.295329 c 0,2.04195 1.65667,3.71147 3.71147,3.71147 h 21.11298 c 2.04195,0 3.71147,-1.65667 3.71147,-3.71147 -0.0128,-2.0291 -1.66952,-3.68577 -3.71147,-3.68577 z"
     style="fill:#ffffff;fill-rule:nonzero;stroke-width:0.128425"
     id="path5" />
  <path
     d="m 1079.119,104.28472 c -0.488,-6.023106 -5.3553,-10.60786 -11.1986,-10.60786 h -12.1747 c -2.0547,0.07705 -3.7885,-1.566779 -3.9683,-3.762837 -0.1155,-1.708046 0.7192,-3.416091 1.798,-3.660097 l 0.2055,-0.05137 c 4.8287,-1.374143 15.1283,-1.014554 18.737,0.295376 1.9264,0.693492 4.0455,-0.308219 4.739,-2.234586 0.6935,-1.926367 -0.3082,-4.045371 -2.2347,-4.738863 -5.3167,-1.913525 -17.1832,-2.144689 -23.1934,-0.462328 -4.6362,1.10445 -7.8468,5.98458 -7.4486,11.404093 v 0.03853 c 0.488,6.023109 5.3553,10.607862 11.1986,10.607862 h 12.1746 c 2.0548,-0.077 3.7885,1.56678 3.9683,3.76283 0.1156,1.70805 -0.7192,3.4161 -1.7979,3.6601 l -0.2055,0.0514 c -4.8287,1.37414 -15.1284,1.01456 -18.7371,-0.29537 -1.9264,-0.6935 -4.0454,0.30821 -4.7389,2.23458 -0.6935,1.92637 0.3082,4.04538 2.2346,4.73886 2.9153,1.05309 7.8082,1.59246 12.6241,1.59246 3.9555,0 7.8596,-0.37242 10.5694,-1.13013 4.6361,-1.10444 7.8467,-5.98458 7.4486,-11.40409 z"
     style="fill:#ffffff;fill-rule:nonzero;stroke-width:0.128425"
     id="path6" />
  <path
     d="m 914.81275,104.28472 c -0.48802,-6.023106 -5.3553,-10.60786 -11.19862,-10.60786 h -12.17464 c -2.05479,0.07705 -3.78852,-1.566779 -3.96832,-3.762837 -0.11558,-1.708046 0.71918,-3.416091 1.79795,-3.660097 l 0.20548,-0.05137 c 4.82876,-1.374143 15.1284,-1.014554 18.73713,0.295376 1.92636,0.693492 4.04537,-0.308219 4.73886,-2.234586 0.69349,-1.926367 -0.30822,-4.045371 -2.23458,-4.738863 -5.31678,-1.913525 -17.1832,-2.144689 -23.19346,-0.462328 -4.63613,1.10445 -7.84674,5.98458 -7.44863,11.404093 v 0.03853 c 0.48801,6.023109 5.35531,10.607862 11.19862,10.607862 h 12.17464 c 2.05479,-0.077 3.78852,1.56678 3.96831,3.76283 0.11558,1.70805 -0.71917,3.4161 -1.79794,3.6601 l -0.20547,0.0514 c -4.82877,1.37414 -15.12841,1.01456 -18.73714,-0.29537 -1.92637,-0.6935 -4.04537,0.30821 -4.73886,2.23458 -0.69349,1.92637 0.30822,4.04538 2.23458,4.73886 2.91524,1.05309 7.80821,1.59246 12.62413,1.59246 3.95547,0 7.85958,-0.37242 10.56933,-1.13013 4.63613,-1.10444 7.84674,-5.98458 7.44863,-11.40409 z"
     style="fill:#ffffff;fill-rule:nonzero;stroke-width:0.128425"
     id="path7" />
  <path
     d="m 1179.2515,77.277055 c -2.0162,0 -3.6472,1.630991 -3.6472,3.647255 v 22.52565 c 0,3.48031 -4.9572,6.53681 -10.6207,6.53681 -5.6507,0 -10.6207,-3.0565 -10.6207,-6.53681 V 80.92431 c 0,-2.016264 -1.631,-3.647255 -3.6473,-3.647255 -2.0162,0 -3.6472,1.630991 -3.6472,3.647255 v 22.52565 c 0,3.86558 2.0805,7.57705 5.702,10.15838 3.3005,2.36301 7.6413,3.6601 12.2003,3.6601 4.5591,0 8.8871,-1.29709 12.2004,-3.6601 3.6215,-2.58133 5.702,-6.2928 5.702,-10.15838 V 80.92431 c 0.026,-2.016264 -1.6053,-3.647255 -3.6216,-3.647255 z"
     style="fill:#ffffff;fill-rule:nonzero;stroke-width:0.128425"
     id="path8" />
  <path
     d="m 1212.3466,102.12719 c -0.244,-0.23117 -0.1028,-0.65496 0.244,-0.68065 6.7679,-0.4238 8.7842,-5.496566 9.1309,-9.811629 v -0.03853 c 0.2183,-3.056502 -0.976,-6.305641 -3.1849,-8.681494 -1.7209,-1.849312 -4.8673,-4.045371 -10.1327,-4.045371 -3.9041,0 -8.2962,0.06421 -12.0334,0.179795 -6.1387,0.192636 -6.5753,0.346745 -7.1532,0.565067 -1.464,0.526541 -2.44,1.913525 -2.44,3.46746 v 29.589002 c 0,2.10616 1.7594,3.80136 3.8783,3.69863 1.9906,-0.0899 3.5317,-1.81079 3.5317,-3.80137 V 86.549302 c 3.2491,-0.128425 8.6302,-0.269692 14.2166,-0.269692 2.0804,0 3.6601,0.565068 4.7004,1.682361 1.0531,1.130135 1.2585,2.46575 1.22,3.095029 -0.09,1.142979 -0.3981,4.520542 -6.4598,4.520542 h -3.1721 c -1.6309,0 -3.1463,0.924657 -3.8013,2.414381 -0.6935,1.57962 -0.3211,3.403247 0.9375,4.571917 l 13.9469,13.0736 c 0.7192,0.66781 1.631,1.00171 2.5299,1.00171 0.9889,0 1.9778,-0.39811 2.7098,-1.16866 1.3998,-1.48972 1.3227,-3.83989 -0.167,-5.23972 z"
     style="fill:#ffffff;fill-rule:nonzero;stroke-width:0.128425"
     id="path9" />
  <path
     d="m 1256.3962,78.933731 c -2.0163,0 -3.6473,1.63099 -3.6473,3.647255 v 20.766234 l -20.869,-23.206299 c -1.0145,-1.130136 -2.607,-1.515409 -4.0197,-0.963184 -1.4126,0.539383 -2.3373,1.900682 -2.3373,3.403249 v 30.295334 c 0,2.01626 1.631,3.64725 3.6473,3.64725 2.0162,0 3.6472,-1.63099 3.6472,-3.64725 V 92.110081 l 20.869,23.206299 c 0.7063,0.7834 1.6952,1.20719 2.7098,1.20719 0.4366,0 0.8861,-0.077 1.3099,-0.244 1.4126,-0.53939 2.3373,-1.90069 2.3373,-3.40325 V 82.580986 c 0,-2.016265 -1.631,-3.647255 -3.6472,-3.647255 z"
     style="fill:#ffffff;fill-rule:nonzero;stroke-width:0.128425"
     id="path10" />
</svg>
