<?xml version="1.0" encoding="UTF-8" standalone="no"?>
<svg
   version="1.1"
   id="Layer_1"
   x="0px"
   y="0px"
   viewBox="0 0 379.99936 35.516"
   width="379.99936"
   height="35.515999"
   xmlns="http://www.w3.org/2000/svg"
   xmlns:svg="http://www.w3.org/2000/svg">
  <defs
     id="defs1" />
  <style
     type="text/css"
     id="style2">
	.st0{fill:#FF221D;}
	.st1{fill:#FDEB05;}
	.st2{display:none;}
	.st3{display:inline;}
	.st4{fill:#FBE901;}
	.st5{fill:#FFFFFF;}
</style>
  <path
     class="st0"
     d="m 155.91205,35.516 c -0.79189,0 -1.11854,-0.158377 -1.4056,-0.356347 l 1.58377,-7.03787 c 2.7518,-0.41574 3.89013,-2.306362 4.47414,-7.31503 1.44519,-12.5414633 9.81937,-13.2739559 10.75973,-13.3135501 0.10888,-0.0099 0.20787,-0.0099 0.30686,-0.0099 0.29694,0 0.54441,0.019797 0.92055,0.089087 l -1.68274,7.4635071 c -2.72211,0.376145 -3.33582,2.712204 -4.44446,9.472914 -1.67284,10.116319 -8.78991,10.937898 -10.1955,10.997289 -0.10888,0 -0.21776,0.0099 -0.31675,0.0099 z"
     id="path4"
     style="fill:#ffffff;fill-opacity:1;stroke-width:0.0989855" />
  <path
     class="st0"
     d="m 299.6786,35.516 c -0.79189,0 -1.11854,-0.158377 -1.4056,-0.356347 l 1.58376,-7.03787 c 2.7518,-0.41574 3.89014,-2.306362 4.47416,-7.31503 1.44519,-12.5414633 9.80947,-13.2739559 10.75973,-13.3135501 0.10888,-0.0099 0.20787,-0.0099 0.30685,-0.0099 0.29695,0 0.54441,0.019797 0.92056,0.089087 l -1.68275,7.4635071 c -2.72211,0.376145 -3.33581,2.712204 -4.44445,9.472914 -1.67286,10.116319 -8.78992,10.937898 -10.19552,10.997289 -0.11878,0 -0.21776,0.0099 -0.31674,0.0099 z"
     id="path6"
     style="fill:#ffffff;fill-opacity:1;stroke-width:0.0989855" />
  <path
     class="st0"
     d="m 144.32084,35.516 c -0.79189,0 -1.11854,-0.158377 -1.4056,-0.356347 l 1.58377,-7.03787 c 2.75181,-0.41574 3.89014,-2.306362 4.47414,-7.31503 1.4452,-12.5414633 9.81937,-13.2739559 10.75974,-13.3135501 0.10888,-0.0099 0.20787,-0.0099 0.30685,-0.0099 0.29695,0 0.54441,0.019797 0.92056,0.089087 l -1.68275,7.4635071 c -2.72209,0.376145 -3.3358,2.712204 -4.44444,9.472914 -1.67286,10.116319 -8.78991,10.937898 -10.19552,10.997289 -0.10888,0 -0.21777,0.0099 -0.31675,0.0099 z"
     id="path8"
     style="fill:#ffffff;fill-opacity:1;stroke-width:0.0989855" />
  <rect
     x="267.5083"
     class="st0"
     width="7.1962461"
     height="35.515995"
     id="rect10"
     style="fill:#ffffff;fill-opacity:1;stroke-width:0.0989855"
     y="0" />
  <path
     class="st0"
     d="m 340.51012,7.4833043 c -7.92873,0 -14.58057,5.7609567 -15.27347,13.6797977 -0.69289,7.91884 5.16704,14.352898 13.09578,14.352898 7.92875,0 15.65951,-6.166797 15.61002,-14.352898 -0.0594,-7.958436 -5.5135,-13.6797977 -13.43233,-13.6797977 z m 5.04826,18.8963337 c -1.88073,1.890622 -4.58304,3.028955 -7.22595,3.028955 -2.08859,0 -3.95941,-0.781984 -5.25611,-2.197477 -1.31652,-1.43529 -1.94013,-3.385306 -1.75206,-5.503594 0.40584,-4.622623 4.35536,-8.106913 9.18586,-8.106913 4.48404,0 7.28533,2.920073 7.32492,7.611986 0.01,2.365753 -1.22742,4.117796 -2.27666,5.167043 z"
     id="path12"
     style="fill:#ffffff;fill-opacity:1;stroke-width:0.0989855" />
  <path
     class="st0"
     d="m 140.43071,35.456609 h -6.31528 l 3.09826,-13.758986 c 0.01,-0.178174 0.0198,-0.366247 0.0198,-0.554318 -0.0297,-4.691913 -2.84089,-7.611986 -7.32493,-7.611986 -4.83049,0 -8.78002,3.48429 -9.18586,8.106913 -0.18807,2.11829 0.43554,4.068304 1.75205,5.503594 1.29671,1.415493 3.16753,2.197479 5.25614,2.197479 1.85102,0 3.73174,-0.554319 5.33531,-1.534276 l -1.62337,7.206144 -0.0396,0.0099 c 0,0 -2.43504,0.435537 -3.67235,0.435537 -7.92875,0 -13.7887,-6.42416 -13.0958,-14.352899 0.6929,-7.928739 7.34473,-13.6797971 15.27347,-13.6797971 7.92875,0 13.37294,5.7312601 13.43233,13.6797971 0.01,0.75229 -0.0594,1.484783 -0.17817,2.18758 z"
     id="path14"
     style="fill:#ffffff;fill-opacity:1;stroke-width:0.0989855" />
  <path
     class="st0"
     d="m 210.1363,14.333101 h 4.76121 l 1.27691,-5.6718691 h -4.76119 L 213.36323,0 h -6.62213 l -5.82035,25.805522 c 0,0 -0.12867,0.584015 -0.17817,0.781985 -1.05914,4.51374 0.11879,8.928493 5.98862,8.928493 0,0 0.71269,0 0.84138,0 l 3.18734,-5.671869 h -2.7815 c -1.17793,0 -1.08885,-1.187826 -0.80179,-2.425145 0.7127,-3.068551 2.95967,-13.085885 2.95967,-13.085885 z"
     id="path16"
     style="fill:#ffffff;fill-opacity:1;stroke-width:0.0989855" />
  <path
     class="st0"
     d="m 224.60798,14.333101 h 4.76122 l 1.27691,-5.6718691 H 225.8849 L 227.84481,0 h -6.62212 l -5.82036,25.805522 c 0,0 -0.12868,0.584015 -0.17817,0.781985 -1.05915,4.51374 0.11878,8.928493 5.98863,8.928493 0,0 0.7127,0 0.84138,0 l 3.18732,-5.671869 H 222.46 c -1.17792,0 -1.08883,-1.187826 -0.80177,-2.425145 0.70279,-3.068551 2.94975,-13.085885 2.94975,-13.085885 z"
     id="path18"
     style="fill:#ffffff;fill-opacity:1;stroke-width:0.0989855" />
  <path
     class="st0"
     d="m 112.55639,35.476406 c -4.70181,-0.445436 -8.8889,-2.454841 -11.65058,-5.612478 -2.7914,-3.197233 -4.00892,-7.31503 -3.53379,-11.907957 1.563971,-14.8577246 14.55087,-17.8767826 25.2314,-17.78769564 l -1.366,6.11730434 c -14.54097,0.2375652 -17.20368,6.8201013 -17.7877,12.3137973 -0.75229,7.166551 4.78101,10.611246 10.46277,10.85871 z"
     id="path20"
     style="fill:#ffffff;fill-opacity:1;stroke-width:0.0989855" />
  <path
     class="st0"
     d="M 295.14506,8.6612319 289.08714,35.516 h 6.62214 c 1.15813,-5.137348 4.0782,-18.084652 6.04801,-26.8547681 0.01,0 -6.61223,0 -6.61223,0 z"
     id="path22"
     style="fill:#ffffff;fill-opacity:1;stroke-width:0.0989855" />
  <path
     class="st0"
     d="M 326.53336,5.6718696 C 327.28565,2.3558551 327.81028,0 327.81028,0 h -6.62213 l -1.27692,5.6718696 z"
     id="path24"
     style="fill:#ffffff;fill-opacity:1;stroke-width:0.0989855" />
  <path
     class="st0"
     d="M 319.23813,8.6612319 313.18022,35.516 h 6.62213 c 1.15813,-5.137348 4.07821,-18.084652 6.04801,-26.8547681 0.01,0 -6.61223,0 -6.61223,0 z"
     id="path26"
     style="fill:#ffffff;fill-opacity:1;stroke-width:0.0989855" />
  <path
     class="st0"
     d="M 359.7034,8.6612319 353.64549,35.516 h 6.62214 c 1.15813,-5.137348 4.07819,-18.084652 6.04801,-26.8547681 0.01,0 -6.61224,0 -6.61224,0 z"
     id="path30"
     style="fill:#ffffff;fill-opacity:1;stroke-width:0.0989855" />
  <path
     class="st0"
     d="m 365.48416,8.6612319 -1.27692,5.6718691 h 7.45361 c 0.91067,0 1.59367,0.851276 1.3858,1.742145 L 368.6616,35.516 h 6.62213 c 0.89086,-3.95942 2.84088,-12.581058 4.58303,-20.321725 0.7523,-3.345709 -1.79165,-6.5231446 -5.22644,-6.5231446 z"
     id="path34"
     style="fill:#ffffff;fill-opacity:1;stroke-width:0.0989855" />
  <path
     class="st0"
     d="m 299.54002,0 h -2.43505 -2.6726 c -2.1183,0 -4.07821,1.078942 -5.20665,2.8705797 L 268.61695,35.516 h 8.51275 L 295.96664,5.6718696 h 6.48355 C 303.19258,2.3558551 303.7271,0 303.7271,0 Z"
     id="path36"
     style="fill:#ffffff;fill-opacity:1;stroke-width:0.0989855" />
  <path
     class="st0"
     d="m 238.1591,27.953507 19.77732,-9.680782 c -1.18784,-6.414261 -6.2262,-10.7993192 -13.15519,-10.7993192 -7.92874,0 -14.58056,5.7609562 -15.27345,13.6797972 -0.69291,7.928739 5.16703,14.352898 13.09577,14.352898 1.28681,0 2.56373,-0.158377 3.80105,-0.465232 0.13858,-0.0297 0.26726,-0.06929 0.40584,-0.108884 l 1.67286,-7.433811 c -1.72236,1.207623 -3.82085,1.890624 -5.87975,1.890624 -1.69264,0.0198 -3.22692,-0.494929 -4.44445,-1.435291 z m -2.57362,-6.255884 c 0.40583,-4.622623 4.35537,-8.106913 9.18585,-8.106913 2.45485,0 4.39497,0.871072 5.67187,2.425145 l -14.83792,7.265536 c -0.0594,-0.514724 -0.0693,-1.049246 -0.0198,-1.583768 z"
     id="path40"
     style="fill:#ffffff;fill-opacity:1;stroke-width:0.0989855" />
  <path
     class="st0"
     d="m 180.53964,27.953507 19.77731,-9.680782 c -1.18783,-6.414261 -6.22618,-10.7993192 -13.15518,-10.7993192 -7.92874,0 -14.58057,5.7609562 -15.27347,13.6797972 -0.69289,7.928739 5.16705,14.352898 13.09578,14.352898 1.28682,0 2.56373,-0.158377 3.80105,-0.465232 0.13858,-0.0297 0.26727,-0.06929 0.40585,-0.108884 l 1.67284,-7.433811 c -1.72234,1.207623 -3.82083,1.890624 -5.87974,1.890624 -1.69263,0.0198 -3.22692,-0.494929 -4.44444,-1.435291 z m -2.57363,-6.255884 c 0.40584,-4.622623 4.35538,-8.106913 9.18586,-8.106913 2.45483,0 4.39495,0.871072 5.67188,2.425145 l -14.83794,7.265536 c -0.0594,-0.514724 -0.0594,-1.049246 -0.0198,-1.583768 z"
     id="path42"
     style="fill:#ffffff;fill-opacity:1;stroke-width:0.0989855" />
  <path
     class="st1"
     d="m 32.431489,28.632647 0.07176,-0.317645 c -0.604603,0.174115 -1.424302,0.317645 -2.510471,0.317645 h -2.520764 c -1.393518,0 -2.69488,-0.625094 -3.576147,-1.721556 -0.870975,-1.086168 -1.198914,-2.500176 -0.891465,-3.863009 l 2.438805,-10.800209 h 5.020941 l -2.500275,11.097364 c -0.04098,0.194705 0,0.399604 0.12294,0.553329 0.123039,0.153725 0.307449,0.24588 0.512349,0.24588 h 3.535169 c 0.768522,0 1.4244,-0.522545 1.588321,-1.270579 l 2.40802,-10.625994 h 5.020941 l -3.699084,16.394969 z"
     id="path82"
     style="fill:#ffffff;fill-opacity:1;stroke-width:0.102469" />
  <path
     class="st1"
     d="m 77.066925,28.632647 3.699088,-16.395069 h 5.02104 l -0.07176,0.317644 c 0.604603,-0.174115 1.424301,-0.317644 2.510469,-0.317644 h 3.330269 l -1.014404,4.488201 h -4.457416 c -0.768524,0 -1.424302,0.522544 -1.588321,1.270578 l -2.397726,10.625995 z"
     id="path88"
     style="fill:#ffffff;fill-opacity:1;stroke-width:0.102469" />
  <path
     class="st1"
     d="m 64.125164,28.632647 c -1.393618,0 -2.69498,-0.625094 -3.576149,-1.721556 -0.871072,-1.086168 -1.198912,-2.500176 -0.891562,-3.863009 l 1.352636,-6.025148 c 0.645584,-2.807724 3.10478,-4.775061 6.004659,-4.775061 h 5.697309 c 1.393518,0 2.69488,0.624994 3.576149,1.721457 0.870973,1.086168 1.198813,2.500275 0.891463,3.863107 l -0.16392,0.727444 c -0.430389,1.885477 -1.762535,3.340563 -3.494188,3.965558 h 2.582135 l -0.297154,1.332147 c -0.635289,2.817919 -3.094485,4.795551 -5.994364,4.795551 h -5.687014 z m 0.491858,-5.28741 c -0.04098,0.194705 0,0.399604 0.122941,0.553329 0.12294,0.153725 0.307349,0.24588 0.512348,0.24588 h 4.313888 c 0.676367,0 1.250186,-0.461075 1.403812,-1.116854 l 0.04098,-0.184508 h -6.281323 z m 6.568184,-5.000451 c 0.491859,0 0.922248,-0.338233 1.024698,-0.819798 0.04098,-0.194705 0,-0.389408 -0.12294,-0.543034 -0.122941,-0.153725 -0.307449,-0.235685 -0.502154,-0.235685 h -4.170457 c -0.768523,0 -1.424302,0.522543 -1.588223,1.270578 l -0.07176,0.327939 z"
     id="path94"
     style="fill:#ffffff;fill-opacity:1;stroke-width:0.102469" />
  <path
     class="st1"
     d="m 39.43016,30.241359 4.057714,-17.993486 h 5.021039 l -0.07176,0.317644 c 0.604603,-0.174214 1.424301,-0.317644 2.51047,-0.317644 h 3.094584 c 1.393617,0 2.694881,0.624994 3.576148,1.721457 0.870974,1.086168 1.198913,2.500275 0.891464,3.863107 l -1.178323,5.246331 c -0.635388,2.81792 -3.094585,4.795551 -5.994464,4.795551 h -3.617129 c -1.250187,0 -2.090375,-0.194705 -2.643704,-0.409899 l -0.635288,2.797429 z m 9.365613,-13.505385 c -0.768523,0 -1.424302,0.522644 -1.588222,1.270579 l -1.024698,4.54967 c -0.04098,0.194705 0,0.399605 0.12294,0.553329 0.122939,0.153725 0.307448,0.245881 0.512349,0.245881 h 4.108987 c 0.768523,0 1.424302,-0.522545 1.598517,-1.270579 l 1.024698,-4.549571 c 0.04098,-0.194705 0,-0.399703 -0.122941,-0.553329 -0.12294,-0.153725 -0.307448,-0.24598 -0.512348,-0.24598 z"
     id="path100"
     style="fill:#ffffff;fill-opacity:1;stroke-width:0.102469" />
  <path
     class="st1"
     d="m 4.5805309,28.632647 c -1.393617,0 -2.6949794,-0.625094 -3.5761483,-1.721556 -0.87097359,-1.086168 -1.19891257,-2.500176 -0.89146357,-3.863009 l 0.1126455,-0.512349 0.53283898,-0.03078 H 5.2466044 l -0.184509,0.829994 c -0.04098,0.194704 0,0.399703 0.12294,0.553328 0.123039,0.153725 0.3074491,0.24598 0.5123489,0.24598 h 8.4229737 c 0.768523,0 1.424302,-0.522645 1.598517,-1.270677 l 0.389408,-1.731653 c 0.07167,-0.297155 0,-0.614799 -0.194703,-0.860778 -0.194705,-0.24588 -0.481664,-0.379114 -0.789014,-0.379114 H 6.9577668 c -1.496067,0 -2.8895848,-0.666074 -3.8323229,-1.844397 C 2.1930004,16.879405 1.8445715,15.373143 2.1725105,13.90786 L 2.5516249,12.206893 C 3.1972084,9.3991689 5.666699,7.4318318 8.5562839,7.4318318 h 9.9087451 c 1.403813,0 2.705176,0.6250936 3.57615,1.7214571 0.870974,1.0964621 1.198911,2.5002751 0.881268,3.8631081 l -0.112745,0.512348 -0.522545,0.02049 h -4.447221 l 0.184509,-0.829992 c 0.04098,-0.194705 0,-0.399704 -0.12294,-0.553329 -0.123039,-0.153725 -0.307449,-0.245979 -0.512348,-0.245979 H 8.9558883 c -0.7684245,0 -1.4243024,0.522644 -1.5882225,1.270676 l -0.2151944,0.973425 c -0.071765,0.297154 0,0.614799 0.1947045,0.860678 0.1947045,0.245979 0.4815644,0.379213 0.7890134,0.379213 h 9.2836527 c 1.219402,0 2.356845,0.543036 3.115074,1.495969 0.758228,0.953032 1.045188,2.18263 0.768523,3.371248 l -0.819798,3.576148 c -0.645484,2.807625 -3.104778,4.775061 -5.984168,4.775061 z"
     id="path106"
     style="fill:#ffffff;fill-opacity:1;stroke-width:0.102469" />
</svg>
