<?xml version="1.0" encoding="UTF-8" standalone="no"?>
<svg
   version="1.1"
   width="300"
   height="99.564453"
   id="svg12"
   xmlns="http://www.w3.org/2000/svg"
   xmlns:svg="http://www.w3.org/2000/svg">
  <defs
     id="defs12" />
  <path
     id="path1"
     style="display:inline;fill:#ffffff"
     d="m 247.93359,0 c -10.833,0 -20.02714,6.4783904 -23.74414,15.400391 l -9.42383,27.470703 -0.0371,-41.4511721 -45.70899,-0.023437 c -8.262,0 -15.6882,3.2236406 -21.1582,8.5566406 l 0.0156,-8.5195312 h -46.80078 c -8.716998,0 -16.644451,3.7165935 -22.189451,9.5585937 V 1.3964844 l -44.111328,0.037109 c -19.042,-0.016 -34.66059412,14.8688286 -34.68359413,34.5488286 0,9.111 3.98151563,17.374094 9.85351563,23.496094 L 0,59.462891 v 40.08789 l 44.441406,-0.0078 c 12.487,-0.015 24.86111,-7.549172 29.16211,-16.576172 l 0.128906,-0.371094 c 4.969,10.036 15.339797,16.955078 27.341798,16.955078 l 46.73242,-0.0078 v -8.648438 h 0.002 c 5.508,5.349 13.01874,8.65625 21.30274,8.65625 L 300,99.564453 271.73242,15.232422 C 267.87142,6.2734217 258.81259,0 247.93359,0 Z m -0.008,6.9414062 c 8.468,0 15.62102,5.2582968 17.79102,12.4042968 l 24.76172,73.261719 h -47.6131 V 80.871094 h 31.28711 L 253.94922,21.349609 c -0.994,-2.344 -3.32892,-4.005859 -6.04492,-4.005859 -2.731,0 -5.05407,1.660531 -6.03907,4.019531 l -24.26171,71.244141 h -9.69532 v 0.0098 l -38.74609,-0.01563 c -13.011,10e-7 -23.64649,-10.522093 -23.64649,-23.496093 V 31.794922 c 0,-12.973 10.54465,-23.4804689 23.55665,-23.4804689 H 207.9082 V 20.064453 h -38.74609 c -6.486,0 -11.74219,5.236469 -11.74219,11.730469 v 37.308594 c 0,6.488 5.29444,11.767578 11.77344,11.767578 h 26.94726 V 49.046875 H 174.61133 V 37.326172 h 33.29687 v 47.158203 l 22.21875,-65.167969 c 2.186,-7.14 9.31783,-12.3749998 17.79883,-12.3749998 z M 34.609375,8.3144531 h 37.410156 l 0.01367,11.7812499 -37.431641,0.0078 c -8.77,0 -15.884765,7.094984 -15.884765,15.833984 0,8.763 7.114766,15.855469 15.884765,15.855469 l 9.779297,0.105469 c 7.26,-1e-6 13.132813,5.850078 13.132813,13.080078 0,7.238 -5.872813,13.09375 -13.132813,13.09375 H 6.8808594 L 6.8652344,66.373047 44.289062,66.34375 c 0.736,0 1.359376,-0.597797 1.359376,-1.341797 -10e-7,-0.758 -0.623376,-1.359375 -1.359376,-1.359375 l -9.679687,-0.01367 c -15.317,0 -27.7578125,-12.381156 -27.7578125,-27.660156 0,-15.279 12.4408125,-27.6542969 27.7578125,-27.6542969 z m 66.548825,0 h 40.00196 V 20.072266 l -40.00196,-0.0059 c -6.501997,0 -11.828122,5.23461 -11.828122,11.59961 v 37.4375 c 0,6.616 5.326125,11.798828 11.828122,11.798828 l 39.82813,-0.01367 0.008,11.728516 -39.83594,-0.01563 C 88.140203,92.601563 77.595703,82.079469 77.595703,69.105469 V 31.794922 c 0,-12.973 10.5445,-23.4804689 23.562497,-23.4804689 z M 247.93359,20.066406 c 1.678,0 3.11114,1.078266 3.61914,2.572266 l 18.80665,55.5625 h -27.53907 l 0.0234,-10.447266 -8.42969,24.853516 h -13.88281 l 23.7832,-69.96875 c 0.522,-1.494 1.94214,-2.572266 3.61914,-2.572266 z m -40.02734,2.738282 0.0156,11.714843 h -33.25977 c -2.785,0.068 -2.77734,2.798828 -2.77734,2.798828 l 0.0625,26.263672 c 0,1.51 1.23609,2.761719 2.74609,2.761719 h 6.91797 l -0.0215,-2.761719 h -6.94922 V 51.822266 h 18.72266 v 26.294922 h -24.20117 c -4.961,0 -8.98047,-4.042672 -8.98047,-9.013672 h -0.002 V 31.794922 c 0,-4.961 4.01947,-8.982422 8.98047,-8.982422 z M 101.1582,22.8125 h 40.00196 v 11.775391 h -34.46485 c -2.761,0 -2.79883,2.738281 -2.79883,2.738281 h 28.75391 V 49.046875 H 92.183594 l 0.01367,-17.251953 c 0,-4.961 3.991937,-8.982422 8.960936,-8.982422 z m -66.556638,0.02344 h 37.431641 l -0.01367,11.736328 -37.410156,-0.0078 c -0.767,0 -1.388672,0.630297 -1.388672,1.404297 0,0.774 0.621672,1.402344 1.388672,1.402344 l 9.734375,-0.05273 c 15.333,0 27.757812,12.389594 27.757812,27.683594 0,15.264 -12.424812,27.650391 -27.757812,27.650391 L 6.8652344,92.691406 6.8808594,80.826172 H 44.380859 c 8.786,0 15.894532,-7.100656 15.894532,-15.847656 0,-8.741 -7.109532,-15.826172 -15.894532,-15.826172 l -9.779297,-0.128906 c -7.237999,-10e-7 -13.125,-5.855938 -13.125,-13.085938 0,-7.223 5.888,-13.101562 13.125,-13.101562 z m 57.582032,29.001953 h 40.464846 v 11.74414 h -28.75196 c 0.038,2.761 2.79883,2.775391 2.79883,2.775391 h 34.29688 l -0.008,11.675781 -39.82618,0.01758 c -4.953997,0 -8.974606,-3.998312 -8.974606,-8.945312 z m 155.726566,0.978515 -4.17578,12.314453 h 8.31835 z" />
</svg>
