<?xml version="1.0" encoding="UTF-8" standalone="no"?>
<!-- Created with Inkscape (http://www.inkscape.org/) -->

<svg
   width="99.483101mm"
   height="56.05859mm"
   viewBox="0 0 99.483101 56.05859"
   version="1.1"
   id="svg1"
   xml:space="preserve"
   xmlns="http://www.w3.org/2000/svg"
   xmlns:svg="http://www.w3.org/2000/svg"><defs
     id="defs1" /><g
     id="layer1"
     transform="translate(-56.49821,-68.204529)"><path
       style="fill:#ffffff;stroke-width:1.1751;fill-opacity:1"
       d="m 59.635239,124.1528 c -1.12653,-0.26447 -2.233158,-1.20198 -2.779085,-2.3544 l -0.31688,-0.66892 -0.02868,-5.68018 c -0.0278,-5.50607 -0.02274,-5.68753 0.16532,-5.91977 l 0.194005,-0.2396 h 4.942432 4.942431 l 0.190193,0.23488 c 0.180672,0.22313 0.190194,0.44902 0.190194,4.51197 v 4.27707 l 0.338272,0.33828 c 0.21448,0.21448 0.434745,0.33826 0.601892,0.33826 0.339959,0 0.816368,-0.24741 0.947232,-0.49194 0.141243,-0.26392 0.141243,-12.38259 0,-12.6465 -0.254996,-0.47645 -0.407621,-0.49194 -4.849155,-0.49194 -3.538041,0 -4.24695,-0.0241 -4.705935,-0.16009 -1.43462,-0.42501 -2.571901,-1.6482 -2.882638,-3.10038 -0.06502,-0.30385 -0.09092,-3.802313 -0.07312,-9.877706 l 0.02756,-9.407228 0.370689,-0.74995 c 0.453209,-0.916908 1.115095,-1.566586 2.044644,-2.006932 l 0.668917,-0.31689 h 8.556306 8.556305 l 0.578748,0.233505 c 0.815259,0.328922 1.766169,1.240144 2.182807,2.091704 l 0.322695,0.659549 0.02836,6.332658 0.02835,6.332657 -0.265625,0.208933 c -0.26151,0.205713 -0.340014,0.208944 -5.066544,0.208944 -4.577858,0 -4.811832,-0.0082 -5.035799,-0.190095 l -0.234878,-0.190108 -0.04974,-4.475703 c -0.04677,-4.207863 -0.06099,-4.488113 -0.237517,-4.683062 -0.245293,-0.270873 -0.779385,-0.366973 -1.160991,-0.20891 -0.617367,0.255726 -0.591331,-0.03255 -0.591331,6.546479 v 6.007072 l 0.338272,0.338277 0.338273,0.338264 h 4.227877 c 3.957685,0 4.269367,0.01281 4.877124,0.200531 1.092529,0.337454 2.009068,1.161291 2.544067,2.286771 l 0.260116,0.54721 v 9.45172 9.45174 l -0.268266,0.57239 c -0.311619,0.6649 -1.112974,1.55298 -1.724893,1.91159 -0.946975,0.55497 -0.882687,0.55138 -9.693173,0.54052 -4.493264,-0.006 -8.284883,-0.0504 -8.498814,-0.1007 z m 25.184209,0.002 c -1.324196,-0.31208 -2.49843,-1.40863 -2.952822,-2.75749 -0.203898,-0.60526 -0.205641,-0.72622 -0.205641,-14.27281 0,-14.93821 -0.02723,-14.211927 0.574939,-15.338344 0.378804,-0.708598 1.2545,-1.55856 1.962105,-1.904463 l 0.596952,-0.291802 h 3.880185 3.880186 l 0.652841,0.309357 c 1.210413,0.573567 2.231634,1.941515 2.482933,3.325961 0.06449,0.35528 0.09078,4.94458 0.074,12.917091 -0.02549,12.11053 -0.03002,12.36896 -0.219158,12.50726 -0.155623,0.11375 -0.720729,0.1412 -2.910138,0.1412 h -2.717012 v 0.94015 0.94016 l 2.370934,0.0298 2.370933,0.0298 0.365199,0.27875 c 0.49977,0.38146 0.702328,0.80356 0.706456,1.47213 0.0043,0.71331 -0.334462,1.26564 -0.963265,1.57004 -0.425848,0.20616 -0.54178,0.21081 -5.006035,0.20104 -2.513549,-0.006 -4.738164,-0.0496 -4.943589,-0.098 z m 4.460748,-12.39267 c 0.11549,-0.0757 0.261655,-0.25098 0.32481,-0.38958 0.08342,-0.18309 0.114725,-2.23036 0.114455,-7.48537 -3.6e-4,-6.994104 -0.0068,-7.243883 -0.194226,-7.55129 -0.133082,-0.218262 -0.323826,-0.356878 -0.608445,-0.442143 -0.366976,-0.10999 -0.456077,-0.101999 -0.77582,0.06921 -0.740517,0.39649 -0.709142,0.04465 -0.709142,7.953783 0,6.52606 0.01324,7.09045 0.173956,7.41215 0.31589,0.63233 1.071994,0.82798 1.674414,0.43327 z m 8.122651,12.34581 -0.22112,-0.15488 v -17.05693 c 0,-16.924557 0.0015,-17.058764 0.198982,-17.256193 0.194478,-0.19448 0.33164,-0.198992 6.055591,-0.198992 5.77432,0 5.86029,0.0023 6.11876,0.206207 l 0.26215,0.206207 v 16.988551 16.98855 l -0.23027,0.21632 -0.23028,0.21634 h -5.86634 c -5.148482,0 -5.89341,-0.0189 -6.087473,-0.15488 z m 14.493863,-0.0317 -0.23891,-0.19346 v -17.0304 -17.03069 l 0.23488,-0.190191 c 0.22111,-0.179038 0.43593,-0.190202 3.66288,-0.190202 2.04578,0 3.50135,0.03925 3.60996,0.09742 0.36374,0.194668 0.40189,0.615507 0.40189,4.432459 v 3.704214 l 1.567,0.0463 c 1.30885,0.03866 1.66128,0.08284 2.13927,0.267841 1.06155,0.41084 1.83429,1.188885 2.29285,2.308549 l 0.21912,0.53502 0.0287,9.70047 c 0.0194,6.56226 -0.006,9.92349 -0.0783,10.38986 -0.2073,1.33641 -1.16423,2.57516 -2.36338,3.05939 -0.56996,0.23017 -0.58827,0.23097 -5.90437,0.25903 -5.15602,0.0273 -5.34055,0.0217 -5.57155,-0.16533 z m 7.44932,-5.38504 c 0.17921,-0.10929 0.37033,-0.31568 0.42471,-0.45873 0.0632,-0.16616 0.0892,-2.91755 0.0722,-7.61927 l -0.0268,-7.3592 -0.32492,-0.29028 c -0.43906,-0.39228 -0.90094,-0.39228 -1.34,0 l -0.32492,0.29028 -0.0268,7.34539 c -0.0201,5.50328 0.002,7.41702 0.0915,7.63107 0.12991,0.31364 0.61763,0.6594 0.93013,0.6594 0.1094,0 0.34561,-0.0894 0.52481,-0.19866 z m 10.91676,5.43247 c -1.14079,-0.36173 -1.97231,-1.07842 -2.46994,-2.12884 l -0.31583,-0.66666 -0.0259,-20.56903 c -0.0257,-20.485623 -0.025,-20.569831 0.17412,-20.76894 0.19483,-0.194832 0.32493,-0.19992 5.11754,-0.19992 h 4.91763 l 0.20621,0.262154 0.2062,0.262141 v 18.949745 18.94974 l 0.33827,0.33828 c 0.42352,0.4235 0.90305,0.4591 1.32268,0.0981 l 0.27914,-0.24011 0.0497,-19.100635 c 0.0484,-18.606311 0.0546,-19.106058 0.23927,-19.310055 0.1878,-0.207512 0.23433,-0.209415 5.09897,-0.209415 4.77677,0 4.9148,0.0059 5.10841,0.19898 0.19689,0.196899 0.19898,0.331637 0.19898,12.834458 v 12.635487 h 2.39232 2.39234 l 0.24421,0.24419 0.2442,0.2442 v 8.94146 8.94145 l -0.23026,0.21632 c -0.2242,0.21063 -0.29833,0.21634 -2.80801,0.21634 h -2.57772 l -0.54985,-0.57694 -0.54987,-0.57692 -0.49746,0.37958 c -0.2736,0.20877 -0.78199,0.46839 -1.12976,0.57693 -0.60977,0.19031 -0.92372,0.1971 -8.80503,0.19069 -6.31048,-0.005 -8.26342,-0.0354 -8.57071,-0.13285 z M 102.4548,87.749386 c -2.2546,-0.305878 -4.186678,-1.266783 -5.774151,-2.871737 -1.885234,-1.906003 -2.810801,-4.170823 -2.810801,-6.877916 0,-2.714143 0.920657,-4.966954 2.810801,-6.877916 1.336554,-1.351273 2.747739,-2.166722 4.579101,-2.645987 1.3119,-0.34333 3.32217,-0.363272 4.60831,-0.04571 1.81743,0.448724 3.31489,1.271683 4.63019,2.544623 3.98706,3.85867 3.95268,10.2698 -0.0757,14.118505 -1.3088,1.250414 -2.99029,2.145335 -4.68829,2.495186 -0.96723,0.199298 -2.45766,0.272448 -3.27945,0.160954 z"
       id="path1" /></g></svg>
