<?xml version="1.0" encoding="UTF-8" standalone="no"?>
<!-- Created with Inkscape (http://www.inkscape.org/) -->

<svg
   width="100.54205mm"
   height="19.793211mm"
   viewBox="0 0 100.54205 19.793211"
   version="1.1"
   id="svg1"
   xml:space="preserve"
   xmlns="http://www.w3.org/2000/svg"
   xmlns:svg="http://www.w3.org/2000/svg"><defs
     id="defs1" /><path
     id="path11"
     style="fill:#ffffff;fill-opacity:1;fill-rule:evenodd;stroke:none;stroke-width:0.331335;stroke-linecap:round;stroke-linejoin:round"
     d="M 10.150462,6.5307854e-5 C 2.9063107,0.10261603 0.00190797,6.2448251 0,10.595418 l 4.2457193,-0.02549 0.3347498,6.96e-4 C 4.5476241,10.34057 4.5309878,10.108494 4.5306897,9.8761113 4.5330695,9.6006548 4.5584156,9.3258768 4.6064406,9.0546286 L 4.2457193,9.0538799 1.7213631,9.0796092 C 1.7244131,7.4164478 4.188719,1.3179074 10.173788,1.4237129 16.158859,1.5295183 18.035354,7.409766 18.035354,7.409766 h 1.541483 c 0,0 -2.304546,-7.43517446 -9.426375,-7.409700692146 z M 15.607743,9.0767802 c 0.0437,0.2642236 0.06587,0.5315506 0.06637,0.7993586 -2.29e-4,0.2385412 -0.01768,0.4767552 -0.05219,0.7127862 l 2.670501,0.0065 c 0,0 -0.829065,7.74878 -8.141966,7.681925 C 3.6339919,18.28757 1.92697,12.214103 1.92697,12.214103 l -1.67013644,-0.02574 c 0,0 1.79091604,7.569176 9.89122344,7.60473 8.100305,0.03555 9.745202,-7.982127 9.711583,-10.7134275 h -3.674065 z" /><path
     id="circle11"
     style="fill:#ffffff;fill-opacity:1;fill-rule:evenodd;stroke-width:0.3484;stroke-linecap:round;stroke-linejoin:round"
     d="m 9.9705824,3.5817895 a 6.294414,6.294414 0 0 0 -6.29459,6.2943493 6.294414,6.294414 0 0 0 6.29459,6.2943502 A 6.294414,6.294414 0 0 0 16.264932,9.8761388 6.294414,6.294414 0 0 0 9.9705824,3.5817895 Z m 0,1.335872 A 4.958457,4.958457 0 0 1 14.929058,9.8761388 4.958457,4.958457 0 0 1 9.9705824,14.834617 4.958457,4.958457 0 0 1 5.0121051,9.8761388 4.958457,4.958457 0 0 1 9.9705824,4.9176615 Z" /><path
     style="fill:#ffffff;fill-opacity:1;fill-rule:evenodd;stroke:none;stroke-width:0.331335;stroke-linecap:round;stroke-linejoin:round"
     d="m 5.9262271,10.868826 c 8e-7,-1.0445803 0.6876421,-2.370745 2.0460225,-2.3707439 1.3583807,8e-7 1.9124616,1.5714109 1.9124616,1.5714109 0,0 0.5827098,-1.571412 1.9473028,-1.5714109 1.364592,8e-7 2.076149,1.4442465 2.067065,2.3707439 H 12.718705 C 12.691435,10.151245 12.298378,9.8002005 11.832014,9.7969939 11.36565,9.7937823 10.929292,10.169411 10.920209,10.868826 H 8.9672974 c 0,-0.681249 -0.520293,-1.0627315 -0.9950478,-1.0536645 -0.4747545,0.00906 -0.9124476,0.3724155 -0.9215309,1.0536645 z"
     id="path15" /><path
     id="path44"
     style="fill:#ffffff;fill-opacity:1;fill-rule:evenodd;stroke:none;stroke-width:0.926573;stroke-linecap:round;stroke-linejoin:round"
     d="M 36.263475,13.745049 V 4.8855548 h 8.691476 V 6.341901 h -6.562009 v 2.2224992 h 6.562009 v 1.294248 h -6.562009 v 2.4017488 h 6.562009 v 1.484652 z M 60.072844,4.8855548 h 1.800675 v 0 8.8594942 0 h -1.800675 -1.3e-5 V 4.8855548 Z M 90.184676,13.745049 V 4.8855548 h 2.190943 l 3.129889,6.4349042 2.949861,-6.4349042 h 2.086681 V 13.745049 H 98.873406 V 8.5644002 L 96.364565,13.745049 H 94.651543 L 91.925007,8.5644002 v 5.1806488 z m -43.05902,0 V 4.8855548 h 2.190939 l 3.12989,6.4349042 2.949874,-6.4349042 H 57.48302 V 13.745049 H 55.814382 V 8.5644002 l -2.50884,5.1806488 H 51.592517 L 48.865983,8.5644002 V 13.745049 Z M 82.62599,4.8854115 c -3.259429,-1.931e-4 -5.901854,1.9831354 -5.901851,4.4297601 -3e-6,2.4466244 2.642422,4.4299524 5.901851,4.4297594 3.259173,-8.3e-5 5.901192,-1.983331 5.901189,-4.4297594 3e-6,-2.4464295 -2.642016,-4.4296772 -5.901189,-4.4297601 z m 0,1.375935 c 2.246783,7.8e-5 4.068068,1.3673251 4.067953,3.0538251 1.15e-4,1.6864994 -1.82117,3.0537464 -4.067953,3.0538244 -2.247041,2e-4 -4.068736,-1.367129 -4.068618,-3.0538244 -1.18e-4,-1.6866965 1.821577,-3.0540249 4.068618,-3.0538251 z M 63.519071,9.225026 c 0.02383,-2.4252657 2.623606,-4.3394712 5.771859,-4.3394712 3.148252,0 5.76586,2.1547631 5.76586,3.6788454 H 73.122191 C 73.22383,7.827762 71.852603,6.341901 69.29093,6.3419141 c -2.561676,0 -4.054915,1.1985193 -4.064442,2.8831119 -0.0091,1.684592 1.432194,3.035371 4.064442,3.035385 2.632248,1.2e-5 3.831261,-1.411111 3.831261,-2.4017628 h 1.934599 c -0.02538,1.6256788 -2.617608,3.8864008 -5.76586,3.8864008 -3.148253,0 -5.795727,-2.094758 -5.771859,-4.520023 z M 23.530542,9.8586482 c 0,-2.2547865 1.608658,-5.0069938 5.575339,-4.99005 3.966683,0.016916 5.359674,2.7352635 5.359674,2.7352635 h -2.249751 c 0,0 -1.051398,-1.2894198 -3.109923,-1.262026 -3.435413,0.04568 -3.505375,2.2353048 -3.505375,2.2353048 h 8.941248 c 0,1.2427879 -0.27916,5.4339465 -5.435873,5.3850665 -4.04501,0.02993 -5.537473,-2.641735 -5.537473,-2.641735 l 2.10206,-6.5e-5 c 0,0 0.832733,1.208696 3.486216,1.219329 2.754306,-0.03305 3.531945,-1.80763 3.42918,-2.6811399 z" /></svg>
