<?xml version="1.0" encoding="UTF-8" standalone="no"?>
<svg
   version="1.1"
   id="Layer_1"
   x="0px"
   y="0px"
   viewBox="0 0 380.00082 131.06199"
   width="380.00082"
   height="131.062"
   xmlns="http://www.w3.org/2000/svg"
   xmlns:svg="http://www.w3.org/2000/svg">
  <defs
     id="defs1" />
  <style
     type="text/css"
     id="style2">
	.st0{fill:#CBCBCA;}
	.st1{fill:#30308F;}
	.st2{fill:#EA2427;}
	.st3{fill:#EC2024;}
	.st4{fill:#FFFFFF;}
	.st5{stroke:#FFFFFF;stroke-width:6.1889;stroke-miterlimit:10;}
	.st6{fill:#FFFFFF;stroke:#231F20;stroke-width:6.1889;stroke-miterlimit:10;}
	.st7{fill:#FFFFFF;stroke:#000000;stroke-width:6.1889;stroke-miterlimit:10;}
	.st8{stroke:#DCE0DF;stroke-width:6.1889;stroke-miterlimit:10;}
</style>
  <path
     class="st1"
     d="M 81.473843,98.26764 79.066751,85.82605 73.509637,98.25773 h 7.964206 M 168.70369,129.8471 H 155.54888 L 153.79556,90.21429 136.68838,129.8471 H 127.9119 L 120.59156,94.01808 109.19007,129.8471 H 86.813032 L 83.445084,110.68942 H 68.23979 L 59.6119,129.8471 H 45.872653 L 74.094075,65.79666 H 90.329566 L 98.957463,117.564 115.77738,65.79666 h 13.01613 l 6.42881,35.096 14.91804,-35.096 h 15.78973 l 2.7736,64.05044"
     id="path6"
     style="fill:#ffffff;fill-opacity:1;stroke-width:0.0990573" />
  <path
     d="m 206.43461,129.8471 2.19907,-13.73924 H 185.6722 l 1.82266,-11.4114 h 19.96995 l 2.18917,-13.74915 H 189.476 l 1.75332,-11.4015 h 22.96148 l 2.18916,-13.74915 H 179.9665 l -10.23261,64.05044 h 36.70072"
     class="st1"
     id="polyline8"
     style="fill:#ffffff;fill-opacity:1;stroke-width:0.0990573" />
  <path
     d="m 377.38768,65.79666 h -15.35387 l -13.01613,20.911 -8.19204,-20.911 h -15.05671 l 15.50246,33.77854 -4.77456,30.2719 h 13.15481 l 4.04154,-26.75537 23.6945,-37.29507"
     class="st1"
     id="polyline10"
     style="fill:#ffffff;fill-opacity:1;stroke-width:0.0990573" />
  <path
     class="st1"
     d="m 299.24139,117.65316 c 6.96373,3.12029 15.48266,-2.99154 19.0289,-13.6501 3.54625,-10.65857 0.79246,-21.82232 -6.17126,-24.93273 -6.96374,-3.11039 -15.48266,3.00144 -19.02891,13.6501 -3.55616,10.65857 -0.78255,21.82232 6.17127,24.93273 M 279.32097,92.3143 c 4.08116,-17.70154 19.21711,-29.330867 33.80825,-25.953014 14.58123,3.367944 23.09025,20.455334 19.00909,38.156874 -4.09107,17.71144 -19.22702,29.33086 -33.80825,25.96291 -14.58123,-3.37785 -23.09025,-20.45533 -19.00909,-38.16677"
     id="path12"
     style="fill:#ffffff;fill-opacity:1;stroke-width:0.0990573" />
  <path
     class="st1"
     d="M 17.789912,71.50236 C 5.259164,79.25854 -0.77342514,91.09589 0.83130296,107.18279 c 1.86227714,18.6624 26.03225604,30.4205 46.49749204,18.57324 1.792938,-1.0401 1.08963,-0.8717 1.753315,-1.46604 L 53.173176,98.26764 H 28.76546 l -1.872183,11.98593 h 10.202901 l -1.168877,6.43872 c -5.84438,2.34766 -15.789732,1.46606 -20.039289,-6.14155 -2.684453,-4.81418 -5.170791,-15.56189 6.141552,-25.44781 9.212328,-8.04345 25.150646,-9.4996 34.362974,-5.25995 0,0 1.168875,-6.73589 2.050485,-13.02603 C 40.751392,60.685304 27.00224,65.79666 17.789912,71.50236"
     id="path14"
     style="fill:#ffffff;fill-opacity:1;stroke-width:0.0990573" />
  <path
     class="st1"
     d="m 236.40934,66.163172 -10.16327,63.565058 c 0,0 21.03977,0 29.60823,0 12.19394,0 30.01435,-17.96899 13.78877,-32.65918 16.69115,-17.26569 0.14859,-30.767198 -8.70713,-30.905878 -7.11232,-0.118868 -24.67518,0 -24.67518,0 h 0.14858 m 7.26091,38.454038 c 0,0 2.75379,0 11.02507,0 10.45055,0 10.16329,12.76849 -1.44623,12.76849 -7.2609,0 -11.60951,0 -11.60951,0 l 2.03067,-12.76849 m 4.06135,-24.96244 c 0,0 0.28726,0 8.55855,0 9.29157,0 7.39957,11.90669 -1.45615,11.90669 -7.26089,0 -9.14299,0 -9.14299,0 l 2.04059,-11.90669"
     id="path16"
     style="fill:#ffffff;fill-opacity:1;stroke-width:0.0990573" />
  <path
     class="st1"
     d="m 148.02053,69.62027 c -0.19812,-2.11982 1.87218,-3.704741 3.18964,-5.339186 7.02316,-8.746759 14.21472,-17.305309 21.65393,-25.665745 0.50519,-0.574532 -0.15849,-1.426424 -0.84199,-1.079724 -7.67694,3.982103 -15.31426,8.28119 -23.30818,11.68876 -4.1406,1.674069 -8.59817,4.645787 -12.70905,1.426425 -0.0396,-0.02972 -0.0792,-0.06934 -0.11887,-0.108963 -3.00143,-3.209456 -2.15945,-5.458057 -0.65378,-8.409963 0.31699,-0.614156 -0.35661,-1.258028 -0.96086,-0.921233 -9.71751,5.596737 -19.71239,10.826961 -30.20256,14.977462 -1.61464,0.643873 -3.30851,0.841987 -4.942957,0.396229 -1.08963,-0.297171 -2.01086,-1.02029 -2.65474,-1.951429 -1.475949,-2.169354 -3.209452,-4.467484 -1.634441,-7.033067 5.091551,-9.004308 13.689718,-15.443032 21.366648,-22.159117 3.16984,-2.644828 6.47836,-5.141073 9.68781,-7.726467 0.60425,-0.485381 0.90143,-0.376418 1.29765,0.227831 0.99057,1.475953 2.02077,2.92219 3.04106,4.378333 0.21792,0.307077 0.14858,0.733023 -0.1585,0.95095 -7.03306,5.141073 -13.70952,10.787338 -20.30674,16.473227 -2.82313,2.615112 -5.72551,5.299565 -8.24156,8.192037 -1.00048,2.71417 2.09011,1.129254 3.32832,0.693402 17.84022,-6.696274 33.97665,-17.235969 48.9343,-28.914823 0.79246,-0.386324 1.68398,-2.169355 2.49625,-0.990573 0.8717,1.29765 1.78302,2.575489 2.68445,3.853328 0.43585,0.614155 0.3467,1.456142 -0.20802,1.97124 -6.46844,6.062307 -12.67933,12.718956 -17.60248,20.098724 -0.81227,2.238695 3.90286,0.198115 4.26937,-0.0099 15.06661,-7.785903 28.76624,-17.968993 43.922,-25.556781 1.52549,-0.74293 1.99106,-0.554721 3.02125,0.822175 0.71321,0.941044 1.3868,1.9019 2.07029,2.862756 0.44576,0.624061 0.38632,1.475954 -0.14858,2.020769 -3.62549,3.783988 -7.18165,7.647223 -10.67838,11.55008 -0.525,0.594343 0.18821,1.466047 0.87171,1.050007 11.08451,-6.735895 22.94166,-12.233575 35.73987,-14.828876 2.9321,-0.683495 5.7156,1.604728 6.5873,4.120783 1.7137,4.992487 -2.77359,8.211849 -6.15145,11.421306 -10.82696,9.975069 -28.71671,24.080827 -43.14935,13.164714 -0.3368,-0.287267 -0.66369,-0.554722 -1.12926,-0.158492 -3.68493,3.179739 -7.40948,6.309949 -11.04489,9.549123 -4.19012,3.823611 -7.92458,8.132598 -11.73829,12.342538 -1.33727,1.86227 -5.47787,-2.37738 -5.57692,-3.37786 z m 69.06274,-36.849311 c 0.63396,-0.673589 1.29766,-1.317462 1.91181,-2.010863 0.44576,-0.505192 -0.0198,-1.29765 -0.66368,-1.149065 -16.04729,3.833518 -34.81864,16.245397 -35.18516,16.502945 -0.43585,0.297172 -0.36651,0.980668 0.11887,1.198594 11.86706,5.398622 25.43791,-6.983539 33.78844,-14.501988 0.01,-0.0099 0.0198,-0.01981 0.0297,-0.03962 z"
     id="path20"
     style="fill:#ffffff;fill-opacity:1;stroke-width:0.0990573" />
  <path
     class="st1"
     d="m 379.54714,47.748422 c -0.3467,-0.822176 -0.71322,-1.525482 -1.75332,-1.802843 -7.71656,-1.991051 -12.50103,-3.080682 -23.5162,-3.239173 -15.0468,-0.20802 -30.01436,0.792458 -44.92249,2.763698 -2.49623,0.326889 -4.40805,-2.179261 -3.41746,-4.497201 0.71321,-1.664162 1.43632,-3.318419 2.15944,-5.032111 0.74293,-1.475953 0.81227,-2.951906 0.68349,-4.467483 -0.10896,-1.248122 -0.58443,-2.43681 -1.34717,-3.427382 -2.14955,-2.813227 -4.68541,-5.309471 -6.78543,-8.162321 -0.59435,-0.812269 -0.80237,-1.852372 -0.5151,-2.813227 0.32689,-1.099536 0.87171,-2.199072 0.96086,-3.288702 1.24812,-8.5387393 -13.19443,-10.8368683 -11.0647,-1.030196 0.68349,3.833517 4.62597,5.576925 2.46653,7.013256 -13.99679,11.738289 -44.27861,36.294591 -63.07969,32.332299 -1.46604,-0.08915 -1.82265,-1.426425 -1.64434,-2.694357 0.22783,-1.5552 4.03162,-6.854765 5.08164,-6.44863 9.52931,2.842944 19.39541,-2.060392 27.39924,-6.953822 3.82361,-2.416998 7.37976,-5.190602 10.83687,-8.102886 1.02028,-0.851893 1.03019,-2.050487 0.96085,-3.219362 -0.32689,-5.517491 -5.23022,-7.686846 -10.2029,-6.745802 -10.87649,1.168877 -44.44701,21.12892 -39.64273,35.105904 0.70331,2.04058 2.4071,3.566062 4.45758,4.229747 21.01005,6.854764 54.23387,-22.030342 68.91416,-34.491749 0.6934,-0.980668 1.75332,1.644351 2.29813,2.10992 1.05,1.842465 4.86371,5.012299 4.3288,6.953822 -1.5453,5.477868 -5.28965,10.222713 -6.60712,15.789732 -0.30708,2.238695 1.53539,4.89343 2.92219,5.685888 0.68349,0.39623 2.06039,0.475475 3.15003,0.316984 5.67598,-0.81227 11.34205,-1.654257 17.02794,-2.397186 10.75762,-1.228311 21.98081,-2.050487 32.47098,-1.83256 4.57644,0.09906 16.85955,-0.11887 16.85955,2.397186 0,1.83256 -0.35661,2.298129 1.79294,2.129731 2.89247,-0.188208 5.78495,-0.525003 8.68732,-0.525003 2.39719,0.01981 1.23822,-5.170791 1.04011,-5.656171 z M 265.00719,23.07325 c 0,0 0,0 0,0 1.26793,-0.03962 1.82265,1.594823 0.78255,2.327847 -6.85477,4.784467 -18.63267,15.066614 -29.41011,12.857636 4.91325,-5.507585 20.53458,-14.799159 28.62756,-15.185483 z"
     id="path22"
     style="fill:#ffffff;fill-opacity:1;stroke-width:0.0990573" />
  <path
     class="st1"
     d="m 51.518919,29.511974 c -2.476432,-0.931138 -4.625976,-2.664641 -5.834475,-5.022204 -3.47691,-6.765613 0.128775,-12.372256 8.578362,-14.7199143 17.810501,-5.923626 40.999812,-14.521798 58.998524,-6.537781 1.47595,0.653778 2.73397,1.753314 3.49671,3.169834 4.54673,8.4793033 -3.66511,15.9482243 -13.71943,17.5628573 -0.74293,0.118869 -1.49576,-0.257548 -1.86227,-0.921233 -1.426427,-2.545772 -1.485857,-5.299564 -0.32689,-6.151457 2.41699,-1.773126 8.21185,-2.367469 11.46092,-4.824091 0.36652,-0.277359 0.40614,-0.782552 0.10896,-1.129252 -9.15289,-10.45054531 -47.418713,2.357563 -62.009852,8.717041 -5.953344,3.982103 26.577071,9.271763 30.895968,11.094417 6.062306,2.565584 12.104801,7.993923 9.479783,14.274155 C 86.684257,54.840923 63.683155,55.900837 51.72694,57.535282 38.978266,59.27869 26.130535,60.180112 13.302616,61.240024 6.7252117,62.319749 -2.4673048,63.201359 0.61337686,53.949408 0.80158576,53.374876 1.1780036,52.859778 1.6633842,52.513077 4.52614,50.462592 9.6374957,51.225333 11.707793,53.612614 30.766417,52.404114 49.815133,50.254571 68.616207,46.91634 108.24903,40.517239 67.863372,35.663433 51.518919,29.511974 Z"
     id="path24"
     style="fill:#ffffff;fill-opacity:1;stroke-width:0.0990573" />
</svg>
