<?xml version="1.0" encoding="UTF-8" standalone="no"?>
<svg
   height="65.185059"
   viewBox="0 0 342.00003 58.666425"
   width="380"
   version="1.1"
   id="svg2"
   xmlns="http://www.w3.org/2000/svg"
   xmlns:svg="http://www.w3.org/2000/svg">
  <defs
     id="defs2" />
  <path
     d="M 39.939032,8.7344711 H 16.909353 q -3.707522,0 -5.45582,1.3804599 -1.7178581,1.380461 -1.7178581,4.382319 0,2.401229 1.4769211,3.602058 1.476921,1.2004 4.400753,1.2004 H 27.94146 q 7.65641,0 10.881628,2.88139 3.255228,2.881818 3.255228,9.605345 0,6.813558 -3.737532,10.025057 -3.73796,3.18149 -11.755348,3.18149 H 1.7778785 V 37.129082 H 25.108515 q 3.97847,0 5.606298,-1.14038 1.6274,-1.170819 1.6274,-3.842139 0,-2.761349 -1.506931,-3.932168 -1.476921,-1.17039 -5.093984,-1.17039 H 14.7392 q -7.655981,0 -11.2130242,-3.031868 Q 0,20.951116 0,14.37721 0,7.3535821 3.707522,4.1120727 7.4450539,0.87013451 15.553329,0.87013451 h 24.385274 z m 6.26909,13.7471549 q 0,-11.375936 5.455819,-16.929073 5.485829,-5.55270867711 16.668844,-5.55270867711 11.273473,0 16.669273,5.61272867711 5.42538,5.613157 5.42538,17.319204 0,11.706046 -5.42538,17.348784 -5.3958,5.643168 -16.668844,5.643168 -11.393942,0 -16.759303,-5.673178 -5.36536,-5.672748 -5.36536,-17.768925 z M 68.332785,7.5636521 q -5.998572,0 -8.982424,3.7220979 -2.953842,3.72167 -2.953842,11.255896 0,8.164008 2.863384,11.976137 2.893822,3.781689 9.072882,3.781689 6.088602,0 9.012434,-3.751679 2.953842,-3.782119 2.953842,-11.616016 0,-7.864337 -2.953842,-11.616017 Q 74.421387,7.5636521 68.332785,7.5636521 Z M 115.05322,8.404361 q -5.78721,0 -8.34921,3.66165 -2.53199,3.662078 -2.53199,12.036156 0,7.263708 2.44153,10.235556 2.44153,2.971419 8.43967,2.971419 h 15.31239 v 7.683848 h -15.76425 q -5.21489,0 -8.19874,-0.87029 -2.98385,-0.900301 -5.60672,-3.00143 -3.405712,-2.701758 -5.123999,-7.023627 -1.687848,-4.352309 -1.687848,-10.385606 0,-11.706046 5.093984,-17.2587551 5.093983,-5.58314739 15.794693,-5.58314739 h 15.49288 V 8.404361 Z m 42.89287,0.3301101 H 146.52171 V 19.839888 h 11.42396 q 4.64169,0 6.45043,-1.26042 1.80832,-1.26042 1.80832,-4.322298 0,-3.03144 -1.77831,-4.2622786 -1.74829,-1.2604203 -6.48044,-1.2604203 z m -20.7382,-7.86433659 h 22.93837 q 8.01781,0 11.75534,3.21192809 3.73839,3.2114995 3.73839,10.0550674 0,5.072548 -2.32148,8.284476 -2.29062,3.2115 -6.63136,4.14181 L 177.7497,44.99299 H 167.25991 L 157.4938,27.644205 H 146.52214 V 44.99299 h -9.31425 z"
     id="path1"
     style="fill:#ffffff;stroke-width:0.428714" />
  <path
     d="M 200.77852,9.6347713 194.29764,26.623436 H 207.4999 Z M 196.19685,0.87013451 H 206.083 L 224.98245,44.993419 h -10.36889 l -4.06893,-10.505646 h -19.26128 l -3.94846,10.505217 h -9.88658 z M 232.0961,8.6144311 H 217.77876 V 0.93015453 h 38.34078 V 8.6144311 H 241.74175 V 44.99299 h -9.64565 z m 46.81133,-0.06002 q -5.06398,0 -7.65641,2.5208409 -2.562,2.521698 -2.83338,7.714286 l 25.80218,0.03001 v 7.683848 h -25.8622 q 0.03,5.763207 2.44153,8.284477 2.44153,2.521269 8.10828,2.521269 h 15.31239 v 7.683848 h -15.76469 q -5.21445,0 -8.19873,-0.87029 -2.98385,-0.900301 -5.6063,-3.00143 -3.40613,-2.701758 -5.12442,-7.023627 -1.68785,-4.352309 -1.68785,-10.385606 0,-11.706046 5.09399,-17.2587551 5.09398,-5.58314739 15.79469,-5.58314739 h 15.49331 V 8.5544111 Z m 60.91731,0.18006 h -23.02839 q -3.70752,0 -5.45582,1.3804599 -1.71829,1.380461 -1.71829,4.382319 0,2.401229 1.47735,3.602058 1.47692,1.2004 4.40075,1.2004 h 12.32811 q 7.65599,0 10.8812,2.88139 3.25566,2.881818 3.25566,9.605345 0,6.813558 -3.73796,10.025057 -3.73753,3.18149 -11.75535,3.18149 h -24.80713 v -7.863908 h 23.33021 q 3.97847,0 5.6063,-1.14038 1.62783,-1.170819 1.62783,-3.842139 0,-2.761349 -1.50693,-3.932168 -1.47735,-1.17039 -5.09442,-1.17039 H 314.6262 q -7.65641,0 -11.21303,-3.031868 -3.5266,-3.06145 -3.5266,-9.634927 0,-7.0236279 3.70752,-10.2651373 3.73753,-3.24193819 11.84538,-3.24193819 h 24.38527 z M 1.6959941,58.665978 V 48.782825 H 11.850523 v 1.683133 H 4.0050497 v 2.206592 h 4.579527 v 1.683133 H 4.004621 v 2.449674 h 7.93979 v 1.860621 z M 18.514031,56.805357 h 2.98428 q 2.383652,0 3.378698,-0.738675 0.994618,-0.738675 0.994618,-2.440671 0,-1.514648 -0.825704,-2.290621 -0.825704,-0.785404 -2.440242,-0.785404 h -4.09165 z m -2.308627,1.860621 v -9.883153 h 6.381842 q 2.73091,0 4.19497,1.271567 1.473491,1.271567 1.473491,3.609346 0,1.38389 -0.572762,2.496404 -0.572334,1.103511 -1.61411,1.739294 -0.647358,0.401706 -1.614109,0.589054 -0.95732,0.177488 -2.459106,0.177488 z m 18.591627,-9.883153 v 8.022532 h 6.578194 v -8.022532 h 2.299624 v 7.545373 q 0,1.356024 -0.506741,1.851617 -0.507169,0.486163 -1.952365,0.486163 h -6.268662 q -1.436193,0 -1.951936,-0.486163 -0.506741,-0.495593 -0.506741,-1.851188 v -7.545802 z m 22.279858,1.767161 h -6.222361 v 6.254942 h 6.222361 v -2.122136 l 2.308627,0.476731 v 1.169104 q 0,1.355595 -0.516172,1.851188 -0.506741,0.486163 -1.942505,0.486163 h -5.921832 q -1.445625,0 -1.952365,-0.486163 -0.50674,-0.495593 -0.50674,-1.851188 v -5.20888 q 0,-1.346163 0.50674,-1.841757 0.50674,-0.495594 1.952365,-0.495594 h 5.921832 q 1.436193,0 1.942505,0.495594 0.516172,0.495594 0.516172,1.841757 v 0.935026 l -2.308627,0.364836 z m 9.272235,4.170104 h 4.345449 l -2.139714,-4.020483 z m -4.438909,3.945888 5.611871,-9.883153 h 2.224599 l 5.687325,9.883153 h -2.590292 l -1.191826,-2.159864 h -6.287954 l -1.154528,2.159864 z m 20.027392,-8.115992 v 8.115992 H 79.62898 v -8.115992 h -4.55166 v -1.767161 h 11.430811 v 1.767161 z m 7.395323,8.115992 v -9.883153 h 2.309056 v 9.883153 z m 7.170677,-7.545802 q 0,-1.346163 0.506312,-1.841757 0.50674,-0.495594 1.952365,-0.495594 h 7.301006 q 1.44562,0 1.95237,0.495594 0.50674,0.495594 0.50674,1.841757 v 5.208451 q 0,1.355595 -0.50674,1.851188 -0.50675,0.486163 -1.95194,0.486163 h -7.301436 q -1.445625,0 -1.952365,-0.486163 -0.506741,-0.495593 -0.506741,-1.851188 z m 2.308198,5.684752 h 7.611395 v -6.254942 h -7.611395 z m 14.753345,1.86105 v -9.883153 h 1.57681 l 6.98248,5.825371 q 0.35626,0.289811 0.62849,0.551327 0.27223,0.252941 0.49731,0.523889 -0.0557,-0.832135 -0.075,-1.178108 -0.0184,-0.345972 -0.0184,-0.53332 v -5.18873 h 2.07412 v 9.883152 h -1.57681 l -7.283,-6.106179 q -0.2628,-0.233649 -0.45958,-0.420568 -0.19721,-0.18692 -0.36613,-0.383271 0.0472,0.457867 0.0656,0.869433 0.0283,0.402134 0.0283,0.701376 v 5.338781 z m 19.26771,-3.945888 h 4.34502 l -2.13971,-4.020483 z m -4.43933,3.945888 5.61187,-9.883153 h 2.2246 l 5.68732,9.883153 h -2.59029 l -1.19183,-2.159864 h -6.28838 l -1.15453,2.159864 z m 16.71471,0 v -9.883153 h 2.30863 v 8.022532 h 7.44248 v 1.860621 z m 32.63245,0 -5.76406,-9.883153 h 2.65074 l 4.03763,7.143668 3.849,-7.143668 h 2.3112 l -5.48111,9.883153 z m 9.79184,0 v -9.883153 h 2.32106 v 9.883153 z m 9.7361,-1.860621 h 2.99972 q 2.39651,0 3.39627,-0.738675 0.99977,-0.738675 0.99977,-2.440671 0,-1.514648 -0.82999,-2.290621 -0.83,-0.785404 -2.45268,-0.785404 h -4.11309 z m -2.32105,1.860621 v -9.883153 h 6.41528 q 2.74506,0 4.21683,1.271567 1.48121,1.271567 1.48121,3.609346 0,1.38389 -0.57576,2.496404 -0.57534,1.103511 -1.62226,1.739294 -0.65122,0.401706 -1.62268,0.589054 -0.96247,0.177488 -2.47197,0.177488 z m 16.36788,0 v -9.883153 h 10.20769 v 1.683133 h -7.88706 v 2.206592 h 4.60354 v 1.683133 h -4.60354 v 2.449674 h 7.98095 v 1.860621 z m 14.37694,-7.545802 q 0,-1.346163 0.50931,-1.841757 0.50974,-0.495594 1.96223,-0.495594 h 7.33959 q 1.45291,0 1.96222,0.495594 0.50932,0.495594 0.50932,1.841757 v 5.208451 q 0,1.355595 -0.50932,1.851188 -0.50931,0.486163 -1.96222,0.486163 h -7.33959 q -1.45249,0 -1.96223,-0.486163 -0.50931,-0.495593 -0.50931,-1.851188 z m 2.32063,5.684752 h 7.65084 v -6.254942 h -7.65084 z m 39.53089,-6.292241 h -6.45686 v 2.122137 h 6.14948 q 1.44648,0 1.95022,0.496022 0.51317,0.495165 0.51317,1.841757 v 1.356024 q 0,1.346163 -0.51317,1.841757 -0.50374,0.495594 -1.95065,0.495594 h -6.09332 q -1.44605,0 -1.95922,-0.495594 -0.50417,-0.495594 -0.50417,-1.841757 v -0.271376 l 2.02482,-0.420569 v 1.168675 h 6.97089 v -2.253323 h -6.14948 q -1.43705,0 -1.94079,-0.495594 -0.50417,-0.495593 -0.50417,-1.842185 v -1.094079 q 0,-1.346163 0.50417,-1.841757 0.50374,-0.495594 1.94079,-0.495594 h 5.59901 q 1.39032,0 1.91293,0.47673 0.5316,0.477159 0.5316,1.692565 v 0.205783 l -2.02482,0.47673 z m 9.66709,8.153291 V 54.24336 l -5.12271,-5.460535 h 3.06102 l 3.38684,3.796266 3.39713,-3.796266 h 2.69662 l -5.10428,5.404373 v 4.47878 z m 18.63535,-8.153291 h -6.45729 v 2.122137 h 6.14947 q 1.44649,0 1.95023,0.496022 0.51317,0.495165 0.51317,1.841757 v 1.356024 q 0,1.346163 -0.51317,1.841757 -0.50374,0.495594 -1.95065,0.495594 h -6.09332 q -1.44605,0 -1.95923,-0.495594 -0.50416,-0.495594 -0.50416,-1.841757 v -0.271376 l 2.02481,-0.420569 v 1.168675 h 6.9709 v -2.253323 h -6.14948 q -1.43705,0 -1.94122,-0.495594 -0.50374,-0.495593 -0.50374,-1.842185 v -1.094079 q 0,-1.346163 0.50374,-1.841757 0.50417,-0.495594 1.94122,-0.495594 h 5.59901 q 1.39032,0 1.91292,0.47673 0.53161,0.477159 0.53161,1.692565 v 0.205783 l -2.02482,0.47673 z m 11.50584,0.0373 v 8.115992 h -2.29577 v -8.115992 h -4.52551 v -1.767161 h 11.36522 v 1.767161 z m 7.35331,8.115992 v -9.883153 h 10.09622 v 1.683133 h -7.80089 v 2.206592 h 4.55381 v 1.683133 h -4.55381 v 2.449674 h 7.89435 v 1.860621 z m 14.4078,0 v -9.883153 h 1.85676 l 4.64727,5.974564 4.54437,-5.974564 h 1.83833 v 9.883153 h -2.12771 v -6.105751 q 0,-0.177487 0.0189,-0.448864 0.0279,-0.270947 0.0652,-0.607488 -0.18649,0.383271 -0.32668,0.635784 -0.13977,0.243081 -0.25209,0.402134 l -3.70409,4.936646 h -0.45744 l -3.71402,-4.95594 q -0.20578,-0.27995 -0.35455,-0.523031 -0.14019,-0.252942 -0.23322,-0.486591 0.0279,0.308674 0.0373,0.561187 0.0184,0.252513 0.0184,0.486162 v 6.105751 z"
     id="path2"
     style="fill:#ffffff;stroke-width:0.428714" />
</svg>
