<?xml version="1.0" encoding="UTF-8" standalone="no"?>
<svg
   height="44.473999"
   viewBox="0 0 532.00465 62.263656"
   width="380.00354"
   version="1.1"
   id="svg10"
   xmlns="http://www.w3.org/2000/svg"
   xmlns:svg="http://www.w3.org/2000/svg">
  <defs
     id="defs10" />
  <g
     fill="#010180"
     stroke="#0268d0"
     stroke-width="7"
     id="g5"
     transform="matrix(0.32118744,0,0,0.32118744,-6.2304306,-3.6283545)">
    <path
       d="m 930.633,66.413 h 114.738 q 20.08,0 34.627,15.571 14.547,15.367 14.547,36.88 0,21.719 -14.547,37.086 -12.293,13.113 -28.685,14.957 l 43.232,59.418 h -59.008 l -42.822,-59.009 h -3.073 v 59.009 h -59.009 z m 59.009,39.339 v 26.226 h 32.782 q 5.327,0 9.22,-3.688 3.893,-3.893 3.893,-9.425 0,-5.328 -3.893,-9.22 -3.893,-3.893 -9.22,-3.893 z"
       transform="matrix(0.96314,0,0,1.03828,-39.237,-44.65)"
       style="fill:#ffffff;stroke:#ffffff"
       id="path1" />
    <path
       d="M 1053.221,239.845 V 69.16 h 143.377 v 44.378 h -75.102 v 17.069 h 75.102 v 47.792 h -75.102 v 17.069 h 75.102 v 44.378 z"
       transform="matrix(1.00295,0,0,0.99706,-39.237,-44.65)"
       style="fill:#ffffff;stroke:#ffffff"
       id="path2" />
    <path
       d="M 1176.197,119 V 70.37 H 1335.98 V 119 h -48.63 v 125.046 h -62.523 V 119 Z"
       transform="matrix(1.02051,0,0,0.9799,-39.237,-44.65)"
       style="fill:#ffffff;stroke:#ffffff"
       id="path3" />
    <path
       d="m 1416.543,66.413 h 114.739 q 20.079,0 34.626,15.571 14.547,15.367 14.547,36.88 0,21.719 -14.547,37.086 -12.293,13.113 -28.684,14.957 l 43.231,59.418 h -59.008 l -42.822,-59.009 h -3.073 v 59.009 h -59.008 z m 59.009,39.339 v 26.226 h 32.782 q 5.327,0 9.22,-3.688 3.893,-3.893 3.893,-9.425 0,-5.328 -3.893,-9.22 -3.893,-3.893 -9.22,-3.893 z"
       transform="matrix(0.96314,0,0,1.03828,-39.237,-44.65)"
       style="fill:#ffffff;stroke:#ffffff"
       id="path4" />
    <path
       d="m 1557.582,148.748 q 0,-38.138 26.503,-64.209 26.502,-26.287 68.303,-26.287 42.23,0 68.733,24.132 26.502,24.133 27.795,66.364 0,38.353 -28.441,65.286 -28.442,26.933 -68.087,26.933 -39.862,0 -67.441,-26.933 -27.364,-26.933 -27.364,-65.286 z m 74.983,-25.425 q -14.006,9.696 -19.392,23.701 -5.387,14.005 3.232,26.718 9.05,12.281 23.916,11.85 15.083,-0.43 28.873,-10.557 14.005,-9.265 19.392,-23.27 5.386,-14.221 -3.017,-26.934 -9.05,-12.497 -24.132,-11.85 -14.867,0.646 -28.872,10.342 z"
       transform="matrix(0.97865,0,0,1.02182,-39.237,-44.65)"
       style="fill:#ffffff;stroke:#ffffff"
       id="path5" />
  </g>
  <g
     id="g10"
     transform="matrix(0.32118744,0,0,0.32118744,-6.2304306,-3.6283545)">
    <path
       d="m 22.903,75.445 c 0,-15.693 7.388,-28.656 22.164,-38.89 14.926,-10.234 34.527,-15.01 58.802,-14.327 22.013,-0.683 45.006,0.409 68.979,3.274 l -12.891,41.55 c -9.801,-1.228 -22.692,-1.773 -38.673,-1.637 -15.832,0.136 -24.502,2.456 -26.009,6.959 -1.508,4.503 0.452,7.573 5.88,9.21 5.428,1.501 14.851,2.729 28.27,3.684 14.022,0.956 26.084,5.595 36.186,13.918 10.252,8.188 15.378,19.991 15.378,35.41 0.754,16.101 -5.955,29.542 -20.127,40.322 -14.023,10.779 -30.608,15.896 -49.756,15.351 -19.299,1.637 -45.685,0.818 -79.157,-2.456 l 14.701,-41.55 c 38.146,1.501 58.802,-0.137 61.968,-4.913 3.317,-4.775 1.885,-8.255 -4.297,-10.439 -5.578,-1.774 -13.72,-2.66 -24.426,-2.66 C 69.191,128.114 57.28,124.294 44.162,116.789 29.688,106.964 22.602,93.183 22.903,75.445 Z"
       stroke-width="7"
       style="fill:#ffffff;stroke:#ffffff"
       id="path6" />
    <path
       d="m 190.45,109.704 c 0,-24.589 8.51,-45.287 25.53,-62.097 17.019,-16.947 38.95,-25.421 65.793,-25.421 27.121,0 49.191,7.779 66.21,23.338 17.019,15.559 25.944,36.952 26.775,64.18 0,24.728 -9.133,45.773 -27.398,63.138 -18.264,17.365 -40.127,26.047 -65.587,26.047 -25.598,0 -47.252,-8.682 -64.964,-26.047 -17.572,-17.365 -26.359,-38.41 -26.359,-63.138 z m 72.229,-24.589 c -8.994,6.251 -15.221,13.892 -18.68,22.922 -3.46,9.03 -2.422,17.643 3.114,25.839 5.811,7.918 13.49,11.738 23.037,11.46 9.686,-0.277 18.957,-3.681 27.813,-10.21 8.994,-5.974 15.22,-13.475 18.68,-22.504 3.459,-9.169 2.49,-17.852 -2.906,-26.048 -5.811,-8.057 -13.56,-11.877 -23.246,-11.46 -9.548,0.416 -18.818,3.75 -27.812,10.001 z"
       stroke-width="7"
       style="fill:#ffffff;stroke:#ffffff"
       id="path7" />
    <path
       d="M 382.451,195.556 V 23.039 h 81.009 l 40.504,82.807 V 23.04 h 54.006 v 172.516 h -74.259 l -47.254,-82.807 v 82.807 z"
       stroke-width="7"
       style="fill:#ffffff;stroke:#ffffff"
       id="path8" />
    <path
       d="M 570.211,195.555 V 23.04 h 76.477 v 172.515 z"
       stroke-width="7"
       style="fill:#ffffff;stroke:#ffffff"
       id="path9" />
    <path
       d="m 654.806,110.253 c -0.565,-23.834 7.701,-44.255 24.798,-61.26 17.097,-17.144 38.504,-25.995 64.221,-26.552 22.607,-0.976 41.542,-0.139 56.803,2.508 l -18.652,62.515 c -1.978,-2.927 -5.37,-5.854 -10.174,-8.781 -4.804,-2.927 -11.516,-3.415 -20.135,-1.463 -8.619,1.811 -17.168,6.202 -25.646,13.171 -8.054,6.412 -13.282,13.59 -15.685,21.535 -2.401,7.946 -0.635,15.124 5.299,21.536 4.098,6.411 10.739,9.826 19.924,10.244 9.184,0.279 18.086,-2.509 26.705,-8.362 8.619,-6.273 15.119,-11.779 19.499,-16.517 l 27.342,72.549 c -18.51,5.018 -40.27,7.527 -65.28,7.527 -26.282,-1.673 -47.689,-10.594 -64.222,-26.762 -16.532,-16.169 -24.798,-36.798 -24.798,-61.887 z"
       stroke-width="7"
       style="fill:#ffffff;stroke:#ffffff"
       id="path10" />
  </g>
</svg>
