<?xml version="1.0" encoding="UTF-8" standalone="no"?>
<svg
   version="1.1"
   id="Layer_1"
   x="0px"
   y="0px"
   viewBox="0 0 380 166.88721"
   width="380"
   height="166.88721"
   xmlns="http://www.w3.org/2000/svg"
   xmlns:svg="http://www.w3.org/2000/svg">
  <defs
     id="defs10" />
  <style
     type="text/css"
     id="style1">
	.st0{fill:#FFFFFF;}
	.st1{fill:#FFE850;}
	.st2{fill:#0057A6;}
</style>
  <path
     class="st0"
     d="m 132.6783,32.823131 h -20.61839 v 6.433967 h 20.61839 c 3.95937,0 7.25554,-3.296171 7.25554,-7.255535 0,-3.959365 -3.29617,-7.255535 -7.25554,-7.255535 h -5.27585 c -4.78093,0 -8.7403,-3.959365 -8.7403,-8.740297 0,-4.780933 3.95937,-8.7402973 8.7403,-8.7402973 h 20.45012 V 0.83146653 h -20.61839 c -8.41365,0 -15.17427,6.76061477 -15.17427,15.17426447 0,8.413649 6.76062,15.174264 15.17427,15.174264 h 5.27585 c 0.49492,0 0.82157,0.326647 0.82157,0.821568 0.01,0.49492 -0.32665,0.821568 -0.6533,0.821568 z"
     id="path1"
     style="stroke-width:0.0989841" />
  <path
     class="st0"
     d="m 127.23418,15.342537 h 20.61839 v -6.60224 h -20.61839 c -3.95937,0 -7.25554,3.296171 -7.25554,7.255535 0,3.959365 3.29617,7.255536 7.25554,7.255536 h 5.27585 c 4.78093,0 8.7403,3.959364 8.7403,8.740296 0,4.780933 -3.95937,8.740297 -8.7403,8.740297 h -20.45012 v 6.433968 h 20.61839 c 8.41365,0 15.17427,-6.760615 15.17427,-15.174265 0,-8.413649 -6.76062,-15.164365 -15.17427,-15.164365 h -5.27585 c -0.49492,0 -0.82157,-0.326648 -0.82157,-0.821568 0,-0.336546 0.32665,-0.663194 0.6533,-0.663194 z"
     id="path2"
     style="stroke-width:0.0989841" />
  <path
     class="st0"
     d="m 201.30399,8.740297 c -2.80125,0 -4.94921,2.147955 -4.94921,4.949205 v 20.618391 c 0,2.80125 2.14796,4.949205 4.94921,4.949205 h 13.36285 v -14.51107 h -10.22506 v 6.433967 h 3.79109 v 1.484761 h -3.79109 c -0.82157,0 -1.48476,-0.663193 -1.48476,-1.484761 V 16.659026 c 0,-0.821568 0.66319,-1.484762 1.48476,-1.484762 h 18.31206 V 8.740297 Z"
     id="path3"
     style="stroke-width:0.0989841" />
  <path
     class="st0"
     d="m 241.87757,39.257098 h 15.00599 L 246.6585,8.9085699 c -0.32664,-0.8215681 -0.98984,-1.4847616 -1.97968,-1.4847616 -0.82157,0 -1.65303,0.6631935 -1.97968,1.3164887 l -13.19458,38.43553 h 7.59208 l 4.62256,-13.689502 v 5.770773 z m 2.64288,-13.857775 2.14795,6.60224 h -4.45428 z"
     id="path4"
     style="stroke-width:0.0989841" />
  <path
     class="st0"
     d="M 254.57723,7.5920813 C 253.26074,3.2961709 249.30138,0 244.52045,0 c -4.78093,0 -8.7403,3.1377963 -9.89841,7.4238083 L 222.57567,42.721542 V 16.827299 h -18.14379 v 6.433967 h 11.8781 V 40.74186 h -14.84762 c -3.63272,0 -6.43397,-2.969523 -6.43397,-6.433967 V 13.689502 c 0,-3.632716 2.96953,-6.4339667 6.43397,-6.4339667 h 21.28158 V 0.82156812 h -21.43995 c -7.09717,0 -12.86794,5.77077368 -12.86794,12.86793388 v 20.618391 c 0,7.09716 5.77077,12.867934 12.86794,12.867934 h 26.55743 L 241.22428,8.4136494 c 0.49492,-1.4847617 1.81141,-2.4746028 3.46444,-2.4746028 1.65304,0 2.96952,0.9898411 3.46444,2.4746028 L 259.04142,40.74186 h -17.15395 v 6.433967 h 26.06252 z"
     id="path5"
     style="stroke-width:0.0989841" />
  <path
     class="st0"
     d="m 163.8583,40.74186 c -3.63272,0 -6.43397,-2.969523 -6.43397,-6.433967 V 13.689502 c 0,-3.632716 2.96952,-6.4339667 6.43397,-6.4339667 h 22.10315 V 0.82156812 H 163.8583 c -7.09716,0 -12.86794,5.77077368 -12.86794,12.86793388 v 20.618391 c 0,7.09716 5.77078,12.867934 12.86794,12.867934 h 22.10315 V 40.74186 Z"
     id="path6"
     style="stroke-width:0.0989841" />
  <path
     class="st0"
     d="m 165.34306,31.338369 h 15.99583 v -6.433967 h -22.4298 v 9.571764 c 0,2.80125 2.14796,4.949205 4.94921,4.949205 h 22.10315 v -6.433967 h -19.13363 c -0.83147,-0.168273 -1.48476,-0.821568 -1.48476,-1.653035 z"
     id="path7"
     style="stroke-width:0.0989841" />
  <path
     class="st0"
     d="m 181.33889,16.827299 h -15.99583 c 0,-0.821568 0.66319,-1.484762 1.48476,-1.484762 h 18.96536 V 8.740297 H 163.8583 c -2.80125,0 -4.94921,2.147955 -4.94921,4.949205 v 9.571764 h 22.4298 z"
     id="path8"
     style="stroke-width:0.0989841" />
  <polygon
     class="st0"
     points="2573.6,1236.5 2574.5,1236.5 2573.6,1235.2 "
     id="polygon8"
     transform="scale(0.09898411)" />
  <path
     class="st0"
     d="M 307.56343,59.43006 286.14327,87.343579 264.7231,59.43006 h -39.93019 c -8.98775,0 -16.30268,7.314926 -16.30268,16.302683 V 77.8708 h -8.7205 c -0.76218,-4.939307 -3.21698,-9.482678 -6.97838,-12.858036 -4.00885,-3.603022 -9.17583,-5.582704 -14.56056,-5.582704 H 97.232092 41.969263 c -7.423808,0 -14.243814,1.653035 -20.291743,4.91951 C 15.550404,67.645741 10.482417,72.57515 7.008075,78.593384 0.36624121,90.095337 0.13857775,104.85387 6.3151862,116.58349 H 0 v 50.30372 h 74.386559 c 14.936702,0 24.567856,-5.97864 30.081271,-11.11592 h 10.38343 v 11.11592 h 50.30373 v -5.6322 c 0,-3.01901 2.4647,-5.48372 5.48372,-5.48372 h 78.77155 c 3.01902,0 5.48372,2.46471 5.48372,5.48372 v 5.56291 h 42.69185 L 380,59.420162 h -72.43657 z m -14.49128,98.24173 h -29.02214 v -4.58296 c 0,-3.57333 -2.89033,-6.46367 -6.46366,-6.46367 h -95.11383 c -3.57333,0 -6.46366,2.89034 -6.46366,6.46367 v 4.64235 h -32.00157 v -11.11592 h -23.41964 c -0.45532,0.53452 -0.930448,1.04924 -1.425368,1.55405 -4.295911,4.35531 -12.076062,9.55197 -24.765825,9.55197 H 9.1560302 V 125.71972 H 29.804116 c -6.325085,-2.35582 -11.492056,-6.63194 -14.867414,-12.4819 -5.2758528,-9.13623 -5.2758528,-20.945035 0,-30.081269 5.355041,-9.264913 15.20396,-14.590258 27.032561,-14.590258 h 55.262829 81.008598 c 6.97838,0 12.64027,5.661891 12.64027,12.640271 v 5.810367 h 26.7752 V 75.722844 c 0,-3.949466 3.20709,-7.156551 7.15655,-7.156551 h 35.41652 l 25.93383,33.793177 25.93384,-33.793177 h 49.36338 z"
     id="path9"
     style="stroke-width:0.0989841" />
  <rect
     x="174.16254"
     y="108.44699"
     class="st0"
     width="69.536339"
     height="15.659286"
     id="rect9"
     style="stroke-width:0.0989841" />
  <path
     class="st0"
     d="m 182.70487,81.216463 c 0,-2.464705 -1.99948,-4.464184 -4.46418,-4.464184 H 97.232092 v 4.464184 c 0,-2.464705 -1.999479,-4.464184 -4.464184,-4.464184 H 41.969263 c -30.457411,0 -30.457411,42.909611 0,42.909611 h 32.427194 c 9.492577,0 9.492577,14.23392 0,14.23392 H 17.322219 v 15.66918 h 57.06434 c 33.674391,0 33.674391,-45.55249 0,-45.55249 H 41.969263 c -8.156291,0.40584 -8.997656,-12.462096 0,-12.867931 0,0 0,0 0,0 h 55.262829 34.941388 v 58.420421 h 15.65929 V 91.144569 h 34.8721 z"
     id="path10"
     style="stroke-width:0.0989841" />
  <polygon
     class="st0"
     points="2297.5,775.4 2861.5,1510.4 2920.1,1510.4 3484.1,775.4 3234.5,775.4 2890.8,1223.3 2547.1,775.4 "
     id="polygon10"
     transform="scale(0.09898411)" />
</svg>
