<?xml version="1.0" encoding="UTF-8" standalone="no"?>
<svg
   width="380.03806pt"
   height="130.929pt"
   viewBox="0 0 380.03806 130.929"
   version="1.1"
   id="svg9"
   xmlns="http://www.w3.org/2000/svg"
   xmlns:svg="http://www.w3.org/2000/svg">
  <defs
     id="defs9" />
  <path
     fill="#ffffff"
     stroke="#ffffff"
     stroke-width="0.0937502"
     opacity="1"
     d="m 214.15682,0.0468751 h 1.02734 c 1.20864,3.0820229 2.53813,6.103614 3.50505,9.2460688 0.36259,1.2086371 0.72518,2.4777051 0.54388,3.8072051 -0.90647,1.3295 -2.29641,2.175546 -3.62591,3.142455 -3.68634,2.417273 -7.49354,4.955409 -10.09212,8.64175 -1.1482,1.692091 -2.05467,3.928069 -1.32949,5.982751 0.54388,1.389932 2.11512,1.873386 3.38418,2.175545 4.77411,0.906477 9.72952,0.241728 14.44321,1.3295 2.2964,0.543887 4.53239,1.752524 5.86188,3.746774 1.20864,1.752523 1.45036,3.928068 1.45036,6.043181 0,5.076274 -1.26906,10.394274 -4.53238,14.443206 -3.50505,4.592819 -8.58132,7.61441 -13.83889,9.789956 -3.62591,-4.411524 -6.82879,-9.246069 -9.78996,-14.141047 6.34535,0 12.99285,-1.450363 18.00869,-5.499295 1.99425,-1.571228 2.53813,-4.169796 3.20289,-6.526637 -2.96116,-0.725182 -5.98275,-1.148205 -9.00435,-1.208637 -3.9885,-0.120864 -8.09786,-0.241727 -11.66333,-2.115113 -2.65901,-1.389933 -4.71369,-3.988501 -5.19715,-6.94966 -0.72518,-4.29066 0.60432,-8.581319 2.47771,-12.388524 3.62591,-7.493546 8.88348,-14.1410468 15.16839,-19.5194789 z"
     id="path1" />
  <path
     fill="#ffffff"
     stroke="#ffffff"
     stroke-width="0.0937502"
     opacity="1"
     d="m 305.6506,8.3864666 c 4.04893,-1.8129548 8.03743,-3.6863413 12.26766,-4.9554095 1.38993,3.4446139 2.41727,7.0705239 2.53814,10.8172969 -5.31801,1.389931 -10.63601,2.659 -15.89357,4.169795 0.36259,2.779864 0.9669,5.499297 1.75252,8.218728 3.9885,-1.510795 7.91657,-3.142454 12.02593,-4.230227 0.72518,2.054682 1.5108,4.169795 2.29641,6.224477 -4.04893,2.115115 -8.33959,3.62591 -12.44895,5.499297 0.42302,2.538136 1.02734,5.076272 1.75252,7.553977 6.22448,-2.840296 12.38852,-5.801455 18.613,-8.641751 0.12087,-6.828796 0.24173,-13.718024 0.30216,-20.546819 4.23023,0.362591 8.76261,0.423023 12.38852,2.961159 3.26332,-0.604319 6.58707,-1.389931 9.91082,-1.148205 5.55973,0.30216 11.05902,3.202887 14.02019,7.977001 2.2964,3.565478 2.11511,8.27916 0.36259,12.025933 -1.08777,2.296409 -2.90073,4.048932 -4.59282,5.801455 1.3295,2.659 2.77986,5.318001 3.56548,8.158296 0.96691,3.444614 0.78561,7.070523 0.66475,10.636001 -3.26332,-0.785614 -6.52664,-1.692091 -9.72953,-2.719432 0.84605,-4.048933 1.75253,-9.125205 -1.57123,-12.388524 -2.29641,-0.725182 -4.71368,-0.423022 -7.01009,-0.906478 -3.32375,-0.604318 -6.34534,-2.296408 -9.42736,-3.565477 -0.60432,4.532387 -1.1482,9.064774 -1.99426,13.536728 -2.35683,-0.241727 -4.71368,-0.543886 -7.01008,-0.906477 0,-3.021591 0,-6.043182 -0.12086,-9.004341 -8.09787,2.961159 -16.07487,6.405772 -24.17273,9.487796 -1.14822,-4.95541 -2.35685,-9.91082 -3.80721,-14.866229 -1.75253,2.235978 -3.56548,4.532386 -6.16405,5.861887 -3.80721,1.873386 -8.21873,2.779864 -12.44895,1.873386 -3.20289,-0.725181 -6.04318,-2.35684 -9.06478,-3.686341 -0.60431,3.988501 -1.1482,8.037433 -1.63165,12.025933 -2.23598,-0.120863 -4.5324,-0.241727 -6.8288,-0.362591 0.30216,-9.306501 0.36259,-18.613001 0.30216,-27.859071 -0.12087,-3.625908 -0.12087,-7.191386 0,-10.756864 3.50505,0.604319 6.94966,1.148205 10.39428,1.692091 0.36259,0.543887 0.72518,1.087773 1.08777,1.63166 3.74677,-0.966909 7.67484,-1.994251 11.60291,-1.450364 3.08201,0.362591 5.80145,1.873386 8.52088,3.263319 -0.36259,-2.115115 -0.72518,-4.29066 -1.08778,-6.405774 3.50505,-1.812955 7.07053,-3.5050459 10.63601,-5.0158414 m 33.72095,15.4705474 c -0.30216,2.477705 -0.60431,5.015841 -0.84604,7.493545 4.41152,3.263319 10.21298,4.95541 15.65184,3.746773 2.29642,-0.543886 4.83455,-1.873386 5.37843,-4.35109 0.84605,-3.686342 -2.11511,-7.070524 -5.43886,-8.279161 -4.83454,-1.752522 -10.09211,-0.483454 -14.74537,1.389933 m -64.90378,2.296409 c -0.36259,2.356841 -0.90647,4.65325 -0.72518,7.010091 0.54389,0.906478 1.45037,1.510796 2.35685,2.054683 4.23023,2.477704 9.48779,3.32375 14.2619,1.933817 2.23599,-0.785614 4.47196,-2.598568 4.59282,-5.136704 0.24174,-3.686341 -3.08201,-6.466205 -6.2849,-7.553978 -4.77411,-1.3295 -9.78995,-0.120864 -14.20149,1.692091 z"
     id="path2" />
  <path
     fill="#ffffff"
     stroke="#ffffff"
     stroke-width="0.0937502"
     opacity="1"
     d="m 250.9598,19.928945 c 2.4777,-0.966909 5.01584,-1.812954 7.61441,-2.477705 2.11511,7.191388 3.6259,14.503638 5.19714,21.815888 1.02734,4.471955 0.18129,9.60866 -2.90073,13.113706 -2.90073,3.021591 -7.13096,4.471955 -11.24032,4.713682 -4.77412,0.362591 -9.24607,-1.994251 -12.69069,-5.076273 -3.08202,-2.779864 -3.86763,-7.010091 -4.9554,-10.756865 -1.81295,-6.889228 -4.04893,-13.657591 -5.4993,-20.607251 2.59857,-0.604319 5.25757,-1.208636 7.97701,-1.692091 1.57122,7.010092 3.08201,14.080614 4.71368,21.090706 0.54388,2.296409 1.08777,4.65325 2.65899,6.466205 1.99426,2.356841 5.25758,3.807205 8.33959,3.202886 2.53814,-0.483454 5.07628,-1.933818 6.10362,-4.290658 0.90648,-2.115115 0.30216,-4.471955 -0.12086,-6.58707 -1.51079,-6.345341 -3.26332,-12.690682 -5.19714,-18.91516 z"
     id="path3" />
  <path
     fill="#ffffff"
     stroke="#ffffff"
     stroke-width="0.0937502"
     opacity="1"
     d="m 72.262904,59.57222 c 8.520886,-2.900727 17.948251,-3.807204 26.650433,-1.269068 4.109353,1.148205 7.856133,3.62591 10.515133,7.010091 5.25757,6.405774 7.07053,14.866229 7.37269,22.964093 0.48345,14.141044 -3.44462,27.859074 -7.13096,41.395794 -4.95541,0.1813 -9.850386,0.30216 -14.745363,0.12087 0.906477,-2.8403 1.873386,-5.6806 2.779864,-8.52089 1.329499,-4.1698 2.175545,-8.46045 3.082019,-12.69068 1.1482,-5.6806 1.93382,-11.54248 0.84605,-17.283503 -0.48346,-2.477704 -1.45036,-5.257569 -3.807206,-6.526637 -3.202887,-1.812954 -7.130955,-1.208636 -10.333841,0.30216 -4.774115,2.356841 -8.823047,6.043182 -12.388524,10.031683 -3.142455,3.505045 -6.164046,7.130947 -8.823046,11.059017 -5.076274,7.55398 -9.729523,15.47055 -13.899319,23.56841 -17.464797,0.24173 -34.929594,-0.30215 -52.3339589,0.36259 v -0.42302 c 1.1482046,-1.93382 2.4777047,-3.8072 3.6863412,-5.68059 C 15.033968,106.22558 28.3894,89.546405 44.403833,75.828381 52.743425,68.999585 61.989493,63.016835 72.262904,59.57222 Z"
     id="path4" />
  <path
     fill="#ffffff"
     stroke="#ffffff"
     stroke-width="0.0937502"
     opacity="1"
     d="m 115.71338,59.088766 c 6.22448,-3.202887 13.89932,-2.719432 20.06336,0.423023 2.90073,1.510795 5.01585,3.928068 7.31225,6.164045 -4.04893,1.812956 -7.91656,3.988501 -11.30075,6.889228 -2.11511,1.812955 -3.92807,3.928069 -5.80145,5.982751 -0.90647,-3.928069 -1.69209,-8.037433 -3.8072,-11.482046 -1.87339,-2.900728 -4.29066,-5.378432 -6.46621,-7.977001 z"
     id="path5" />
  <path
     fill="#ffffff"
     stroke="#ffffff"
     stroke-width="0.0937502"
     opacity="1"
     d="m 238.9943,68.757858 c 9.72952,-1.087773 19.45904,0.846045 28.70512,3.807204 0.48345,-1.389931 0.9669,-2.719431 1.38993,-4.048932 8.46045,0.06043 16.86047,-0.181295 25.26049,0 -3.44461,10.756865 -5.98274,21.695025 -9.00433,32.57275 -1.20864,4.59282 -2.59858,9.1252 -3.44462,13.77845 1.08778,0.36259 2.17555,0.66475 3.20289,1.02734 -0.78561,2.65901 -1.45036,5.37844 -2.23598,8.09787 -0.42302,1.20864 -0.84605,2.659 -2.05468,3.32375 -4.53239,2.659 -10.21298,3.32375 -15.28925,1.87339 -3.26332,-0.90648 -5.68059,-3.38418 -7.79571,-5.86189 -3.68634,2.05468 -7.19138,4.65325 -11.30074,5.80146 -7.31226,2.41727 -15.34969,2.23597 -22.66194,0.0604 -3.62591,-1.08778 -7.31225,-2.41728 -10.45471,-4.59282 -5.74102,-4.04893 -9.66909,-10.57557 -10.33384,-17.58566 -0.42302,-4.3511 -0.18129,-8.943908 1.75252,-12.932409 1.20865,-2.477704 2.77987,-4.774114 4.35109,-7.010091 3.08203,-4.411523 7.19139,-7.856137 11.60291,-10.817297 5.55974,-3.565476 11.72378,-6.6475 18.31085,-7.493545 m -2.59857,25.018774 c -2.47771,3.625909 -3.68634,8.218728 -3.20289,12.630248 0.24173,2.47771 1.45037,4.83454 3.44462,6.34534 1.99425,1.5108 4.53238,1.69209 6.94966,1.75252 4.35109,0.0604 8.94391,-0.84604 12.63025,-3.32375 1.57122,-1.08777 1.87338,-3.14245 2.41728,-4.89497 1.57122,-6.828797 3.74676,-13.536729 5.19713,-20.425957 -2.05469,-0.906477 -4.10936,-1.933818 -6.34535,-2.175545 -8.21872,-1.087773 -16.55831,3.384182 -21.0907,10.092114 z"
     id="path6" />
  <path
     fill="#ffffff"
     stroke="#ffffff"
     stroke-width="0.0937502"
     opacity="1"
     d="m 305.95276,68.51613 c 8.58131,-0.06043 17.16263,0 25.68352,0 -0.30216,1.389933 -0.54389,2.779864 -0.84605,4.109364 5.62017,-0.604318 11.11946,-1.994249 16.73962,-2.054682 7.7957,-0.302158 16.07486,-0.241727 22.90366,3.867637 4.71368,2.900727 7.61441,8.097864 8.94391,13.355433 1.45037,6.768364 0.12086,13.778448 -1.81295,20.305098 -2.35685,7.79569 -6.58707,14.80579 -10.87773,21.63458 -7.25182,-0.0604 -14.56406,0.1813 -21.81589,0.1813 3.62591,-7.61441 8.03744,-14.9871 10.15255,-23.26625 1.26907,-4.89498 1.99425,-10.152546 0.78561,-15.107955 -0.54389,-2.175545 -1.45036,-4.471955 -3.32374,-5.801455 -2.65901,-1.873387 -6.04319,-2.115114 -9.24608,-2.175546 -4.83454,0 -9.66909,1.269068 -14.14104,3.142455 -0.96691,0.423023 -1.99426,0.785614 -2.71944,1.571227 -0.60431,0.906478 -0.90647,1.994251 -1.20863,3.082023 -3.38419,12.811551 -7.19139,25.562661 -10.51514,38.374201 -8.40003,0 -16.80005,0.0604 -25.20007,0.1813 1.38993,-5.25757 2.77987,-10.51514 4.10936,-15.77271 4.23023,-15.168381 8.33959,-30.3972 12.38853,-45.62602 z"
     id="path7" />
  <path
     fill="#ffffff"
     stroke="#ffffff"
     stroke-width="0.0937502"
     opacity="1"
     d="m 153.18111,71.054267 c 7.73528,-2.115114 15.95401,-3.202886 23.87057,-1.510796 9.97125,2.115114 19.33818,6.466206 27.7382,12.207229 -1.87338,1.812954 -3.44461,3.9885 -5.68058,5.378432 -1.75253,0.302159 -3.44462,-0.30216 -5.13671,-0.604318 -8.21872,-1.812955 -17.16264,-1.571228 -24.77704,2.235977 -4.3511,2.054682 -8.94392,5.197137 -9.85039,10.273409 -1.08778,4.83455 1.57123,9.66909 5.1367,12.75111 1.45037,1.38994 3.44461,2.11512 5.43887,2.35684 5.86188,0.72518 11.7842,-0.0604 17.46479,-1.69208 2.96116,-0.84606 5.86188,-1.6921 8.88348,-2.41728 0.66475,3.38418 1.26907,6.8288 1.87339,10.21298 -6.6475,3.14245 -13.53674,5.74102 -20.66768,7.67483 -9.36694,2.53814 -19.51948,2.59858 -28.88641,-0.24172 -5.07628,-1.57123 -10.15255,-3.50504 -14.44321,-6.70793 -4.65325,-3.50505 -8.09787,-8.64175 -9.06477,-14.44321 -1.14822,-6.587061 0.24172,-13.657585 3.92806,-19.217313 5.86189,-8.037432 14.74536,-13.355432 24.17273,-16.25616 z"
     id="path8" />
  <path
     fill="#ffffff"
     stroke="#ffffff"
     stroke-width="0.0937502"
     opacity="1"
     d="m 71.114699,112.20834 c 6.345341,-1.5108 13.053274,-1.32951 19.459047,-0.24173 2.175545,0.30216 4.109364,1.51079 5.801455,2.77986 -2.054682,1.20863 -4.29066,2.29641 -6.707933,2.659 -5.922318,1.02734 -11.965501,0.78562 -17.88782,0.12087 -2.054681,-0.30216 -4.230227,-0.66475 -5.680591,-2.23599 0,-0.24172 -0.06043,-0.66474 -0.06043,-0.84604 1.389933,-1.3295 3.263319,-1.81295 5.076274,-2.23597 z"
     id="path9" />
</svg>
