<?xml version="1.0" encoding="UTF-8" standalone="no"?>
<svg
   version="1.1"
   id="svg4426"
   viewBox="10 3 376.00141 119.95601"
   sodipodi:docname="taito.svg"
   inkscape:version="1.4 (e7c3feb100, 2024-10-09)"
   width="376.0014"
   height="119.956"
   xmlns:inkscape="http://www.inkscape.org/namespaces/inkscape"
   xmlns:sodipodi="http://sodipodi.sourceforge.net/DTD/sodipodi-0.dtd"
   xmlns="http://www.w3.org/2000/svg"
   xmlns:svg="http://www.w3.org/2000/svg"
   xmlns:rdf="http://www.w3.org/1999/02/22-rdf-syntax-ns#"
   xmlns:cc="http://creativecommons.org/ns#"
   xmlns:dc="http://purl.org/dc/elements/1.1/">
  <sodipodi:namedview
     id="namedview1"
     pagecolor="#ffffff"
     bordercolor="#000000"
     borderopacity="0.25"
     inkscape:showpageshadow="2"
     inkscape:pageopacity="0.0"
     inkscape:pagecheckerboard="0"
     inkscape:deskcolor="#d1d1d1"
     inkscape:zoom="1.9193128"
     inkscape:cx="194.34039"
     inkscape:cy="100.81733"
     inkscape:window-width="1920"
     inkscape:window-height="1164"
     inkscape:window-x="1920"
     inkscape:window-y="0"
     inkscape:window-maximized="1"
     inkscape:current-layer="svg4426" />
  <defs
     id="defs4428" />
  <metadata
     id="metadata4431">
    <rdf:RDF>
      <cc:Work
         rdf:about="">
        <dc:format>image/svg+xml</dc:format>
        <dc:type
           rdf:resource="http://purl.org/dc/dcmitype/StillImage" />
      </cc:Work>
    </rdf:RDF>
  </metadata>
  <path
     d="M 90.550301,40.055428 H 10 V 55.764781 H 40.609114 V 120.60573 H 59.941186 V 55.764781 h 30.609115 z"
     id="path3027"
     style="fill:#ffffff;fill-opacity:1;fill-rule:nonzero;stroke:none;stroke-width:3.27108" />
  <path
     d="m 276.14595,40.055428 h -80.55439 v 15.709353 h 30.60911 v 64.840949 h 19.33616 V 55.764781 h 30.60912 z"
     id="path3031"
     style="fill:#ffffff;fill-opacity:1;fill-rule:nonzero;stroke:none;stroke-width:3.27108" />
  <path
     d="m 170.14747,120.60736 h 19.33208 V 40.057064 h -19.33208 z"
     id="path3033"
     style="fill:#ffffff;fill-opacity:1;fill-rule:nonzero;stroke:none;stroke-width:3.27108" />
  <path
     d="m 116.72874,120.60638 v 0 h 52.36587 l -34.8656,-64.145841 c -12.97392,17.900976 -19.74096,40.410083 -17.50027,64.145841"
     id="path3037"
     style="fill:#ffffff;fill-opacity:1;fill-rule:nonzero;stroke:none;stroke-width:3.27108" />
  <path
     d="M 68.401405,120.60638 H 95.784418 C 98.744744,92.430133 111.63279,67.753937 130.57233,49.734385 L 118.74739,27.973537 Z"
     id="path3041"
     style="fill:#ffffff;fill-opacity:1;fill-rule:nonzero;stroke:none;stroke-width:3.27108" />
  <path
     d="m 179.81433,3 c -8.01005,0 -14.50314,6.4930902 -14.50314,14.499054 0,8.005964 6.49309,14.499054 14.50314,14.499054 8.00596,0 14.49905,-6.49309 14.49905,-14.499054 C 194.31338,9.4930902 187.82029,3 179.81433,3"
     id="path3045"
     style="fill:#ffffff;fill-opacity:1;fill-rule:nonzero;stroke:none;stroke-width:3.27108" />
  <path
     d="m 158.33195,33.283315 -1.27981,-2.34291 c -9.68648,4.96795 -18.60426,11.301575 -26.47938,18.792344 l 3.65543,6.730244 c 6.56669,-9.052709 14.72394,-16.92783 24.10376,-23.179678"
     id="path3049"
     style="fill:#ffffff;fill-opacity:1;fill-rule:nonzero;stroke:none;stroke-width:3.27108" />
  <path
     d="m 324.47328,108.06441 c -15.39451,0 -27.86141,-11.084861 -27.86141,-27.849137 0,-16.764276 12.4669,-27.845053 27.86141,-27.845053 15.39451,0 27.86141,11.080777 27.86141,27.845053 0,16.764276 -12.4669,27.849137 -27.86141,27.849137 m 0,-70.589863 c -27.69785,0 -48.33018,17.193605 -48.33018,42.740726 0,25.547117 20.63233,42.740727 48.33018,42.740727 27.70194,0 48.33018,-17.19361 48.33018,-42.740727 0,-25.547121 -20.62824,-42.740726 -48.33018,-42.740726"
     id="path3053"
     style="fill:#ffffff;fill-opacity:1;fill-rule:nonzero;stroke:none;stroke-width:3.27108" />
  <path
     d="m 373.87798,23.093612 c -5.85932,0.0033 -10.61056,4.75533 -10.61056,10.614649 0,5.85523 4.75124,10.602382 10.61465,10.602382 5.85932,-0.0033 10.61056,-4.751241 10.60647,-10.606471 0,-5.859319 -4.75124,-10.61056 -10.61056,-10.61056 v -1.512874 c 6.69753,-0.0033 12.12343,5.421812 12.12343,12.123434 0.003,6.689355 -5.42181,12.123433 -12.11934,12.123433 -6.69754,0 -12.12344,-5.429989 -12.12753,-12.119344 0,-6.697533 5.4259,-12.127523 12.12344,-12.127523 z"
     id="path3019-1"
     style="fill:#ffffff;fill-opacity:1;fill-rule:nonzero;stroke:none;stroke-width:3.27108" />
  <path
     d="m 371.16665,33.09199 -0.003,-3.430544 c 0,0 4.15019,-0.0033 5.03747,-0.0033 1.05901,0 1.65598,0.936346 1.65189,1.73776 0.003,0.846392 -0.76461,1.692783 -1.73367,1.692783 -0.97315,0 -4.9516,0.0033 -4.9516,0.0033 v 2.028068 l 2.96442,-0.0033 3.36103,4.722619 2.51873,0.01963 -3.38556,-4.865729 c 1.81953,0 3.33241,-1.778649 3.33241,-3.724941 0,-1.946291 -1.68461,-3.594097 -3.20975,-3.594097 h -7.82605 v 12.31561 h 2.24477 V 35.120058 33.09199 Z"
     id="path3023-7"
     style="fill:#ffffff;fill-opacity:1;fill-rule:nonzero;stroke:none;stroke-width:3.27108" />
</svg>
