<?xml version="1.0" encoding="UTF-8" standalone="no"?>
<!-- Generator: Adobe Illustrator 19.0.0, SVG Export Plug-In . SVG Version: 6.00 Build 0)  -->

<svg
   version="1.1"
   id="Layer_1"
   x="0px"
   y="0px"
   viewBox="0 0 379.99841 78.430025"
   xml:space="preserve"
   width="379.99841"
   height="78.43"
   xmlns="http://www.w3.org/2000/svg"
   xmlns:svg="http://www.w3.org/2000/svg"
   xmlns:rdf="http://www.w3.org/1999/02/22-rdf-syntax-ns#"
   xmlns:cc="http://creativecommons.org/ns#"
   xmlns:dc="http://purl.org/dc/elements/1.1/"><metadata
     id="metadata37"><rdf:RDF><cc:Work
         rdf:about=""><dc:format>image/svg+xml</dc:format><dc:type
           rdf:resource="http://purl.org/dc/dcmitype/StillImage" /></cc:Work></rdf:RDF></metadata><defs
     id="defs35" /><style
     type="text/css"
     id="style2">
	.st0{fill:#FDFDFD;}
	.st1{fill:#EA7884;}
	.st2{fill:#DB0C22;}
	.st3{fill:#1A171B;}
	.st4{fill:#FEFEFE;}
</style><g
     id="g30"
     transform="matrix(0.60457631,0,0,0.60457631,-39.022352,-154.70572)"
     style="fill:#ffffff;fill-opacity:1"><path
       id="path8"
       style="fill:#ffffff;fill-opacity:1"
       class="st2"
       d="m 126.05303,255.89114 c -5,0.2 -9.90117,1.10039 -14.70117,2.40039 -24.700003,7.2 -43.498439,28.6004 -46.398439,55.40039 -0.7,6.10001 -0.50039,12.19883 0.59961,18.29883 2.1,11.9 7,22.50039 15,31.40039 16.6,18.3 37.199999,25.3 61.499999,21 12.2,-2.2 22.69922,-7.69922 31.69922,-16.19922 11.8,-11.09999 18.60078,-24.79999 20.30078,-41 0.6,-5.99999 0.40039,-11.90117 -0.59961,-17.70117 -2.1,-11.8 -7.00039,-22.29883 -14.90039,-31.29883 -12.1,-13.69999 -27.40117,-21.20078 -45.70117,-22.30078 z M 77.953421,306.29153 H 181.25225 c 1,0 1.20117,0.29922 1.20117,1.19922 v 21.5 c -0.5,0 -0.60078,-0.39961 -0.80078,-0.59961 -7.4,-7.3 -16.09922,-12.19882 -26.19922,-14.29882 -3.6,-0.7 -7.20078,-0.90039 -10.80078,0.0996 -5.4,1.5 -7.70078,5.6 -6.30078,11 1.1,4.1 3.60039,7.5 6.40039,10.5 1.3,1.4 2.70078,2.7 4.30078,4 -13.2,0.20001 -25.90078,0.19922 -38.80078,0.19922 3.4,-2.9 6.3,-5.89921 8.5,-9.69922 1.6,-2.7 2.70039,-5.50117 2.40039,-8.70117 -0.3,-3 -1.89961,-4.99882 -4.59961,-6.29883 -3.3,-1.59999 -6.80078,-1.70078 -10.30078,-1.30078 -11.100003,1.6 -20.398829,6.70039 -28.298829,14.40039 -0.3,0.3 -0.60039,0.7 -0.90039,1 -0.5,-0.2 -0.300782,-0.60078 -0.300782,-0.80078 v -21.09961 c 0,-1 0.301172,-1.09961 1.201172,-1.09961 z" /><path
       id="path22"
       style="fill:#ffffff;fill-opacity:1"
       class="st3"
       d="m 258.45254,324.09152 c 0,9.1 0,18.2 0,27.2 0,1 -0.3,1.2 -1.2,1.2 -2.2,-0.1 -4.4,-0.1 -6.6,0 -0.9,0 -1,-0.2 -1,-1.1 0,-9 0,-18 0,-27 0,-9.2 0,-18.5 0,-27.7 0,-0.9 -0.2,-1.2 -1.2,-1.2 -6.7,0 -13.4,0 -20.2,0 -1,0 -1.3,-0.3 -1.2,-1.3 0.1,-2 0,-4 0,-6 0,-0.6 0.2,-0.9 0.8,-0.8 0.4,0 0.7,0 1.1,0 16.9,0 33.8,0 50.6,0 1.1,0 1.5,0.2 1.4,1.4 -0.1,1.8 -0.1,3.7 0,5.5 0.1,1 -0.3,1.2 -1.3,1.2 -6.7,0 -13.4,0 -20.2,0 -0.9,0 -1.2,0.2 -1.2,1.2 0.2,9.2 0.2,18.3 0.2,27.4 z m 146.2,-23 c -12,-10.1 -28,-7.9 -36.3,1.6 -8.4,9.6 -8.4,25.3 0.3,35 8.1,9.1 24.4,11.4 36,1.3 1.5,2.1 3,4.2 4.6,6.3 0.6,0.8 -0.1,1 -0.4,1.3 -3.5,3.1 -7.5,5.1 -12,6.2 -11,2.6 -21.4,1.4 -30.6,-5.4 -7.2,-5.2 -11.3,-12.5 -12.6,-21.2 -1.5,-9.3 0,-18 5.3,-25.8 5.2,-7.7 12.6,-12.2 21.7,-13.7 7.9,-1.3 15.6,-0.5 22.8,3.2 2,1 3.9,2.3 5.6,3.9 0.4,0.3 0.7,0.6 0.2,1.2 -1.6,1.9 -3.1,4 -4.6,6.1 z m 262.9,52.9 c -6.8,0 -13.8,-1.4 -20.2,-5.1 -1.1,-0.6 -2.1,-1.4 -3.1,-2.2 -0.5,-0.4 -0.5,-0.7 -0.1,-1.2 1.3,-1.8 2.7,-3.6 3.9,-5.4 0.4,-0.6 0.6,-0.5 1.1,-0.1 6.8,4.8 14.5,6.4 22.7,5.6 3,-0.3 5.8,-1 8.3,-2.8 4.3,-3 5.3,-10.9 -0.2,-14.3 -3.5,-2.2 -7.3,-3.4 -11.1,-4.6 -4.8,-1.5 -9.7,-2.8 -14.3,-5 -2.7,-1.3 -5.3,-3 -7.3,-5.3 -5,-5.7 -4.7,-17.6 3.5,-23 3.5,-2.3 7.4,-3.6 11.5,-4.1 7.5,-0.9 14.9,-0.4 22.1,2.1 2.3,0.8 4.5,1.8 6.5,3.2 0.6,0.4 0.8,0.7 0.3,1.4 -1.3,1.9 -2.6,3.8 -3.8,5.7 -0.4,0.7 -0.8,0.7 -1.4,0.3 -7.8,-4.6 -16.1,-5.9 -25,-3.8 -2,0.5 -3.9,1.5 -5.4,2.9 -2.9,2.7 -3.7,8.4 1.1,11.4 3.1,2 6.6,3.1 10.1,4.1 4.8,1.4 9.7,2.6 14.2,4.7 3.3,1.5 6.4,3.4 8.8,6.2 2.7,3.3 3.5,7.3 3.3,11.4 -0.6,9.8 -7.2,14.7 -15,16.7 -3.3,1 -6.6,1.2 -10.5,1.2 z m -243.9,-34 c 0,-10.4 0,-20.8 0,-31.2 0,-1.2 0.4,-1.4 1.4,-1.3 2,0.1 4,0.1 6,0 1.1,0 1.4,0.2 1.4,1.3 -0.1,8.8 0,17.6 -0.1,26.4 0,1 0.2,1.4 1.3,1.4 11.6,0 23.3,0 34.9,0 1,0 1.4,-0.2 1.3,-1.3 0,-8.9 0,-17.8 0,-26.6 0,-0.9 0.2,-1.2 1.2,-1.2 2.2,0.1 4.3,0.1 6.5,0 1.1,0 1.3,0.2 1.3,1.3 0,17.8 0,35.6 0,53.4 0,3.1 0,6.2 0,9.4 0,0.7 -0.2,1 -0.9,0.9 -2.3,0 -4.6,-0.1 -6.8,0 -0.9,0 -1.2,-0.2 -1.2,-1.2 0,-8.5 0,-17 0.1,-25.4 0,-1.1 -0.3,-1.4 -1.4,-1.4 -11.6,0 -23.3,0 -34.9,0 -1,0 -1.3,0.2 -1.3,1.3 0.1,8.5 0,17 0.1,25.4 0,1 -0.2,1.3 -1.2,1.2 -2.1,-0.1 -4.2,-0.1 -6.2,0 -1,0 -1.3,-0.2 -1.3,-1.3 -0.2,-10.3 -0.2,-20.7 -0.2,-31.1 z m -129.1,0 c 0,-10.4 0,-20.8 0,-31.2 0,-1 0.2,-1.3 1.2,-1.3 15.3,0 30.6,0 45.8,0 1,0 1.3,0.2 1.2,1.2 -0.1,1.9 -0.1,3.8 0,5.8 0,0.9 -0.2,1.1 -1.1,1.1 -12.4,0 -24.7,0 -37.1,0 -1,0 -1.3,0.2 -1.3,1.3 0.1,6.2 0.1,12.3 0,18.5 0,0.9 0.2,1.2 1.2,1.2 10.6,0 21.3,0 31.9,0 0.9,0 1.2,0.2 1.2,1.1 -0.1,1.8 -0.1,3.7 0,5.5 0.1,1.1 -0.3,1.3 -1.3,1.3 -10.6,0 -21.1,0 -31.7,-0.1 -1.1,0 -1.3,0.3 -1.3,1.3 0,5.9 0,11.8 0,17.8 0,0.9 0.3,1.1 1.1,1.1 12.4,0 24.7,0 37.1,0 1,0 1.4,0.2 1.3,1.3 -0.1,2 -0.1,3.9 0,5.9 0,0.7 -0.2,0.9 -0.9,0.9 -15.5,0 -31,0 -46.6,0 -1,0 -0.9,-0.5 -0.9,-1.1 0.2,-10.7 0.2,-21.2 0.2,-31.6 z m 250.5,13.6 c 0.3,-0.5 0.2,-1 0.2,-1.4 0,-14.4 0,-28.9 0,-43.3 0,-1 0.2,-1.4 1.3,-1.3 2.1,0.1 4.2,0.1 6.4,0 1,0 1.3,0.2 1.3,1.3 0,13.1 0,26.2 0,39.4 0,7.6 0,15.2 0,22.8 0,0.5 0.4,1.3 -0.3,1.4 -0.8,0.1 -1.8,0.4 -2.5,-0.3 -0.7,-0.7 -1.4,-1.4 -2.1,-2.1 -14.2,-14.3 -28.3,-28.7 -42.5,-43 -0.3,-0.3 -0.6,-0.7 -1.2,-1 0,0.4 0,0.8 0,1.2 0,14.7 0,29.4 0,44 0,1 -0.2,1.3 -1.2,1.3 -2.2,-0.1 -4.5,-0.1 -6.7,0 -0.7,0 -0.9,-0.1 -0.9,-0.9 0,-21 0,-42.1 0,-63.1 0,-0.3 -0.2,-0.9 0.3,-0.9 0.9,0 1.9,-0.4 2.7,0.5 2.6,2.6 5.2,5.2 7.8,7.8 12.3,12.3 24.6,24.7 37,37 -0.1,0.1 0.1,0.3 0.4,0.6 z m 56.94411,-47.60748 c -2.38928,-0.009 -4.80664,0.20117 -7.24414,0.60742 -10.3,1.7 -18.19961,7.10078 -23.09961,16.30078 -3.7,7 -4.80117,14.6 -3.70117,22.5 1,7.3 3.8,13.7 9,19 6.6,6.7 14.90117,9.49961 24.20117,9.59961 2.2,-0.1 4.50039,-0.10117 6.90039,-0.70117 10,-1.8 17.79883,-6.89844 22.79883,-15.89844 4.2,-7.7 5.19961,-16.10117 3.59961,-24.70117 -2,-10.4 -7.49922,-18.39922 -17.19922,-23.19922 -4.88125,-2.40625 -9.99944,-3.48847 -15.25586,-3.50781 z m -0.94336,8.50781 c 13,0.1 22.59961,8.1 24.59961,21 1.3,7.9 -0.2,15.39922 -5.5,21.69922 -4,4.8 -9.3,7.40117 -15.5,8.20117 -6.3,0.7 -12.2,-0.20078 -17.5,-3.80078 -6.2,-4.2 -9.50039,-10.10039 -10.40039,-17.40039 -0.9,-6.6 0.0992,-12.89961 3.69922,-18.59961 4.3,-6.8 10.60156,-10.40039 18.60156,-10.90039 0.8,-0.1 1.5,-0.19922 2,-0.19922 z" /></g></svg>
