<?xml version="1.0" encoding="UTF-8" standalone="no"?>
<!-- Generator: Adobe Illustrator 16.0.0, SVG Export Plug-In . SVG Version: 6.00 Build 0)  -->

<svg
   version="1.1"
   id="Layer_1"
   x="0px"
   y="0px"
   width="376"
   height="73.022934"
   viewBox="0 0 376 73.022935"
   enable-background="new 0 0 1000 194.211"
   xml:space="preserve"
   sodipodi:docname="tecmo.svg"
   inkscape:version="1.4 (e7c3feb100, 2024-10-09)"
   xmlns:inkscape="http://www.inkscape.org/namespaces/inkscape"
   xmlns:sodipodi="http://sodipodi.sourceforge.net/DTD/sodipodi-0.dtd"
   xmlns="http://www.w3.org/2000/svg"
   xmlns:svg="http://www.w3.org/2000/svg"><defs
   id="defs4">
	
	
	
	
	
</defs><sodipodi:namedview
   id="namedview4"
   pagecolor="#ffffff"
   bordercolor="#000000"
   borderopacity="0.25"
   inkscape:showpageshadow="2"
   inkscape:pageopacity="0.0"
   inkscape:pagecheckerboard="0"
   inkscape:deskcolor="#d1d1d1"
   inkscape:zoom="1.765"
   inkscape:cx="174.50425"
   inkscape:cy="42.209632"
   inkscape:window-width="1920"
   inkscape:window-height="1164"
   inkscape:window-x="1920"
   inkscape:window-y="0"
   inkscape:window-maximized="1"
   inkscape:current-layer="Layer_1" />
<polygon
   fill="#ef3e42"
   points="156.201,3.728 0,3.728 0,50.331 47.647,50.331 47.647,189.449 106.063,189.449 106.063,50.701 156.201,50.701 "
   id="polygon1"
   transform="matrix(0.376,0,0,0.376,0,-2.7079985e-5)"
   style="fill:#ffffff;fill-opacity:1" /><path
   fill="#ef3e42"
   d="M 114.93192,45.288045 V 28.185309 l -30.550752,-0.02106 c 0.02519,-3.031688 0.06317,-7.493304 0.06317,-7.529024 -0.01128,-1.801792 2.146584,-2.106728 3.408816,-2.127032 l 27.241196,0.03647 0.015,-17.0361841 -32.806748,-0.029328 c -10.079056,0.897888 -18.997776,8.032112 -19.880248,15.9059281 -0.06994,0.618896 -0.0549,37.279648 -0.03722,37.508632 0.603104,8.473912 10.062888,15.597984 22.002768,16.5722 1.580328,0.128968 30.478938,0.09475 30.478938,0.07069 0,0 0.003,-16.956096 0.003,-16.950832 0,0 -27.2115,-0.05001 -26.97838,-0.03346 l -0.156792,-0.01767 -0.156416,3.76e-4 c -1.702904,0.0075 -3.249016,-1.61868 -3.324216,-2.320672 -0.08159,-1.894664 -0.01955,-4.742864 0.03835,-6.91652 3.388888,0.0071 30.639484,-0.0098 30.639484,-0.0098 z"
   id="path1"
   style="stroke-width:0.376;fill:#ffffff;fill-opacity:1" /><path
   fill="#ef3e42"
   d="m 173.40255,1.1275969 -2.6899,-0.00489 c -23.19469,-0.048128 -40.9731,7.658744 -48.77735,21.1447361 -5.23693,9.049944 -5.19971,19.507632 0.10189,28.690304 7.86329,13.619096 25.05815,21.416208 47.17183,21.39252 l 2.72563,-0.0034 V 55.244901 h -2.72713 c -18.77744,0 -28.60082,-9.259376 -28.60082,-18.404448 0,-4.694736 2.49176,-9.105216 7.01466,-12.418904 5.46742,-4.00628 13.45215,-6.124664 23.08678,-6.124664 h 2.6632 z"
   id="path2"
   style="stroke-width:0.376;fill:#ffffff;fill-opacity:1" /><path
   fill="#ef3e42"
   d="m 237.9249,71.334317 c 0,0 -0.0726,-47.717784 -0.0579,-49.864744 l 0.003,-0.01842 -0.001,-0.179728 c 0,-0.357576 -0.003,-1.446472 1.77209,-2.473704 2.97529,-1.723584 8.18289,-1.736744 11.14351,-0.02895 1.95858,1.129504 1.9567,2.488744 1.9567,2.935808 0,0 0.0917,49.86888 0.0917,49.891064 l 22.15655,-0.01166 0.0357,-51.531928 v -0.215824 l -0.0323,-0.212816 c -1.44158,-9.103712 -8.05918,-15.5735441 -18.63042,-18.2172001 -10.47122,-2.616584 -23.52707,-1.01444798 -29.44418,3.21668 -8.8063,-6.06112 -24.53325,-5.782504 -34.86799,-1.367136 -8.27313,3.532896 -12.87725,9.3067521 -12.9641,16.2529761 -0.11731,9.181168 -0.14213,51.957184 -0.13047,51.957184 0,0 21.94975,0.05715 21.9396,0.05903 0,0 -0.0327,-48.029488 0.041,-49.491 l 0.0447,-0.25004 -0.003,-0.254176 c -0.003,-0.369608 -0.0143,-1.352096 1.59048,-2.292848 2.85572,-1.675456 8.10618,-1.686736 11.01191,-0.02331 1.55927,0.893 1.56078,1.790136 1.56078,2.085296 0,0 -0.10791,50.173064 -0.0963,50.166672 z"
   id="path3"
   style="stroke-width:0.376;fill:#ffffff;fill-opacity:1" /><path
   fill="#ef3e42"
   d="M 366.26498,14.523725 C 357.09773,5.3575969 343.11805,0.10074092 327.90697,0.10074092 c -15.2092,0 -29.18963,5.25685598 -38.35651,14.42298408 -6.36944,6.369816 -9.73652,13.990584 -9.73652,22.037736 0,8.047528 3.3667,15.668672 9.73652,22.038488 9.16688,9.16688 23.14731,14.422984 38.35651,14.422984 26.51965,0 48.09303,-16.356752 48.09303,-36.461848 0,-8.046776 -3.36708,-15.667544 -9.73502,-22.03736 z m -17.22606,32.83796 c -4.90078,4.89928 -12.79979,7.825688 -21.13195,7.825688 -8.33028,0 -16.22929,-2.926032 -21.12932,-7.825688 -3.17946,-3.179456 -4.8598,-6.913888 -4.8598,-10.800224 0,-10.27044 11.65901,-18.626288 25.98912,-18.626288 8.33216,0 16.23117,2.925656 21.13195,7.82644 3.17833,3.178328 4.8583,6.913136 4.8583,10.799848 0,3.886336 -1.67997,7.620768 -4.8583,10.800224 z"
   id="path4"
   style="stroke-width:0.376;fill:#ffffff;fill-opacity:1" />
</svg>
