<?xml version="1.0" encoding="UTF-8" standalone="no"?>
<svg
   viewBox="115 416.99 379.99872 107.193"
   width="379.99872"
   height="107.193"
   version="1.1"
   id="svg1"
   xmlns="http://www.w3.org/2000/svg"
   xmlns:svg="http://www.w3.org/2000/svg">
  <defs
     id="defs1" />
  <path
     d="m 194.28031,462.75846 v -6.77984 a 0.25515502,0.25515502 0 0 1 0.25515,-0.25516 h 21.36012 a 0.25515502,0.25515502 0 0 1 0.25516,0.25516 v 6.77984 a 0.25515502,0.25515502 0 0 0 0.25516,0.25515 h 6.77983 a 0.25515502,0.25515502 0 0 1 0.25516,0.25515 v 8.14674 a 0.25515502,0.25515502 0 0 1 -0.25516,0.25516 H 200.4587 a 0.25515502,0.25515502 0 0 0 -0.25515,0.25515 v 3.13475 a 0.25515502,0.25515502 0 0 0 0.25515,0.25516 h 15.43688 a 0.25515502,0.25515502 0 0 1 0.25516,0.25516 v 5.41293 a 0.25515502,0.25515502 0 0 1 -0.25516,0.25515 h -21.35556 a 0.25515502,0.25515502 0 0 1 -0.25516,-0.25515 l -0.0137,-1.76786 a 0.25515502,0.25515502 0 0 0 -0.25515,-0.25516 h -5.85946 a 0.25515502,0.25515502 0 0 1 -0.25514,-0.25515 v -15.43688 a 0.25515502,0.25515502 0 0 1 0.25514,-0.25515 h 5.86857 a 0.25515502,0.25515502 0 0 0 0.25516,-0.25515 z m 15.94719,0.37817 a 0.12302117,0.12302117 0 0 0 -0.12302,-0.12302 h -9.77791 a 0.12302117,0.12302117 0 0 0 -0.12302,0.12302 v 2.48776 a 0.12302117,0.12302117 0 0 0 0.12302,0.12302 h 9.77791 a 0.12302117,0.12302117 0 0 0 0.12302,-0.12302 z"
     id="path2144"
     style="fill:#ffffff;stroke-width:0.455633" />
  <path
     d="m 438.04448,463.24598 v 11.83737 a 0.23237332,0.23237332 0 0 0 0.23237,0.23237 h 21.40568 a 0.23237332,0.23237332 0 0 1 0.23238,0.23237 v 5.45851 a 0.23237332,0.23237332 0 0 1 -0.23238,0.23236 h -27.7481 a 0.23237332,0.23237332 0 0 1 -0.23237,-0.2187 l -0.11847,-1.84076 a 0.23237332,0.23237332 0 0 0 -0.23237,-0.21871 h -6.74339 a 0.23237332,0.23237332 0 0 1 -0.23237,-0.23237 v -15.48244 a 0.23237332,0.23237332 0 0 1 0.23237,-0.23237 h 6.8254 a 0.23237332,0.23237332 0 0 0 0.23238,-0.23237 v -6.8254 a 0.23237332,0.23237332 0 0 1 0.23237,-0.23238 h 27.78455 a 0.23237332,0.23237332 0 0 1 0.23238,0.23238 v 6.8254 a 0.23237332,0.23237332 0 0 1 -0.23238,0.23237 h -21.40568 a 0.23237332,0.23237332 0 0 0 -0.23237,0.23237 z"
     id="path2146"
     style="fill:#ffffff;stroke-width:0.455633" />
  <path
     d="m 374.25572,453.70956 v 27.26514 a 0.2642677,0.2642677 0 0 1 -0.26426,0.26426 H 361.3066 a 0.2642677,0.2642677 0 0 1 -0.26426,-0.26426 v -27.26514 a 0.2642677,0.2642677 0 0 0 -0.26427,-0.26426 h -9.03978 a 0.2642677,0.2642677 0 0 1 -0.26426,-0.26427 v -6.76161 a 0.2642677,0.2642677 0 0 1 0.26426,-0.26427 h 30.91021 a 0.2642677,0.2642677 0 0 1 0.26427,0.26427 v 6.76161 a 0.2642677,0.2642677 0 0 1 -0.26427,0.26427 h -8.12851 a 0.2642677,0.2642677 0 0 0 -0.26427,0.26426 z"
     id="path2222"
     style="fill:#ffffff;stroke-width:0.455633" />
  <path
     d="m 136.87043,453.70956 v 27.26514 a 0.2642677,0.2642677 0 0 1 -0.26426,0.26426 h -11.77359 a 0.2642677,0.2642677 0 0 1 -0.26426,-0.26426 v -27.26514 a 0.2642677,0.2642677 0 0 0 -0.26427,-0.26426 h -9.03978 A 0.2642677,0.2642677 0 0 1 115,453.18103 v -6.76161 a 0.2642677,0.2642677 0 0 1 0.26427,-0.26427 h 30.91021 a 0.2642677,0.2642677 0 0 1 0.26426,0.26427 v 6.76161 a 0.2642677,0.2642677 0 0 1 -0.26426,0.26427 h -9.03978 a 0.2642677,0.2642677 0 0 0 -0.26427,0.26426 z"
     id="path2386"
     style="fill:#ffffff;stroke-width:0.455633" />
  <path
     d="m 475.40646,466.01168 v 14.96302 a 0.2642677,0.2642677 0 0 1 -0.26426,0.26426 h -11.31795 a 0.2642677,0.2642677 0 0 1 -0.26427,-0.26426 v -30.91021 a 0.2642677,0.2642677 0 0 1 0.26427,-0.26427 h 11.31795 a 0.2642677,0.2642677 0 0 1 0.26426,0.26427 v 9.03978 a 0.2642677,0.2642677 0 0 0 0.26427,0.26427 h 15.41866 a 0.2642677,0.2642677 0 0 1 0.26427,0.26427 v 5.85034 a 0.2642677,0.2642677 0 0 0 0.26426,0.26426 h 3.11653 a 0.2642677,0.2642677 0 0 1 0.26427,0.26427 v 14.96302 a 0.2642677,0.2642677 0 0 1 -0.26427,0.26426 h -12.68484 a 0.2642677,0.2642677 0 0 1 -0.26427,-0.26426 v -14.96302 a 0.2642677,0.2642677 0 0 0 -0.26427,-0.26427 h -5.85034 a 0.2642677,0.2642677 0 0 0 -0.26427,0.26427 z"
     id="path2388"
     style="fill:#ffffff;stroke-width:0.455633" />
  <path
     d="m 178.61106,465.74741 h 5.36737 a 0.27793672,0.27793672 0 0 1 0.27793,0.27794 v 14.93568 a 0.27793672,0.27793672 0 0 1 -0.27793,0.27793 h -11.29061 a 0.27793672,0.27793672 0 0 1 -0.27794,-0.27793 v -14.93568 a 0.27793672,0.27793672 0 0 0 -0.27794,-0.27794 h -5.823 a 0.27793672,0.27793672 0 0 0 -0.27793,0.27794 v 14.93568 a 0.27793672,0.27793672 0 0 1 -0.27794,0.27793 h -12.65752 a 0.27793672,0.27793672 0 0 1 -0.27793,-0.27793 v -30.88287 a 0.27793672,0.27793672 0 0 1 0.27793,-0.27794 h 12.65752 a 0.27793672,0.27793672 0 0 1 0.27794,0.27794 v 9.01244 a 0.27793672,0.27793672 0 0 0 0.27793,0.27794 h 11.74625 a 0.27793672,0.27793672 0 0 1 0.27793,0.27793 v 5.82301 a 0.27793672,0.27793672 0 0 0 0.27794,0.27793 z"
     id="path2468"
     style="fill:#ffffff;stroke-width:0.455633" />
  <path
     d="m 415.65007,481.22985 -22.31695,0.005 q -0.27338,0 -0.2916,-0.27337 l -0.14125,-1.78153 q -0.0137,-0.20959 -0.22326,-0.20959 l -6.00526,-0.0273 -0.0729,-15.53257 a 0.3918452,0.39640155 89.7 0 1 0.3964,-0.39639 h 5.71365 q 0.22782,0 0.22782,-0.22782 v -6.77983 q 0,-0.2825 0.28705,-0.2825 h 22.21215 q 0.28249,0 0.28249,0.2825 v 6.77983 q 0,0.22782 0.22782,0.22782 h 5.86401 a 0.2870494,0.28249305 0 0 1 0.28705,0.28249 v 8.14674 q 0,0.22782 -0.22782,0.22782 h -22.72246 q -0.28705,0 -0.28705,0.28705 v 3.01629 q 0,0.34172 0.34173,0.34172 h 16.28435 q 0.20959,0 0.20959,0.20959 z m -7.22636,-17.87452 a 0.34172547,0.34172547 0 0 0 -0.34172,-0.34172 h -8.88486 a 0.34172547,0.34172547 0 0 0 -0.34173,0.34172 v 2.05036 a 0.34172547,0.34172547 0 0 0 0.34173,0.34172 h 8.88486 a 0.34172547,0.34172547 0 0 0 0.34172,-0.34172 z"
     id="path2470"
     style="fill:#ffffff;stroke-width:0.455633" />
  <path
     d="m 272.22105,417.33175 c 0.006,-0.2096 0.11254,-0.31576 0.31895,-0.31895 l 1.63117,-0.0228 c 0.18863,0 0.28385,0.0929 0.28704,0.27794 l 0.0319,1.77697 0.20959,0.20959 2.12782,0.0456 c 0.19729,0.006 0.29889,0.10799 0.30527,0.30528 l 0.0729,2.26905 0.13212,0.13214 1.75875,0.0319 c 0.19729,0.003 0.29935,0.10343 0.30528,0.30072 l 0.10024,3.88201 0.20959,0.32395 1.69495,0.0542 c 0.19456,0.006 0.29343,0.10753 0.29617,0.30482 l 0.041,2.39253 c -0.0943,0.79281 -0.0118,1.55827 0.24605,2.2964 l 2.09135,-0.005 c 0.18226,4.5e-4 0.29617,0.087 0.34173,0.26016 0.16403,0.60782 0.18226,1.23751 0.0547,1.89088 l 0.15036,2.84771 1.69951,0.009 c 0.24467,0.003 0.44196,0.20139 0.44196,0.44652 l 0.009,1.52638 c 0.003,0.19729 0.10343,0.29616 0.30072,0.29616 h 1.65395 c 0.17633,0 0.26746,0.0879 0.27338,0.26427 l 0.0638,1.78608 0.20959,0.20959 4.49665,-0.009 c 0.19182,4.5e-4 0.28751,-0.0939 0.28751,-0.28249 l 4.5e-4,-1.39425 c -9.1e-4,-0.31301 0.25197,-0.56726 0.56454,-0.56953 l 1.42157,-0.0141 c 0.19456,4.6e-4 0.29161,-0.0984 0.29161,-0.29571 v -4.40598 c 0,-0.19456 0.0989,-0.29297 0.29661,-0.29616 l 1.8722,-0.009 c 0.31211,0 0.56499,-0.2547 0.56453,-0.56953 l 4.6e-4,-1.23477 c 0,-0.19456 0.0925,-0.32077 0.27794,-0.37818 0.59506,-0.18499 1.18647,-0.20959 1.77241,-0.0729 l 0.24604,-0.47386 c -0.13669,-0.55907 -0.097,-1.09534 0.11847,-1.60839 0.0579,-0.13942 0.1622,-0.20959 0.31439,-0.20959 l 1.53093,-0.009 c 0.19729,-0.003 0.29616,-0.10206 0.29616,-0.29616 v -2.13237 c 0,-0.19729 0.0989,-0.29571 0.29617,-0.29616 l 2.13692,-0.009 c 0.19455,0 0.29343,-0.0971 0.29616,-0.29161 l 0.009,-1.54461 c 4.5e-4,-0.15491 0.0734,-0.25697 0.21916,-0.30526 0.63195,-0.21552 1.27896,-0.25379 1.941,-0.11391 l 0.13213,-0.35995 c -0.11391,-1.83166 -0.19137,-1.9319 1.72184,-1.95012 0.29798,-0.002 0.5381,-0.24468 0.5381,-0.5422 v -1.87722 c 0,-0.19729 0.0989,-0.29616 0.29616,-0.29616 l 2.08225,-0.009 c 0.20048,0 0.30391,0.10024 0.30983,0.30072 l 0.0638,2.20982 0.20959,0.20959 1.54005,0.0273 c 0.17633,0.003 0.29935,0.0847 0.36906,0.24604 0.231,0.54677 0.28386,1.14547 0.15948,1.79521 l 0.20958,0.20959 1.74508,0.009 c 0.21597,0 0.3235,0.10753 0.3235,0.32349 l -0.0182,1.83166 0.13213,0.13213 2.22349,0.0319 c 0.19775,0.003 0.30072,0.10343 0.30984,0.30072 l 0.0866,2.17337 0.20959,0.20959 1.62205,0.0228 c 0.2219,0.003 0.34173,0.11391 0.35995,0.33261 l 0.10936,1.35779 c 0.0264,0.33033 0.30026,0.58367 0.62923,0.58321 l 1.73095,-4.5e-4 c 0.16403,4.5e-4 0.24923,0.0825 0.25515,0.2465 l 0.0592,1.8043 0.24604,0.20959 1.68585,0.0456 c 0.20366,0.006 0.30663,0.11117 0.30982,0.31439 l 0.036,2.16425 0.2465,0.2096 1.68129,0.0319 c 0.2219,0.003 0.33581,0.11573 0.34173,0.33717 l 0.041,1.31633 c 0.01,0.34036 0.28841,0.61101 0.62876,0.61101 h 1.75876 c 0.16403,0 0.24923,0.082 0.25515,0.24604 l 0.0592,1.80431 0.24604,0.20959 1.6904,0.0501 c 0.19774,0.003 0.29935,0.10343 0.30527,0.30072 l 0.0729,2.17337 0.2096,0.20959 1.70406,0.0182 c 0.19137,0.003 0.29161,0.10024 0.30072,0.29161 l 0.0683,1.38968 c 0.0169,0.33489 0.2957,0.59733 0.63333,0.59688 h 1.74507 c 0.16403,0 0.24924,0.0825 0.25516,0.2465 l 0.0592,1.80386 0.24605,0.20958 c -0.26154,0.77185 -0.32351,1.58743 -0.18681,2.44631 0.0333,0.20412 -0.0529,0.30573 -0.25972,0.30573 h -1.87265 c -0.34173,-4.6e-4 -0.62103,0.27109 -0.62878,0.61054 l -0.0365,1.33046 c -0.006,0.19136 -0.10297,0.29297 -0.2916,0.30527 l -1.65851,0.0911 c -0.20048,0.0123 -0.30072,0.11846 -0.30072,0.31894 l -0.009,1.60383 c -0.003,0.19775 -0.10206,0.29616 -0.29616,0.29616 l -4.41509,0.005 c -0.19729,-4.6e-4 -0.29616,0.0984 -0.29616,0.2957 v 2.06858 c 10e-4,0.26609 -0.24696,0.46292 -0.50576,0.40096 -0.54357,-0.12439 -1.05571,-0.0793 -1.53549,0.13669 -0.1458,0.067 -0.22007,0.18088 -0.22326,0.34172 l -0.0365,1.40791 c -0.006,0.19455 -0.10616,0.30208 -0.30072,0.3235 l -1.68129,0.18225 c -0.17587,0.0182 -0.26563,0.11573 -0.26882,0.29161 l -0.009,1.53094 c 0,0.19136 -0.0957,0.28841 -0.28705,0.29115 l -2.12781,0.0369 c -0.20959,0.003 -0.31439,0.10752 -0.31439,0.31438 v 1.84988 c 9.1e-4,0.26974 -0.20686,0.493 -0.47386,0.51031 l -1.4398,0.10024 c -0.24331,0.0182 -0.36451,0.149 -0.36451,0.39184 l 4.6e-4,1.51271 c -4.6e-4,0.17314 -0.0857,0.26108 -0.25561,0.26427 l -3.93714,0.0911 c -0.54631,0.0119 -0.81968,0.29161 -0.81968,0.83837 v 0.78824 c 9.1e-4,0.30163 -0.23192,0.55269 -0.53309,0.5741 l -1.38012,0.0957 c -0.24331,0.0182 -0.36497,0.14899 -0.36451,0.39184 l -4.6e-4,2.05035 c 0,0.15173 -0.0761,0.22782 -0.22781,0.22782 h -1.941 c -0.31621,0 -0.57182,0.25789 -0.56954,0.5741 l 0.0137,1.40792 c 0,0.19454 0.0975,0.29159 0.29161,0.29159 l 2.13692,0.009 c 0.19729,0 0.29616,0.0989 0.29616,0.29616 l 0.005,4.36042 c 0,0.21552 0.10799,0.32532 0.3235,0.32806 l 1.6494,0.0319 c 0.17041,0.006 0.26154,0.0943 0.27384,0.26427 l 0.0998,1.58105 c 0.0123,0.16995 0.0989,0.28249 0.25972,0.33717 0.66249,0.22462 1.30448,0.17769 1.92733,-0.14079 l 0.15036,0.22736 2.2964,0.0273 c 0.18225,0.003 0.27474,0.0975 0.27793,0.28294 l 0.0273,4.57001 0.13214,0.13168 1.77241,0.005 c 0.22782,0 0.34491,0.11391 0.35084,0.34173 l 0.0365,1.37602 c 0.007,0.30938 0.26017,0.55588 0.56954,0.55588 h 1.81342 c 0.17907,-4.6e-4 0.27065,0.0898 0.27338,0.26881 l 0.0456,1.78108 0.24604,0.21005 c 0.61374,-0.11847 1.19513,-0.0884 1.74507,0.0911 0.18226,0.0606 0.27339,0.18545 0.27339,0.37363 l 0.0501,4.33763 0.20959,0.20959 c -0.33079,0.79599 -0.36451,1.6175 -0.0998,2.46498 0.0542,0.17587 0.17406,0.26563 0.3595,0.26882 l 1.53549,0.041 c 0.16403,0.006 0.24787,0.0911 0.2506,0.2547 l 0.0182,3.86879 c 0,0.22782 0.11391,0.34628 0.34172,0.35539 l 2.05491,0.0775 c 0.21551,0.009 0.32396,0.12166 0.3235,0.33716 l -4.6e-4,2.05948 c 4.6e-4,0.17314 -0.0861,0.26609 -0.25925,0.27793 l -2.10914,0.11847 c -0.24011,0.0118 -0.3604,0.13669 -0.3604,0.37362 l -0.009,1.51726 c -0.003,0.18817 -0.0984,0.28386 -0.28705,0.28705 l -4.02371,0.0592 c -0.18498,0.003 -0.27292,0.0984 -0.26381,0.28705 l 0.0775,1.56282 c 0.0123,0.18544 -0.0747,0.28568 -0.25971,0.30072 l -2.24172,0.20048 c -0.19091,0.015 -0.28705,0.11846 -0.28705,0.30983 v 2.00023 c 0,0.17041 -0.0852,0.25698 -0.25516,0.25971 l -4.19182,0.0729 c -0.31439,0.007 -0.56499,0.26427 -0.56499,0.57866 v 1.34413 c 0,0.21278 -0.10616,0.31893 -0.31895,0.31893 l -3.67241,0.0182 c -0.31256,0.003 -0.56499,0.25697 -0.56499,0.56954 v 1.29856 c 0,0.1818 -0.0911,0.28249 -0.27338,0.30072 l -2.18704,0.20959 c -0.18225,0.0178 -0.27338,0.11847 -0.27338,0.30072 v 1.63117 c 0,0.44652 -0.22326,0.67297 -0.66978,0.67889 l -3.56761,0.0547 c -0.21278,0.003 -0.31894,0.11118 -0.31894,0.3235 v 1.31678 c 4.5e-4,0.33443 -0.26291,0.60918 -0.59689,0.62422 l -2.15514,0.0911 -0.20959,-0.13214 -1.74053,-0.009 c -0.18545,-0.003 -0.27931,-0.097 -0.2825,-0.2825 l -0.0273,-1.8362 -0.22782,-0.15036 -1.57193,0.0228 c -0.16403,0.003 -0.26883,-0.0761 -0.31439,-0.23693 -0.20959,-0.76821 -0.26427,-1.55828 -0.16403,-2.3693 l -0.22326,-0.1458 -2.20071,-0.0592 c -0.19775,-0.006 -0.29617,-0.10753 -0.29617,-0.30482 l 0.005,-3.9508 -0.3595,-0.24604 c -0.55633,0.10297 -1.10171,0.0911 -1.63617,-0.0365 -0.17633,-0.0424 -0.26564,-0.15492 -0.26883,-0.33717 l -0.0319,-2.20983 -0.13214,-0.13213 -1.67218,-0.0365 c -0.18543,-0.003 -0.30982,-0.0925 -0.37407,-0.26883 -0.20002,-0.57729 -0.23374,-1.19056 -0.0998,-1.84075 l -0.13213,-0.13214 0.10479,-1.92277 c 0.009,-0.14261 -0.0574,-0.21871 -0.20048,-0.22782 l -2.23261,-0.16448 c -0.18225,-0.0114 -0.27292,-0.1089 -0.27337,-0.29115 v -2.00936 c 0,-0.24284 -0.12302,-0.36768 -0.36907,-0.37361 l -1.52182,-0.0365 c -0.21552,-0.005 -0.38729,-0.18089 -0.38729,-0.3964 v -3.91846 c 0,-0.14853 -0.0761,-0.22326 -0.22782,-0.22326 l -1.75418,-0.009 c -0.19775,-0.004 -0.29617,-0.10207 -0.29617,-0.29662 v -2.14604 c 0,-0.2064 -0.10343,-0.30664 -0.30983,-0.30072 l -2.15059,0.0592 c -0.17906,0.006 -0.26928,0.0989 -0.26882,0.27793 l -0.009,2.08225 c 0,0.17906 -0.0879,0.27475 -0.26427,0.28705 l -1.71728,0.13669 c -0.19501,0.015 -0.29206,0.12165 -0.29206,0.31894 v 1.41703 c 0,0.25105 -0.20276,0.4538 -0.45062,0.45107 -1.19741,-0.009 -2.38661,-0.007 -3.56807,0.005 -1.09353,0.009 -1.05206,0.58321 -0.99283,1.46259 0.0328,0.44971 -0.17359,0.70441 -0.62011,0.76546 l -1.4307,0.19593 c -0.15218,0.0214 -0.22736,0.10935 -0.22782,0.26426 l -4.5e-4,2.0139 c 4.5e-4,0.1941 -0.098,0.29298 -0.29571,0.29617 l -1.68128,0.009 c -0.1941,0 -0.29298,0.097 -0.29617,0.29161 l -0.009,1.41246 c -0.002,0.31256 -0.2547,0.56498 -0.56499,0.56498 l -1.7633,0.009 c -0.21551,0.003 -0.32942,0.11254 -0.34172,0.32806 l -0.0911,1.66305 c -0.009,0.16403 -0.0957,0.24741 -0.25971,0.25015 l -3.70431,0.046 c -0.3112,0.005 -0.56089,0.25834 -0.56043,0.56954 v 1.62205 c 0,0.27658 -0.22007,0.50303 -0.49663,0.51032 l -1.97746,0.0547 c -0.17314,0.006 -0.25971,0.0957 -0.25926,0.26883 l -4.5e-4,1.67218 c 0,0.19456 -0.0989,0.29296 -0.29617,0.29615 l -1.6945,0.009 c -0.19182,0 -0.2875,-0.0957 -0.2875,-0.28704 v -1.64941 c 0,-0.14307 -0.0683,-0.231 -0.20504,-0.26426 -0.87755,-0.21279 -1.72685,-0.16403 -2.54699,0.1458 l -0.20959,-0.24604 -1.6904,-0.0232 c -0.19729,-0.003 -0.29935,-0.10252 -0.30528,-0.30027 l -0.0729,-2.16425 -0.3235,-0.24605 -1.6134,0.041 c -0.22098,0.006 -0.33215,-0.10206 -0.33215,-0.3235 l -0.009,-1.74963 -0.22782,-0.22782 -2.13283,-0.0415 c -0.20367,-0.002 -0.30983,-0.10753 -0.31894,-0.31393 l -0.0547,-1.69496 -0.1139,-0.22782 -1.78609,-0.041 c -0.19729,-0.003 -0.29889,-0.1048 -0.30527,-0.30528 l -0.0547,-2.25538 -0.34173,-0.15036 -1.6585,-0.009 c -0.18225,-0.003 -0.27338,-0.0957 -0.27338,-0.27794 l -0.009,-1.67673 c -0.003,-0.19729 -0.10207,-0.29617 -0.29617,-0.29617 h -2.19159 c -0.14854,0 -0.22463,-0.0743 -0.22782,-0.22326 l -0.0314,-1.82709 -0.11436,-0.22781 -1.74963,-0.0273 c -0.19411,-0.003 -0.29617,-0.10206 -0.30528,-0.29617 l -0.10935,-2.18294 -0.3235,-0.24558 -1.63118,-0.005 c -0.20367,0 -0.30527,-0.10161 -0.30527,-0.30527 v -1.60839 c 0,-0.20367 0.1016,-0.30664 0.30527,-0.30983 l 1.74508,-0.0501 0.22782,-0.22782 0.041,-2.13236 c 0.003,-0.20686 0.10799,-0.3112 0.31439,-0.31393 l 1.69495,-0.0232 0.20959,-0.24605 0.0501,-1.6904 c 0.003,-0.19729 0.1048,-0.29753 0.30528,-0.30072 l 2.28227,-0.041 0.13259,-0.36041 c -0.11391,-1.8312 -0.19137,-1.93144 1.72229,-1.94966 0.29753,-0.002 0.53765,-0.24468 0.53811,-0.54221 l -4.6e-4,-1.84076 c 0,-0.17906 0.0893,-0.27201 0.26883,-0.27793 l 1.7633,-0.0592 0.22781,-0.22781 0.0501,-1.6904 c 0.003,-0.19775 0.1048,-0.29753 0.30528,-0.30072 l 2.28319,-0.041 0.13213,-0.35995 c -0.11436,-1.83164 -0.18726,-1.93188 1.72184,-1.95011 0.29753,-0.002 0.53765,-0.24468 0.53765,-0.54221 v -1.8403 c 0,-0.17952 0.0898,-0.2711 0.26882,-0.27383 l 1.78153,-0.0456 0.20959,-0.24604 0.0501,-1.69086 c 0.003,-0.19684 0.1048,-0.29708 0.30528,-0.30072 l 2.28272,-0.0406 0.13213,-0.35994 c -0.13669,-0.5987 -0.0984,-1.17098 0.11391,-1.71774 0.0579,-0.14581 0.1654,-0.21871 0.3235,-0.21871 h 1.49448 c 0.21232,0 0.31894,-0.10662 0.31894,-0.31894 l -0.009,-2.18704 -0.20959,-0.24605 -1.69951,-0.0228 c -0.20367,-0.003 -0.30664,-0.10662 -0.30983,-0.30983 l -0.041,-1.79519 -0.22782,-0.15036 h -2.20071 c -0.20321,0 -0.30527,-0.10161 -0.30527,-0.30482 v -1.65441 c 0,-0.19455 -0.0989,-0.29343 -0.29617,-0.29616 l -1.67217,-0.009 c -0.17314,-4.5e-4 -0.2629,-0.087 -0.26882,-0.26016 l -0.0588,-2.24173 -0.21005,-0.24603 -1.69952,-0.0228 c -0.2032,-0.003 -0.30663,-0.10616 -0.30982,-0.30983 l -0.0228,-1.92734 c 0.0911,-0.78049 0.009,-1.53411 -0.24605,-2.25994 l -2.12781,-0.0273 c -0.19729,0 -0.29936,-0.0989 -0.30528,-0.29616 l -0.0729,-2.18248 -0.13213,-0.24605 -1.83575,-0.0273 c -0.1859,-0.003 -0.28158,-0.0975 -0.28751,-0.2825 l -0.041,-1.74052 -0.32351,-0.24604 -1.71773,-0.009 c -0.14581,0 -0.21871,-0.0729 -0.21871,-0.21871 v -1.45803 c 0,-0.31439 -0.25333,-0.56954 -0.56453,-0.56954 l -1.89133,-0.009 c -0.18226,0 -0.27475,-0.0911 -0.27794,-0.27338 l -0.0182,-2.22806 -0.20959,-0.24604 -1.73596,0.0319 c -0.19729,0.003 -0.29753,-0.0943 -0.30072,-0.29159 l -0.0319,-1.54461 -0.3235,-0.47386 -1.63118,-0.004 c -0.20367,-4.5e-4 -0.30527,-0.10206 -0.30527,-0.30573 v -1.60838 c 0,-0.20367 0.10206,-0.3071 0.30527,-0.30984 l 1.74508,-0.0501 0.22782,-0.22781 0.0319,-2.10959 c 0.003,-0.1941 0.1016,-0.29616 0.29616,-0.30527 l 1.70407,-0.0729 0.22781,-0.34173 0.0866,-1.60838 c 0.0123,-0.19456 0.11527,-0.29343 0.30983,-0.29617 l 2.24171,-0.0137 0.13214,-0.24605 c -0.14899,-0.6224 -0.11847,-1.20925 0.0911,-1.75875 0.0642,-0.16995 0.18681,-0.25698 0.36906,-0.26017 l 3.94579,-0.0314 0.15035,-0.22782 -0.005,-2.1278 c 0,-0.19775 0.0975,-0.29936 0.2916,-0.30528 l 2.1825,-0.0729 0.15036,-0.22782 0.24148,-1.77697 c 0.0273,-0.18225 0.1335,-0.27338 0.31894,-0.27338 h 4.07337 l 0.0365,-0.34172 c -0.10343,-0.55588 -0.0911,-1.10127 0.0364,-1.63573 0.0428,-0.17587 0.15492,-0.26563 0.33717,-0.26882 l 2.20982,-0.0314 0.11346,-0.11436 0.0141,-2.06858 c 0.002,-0.29844 0.24149,-0.53993 0.53765,-0.54221 l 4.11484,-0.0319 c 0.2155,0 0.32759,-0.10753 0.33625,-0.3235 l 0.0734,-1.57194 c 0.009,-0.22189 0.12621,-0.33261 0.35084,-0.33261 l 1.76787,-0.009 0.13213,-0.35995 c -0.11391,-1.8271 -0.19136,-1.93645 1.71774,-1.95012 0.30026,-0.003 0.5422,-0.2465 0.5422,-0.54675 V 419.606 c 0,-0.18681 0.15082,-0.33762 0.33763,-0.33762 l 4.44653,-0.0137 0.22781,-0.22782 z m -0.25515,1.92277 c 0.36451,0.79599 0.38865,1.62206 0.0729,2.47865 0.31575,-0.85659 0.29161,-1.68266 -0.0729,-2.47865 z m -4.55634,2.75203 c -0.15218,0 -0.22782,0.0756 -0.22782,0.22781 0,-0.15218 0.0756,-0.22781 0.22782,-0.22781 z m 46.26507,-0.22782 c -0.76865,0.26108 -1.58241,0.3235 -2.4422,0.18681 0.85979,0.13669 1.67355,0.0743 2.4422,-0.18681 z m -36.4097,4.32397 c -0.15218,-1.3701 -0.12758,-2.73563 0.0729,-4.09615 -0.20047,1.36052 -0.22507,2.72605 -0.0729,4.09615 z m -14.34291,0.46019 c -0.17998,0 -0.27247,0.0911 -0.2784,0.27338 0.006,-0.18225 0.0984,-0.27338 0.2784,-0.27338 z m 45.60851,-2.25994 c 0.23693,0.68937 0.22326,1.35778 -0.041,2.00479 0.26427,-0.64701 0.27794,-1.31542 0.041,-2.00479 z m -4.67025,4.99374 c -0.15173,0 -0.22782,0.0761 -0.22782,0.22782 0,-0.15172 0.0761,-0.22782 0.22782,-0.22782 z m 12.27477,-3.05274 c -0.2916,-0.67115 -0.28248,-1.33046 0.0273,-1.97745 -0.30982,0.64699 -0.31894,1.3063 -0.0273,1.97745 z m -36.10442,3.00718 c -0.16084,-0.003 -0.27202,-0.0806 -0.33262,-0.23237 0.0606,0.15172 0.17178,0.22918 0.33262,0.23237 z m -0.33262,-0.23237 c -0.32213,-0.82288 -0.31758,-1.64803 0.0137,-2.47364 -0.33125,0.82561 -0.3358,1.65076 -0.0137,2.47364 z m -22.1347,2.16426 c -0.0305,0.14853 -0.1171,0.24741 -0.25971,0.29616 0.14261,-0.0488 0.22918,-0.14763 0.25971,-0.29616 z m -0.25971,0.29616 c -0.84156,0.27657 -1.64347,0.19455 -2.40575,-0.24604 0.76228,0.44059 1.56419,0.52261 2.40575,0.24604 z m 42.00034,2.37431 c -0.15173,-4.6e-4 -0.22782,0.0756 -0.22782,0.22736 0,-0.15173 0.0761,-0.22782 0.22782,-0.22736 z m -2.74292,5.02519 c -0.0911,0.003 -0.13942,0.0487 -0.1458,0.13669 0.006,-0.0879 0.0547,-0.13396 0.1458,-0.13669 z m -14.68964,-5.3856 c -0.24285,-0.63515 -0.20367,-1.26848 0.11847,-1.89999 -0.32214,0.63151 -0.36132,1.26484 -0.11847,1.89999 z m 46.34663,2.86593 c -0.55177,0.28295 -1.1081,0.3472 -1.66716,0.19319 0.55906,0.15401 1.11539,0.0898 1.66716,-0.19319 z m -80.68776,2.1506 c -0.0365,0.15765 -0.1335,0.24878 -0.2916,0.27339 0.1581,-0.0246 0.25515,-0.11574 0.2916,-0.27339 z m 37.38021,0.29617 c -0.15491,-0.009 -0.25515,-0.0879 -0.30026,-0.23693 0.0451,0.14899 0.14535,0.22781 0.30026,0.23693 z m 43.80009,0.0365 c -0.16995,-0.009 -0.28705,-0.0911 -0.35084,-0.24604 0.0638,0.15491 0.18089,0.23693 0.35084,0.24604 z m -85.8141,2.02757 c -0.0547,0.15218 -0.16266,0.23374 -0.3235,0.24604 0.16084,-0.0123 0.26883,-0.0939 0.3235,-0.24604 z m 90.50714,2.66545 c -0.23693,-0.82014 -0.21233,-1.62342 0.0729,-2.4103 -0.28523,0.78688 -0.30983,1.59016 -0.0729,2.4103 z m 4.37863,2.90695 c -0.006,-0.18545 -0.10343,-0.27931 -0.2916,-0.28295 0.18817,0.004 0.28522,0.0975 0.2916,0.28295 z m -1.82253,-0.29161 c -0.16084,0 -0.26746,-0.0761 -0.31894,-0.22782 0.0515,0.15173 0.1581,0.22782 0.31894,0.22782 z m -95.72414,0.21415 c 0.18818,0.70487 0.1335,1.38832 -0.16403,2.05035 0.29753,-0.66203 0.35221,-1.34548 0.16403,-2.05035 z m 0.0456,2.29639 c 0.78689,-0.33398 1.61613,-0.37362 2.48776,-0.11846 -0.87163,-0.25516 -1.70087,-0.21552 -2.48776,0.11846 z m 2.48776,-0.11846 c 0.17634,0.0515 0.26427,0.17041 0.26427,0.35539 0,-0.18498 -0.0879,-0.30391 -0.26427,-0.35539 z m 2.46043,2.89327 c 0.24012,0.72902 0.15309,1.39288 -0.25972,1.99113 0.41281,-0.59825 0.49984,-1.26211 0.25972,-1.99113 z m 0.0638,2.23717 c 0.65292,-0.30983 1.31359,-0.35676 1.98247,-0.14124 -0.66888,-0.21552 -1.32955,-0.16859 -1.98247,0.14124 z m 2.25082,0.15948 c 0.12166,0.63469 0.093,1.26483 -0.0866,1.89087 0.17951,-0.62604 0.20822,-1.25618 0.0866,-1.89087 z m 5.0211,7.19946 c 0.14261,0.6707 0.0788,1.32545 -0.19137,1.96334 0.27019,-0.63789 0.33398,-1.29264 0.19137,-1.96334 z m 2.32373,4.44198 c 0.003,0.16722 0.0879,0.25197 0.25515,0.25516 -0.16721,-0.003 -0.25196,-0.0879 -0.25515,-0.25516 z m 2.65179,0.71534 c 0.18544,0.65293 0.13395,1.25892 -0.15492,1.81799 0.28887,-0.55907 0.34036,-1.16506 0.15492,-1.81799 z m 5.08532,6.16473 c -4.5e-4,0.37772 -0.30663,0.68345 -0.68389,0.68345 0.37726,0 0.68344,-0.30573 0.68389,-0.68345 z m -7.97404,5.25802 c 0.37043,0.82014 0.38729,1.65851 0.0501,2.5151 0.33717,-0.85659 0.32031,-1.69496 -0.0501,-2.5151 z m -2.05035,4.50622 c 0,0.14307 -0.0638,0.24741 -0.19137,0.31439 0.12758,-0.067 0.19137,-0.17132 0.19137,-0.31439 z m -2.37841,2.38296 c -0.0547,0.15492 -0.16084,0.25516 -0.31894,0.30026 0.1581,-0.0451 0.26426,-0.14534 0.31894,-0.30026 z m -0.31894,0.30026 c -0.79281,0.22235 -1.57058,0.1736 -2.33286,-0.14534 0.76228,0.31894 1.54005,0.36769 2.33286,0.14534 z m -4.5928,4.60693 c 0,0.14261 -0.0638,0.24741 -0.19137,0.31438 0.12758,-0.067 0.19137,-0.17177 0.19137,-0.31438 z m -0.19137,0.31438 c -0.7167,0.3645 -1.40653,0.308 -2.06857,-0.16904 0.66204,0.47704 1.35187,0.53354 2.06857,0.16904 z m 78.46018,2.31007 c -0.18226,-0.0574 -0.27976,-0.18226 -0.29161,-0.37363 0.0118,0.19137 0.10935,0.31622 0.29161,0.37363 z m -2.6199,-2.72469 c -0.0729,-0.75682 -0.0333,-1.31998 0.11847,-1.69041 -0.15173,0.37043 -0.19137,0.93359 -0.11847,1.69041 z m 5.19423,7.59085 c -0.13077,-0.0975 -0.19593,-0.22645 -0.19593,-0.38729 0,0.16084 0.0652,0.28979 0.19593,0.38729 z m -0.10936,-4.7158 c 0.0547,-0.0182 0.10161,-0.0273 0.14125,-0.0273 -0.0396,0 -0.0866,0.009 -0.14125,0.0273 z m -88.04214,5.23021 c 0.67433,-0.28841 1.3637,-0.33215 2.06857,-0.13167 -0.70487,-0.20048 -1.39424,-0.15674 -2.06857,0.13167 z m 9.34505,7.14481 c 0.14899,0.0337 0.22006,0.12757 0.21414,0.28248 0.006,-0.15491 -0.0652,-0.24877 -0.21414,-0.28248 z m 0.22325,2.8796 c 0.796,-0.28249 1.6084,-0.3399 2.43765,-0.17314 -0.82925,-0.16676 -1.64165,-0.10935 -2.43765,0.17314 z m 2.73427,2.27817 c 0.66476,-0.31895 1.33455,-0.36314 2.00889,-0.13214 -0.67434,-0.231 -1.34413,-0.18681 -2.00889,0.13214 z m 43.69484,0.16858 c 0.13669,0.63151 0.11391,1.25891 -0.0684,1.88177 0.18226,-0.62286 0.20504,-1.25026 0.0684,-1.88177 z m 0.0638,2.0139 c 0.66842,-0.13669 1.34138,-0.1335 2.01845,0.009 -0.67707,-0.14262 -1.35003,-0.14581 -2.01845,-0.009 z m 2.2326,0.22326 c 0.17907,0.83564 0.0806,1.62207 -0.29571,2.36019 0.37636,-0.73812 0.47478,-1.52455 0.29571,-2.36019 z m 0.0638,2.60623 c 0.82014,-0.29434 1.64803,-0.30983 2.4832,-0.0456 -0.83517,-0.26427 -1.66306,-0.24878 -2.4832,0.0456 z m 2.4832,-0.0456 c 0.12166,0.036 0.18818,0.11983 0.20048,0.2506 -0.0123,-0.13077 -0.0788,-0.21461 -0.20048,-0.2506 z m 4.72949,7.33115 c 0.17952,0.69575 0.12302,1.37419 -0.16858,2.03668 0.2916,-0.66249 0.3481,-1.34093 0.16858,-2.03668 z m -57.89741,-19.82008 c -0.2064,0 -0.31439,-0.10343 -0.3235,-0.30984 0.009,0.20641 0.1171,0.30984 0.3235,0.30984 z m -1.93644,-2.30095 c -0.39732,-0.0241 -0.70669,-0.35175 -0.70578,-0.74724 -9.1e-4,0.39549 0.30846,0.72309 0.70578,0.74724 z m 10.85775,-17.28675 c 0.004,4.5e-4 0.008,0 0.0123,0 -0.004,0 -0.008,4.5e-4 -0.0123,0 z m 3.0163,-4.78416 c 0,-0.14853 0.0761,-0.22326 0.22782,-0.22326 -0.15173,0 -0.22782,0.0747 -0.22782,0.22326 z m 2.27817,-2.20527 c -4.6e-4,-0.19729 0.0989,-0.29616 0.29616,-0.29616 -0.19729,0 -0.29662,0.0989 -0.29616,0.29616 z m 2.37386,-0.30528 c 0.23418,0 0.35219,-0.1171 0.35538,-0.35083 -0.003,0.23373 -0.1212,0.35083 -0.35538,0.35083 z m -7.07145,-12.31577 c -0.20959,-0.003 -0.31438,-0.10936 -0.31438,-0.31895 0,0.20959 0.10479,0.31621 0.31438,0.31895 z m -4.87072,-8.9122 c 0,-0.34173 -0.27338,-0.62149 -0.61511,-0.62878 0.34173,0.007 0.61511,0.28705 0.61511,0.62878 z m -2.36019,-0.66068 c -0.24604,-0.003 -0.36907,-0.12621 -0.36907,-0.36906 0,0.24285 0.12303,0.36633 0.36907,0.36906 z m -2.31006,-2.25538 c -0.22782,0 -0.34173,-0.11391 -0.34173,-0.34173 0,0.22782 0.11391,0.34173 0.34173,0.34173 z m -0.34173,-2.16427 c 0,-0.31439 -0.2547,-0.56954 -0.56954,-0.56954 0.31484,0 0.56954,0.25515 0.56954,0.56954 z m -4.69758,-2.87049 c -0.20959,-0.003 -0.31439,-0.10936 -0.31485,-0.31895 4.6e-4,0.20959 0.10526,0.31621 0.31485,0.31895 z m 2.13236,-2.25539 c 0.19137,0 0.28705,-0.0952 0.28705,-0.28705 0,0.19182 -0.0957,0.28705 -0.28705,0.28705 z m 7.5772,-7.00355 c 0,-0.19091 0.0957,-0.2866 0.28704,-0.2866 -0.19136,0 -0.28704,0.0957 -0.28704,0.2866 z m 4.21461,-0.2866 c 0.22782,0 0.34173,-0.11391 0.34173,-0.34171 0,0.2278 -0.11391,0.34171 -0.34173,0.34171 z m 7.72756,-5.01197 c 0.23418,0 0.35265,-0.1171 0.35538,-0.35084 -0.003,0.23374 -0.1212,0.35084 -0.35538,0.35084 z m 16.92224,-2.27361 c 0.19729,0.003 0.29616,0.10343 0.29616,0.30072 0,-0.19729 -0.0989,-0.29753 -0.29616,-0.30072 z m 9.587,16.86757 c 0.18453,0.003 0.27748,0.0957 0.27748,0.27793 0,-0.18225 -0.0929,-0.2752 -0.27748,-0.27793 z m 0.27748,1.98201 c 0,0.18862 0.0957,0.28249 0.28704,0.28249 -0.19136,0 -0.28704,-0.0939 -0.28704,-0.28249 z m 14.27546,-14.30236 c 0.19091,-0.003 0.28979,-0.0984 0.29571,-0.28705 -0.006,0.18864 -0.1048,0.28386 -0.29571,0.28705 z m 31.85747,12.30668 c 0.22782,0 0.34173,0.11391 0.34173,0.34172 0,-0.22781 -0.11391,-0.34172 -0.34173,-0.34172 z m 2.33695,2.27817 c 0.19182,0 0.28613,0.0957 0.28295,0.28705 0.003,-0.19137 -0.0911,-0.28705 -0.28295,-0.28705 z m 0.27839,2.38297 c 0,0.21597 -0.10753,0.32487 -0.32305,0.32806 0.21552,-0.003 0.32305,-0.11209 0.32305,-0.32806 z m -2.27361,1.88632 c 0,0.41007 -0.33262,0.74269 -0.74269,0.74269 0.41007,0 0.74269,-0.33262 0.74269,-0.74269 z m -12.30668,9.95105 c 0,0.20686 -0.10479,0.31302 -0.31439,0.31894 0.2096,-0.006 0.31439,-0.11208 0.31439,-0.31894 z m -6.77528,3.09375 c -0.28203,0 -0.5103,0.23056 -0.5103,0.51486 0,-0.2843 0.22827,-0.51486 0.5103,-0.51486 z m -7.5134,7.29014 c -0.19136,0 -0.28705,0.0957 -0.28705,0.28705 0,-0.19136 0.0957,-0.28705 0.28705,-0.28705 z m 11.73258,16.85847 c 0.18818,0 0.28249,0.0957 0.28249,0.28704 0,-0.19137 -0.0943,-0.28704 -0.28249,-0.28704 z m 5.00286,7.31291 c 0.1704,0.006 0.25971,0.0925 0.26882,0.25926 -0.009,-0.16676 -0.0984,-0.25333 -0.26882,-0.25926 z m 4.57457,7.28104 c 0.18544,0.003 0.27657,0.0971 0.27338,0.28249 0.003,-0.18544 -0.0879,-0.2793 -0.27338,-0.28249 z m 0.26882,2.42397 c 0,0.19729 -0.0989,0.29616 -0.29616,0.29616 0.19729,0 0.29616,-0.0989 0.29616,-0.29616 z m -4.24651,0.29616 c -0.19729,0 -0.29616,0.0984 -0.29616,0.29617 0,-0.19775 0.0989,-0.29617 0.29616,-0.29617 z m -0.30983,1.65395 c -0.002,0.34537 -0.28113,0.62422 -0.62468,0.62422 0.34355,0 0.6224,-0.27885 0.62468,-0.62422 z m -14.74887,7.91436 c -0.18818,0 -0.2825,0.0957 -0.2825,0.28751 0,-0.19183 0.0943,-0.28751 0.2825,-0.28751 z m -7.28559,5.01198 c -0.18817,0 -0.28249,-0.0939 -0.28249,-0.28249 0,0.18863 0.0943,0.28249 0.28249,0.28249 z m -2.56978,-6.98943 c 0,-0.19774 -0.0984,-0.29616 -0.29615,-0.29571 0.19773,-4.5e-4 0.29615,0.098 0.29615,0.29571 z m -1.97752,-0.30528 c -0.19455,-0.003 -0.29161,-0.10161 -0.29161,-0.29617 0,0.19456 0.0971,0.29298 0.29161,0.29617 z m -2.46498,-2.73836 c -0.30937,-0.005 -0.55769,-0.25562 -0.56043,-0.56499 0.003,0.30937 0.25106,0.55997 0.56043,0.56499 z m -2.54744,-2.27362 c -0.19365,-0.003 -0.29116,-0.1016 -0.29116,-0.29616 0,0.19456 0.0975,0.29298 0.29116,0.29616 z m -2.27772,-2.27816 c -0.19455,-0.003 -0.2916,-0.10207 -0.2916,-0.29617 0,0.1941 0.097,0.29298 0.2916,0.29617 z m -12.30211,-10.01894 c -0.18226,-4.6e-4 -0.27475,0.0911 -0.27794,0.27292 0.003,-0.18179 0.0957,-0.27338 0.27794,-0.27292 z m -9.27671,7.28969 c -0.30892,0 -0.56226,0.24422 -0.56955,0.55131 0.007,-0.30709 0.26063,-0.55131 0.56955,-0.55131 z m -2.67913,2.7338 c -0.34036,0 -0.61921,0.2702 -0.62878,0.61055 0.01,-0.34035 0.28842,-0.61055 0.62878,-0.61055 z m -0.66978,1.91366 c -0.006,0.24286 -0.13077,0.36451 -0.37363,0.36451 0.24286,0 0.3677,-0.12165 0.37363,-0.36451 z m -16.53178,-1.97653 -0.30891,-0.37135 c 0.0387,0.16722 0.15537,0.30437 0.30891,0.37135 z"
     style="fill:#ffffff;stroke-width:0.455633"
     id="path1" />
</svg>
