<?xml version="1.0" encoding="UTF-8" standalone="no"?>
<svg
   width="380"
   height="103.44989"
   viewBox="0 0 100.54167 27.371116"
   version="1.1"
   id="svg8"
   xmlns="http://www.w3.org/2000/svg"
   xmlns:svg="http://www.w3.org/2000/svg">
  <defs
     id="defs1" />
  <path
     style="display:inline;fill:#ffffff;fill-opacity:1;stroke:#ffffff;stroke-width:0.340338;stroke-miterlimit:4;stroke-dasharray:none;stroke-opacity:1;paint-order:fill markers"
     d="M 94.992468,0.24554353 89.949546,2.1364109 v 1.9266179 l 1.101745,-0.413089 V 5.7386097 L 93.25739,6.5658316 V 2.8232399 l 1.735078,-0.6505565 z"
     id="path8969" />
  <path
     style="display:inline;fill:none;fill-opacity:1;stroke:#ffffff;stroke-width:0.340338;stroke-miterlimit:4;stroke-dasharray:none;stroke-opacity:1;paint-order:fill markers"
     d="M 95.328576,0.24554353 100.3715,2.1364109 v 1.9266179 l -1.101486,-0.413089 v 0.00157 L 97.063915,2.8245446 v -0.00104 L 95.328576,2.1726834 Z"
     id="path9172" />
  <path
     style="display:inline;fill:#ffffff;fill-opacity:1;stroke:#ffffff;stroke-width:0.203263;stroke-miterlimit:4;stroke-dasharray:none;stroke-opacity:1;paint-order:fill markers"
     d="m 95.259945,0.14664225 0.24347,0.0910727 V 2.1648548 l -0.24347,-0.091073 z"
     id="path8969-9-3" />
  <path
     style="display:inline;fill:#ffffff;fill-opacity:1;stroke:#ffffff;stroke-width:0.340338;stroke-miterlimit:4;stroke-dasharray:none;stroke-opacity:1;paint-order:fill markers"
     d="M 95.328576,9.2852256 100.3715,7.3943582 V 5.4677403 l -1.101486,0.413089 V 3.7924203 L 97.063915,2.9651985 v 3.7423307 l -1.735339,0.6508175 z"
     id="path8969-3" />
  <path
     style="display:inline;fill:none;fill-opacity:1;stroke:#ffffff;stroke-width:0.340338;stroke-miterlimit:4;stroke-dasharray:none;stroke-opacity:1;paint-order:fill markers"
     d="M 94.992468,9.2852256 89.949546,7.3943582 V 5.4677403 l 1.101745,0.413089 v -0.00157 l 2.206099,0.8272219 v 0.00104 l 1.735078,0.6505565 z"
     id="path9172-8" />
  <path
     style="display:inline;fill:#ffffff;fill-opacity:1;stroke:#ffffff;stroke-width:0.203263;stroke-miterlimit:4;stroke-dasharray:none;stroke-opacity:1;paint-order:fill markers"
     d="m 95.061099,9.3841268 -0.24347,-0.091073 V 7.3659143 l 0.24347,0.091334 z"
     id="path8969-9-3-6" />
  <path
     d="M 0,0.60096188 V 2.7238167 H 3.7086678 V 8.9300682 H 6.3685644 V 2.7238167 H 10.077493 V 0.60096188 Z"
     style="font-style:normal;font-variant:normal;font-weight:bold;font-stretch:normal;font-size:32.5088px;line-height:1.25;font-family:'Microgramma D Extended';font-feature-settings:normal;text-align:start;letter-spacing:0px;word-spacing:0px;writing-mode:lr-tb;text-anchor:start;display:inline;fill:#ffffff;fill-opacity:1;stroke-width:0.106041"
     id="path854" />
  <path
     d="M 10.296694,0.60096188 V 8.9300682 h 2.659897 v -3.009574 h 5.731838 v 3.009574 h 2.659636 V 0.60096188 H 18.688429 V 3.5852234 H 12.956591 V 0.60096188 Z"
     style="font-style:normal;font-variant:normal;font-weight:bold;font-stretch:normal;font-size:32.5088px;line-height:1.25;font-family:'Microgramma D Extended';font-feature-settings:normal;text-align:start;letter-spacing:0px;word-spacing:0px;writing-mode:lr-tb;text-anchor:start;display:inline;fill:#ffffff;fill-opacity:1;stroke-width:0.106041"
     id="path856" />
  <path
     d="m 28.060304,0.47596527 c -3.483987,0 -4.258235,0.0874193 -4.894961,0.57435813 -0.636987,0.4871997 -0.82409,1.3363417 -0.82409,3.6588257 0,2.4474807 0.174577,3.271832 0.82409,3.7712966 0.636726,0.4869388 1.410974,0.5743581 4.920013,0.5743581 3.44641,0 4.233184,-0.087419 4.870171,-0.5743581 0.636726,-0.4869388 0.82409,-1.3238159 0.82409,-3.7211936 0,-2.3851128 -0.187364,-3.221729 -0.82409,-3.7089287 C 32.31854,0.56338461 31.544292,0.47596527 28.060304,0.47596527 Z m 0,2.16043203 c 2.322745,0 2.597529,0.037316 2.884578,0.374468 0.224942,0.2747838 0.299835,0.7491968 0.299835,1.9855934 0,1.0114548 -0.08742,1.3736579 -0.374729,1.5983387 -0.337151,0.2497323 -0.749197,0.2998353 -2.784632,0.2998353 -2.097803,0 -2.497584,-0.037577 -2.834735,-0.2998353 -0.299575,-0.2372065 -0.374468,-0.5743581 -0.374468,-1.6108645 0,-1.0612969 0.04984,-1.5359709 0.199629,-1.8232805 0.249732,-0.4869387 0.4872,-0.5242551 2.984522,-0.5242551 z"
     style="font-style:normal;font-variant:normal;font-weight:bold;font-stretch:normal;font-size:32.5088px;line-height:1.25;font-family:'Microgramma D Extended';font-feature-settings:normal;text-align:start;letter-spacing:0px;word-spacing:0px;writing-mode:lr-tb;text-anchor:start;display:inline;fill:#ffffff;fill-opacity:1;stroke-width:0.106041"
     id="path858" />
  <path
     d="M 34.783765,0.60096188 V 8.9300682 h 2.497584 l -0.06237,-6.231303 h 0.449362 l 3.13457,6.231303 h 2.110329 l 3.13431,-6.231303 h 0.424571 l -0.06237,6.231303 h 2.497323 V 0.60096188 H 44.336742 L 41.851684,6.0079135 39.379152,0.60096188 Z"
     style="font-style:normal;font-variant:normal;font-weight:bold;font-stretch:normal;font-size:32.5088px;line-height:1.25;font-family:'Microgramma D Extended';font-feature-settings:normal;text-align:start;letter-spacing:0px;word-spacing:0px;writing-mode:lr-tb;text-anchor:start;display:inline;fill:#ffffff;fill-opacity:1;stroke-width:0.106041"
     id="path860" />
  <path
     d="m 49.776313,6.1702264 v 0.3995195 c 0,1.1489772 0.187365,1.635916 0.761723,1.9981191 0.586884,0.374468 1.598599,0.4869388 4.183342,0.4869388 2.485057,0 3.53409,-0.062368 4.033554,-0.2497323 0.861668,-0.3246258 1.211084,-1.0365063 1.211084,-2.4850579 0,-1.161242 -0.212155,-1.7230744 -0.786513,-2.0978033 C 58.642461,3.8850587 58.105419,3.8226909 55.358364,3.7352715 53.597452,3.6851685 52.910623,3.6478522 52.685942,3.5852234 52.423684,3.5228556 52.311213,3.3605426 52.311213,3.0484425 c 0,-0.6119354 0.174839,-0.6617774 2.322745,-0.6617774 1.798229,0 2.110329,0.024791 2.322745,0.1497871 0.187365,0.1122099 0.224681,0.2246808 0.249732,0.686829 h 2.447481 c 0.01253,-0.1623129 0.01253,-0.3371516 0.01253,-0.3872546 0,-0.9864034 -0.19989,-1.5109194 -0.699355,-1.84807103 -0.586884,-0.39951945 -1.461077,-0.5119903 -3.883506,-0.5119903 -1.998119,0 -3.146836,0.0498421 -3.633775,0.14978717 -1.148977,0.24973227 -1.598599,0.96161276 -1.598599,2.54742576 0,1.8358062 0.574619,2.3603223 2.634845,2.4226901 l 0.674303,0.024791 1.348868,0.062629 1.997858,0.074894 c 0.811825,0.012526 0.998929,0.1372615 0.998929,0.636726 0,0.736932 0,0.736932 -2.722265,0.736932 -1.785703,0 -2.060226,-0.025052 -2.297693,-0.1748387 C 52.286423,6.8320039 52.23632,6.669691 52.23632,6.1702264 Z"
     style="font-style:normal;font-variant:normal;font-weight:bold;font-stretch:normal;font-size:32.5088px;line-height:1.25;font-family:'Microgramma D Extended';font-feature-settings:normal;text-align:start;letter-spacing:0px;word-spacing:0px;writing-mode:lr-tb;text-anchor:start;display:inline;fill:#ffffff;fill-opacity:1;stroke-width:0.106041"
     id="path862" />
  <path
     d="m 66.400602,0.47596527 c -3.483987,0 -4.258236,0.0874193 -4.894961,0.57435813 -0.636987,0.4871997 -0.824352,1.3363417 -0.824352,3.6588257 0,2.4474807 0.174839,3.271832 0.824352,3.7712966 0.636725,0.4869388 1.410974,0.5743581 4.920012,0.5743581 3.44641,0 4.233184,-0.087419 4.870171,-0.5743581 0.636726,-0.4869388 0.824091,-1.3238159 0.824091,-3.7211936 0,-2.3851128 -0.187365,-3.221729 -0.824091,-3.7089287 C 70.658837,0.56338461 69.884589,0.47596527 66.400602,0.47596527 Z m 0,2.16043203 c 2.322745,0 2.597529,0.037316 2.884577,0.374468 0.224942,0.2747838 0.299836,0.7491968 0.299836,1.9855934 0,1.0114548 -0.08742,1.3736579 -0.374729,1.5983387 -0.337152,0.2497323 -0.749197,0.2998353 -2.784633,0.2998353 -2.097803,0 -2.497583,-0.037577 -2.834735,-0.2998353 C 63.291344,6.3575909 63.21645,6.0204393 63.21645,4.9839329 c 0,-1.0612969 0.04984,-1.5359709 0.199629,-1.8232805 0.249733,-0.4869387 0.4872,-0.5242551 2.984523,-0.5242551 z"
     style="font-style:normal;font-variant:normal;font-weight:bold;font-stretch:normal;font-size:32.5088px;line-height:1.25;font-family:'Microgramma D Extended';font-feature-settings:normal;text-align:start;letter-spacing:0px;word-spacing:0px;writing-mode:lr-tb;text-anchor:start;display:inline;fill:#ffffff;fill-opacity:1;stroke-width:0.106041"
     id="path864" />
  <path
     d="M 73.124063,0.60096188 V 8.9300682 h 2.585003 l -0.06237,-6.2187773 h 0.274523 l 4.383232,6.2187773 h 4.408022 V 0.60096188 H 82.12747 L 82.1901,6.8072134 H 81.927843 L 77.569662,0.60096188 Z"
     style="font-style:normal;font-variant:normal;font-weight:bold;font-stretch:normal;font-size:32.5088px;line-height:1.25;font-family:'Microgramma D Extended';font-feature-settings:normal;text-align:start;letter-spacing:0px;word-spacing:0px;writing-mode:lr-tb;text-anchor:start;display:inline;fill:#ffffff;fill-opacity:1;stroke-width:0.106041"
     id="path866" />
  <path
     d="m 4.8581669,14.060931 v 11.911734 h 3.5716673 l -0.089246,-8.911554 h 0.6429889 l 4.4823939,8.911554 h 3.018186 l 4.482394,-8.911554 h 0.607238 l -0.08925,8.911554 h 3.571668 V 14.060931 H 18.52011 l -3.553922,7.732828 -3.536178,-7.732828 z"
     style="font-style:normal;font-variant:normal;font-weight:bold;font-stretch:normal;font-size:46.4917px;line-height:1.25;font-family:'Microgramma D Extended';font-feature-settings:normal;text-align:start;letter-spacing:0px;word-spacing:0px;writing-mode:lr-tb;text-anchor:start;display:inline;fill:none;fill-opacity:1;stroke:#ffffff;stroke-width:0.328851;stroke-miterlimit:4;stroke-dasharray:none;stroke-opacity:1"
     id="path869" />
  <path
     d="m 34.657203,13.882439 c -4.982642,0 -6.089866,0.124997 -7.000593,0.821481 -0.910727,0.696484 -1.178726,1.9107 -1.178726,5.232635 0,3.500166 0.249993,4.678892 1.178726,5.393121 0.910727,0.696484 2.017951,0.821481 7.036344,0.821481 4.928885,0 6.054115,-0.124997 6.964842,-0.821481 0.910727,-0.696484 1.178726,-1.892955 1.178726,-5.321881 0,-3.41092 -0.267999,-4.607391 -1.178726,-5.303875 -0.910727,-0.696484 -2.017951,-0.821481 -7.000593,-0.821481 z m 0,3.089426 c 3.321674,0 3.71467,0.05349 4.12541,0.535737 0.321495,0.392996 0.428485,1.071474 0.428485,2.839693 0,1.446464 -0.124996,1.964457 -0.535737,2.28569 -0.482241,0.357245 -1.071474,0.428746 -3.982407,0.428746 -3.00018,0 -3.571668,-0.05349 -4.053909,-0.428746 -0.428747,-0.339239 -0.535737,-0.821481 -0.535737,-2.303695 0,-1.517966 0.0715,-2.196444 0.285743,-2.607184 0.356984,-0.696746 0.696485,-0.750241 4.268152,-0.750241 z"
     style="font-style:normal;font-variant:normal;font-weight:bold;font-stretch:normal;font-size:46.4917px;line-height:1.25;font-family:'Microgramma D Extended';font-feature-settings:normal;text-align:start;letter-spacing:0px;word-spacing:0px;writing-mode:lr-tb;text-anchor:start;display:inline;fill:none;fill-opacity:1;stroke:#ffffff;stroke-width:0.328851;stroke-miterlimit:4;stroke-dasharray:none;stroke-opacity:1"
     id="path871" />
  <path
     style="font-style:normal;font-variant:normal;font-weight:bold;font-stretch:normal;font-size:46.4917px;line-height:1.25;font-family:'Microgramma D Extended';font-feature-settings:normal;text-align:start;letter-spacing:0px;word-spacing:0px;writing-mode:lr-tb;text-anchor:start;display:inline;fill:#ffffff;fill-opacity:1;stroke-width:0.130149;stroke-opacity:1"
     d="m 55.729179,12.662483 -8.411046,14.695844 h 1.122882 l -0.0076,0.01279 h 1.938622 l 8.42618,-14.695583 h -1.122621 l 0.0076,-0.01305 z"
     id="path873" />
  <path
     d="m 63.280123,14.060931 v 3.035931 h 5.303875 v 8.875803 h 3.803916 v -8.875803 h 5.304136 v -3.035931 z"
     style="font-style:normal;font-variant:normal;font-weight:bold;font-stretch:normal;font-size:46.4917px;line-height:1.25;font-family:'Microgramma D Extended';font-feature-settings:normal;text-align:start;letter-spacing:0px;word-spacing:0px;writing-mode:lr-tb;text-anchor:start;display:inline;fill:#ffffff;fill-opacity:1;stroke-width:0.151652;stroke-opacity:1"
     id="path875" />
  <path
     d="m 86.69833,13.882439 c -4.982642,0 -6.089867,0.124997 -7.000594,0.821481 -0.910727,0.696484 -1.178726,1.9107 -1.178726,5.232635 0,3.500166 0.249994,4.678892 1.178726,5.393121 0.910727,0.696484 2.017952,0.821481 7.036344,0.821481 4.928885,0 6.053855,-0.124997 6.964843,-0.821481 0.910727,-0.696484 1.178465,-1.892955 1.178465,-5.321881 0,-3.41092 -0.267738,-4.607391 -1.178465,-5.303875 -0.910988,-0.696484 -2.018213,-0.821481 -7.000593,-0.821481 z m 0,3.089426 c 3.321674,0 3.714408,0.05349 4.125149,0.535737 0.321494,0.392996 0.428746,1.071474 0.428746,2.839693 0,1.446464 -0.124997,1.964457 -0.535737,2.28569 -0.482242,0.357245 -1.071474,0.428746 -3.982408,0.428746 -3.00044,0 -3.571928,-0.05349 -4.053909,-0.428746 -0.428746,-0.339239 -0.535737,-0.821481 -0.535737,-2.303695 0,-1.517966 0.07124,-2.196444 0.285483,-2.607184 0.357245,-0.696746 0.696484,-0.750241 4.268413,-0.750241 z"
     style="font-style:normal;font-variant:normal;font-weight:bold;font-stretch:normal;font-size:46.4917px;line-height:1.25;font-family:'Microgramma D Extended';font-feature-settings:normal;text-align:start;letter-spacing:0px;word-spacing:0px;writing-mode:lr-tb;text-anchor:start;display:inline;fill:#ffffff;fill-opacity:1;stroke-width:0.151652;stroke-opacity:1"
     id="path877" />
</svg>
