<?xml version="1.0" encoding="UTF-8" standalone="no"?>
<svg
   version="1.1"
   viewBox="0 0 380 115.64013"
   id="svg17"
   width="380"
   height="115.64012"
   xmlns="http://www.w3.org/2000/svg"
   xmlns:svg="http://www.w3.org/2000/svg">
  <defs
     id="defs17" />
  <path
     class="st0"
     d="m 19.430075,79.254513 h 3.899872 v 12.253913 h 0.07918 c 1.831159,-2.989242 4.939179,-4.256205 8.482718,-4.256205 5.612253,0 9.670495,3.147612 9.670495,9.393347 V 107.98885 H 37.662473 V 96.843531 c 0,-4.454169 -2.662603,-6.889115 -6.414003,-6.889115 -3.70191,0 -7.918523,2.266677 -7.918523,8.601496 v 9.432938 h -3.899872 z"
     style="fill:#ffffff;stroke-width:0.0989815"
     id="path1" />
  <path
     class="st0"
     d="m 59.943216,108.74111 c -8.126384,0 -12.491469,-3.89987 -12.491469,-10.749393 0,-6.493189 4.137428,-10.749395 12.491469,-10.749395 8.126384,0 12.491469,3.899873 12.491469,10.749395 0,6.849523 -4.365085,10.749393 -12.491469,10.749393 z m -8.36394,-10.739495 c 0,4.543255 2.910057,8.047195 8.36394,8.047195 5.453882,0 8.363939,-3.50394 8.363939,-8.047195 0,-4.543252 -2.910057,-8.047199 -8.363939,-8.047199 -5.453883,0 -8.36394,3.503947 -8.36394,8.047199 z"
     style="fill:#ffffff;stroke-width:0.0989815"
     id="path2" />
  <path
     class="st0"
     d="m 78.324086,92.547733 c 0,-1.514418 -0.07918,-2.94965 -0.15837,-4.543253 h 3.662317 c 0.07918,0.999714 0.15837,2.147899 0.15837,3.543539 h 0.07919 c 2.266677,-3.068427 5.137142,-4.295798 8.403532,-4.295798 3.345576,0 6.126957,1.633195 7.285041,5.018363 1.435232,-2.751686 4.543254,-5.018363 8.245164,-5.018363 5.69144,0 9.19539,2.791279 9.19539,9.274569 v 11.46206 h -3.89988 v -9.997133 c 0,-4.859993 -1.39563,-8.047199 -5.65184,-8.047199 -3.42476,0 -6.928713,2.345863 -6.928713,8.918236 v 9.116196 H 94.81441 V 97.754161 c 0,-5.374697 -1.831159,-7.799745 -5.41429,-7.799745 -3.424761,0 -7.166263,2.464641 -7.166263,8.36394 v 9.670494 h -3.899872 z"
     style="fill:#ffffff;stroke-width:0.0989815"
     id="path3" />
  <path
     class="st0"
     d="m 143.40444,99.031023 h -18.70751 c 0.39593,4.097837 3.02884,7.007897 7.40382,7.007897 2.83087,0 5.81022,-1.19768 6.69115,-4.05825 h 4.13743 c -0.79185,5.33511 -6.20614,6.77034 -10.63061,6.77034 -7.32464,0 -11.51156,-4.01865 -11.51156,-10.353469 0,-7.285041 4.37499,-11.14532 11.63033,-11.14532 7.08708,0 10.98695,3.820687 10.98695,10.591024 z m -4.14732,-2.702196 c -0.0792,-4.622437 -3.50395,-6.374411 -6.92871,-6.374411 -4.01865,0 -6.88911,1.949937 -7.483,6.374411 z"
     style="fill:#ffffff;stroke-width:0.0989815"
     id="path4" />
  <path
     class="st0"
     d="m 184.3531,101.54515 c -0.39592,5.05796 -5.57266,7.20586 -10.67021,7.20586 -7.44341,0 -11.38287,-4.25621 -11.38287,-10.709802 0,-6.730745 4.54325,-10.788987 11.74911,-10.788987 4.8204,0 9.47253,1.910343 10.1555,7.12667 h -4.13743 c -0.35633,-2.910057 -2.71209,-4.414576 -5.97848,-4.414576 -4.21661,0 -7.64138,2.751686 -7.64138,8.086791 0,4.256204 2.50424,8.007604 7.44342,8.007604 3.66231,0 6.12695,-1.71238 6.33481,-4.50366 l 4.12753,-0.01 z"
     style="fill:#ffffff;stroke-width:0.0989815"
     id="path5" />
  <path
     class="st0"
     d="m 201.29874,108.74111 c -8.12638,0 -12.49147,-3.89987 -12.49147,-10.749393 0,-6.493189 4.13743,-10.749395 12.49147,-10.749395 8.12639,0 12.49147,3.899873 12.49147,10.749395 0,6.849523 -4.36508,10.749393 -12.49147,10.749393 z M 192.9447,98.001615 c 0,4.543255 2.91006,8.047195 8.36394,8.047195 5.45388,0 8.36394,-3.50394 8.36394,-8.047195 0,-4.543252 -2.91006,-8.047199 -8.36394,-8.047199 -5.45388,0 -8.36394,3.503947 -8.36394,8.047199 z"
     style="fill:#ffffff;stroke-width:0.0989815"
     id="path6" />
  <path
     class="st0"
     d="m 219.68951,92.547733 c 0,-1.514418 -0.0792,-2.94965 -0.15837,-4.543253 h 3.66232 c 0.0792,0.999714 0.15837,2.147899 0.15837,3.543539 h 0.0792 c 2.26668,-3.068427 5.13714,-4.295798 8.40353,-4.295798 3.34558,0 6.12696,1.633195 7.28505,5.018363 1.43523,-2.751686 4.54325,-5.018363 8.24516,-5.018363 5.69144,0 9.19538,2.791279 9.19538,9.274569 v 11.46206 h -3.89987 v -9.997133 c 0,-4.859993 -1.39564,-8.047199 -5.65185,-8.047199 -3.42476,0 -6.9287,2.345863 -6.9287,8.918236 v 9.116196 h -3.90977 V 97.754161 c 0,-5.374697 -1.83116,-7.799745 -5.41429,-7.799745 -3.42477,0 -7.16627,2.464641 -7.16627,8.36394 v 9.670494 h -3.89987 V 92.547733 Z"
     style="fill:#ffffff;stroke-width:0.0989815"
     id="path7" />
  <path
     class="st0"
     d="m 263.62741,92.547733 c 0,-1.514418 -0.0792,-2.94965 -0.15837,-4.543253 h 3.89987 c 0.0792,0.75226 0.15838,1.672788 0.15838,2.830872 2.02912,-2.30627 5.21632,-3.583131 8.75986,-3.583131 5.96859,0 11.14532,4.256205 11.14532,10.749394 0,6.493185 -5.17673,10.749395 -11.14532,10.749395 -3.1872,0 -6.29522,-0.75226 -8.75986,-3.38517 v 10.27428 h -3.89988 z m 11.76891,13.481287 c 4.66203,0 7.87893,-2.98925 7.87893,-8.047201 0,-5.057957 -3.2268,-8.047199 -7.87893,-8.047199 -4.62244,0 -7.87893,2.989242 -7.87893,8.047199 0.01,5.067851 3.26639,8.047201 7.87893,8.047201 z"
     style="fill:#ffffff;stroke-width:0.0989815"
     id="path8" />
  <path
     class="st0"
     d="m 315.44424,103.4555 c 0,1.51441 0.0792,2.94965 0.15838,4.54325 h -3.66232 c -0.0792,-0.99971 -0.15837,-2.1479 -0.15837,-3.54354 h -0.0792 c -2.26667,3.06843 -5.13714,4.2958 -8.72027,4.2958 -5.61225,0 -9.68039,-3.14761 -9.68039,-9.393348 V 88.00448 h 3.89987 v 11.145321 c 0,4.454169 2.6626,6.889119 6.414,6.889119 3.70191,0 7.92842,-2.26668 7.92842,-8.6015 v -9.43294 h 3.89987 v 15.45102 z"
     style="fill:#ffffff;stroke-width:0.0989815"
     id="path9" />
  <path
     class="st0"
     d="m 325.46118,84.342164 3.89987,-1.633196 v 5.295512 h 5.8894 v 2.712094 h -5.8894 v 11.501656 c 0,2.1479 0.59389,3.30598 3.02883,3.30598 0.71267,0 1.87075,-0.0792 2.98925,-0.23755 v 2.71209 c -1.27687,0.15837 -2.54383,0.23756 -3.74151,0.23756 -3.93946,0 -6.17644,-1.27687 -6.17644,-5.73104 V 90.716574 h -5.21633 V 88.00448 h 5.21633 z"
     style="fill:#ffffff;stroke-width:0.0989815"
     id="path10" />
  <path
     class="st0"
     d="m 361.33208,99.031023 h -18.70751 c 0.39593,4.097837 3.02884,7.007897 7.40382,7.007897 2.83087,0 5.81022,-1.19768 6.69115,-4.05825 h 4.13743 c -0.79185,5.33511 -6.20614,6.77034 -10.63061,6.77034 -7.32464,0 -11.51156,-4.01865 -11.51156,-10.353469 0,-7.285041 4.37499,-11.14532 11.63033,-11.14532 7.08708,0 10.98695,3.820687 10.98695,10.591024 z m -4.14732,-2.702196 c -0.0792,-4.622437 -3.50395,-6.374411 -6.92871,-6.374411 -4.01865,0 -6.88912,1.949937 -7.483,6.374411 z"
     style="fill:#ffffff;stroke-width:0.0989815"
     id="path11" />
  <path
     class="st0"
     d="m 366.94434,92.547733 c 0,-1.514418 -0.0792,-2.94965 -0.15837,-4.543253 h 3.66231 c 0.0792,1.197677 0.15837,2.632909 0.15837,3.979058 h 0.0792 c 1.79156,-3.226798 3.54354,-4.256206 7.99771,-4.256206 H 380 v 3.503946 c -0.59389,-0.197963 -1.15808,-0.237556 -1.87075,-0.237556 -4.70162,0 -7.28504,3.305984 -7.28504,7.324634 v 9.670494 h -3.89987 z"
     style="fill:#ffffff;stroke-width:0.0989815"
     id="path12" />
  <rect
     x="62.229691"
     y="0.60378736"
     class="st0"
     width="19.687426"
     height="68.158684"
     style="fill:#ffffff;stroke-width:0.0989815"
     id="rect12" />
  <polygon
     class="st0"
     points="196.3,189.1 196.3,694.7 395.2,694.7 395.2,189.1 591.4,189.1 591.4,6.1 0,6.1 0,189.1 "
     style="fill:#ffffff"
     id="polygon12"
     transform="scale(0.09898153)" />
  <path
     class="st0"
     d="m 197.60673,0 c -15.34214,0 -27.77422,8.5619025 -27.77422,24.072309 0,17.173295 12.66964,23.349743 24.6959,23.349743 3.7514,0 9.0964,-1.979631 12.61024,-4.701623 1.70248,16.539814 -16.93574,17.460343 -18.71741,7.680967 h -17.17329 c 2.86057,15.401527 16.32205,19.657732 26.84379,19.628038 13.9564,-0.03959 27.27931,-11.155219 27.27931,-38.10789 C 225.37105,9.5517179 212.94887,0 197.60673,0 Z m -0.66318,33.98036 c -5.78052,0 -10.47224,-4.681826 -10.47224,-10.472246 0,-5.79042 4.68182,-10.472246 10.47224,-10.472246 5.79042,0 10.47225,4.691724 10.47225,10.472246 0,5.79042 -4.69172,10.472246 -10.47225,10.472246 z"
     style="fill:#ffffff;stroke-width:0.0989815"
     id="path13" />
  <path
     class="st0"
     d="m 136.97064,0 c -15.34213,0 -27.77421,8.5619025 -27.77421,24.072309 0,17.173295 12.66963,23.349743 24.69589,23.349743 3.7514,0 9.0964,-1.979631 12.61025,-4.701623 1.70248,16.539814 -16.93574,17.460343 -18.71741,7.680967 h -17.1832 c 2.86057,15.401527 16.32206,19.657732 26.8438,19.628038 13.95639,-0.03959 27.27931,-11.155219 27.27931,-38.10789 C 164.72507,9.5517179 152.30288,0 136.97064,0 Z m -0.67307,33.98036 c -5.78052,0 -10.47225,-4.681826 -10.47225,-10.472246 0,-5.79042 4.68183,-10.472246 10.47225,-10.472246 5.79042,0 10.47225,4.691724 10.47225,10.472246 0.01,5.79042 -4.68183,10.472246 -10.47225,10.472246 z"
     style="fill:#ffffff;stroke-width:0.0989815"
     id="path14" />
  <rect
     x="87.727333"
     y="26.091532"
     class="st0"
     width="15.658878"
     height="12.897294"
     style="fill:#ffffff;stroke-width:0.0989815"
     id="rect14" />
  <path
     class="st0"
     d="m 302.01245,70.019536 h -19.73692 c -0.99971,0 -1.80146,-0.811649 -1.80146,-1.801464 V 54.895158 h -27.53666 c -0.99972,0 -1.80147,-0.811649 -1.80147,-1.801464 V 38.177177 c 0,-0.435519 0.15837,-0.851241 0.44542,-1.17788 L 283.15647,0.62358365 C 283.5029,0.22765752 283.99781,0 284.52241,0 h 17.49994 c 0.99971,0 1.80146,0.81164856 1.80146,1.8014639 V 37.217056 h 4.95898 c 0.99971,0 1.80146,0.811649 1.80146,1.801464 v 14.065276 c 0,0.999713 -0.81165,1.801464 -1.80146,1.801464 h -4.95898 v 13.322914 c -0.01,0.999713 -0.82154,1.811362 -1.81136,1.811362 z M 284.0671,66.416608 h 16.13399 V 53.093694 c 0,-0.999714 0.81165,-1.801464 1.80146,-1.801464 h 4.95898 V 40.829882 h -4.95898 c -0.99971,0 -1.80146,-0.811649 -1.80146,-1.801464 V 3.6029278 H 285.32416 L 254.72897,38.850251 v 12.432081 h 27.53667 c 0.99971,0 1.80146,0.811648 1.80146,1.801464 z"
     style="fill:#ffffff;stroke-width:0.0989815"
     id="path15" />
  <path
     class="st0"
     d="M 282.26564,40.829882 H 263.6868 c -0.70277,0 -1.34615,-0.415722 -1.64309,-1.059102 -0.29695,-0.64338 -0.18807,-1.39564 0.27715,-1.93014 l 18.58873,-21.399808 c 0.49491,-0.564194 1.28676,-0.772055 1.98953,-0.504805 0.70277,0.26725 1.16798,0.940324 1.16798,1.692584 v 21.399807 c 0,0.989815 -0.80175,1.801464 -1.80146,1.801464 z m -14.61958,-3.602928 h 12.81811 V 22.45891 Z"
     style="fill:#ffffff;stroke-width:0.0989815"
     id="path16" />
  <path
     class="st0"
     d="m 378.18864,70.019536 h -13.66935 c -0.77206,0 -1.45503,-0.494908 -1.70248,-1.217473 L 358.0459,54.895158 h -21.24144 l -4.76101,13.906905 c -0.24746,0.732463 -0.93043,1.217473 -1.70248,1.217473 h -13.69905 c -0.58399,0 -1.12839,-0.277148 -1.46493,-0.75226 -0.33653,-0.475111 -0.42562,-1.078899 -0.23755,-1.633195 L 337.70519,1.2174728 C 337.95265,0.48500951 338.63562,0 339.40767,0 h 16.02511 c 0.77206,0 1.45503,0.49490766 1.70249,1.2174728 l 22.75585,66.4166082 c 0.18807,0.554296 0.099,1.158084 -0.23756,1.633195 -0.33653,0.475112 -0.88093,0.75226 -1.46492,0.75226 z m -12.38259,-3.602928 h 9.85856 L 354.14602,3.6029278 H 340.69443 L 319.16595,66.416608 h 9.86846 l 4.76101,-13.906905 c 0.24745,-0.732464 0.93043,-1.217473 1.70248,-1.217473 h 23.82486 c 0.77205,0 1.45503,0.494908 1.70248,1.217473 z m -10.28418,-22.61728 h -16.21318 c -0.58399,0 -1.12839,-0.277148 -1.46492,-0.75226 -0.33654,-0.475111 -0.42563,-1.078898 -0.23756,-1.633195 l 8.11649,-23.666484 c 0.24745,-0.732464 0.94032,-1.217473 1.70248,-1.217473 v 0 c 0.77205,0 1.45503,0.494908 1.70248,1.217473 l 8.10659,23.666484 c 0.18806,0.554297 0.099,1.158084 -0.23756,1.633195 -0.34643,0.475112 -0.89083,0.75226 -1.47482,0.75226 z M 341.83272,40.1964 h 11.16512 l -5.58256,-16.29236 z"
     style="fill:#ffffff;stroke-width:0.0989815"
     id="path17" />
  <polygon
     class="st0"
     points="2605.3,36.4 2553.4,36.4 2240.5,707.4 2292.5,707.4 "
     style="fill:#ffffff"
     id="polygon17"
     transform="scale(0.09898153)" />
</svg>
