<?xml version="1.0" encoding="UTF-8" standalone="no"?>
<!-- Created with Inkscape (http://www.inkscape.org/) -->

<svg
   width="379.99612"
   height="46.657001"
   viewBox="0 0 100.54064 12.344665"
   version="1.1"
   id="svg8"
   xmlns="http://www.w3.org/2000/svg"
   xmlns:svg="http://www.w3.org/2000/svg"
   xmlns:rdf="http://www.w3.org/1999/02/22-rdf-syntax-ns#"
   xmlns:cc="http://creativecommons.org/ns#"
   xmlns:dc="http://purl.org/dc/elements/1.1/">
  <defs
     id="defs2" />
  <metadata
     id="metadata5">
    <rdf:RDF>
      <cc:Work
         rdf:about="">
        <dc:format>image/svg+xml</dc:format>
        <dc:type
           rdf:resource="http://purl.org/dc/dcmitype/StillImage" />
      </cc:Work>
    </rdf:RDF>
  </metadata>
  <path
     id="path4565-0-7-8-1-2-2"
     style="color:#000000;font-style:normal;font-variant:normal;font-weight:normal;font-stretch:normal;font-size:medium;line-height:normal;font-family:sans-serif;font-variant-ligatures:normal;font-variant-position:normal;font-variant-caps:normal;font-variant-numeric:normal;font-variant-alternates:normal;font-feature-settings:normal;text-indent:0;text-align:start;text-decoration:none;text-decoration-line:none;text-decoration-style:solid;text-decoration-color:#000000;letter-spacing:normal;word-spacing:normal;text-transform:none;writing-mode:lr-tb;direction:ltr;text-orientation:mixed;dominant-baseline:auto;baseline-shift:baseline;text-anchor:start;white-space:normal;shape-padding:0;clip-rule:nonzero;display:inline;overflow:visible;visibility:visible;isolation:auto;mix-blend-mode:normal;color-interpolation:sRGB;color-interpolation-filters:linearRGB;solid-color:#000000;solid-opacity:1;vector-effect:none;fill:#ffffff;fill-opacity:1;fill-rule:nonzero;stroke:none;stroke-width:0.567304;stroke-linecap:round;stroke-linejoin:miter;stroke-miterlimit:4;stroke-dasharray:none;stroke-dashoffset:0;stroke-opacity:1;paint-order:stroke fill markers;color-rendering:auto;image-rendering:auto;shape-rendering:auto;text-rendering:auto;enable-background:accumulate"
     d="M 2.911552,9.4665925 H 0 V 9.748703 C 0,11.179402 1.1792208,12.345 2.6262254,12.345 H 2.911552 V 12.063224 Z M 2.3409003,10.030477 v 1.746454 C 1.4417679,11.648741 0.73415899,10.919521 0.60464146,10.030477 Z M 3.1886626,12.345 V 9.4665682 H 6.0670017 V 12.345 Z m 0.5706341,-0.568018 h 1.736259 V 10.030527 H 3.7592967 Z M 9.4995603,9.4665925 H 12.411111 V 9.748703 c 0,1.430699 -1.179219,2.596297 -2.6262241,2.596297 H 9.4995603 v -0.281776 z m 0.5706517,0.5638845 v 1.746454 c 0.899133,-0.12819 1.606741,-0.85741 1.736257,-1.746454 z M 6.3441123,12.345 V 9.4665682 H 9.2224511 V 12.345 Z M 6.9147464,11.776982 H 8.6510051 V 10.030527 H 6.9147464 Z M 0.03321288,9.1894836 v -2.87843 H 2.911552 v 2.87843 z M 0.60384724,8.621465 H 2.3401061 V 6.8750131 H 0.60384724 Z M 3.1886626,9.1894595 V 6.3110296 H 6.0670017 V 9.1894595 Z M 3.7592967,8.6214409 h 1.736259 V 6.8749891 H 3.7592967 Z M 0.03321288,6.0339449 V 3.1555146 H 2.911552 V 6.0339449 Z M 0.60384724,5.465926 H 2.3401061 V 3.719474 H 0.60384724 Z M 2.911552,2.878406 H 0 V 2.5962952 C 0,1.1655956 1.1792208,0 2.6262254,0 H 2.911552 V 0.28177402 Z M 2.3409003,2.3145214 V 0.56806942 C 1.4417679,0.69625837 0.73415899,1.4254772 0.60464146,2.3145214 Z m 0.8477623,3.7193991 v -2.87843 h 2.8783391 v 2.87843 z M 3.7592967,5.4659019 h 1.736259 V 3.71945 H 3.7592967 Z M 3.1886626,0 V 2.87843 H 6.0670017 V 0 Z m 0.5706341,0.5680186 h 1.736259 v 1.746452 h -1.736259 z m 5.7402631,2.587496 h 2.9115512 v 0.2821108 c 0,1.4306997 -1.17922,2.5962951 -2.6262247,2.5962951 H 9.4995598 V 5.7521468 Z m 0.5706522,0.5638846 v 1.7464522 c 0.899133,-0.128189 1.606741,-0.8574079 1.736256,-1.7464522 z M 6.3441123,6.0339205 v -2.87843 h 2.8783388 v 2.87843 z M 6.9147464,5.4659022 H 8.6510051 V 3.71945 H 6.9147464 Z M 9.4995598,2.878406 H 12.411111 V 2.5962952 C 12.411111,1.1655956 11.231891,0 9.7848863,0 H 9.4995598 V 0.28177402 Z M 10.070212,2.3145214 V 0.56806942 c 0.899133,0.12818895 1.606741,0.85740778 1.736257,1.74645198 z M 6.3441123,0 V 2.87843 H 9.2224509 V 0 Z m 0.5706341,0.5680186 h 1.7362582 v 1.746452 H 6.9147464 Z" />
  <path
     id="path5115"
     style="font-style:normal;font-variant:normal;font-weight:normal;font-stretch:normal;font-size:medium;line-height:1.25;font-family:Eurostile;-inkscape-font-specification:Eurostile;letter-spacing:0px;word-spacing:0px;fill:#ffffff;fill-opacity:1;stroke:#ffffff;stroke-width:0.560576;stroke-miterlimit:4;stroke-dasharray:none;stroke-opacity:1"
     d="M 100.26308,8.7736992 V 10.239665 H 98.647663 V 8.7736992 Z M 94.203489,4.4771045 q 1.954029,0 2.560696,0.5303692 0.606663,0.5244113 0.606663,2.2227876 0,1.8950302 -0.592563,2.4849942 -0.592544,0.5899615 -2.497188,0.5899615 -2.0669,0 -2.68061,-0.548249 -0.606663,-0.5482474 -0.606663,-2.4134811 0,-1.7937243 0.599604,-2.3300533 0.599604,-0.5363291 2.610061,-0.5363291 z m -0.01412,1.0786165 q -1.008757,0 -1.283876,0.3098788 -0.2751,0.3039216 -0.2751,1.4302131 0,1.2871893 0.260997,1.6089877 0.261014,0.3217983 1.305039,0.3217983 1.00876,0 1.26976,-0.3396747 0.268054,-0.3396745 0.268054,-1.6328264 0,-1.0905376 -0.275101,-1.3944547 Q 95.184026,5.555721 94.189369,5.555721 Z m -5.897428,1.7818065 h 1.834093 v 0.2800838 q 0,1.6983766 -0.73364,2.1989502 -0.733627,0.4946135 -3.244946,0.4946135 -2.849899,0 -3.50595,-0.7866158 -0.65605,-0.7866174 -0.65605,-4.2072069 0,-2.0142149 0.888845,-2.6458914 0.888821,-0.6376364 3.717573,-0.6376364 2.059844,0 2.751159,0.524411 0.691314,0.518453 0.691314,2.0678486 l 0.0078,0.1847351 h -1.83411 V 4.6022463 q 0,-0.7985339 -0.359753,-1.0190264 -0.352726,-0.2264488 -1.622483,-0.2264488 -1.700073,0 -2.045723,0.3515939 -0.338609,0.3515925 -0.338609,2.0857246 0,2.3360132 0.303341,2.7650767 0.310388,0.4290635 1.989279,0.4290635 1.361469,0 1.763562,-0.2383685 0.409156,-0.2383686 0.409156,-1.0488221 z M 77.033385,2.1053358 V 10.239665 H 73.936576 L 71.185419,5.7762134 Q 70.980846,5.4424957 70.543489,4.6082063 L 70.233105,4.0242032 69.929765,3.4402005 h -0.07059 l 0.02824,0.536329 0.02118,0.5303711 0.01412,1.0666969 V 10.239665 H 68.095658 V 2.1053358 h 3.09681 l 2.504262,4.1237775 q 0.331547,0.5482467 0.768905,1.3289061 l 0.36683,0.6614722 0.366812,0.6674326 h 0.06354 l -0.02118,-0.5244126 -0.02118,-0.5244113 -0.01412,-1.048822 V 2.1053358 Z M 64.295812,8.6783515 h -4.154938 l -0.599603,1.5613135 h -1.932868 l 3.202624,-8.1343292 h 2.744098 l 3.251993,8.1343292 H 64.909535 Z M 63.872569,7.5401402 62.207759,3.3031374 60.571177,7.5401402 Z M 52.012195,2.1053358 v 6.7517909 h 4.514707 V 10.239665 H 50.185097 V 2.1053358 Z M 41.353246,10.239665 V 2.1053358 h 3.879825 0.479693 q 1.95403,0 2.631226,0.5780431 0.684256,0.5720848 0.684256,2.2168297 0,1.6328231 -0.648987,2.1691525 -0.648979,0.5363306 -2.62417,0.5363306 l -0.423257,0.00612 H 43.18029 V 10.239824 Z M 43.18029,6.3125425 h 2.081001 q 1.241547,0 1.57309,-0.2383685 0.338607,-0.2443286 0.338607,-1.1441698 0,-1.0309441 -0.28216,-1.2752711 Q 46.615708,3.404445 45.444701,3.404445 H 43.18029 Z m -5.170752,2.365809 H 33.854593 L 33.25498,10.239665 h -1.932911 l 3.202624,-8.1343292 h 2.744097 l 3.252001,8.1343292 H 38.623203 Z M 37.586282,7.5401402 35.921483,3.3031374 34.2849,7.5401402 Z M 26.814414,2.0338245 q 2.624177,0 3.378979,0.7389421 0.754802,0.7329838 0.754802,3.2894892 0,2.7948709 -0.761856,3.5218953 -0.754802,0.7270239 -3.668202,0.7270239 -2.624176,0 -3.393086,-0.7151044 -0.768912,-0.7210661 -0.768912,-3.1643443 0,-2.9080964 0.754803,-3.6529983 0.754806,-0.7449035 3.703472,-0.7449035 z m -0.141099,1.3229466 q -1.841151,0 -2.15154,0.3992675 -0.310385,0.3992665 -0.310385,2.7650768 0,1.7520086 0.359766,2.1095624 0.366821,0.357552 2.144488,0.357552 1.700068,0 2.038674,-0.3992676 0.338601,-0.4052259 0.338601,-2.4432785 0,-2.044011 -0.324494,-2.4134827 -0.317439,-0.3754299 -2.09511,-0.3754299 z m -7.66794,0.1311033 V 10.239665 H 17.178478 V 3.4878677 H 14.399126 V 2.1053358 h 7.484534 v 1.3825386 z" />
</svg>
