<?xml version="1.0" encoding="UTF-8" standalone="no"?>
<svg
   version="1.1"
   viewBox="-0.05 0.25 380.06309 154.70801"
   id="svg31"
   width="380.06308"
   height="154.70801"
   xmlns="http://www.w3.org/2000/svg"
   xmlns:svg="http://www.w3.org/2000/svg">
  <defs
     id="defs31" />
  <path
     fill="#ffffff"
     stroke="#ffffff"
     stroke-width="0.0937498"
     opacity="1"
     d="M 151.06634,60.251325 C 162.62374,40.271272 174.27614,20.291219 185.92853,0.34282886 197.26428,19.6896 208.37838,39.226356 219.65081,58.636456 c 0.28497,0.506626 0.53829,1.07658 0.75993,1.614869 -3.03975,0.03166 -6.0795,0 -9.11925,0.03166 -8.54932,-14.280514 -16.78199,-28.782677 -25.36296,-43.06319 -8.45431,14.343842 -16.65532,28.782676 -25.17297,43.06319 -3.22973,-0.03166 -6.45947,-0.03166 -9.68922,-0.03166 z"
     id="path1" />
  <path
     fill="#ffffff"
     stroke="#ffffff"
     stroke-width="0.0937498"
     opacity="1"
     d="m -0.0031241,65.095934 c 16.5919931,0 33.1523231,-0.03166 49.7443171,0.03166 0,3.134747 0.06333,6.269494 -0.06333,9.404241 -6.174501,0.03166 -12.380667,-0.15832 -18.555169,0.06333 0.03166,10.607476 0.03166,21.214953 0,31.822425 -4.211325,0 -8.422652,0.12666 -12.633979,-0.0633 0.03166,-10.60747 0.03166,-21.214947 0,-31.822424 -6.174501,-0.06333 -12.3173387,-0.03166 -18.4918401,-0.03166 z"
     id="path2" />
  <path
     fill="#ffffff"
     stroke="#ffffff"
     stroke-width="0.0937498"
     opacity="1"
     d="m 52.749283,65.095934 c 11.430744,0 22.893151,0 34.323895,0 3.134747,0 6.459478,0.759939 8.802623,2.944763 1.804854,1.678197 2.533129,4.211327 2.501465,6.617798 -0.06333,2.818106 0.06333,5.636213 -0.06333,8.422654 -0.854932,5.446227 -6.142838,9.340912 -11.589065,9.0876 5.952853,4.749616 11.969034,9.404241 17.858569,14.217181 -4.686299,0.12665 -9.340923,0.0317 -14.027212,0.0633 -0.759938,0 -1.646534,0.15833 -2.248151,-0.44329 -5.667876,-4.43297 -11.335751,-8.89761 -17.035291,-13.330586 -0.253314,-0.253313 -0.728276,-0.474961 -0.664947,-0.918259 -0.03166,-2.944763 0,-5.921189 0,-8.865951 4.749617,-0.03166 9.530897,0 14.280514,-0.03166 0.886595,0.06333 1.804854,-0.633282 1.77319,-1.583205 0.06333,-1.963175 0.06333,-3.958015 0.03166,-5.921188 -0.633282,-0.854932 -1.836518,-0.759939 -2.786442,-0.854932 -6.332822,0 -12.665643,-0.03166 -19.03013,0.03166 0,10.639141 0,21.246618 0,31.885751 -4.053006,0.0633 -8.074348,0.0317 -12.127354,0.0317 -0.03166,-13.80554 -0.03166,-27.579428 0,-41.353316 z"
     id="path3" />
  <path
     fill="#ffffff"
     stroke="#ffffff"
     stroke-width="0.0937498"
     opacity="1"
     d="m 105.84999,65.159262 c 4.21133,-0.126655 8.42266,-0.03166 12.63399,-0.06333 0.0317,13.773888 0,27.547776 0,41.321658 -4.21133,0 -8.42266,0.12666 -12.63399,-0.0317 0.0317,-13.742222 0,-27.484446 0,-41.22667 z"
     id="path4" />
  <path
     fill="#ffffff"
     stroke="#ffffff"
     stroke-width="0.0937498"
     opacity="1"
     d="m 125.79839,65.159262 c 13.04561,-0.126655 26.09122,-0.03166 39.13684,-0.06333 0,3.166411 0.0317,6.301158 -0.0317,9.435905 -8.73929,-0.03166 -17.51025,-0.03166 -26.28121,0 0,2.184824 0,4.369647 0,6.554471 7.40941,0.03167 14.78714,0.03167 22.19654,0 0.0633,3.134747 0.0317,6.237829 0,9.340912 -7.37773,0.03167 -14.78713,0 -22.19654,0.03167 -0.0317,5.31957 0,10.63914 0,15.9587 -4.27465,0.0317 -8.54931,0.12666 -12.82396,-0.0633 0.0317,-13.742211 0.0317,-27.452771 0,-41.194995 z"
     id="path5" />
  <path
     fill="#ffffff"
     stroke="#ffffff"
     stroke-width="0.0937498"
     opacity="1"
     d="m 177.44255,65.44424 c 8.26433,-0.759939 16.59199,-0.158321 24.88799,-0.348306 4.65463,-0.03166 9.8792,-0.348305 13.71056,2.818106 1.89985,1.551542 2.84977,4.021343 2.81811,6.427814 0.0317,7.504395 0,15.008789 0.0317,22.481518 0,3.039756 -1.70986,5.984508 -4.24299,7.567718 -2.34315,1.51987 -5.16125,2.0265 -7.88436,2.05816 -9.1826,0.0317 -18.36518,-0.0317 -27.54778,0.0317 -2.97642,-0.095 -6.14283,-0.79161 -8.42266,-2.8181 -1.74152,-1.55155 -2.50146,-3.926349 -2.46979,-6.206165 0,-7.694379 -0.0317,-15.420422 0.0317,-23.114801 0.28498,-4.749616 4.5913,-8.295996 9.0876,-8.897614 m 3.92635,9.087599 c 0,7.631051 0,15.262101 0,22.893152 8.35932,0.03166 16.68698,0.03166 25.04631,0 0,-7.631051 0,-15.262101 0,-22.893152 -8.35933,-0.06333 -16.68699,-0.03166 -25.04631,0 z"
     id="path6" />
  <path
     fill="#ffffff"
     stroke="#ffffff"
     stroke-width="0.0937498"
     opacity="1"
     d="m 223.5455,65.095934 c 11.49407,0 23.01981,0 34.51388,0 3.57804,0.03166 7.63105,1.108245 9.72088,4.242991 2.27981,3.578045 1.10824,8.01102 1.42489,11.969034 0.28497,6.206166 -5.66788,11.240759 -11.71573,10.86079 5.98452,4.686287 12.03237,9.340911 17.85856,14.217181 -4.71796,0.12665 -9.40425,0.0317 -14.12219,0.0633 -0.66495,-0.0317 -1.45655,0.12666 -1.99485,-0.3483 -5.79452,-4.55962 -11.58906,-9.087593 -17.38359,-13.647224 -0.50662,-0.253313 -0.41163,-0.854932 -0.4433,-1.329893 0.0317,-2.723113 0.0317,-5.477891 0,-8.201004 4.81295,-0.126657 9.65755,0 14.4705,-0.06333 0.82327,0 1.64654,-0.69661 1.61487,-1.551541 0.0633,-1.994839 0.0633,-4.021342 0.0317,-6.016181 -0.75994,-0.791603 -1.93152,-0.728274 -2.94477,-0.791603 -6.26949,0 -12.53898,0.03166 -18.77682,0 -0.22165,10.639141 0,21.278282 -0.12665,31.917416 -4.02135,0.0317 -8.07435,0.0317 -12.12735,0 0,-13.773881 0,-27.547769 0,-41.321657 z"
     id="path7" />
  <path
     fill="#ffffff"
     stroke="#ffffff"
     stroke-width="0.0937498"
     opacity="1"
     d="m 277.56446,67.534071 c 2.46981,-1.899847 5.66788,-2.406473 8.67597,-2.438137 8.54931,0 17.09863,0 25.64793,0 3.41973,-0.03166 7.18776,1.361557 8.86595,4.527969 1.7732,3.546379 0.8866,7.662714 1.07658,11.462407 -3.95801,0 -7.91602,0.03167 -11.87404,0 -0.0317,-2.184824 -0.0317,-4.369647 -0.0317,-6.522806 -7.78937,-0.09499 -15.61041,-0.06333 -23.43145,-0.03166 0,7.631051 0,15.262101 0.0317,22.893152 7.78937,0 15.61041,0.03166 23.39978,0 0.0317,-2.31148 -0.0317,-4.654624 0.0317,-6.966104 3.95802,-0.03167 7.91603,-0.03167 11.87404,0 -0.0633,3.261403 0.15833,6.522806 -0.0317,9.784208 -0.60162,4.05301 -4.90794,6.07951 -8.6443,6.14284 -8.99262,0.15832 -17.95355,0 -26.9145,0.095 -3.19807,0.12666 -6.61779,-0.31665 -9.18258,-2.37481 -1.96318,-1.58321 -2.81812,-4.17966 -2.78645,-6.64946 0,-7.694379 0,-15.388758 0,-23.114801 -0.0317,-2.628121 1.20324,-5.224577 3.29306,-6.807783 z"
     id="path8" />
  <path
     fill="#ffffff"
     stroke="#ffffff"
     stroke-width="0.0937498"
     opacity="1"
     d="m 325.47227,65.095934 c 13.71055,0 27.42112,-0.03166 41.13167,0.03166 -0.0317,3.134747 0.0317,6.269494 -0.0317,9.404241 -9.30924,-0.03166 -18.58683,-0.03166 -27.89609,0 -0.0317,2.184824 -0.0317,4.369647 0,6.554471 6.58615,0.03167 13.17228,0.03167 19.72675,0 0.12665,3.134747 0.0633,6.237829 0.0317,9.340912 -6.58613,0.03167 -13.17226,0 -19.75841,0.03167 -0.0317,2.31148 -0.0317,4.654624 0,6.997768 9.30926,0 18.61851,-0.03166 27.92775,0.03166 0,2.944764 0,5.921184 0,8.897614 -13.71055,0.12665 -27.42112,0.0633 -41.13167,0.0317 -0.0317,-13.773883 -0.0317,-27.547771 0,-41.321659 z"
     id="path9" />
  <path
     fill="#ffffff"
     stroke="#ffffff"
     stroke-width="0.0937498"
     opacity="1"
     d="m 368.63045,65.159262 c 1.51987,-0.126655 3.03975,-0.06333 4.55963,-0.06333 0,0.221649 0,0.633283 -0.0317,0.823267 -0.56994,0.03166 -1.1399,0.03166 -1.70986,0.03166 -0.095,1.519877 -0.0317,3.071419 -0.0633,4.591296 -0.22165,0 -0.60162,-0.03166 -0.82327,-0.06333 0.0317,-1.488213 0.0317,-3.008091 0,-4.527968 -0.63329,0 -1.26657,0 -1.89984,-0.03166 0,-0.189984 -0.0317,-0.569953 -0.0317,-0.759939 z"
     id="path10" />
  <path
     fill="#ffffff"
     stroke="#ffffff"
     stroke-width="0.0937498"
     opacity="1"
     d="m 374.01334,65.095934 c 0.22165,0 0.66495,0 0.8866,0 0.69661,0.823267 1.39323,1.678198 2.12149,2.501465 0.85494,-1.044915 1.70987,-2.184823 2.94477,-2.786442 v 6.016181 c -1.2349,-0.633282 -0.75994,-2.089831 -0.75994,-3.198075 -0.75994,0.949923 -1.48822,1.931511 -2.24816,2.84977 -0.66493,-0.918259 -1.32988,-1.868183 -1.99483,-2.818105 -0.0317,0.949922 -0.0317,1.899846 -0.0633,2.881433 -0.22165,0 -0.66495,-0.03166 -0.8866,-0.03166 -0.0317,-1.804854 -0.0317,-3.609708 0,-5.414563 z"
     id="path11" />
  <path
     fill="#ffffff"
     stroke="#ffffff"
     stroke-width="0.0937498"
     opacity="1"
     d="m 10.477695,111.7055 c 0.791603,0 1.61487,-0.12666 2.374809,0.095 1.868182,1.96317 3.578045,4.08467 5.414563,6.07951 0.348305,0.4433 0.981588,0.28498 1.456549,0.41163 0.189985,-2.21648 0,-4.40131 0.09499,-6.61779 0.759939,0 1.488213,0.0317 2.248152,0.0633 -0.03166,3.45138 0.03166,6.90277 -0.03166,10.35416 -0.759939,0.37997 -2.089831,0.47496 -2.69145,-0.31665 -2.184823,-2.62811 -4.306318,-5.31956 -6.55447,-7.8527 0,2.78645 0.03166,5.57289 0,8.35933 -0.791603,0.0317 -1.551542,0.0317 -2.343144,0 0,-3.51471 0,-7.06109 0.03166,-10.57581 z"
     id="path12" />
  <path
     fill="#ffffff"
     stroke="#ffffff"
     stroke-width="0.0937498"
     opacity="1"
     d="m 29.412834,113.57368 c 0,-0.7916 0.348305,-1.86818 1.298229,-1.86818 2.754776,-0.0317 5.509554,-0.0633 8.264332,0 1.139908,0 1.804854,1.20324 1.741526,2.24815 0.03166,2.78645 0.03166,5.57289 0,8.35933 -0.664946,0 -1.329892,0 -1.994838,0 0,-1.36156 0,-2.72312 0,-4.08468 -2.53313,-0.0317 -5.066258,-0.0317 -7.567724,0 0,1.3299 0,2.69145 -0.03166,4.05301 -0.569953,0 -1.139908,0 -1.741525,0 0,-2.88143 -0.03167,-5.79453 0.03166,-8.70763 m 1.741525,0.3483 c 0,0.82327 0,1.64654 -0.03166,2.50148 2.53313,0.0317 5.066258,0 7.567723,0 0.03166,-0.85494 0.03166,-1.70987 0.03166,-2.5648 -2.53313,0.0317 -5.066258,-0.0633 -7.567724,0.0633 z"
     id="path13" />
  <path
     fill="#ffffff"
     stroke="#ffffff"
     stroke-width="0.0937498"
     opacity="1"
     d="m 48.126323,111.7055 c 1.551541,-0.0317 3.103083,-0.0633 4.654624,0.0317 0.791603,2.91309 1.551542,5.85785 2.4698,8.73929 0.791603,-2.50147 1.678198,-4.97127 2.469801,-7.44106 0.37997,-2.40648 3.483052,-1.01326 5.16125,-1.29823 -0.09499,3.54637 0.09499,7.06109 -0.09499,10.60747 -0.664947,-0.0317 -1.329893,-0.0633 -1.994839,-0.0633 -0.03166,-2.8181 0,-5.60454 -0.03166,-8.42265 -0.37997,0 -0.791603,0 -1.203237,0.0317 -0.981587,2.78645 -1.963175,5.57289 -2.944762,8.39099 -0.823267,0.0317 -1.678198,0.0317 -2.533129,0 -1.044915,-2.78644 -1.963174,-5.66787 -3.103082,-8.42265 -0.411633,0 -0.823267,0 -1.2349,0 -0.03166,2.81811 0.03166,5.63621 0,8.42265 -0.538291,0 -1.07658,0 -1.61487,0 0,-3.51471 0,-7.06109 0,-10.57581 z"
     id="path14" />
  <path
     fill="#ffffff"
     stroke="#ffffff"
     stroke-width="0.0937498"
     opacity="1"
     d="m 68.834651,113.98531 c 0,-1.39321 1.424885,-2.31147 2.691449,-2.27981 2.786442,-0.0633 5.604547,0 8.390989,0 0.03167,0.69661 0,1.42488 -0.03166,2.15316 -2.691449,0 -5.382899,-0.0317 -8.074348,0 0,2.21649 -0.03166,4.43297 0,6.68113 2.723114,0 5.414563,-0.0317 8.106012,0 0,0.56995 0,1.17157 0,1.74152 -3.103082,0.0317 -6.206165,0.0633 -9.309248,0 -0.886595,0.0317 -1.741526,-0.60162 -1.741526,-1.51988 -0.09499,-2.24815 -0.03166,-4.52796 -0.03166,-6.77612 z"
     id="path15" />
  <path
     fill="#ffffff"
     stroke="#ffffff"
     stroke-width="0.0937498"
     opacity="1"
     d="m 87.833117,111.89549 c 2.121496,-0.47497 4.337983,-0.095 6.522806,-0.22165 1.456549,-0.095 3.483053,0.095 3.92635,1.80485 0.189985,2.34315 0.06333,4.68629 0.06333,7.02944 0.126656,1.17156 -1.013252,1.89984 -2.058168,1.83651 -2.438137,-0.0633 -4.876273,0.0317 -7.314409,-0.095 -1.108244,0 -2.343145,-0.75994 -2.279816,-1.99484 0,-2.1215 0,-4.21132 0,-6.33283 0,-0.82326 0.316641,-1.70985 1.139908,-2.02649 m 1.583205,2.02649 c 0.03167,2.2165 0.03167,4.40132 0,6.58615 1.994839,0.0633 3.989679,0.0317 5.952853,0.0317 0.06333,-2.21649 0.03166,-4.46464 0,-6.68113 -1.963174,0.0317 -3.958014,-0.0633 -5.952853,0.0633 z"
     id="path16" />
  <path
     fill="#ffffff"
     stroke="#ffffff"
     stroke-width="0.0937498"
     opacity="1"
     d="m 126.96996,113.57368 c -0.0317,-1.01325 0.85493,-1.89984 1.86818,-1.86818 2.88144,-0.0317 5.76287,-0.0317 8.6443,0 0,0.69661 0,1.42488 0,2.15316 -2.69144,0.0317 -5.35124,-0.0317 -8.04268,0 0,0.85493 0,1.70986 0,2.5648 2.84977,0.095 5.69954,-0.15833 8.51765,0.12665 1.04491,1.04491 0.56995,2.72311 0.63328,4.05301 0.095,1.01324 -0.85493,1.74152 -1.80486,1.70986 -3.29307,-0.0317 -6.55447,0 -9.84753,-0.0317 0,-0.56995 0,-1.17157 0,-1.74152 2.94476,-0.0317 5.85785,0.0317 8.80261,-0.0317 -0.0317,-0.75994 -0.0317,-1.51988 -0.0317,-2.31149 -2.43814,-0.12666 -4.97127,0.28498 -7.40941,-0.22165 -1.80485,-0.66495 -1.32989,-2.88143 -1.32989,-4.40131 z"
     id="path17" />
  <path
     fill="#ffffff"
     stroke="#ffffff"
     stroke-width="0.0937498"
     opacity="1"
     d="m 146.31673,113.25704 c -0.0633,-1.29823 1.51987,-1.55154 2.4698,-1.55154 3.03975,0 6.04785,-0.0633 9.0876,0.0317 0,0.69661 0,1.39321 0,2.08982 -2.94477,0.0633 -5.85786,0 -8.77096,0.0633 -0.0317,0.82327 -0.0317,1.6782 0,2.53314 2.15316,0.0317 4.30632,0 6.49114,0.0317 0,0.53828 0.0317,1.10824 0.0317,1.67819 -2.15316,0.18999 -4.36965,0 -6.55447,0.095 0,0.75995 0,1.51989 0.0317,2.27983 2.9131,0.0317 5.82619,0 8.7393,0.0317 0,0.56995 0,1.17157 0,1.74152 -3.22974,0.0317 -6.42782,0 -9.65756,0.0317 -0.8866,0.0633 -1.80485,-0.56996 -1.80485,-1.51989 -0.095,-2.50146 0,-5.03458 -0.0633,-7.53605 z"
     id="path18" />
  <path
     fill="#ffffff"
     stroke="#ffffff"
     stroke-width="0.0937498"
     opacity="1"
     d="m 165.7585,113.66867 c 0,-1.20323 1.20323,-2.0265 2.34314,-1.96317 3.16641,-0.0317 6.33282,-0.0317 9.49924,0 -0.0317,0.72828 -0.0317,1.42488 -0.0317,2.15316 -3.07143,0.0317 -6.14284,-0.0317 -9.21426,0 -0.0317,2.21649 -0.0633,4.46464 0,6.68113 2.18482,0 4.36965,0 6.55447,0 0,-0.7916 0.0317,-1.55154 0,-2.31149 -1.26656,-0.0317 -2.56479,-0.0317 -3.83136,0 0,-0.60161 -0.0317,-1.17157 -0.0317,-1.74152 2.18483,-0.095 4.33798,-0.0633 6.52281,-0.0317 -0.15832,1.89984 0.7916,4.78127 -1.58321,5.63621 -2.53312,0.47496 -5.16125,0.0633 -7.72604,0.25331 -0.98159,0.095 -2.34314,-0.12666 -2.43813,-1.3299 -0.12666,-2.43813 -0.0633,-4.90793 -0.0633,-7.34607 z"
     id="path19" />
  <path
     fill="#ffffff"
     stroke="#ffffff"
     stroke-width="0.0937498"
     opacity="1"
     d="m 185.96019,113.70034 c 0,-0.85493 0.37997,-2.08983 1.45656,-1.99484 2.65978,-0.0317 5.31957,-0.0317 7.97935,0 1.04492,-0.0633 1.86818,0.8866 1.86818,1.86818 0.095,2.9131 0.0317,5.8262 0.0317,8.70763 -0.66493,0 -1.32988,0 -1.99483,0 0,-1.36156 0,-2.72311 -0.0317,-4.11633 -2.50147,0.0317 -4.97127,0.0317 -7.47273,0 -0.095,1.39322 -0.0633,2.78644 -0.095,4.148 -0.56995,0 -1.13991,0 -1.74153,0 -0.0317,-2.88144 -0.0317,-5.7312 0,-8.61264 m 1.7732,0.15832 c 0,0.85493 0,1.70986 0,2.53313 2.53312,0.0317 5.03459,0.0317 7.56772,0 0,-0.82327 0,-1.6782 0,-2.50147 -2.53313,-0.0633 -5.0346,-0.0317 -7.56772,-0.0317 z"
     id="path20" />
  <path
     fill="#ffffff"
     stroke="#ffffff"
     stroke-width="0.0937498"
     opacity="1"
     d="m 223.5455,111.67384 c 0.98158,0.095 2.27981,-0.34831 2.9131,0.63328 1.70985,1.99483 3.41972,3.95801 5.16124,5.92118 0.4433,-0.0317 0.85493,-0.0633 1.26657,-0.095 0,-2.12149 0,-4.27465 -0.0317,-6.39614 0.75994,-0.0317 1.51988,-0.0633 2.31148,0 -0.095,3.51471 0.095,7.06109 -0.12665,10.60747 -0.85493,-0.12666 -1.99484,0.28498 -2.5648,-0.56996 -2.21648,-2.59645 -4.33798,-5.2879 -6.58613,-7.8527 0,2.78645 0,5.57289 -0.0317,8.35933 -0.75995,0.0317 -1.55155,0.0317 -2.31148,0 0,-3.51471 0,-7.06109 0,-10.60747 z"
     id="path21" />
  <path
     fill="#ffffff"
     stroke="#ffffff"
     stroke-width="0.0937498"
     opacity="1"
     d="m 243.17724,111.67384 c 0.91826,0 1.83652,0 2.75478,0.0633 0,3.48305 -0.0317,6.9661 0.0317,10.48081 -0.91826,0.12666 -1.86819,0.095 -2.78645,0.0633 0,-3.54638 0,-7.06109 0,-10.60747 z"
     id="path22" />
  <path
     fill="#ffffff"
     stroke="#ffffff"
     stroke-width="0.0937498"
     opacity="1"
     d="m 254.22802,111.7055 c 0.88659,0.095 2.08983,-0.37997 2.75478,0.4433 1.67819,1.93151 3.32473,3.86302 5.03458,5.76286 0.37997,0.47497 1.01326,0.25332 1.51989,0.31664 0.0317,-2.18481 0,-4.33798 0,-6.49113 0.75994,-0.0317 1.48821,-0.0633 2.24814,-0.0633 0.0317,3.54638 0.0317,7.09276 0,10.60747 -0.85492,-0.095 -2.05816,0.37997 -2.65978,-0.47496 -2.18482,-2.62812 -4.33798,-5.31957 -6.58613,-7.91603 0,2.81811 0.0317,5.60455 0,8.39099 -0.75994,0.0317 -1.55155,0.0317 -2.31148,0 0,-3.51471 -0.0317,-7.06109 0,-10.57581 z"
     id="path23" />
  <path
     fill="#ffffff"
     stroke="#ffffff"
     stroke-width="0.0937498"
     opacity="1"
     d="m 272.56154,111.76883 c 3.76803,-0.15832 7.53606,-0.12666 11.30409,-0.0317 -0.0317,0.69661 -0.0317,1.39321 0,2.08982 -1.39323,0.0317 -2.75479,0 -4.148,0.095 0.0317,2.78645 0.0317,5.57289 0,8.35933 -1.01326,0.0317 -2.02651,0.0317 -3.03975,0 -0.0317,-2.78644 0.0317,-5.60454 0,-8.39099 -1.36157,-0.0317 -2.75479,-0.0317 -4.11634,-0.0633 0,-0.69661 0,-1.39321 0,-2.05816 z"
     id="path24" />
  <path
     fill="#ffffff"
     stroke="#ffffff"
     stroke-width="0.0937498"
     opacity="1"
     d="m 290.92672,111.7055 c 3.19808,-0.0317 6.39615,-0.0317 9.56256,0 0,0.69661 0,1.42488 0,2.15316 -2.27981,0.0317 -4.55963,-0.095 -6.83945,0.0633 0,0.82327 0,1.64654 0,2.46981 2.27982,0.0633 4.55964,0 6.87111,0.0633 -0.0317,0.56995 -0.0633,1.17157 -0.0633,1.77318 -2.27981,-0.0317 -4.52796,-0.0633 -6.77611,0 -0.0317,0.75995 -0.0317,1.55155 0,2.31149 2.27982,0 4.52797,-0.0317 6.80778,0 0,0.56995 0,1.17157 0,1.74152 -3.16641,0.0317 -6.36448,0.0317 -9.56256,0 0,-3.51471 0,-7.06109 0,-10.57581 z"
     id="path25" />
  <path
     fill="#ffffff"
     stroke="#ffffff"
     stroke-width="0.0937498"
     opacity="1"
     d="m 307.58205,111.73717 c 0.79159,-0.0633 1.5832,-0.0633 2.34314,-0.0317 1.9315,2.15316 3.79969,4.36965 5.76286,6.5228 0.41164,-0.0317 0.82327,-0.0317 1.2349,-0.0633 0,-2.15316 0,-4.30632 0.0317,-6.45948 0.72827,-0.0317 1.45655,-0.0317 2.21649,0 0.0317,3.51472 0,7.0611 0,10.57581 -0.72827,0.0317 -1.48822,0.0317 -2.21649,0.0317 -2.37481,-2.78644 -4.62296,-5.63621 -7.02943,-8.42266 -0.0317,2.78645 0,5.57289 0,8.35933 -0.75994,0.0317 -1.48822,0.0633 -2.24815,0.095 -0.22165,-3.54638 0,-7.09276 -0.095,-10.60747 z"
     id="path26" />
  <path
     fill="#ffffff"
     stroke="#ffffff"
     stroke-width="0.0937498"
     opacity="1"
     d="m 327.21379,111.73717 c 3.03976,-0.095 6.04785,-0.0317 9.0876,-0.0317 1.26657,-0.12666 2.31148,1.04492 2.34314,2.27981 0.0317,2.24816 0.0317,4.52797 -0.0317,6.77612 0.0317,0.7916 -0.56995,1.55155 -1.39322,1.55155 -3.29306,0 -6.58613,-0.0317 -9.91087,0 -0.18999,-3.51472 0,-7.0611 -0.095,-10.57581 m 2.18483,2.18481 c 0,2.18483 0,4.40132 0,6.58615 2.34314,0.0317 4.65462,0 6.9661,0.0317 0.0633,-2.21649 0.0633,-4.46464 0.0317,-6.68113 -2.34314,0.0317 -4.65462,-0.0633 -6.99776,0.0633 z"
     id="path27" />
  <path
     fill="#ffffff"
     stroke="#ffffff"
     stroke-width="0.0937498"
     opacity="1"
     d="m 347.47882,111.86382 c 2.4698,-0.41163 5.00293,-0.0633 7.50439,-0.15832 1.36156,-0.12666 3.00809,0.72828 2.97643,2.27981 -0.0317,2.40648 0.15832,4.84461 -0.095,7.25108 -0.7916,1.70987 -3.00809,0.91826 -4.4963,1.07659 -2.15316,-0.25332 -4.78128,0.63328 -6.61781,-0.82327 -0.88658,-1.48821 -0.25331,-3.38806 -0.44329,-5.03459 0.15832,-1.51988 -0.56995,-3.76803 1.17157,-4.5913 m 1.58321,2.05816 c 0,2.18483 0,4.40132 0,6.58615 1.96317,0.0317 3.95801,0.0317 5.92118,0.0317 0.0633,-2.24816 0.0317,-4.46464 0.0317,-6.68113 -1.99484,0 -3.98968,-0.0633 -5.95285,0.0633 z"
     id="path28" />
  <path
     fill="#ffffff"
     stroke="#ffffff"
     stroke-width="0.0937498"
     opacity="1"
     d="m 112.18282,115.53686 c 1.07658,-0.37997 2.27981,0.75994 1.89984,1.86818 -0.22164,1.04491 -1.64652,1.45655 -2.43813,0.75994 -0.94992,-0.69662 -0.60162,-2.34314 0.53829,-2.62812 z"
     id="path29" />
  <path
     fill="#ffffff"
     stroke="#ffffff"
     stroke-width="0.0937498"
     opacity="1"
     d="m 209.07499,115.8535 c 1.01326,-0.53829 2.31149,0.41163 2.15317,1.55154 -0.0633,1.10824 -1.48822,1.74153 -2.37482,1.10824 -1.01324,-0.60162 -0.85492,-2.24815 0.22165,-2.65978 z"
     id="path30" />
  <path
     fill="#ffffff"
     stroke="#ffffff"
     stroke-width="0.0937498"
     opacity="1"
     d="m 112.56279,126.74595 c 3.07142,0.0317 6.1745,-0.095 9.24592,0.0633 -3.48305,6.58613 -7.25108,13.07727 -10.63914,19.72674 49.87097,-0.0317 99.74195,0 149.58126,-0.0317 -3.54638,-6.64947 -7.44107,-13.10895 -10.95578,-19.75841 3.19807,0 6.42781,-0.0633 9.62588,0.0317 5.22458,9.40423 10.63914,18.68182 15.83206,28.08607 -59.62352,0.0633 -119.27871,0.0633 -178.902227,0 5.319567,-9.40425 10.765797,-18.77683 16.212027,-28.11774 z"
     id="path31" />
</svg>
