<?xml version="1.0" encoding="UTF-8" standalone="no"?>
<svg
   version="1.1"
   viewBox="0 0 379.9993 116.62601"
   id="svg9"
   width="379.9993"
   height="116.62601"
   xmlns="http://www.w3.org/2000/svg"
   xmlns:svg="http://www.w3.org/2000/svg">
  <defs
     id="defs9" />
  <path
     class="st5"
     d="M 139.73152,115.80469 H 119.35711 L 97.745768,61.340961 h 14.605462 l 15.92154,40.748849 h 2.55299 l 15.72363,-40.748849 h 14.54609 z"
     style="fill:#ffffff;stroke-width:0.098953"
     id="path1" />
  <path
     class="st5"
     d="M 166.99308,115.80469 V 61.340961 h 13.95236 v 54.463729 z"
     style="fill:#ffffff;stroke-width:0.098953"
     id="path2" />
  <path
     class="st5"
     d="m 217.96376,116.6161 c -5.76896,0 -11.72593,0.0792 -17.35635,-1.38534 -4.52216,-1.22701 -7.40169,-4.08676 -8.32195,-9.88541 -0.851,-5.30388 -0.65309,-11.023355 -0.65309,-16.416294 0,-3.265448 0,-6.530897 0.12864,-9.717184 0.12864,-4.977336 0.1979,-10.370274 3.27535,-13.962267 1.04889,-1.227018 2.2957,-2.038432 3.67115,-2.612359 5.76896,-2.364977 18.14797,-2.12749 24.24348,-2.12749 4.97733,0 10.0932,-0.16822 15.00128,0.979635 1.96916,0.484869 3.73053,1.30618 5.30388,2.859742 3.47325,3.34461 3.47325,9.796345 3.47325,14.694519 0,0.573927 -0.0693,1.227017 -0.0693,1.800945 h -13.29929 c -0.0693,-1.4744 -0.0693,-4.165921 -0.97962,-5.145556 -0.59372,-0.65309 -1.64263,-0.900473 -2.42436,-0.979635 -3.54251,-0.573928 -7.27304,-0.573928 -10.80566,-0.573928 -1.8999,0 -3.73053,0 -5.63043,0.07916 -1.96917,0.07916 -4.77943,0.07916 -6.42205,1.632724 -2.2957,2.206652 -2.0978,9.796347 -2.0978,12.982634 0,2.938903 -0.25728,10.370274 1.96916,12.408704 0.851,0.73226 1.77126,1.14786 2.82017,1.30619 2.82015,0.49476 5.8976,0.4057 8.77712,0.4057 h 6.7486 c 2.42434,0 7.14441,0.49477 8.25267,-3.018069 0.45519,-1.474399 0.52446,-3.591993 0.52446,-5.145555 h 13.29928 c 0.0693,1.306179 0.12864,2.691521 0.12864,3.9977 0,4.650794 -0.0693,10.202064 -3.07744,13.556564 -4.05707,4.57163 -15.65436,4.24508 -20.8296,4.24508 h -5.65022 z"
     style="fill:#ffffff;stroke-width:0.098953"
     id="path3" />
  <path
     class="st5"
     d="m 264.08576,115.80469 c 0,-2.12749 -0.12864,-4.32425 -0.12864,-6.45173 0,-4.41331 -0.0693,-8.81672 0.52445,-13.150859 1.17753,-9.064094 7.47094,-10.202054 13.75446,-10.865038 l 16.50536,-1.632724 c 2.09781,-0.247383 4.39351,-0.247383 6.42205,-1.147855 1.89989,-0.821311 1.89989,-2.206652 1.89989,-4.492467 0,-1.553562 0,-3.265449 -1.11816,-4.245083 -1.64262,-1.553562 -8.71776,-1.147855 -10.61765,-1.147855 -3.99771,0 -8.32196,-0.247382 -12.31966,0.573927 -3.01807,0.573928 -2.68163,3.265449 -2.68163,6.530898 v 1.800945 h -12.90346 v -2.206652 c 0,-4.492466 0.0693,-10.696818 2.75089,-14.20965 3.01807,-3.918538 9.69739,-4.086759 13.6951,-4.324246 2.82015,-0.16822 5.63042,-0.16822 8.45058,-0.16822 h 1.24681 l 10.80567,0.07916 c 4.1956,0 9.56875,0.07916 12.70555,4.086759 2.42436,3.107124 2.42436,9.311476 2.42436,13.309178 0,4.086758 -0.0693,8.411004 -1.8999,12.002999 -2.42435,4.81901 -9.30158,5.472099 -13.36855,5.798645 -3.14671,0.247382 -6.22414,0.494765 -9.37084,0.732251 -2.49362,0.168221 -4.97734,0.405708 -7.47096,0.65309 -1.11817,0.07916 -3.92843,0.326546 -4.97733,0.821311 -2.09781,0.979634 -2.09781,2.780576 -2.09781,5.145556 h 39.89785 v 12.49776 h -52.12843 z"
     style="fill:#ffffff;stroke-width:0.098953"
     id="path4" />
  <path
     class="st5"
     d="m 370.22274,115.47814 c -5.24451,1.0588 -12.31965,0.97964 -17.62354,0.97964 -3.27534,0 -6.48142,-0.0792 -9.75676,-0.16822 -7.20378,-0.15833 -15.59499,-0.48487 -17.16835,-11.34991 -0.72235,-5.066393 -0.52445,-11.191583 -0.52445,-16.327244 0,-3.265448 0,-6.451735 0.0693,-9.717183 0.0693,-4.571629 0.32655,-9.796347 3.01807,-13.309179 1.77125,-2.285813 4.25498,-3.433668 6.74859,-3.918538 5.24451,-1.058797 12.25038,-0.979634 17.62353,-0.979634 3.20608,0 6.48142,0.168219 9.69739,0.247382 11.20145,0.326545 17.69277,1.800945 17.69277,17.959969 V 98.32959 c -0.0198,9.0641 -1.85042,15.51583 -9.77655,17.14855 z m -6.36268,-39.600984 c -1.50409,-0.821309 -3.73053,-0.900472 -5.37315,-0.900472 -2.62226,0 -5.24451,-0.07916 -7.92614,-0.07916 -2.68162,0 -5.63042,-0.07916 -8.25268,0.65309 -0.78173,0.247382 -1.57335,0.573927 -2.15718,1.385341 -1.77125,2.285815 -1.64261,8.73755 -1.64261,11.676453 0,2.691522 -0.12864,9.064095 1.37544,11.270746 0.65309,0.979636 1.44472,1.385336 2.42435,1.711886 2.82017,0.82131 7.47096,0.82131 10.41975,0.73225 l 5.76896,-0.16822 c 1.64263,-0.0792 3.86906,-0.0792 5.37315,-0.97963 3.27534,-1.800946 2.82016,-8.984933 2.82016,-12.576927 -0.01,-3.582098 0.44529,-10.855143 -2.83005,-12.725355 z"
     style="fill:#ffffff;stroke-width:0.098953"
     id="path5" />
  <polygon
     id="polygon7_7_"
     class="st7"
     points="0,669.9 0,611.5 869.6,611.5 869.6,669.9 "
     style="fill:#ffffff"
     transform="scale(0.098953)" />
  <polygon
     class="st7"
     points="0,797.1 0,738.7 869.6,738.7 869.6,797.1 "
     style="fill:#ffffff"
     id="polygon5"
     transform="scale(0.098953)" />
  <polygon
     class="st7"
     points="0,924.2 0,865.9 869.6,865.9 869.6,924.2 "
     style="fill:#ffffff"
     id="polygon6"
     transform="scale(0.098953)" />
  <polygon
     class="st7"
     points="0,1051.4 0,993.1 869.6,993.1 869.6,1051.4 "
     style="fill:#ffffff"
     id="polygon7"
     transform="scale(0.098953)" />
  <polygon
     id="polygon15_7_"
     class="st7"
     points="0,1178.6 0,1120.2 869.6,1120.2 869.6,1178.6 "
     style="fill:#ffffff"
     transform="scale(0.098953)" />
  <path
     id="path4595_10_"
     class="st5"
     d="m 334.87672,15.644469 h -7.05534 v 20.245782 h 7.36209 V 25.312176 c 0,-2.760788 1.6921,-4.146131 4.75964,-4.146131 3.06755,0 3.83939,0.920264 3.98782,3.522727 h 6.90691 c 0,-6.897023 -0.92026,-9.509382 -8.28236,-9.509382 -4.45289,0 -5.98666,0.920262 -7.66886,4.29456 l -0.01,-3.829481 z m 33.9013,16.257976 c -7.05535,0 -8.12404,-0.613508 -8.12404,-4.14613 h 19.32552 c -0.30676,-9.816138 -0.30676,-12.111846 -13.34876,-12.111846 -11.04315,0 -13.50708,1.988955 -13.50708,10.7364 0,8.133935 3.22586,10.122891 12.12174,10.281215 9.97446,0 14.7242,-0.465079 14.7242,-7.055348 h -7.21367 c -0.29686,1.533772 -0.91036,2.295709 -3.97791,2.295709 z m -8.28236,-8.430795 c 0.30675,-2.14728 0.92025,-2.919113 5.82833,-2.919113 5.37315,0 6.13508,0.306754 6.44183,2.919113 z M 86.217744,24.233589 h 7.362103 c -0.613509,-6.906919 -2.612359,-8.58912 -12.88368,-8.58912 -11.656663,0 -14.269022,1.840525 -14.269022,10.429645 0,8.58912 2.454034,10.58797 13.348759,10.58797 11.508233,0 13.803943,-1.533771 13.803943,-8.747444 h -7.362103 c 0,1.99885 -0.761938,2.919113 -6.44184,2.919113 -4.908068,0 -5.986656,-1.227017 -5.986656,-5.214823 0,-3.839376 1.068692,-3.839376 6.906919,-3.839376 4.29456,0 5.056498,0.465079 5.521577,2.454035 z M 257.258,25.460605 c 0,-8.282365 -2.45404,-9.964566 -14.26902,-9.964566 -12.73526,0 -14.25914,2.14728 -14.25914,10.7364 0,8.58912 2.14729,10.429645 14.25914,10.429645 12.88367,0 14.26902,-2.14728 14.26902,-11.201479 z m -21.01762,0.46508 c 0,-4.146131 0.92027,-4.601315 6.29341,-4.601315 5.98666,0 7.05534,0.14843 7.05534,4.601315 0,4.14613 -0.77182,4.908068 -6.44183,4.908068 -6.14498,0 -6.90692,-0.613508 -6.90692,-4.908068 z m 87.12812,-0.46508 c 0,-8.282365 -2.30561,-9.964566 -14.11071,-9.964566 -12.57692,0 -14.11069,1.988955 -14.11069,10.58797 0,8.747445 2.14727,10.58797 14.11069,10.58797 12.88369,-0.0099 14.11071,-2.157175 14.11071,-11.211374 z m -20.8593,0.46508 c 0,-4.146131 0.92026,-4.601315 6.28351,-4.601315 5.98666,0 7.05535,0.14843 7.05535,4.601315 0,4.14613 -0.76194,4.908068 -6.44184,4.908068 -6.12519,0 -6.89702,-0.613508 -6.89702,-4.908068 z m -176.25508,-0.46508 c 0,-8.282365 -2.3056,-9.964566 -14.11069,-9.964566 -12.735252,0 -14.269023,1.988955 -14.269023,10.58797 0,8.747445 2.147273,10.58797 14.269023,10.58797 12.88368,-0.0099 14.11069,-2.157175 14.11069,-11.211374 z m -20.71086,0.46508 c 0,-4.146131 0.92027,-4.601315 6.13509,-4.601315 5.98666,0 7.05535,0.14843 7.05535,4.601315 0,4.14613 -0.77183,4.908068 -6.44184,4.908068 -5.98666,0 -6.7486,-0.613508 -6.7486,-4.908068 z M 282.87692,7.0553485 V 18.870336 c -1.6822,-2.305605 -3.21596,-3.522727 -9.35105,-3.522727 -9.81614,0 -11.65667,2.612359 -11.65667,10.587971 0,8.133936 2.61237,10.429645 12.12175,10.429645 5.98666,0 7.82718,-1.533771 9.20262,-4.136234 v 3.681051 h 7.36211 V 7.0553485 Z m -5.37314,14.1106965 c 4.13623,0 5.52157,0.613509 5.52157,3.829481 0,4.908069 -0.30675,5.373148 -6.13508,5.373148 -5.82834,0 -7.3621,-0.158324 -7.3621,-4.29456 0,-4.749744 1.84052,-4.908069 7.97561,-4.908069 z M 137.91079,15.644469 h -6.89702 v 20.245782 h 7.3621 V 25.460605 c 0,-3.067542 1.53377,-4.136235 5.6799,-4.136235 3.83937,0 4.90807,1.375447 4.90807,5.214823 v 9.351058 h 7.52043 v -10.7364 c 0,-2.919114 2.2957,-3.829481 5.82833,-3.829481 3.37429,0 4.90807,0.920263 4.90807,3.829481 v 10.7364 h 7.36209 V 23.926834 c 0,-5.976761 -3.68104,-8.747444 -10.42964,-8.747444 -5.82833,0 -7.97561,2.14728 -8.74744,4.452884 -1.53378,-2.612359 -3.68105,-4.452884 -9.50938,-4.452884 -5.52158,0 -7.05535,1.840525 -7.97562,5.214822 l -0.01,-4.749743 z m 49.54576,0 h -6.90692 v 20.245782 h 7.36211 V 25.460605 c 0,-3.067542 1.84053,-4.136235 5.52158,-4.136235 3.83937,0 4.90806,1.227018 4.90806,5.214823 v 9.351058 h 7.52043 v -10.7364 c 0,-2.919114 2.14728,-3.829481 5.6799,-3.829481 3.3743,0 5.0565,1.068693 5.0565,3.829481 v 10.7364 h 7.3621 V 23.926834 c 0,-5.976761 -3.68105,-8.747444 -10.42964,-8.747444 -5.82834,0 -7.82718,1.988955 -8.74744,4.452884 -1.53378,-2.612359 -3.68106,-4.452884 -9.50939,-4.452884 -5.36325,0 -6.74859,1.840525 -7.81729,5.214822 z"
     style="fill:#ffffff;stroke-width:0.098953" />
  <path
     class="st5"
     d="m 33.109672,38.48282 c -2.018641,1.128064 -4.334141,1.781154 -6.807966,1.781154 -7.688648,0 -13.952372,-6.25383 -13.952372,-13.952373 0,-7.698543 6.253829,-13.952372 13.952372,-13.952372 2.473825,0 4.789325,0.643195 6.807966,1.781154 V 0.89057696 C 30.942601,0.30675429 28.656787,0 26.301706,0 11.775406,0 0,11.775406 0,26.311601 c 0,14.536196 11.775406,26.311602 26.311601,26.311602 2.355081,0 4.631,-0.31665 6.807966,-0.890578 V 38.48282 Z"
     style="fill:#ffffff;stroke-width:0.098953"
     id="path7" />
  <rect
     x="33.109673"
     y="14.823159"
     class="st5"
     width="11.033258"
     height="10.528599"
     style="fill:#ffffff;stroke-width:0.098953"
     id="rect7" />
  <polygon
     class="st5"
     points="566.4,149.8 460,256.2 411,256.2 411,149.8 "
     style="fill:#ffffff"
     id="polygon8"
     transform="scale(0.098953)" />
  <rect
     x="33.109673"
     y="27.271446"
     class="st5"
     width="11.033258"
     height="10.528599"
     style="fill:#ffffff;stroke-width:0.098953"
     id="rect8" />
  <polygon
     class="st5"
     points="566.4,381.9 460,275.6 411,275.6 411,381.9 "
     style="fill:#ffffff"
     id="polygon9"
     transform="scale(0.098953)" />
</svg>
