<?xml version="1.0" encoding="UTF-8" standalone="no"?>
<!-- Created with Inkscape (http://www.inkscape.org/) -->

<svg
   width="99.48391mm"
   height="19.38946mm"
   viewBox="0 0 99.48391 19.38946"
   version="1.1"
   id="svg1"
   xml:space="preserve"
   inkscape:version="1.4 (e7c3feb100, 2024-10-09)"
   sodipodi:docname="videosystem.svg"
   xmlns:inkscape="http://www.inkscape.org/namespaces/inkscape"
   xmlns:sodipodi="http://sodipodi.sourceforge.net/DTD/sodipodi-0.dtd"
   xmlns="http://www.w3.org/2000/svg"
   xmlns:svg="http://www.w3.org/2000/svg"><sodipodi:namedview
     id="namedview1"
     pagecolor="#ffffff"
     bordercolor="#000000"
     borderopacity="0.25"
     inkscape:showpageshadow="2"
     inkscape:pageopacity="0.0"
     inkscape:pagecheckerboard="0"
     inkscape:deskcolor="#d1d1d1"
     inkscape:document-units="mm"
     showguides="true"
     inkscape:zoom="0.70710678"
     inkscape:cx="127.98633"
     inkscape:cy="129.40054"
     inkscape:window-width="1920"
     inkscape:window-height="1164"
     inkscape:window-x="1920"
     inkscape:window-y="0"
     inkscape:window-maximized="1"
     inkscape:current-layer="layer1"><sodipodi:guide
       position="61.51065,222.00353"
       orientation="1,0"
       id="guide1"
       inkscape:locked="false" /><sodipodi:guide
       position="66.72078,222.38923"
       orientation="0,-1"
       id="guide2"
       inkscape:locked="false" /><sodipodi:guide
       position="62.33311,219.47879"
       orientation="0,-1"
       id="guide3"
       inkscape:locked="false" /><sodipodi:guide
       position="342.593,232.04653"
       orientation="0,-1"
       id="guide4"
       inkscape:locked="false" /><sodipodi:guide
       position="316.41206,259.6725"
       orientation="0,-1"
       id="guide5"
       inkscape:locked="false" /><sodipodi:guide
       position="318.94221,266.69171"
       orientation="1,0"
       id="guide6"
       inkscape:locked="false" /><sodipodi:guide
       position="323.71385,253.01799"
       orientation="0,-1"
       id="guide7"
       inkscape:locked="false" /><sodipodi:guide
       position="324.27144,245.67301"
       orientation="0,-1"
       id="guide8"
       inkscape:locked="false" /><sodipodi:guide
       position="321.19929,238.72417"
       orientation="0,-1"
       id="guide9"
       inkscape:locked="false" /><sodipodi:guide
       position="344.45759,266.20856"
       orientation="0,-1"
       id="guide10"
       inkscape:locked="false" /><sodipodi:guide
       position="329.49957,255.23352"
       orientation="1,0"
       id="guide11"
       inkscape:locked="false" /><sodipodi:guide
       position="328.91924,253.03681"
       orientation="1,0"
       id="guide12"
       inkscape:locked="false" /><sodipodi:guide
       position="225.74741,230.95888"
       orientation="0,-1"
       id="guide13"
       inkscape:locked="false" /></sodipodi:namedview><defs
     id="defs1" /><g
     inkscape:label="Layer 1"
     inkscape:groupmode="layer"
     id="layer1"
     transform="matrix(0.26552439,0,0,0.26552439,-20.261784,-21.006207)"
     style="fill:#ffffff;fill-opacity:1"><path
       style="display:inline;fill:#ffffff;fill-opacity:1"
       d="m 99.776244,149.95261 c -0.564066,-1.20055 -1.94479,-4.08782 -3.068274,-6.41615 -1.123485,-2.32833 -2.612134,-5.42396 -3.30811,-6.87917 -0.695975,-1.4552 -2.183064,-4.55083 -3.304642,-6.87916 -1.121578,-2.32834 -2.492372,-5.18584 -3.046208,-6.35 -0.553837,-1.16417 -2.923777,-6.0979 -5.266534,-10.96385 -2.342757,-4.86595 -4.259558,-8.88432 -4.259558,-8.92969 0,-0.0454 4.949089,-0.0825 10.997975,-0.0825 h 10.997974 l 2.133093,4.43177 c 1.1732,2.43747 3.82273,7.94411 5.88785,12.23698 2.06511,4.29286 3.94516,8.16239 4.17788,8.59895 l 0.42313,0.79375 8.55694,-17.28324 c 4.70631,-9.50579 8.50603,-17.334147 8.44382,-17.396356 -0.0622,-0.06221 -2.43879,-0.113108 -5.2813,-0.113108 -3.13025,0 -5.06908,-0.09541 -4.91684,-0.241966 0.21935,-0.211162 6.22921,-3.720345 9.64406,-5.631213 0.65485,-0.366435 4.42013,-2.517837 8.36731,-4.780895 3.94717,-2.263057 7.54214,-4.30364 7.98882,-4.534628 l 0.81215,-0.419979 4.84347,5.476834 c 2.6639,3.012258 5.7692,6.524211 6.90066,7.80434 1.13147,1.280129 1.90537,2.331552 1.7198,2.336497 -0.18558,0.0049 -2.30195,0.03471 -4.70304,0.06615 l -4.36563,0.05716 -3.56441,7.143754 c -1.96043,3.92906 -8.35837,16.81758 -14.21765,28.64114 l -10.65323,21.4974 h -10.45696 -10.45697 z m 22.474916,-2.57969 c 0.8411,-1.67349 6.78174,-13.63927 13.20144,-26.59063 6.41969,-12.95135 12.13606,-24.440884 12.70304,-25.53229 l 1.03087,-1.984375 3.06195,-0.07454 c 3.50474,-0.08532 3.55135,-0.130794 1.93748,-1.890247 -0.61846,-0.674254 -1.83885,-2.051478 -2.71198,-3.060497 -3.18593,-3.681791 -6.01797,-6.748672 -6.23191,-6.748672 -0.20347,0 -8.39728,4.596248 -13.87642,7.783855 -1.30969,0.76194 -3.18493,1.847325 -4.16719,2.411969 -2.37976,1.367974 -2.30399,1.445843 1.40689,1.445843 3.12153,0 3.1889,0.01239 3.01676,0.554763 -0.0968,0.305119 -2.08498,4.38301 -4.41809,9.061971 -9.20861,18.46759 -23.48733,47.45092 -23.48733,47.67523 0,0.0715 3.82617,0.0985 8.50261,0.0601 l 8.50262,-0.0698 z m -15.74953,-6.48427 c 2.39733,-4.87604 4.35879,-9.01884 4.35879,-9.20623 0,-0.32765 -3.12456,-6.96241 -9.61897,-20.42513 l -3.063235,-6.35 -8.789437,-0.0698 c -4.83419,-0.0384 -8.872945,0.0212 -8.975011,0.13229 -0.102066,0.11114 0.605948,1.80941 1.573363,3.77394 0.967415,1.96453 3.356737,6.90563 5.309604,10.98021 1.952867,4.07458 4.756378,9.90865 6.230024,12.96458 1.473647,3.05594 3.919296,8.14586 5.434776,11.31094 1.515476,3.16508 2.851246,5.75469 2.968366,5.75469 0.11711,0 2.17439,-3.98949 4.57173,-8.86552 z M 76.729168,100.69467 c 0,-0.64008 0.06163,-0.66223 2.050521,-0.737187 2.489625,-0.09382 2.724856,-0.57484 0.335862,-0.686796 -3.263256,-0.152928 -3.912686,-3.133566 -0.713838,-3.276252 0.608069,-0.02712 1.522299,-0.07673 2.031622,-0.110235 1.397884,-0.09196 1.852083,0.113755 1.852083,0.838838 0,0.6287 -0.04961,0.643628 -2.138715,0.643628 -2.759566,0 -2.82837,0.595825 -0.09166,0.79375 2.174506,0.157266 2.957821,1.002155 2.193679,2.366114 -0.360696,0.64383 -0.503518,0.68026 -2.949303,0.75232 l -2.570252,0.0757 z m 8.73125,-0.52827 c 0,-1.003991 -0.169566,-1.367677 -1.201133,-2.576189 l -1.201134,-1.407164 0.69613,-0.232043 c 0.597766,-0.199255 0.833599,-0.09781 1.669027,0.717967 l 0.972898,0.950009 0.681252,-0.853786 c 0.50275,-0.630076 0.9001,-0.856696 1.516481,-0.864891 1.078485,-0.01434 1.061235,0.07271 -0.355396,1.79348 -0.987392,1.199377 -1.190625,1.633611 -1.190625,2.543937 0,1.04327 -0.03935,1.0977 -0.79375,1.0977 -0.762178,0 -0.79375,-0.0465 -0.79375,-1.16902 z m 4.545661,0.5737 c 0.07832,-0.55148 0.236846,-0.60102 2.153298,-0.67291 2.584322,-0.09694 2.688538,-0.651516 0.159439,-0.84844 -2.127475,-0.165653 -2.360481,-0.3207 -2.360481,-1.570718 0,-1.385121 0.360507,-1.588931 3.141569,-1.776069 l 2.414681,-0.162483 v 0.828593 0.828593 h -2.006423 c -2.614774,0 -2.62489,0.599125 -0.0134,0.79375 1.900546,0.141642 2.273233,0.405201 2.280358,1.612639 0.0073,1.240965 -0.693863,1.562365 -3.408622,1.562365 -2.38418,0 -2.442862,-0.0148 -2.360416,-0.59532 z m 8.683506,-1.389059 v -1.984375 h -1.058333 c -0.989997,0 -1.058334,-0.04925 -1.058334,-0.762806 v -0.762806 l 2.844271,0.04161 c 2.838881,0.04153 2.844271,0.04285 2.844271,0.696661 0,0.56596 -0.13494,0.666219 -0.99219,0.737168 l -0.99218,0.08212 v 1.968403 1.968404 h -0.793755 -0.79375 z m 4.554805,-0.721773 0.0754,-2.706148 2.64584,-0.0058 2.64583,-0.0058 0.0837,0.727604 0.0837,0.727604 h -2.00195 c -1.60312,0 -2.00195,0.07907 -2.00195,0.396875 0,0.3175 0.39688,0.396875 1.98438,0.396875 1.80798,0 1.98437,0.04704 1.98437,0.529167 0,0.48213 -0.17639,0.529167 -1.98437,0.529167 -1.5875,0 -1.98438,0.07937 -1.98438,0.396875 0,0.3175 0.39688,0.396873 1.98438,0.396873 1.94027,0 1.98437,0.0147 1.98437,0.66146 v 0.66146 h -2.78738 -2.78738 z m 6.5577,0.06032 c 0,-1.455208 0.0893,-2.655755 0.19843,-2.667882 0.10914,-0.01213 0.46222,-0.05146 0.78462,-0.0874 0.81402,-0.09076 0.96852,0.05201 1.76483,1.630805 0.87018,1.725254 0.94698,1.722742 1.82111,-0.05958 0.50453,-1.028716 0.90381,-1.497161 1.37744,-1.616034 1.33139,-0.334158 1.4619,-0.08493 1.4619,2.791784 v 2.654139 h -0.86689 c -0.85195,0 -0.86515,-0.0183 -0.76586,-1.05941 0.18843,-1.975882 -0.18405,-2.141337 -1.03996,-0.461946 -0.94618,1.856526 -1.10892,1.873026 -1.9575,0.198436 -0.3687,-0.727602 -0.78743,-1.322915 -0.9305,-1.322915 -0.14307,0 -0.26012,0.595313 -0.26012,1.322915 0,1.29352 -0.0176,1.32292 -0.79375,1.32292 h -0.79375 z"
       id="path1"
       sodipodi:nodetypes="sssssssscssscssssssscsscscsscccsssscssssssscssscscsscscsssssccsssssssssscssscsscssssssssssscccssssssccsscsssccccccccccccssssssssccccssssssscssssssscs" /><path
       d="m 270.59672,145.15327 c -5.6793,0 -12.25584,-4.56264 -14.8319,-9.47918 -1.9002,-3.62665 -2.07948,-14.04549 -0.29938,-17.39742 5.6396,-10.61938 19.25306,-12.80356 27.60303,-4.42865 12.33609,12.37291 1.47484,31.30525 -12.47175,31.30525 z m 5.03642,-9.36871 c 9.6285,-7.12778 2.27437,-23.23503 -8.2292,-18.02372 -3.80301,1.88687 -5.5547,4.5914 -5.5547,8.57622 0,8.32895 7.94179,13.77227 13.7839,9.4475 z m 20.03505,8.40161 c -1.69156,-0.55725 -3.6823,-1.42849 -4.4238,-1.93609 l -1.34823,-0.92287 1.58433,-3.12651 c 1.82055,-3.59264 1.69988,-3.53872 4.09779,-1.83127 4.16786,2.96777 10.06445,1.85743 10.06445,-1.89517 0,-2.19616 -1.4543,-3.3457 -6.02583,-4.76304 -6.51142,-2.01876 -8.38208,-4.27047 -8.36215,-10.06549 0.0263,-7.65329 6.38213,-12.0664 14.9879,-10.40669 2.1447,0.41362 6.35606,0.7064 9.35859,0.65065 l 5.45917,-0.10135 2.83223,4.54413 c 3.44413,5.5259 3.2329,5.51565 6.32728,0.30702 2.92574,-4.92477 2.84139,-4.8755 7.94386,-4.6411 l 3.90619,0.17935 -5.58802,8.69874 -5.58803,8.69869 -0.0274,8.24879 -0.0274,8.24878 h -3.59946 -3.59947 v -8.00628 -8.00625 l -5.05102,-7.94311 c -2.77801,-4.36872 -5.18951,-8.08169 -5.35883,-8.25102 -0.16938,-0.16937 -1.00733,1.07242 -1.8622,2.75942 l -1.55429,3.06727 -1.75577,-0.90793 c -2.49582,-1.29063 -5.76422,-1.1584 -7.21451,0.29191 -2.34644,2.34642 -1.04884,4.09026 4.45182,5.98275 5.15947,1.77513 7.29495,3.31303 8.38572,6.03912 4.17987,10.44652 -6.06145,19.02461 -18.01281,15.08744 z m 63.38353,-28.94212 c -1.18457,2.32193 -1.23849,2.35025 -2.86178,1.50347 -2.42221,-1.26352 -5.91724,-1.10698 -7.35361,0.32941 -2.34644,2.34642 -1.04882,4.09026 4.45182,5.98275 6.89953,2.37379 9.34614,5.0373 9.34614,10.17478 0,9.10842 -8.92704,14.26132 -18.97323,10.95178 v -7e-5 c -1.69155,-0.55725 -3.70072,-1.44076 -4.46483,-1.9633 l -1.38922,-0.95012 1.70302,-2.94932 c 0.93666,-1.6221 1.75745,-3.02074 1.82395,-3.10803 0.0664,-0.0873 1.36438,0.53623 2.88413,1.38564 3.7073,2.07204 7.26895,1.88378 9.02472,-0.47701 l 1.22694,-1.64977 -1.2249,-1.64975 c -0.84481,-1.13781 -2.66519,-2.15178 -5.86635,-3.26758 -6.62562,-2.30949 -8.15579,-4.11893 -8.12758,-9.61122 0.0456,-8.90253 9.06029,-13.59961 18.85238,-9.82302 2.09569,0.80826 2.80436,1.11649 2.80436,1.11649 m 0.46166,-1.36128 h 11.81335 11.64827 v 3.2709 3.27088 l -3.83797,0.0574 h -3.66091 v 13.79802 13.49799 l -3.89942,0.30292 c -2.14467,0.16665 -4.10187,0.21812 -4.34933,0.1145 -0.24748,-0.10362 -0.44996,-6.38147 -0.44996,-13.95089 v -13.76254 h -3.59944 -3.66459 v -3.43725 m 67.05703,31.07522 c -0.73944,-0.26374 -2.32522,-3.48072 -4.8567,-9.85228 -2.06729,-5.20335 -4.00286,-9.45554 -4.30122,-9.44931 -0.5164,0.0113 -0.87762,1.94843 -2.61171,14.01014 l -0.75469,5.24923 h -4.21223 -4.21222 l 0.29943,-1.64976 c 0.16461,-0.90736 1.47561,-8.60122 2.91319,-17.09745 l 2.61384,-15.44774 h 4.31759 4.31761 l 1.18072,3.14955 c 4.2962,11.46 5.74855,14.86643 6.26513,14.69424 0.32233,-0.10747 2.14324,-4.09876 4.04646,-8.86958 l 3.46038,-8.9485 h 4.44649 4.42305 l 2.25293,14.79915 c 1.24469,8.17622 2.39472,15.88327 2.59665,17.12058 l 0.36707,2.24967 h -4.27785 c -2.35283,0 -4.27886,-0.20248 -4.28008,-0.44994 -0.007,-1.50744 -2.46913,-19.01887 -2.70703,-19.25678 -0.4296,-0.42958 -0.3662,-0.5617 -4.75875,9.92064 -4.12931,9.8541 -4.57489,10.525 -6.52806,9.8283 z m -256.34749,-2.29187 c -0.94316,-2.30049 -8.5938,-20.60677 -11.65834,-27.89587 l -1.70251,-4.04941 4.6226,0.007 4.62257,0.007 4.14622,10.49129 c 2.28044,5.77019 4.30849,10.49123 4.50685,10.49123 0.19839,0 2.24695,-4.72415 4.55246,-10.4981 l 4.19189,-10.49816 7.9488,-3.1e-4 7.94882,-3.2e-4 v 17.09748 17.09747 h -4.19937 -4.19937 v -14.51785 c 0,-8.31961 -0.22379,-14.27452 -0.5244,-13.94792 -0.28843,0.31344 -3.18118,6.84646 -6.42836,14.51782 l -5.90396,13.94795 h -3.50079 c -3.48142,0 -3.50586,-0.0113 -4.42311,-2.24967 z m 32.71883,-13.04807 c -0.0329,-8.41375 -0.0859,-16.04013 -0.11745,-16.9475 l -0.0576,-1.64976 h 8.7617 8.76172 l 3.48668,2.39966 c 10.95011,7.53619 9.66358,24.41796 -2.30229,30.21055 -2.3011,1.11394 -3.70576,1.28479 -10.56341,1.28479 h -7.90939 z m 12.84241,8.0577 c 10.68267,-2.7224 9.22491,-18.70713 -1.83403,-20.1107 l -3.14953,-0.39974 v 10.57571 c 0,11.95156 -0.33217,11.2894 4.98356,9.93473 z m 16.73537,-9.85743 0.0429,-17.09748 h 9.5161 9.5161 v 3.27616 3.27617 l -5.24921,0.17322 -5.24923,0.17323 -0.18139,3.14955 -0.18139,3.14953 h 5.1306 5.13058 v 3.5752 3.57521 l -4.94926,0.17413 -4.94926,0.17436 v 3.29951 3.29952 l 5.24921,0.17323 5.24924,0.17345 v 3.27616 3.27616 h -9.55891 -9.55889 z m 152.85513,0 V 109.8779 h 9.29862 9.29863 v 3.27616 3.27617 l -5.48309,0.009 h -5.09401 v 3.58012 3.07439 l 4.84646,-0.0184 h 5.13058 l -10e-6,3.85583 v 3.50755 l -4.94925,-0.0388 -5.02778,0.0388 v 3.43503 3.51381 l 5.32773,-0.0411 5.22963,0.0411 0.0196,3.40855 v 3.27616 h -9.29864 -9.29861 z"
       style="display:inline;fill:#ffffff;stroke-width:2.26738;fill-opacity:1"
       id="path1-8"
       sodipodi:nodetypes="ssssssssscscssssssscsscccccccccccsscsssscccssssssccscsscsscscccccccccccsscccccscsccccscccssscccsscscsscccsccccsscccccccscscscccccccsssccsscsscccccccccccccccccccccccccccccccccccccccccccccccccc" /></g></svg>
