<?xml version="1.0" encoding="UTF-8" standalone="no"?>
<svg
   width="379.99911"
   height="153.25999"
   viewBox="0 0 284.99933 114.945"
   version="1.1"
   id="svg35"
   xmlns="http://www.w3.org/2000/svg"
   xmlns:svg="http://www.w3.org/2000/svg">
  <defs
     id="defs35" />
  <path
     fill="#ffffff"
     stroke="#ffffff"
     stroke-width="0.0495137"
     opacity="1"
     d="m 95.10608,0.91626844 c 2.640722,-1.3203652 5.70398,-0.9506629 8.45033,-0.3168877 -0.0528,1.53162356 -0.0528,3.06324706 -0.0528,4.64768516 -1.90132,-0.422517 -3.855468,-0.739404 -5.756798,-0.158444 -0.21125,0.264074 -0.58095,0.792219 -0.79221,1.056293 0,0.211257 -0.05281,0.739404 -0.05281,1.003476 2.21821,1.531624 5.175828,1.531624 7.182778,3.3801361 1.7957,2.006955 1.95414,5.123016 0.63378,7.446858 -1.10911,1.795697 -3.22169,3.010433 -5.387088,3.063248 -2.376655,0.158444 -4.753313,0.05281 -7.12997,-0.316888 0,-1.584438 0,-3.22169 0,-4.806129 2.165399,0.475332 4.383613,0.739404 6.60182,0.369702 0.79222,-0.264073 1.848518,-0.897848 1.637258,-1.901325 C 98.380592,12.588296 95.264539,12.693926 93.257584,10.7926 90.616853,7.9406109 91.673146,2.7119649 95.106095,0.91626844 Z"
     id="path1" />
  <path
     fill="#ffffff"
     stroke="#ffffff"
     stroke-width="0.0495137"
     opacity="1"
     d="m 40.707038,0.59938074 c 1.742882,0 3.485763,0.052815 5.28146,0 0,6.70745516 -0.05282,13.36209526 0,20.06954926 -1.742882,0 -3.485764,0 -5.28146,0 0,-6.654639 0,-13.3620941 0,-20.06954926 z"
     id="path2" />
  <path
     fill="#ffffff"
     stroke="#ffffff"
     stroke-width="0.0495137"
     opacity="1"
     d="m 63.681391,0.65219544 c 1.795696,-0.052815 3.591392,-0.052815 5.387089,0 0.05282,6.65464046 0,13.30928056 0.05282,19.96392056 -1.848512,0.05281 -3.644208,0.05281 -5.492719,0 0.05281,-6.65464 0,-13.3092801 0.05281,-19.96392056 z"
     id="path3" />
  <path
     fill="#ffffff"
     stroke="#ffffff"
     stroke-width="0.0495137"
     opacity="1"
     d="m 73.452092,0.59938074 c 3.168877,0.052815 6.337753,0 9.506629,0.052815 2.271028,0 4.594871,1.10910656 5.651163,3.16887626 1.320365,2.5350999 1.478809,5.7039769 0.211259,8.291893 -0.845034,1.742882 -2.535101,2.957617 -4.277983,3.697022 -1.848512,0.845033 -3.961096,0.316888 -5.915237,0.580961 -0.845033,1.161921 -0.158443,2.904803 -0.369702,4.277982 -1.584437,0 -3.168876,0 -4.806129,0 0,-6.707454 0,-13.3620941 0,-20.06954896 m 4.858944,4.06672386 c -0.05281,2.323843 -0.158444,4.594871 0,6.9187131 0.10563,0.10563 0.316887,0.369703 0.422517,0.475332 1.478809,0.211259 3.168876,0.158444 4.330797,-0.897848 1.320366,-1.6372531 1.47881,-4.4364271 -0.264072,-5.8096061 -1.320365,-1.003478 -3.010433,-0.580961 -4.489242,-0.686591 z"
     id="path4" />
  <path
     fill="#ffffff"
     stroke="#ffffff"
     stroke-width="0.0495137"
     opacity="1"
     d="m 1.0432689,0.81063914 c 3.0104325,0 6.020865,0 9.0312981,0 1.37318,0 2.851988,0.1056293 4.013909,0.89784836 2.74636,1.6900673 3.591394,5.3870904 3.063247,8.3975225 -0.58096,3.432949 -3.697022,6.07368 -7.129971,6.284938 -1.3203653,0.158444 -2.7463603,0.05281 -4.0667249,0.158444 -0.2112584,1.37318 -0.1056291,2.746359 -0.1584438,4.119538 -1.5844381,0 -3.1688763,0 -4.80612901,0 0.052815,-6.601825 0,-13.2036501 0.052815,-19.85829086 M 5.9550275,4.8245489 c -0.264073,2.429472 -0.1056291,4.911758 -0.052815,7.3940451 1.1619213,-0.05281 2.3766572,0.10563 3.5385782,-0.211259 C 12.239966,11.162302 12.504038,6.7258749 10.074567,5.2470659 8.8070157,4.5076619 7.3282067,4.6132899 5.9550275,4.8245489 Z"
     id="path5" />
  <path
     fill="#ffffff"
     stroke="#ffffff"
     stroke-width="0.0495137"
     opacity="1"
     d="m 19.792454,0.91626844 c 1.742882,-0.1056293 3.432949,-0.1056293 5.175831,-0.1056293 0,2.58791566 0,5.17583076 0,7.71093176 2.05977,0 4.172354,0 6.232124,0 0,-2.587915 0,-5.1230161 0,-7.71093176 1.742882,0 3.432949,0 5.175831,0.052815 0,6.60182576 -0.05281,13.15083686 0,19.75266186 -1.742882,0.05281 -3.432949,0.05281 -5.175831,0.05281 0,-2.693545 0,-5.387089 0,-8.133448 -2.05977,0 -4.172354,0 -6.232124,0 0,2.693545 0,5.439903 0,8.133448 -1.742882,0 -3.432949,0 -5.175831,-0.05281 0,-6.549011 0,-13.1508361 0,-19.69984756 z"
     id="path6" />
  <path
     fill="#ffffff"
     stroke="#ffffff"
     stroke-width="0.0495137"
     opacity="1"
     d="m 50.108037,0.81063914 c 1.690067,-0.052815 3.380134,-0.052815 5.070202,0 0.05281,5.17583076 0,10.40447686 0.05281,15.63312286 1.848512,-0.05281 3.644209,0 5.49272,-0.05281 0,1.425994 0,2.851989 0,4.277982 -3.538579,0 -7.077157,0 -10.668551,0 0,-6.601825 0,-13.2564651 0.05282,-19.85829086 z"
     id="path7" />
  <path
     fill="#ffffff"
     stroke="#ffffff"
     stroke-width="0.0495137"
     opacity="1"
     d="m 193.9222,40.104705 c 1.26756,-2.746359 2.74637,-5.387089 4.06673,-8.080634 4.22516,7.605302 7.975,15.421864 12.04172,23.132796 1.21474,2.429473 2.4823,4.858944 3.69703,7.341231 1.1091,1.95414 2.21821,3.90828 3.01043,6.020865 -2.69354,0.05281 -5.4399,0 -8.13344,0 -0.89785,-1.954141 -2.00696,-3.802652 -2.79918,-5.862422 -3.53858,-0.158443 -7.07716,0.05282 -10.56292,-0.105629 1.10911,-2.482286 2.37665,-4.964572 3.74984,-7.34123 0.89785,0.05282 1.84851,0.105629 2.79917,0.105629 -0.68658,-1.690067 -1.53162,-3.32732 -2.42947,-4.911758 -1.84852,-3.43295 -3.53858,-6.918714 -5.43991,-10.298848 z"
     id="path8" />
  <path
     fill="#ffffff"
     stroke="#ffffff"
     stroke-width="0.0495137"
     opacity="1"
     d="m 125.15759,35.826722 c 5.49272,-3.802651 13.15083,-4.330798 19.06607,-1.109106 4.43643,2.271027 7.55249,6.496196 9.13693,11.196696 0.15845,0.950663 0.26407,1.95414 0.42251,2.957618 -2.42947,0 -4.80612,-0.05281 -7.18278,0 -0.95067,-2.904803 -2.5351,-5.862421 -5.28147,-7.394045 -2.53509,-1.690067 -5.8096,-1.848512 -8.71441,-1.267551 -4.11953,1.003478 -6.97152,4.7005 -8.02781,8.661596 -2.42947,0 -4.91176,-0.05281 -7.34123,0 0.63378,-5.175832 3.53858,-10.08759 7.92219,-13.045208 z"
     id="path9" />
  <path
     fill="#ffffff"
     stroke="#ffffff"
     stroke-width="0.0495137"
     opacity="1"
     d="m 215.57619,44.435503 c 2.32385,-6.337753 8.39752,-11.091067 15.1578,-11.777658 0.0528,2.429473 0.0528,4.858944 0,7.341231 -1.10911,0.369703 -2.32385,0.739405 -3.43296,1.267551 -2.85199,1.690067 -4.70049,4.647685 -5.54553,7.763747 -0.10563,3.010432 0.31689,6.126493 2.11258,8.555966 1.53163,2.429471 4.22517,3.697021 6.86591,4.48924 0.0528,2.482287 0.0528,4.964574 0,7.499675 -1.90133,-0.475332 -3.80265,-0.845034 -5.49272,-1.742882 -5.59836,-2.482287 -9.87634,-7.869377 -10.72137,-13.943056 -0.26408,-3.168876 -0.26408,-6.496197 1.05629,-9.453814 z"
     id="path10" />
  <path
     fill="#ffffff"
     stroke="#ffffff"
     stroke-width="0.0495137"
     opacity="1"
     d="m 235.17041,32.657845 c 1.58444,0.264074 3.16888,0.475332 4.64769,1.056293 3.06324,1.214736 5.59834,3.380135 7.81656,5.809607 -1.90133,1.584438 -3.85547,3.063247 -5.7568,4.647685 -0.95066,-0.897848 -1.8485,-1.848512 -2.9048,-2.64073 -1.16192,-0.739405 -2.5351,-1.161921 -3.80265,-1.637253 -0.0528,-2.429472 -0.0528,-4.858944 0,-7.235602 z"
     id="path11" />
  <path
     fill="#ffffff"
     stroke="#ffffff"
     stroke-width="0.0495137"
     opacity="1"
     d="m 0.03979139,33.50288 c 2.42947181,-0.05282 4.91175831,-0.158444 7.39404531,0 0.58096,0 1.003476,0.528145 1.26755,1.003477 0.845034,1.531624 1.5844383,3.063247 2.3238433,4.594871 4.013909,7.552488 7.816561,15.210605 11.830471,22.763094 -1.214736,2.74636 -2.535101,5.492719 -4.119539,8.02782 C 15.356027,63.44876 12.081522,56.899749 8.7013867,50.456367 5.7437687,44.805205 2.8917801,39.154042 0.03979139,33.50288 Z"
     id="path12" />
  <path
     fill="#ffffff"
     stroke="#ffffff"
     stroke-width="0.0495137"
     opacity="1"
     d="m 28.92938,33.978211 c 1.161921,-0.739405 2.535101,-0.475331 3.855466,-0.528146 3.591394,0.05282 7.235601,-0.158444 10.826994,0.05282 0.264074,0.792219 0.158445,1.584438 0.211259,2.376657 -0.05281,10.879809 0,21.759617 -0.05281,32.639426 -2.376658,0.05281 -4.806129,0.05281 -7.182787,0 -0.105629,-10.826994 0.105629,-21.601173 -0.105629,-32.428167 -3.010432,4.700499 -5.175831,9.876331 -7.816561,14.788088 -1.161922,2.059771 -2.165399,4.172355 -3.274506,6.284939 -1.37318,-2.693545 -2.693544,-5.38709 -4.119539,-8.027821 1.056292,-1.95414 2.059769,-3.961094 3.063247,-5.96805 1.478809,-3.063247 3.380135,-5.96805 4.59487,-9.189741 z"
     id="path13" />
  <path
     fill="#ffffff"
     stroke="#ffffff"
     stroke-width="0.0495137"
     opacity="1"
     d="m 50.319296,33.450065 c 2.376657,0 4.806129,0 7.182786,0 0.05281,11.724843 0,23.39687 0.05281,35.121712 -2.429471,-0.05281 -4.858943,-0.05281 -7.288415,0 0.05282,-11.724842 0,-23.396869 0.05282,-35.121712 z"
     id="path14" />
  <path
     fill="#ffffff"
     stroke="#ffffff"
     stroke-width="0.0495137"
     opacity="1"
     d="m 61.938509,33.555694 c 3.063247,-0.316888 6.126494,0.105629 9.136926,0.633776 4.277983,1.373179 7.605303,4.59487 10.087589,8.239078 1.637254,3.32732 2.535101,7.182786 1.901326,10.879809 -0.792218,6.760269 -5.86242,13.045207 -12.569876,14.57683 -2.799174,0.68659 -5.703977,0.739404 -8.555965,0.633776 -0.05281,-2.376658 -0.05281,-4.806129 0,-7.182787 3.22169,0.05281 6.654639,0.05281 9.453814,-1.690067 1.690067,-1.161921 2.957618,-2.799174 3.802651,-4.59487 2.05977,-4.7005 -0.105629,-10.668551 -4.59487,-13.098023 -2.693545,-1.320365 -5.756792,-1.214735 -8.661595,-1.161921 -0.05281,-2.429472 -0.05281,-4.806129 0,-7.235601 z"
     id="path15" />
  <path
     fill="#ffffff"
     stroke="#ffffff"
     stroke-width="0.0495137"
     opacity="1"
     d="m 99.542512,33.50288 c 4.436418,-0.05282 8.925658,-0.105629 13.362088,0 0.10563,0.105629 0.31689,0.316887 0.42252,0.422517 0.15844,2.271027 0.10563,4.542055 -0.0528,6.865898 -4.54205,0 -9.08411,0 -13.626168,0 -0.15844,-2.429472 -0.15844,-4.858943 -0.10562,-7.288415 z"
     id="path16" />
  <path
     fill="#ffffff"
     stroke="#ffffff"
     stroke-width="0.0495137"
     opacity="1"
     d="m 157.48013,33.50288 c 2.5351,-0.105629 5.01738,-0.05282 7.49967,0 0,11.672028 -0.0528,23.344055 0,35.068897 -2.48229,0 -4.96457,0 -7.49967,0 0.0528,-11.672028 0,-23.344056 0,-35.068897 z"
     id="path17" />
  <path
     fill="#ffffff"
     stroke="#ffffff"
     stroke-width="0.0495137"
     opacity="1"
     d="m 169.41623,33.555694 c 2.48228,-0.264073 4.96457,-0.05281 7.39404,0.422517 3.59139,1.056292 6.07368,4.277984 7.18278,7.710933 0.89785,4.911757 -1.69006,10.404477 -6.44337,12.252987 -2.58791,0.792219 -5.3871,0.792219 -8.08064,0.792219 -0.0528,-2.482286 -0.15844,-4.911757 0.15845,-7.394043 2.05976,0 4.38361,0.264072 6.23212,-0.897849 1.32036,-1.056292 0.89785,-2.851989 0.63377,-4.277983 -0.47533,-0.369703 -1.00348,-0.739405 -1.53161,-1.161922 -1.79571,-0.211258 -3.69704,-0.264072 -5.54554,-0.475331 0.0528,-2.323842 0,-4.647685 0,-6.971528 z"
     id="path18" />
  <path
     fill="#ffffff"
     stroke="#ffffff"
     stroke-width="0.0495137"
     opacity="1"
     d="m 87.76485,33.450065 c 2.429472,0.05282 4.858944,-0.05281 7.235601,0.05282 0.05281,11.672028 0.05281,23.344055 0,35.068897 -2.429472,-0.05281 -4.806129,-0.05281 -7.235601,0 0.05281,-11.724842 0,-23.449684 0,-35.121712 z"
     id="path19" />
  <path
     fill="#ffffff"
     stroke="#ffffff"
     stroke-width="0.0495137"
     opacity="1"
     d="m 266.75354,35.192947 c 2.48229,0 4.91176,0 7.39405,0 0,3.644207 0,7.235601 0,10.879808 3.59139,-0.05282 7.2356,0 10.82699,-0.05282 0,2.535101 0,5.017387 0,7.552488 -3.59139,0 -7.2356,0 -10.82699,0 0,3.591394 0,7.129972 0,10.721365 -2.48229,-0.05281 -4.91176,-0.05281 -7.39405,0 0,-3.591393 0,-7.129971 0,-10.721365 -3.59139,0 -7.2356,0 -10.82699,0 0,-2.535101 0,-5.017387 0,-7.552488 3.59139,0.05282 7.2356,0 10.82699,0.05282 0,-3.644207 0,-7.235601 0,-10.879808 z"
     id="path20" />
  <path
     fill="#ffffff"
     stroke="#ffffff"
     stroke-width="0.0495137"
     opacity="1"
     d="m 191.49273,44.805205 c 1.32036,2.64073 2.9048,5.175831 3.90828,7.975005 -0.63377,1.901327 -1.7957,3.485764 -2.58792,5.281461 -1.4788,2.799174 -2.9048,5.598348 -4.27798,8.450336 -0.3697,0.633776 -0.7394,1.320366 -1.16191,1.901327 -2.69355,0.316887 -5.43991,0.05281 -8.13345,0.105629 4.06672,-7.922191 8.13345,-15.844382 12.25298,-23.713758 z"
     id="path21" />
  <path
     fill="#ffffff"
     stroke="#ffffff"
     stroke-width="0.0495137"
     opacity="1"
     d="m 99.542512,47.39312 c 4.594868,-0.105628 9.189738,-0.05281 13.784608,0 0.10563,2.429473 0,4.858944 0.10563,7.34123 -4.64769,-0.05281 -9.24256,-0.05281 -13.890238,0 0,-2.429471 0,-4.858943 0,-7.34123 z"
     id="path22" />
  <path
     fill="#ffffff"
     stroke="#ffffff"
     stroke-width="0.0495137"
     opacity="1"
     d="m 117.18258,53.413986 c 2.5351,0 5.01739,0 7.55249,0 0.63378,2.746359 2.27103,5.123017 4.43643,6.865899 1.16192,0.475331 2.27103,1.003476 3.43294,1.531623 3.53859,0.739404 7.60531,0.158444 10.29886,-2.482286 1.84851,-1.425995 2.69354,-3.749837 3.69702,-5.862422 2.37666,-0.211258 4.75331,-0.05281 7.12997,-0.05281 -0.21125,4.964572 -3.38014,9.348185 -7.12997,12.411432 -4.11954,3.063247 -9.55945,4.330798 -14.57684,3.274505 -7.6053,-1.425994 -13.83742,-8.027819 -14.8409,-15.685937 z"
     id="path23" />
  <path
     fill="#ffffff"
     stroke="#ffffff"
     stroke-width="0.0495137"
     opacity="1"
     d="m 240.29342,59.698924 c 0.52815,-0.580961 1.0563,-1.161921 1.58444,-1.742882 1.95415,1.425994 3.85547,2.957617 5.7568,4.489241 -1.0563,1.161921 -2.1654,2.271028 -3.32732,3.274505 -1.426,1.214736 -3.11607,1.901327 -4.7005,2.74636 -1.47881,0.422517 -2.95762,0.792219 -4.43643,1.109107 0,-2.482287 -0.15844,-4.964573 0.0528,-7.394045 1.74287,-0.739404 3.53858,-1.425994 5.07019,-2.482286 z"
     id="path24" />
  <path
     fill="#ffffff"
     stroke="#ffffff"
     stroke-width="0.0495137"
     opacity="1"
     d="m 99.489692,61.388991 c 4.594868,-0.05281 9.242558,-0.158444 13.784608,0.05281 0.21126,2.323843 0.10563,4.753314 0,7.077157 -4.54205,0 -9.13692,0.05281 -13.731788,0 -0.0528,-2.376658 0,-4.753314 -0.0528,-7.129972 z"
     id="path25" />
  <path
     fill="#ffffff"
     stroke="#ffffff"
     stroke-width="0.0495137"
     opacity="1"
     d="m 115.17562,80.190991 c 4.54206,-2.482288 10.14041,-2.85199 15.05217,-1.214737 2.64073,1.003478 4.96458,2.74636 7.02434,4.647686 -1.74288,1.584438 -3.48576,3.168876 -5.17583,4.806129 -0.10563,0 -0.3697,-0.05281 -0.47533,-0.05281 -1.42599,-1.109107 -2.95762,-2.006955 -4.59487,-2.587915 -4.27798,-1.267551 -9.18974,0.369702 -11.88329,3.90828 -2.21821,2.640731 -2.64073,6.337763 -2.00695,9.559453 0.68659,2.587913 2.42947,4.858943 4.54206,6.443383 4.22516,2.74636 10.19321,2.42947 13.89024,-1.05629 3.01043,-0.0528 6.02086,0 9.0841,-0.0528 -0.89784,1.26756 -1.74287,2.5351 -2.58791,3.80265 -2.27102,2.32384 -4.85894,4.278 -7.86937,5.43991 -2.64073,0.73942 -5.33428,1.37318 -8.08064,0.95065 -5.80961,-0.73939 -11.35514,-4.17234 -14.20713,-9.29535 -3.06324,-5.33428 -3.01043,-12.094554 -0.42252,-17.640087 1.95415,-3.063247 4.38362,-5.96805 7.71093,-7.658117 z"
     id="path26" />
  <path
     fill="#ffffff"
     stroke="#ffffff"
     stroke-width="0.0495137"
     opacity="1"
     d="m 216.57967,79.715659 c 4.43643,-2.165399 9.66508,-2.218213 14.25995,-0.580961 6.23211,2.429472 11.14387,8.397523 11.67202,15.157789 -2.42948,0 -4.80613,0 -7.18278,0 -0.3697,-0.897846 -0.68659,-1.795694 -1.0563,-2.693542 -1.10911,-2.006955 -2.48229,-4.01391 -4.7005,-4.964573 -2.32385,-1.478809 -5.17583,-1.584438 -7.81656,-1.109107 -4.22516,0.950663 -7.44686,4.647686 -8.39752,8.767222 -2.48229,0 -4.91176,0 -7.39405,-0.0528 0.21126,-1.901327 0.84504,-3.802653 1.53163,-5.59835 2.00696,-3.802651 5.0702,-7.235601 9.08411,-8.925668 z"
     id="path27" />
  <path
     fill="#ffffff"
     stroke="#ffffff"
     stroke-width="0.0495137"
     opacity="1"
     d="m 254.81744,80.455063 c 4.38361,-2.799174 9.92915,-3.010432 14.7881,-1.637252 4.54205,1.584438 8.3447,4.858944 10.72136,9.031297 0.84503,2.059769 1.69007,4.172353 1.74288,6.443379 -2.37666,0 -4.75331,-0.0528 -7.18279,0.0528 -0.63377,-1.848514 -1.37317,-3.749839 -2.69354,-5.281463 -3.16888,-3.591394 -8.71441,-4.806129 -13.09802,-2.74636 -3.22169,1.425995 -5.28147,4.647686 -6.17931,7.975003 -2.42948,0 -4.85894,0 -7.28842,0 0.58096,-5.756789 4.17235,-11.038249 9.18974,-13.837424 z"
     id="path28" />
  <path
     fill="#ffffff"
     stroke="#ffffff"
     stroke-width="0.0495137"
     opacity="1"
     d="m 147.33972,78.870625 c 8.39752,0 16.79505,0 25.19257,0 -1.16193,2.323842 -1.90132,4.80613 -2.74636,7.235601 -7.49968,0.158444 -14.94654,0.05281 -22.39339,0.10563 -0.15845,-2.429473 -0.15845,-4.911759 -0.0528,-7.341231 z"
     id="path29" />
  <path
     fill="#ffffff"
     stroke="#ffffff"
     stroke-width="0.0495137"
     opacity="1"
     d="m 188.1126,86.84563 c 2.5351,-2.429471 4.91175,-4.964572 7.44686,-7.34123 0.0528,5.545534 0,11.091068 0.0528,16.689417 2.00695,-0.0528 4.06673,0 6.12649,0 -0.0528,2.37665 0,4.806133 0,7.235603 -2.05976,-0.0528 -4.11954,0 -6.12649,-0.0528 0,3.69702 -0.0528,7.44686 0,11.14389 -2.48229,0 -4.96457,0 -7.49967,0 0,-9.24256 0.0528,-18.485113 0,-27.67486 z"
     id="path30" />
  <path
     fill="#ffffff"
     stroke="#ffffff"
     stroke-width="0.0495137"
     opacity="1"
     d="m 160.2793,90.437024 c 2.58791,0.05281 5.12302,0 7.65812,0.05281 -0.47534,1.795697 -1.10911,3.591393 -1.74288,5.334283 -0.58096,1.37318 -1.05629,2.79917 -1.58444,4.225173 -1.21474,3.43294 -2.37666,6.86589 -3.64421,10.24602 -0.47533,1.21474 -0.89785,2.42948 -1.16192,3.69703 -2.69354,-0.0528 -5.43991,0 -8.13345,-0.0528 1.90132,-4.06672 3.01043,-8.39752 4.7005,-12.56988 0.63378,-1.690073 1.21474,-3.432953 1.79569,-5.175833 0.63378,-1.90133 1.426,-3.802657 2.11259,-5.756797 z"
     id="path31" />
  <path
     fill="#ffffff"
     stroke="#ffffff"
     stroke-width="0.0495137"
     opacity="1"
     d="m 124.20692,93.024939 c 5.96806,-0.05281 11.8833,-0.05281 17.79853,0 0.63377,2.376658 0.42251,4.858938 0,7.288421 -5.96805,-0.10563 -11.88329,-0.10563 -17.79853,-0.0528 0.0528,-2.429473 0.0528,-4.858943 0,-7.235601 z"
     id="path32" />
  <path
     fill="#ffffff"
     stroke="#ffffff"
     stroke-width="0.0495137"
     opacity="1"
     d="m 171.00066,103.42942 c 2.48229,-2.37665 4.85895,-4.964583 7.44687,-7.182783 1.79569,-0.15845 3.53857,-0.0528 5.33427,-0.10563 -0.0528,2.42946 -0.0528,4.858943 0,7.288413 -4.27799,-0.0528 -8.55597,-0.0528 -12.78114,0 z"
     id="path33" />
  <path
     fill="#ffffff"
     stroke="#ffffff"
     stroke-width="0.0495137"
     opacity="1"
     d="m 205.96393,98.834547 c 2.53511,-0.0528 5.01739,-0.0528 7.5525,0 0.21125,0.89785 0.47533,1.795703 0.73939,2.640733 1.16193,1.79569 2.53511,3.48577 4.43643,4.59486 4.06672,2.42948 9.82352,1.90133 13.20365,-1.53161 1.63726,-1.53163 2.64074,-3.64421 3.32733,-5.703983 2.42947,0 4.85893,-0.0528 7.2356,0 -0.47534,6.390573 -5.07021,11.883283 -10.77419,14.524023 -3.2745,1.32036 -6.81308,1.79569 -10.29884,1.32036 -7.86937,-1.21473 -14.4712,-7.92219 -15.42187,-15.844383 z"
     id="path34" />
  <path
     fill="#ffffff"
     stroke="#ffffff"
     stroke-width="0.0495137"
     opacity="1"
     d="m 245.57489,98.834547 c 2.48229,-0.0528 4.91175,0 7.39405,0 0.63376,2.376663 2.05976,4.489243 3.80265,6.284943 1.53161,0.95065 3.11606,1.84851 4.91175,2.21821 1.74288,0.26407 3.48577,0.10563 5.17583,-0.0528 1.10911,-0.52814 2.27103,-0.84503 3.27451,-1.53161 2.32384,-1.69007 3.85547,-4.22517 4.70049,-6.918723 2.42948,0 4.91176,0 7.34124,0 -0.31689,3.591393 -2.11259,6.813093 -4.17235,9.717893 -1.63726,1.26755 -3.06326,2.85198 -4.85895,3.85546 -2.79918,1.426 -5.86242,2.48228 -9.0313,2.48228 -2.27103,0.10563 -4.43642,-0.58095 -6.60183,-1.1091 -6.23211,-2.42947 -11.09106,-8.29189 -11.93609,-14.946533 z"
     id="path35" />
</svg>
