<?xml version="1.0" encoding="UTF-8" standalone="no"?>
<svg
   viewBox="2.0953 2.839 379.99933 240.39301"
   width="379.99933"
   height="240.39301"
   version="1.1"
   id="svg1"
   xmlns="http://www.w3.org/2000/svg"
   xmlns:svg="http://www.w3.org/2000/svg">
  <defs
     id="defs1" />
  <path
     id="path92"
     style="fill:#ffffff;fill-opacity:1;stroke-width:0.389841"
     d="m 295.20882,18.280602 c -1.81237,-0.002 -3.63955,0.06237 -5.47921,0.194919 -31.1639,2.245484 -57.43957,23.881659 -57.68517,56.686777 -0.0129,1.650197 0.13411,3.329242 0.44092,5.036745 0.0261,0.137614 0.11071,0.208176 0.25339,0.210905 19.287,0.02339 38.57477,0.01871 57.8641,-0.01209 6.23473,-0.01053 10.84382,-0.04288 13.82727,-0.09746 0.31187,-0.0078 0.32356,-0.06978 0.0351,-0.186733 -0.40543,-0.163734 -0.90794,-0.291212 -1.5083,-0.382045 -3.74519,-0.559032 -7.17969,-0.883769 -10.30349,-0.974602 -7.37189,-0.218311 -15.6603,-5.231666 -12.14004,-13.882237 3.34874,-8.225645 14.91532,-9.126178 22.02213,-6.459666 7.00153,2.627528 10.93114,9.153077 12.19031,16.322252 0.0273,0.152818 0.18518,0.243262 0.32747,0.187124 13.54815,-5.322499 27.18907,-10.400957 40.922,-15.234985 0.06,-0.02183 0.0901,-0.08888 0.0663,-0.14853 -9.87895,-26.211737 -33.64834,-41.229972 -60.83273,-41.260378 z m -61.71377,67.092021 c -0.16296,0 -0.28342,0.153988 -0.246,0.315382 l 1.14224,4.658989 c 0.0335,0.137614 0.12085,0.206226 0.26119,0.206226 h 96.15038 c 0.24949,0 0.27951,-0.08226 0.0901,-0.24599 -0.41713,-0.362552 -1.19682,-0.669746 -1.59056,-0.895854 -2.27277,-1.309866 -6.32712,-3.933496 -8.90007,-3.937394 -28.99909,-0.05731 -57.96818,-0.09083 -86.90724,-0.101359 z" />
  <path
     id="path94"
     style="fill:#ffffff;fill-opacity:1;stroke-width:0.389841"
     d="m 26.060656,20.771685 c -0.221819,7.8e-4 -0.383214,0.210514 -0.327466,0.424926 l 15.554265,58.990737 c 0.03898,0.149309 0.173479,0.253397 0.327467,0.253787 l 44.628994,-0.07836 c 0.22143,0.0012 0.384774,-0.206227 0.331366,-0.421028 L 72.143368,21.02898 c -0.03742,-0.150479 -0.172309,-0.256515 -0.327466,-0.257295 z M 43.08891,85.387827 c -0.188294,-0.0016 -0.326296,0.176988 -0.277176,0.358654 l 1.212794,4.596614 c 0.03353,0.12319 0.145021,0.209345 0.272889,0.210125 h 44.469161 c 0.184005,0 0.319279,-0.17192 0.276396,-0.350856 l -1.095063,-4.595836 c -0.03041,-0.128258 -0.14502,-0.218701 -0.277176,-0.218701 z" />
  <path
     d="m 123.92244,20.771685 h 38.28239 c 0.14423,7.8e-4 0.24988,0.136834 0.2144,0.276787 l -14.73988,59.006331 c -0.0253,0.0998 -0.11579,0.16919 -0.21831,0.167631 h -37.93932 c -0.1462,0.0019 -0.25418,-0.135274 -0.21832,-0.276787 l 14.40073,-59.00633 c 0.0249,-0.09941 0.11539,-0.168802 0.21831,-0.167632 z"
     id="path96"
     style="fill:#ffffff;stroke-width:0.389841" />
  <path
     id="rect98"
     style="fill:#ffffff;fill-opacity:1;stroke-width:0.389841"
     d="m 173.21745,20.771685 c -0.25925,0 -0.46742,0.208565 -0.46742,0.467419 v 58.710831 c 0,0.259244 0.20817,0.46742 0.46742,0.46742 h 43.11679 c 0.25925,0 0.46781,-0.208176 0.46781,-0.46742 V 21.239104 c 0,-0.258854 -0.20856,-0.467419 -0.46781,-0.467419 z m -0.15984,64.616142 c -0.17075,0 -0.30758,0.137224 -0.30758,0.307585 v 4.554122 c 0,0.17075 0.13683,0.307584 0.30758,0.307584 h 43.43686 c 0.17036,0 0.30758,-0.136834 0.30758,-0.307584 v -4.554122 c 0,-0.170361 -0.13722,-0.307585 -0.30758,-0.307585 z" />
  <path
     d="m 144.81012,90.55322 h -37.74831 c -0.17153,0 -0.29783,-0.160615 -0.25729,-0.327466 l 1.14613,-4.635209 c 0.0285,-0.118902 0.13489,-0.202328 0.2573,-0.202718 h 37.79508 c 0.17348,-3.9e-4 0.30057,0.163344 0.25729,0.331365 l -1.1929,4.635209 c -0.0304,0.117342 -0.13645,0.199209 -0.2573,0.198819 z"
     id="path102"
     style="fill:#ffffff;stroke-width:0.389841" />
  <path
     d="m 90.380519,95.80048 1.165625,4.75216 c 0.04015,0.16881 -0.08772,0.33098 -0.261194,0.33137 H 47.034101 c -0.122411,7.8e-4 -0.229617,-0.0807 -0.261193,-0.19882 l -1.239695,-4.662501 c -0.04639,-0.17153 0.08343,-0.339941 0.261193,-0.339162 l 44.324919,-0.08966 c 0.12436,3.9e-4 0.232346,0.08576 0.261194,0.206616 z"
     id="path108"
     style="fill:#ffffff;fill-opacity:1;stroke-width:0.389841" />
  <path
     d="m 142.31514,100.88401 h -37.83797 c -0.138,0.002 -0.23975,-0.12748 -0.20661,-0.26119 l 1.17342,-4.841832 c 0.023,-0.09317 0.10643,-0.159056 0.20272,-0.159835 h 37.82627 c 0.13605,0.0012 0.23546,0.129037 0.20271,0.261194 l -1.15393,4.841833 c -0.0238,0.0947 -0.10915,0.161 -0.20661,0.15983 z"
     id="path110"
     style="fill:#ffffff;stroke-width:0.389841" />
  <path
     d="m 173.12038,95.621153 h 43.29573 a 0.37424733,0.37424733 0 0 1 0.37425,0.374247 v 4.51436 a 0.37424733,0.37424733 0 0 1 -0.37425,0.37425 h -43.29573 a 0.37424733,0.37424733 0 0 1 -0.37425,-0.37425 V 95.9954 a 0.37424733,0.37424733 0 0 1 0.37425,-0.374247 z"
     id="rect112"
     style="fill:#ffffff;stroke-width:0.389841" />
  <path
     d="m 338.40905,95.710816 c 1.90242,1.321561 3.77756,3.259071 5.36811,4.943184 0.0717,0.0764 0.0343,0.20233 -0.0682,0.2265 -0.0109,0.003 -0.0222,0.004 -0.0331,0.004 H 239.06977 c -0.11968,0 -0.20545,-0.053 -0.25729,-0.15983 l -2.30007,-4.709288 c -0.0901,-0.181665 0.0429,-0.394519 0.2456,-0.393739 h 101.36255 c 0.10643,0 0.20272,0.03002 0.28849,0.08966 z"
     id="path114"
     style="fill:#ffffff;stroke-width:0.389841" />
  <path
     d="m 48.511598,106.0494 h 44.180678 c 0.116953,3.9e-4 0.218311,0.0811 0.245599,0.19492 l 1.130539,4.6586 c 0.03782,0.16062 -0.08498,0.31382 -0.249497,0.31187 H 49.735698 c -0.115003,3.9e-4 -0.215581,-0.0764 -0.245599,-0.18712 l -1.224101,-4.6586 c -0.04405,-0.16139 0.07797,-0.32006 0.2456,-0.31967 z"
     id="path116"
     style="fill:#ffffff;stroke-width:0.389841" />
  <path
     d="m 139.74219,111.21479 h -37.84577 c -0.10876,3.9e-4 -0.18907,-0.10096 -0.16373,-0.20661 l 1.17342,-4.83013 c 0.0179,-0.0756 0.0858,-0.12904 0.16374,-0.12865 h 37.88084 c 0.10838,-3.9e-4 0.18868,0.10097 0.16373,0.20662 l -1.2085,4.83013 c -0.0183,0.0756 -0.0862,0.12903 -0.16373,0.12864 z"
     id="path118"
     style="fill:#ffffff;stroke-width:0.389841" />
  <path
     d="m 173.00732,106.0533 h 43.53744 a 0.25729504,0.25729504 0 0 1 0.25729,0.2573 v 4.6469 a 0.25729504,0.25729504 0 0 1 -0.25729,0.25729 h -43.53744 a 0.25729504,0.25729504 0 0 1 -0.25729,-0.25729 v -4.6469 a 0.25729504,0.25729504 0 0 1 0.25729,-0.2573 z"
     id="rect120"
     style="fill:#ffffff;stroke-width:0.389841" />
  <path
     d="m 246.6093,111.05886 c -1.43462,-1.37614 -2.9589,-3.11484 -4.07385,-4.77555 -0.0659,-0.0936 -0.003,-0.22299 0.11384,-0.23313 0.004,-3.9e-4 0.007,-7.8e-4 0.0109,-7.8e-4 h 105.6625 c 0.14268,0 0.25457,0.0612 0.33526,0.18323 l 3.02907,4.6391 c 0.0928,0.14347 -0.004,0.3341 -0.17504,0.34306 -0.004,0 -0.008,0 -0.0121,0 H 246.99523 c -0.14814,0 -0.27679,-0.0518 -0.38593,-0.15593 z"
     id="path122"
     style="fill:#ffffff;stroke-width:0.389841" />
  <path
     d="M 51.283368,116.28273 H 95.13658 c 0.14385,-3.9e-4 0.269769,0.0979 0.304075,0.2378 l 1.130539,4.63911 c 0.04795,0.19687 -0.101359,0.38672 -0.304077,0.38594 h -43.73236 c -0.140732,-3.9e-4 -0.263532,-0.0943 -0.300177,-0.23001 l -1.255289,-4.6391 c -0.05458,-0.1996 0.09707,-0.39569 0.304077,-0.39374 z"
     id="path124"
     style="fill:#ffffff;stroke-width:0.389841" />
  <path
     d="M 137.13025,121.54558 H 99.432627 c -0.135665,0.002 -0.236244,-0.12553 -0.202718,-0.2573 l 1.189021,-4.84962 c 0.0234,-0.0924 0.1072,-0.1571 0.20271,-0.15593 h 37.71712 c 0.13567,-0.002 0.23586,0.12592 0.20272,0.25729 l -1.21241,4.84962 c -0.0234,0.0912 -0.10487,0.15555 -0.19882,0.15594 z"
     id="path126"
     style="fill:#ffffff;stroke-width:0.389841" />
  <path
     d="m 172.90596,116.37629 h 43.74016 a 0.15203798,0.15203798 0 0 1 0.15204,0.15204 v 5.06013 a 0.15203798,0.15203798 0 0 1 -0.15204,0.15204 h -43.74016 a 0.15203798,0.15203798 0 0 1 -0.15204,-0.15204 v -5.06013 a 0.15203798,0.15203798 0 0 1 0.15204,-0.15204 z"
     id="rect128"
     style="fill:#ffffff;stroke-width:0.389841" />
  <path
     d="m 252.952,116.55951 c -0.0936,-0.0624 -0.0873,-0.11149 0.0195,-0.14814 0.0413,-0.0156 0.0869,-0.0413 0.13645,-0.078 0.044,-0.0335 0.0936,-0.0507 0.14814,-0.0507 h 101.06237 c 0.11501,-3.9e-4 0.21754,0.0713 0.2573,0.17932 l 1.80107,4.85352 c 0.0569,0.15087 0.004,0.22611 -0.15984,0.22611 -31.31982,0.008 -62.63731,0.008 -93.95167,0 -2.28447,0 -7.05612,-3.45009 -9.31331,-4.98217 z"
     id="path130"
     style="fill:#ffffff;stroke-width:0.389841" />
  <path
     d="m 311.35798,148.26528 c 1.58666,-10.70504 -27.49548,-19.30882 -34.35668,-21.30091 -0.5875,-0.1688 -0.5758,-0.2534 0.0351,-0.2534 h 80.4086 c 0.15321,0 0.24405,0.0768 0.27289,0.23001 1.41512,7.46935 1.18902,14.84514 -0.0234,22.26382 -11.07538,67.76215 -124.12537,66.29635 -128.12513,-4.22978 -0.01,-0.13878 0.0827,-0.26392 0.21831,-0.29628 l 40.90211,-10.20603 c 0.16763,-0.0413 0.32825,0.0885 0.32357,0.26119 -0.29238,17.69877 18.1315,24.57947 32.71155,20.21325 3.02907,-0.90833 7.1146,-3.1772 7.63309,-6.68187 z"
     id="path132"
     style="fill:#ffffff;stroke-width:0.389841" />
  <path
     d="m 53.918693,126.71097 h 81.812027 c 0.138,10e-4 0.23897,0.13099 0.20662,0.26509 l -17.30894,69.25526 c -0.0234,0.0955 -0.10838,0.16295 -0.20662,0.16373 H 72.252913 c -0.09746,-3.9e-4 -0.182055,-0.0659 -0.206615,-0.15984 L 53.712077,126.97996 c -0.03587,-0.13566 0.06627,-0.2686 0.206616,-0.26899 z"
     id="path134"
     style="fill:#ffffff;stroke-width:0.389841" />
  <path
     d="m 173.0541,126.71097 h 43.44388 a 0.30407596,0.30407596 0 0 1 0.30407,0.30408 v 69.07202 a 0.30407596,0.30407596 0 0 1 -0.30407,0.30408 H 173.0541 a 0.30407596,0.30407596 0 0 1 -0.30407,-0.30408 v -69.07202 a 0.30407596,0.30407596 0 0 1 0.30407,-0.30408 z"
     id="rect136"
     style="fill:#ffffff;stroke-width:0.389841" />
  <path
     d="m 382.01276,2.9364602 c -0.004,0.3313648 -0.11306,0.6003552 -0.11306,0.9161263 0,70.8317665 0,141.6631435 0,212.4945235 0,0.0624 0.0312,0.099 0.0936,0.10915 0.0257,0.003 0.0585,0.008 0.0975,0.0156 -0.13254,0.37814 -0.33136,0.55747 -0.75628,0.55747 -18.85037,-0.1115 -33.5731,-0.12865 -44.16899,-0.0507 -4.03875,0.0312 -6.60546,0.03 -7.69935,-0.004 l -31.08983,0.0663 h -12.37744 c -22.51215,-0.13488 -45.02546,-0.13488 -67.53995,0 h -9.06381 l -47.85297,-0.0663 -3.80096,0.0624 c -11.07928,-0.12982 -22.15739,-0.12865 -33.23394,0.004 -0.0312,0 -0.0639,0 -0.0975,0 l -56.916784,-0.0663 -37.814576,0.0663 -22.0260153,-0.0663 -2.0466651,0.0663 -3.0290645,0.004 c -0.124749,0 -0.1871236,-0.0608 -0.1871236,-0.18322 V 3.0144285 C 2.3895515,2.9177475 2.4679095,2.839 2.56498,2.839 c 126.46675,0 252.93273,0 379.39714,0 0.008,0 0.0117,0.00273 0.0117,0.0078 0.0129,0.036645 0.0257,0.066273 0.039,0.089664 z M 4.9390714,5.8602676 c -0.083426,0.080697 -0.124749,0.1793268 -0.124749,0.2962791 -0.00273,69.3398453 0.00507,138.6925533 0.02339,208.0581233 0,0.13528 0.066273,0.20272 0.198819,0.20272 l 373.6469886,-0.008 h 0.19492 c 0.10916,0.0573 0.20506,0.0834 0.28848,0.078 0.14268,-0.008 0.20272,-0.083 0.17933,-0.22611 -0.16763,-1.02527 0.0195,-2.1948 0.0195,-2.99007 0,-68.34926 0,-136.697742 0,-205.0446619 0,-0.080307 -0.0249,-0.1504787 -0.0741,-0.2105142 -0.0366,-0.046781 -0.0495,-0.09863 -0.039,-0.1559363 l 0.0117,-0.3937394 c 0.005,-0.1270881 -0.0561,-0.1910221 -0.18322,-0.1910221 H 5.2080618 c -0.1403428,0 -0.235464,0.066273 -0.2845839,0.1988189 -0.041713,0.1068164 -0.036645,0.235464 0.015594,0.3859426 z"
     id="path158"
     style="fill:#ffffff;stroke-width:0.389841"
     fill="#ffffff" />
  <path
     d="m 78.724274,225.90211 c 4.892504,6.15169 2.670411,17.52725 -6.907982,17.32063 -9.519917,-0.20661 -11.952525,-13.05187 -5.192682,-18.3615 3.35653,-2.63923 9.278215,-2.51448 12.100664,1.04087 z m -9.02092,1.26308 c -3.485179,1.76988 -3.528061,8.08921 -1.387834,10.80639 1.742589,2.20651 5.496757,2.44431 7.391385,0.0741 3.403311,-4.25316 0.838158,-14.35004 -6.003551,-10.88046 z"
     id="path160"
     style="fill:#ffffff;stroke-width:0.389841"
     fill="#ffffff" />
  <path
     d="m 140.95069,223.05237 c 12.86086,-0.71731 12.97001,21.18006 -0.46391,20.1041 -11.41065,-0.91613 -11.15725,-19.45696 0.46391,-20.1041 z m 1.52038,16.54485 c 6.08152,-1.13833 5.46557,-14.16292 -2.01158,-12.89594 -6.31152,1.07207 -5.85151,14.36955 2.01158,12.89594 z"
     id="path162"
     style="fill:#ffffff;stroke-width:0.389841"
     fill="#ffffff" />
  <path
     d="m 237.66634,242.0922 c -7.82801,-4.13231 -5.59032,-18.76304 4.35062,-19.05542 8.91567,-0.26119 12.13965,11.0325 7.07172,17.07503 -2.81075,3.35263 -7.66038,3.96468 -11.42234,1.98039 z m 3.52026,-2.48718 c 8.31531,1.77378 8.30752,-15.21939 -0.36644,-12.82967 -5.21998,1.43462 -5.04065,11.67964 0.36644,12.82967 z"
     id="path164"
     style="fill:#ffffff;stroke-width:0.389841"
     fill="#ffffff" />
  <path
     d="m 283.76504,229.81612 c 2.55735,2.02326 6.44407,1.10324 9.2938,2.93549 3.19671,2.05837 2.52228,7.07562 -0.4912,9.11448 -2.86532,1.94141 -8.46734,1.80107 -11.07538,-0.34305 -1.29192,-1.06037 -2.04939,-2.54956 -2.27277,-4.46758 -0.0187,-0.1653 0.10994,-0.31032 0.27679,-0.31188 h 3.25907 c 0.23468,3.9e-4 0.43779,0.16413 0.4873,0.39374 1.03308,4.76776 9.62517,2.9589 7.79682,-0.65883 -1.18122,-2.33904 -7.3563,-1.85564 -9.67975,-3.58653 -2.11683,-1.57106 -2.33125,-4.50266 -1.13833,-6.70527 1.82445,-3.36432 6.77932,-3.6567 10.0306,-2.65481 2.17531,0.66663 4.40131,2.95889 4.09333,5.36421 -0.0335,0.25028 -0.24677,0.43701 -0.499,0.43662 l -2.97838,0.004 c -0.16919,0 -0.26899,-0.083 -0.30017,-0.2495 -0.15594,-0.88104 -0.39764,-1.66852 -1.2514,-2.11294 -1.97649,-1.02138 -6.63899,-0.92003 -5.74625,2.53787 0.0312,0.12241 0.0959,0.22377 0.19492,0.30408 z"
     id="path166"
     style="fill:#ffffff;stroke-width:0.389841"
     fill="#ffffff" />
  <path
     d="m 316.49609,228.56472 c -0.21832,4.25317 10.90775,0.80698 11.53539,7.63698 0.55747,6.07373 -5.59812,7.73835 -10.32299,6.74815 -3.09924,-0.64714 -4.98606,-2.49497 -5.51625,-5.59811 -0.0702,-0.40544 0.10136,-0.60816 0.51459,-0.60816 h 3.20839 c 0.1267,0 0.23157,0.0994 0.2378,0.22611 0.20662,3.60993 7.3719,3.99588 7.83191,1.00189 0.90444,-5.8788 -12.67763,-0.77968 -11.34827,-9.97213 1.01749,-7.02883 15.04006,-6.66628 14.68531,1.11105 -0.005,0.14814 -0.0834,0.22221 -0.23391,0.22221 l -3.1694,0.004 c -0.15594,0 -0.2534,-0.0741 -0.29238,-0.22221 -0.38984,-1.49933 -1.33092,-2.3909 -2.82245,-2.67431 -1.59445,-0.30408 -4.19859,0.0429 -4.30774,2.12463 z"
     id="path168"
     style="fill:#ffffff;stroke-width:0.389841"
     fill="#ffffff" />
  <path
     d="m 91.199186,223.4734 h 3.656708 a 0.31577119,0.31577119 0 0 1 0.31577,0.31577 v 18.48626 a 0.31577119,0.31577119 0 0 1 -0.31577,0.31577 h -3.656708 a 0.31577119,0.31577119 0 0 1 -0.315772,-0.31577 v -18.48626 a 0.31577119,0.31577119 0 0 1 0.315772,-0.31577 z"
     id="rect170"
     style="fill:#ffffff;stroke-width:0.389841"
     fill="#ffffff" />
  <path
     d="m 166.30595,233.55859 c 1.159,0.4834 1.78274,1.21786 1.87123,2.2026 0.1688,1.85564 0.32864,3.70739 0.47951,5.55524 0.0101,0.13527 0.0519,0.26002 0.12475,0.37424 l 0.34696,0.55357 c 0.15827,0.24716 0.0908,0.36645 -0.20272,0.35865 l -4.11672,-0.13254 c -0.18478,-0.005 -0.28458,-0.10136 -0.30018,-0.28849 -0.138,-1.78546 -0.26509,-3.56314 -0.38204,-5.33302 -0.0702,-1.09155 -0.59529,-1.65409 -1.57496,-1.688 -1.60107,-0.0546 -3.19825,-0.0285 -4.79115,0.078 -0.14307,0.0105 -0.21441,0.0873 -0.21441,0.23001 v 6.72085 c 0,0.22182 -0.18011,0.40154 -0.40154,0.40154 h -3.20448 c -0.16179,0 -0.29239,-0.13099 -0.29239,-0.29238 v -18.50575 c 0,-0.19999 0.0998,-0.30018 0.30018,-0.30018 2.4638,-0.008 4.98334,-0.008 7.55902,0 2.95499,0.008 6.11661,-0.41713 7.18476,3.21619 0.81321,2.76787 0.009,4.9654 -2.41311,6.59221 -0.15086,0.10136 -0.1419,0.18712 0.0273,0.2573 z m -6.44017,-1.85565 c 1.76208,-0.004 4.17129,0.63934 4.95488,-1.61004 0.36879,-1.0705 0.15593,-2.04511 -0.63934,-2.92381 -0.10409,-0.11422 -0.23274,-0.17153 -0.38595,-0.17153 h -5.95677 c -0.19492,0 -0.29238,0.0975 -0.29238,0.29238 v 4.09723 c 0,0.15087 0.0752,0.23156 0.22611,0.2417 0.70951,0.0522 1.40733,0.0768 2.09345,0.0741 z"
     id="path172"
     style="fill:#ffffff;stroke-width:0.389841"
     fill="#ffffff" />
  <path
     d="m 176.25859,229.92137 v 12.36575 c 0,0.16607 -0.13644,0.30018 -0.30408,0.30018 l -3.77755,0.004 c -0.11423,0 -0.20662,-0.0924 -0.20662,-0.20662 v -18.45116 c 0,-0.23937 0.19297,-0.43429 0.43273,-0.43663 l 5.33302,-0.0429 c 0.21831,0 0.35086,0.10682 0.39764,0.31967 l 3.15381,13.99139 c 0.0519,0.22883 0.14424,0.24716 0.27679,0.0546 0.12708,-0.18167 0.17932,-0.38322 0.15593,-0.60426 -0.0132,-0.13761 -0.005,-0.27289 0.0234,-0.40543 l 2.92382,-13.09476 c 0.0284,-0.12708 0.10759,-0.19219 0.23779,-0.19492 l 5.59812,-0.0429 c 0.0982,-0.002 0.17932,0.0772 0.17932,0.17543 v 18.64609 c 0,0.19492 -0.0975,0.29238 -0.29237,0.29238 h -3.31365 c -0.16179,0 -0.29238,-0.13099 -0.29238,-0.29238 v -13.12594 c 0.0117,-0.10799 -0.0975,-0.1883 -0.19726,-0.14463 -0.046,0.0203 -0.078,0.0635 -0.0834,0.11344 l -3.00567,13.2273 c -0.039,0.17699 -0.1497,0.26392 -0.33136,0.26119 l -3.57875,-0.0312 c -0.0979,7.8e-4 -0.18868,-0.0901 -0.21831,-0.21831 l -2.88482,-12.4866 c -0.15087,-0.64947 -0.22611,-0.64051 -0.22611,0.0273 z"
     id="path174"
     style="fill:#ffffff;stroke-width:0.389841"
     fill="#ffffff" />
  <path
     d="m 218.75125,227.35622 v 14.89582 c 0,0.18517 -0.15009,0.33526 -0.33525,0.33526 l -3.22789,0.004 c -0.18517,0 -0.33526,-0.15009 -0.33526,-0.33527 v -14.91531 c 0,-0.18517 -0.15009,-0.33526 -0.33527,-0.33526 l -5.08742,-0.0234 c -0.17933,3.9e-4 -0.32708,-0.14035 -0.33527,-0.31967 l -0.12085,-2.79906 c -0.009,-0.18946 0.14152,-0.3489 0.33137,-0.35085 l 15.00887,-0.0858 c 0.19142,0 0.34384,0.15984 0.33527,0.35086 l -0.14035,2.83804 c -0.0101,0.17465 -0.15281,0.31226 -0.32746,0.31577 l -5.10302,0.0936 c -0.18089,0.004 -0.32552,0.15087 -0.32747,0.33137 z"
     id="path176"
     style="fill:#ffffff;stroke-width:0.389841"
     fill="#ffffff" />
  <path
     d="m 10.478712,237.02427 3.859426,-13.41832 c 0.02066,-0.0702 0.08615,-0.11812 0.159835,-0.11695 h 3.754168 c 0.113444,-0.001 0.193751,0.1111 0.155937,0.21831 l -6.463564,18.79033 c -0.02222,0.0674 -0.08499,0.11344 -0.155936,0.11305 l -3.1577124,-0.0546 c -0.070172,7.8e-4 -0.1329358,-0.0433 -0.1559364,-0.10915 L 2.1049276,223.70731 c -0.038204,-0.10721 0.042103,-0.21948 0.1559364,-0.21831 h 3.7619654 c 0.071731,3.9e-4 0.1352748,0.048 0.1559364,0.11695 l 3.9841752,13.41832 c 0.03314,0.12163 0.185564,0.16139 0.274058,0.0717 0.01988,-0.0199 0.03431,-0.0444 0.04171,-0.0717 z"
     id="path178"
     style="fill:#ffffff;stroke-width:0.389841"
     fill="#ffffff" />
  <path
     d="m 20.641867,223.489 h 3.648912 a 0.3196696,0.3196696 0 0 1 0.319669,0.31967 v 18.46286 a 0.3196696,0.3196696 0 0 1 -0.319669,0.31967 h -3.648912 a 0.3196696,0.3196696 0 0 1 -0.31967,-0.31967 v -18.46286 a 0.3196696,0.3196696 0 0 1 0.31967,-0.31967 z"
     id="rect180"
     style="fill:#ffffff;stroke-width:0.389841"
     fill="#ffffff" />
  <path
     d="m 28.087829,223.85935 c -0.0023,-0.23196 0.185174,-0.42103 0.41713,-0.42103 l 8.046318,-0.0117 c 4.096448,-0.007 7.424522,3.87073 7.434267,8.66226 v 1.81667 c 0.0094,4.79348 -3.305462,8.68604 -7.40308,8.69344 l -8.046318,0.0117 c -0.228837,0 -0.41518,-0.1844 -0.417129,-0.41323 z m 3.886715,3.53975 0.02339,11.25861 c 0,0.24131 0.19531,0.43662 0.436622,0.43662 l 3.594334,-0.008 c 2.153482,-0.003 3.895681,-2.13828 3.890613,-4.76775 l -0.0078,-2.61194 c -0.0051,-2.6283 -1.753894,-4.75567 -3.906206,-4.75216 l -3.594334,0.008 c -0.241311,0 -0.436622,0.1957 -0.436622,0.43662 z"
     id="path182"
     style="fill:#ffffff;stroke-width:0.389841"
     fill="#ffffff" />
  <path
     d="m 51.119634,234.73981 v 4.00756 c 0,0.18517 0.150089,0.33526 0.335263,0.33526 h 9.465339 c 0.185175,0 0.335264,0.15009 0.335264,0.33527 v 2.83803 c 0,0.18518 -0.150089,0.33527 -0.335264,0.33527 H 47.166647 c -0.185175,0 -0.335264,-0.15009 -0.335264,-0.33527 v -18.43167 c 0,-0.18518 0.150089,-0.33526 0.335264,-0.33526 h 13.387139 c 0.188293,0.002 0.337602,0.15905 0.331364,0.34695 l -0.109154,2.79126 c -0.0062,0.17933 -0.152428,0.32162 -0.331366,0.32357 l -8.993631,0.0663 c -0.183615,0.002 -0.331365,0.15165 -0.331365,0.33527 l 0.0039,3.20838 c 0,0.18518 0.150089,0.33527 0.335263,0.33527 h 8.288019 c 0.185174,0 0.335263,0.15009 0.335263,0.33526 l 0.0078,2.83805 c 0,0.18517 -0.150089,0.33526 -0.335264,0.33526 h -8.299714 c -0.185174,0 -0.335263,0.15009 -0.335263,0.33527 z"
     id="path184"
     style="fill:#ffffff;stroke-width:0.389841"
     fill="#ffffff" />
  <path
     d="M 109.98563,235.84306 V 223.9763 c 0,-0.32474 0.16217,-0.4873 0.4873,-0.4873 h 3.1655 c 0.16374,0 0.2456,0.0819 0.2456,0.2456 v 18.6071 c 0,0.17426 -0.0873,0.26002 -0.26119,0.25729 l -3.38382,-0.0312 c -0.15086,-0.002 -0.26392,-0.0686 -0.33916,-0.19882 l -7.08731,-12.20202 c -0.0468,-0.0838 -0.16646,-0.0862 -0.21636,-0.004 -0.0117,0.0199 -0.0179,0.0429 -0.0175,0.0663 v 12.06947 c 0,0.16139 -0.13099,0.29238 -0.29239,0.29238 h -3.789251 c -0.114224,0 -0.206616,-0.0924 -0.206616,-0.20662 v -18.73575 c 0,-0.0862 0.06978,-0.15594 0.155936,-0.15594 l 3.847731,-0.004 c 0.18557,-3.9e-4 0.35632,0.0963 0.44832,0.25339 l 7.06002,12.15135 c 0.12202,0.21324 0.18323,0.19648 0.18323,-0.0507 z"
     id="path186"
     style="fill:#ffffff;stroke-width:0.389841"
     fill="#ffffff" />
  <path
     d="m 121.68086,234.73981 v 7.43426 c 0,0.18088 -0.14307,0.32902 -0.32357,0.33526 l -3.61773,0.10526 c -0.18986,0.007 -0.34735,-0.14541 -0.34696,-0.33527 v -18.45506 c 0,-0.18518 0.15009,-0.33526 0.33526,-0.33526 h 13.0051 c 0.19141,0 0.34384,0.15983 0.33526,0.35085 l -0.14424,2.80685 c -0.0105,0.17621 -0.15515,0.31422 -0.33136,0.31578 l -8.5765,0.0507 c -0.18517,0 -0.33526,0.15009 -0.33526,0.33527 v 3.21228 c 0,0.18518 0.15009,0.33527 0.33526,0.33527 h 7.52003 c 0.18634,0 0.33721,0.15243 0.33526,0.33916 l -0.0195,2.83805 c -0.002,0.18361 -0.15165,0.33136 -0.33527,0.33136 h -7.50053 c -0.18517,0 -0.33526,0.15009 -0.33526,0.33527 z"
     id="path188"
     style="fill:#ffffff;stroke-width:0.389841"
     fill="#ffffff" />
  <path
     d="m 198.08968,238.86432 -1.14223,3.55535 c -0.0324,0.10214 -0.12709,0.17153 -0.23391,0.17153 h -3.71908 c -0.16919,-7.8e-4 -0.28653,-0.16802 -0.23,-0.32747 l 6.64289,-18.611 c 0.0343,-0.0975 0.12631,-0.16295 0.23001,-0.16373 h 4.1401 c 0.10487,-7.8e-4 0.19882,0.0647 0.23391,0.16373 l 6.40119,18.611 c 0.0526,0.15789 -0.0635,0.32162 -0.23001,0.32357 l -3.6489,0.004 c -0.10487,-10e-4 -0.19687,-0.0682 -0.23001,-0.16763 l -1.18902,-3.56315 c -0.0335,-0.099 -0.12553,-0.16646 -0.23001,-0.16763 h -6.56102 c -0.10721,3.9e-4 -0.20194,0.0698 -0.23391,0.17153 z m 1.32936,-3.94519 c -0.0425,0.12826 0.0522,0.26003 0.18713,0.2612 l 4.06214,0.008 c 0.13449,-0.001 0.22923,-0.13293 0.18712,-0.26119 l -2.01938,-6.09711 c -0.0476,-0.14541 -0.23467,-0.18518 -0.33681,-0.0713 -0.0187,0.0207 -0.0328,0.0448 -0.0413,0.0713 z"
     id="path190"
     style="fill:#ffffff;stroke-width:0.389841"
     fill="#ffffff" />
  <path
     d="m 226.47011,223.489 h 3.6645 a 0.31187279,0.31187279 0 0 1 0.31187,0.31187 v 18.47845 a 0.31187279,0.31187279 0 0 1 -0.31187,0.31188 h -3.6645 a 0.31187279,0.31187279 0 0 1 -0.31188,-0.31188 v -18.47845 a 0.31187279,0.31187279 0 0 1 0.31188,-0.31187 z"
     id="rect192"
     style="fill:#ffffff;stroke-width:0.389841"
     fill="#ffffff" />
  <path
     d="m 265.53217,235.42983 v -11.7732 c 0,-0.0924 0.0748,-0.16763 0.16764,-0.16763 h 3.95298 c 0.0924,0 0.16763,0.0752 0.16763,0.16763 v 18.76304 c 0,0.0928 -0.0752,0.16763 -0.16763,0.16763 l -3.88671,0.004 c -0.0593,0 -0.11423,-0.0308 -0.14424,-0.0819 l -7.21596,-12.41643 c -0.0659,-0.1111 -0.22728,-0.10915 -0.29043,0.003 -0.0144,0.0253 -0.0218,0.0538 -0.0214,0.0827 l 0.0468,12.2449 c 0,0.0928 -0.0752,0.16763 -0.16764,0.16763 h -3.57873 c -0.0928,0 -0.16763,-0.0748 -0.16763,-0.16763 v -18.76304 c 0,-0.0924 0.0748,-0.16764 0.16763,-0.16764 l 3.73857,-0.004 c 0.0589,0 0.11383,0.0312 0.14424,0.0819 l 6.94307,11.94473 c 0.0655,0.11111 0.22689,0.10955 0.29004,-0.003 0.0144,-0.0253 0.0218,-0.0538 0.0218,-0.0826 z"
     id="path194"
     style="fill:#ffffff;stroke-width:0.389841"
     fill="#ffffff" />
  <path
     d="m 303.88863,231.41836 3.24348,-7.61749 c 0.0807,-0.18635 0.26431,-0.30759 0.46781,-0.30798 l 3.82823,-0.004 c 0.30642,0 0.38712,0.13527 0.24171,0.40543 -2.0533,3.82317 -3.92336,7.48104 -5.60982,10.97402 -0.80307,1.66462 -0.37035,5.55134 -0.37814,7.49274 0,0.12514 -0.10331,0.22611 -0.23001,0.22611 l -3.37992,0.004 c -0.17426,0 -0.26392,-0.0858 -0.26899,-0.2573 -0.0624,-1.91801 0.499,-5.84371 -0.32746,-7.41477 -1.9804,-3.76041 -3.98808,-7.50834 -6.02305,-11.24301 -0.0441,-0.0827 0.0152,-0.18245 0.10916,-0.18323 1.20578,-0.002 2.40648,-0.005 3.60212,-0.008 0.7485,0 0.85766,0.31187 1.14614,0.90053 1.12508,2.31058 2.2065,4.65626 3.24347,7.03662 0.0581,0.12865 0.23391,0.14541 0.31577,0.0308 0.008,-0.0109 0.014,-0.0226 0.0195,-0.0347 z"
     id="path196"
     style="fill:#ffffff;stroke-width:0.389841"
     fill="#ffffff" />
  <path
     d="m 338.82228,227.28994 v 15.00498 c 0,0.16139 -0.13099,0.29238 -0.29238,0.29238 l -3.31365,0.004 c -0.16178,0 -0.29238,-0.13099 -0.29238,-0.29238 v -15.00888 c 0,-0.16139 -0.13099,-0.29238 -0.29238,-0.29238 h -5.25895 c -0.16179,0 -0.29239,-0.13099 -0.29239,-0.29238 l -0.004,-2.9238 c 0,-0.1614 0.13059,-0.29238 0.29238,-0.29238 h 14.61903 c 0.16139,0 0.29238,0.13098 0.29238,0.29238 v 2.9238 c 0,0.16139 -0.13099,0.29238 -0.29238,0.29238 h -4.87301 c -0.16179,0 -0.29238,0.13099 -0.29238,0.29238 z"
     id="path198"
     style="fill:#ffffff;stroke-width:0.389841"
     fill="#ffffff" />
  <path
     d="m 350.51751,227.27435 v 3.34483 c 0,0.15282 0.12358,0.27679 0.27679,0.27679 h 8.41276 c 0.15282,0 0.27679,0.12397 0.27679,0.27679 v 2.955 c 0,0.15281 -0.12397,0.27678 -0.27679,0.27678 h -8.41276 c -0.15321,0 -0.27679,0.12397 -0.27679,0.27679 v 4.12452 c 0,0.15281 0.12358,0.27678 0.27679,0.27678 h 9.57839 c 0.15281,0 0.27678,0.12397 0.27678,0.27679 l 0.004,2.95499 c 0,0.15282 -0.12397,0.27679 -0.27679,0.27679 h -13.57815 c -0.15321,0 -0.27679,-0.12397 -0.27679,-0.27679 v -18.54863 c 0,-0.15281 0.12358,-0.27678 0.27679,-0.27678 h 13.18831 c 0.15282,0 0.27679,0.12397 0.27679,0.27678 v 2.95499 c 0,0.15282 -0.12397,0.27679 -0.27679,0.27679 h -9.19244 c -0.15321,0 -0.27679,0.12397 -0.27679,0.27679 z"
     id="path200"
     style="fill:#ffffff;stroke-width:0.389841"
     fill="#ffffff" />
  <path
     d="m 372.98794,237.9209 3.08754,-13.96409 c 0.0616,-0.27328 0.30446,-0.46742 0.58476,-0.46781 h 5.18878 c 0.16374,0 0.2456,0.0819 0.2456,0.2456 v 18.55252 c 0,0.16802 -0.13644,0.30408 -0.30407,0.30408 l -3.34094,-0.004 c -0.16919,0 -0.25339,-0.0842 -0.25339,-0.2534 v -13.06746 c -0.002,-0.10799 -0.11929,-0.17426 -0.21208,-0.1189 -0.0327,0.0191 -0.0561,0.0511 -0.0647,0.0877 l -2.90041,13.07916 c -0.0367,0.16023 -0.17894,0.27328 -0.34306,0.27289 l -3.58265,0.004 c -0.12553,-3.9e-4 -0.2339,-0.0877 -0.26119,-0.21052 l -2.9472,-12.87254 c -0.14307,-0.61829 -0.21441,-0.61049 -0.21441,0.0234 v 12.42812 c 0,0.42103 -0.21207,0.63155 -0.63544,0.63155 h -3.41111 c -0.16139,0 -0.2417,-0.0819 -0.2417,-0.2456 v -18.56422 c 0,-0.19492 0.0975,-0.29238 0.29238,-0.29238 h 5.66439 c 0.10994,7.8e-4 0.20389,0.0752 0.22611,0.17932 l 3.25127,14.25258 c 0.0569,0.25496 0.11423,0.25496 0.17153,0 z"
     id="path202"
     style="fill:#ffffff;stroke-width:0.389841"
     fill="#ffffff" />
</svg>
