<?xml version="1.0" encoding="UTF-8" standalone="no"?>
<!-- Created with Inkscape (http://www.inkscape.org/) -->

<svg
   width="380.00183"
   height="60.311001"
   viewBox="0 0 100.54215 15.957286"
   version="1.1"
   id="svg1"
   xml:space="preserve"
   xmlns="http://www.w3.org/2000/svg"
   xmlns:svg="http://www.w3.org/2000/svg"><defs
     id="defs1" /><path
     style="fill:#ffffff;fill-opacity:1;stroke-width:0.279246"
     d="m 18.724137,15.81412 c -0.166093,-0.101275 -0.25034,-0.2198 -0.284083,-0.399666 -0.0644,-0.343276 -0.01868,-0.457649 0.373188,-0.933491 0.409942,-0.497798 0.517099,-0.842198 0.413029,-1.327469 C 19.11288,12.62478 16.356714,4.7617527 15.96825,3.8587456 15.845779,3.5740506 15.624987,3.3073977 15.109879,2.8220408 14.424428,2.1761862 14.416389,2.1645594 14.416389,1.8193299 c 0,-0.85198743 0.340583,-1.01595232 1.705876,-0.82124446 1.265422,0.18045726 2.364421,0.12274846 4.203164,-0.22075829 1.613665,-0.30145408 1.706757,-0.29376293 1.894928,0.15659812 C 22.366209,1.2829967 22.32131,1.435551 21.907136,1.9981653 21.106884,3.0852338 21.017682,3.7551566 21.481944,5.1914262 22.003833,6.805969 23.583253,11.264031 23.692376,11.430576 24.0229,11.93502 24.161634,11.587045 25.015025,8.1131038 25.866994,4.644951 25.90008,4.4754142 25.845772,3.8562155 25.772805,3.0242813 25.630106,2.732861 25.013493,2.1565151 24.507819,1.683859 24.464601,1.620189 24.464601,1.34782 c 0,-0.51790183 0.403162,-0.64627264 1.223339,-0.38953102 0.816568,0.25560272 1.531909,0.22633742 2.481439,-0.10152027 1.123154,-0.38781551 1.499322,-0.33890788 1.735191,0.22560939 0.13445,0.3217812 0.117384,0.3520196 -0.754813,1.3372434 -0.422578,0.4773413 -0.786804,0.9708579 -0.913195,1.237345 -0.471676,0.9945224 -2.039016,5.8657942 -2.261549,7.0288585 -0.200395,1.04738 -0.10883,2.067261 0.246605,2.746764 0.07842,0.149923 0.280387,0.532051 0.448811,0.849169 0.250981,0.472562 0.306226,0.64917 0.306226,0.978967 0,0.73729 -0.303614,0.832172 -1.758745,0.549654 -1.667941,-0.323836 -3.61278,-0.325818 -4.869472,-0.005 -0.767181,0.195876 -1.312525,0.198795 -1.624301,0.0087 z m 26.058547,0.09391 c -3.231083,-0.240919 -5.486932,-1.598829 -5.84014,-3.515489 -0.08948,-0.485508 0.03792,-1.146637 0.303811,-1.576887 0.679668,-1.0997186 2.260311,-1.650843 3.877347,-1.351919 0.76337,0.1411149 1.141786,0.4196541 1.141786,0.840425 0,0.208966 -0.0865,0.355466 -0.46898,0.794243 -0.595029,0.682638 -0.739863,0.961206 -0.734385,1.412526 0.01002,0.827998 0.69141,1.605705 1.670384,1.906597 1.86071,0.571899 3.902555,-0.669317 3.91824,-2.381841 0.0095,-1.04206 -0.563234,-1.601445 -2.141145,-2.0911415 C 43.539017,9.0226487 41.529508,8.3274179 41.097038,8.0719522 38.648391,6.6254829 38.193468,3.6281049 40.129799,1.6990467 41.301117,0.53213306 42.989695,0.01147766 44.956315,0.21085644 45.9585,0.312456 46.370837,0.42541568 47.294734,0.85144906 c 1.373349,0.63328354 2.55971,0.60971274 3.548596,-0.0704962 0.418609,-0.28795312 0.561245,-0.31762927 0.77509,-0.16126182 0.108707,0.079492 0.147105,0.21880487 0.169494,0.61500356 0.05752,1.0178697 -0.372858,2.1117283 -1.093275,2.7786957 -0.597019,0.5527319 -1.086124,0.7390494 -1.959166,0.7463153 -1.078044,0.00894 -1.52643,-0.2821001 -2.340849,-1.5195965 -0.8542,-1.2979515 -1.238606,-1.57799 -2.166078,-1.57799 -0.983522,0 -1.477673,0.3681876 -1.477673,1.1010019 0,0.4959241 0.306716,1.020753 0.784259,1.3419432 0.334669,0.2251048 0.689356,0.3382807 5.311167,1.6947412 0.914309,0.2683324 1.843958,0.5706226 2.065891,0.6717392 1.060557,0.4832449 1.897738,1.473118 2.337367,2.7636739 0.2231,0.6549441 0.191327,1.7950645 -0.071,2.5482855 -1.009566,2.898525 -4.149703,4.441144 -8.395858,4.124546 z M 61.147969,15.800138 C 59.341926,15.56993 57.444036,14.690256 56.261084,13.535034 54.731778,12.041567 54.018967,10.191792 54.018405,7.7151269 54.017684,3.6007952 56.101048,0.94959089 59.854998,0.28846211 60.546971,0.1665931 62.537782,0.16646335 63.179773,0.28824587 63.44391,0.33834287 64.098674,0.52665704 64.634805,0.70671063 66.129807,1.2087955 66.818717,1.1574371 67.723634,0.47639206 68.358972,-0.0017638 68.737907,-0.0588239 68.926668,0.29525003 69.06043,0.54616742 68.993992,1.4987381 68.792732,2.216235 68.303757,3.9592279 67.327587,4.8781218 65.949754,4.8923941 65.01764,4.9020531 64.568829,4.596757 63.462089,3.200219 62.50879,1.9973004 62.049765,1.6721818 61.295737,1.6658313 60.962913,1.6629481 60.803569,1.698917 60.65637,1.8098656 60.137127,2.2012275 59.745549,3.1357849 59.473721,4.632452 c -0.215547,1.1868371 -0.236573,3.9924699 -0.03936,5.2503294 0.340717,2.1728966 1.036806,3.5804566 2.018649,4.0819016 0.309376,0.158004 0.45842,0.183651 1.061789,0.182707 0.61633,-7.21e-4 0.74775,-0.02516 1.077972,-0.198435 1.216045,-0.63812 1.617772,-2.352886 0.761978,-3.252505 -0.277263,-0.291463 -0.279079,-0.292083 -0.744938,-0.255213 -0.256843,0.02033 -0.571235,0.05976 -0.698633,0.08756 -0.368195,0.08043 -0.544277,-0.05824 -0.543448,-0.428052 0.0022,-0.8421483 1.359121,-2.1739207 2.659126,-2.6092166 0.598166,-0.200287 1.602866,-0.1826486 2.166057,0.038059 0.950098,0.372289 1.713663,1.3815233 1.949003,2.5760876 0.110286,0.559811 0.110271,0.654844 -2.09e-4,1.21678 -0.367647,1.869886 -1.840282,3.435183 -3.872316,4.115975 -1.203005,0.403047 -2.739426,0.537898 -4.121439,0.361744 z m 15.848097,0.01211 C 73.464683,15.456254 70.541254,13.040016 69.718712,9.797458 68.451446,4.8017438 72.413771,-0.00203771 77.799996,2.2086844e-6 81.766416,0.00144385 85.043703,2.4875804 85.981043,6.2059513 c 0.205037,0.8133588 0.189251,2.7620232 -0.02883,3.5593941 -0.70897,2.5922416 -2.553743,4.5902966 -5.135287,5.5619836 -1.033634,0.389062 -2.688456,0.59908 -3.820857,0.484924 z m 1.564662,-1.924777 c 0.720085,-0.199998 1.438101,-0.953392 1.69033,-1.773606 0.142319,-0.462831 0.147667,-0.65299 0.127636,-4.5438608 L 80.35779,3.5091984 80.152356,3.0909571 C 79.708691,2.1876689 78.973808,1.6945488 77.993501,1.6423182 77.513795,1.6168012 77.322432,1.6408766 76.977844,1.7709701 76.388847,1.993134 75.820531,2.5287464 75.548328,3.1182401 L 75.333682,3.583068 v 4.2557854 4.2557706 l 0.258595,0.50314 c 0.307415,0.598129 0.7841,1.032257 1.346924,1.226684 0.432542,0.149411 1.202724,0.179354 1.621527,0.063 z m -47.594345,1.831726 c -0.150831,-0.07886 -0.188833,-0.160433 -0.207185,-0.444774 -0.02235,-0.346008 -0.01845,-0.352481 0.616719,-1.022685 0.422307,-0.445618 0.711947,-0.828266 0.853609,-1.127709 l 0.214423,-0.453237 5.7e-5,-3.8937389 C 32.444042,6.1732694 32.416543,4.7536074 32.360925,4.4917912 32.236295,3.9048709 31.919617,3.3384722 31.331241,2.6501469 30.815818,2.0471667 30.527988,1.570229 30.524708,1.313718 c -0.0029,-0.2242182 0.419128,-0.62353797 0.759737,-0.71890244 0.302117,-0.0845882 0.3593,-0.0737182 1.016933,0.19329505 l 0.696816,0.28291459 1.736268,-0.00144 1.736275,-0.00144 0.883141,-0.31272768 C 38.274891,0.42938349 38.491426,0.39210269 38.728287,0.51886607 39.062481,0.6977231 39.198024,1.3564804 38.985288,1.7678739 38.925678,1.883097 38.591209,2.3219753 38.241964,2.743172 37.890031,3.1676196 37.485471,3.754194 37.334394,4.0591008 L 37.061809,4.60922 37.040401,7.8878836 c -0.024,3.6751074 -0.01953,3.7178884 0.494619,4.7826974 0.15698,0.325083 0.421341,0.77393 0.587476,0.997427 0.62237,0.837298 0.694019,0.96321 0.730068,1.282988 0.0297,0.263394 0.0072,0.35491 -0.11975,0.481587 -0.19393,0.193936 -0.286627,0.194109 -1.136149,0.0022 -2.24077,-0.506261 -3.401203,-0.490316 -5.152623,0.07079 -0.894616,0.286619 -1.241785,0.336759 -1.47768,0.21342 z"
     id="path1" /></svg>
