<?xml version="1.0" encoding="UTF-8" standalone="no"?>
<svg
   version="1.1"
   viewBox="0 0 379.99918 181.765"
   id="svg3"
   sodipodi:docname="wii.svg"
   width="379.99918"
   height="181.765"
   inkscape:version="1.4 (e7c3feb100, 2024-10-09)"
   xmlns:inkscape="http://www.inkscape.org/namespaces/inkscape"
   xmlns:sodipodi="http://sodipodi.sourceforge.net/DTD/sodipodi-0.dtd"
   xmlns="http://www.w3.org/2000/svg"
   xmlns:svg="http://www.w3.org/2000/svg">
  <defs
     id="defs3" />
  <sodipodi:namedview
     id="namedview3"
     pagecolor="#ffffff"
     bordercolor="#000000"
     borderopacity="0.25"
     inkscape:showpageshadow="2"
     inkscape:pageopacity="0.0"
     inkscape:pagecheckerboard="0"
     inkscape:deskcolor="#d1d1d1"
     inkscape:zoom="2.9416667"
     inkscape:cx="303.05949"
     inkscape:cy="133.08782"
     inkscape:window-width="1920"
     inkscape:window-height="1164"
     inkscape:window-x="1920"
     inkscape:window-y="0"
     inkscape:window-maximized="1"
     inkscape:current-layer="svg3" />
  <g
     id="g3"
     transform="scale(0.63333194)">
    <path
       d="m 414.066,32.676 c 0,18.018 15.168,32.64 33.84,32.64 19.41,0 34.65,-14.322 34.65,-32.64 C 482.553,14.355 467.316,0 447.906,0 c -18.672,0 -33.84,14.643 -33.84,32.676"
       style="fill:#ffffff"
       id="path1" />
    <rect
       x="419.68201"
       y="98.030998"
       width="57.773998"
       height="186.927"
       style="fill:#ffffff"
       id="rect1" />
    <path
       d="m 531.51,32.676 c 0,18.018 15.198,32.64 33.861,32.64 C 584.79,65.316 600,50.994 600,32.676 600,14.355 584.79,0 565.371,0 546.708,0 531.51,14.643 531.51,32.676"
       style="fill:#ffffff"
       id="path2" />
    <rect
       x="537.10797"
       y="98.030998"
       width="57.789001"
       height="186.927"
       style="fill:#ffffff"
       id="rect2" />
    <path
       d="m 327.81,15.72 -50.661,198.621 c 0,0 -38.736,-149.088 -45.036,-170.235 -6.3,-21.183 -19.272,-30.462 -37.662,-30.462 -18.402,0 -31.392,9.279 -37.692,30.462 -6.279,21.147 -45.021,170.235 -45.021,170.235 L 61.041,15.72 H 0 c 0,0 58.626,211.92 66.597,236.457 6.198,19.158 20.883,34.821 42.654,34.821 24.888,0 36.528,-18.147 41.916,-34.821 5.334,-16.572 43.284,-156.537 43.284,-156.537 0,0 37.947,139.965 43.266,156.537 5.388,16.674 17.028,34.821 41.91,34.821 21.786,0 36.444,-15.663 42.684,-34.821 7.95,-24.537 66.537,-236.457 66.537,-236.457 z"
       style="fill:#ffffff"
       id="path3" />
  </g>
</svg>
