<?xml version="1.0" encoding="UTF-8" standalone="no"?>
<svg
   id="Warstwa_1"
   data-name="Warstwa 1"
   viewBox="0 0 380 120.35187"
   version="1.1"
   width="380"
   height="120.35187"
   xmlns="http://www.w3.org/2000/svg"
   xmlns:svg="http://www.w3.org/2000/svg"
   xmlns:rdf="http://www.w3.org/1999/02/22-rdf-syntax-ns#"
   xmlns:cc="http://creativecommons.org/ns#"
   xmlns:dc="http://purl.org/dc/elements/1.1/">
  <defs
     id="defs3" />
  <title
     id="title1">Sharp_X1_logo</title>
  <path
     d="m 35.648372,0.03251699 h 2.016053 Q 82.05011,0.03251699 126.4358,0 c 1.36246,0 2.08433,0.39020383 2.77369,1.5900806 Q 160.65017,56.381202 192.14937,111.14306 c 0.62758,1.08932 1.27467,1.46326 2.51682,1.45351 9.16003,-0.0553 18.31682,-0.039 27.4736,-0.0163 0.93649,0 1.54781,-0.14958 2.07133,-1.08282 q 23.08706,-41.137236 46.24241,-82.235454 c 0.18209,-0.32517 0.32517,-0.65034 0.62107,-1.248653 h -32.21458 c 0.54954,-0.650339 0.82593,-1.030788 1.1446,-1.362461 Q 252.24727,13.842481 264.52568,1.0665571 a 3.4012767,3.4012767 0 0 1 2.18514,-0.99176803 Q 322.71808,0.0032517 378.72208,0.03251699 H 380 c -0.32517,0.62107443 -0.54629,1.07306051 -0.79341,1.50553641 Q 345.40518,60.312505 311.62979,119.10322 c -0.58856,1.02753 -1.24866,1.24865 -2.31521,1.24865 q -101.19937,-0.0293 -202.40198,0 c -1.01128,0 -1.64536,-0.21136 -2.2014,-1.16736 Q 70.558608,60.234465 36.340983,1.3331964 C 36.155637,1.0080266 35.9898,0.6828567 35.648372,0.03251699 Z M 284.3773,20.238572 232.47694,112.48926 c 0.65034,0.0325 1.04705,0.0748 1.45351,0.0748 q 35.59959,0 71.2122,0.0358 c 1.13484,0 1.60308,-0.49426 2.09409,-1.34946 Q 336.48252,60.358029 365.76732,9.472198 c 0.28289,-0.4910065 0.53978,-1.0015232 0.87145,-1.6258493 -0.50726,-0.042272 -0.7739,-0.084544 -1.04054,-0.084544 q -47.86826,0 -95.73651,0.032517 a 3.0273314,3.0273314 0 0 0 -1.9185,0.8779586 c -3.41754,3.4760657 -6.77329,7.0171657 -10.1388,10.5452587 a 11.055775,11.055775 0 0 0 -0.72838,1.001523 z M 49.077887,7.778063 c 0.422721,0.7674009 0.70887,1.326693 1.024285,1.8729784 Q 79.523541,60.341771 108.92215,111.04551 c 0.65034,1.10232 1.30068,1.55756 2.63062,1.55431 q 35.26467,-0.0683 70.5326,-0.0325 h 1.9185 c -0.40321,-0.7674 -0.65034,-1.30068 -0.94625,-1.79494 Q 153.87363,60.045866 124.7189,9.2901029 C 124.06856,8.1552601 123.3857,7.745546 122.07852,7.7487977 Q 86.488679,7.8073283 50.892335,7.778063 Z"
     fill="#ffffff"
     id="path1"
     style="stroke-width:0.32517" />
  <path
     d="M 57.655868,63.625986 91.171125,120.20554 H 0 Z m -1.62585,12.40523 -37.108384,36.419024 h 58.683404 z"
     fill="#ffffff"
     id="path2"
     style="stroke-width:0.32517" />
  <path
     d="m 143.24383,0.10730605 h 83.71498 C 209.09723,18.219267 191.434,36.126371 173.58868,54.215571 Z M 175.30557,41.488422 208.42738,7.8951242 h -51.96215 z"
     fill="#ffffff"
     id="path3"
     style="stroke-width:0.32517" />
  <metadata
     id="metadata3">
    <rdf:RDF>
      <cc:Work
         rdf:about="">
        <dc:title>Sharp_X1_logo</dc:title>
      </cc:Work>
    </rdf:RDF>
  </metadata>
</svg>
