<?xml version="1.0" encoding="UTF-8" standalone="no"?>
<svg
   version="1.1"
   viewBox="0 0 380.00001 149.9031"
   id="svg6"
   width="380"
   height="149.90311"
   xmlns="http://www.w3.org/2000/svg"
   xmlns:svg="http://www.w3.org/2000/svg">
  <defs
     id="defs6" />
  <path
     class="st0"
     d="M 373.09536,6.0989291 V 26.466089 h -62.58032 -6.09893 v 6.098929 19.663437 6.098929 h 6.09893 56.85875 l -13.31974,16.787353 h -43.53901 -6.09893 v 6.098929 39.694034 6.09893 h 6.09893 29.81132 15.10454 11.93269 l -13.30954,16.79755 h -36.72616 -30.8414 -10.0765 V 129.50535 81.223865 75.124936 h -6.09892 -15.05355 L 310.0051,6.109128 h 36.72616 26.3641 m -99.23508,-0.010199 -51.60633,65.058644 -3.00867,3.793982 3.00867,3.793983 43.27384,54.553802 8.33249,10.50484 h -1.51964 -22.57011 l -37.78685,-47.638958 -4.78327,-6.027537 -4.78328,6.027537 -37.78684,47.638958 h -24.08975 l 51.60632,-65.058642 3.00867,-3.793983 -3.00867,-3.793982 -51.60632,-65.058644 h 24.09995 l 37.78684,47.63896 4.78328,6.027537 4.78327,-6.027537 37.77665,-47.63896 h 24.08975 M 167.57777,0 h -39.67364 l 59.45946,74.951555 -59.45946,74.951555 h 39.67364 l 39.62264,-49.943906 39.62264,49.943906 h 25.51759 14.14585 30.8414 38.10301 1.57063 L 380,120.9077 H 355.4309 340.32636 310.51504 V 81.223865 h 46.48649 L 380,52.228455 H 310.51504 V 32.565018 h 68.67925 V 0 0 h -32.46303 -38.12341 -1.55023 l -64.42631,81.223865 h 27.67976 V 129.50535 L 227.03723,74.951555 286.48649,0 h -39.67364 l -39.62264,49.943906"
     style="fill:#ffffff;stroke-width:0.101989"
     id="path1" />
  <path
     class="st0"
     d="m 61.36665,49.627741 c -9.556349,0 -19.133096,0 -28.709842,0 0,2.590515 0,5.150433 0,7.740948 3.528812,0 7.037226,0 10.576236,0 0,14.349822 0,28.669047 0,43.018871 2.519123,0 5.048445,0 7.567568,0 0,-14.349824 0,-28.669049 0,-43.018871 3.528812,0 7.037226,0 10.576237,0 -0.0102,-2.590515 -0.0102,-5.160632 -0.0102,-7.740948 z"
     style="fill:#ffffff;stroke-width:0.101989"
     id="path2" />
  <path
     class="st0"
     d="m 23.080061,50.882203 c -1.040285,-0.9077 -2.396736,-1.346252 -3.753187,-1.346252 -1.795003,0 -3.600204,0.754717 -4.722081,2.192759 -1.121876,1.254462 -1.315655,2.967873 -1.805201,4.507904 C 8.5262621,70.943396 4.2631311,85.660377 0,100.36716 c 2.6415094,0 5.2626211,0 7.8939317,0 1.2442631,-4.263131 2.4681283,-8.526262 3.7225903,-12.768996 3.416624,0 6.82305,-0.0102 10.229475,-0.0102 1.703213,0 3.406425,0 5.119837,0.0102 1.244263,4.263131 2.468128,8.526262 3.702193,12.768996 2.641509,0 5.293217,0 7.934727,0 C 34.115247,84.936257 29.617542,69.525752 25.130036,54.09485 24.762876,52.881183 24.079551,51.72871 23.080061,50.882203 Z M 17.419684,80.36716 c -1.244263,0 -2.478328,0 -3.722591,-0.0102 1.856196,-6.394697 3.702193,-12.789393 5.578787,-19.18409 1.866394,6.394697 3.72259,12.789393 5.568587,19.18409 -2.468128,0 -4.946456,0.0102 -7.424783,0.0102 z"
     style="fill:#ffffff;stroke-width:0.101989"
     id="path3" />
  <path
     class="st0"
     d="m 76.746558,49.699133 c -0.469149,-0.122386 -0.948496,-0.18358 -1.438042,-0.18358 -1.937787,0 -3.855176,0.948496 -4.956655,2.539521 -0.877103,1.152473 -1.050484,2.621112 -1.489036,3.967364 -4.293728,14.778174 -8.597654,29.566547 -12.860785,44.365122 2.621111,0 5.262621,0 7.883733,0 1.223865,-4.263134 2.478327,-8.505867 3.702192,-12.768998 5.099439,0 10.219276,0 15.328914,0 1.244263,4.263131 2.45793,8.505864 3.681795,12.768998 2.651708,-0.0204 5.293218,0 7.955125,-0.0204 C 90.076492,84.956655 85.568587,69.54615 81.09128,54.135645 80.540541,52.034676 78.898521,50.188679 76.746558,49.699133 Z m -7.047425,30.678225 c 1.835798,-6.415094 3.702193,-12.830188 5.558389,-19.224885 1.835798,6.415095 3.72259,12.809791 5.558388,19.224885 -3.702193,0 -7.404385,0 -11.116777,0 z"
     style="fill:#ffffff;stroke-width:0.101989"
     id="path4" />
  <path
     class="st0"
     d="m 134.63539,100.38756 c 2.67211,0 8.01632,0 8.01632,0 V 49.627741 h -8.01632 c 0,0 0,33.839878 0,50.759819 z"
     style="fill:#ffffff;stroke-width:0.101989"
     id="path5" />
  <path
     class="st0"
     d="m 118.80673,79.296277 c 1.48904,-1.101478 3.21265,-1.835798 4.5997,-3.080061 2.62111,-2.27435 4.04895,-5.680775 4.31412,-9.0872 0.38756,-3.253442 0.22438,-6.710862 -1.29526,-9.678736 -2.20295,-4.579296 -7.03722,-7.740948 -12.12646,-7.832738 -2.01938,0 -4.01836,0.0102 -6.03774,0.0102 -1.00969,0 -2.00918,0 -3.01887,-0.0102 -0.0612,0 -0.12238,0 -0.18358,0 -0.70372,0 -1.40744,0.09179 -2.08057,0.316165 -2.47832,0.785314 -4.334521,3.253442 -4.365117,5.874554 0,14.869964 0,29.709332 0,44.579299 2.549717,0 5.089237,0 7.638957,0 0,-13.799085 -0.0204,-27.608366 0,-41.407448 0,-0.877103 0.80571,-1.642019 1.68282,-1.642019 0.0102,0 0.0204,0 0.0306,0 1.30546,0 2.61092,0.0102 3.91637,0.0102 0.65273,0 1.30546,0 1.95819,-0.0102 0.0612,0 0.13258,0 0.19378,0 2.75369,0 5.32381,2.131565 5.91535,4.81387 0.50994,2.111168 0.58133,4.487507 -0.58134,6.425294 -1.49924,2.570117 -4.19174,4.191738 -6.91484,5.242223 -1.42784,0.560938 -2.7129,1.621621 -3.25344,3.09026 -0.68333,1.90719 -0.38756,4.120347 0.76491,5.803162 3.89598,5.884752 7.77155,11.789903 11.68792,17.684858 3.00867,0 5.99694,0 8.98521,0 -4.08975,-6.12953 -8.26109,-12.21826 -12.26925,-18.39878 -0.41815,-0.887302 -0.38756,-2.09077 0.43855,-2.702703 z"
     style="fill:#ffffff;stroke-width:0.101989"
     id="path6" />
</svg>
