<?xml version="1.0" encoding="UTF-8" standalone="no"?>
<svg
   width="379.9993"
   height="162.037"
   viewBox="0 0 284.99947 121.52775"
   version="1.1"
   id="svg13"
   xmlns="http://www.w3.org/2000/svg"
   xmlns:svg="http://www.w3.org/2000/svg">
  <defs
     id="defs13" />
  <path
     fill="#ffffff"
     stroke="#ffffff"
     stroke-width="0.0146"
     opacity="1"
     d="m 12.14434,0.18639549 c 0.04672,-0.04672 0.124587,-0.124586 0.171306,-0.171306 1.152424,0 2.304848,0 3.457271,0 0.295893,-0.04672 0.467199,0.218026 0.607359,0.436052 0.280319,0.545065 0.591785,1.10570401 0.591785,1.72863501 0.03115,0.06229 0.07787,0.18688 0.109013,0.2336 -0.327039,0.342612 -0.654078,0.700798 -1.058984,0.949971 -0.202453,0.109013 -0.327039,0.311465 -0.436053,0.529492 0.731946,-0.202453 1.448317,-0.498345 2.024529,-0.981117 0.140159,-0.513919 0,-1.105704 0.264746,-1.60405 0.716372,-0.40490601 1.46389,-0.76309101 2.086821,-1.27701001 1.152424,-0.0311500048 2.304848,-0.0311500048 3.457271,0 -0.233599,0.389332 -0.482772,0.763092 -0.622932,1.19914401 0.856532,0.249172 1.74421,0.295892 2.631887,0.202452 0.669652,-0.171306 1.32373,-0.43605201 1.915515,-0.79423701 0.498346,-0.311467 1.058984,-0.576212 1.666343,-0.622932 17.333075,0 34.681724,0 52.014799,0 0.389333,-0.0155700048 0.731945,0.171306 1.09013,0.280318 0.591786,-0.218025 1.245864,-0.109012 1.853223,-0.124585 -0.03115,0.233599 -0.07787,0.467199 -0.14016,0.700797 0.607358,-0.09344 1.09013,-0.467198 1.541757,-0.840957 3.753163,-0.0311500048 7.490754,0 11.243917,-0.01557 0.0467,0.436052 0.15573,0.887677 0.38933,1.27701001 0.26475,0.311465 0.56064,0.576212 0.85653,0.856531 0.31147,0.327039 0.79424,0.513918 1.01227,0.934397 -0.14016,0.529492 -0.35819,1.043411 -0.63851,1.51061 -2.647457,3.940043 -5.279344,7.9112325 -7.911231,11.8512755 -0.171305,0.249172 -0.404905,0.436052 -0.622931,0.622932 -0.342613,-0.264746 -0.685225,-0.700798 -1.167997,-0.529492 -0.451625,0.249172 -0.918825,0.529492 -1.23029,0.934397 0.03115,0.358186 0.202453,0.685226 0.171306,1.043411 0.06229,0.622932 -0.607358,1.043411 -1.152424,1.074557 -0.249173,-0.01557 -0.280319,0.264747 -0.389333,0.420479 -0.373758,0.700798 -1.058984,1.121277 -1.666341,1.588476 0.373759,0.109013 0.763091,0.218026 1.152423,0.32704 0,0.140159 0,0.420478 0,0.545065 -0.389332,0.07787 -0.747518,-0.14016 -1.13685,-0.14016 -0.03115,0.389332 -0.155733,0.747518 -0.18688,1.13685 0.342612,0.14016 0.747518,0.264746 0.903251,0.638506 0.03115,0.327038 -0.186879,0.591785 -0.342612,0.840957 -2.896633,4.329375 -5.777693,8.658751 -8.658751,12.988126 -0.18688,0.28032 -0.358186,0.560639 -0.607359,0.794239 -0.218026,0.202453 -0.513918,0.295892 -0.731945,0.482772 -0.280319,0.856531 -0.529492,1.759782 -1.18357,2.429434 -0.763091,0.685224 -0.981117,1.775355 -1.728636,2.476153 -0.358185,0.436052 -0.872104,0.700799 -1.323729,1.012264 -0.09344,0.389333 0,0.794238 -0.06229,1.199144 -0.202453,0.560638 -0.607358,1.012264 -0.94997,1.495036 -0.809812,1.37045 -1.759783,2.631887 -2.616313,3.97119 -8.830058,13.268446 -17.691262,26.536895 -26.521319,39.805335 -0.358186,0.48277 -0.591786,1.09013 -1.136851,1.4016 -0.498345,0.28032 -0.918824,0.68522 -1.401596,0.99669 -0.373759,-0.0156 -0.685225,-0.49835 -0.685225,-0.87211 -0.18688,0.28032 -0.358185,0.66966 -0.716372,0.74752 -0.327039,-0.2336 -0.607357,-0.52949 -0.965544,-0.71637 -0.295892,-0.0156 -0.311465,0.40491 -0.451625,0.59179 0.327039,0.10901 0.669652,0.20245 0.99669,0.29589 0.01557,0.40491 0.01557,0.80981 0,1.21472 -0.249172,0.10901 -0.436052,0.28031 -0.560638,0.49833 0.622932,0.0779 1.292584,-0.0934 1.884369,0.18688 -0.342613,0.7631 -0.825385,1.41718 -1.245864,2.11798 -0.404905,0.57621 -0.856531,1.12128 -1.121277,1.79093 0.638505,0.0156 1.292584,0 1.931089,0.0156 9.297256,0 18.578938,-0.0156 27.876194,0 0.18688,-0.0156 0.358186,-0.0311 0.545065,-0.0779 0.01557,-0.32703 0.06229,-0.65407 0.18688,-0.96554 0.295893,-0.77867 0.607359,-1.55733 0.763092,-2.38272 0.202452,-0.79424 0.669651,-1.47945 0.965544,-2.24255 0.420479,-1.07456 1.058984,-2.0401 1.557329,-3.08352 0.202453,-0.35818 0.389332,-0.71637 0.467199,-1.1057 0.07787,-0.4049 0.389333,-0.70079 0.576212,-1.05898 0.171306,-0.34261 0.140159,-0.74752 0.140159,-1.13685 -1.105703,0 -2.226981,0.0156 -3.332684,0.0156 -0.622932,0.0156 -1.230291,-0.1713 -1.775356,-0.42048 -0.327039,-0.24917 -0.591785,-0.56064 -0.778664,-0.91882 -0.264747,-0.56064 -0.295893,-1.19915 -0.607359,-1.74421 -0.202453,-0.35818 -0.389332,-0.74751 -0.809811,-0.90325 0.529491,-0.57621 1.245863,0.0623 1.853222,0.0311 0.311465,-0.28032 0.513918,-0.63851 0.622932,-1.04341 0.233599,0.0311 0.482772,0.0467 0.654078,0.21802 1.13685,0.88768 2.086821,2.0401 3.426124,2.67861 0.513919,0.26474 1.23029,0.18688 1.557329,-0.32704 0.654079,-0.66966 0.42048,-1.69749 0.809812,-2.47615 0.01557,-0.10902 0.03115,-0.31147 0.04672,-0.40491 0.202452,-0.18688 0.389332,-0.49835 0.700798,-0.40491 0.482772,0.24918 0.918824,0.62294 1.46389,0.71638 0.451625,0 0.778664,-0.42048 0.872104,-0.82539 0.155733,-0.60736 0.295893,-1.21472 0.498345,-1.8065 0.202453,-1.41717 0.716372,-2.81877 0.498345,-4.26708 -0.01557,-0.9967 -0.342612,-1.9311 -0.436052,-2.91221 -0.04672,-0.45162 -0.109013,-0.91882 -0.280319,-1.354872 -0.04672,-0.03115 -0.140159,-0.109014 -0.186879,-0.14016 -0.264746,0.249172 -0.545066,0.498342 -0.700799,0.825382 -0.295892,0.60736 -0.264745,1.29259 -0.186879,1.93108 0.124587,0.62294 0.06229,1.27702 0.06229,1.91552 -0.482772,-0.15573 -0.840959,-0.56064 -1.121278,-0.96554 -0.311466,-0.63851 -0.591785,-1.33931 -0.654078,-2.05567 -0.04672,-0.28032 -0.155733,-0.56064 -0.249173,-0.84096 -0.233599,0.0311 -0.451626,0.0467 -0.669651,0.15573 -0.700799,0.29589 -1.448317,0.49835 -2.149115,0.77867 -0.513919,0.10901 -1.105703,0.14016 -1.526183,-0.21803 -0.451625,-0.24917 -0.436052,-0.80981 -0.529492,-1.245864 -0.171306,-0.778664 0.01557,-1.572902 0.109013,-2.351566 0.09344,-0.467199 0.171307,-0.996691 0.591785,-1.308157 -0.01557,-0.06229 -0.06229,-0.18688 -0.07787,-0.249172 -0.358186,-0.311467 -0.856531,-0.451627 -1.230291,-0.747519 -0.685224,-0.513918 -1.510609,-0.856532 -2.117967,-1.463889 -0.451626,-0.42048 -1.105704,-0.778665 -1.121278,-1.479464 1.214718,-0.404905 2.460581,-0.85653 3.753164,-0.794237 1.261437,-0.06229 2.522874,0.186879 3.737591,0.513919 0.436052,-0.109014 0.903251,-0.249174 1.136851,-0.669652 0.202452,-0.669652 0.140159,-1.386023 0.280319,-2.071248 0.109013,-0.576212 0.01557,-1.183571 0.264746,-1.713062 0.451625,-1.199144 0.903251,-2.413861 1.588476,-3.503992 0.607357,0.264747 1.105704,0.763092 1.354876,1.386024 0.482772,0.747517 0.856532,1.557329 1.058984,2.429433 0.218026,0.794238 -0.155733,1.744209 0.420478,2.445007 0.342614,0.07787 0.716372,0.06229 1.058984,0.04672 0.389333,-0.124586 0.700799,-0.404905 1.074558,-0.560638 0.934398,-0.342613 1.853222,-0.778665 2.818766,-1.012264 0.981118,-0.218027 1.946662,-0.451625 2.943353,-0.576212 -0.04672,0.872104 -0.264747,1.759782 -0.685226,2.538446 -0.71637,1.105704 -1.853221,1.806503 -2.896631,2.585167 -0.264747,0.06229 -0.607359,0.09344 -0.763092,0.37376 0.529492,0.545065 1.105704,1.04341 1.759782,1.432742 0.467199,0.28032 0.872104,0.669652 1.261436,1.074557 0.498346,0.420479 0.669652,1.152424 0.607359,1.790929 -0.949971,-0.373758 -1.557329,-1.292583 -2.538447,-1.604049 -0.342612,-0.171306 -0.747518,0.155733 -0.825385,0.498346 0.09344,0.638505 0.451627,1.214717 0.545066,1.868794 0.171306,0.545066 -0.09344,1.183571 -0.560639,1.495041 -0.607358,0.45162 -1.417169,0.37375 -2.133541,0.32703 -0.560639,-0.14015 -1.090131,-0.43605 -1.635196,-0.6385 -0.233599,-0.140159 -0.498345,-0.218026 -0.763091,-0.218026 -0.04672,0.716376 0.155733,1.432746 0.140159,2.149106 0.311467,1.99339 0.42048,4.08021 -0.04672,6.07359 0.467199,-0.0467 0.840958,-0.37376 1.152423,-0.7008 0.37376,-0.37375 0.747519,-0.76309 0.981118,-1.24586 0.280319,-0.51392 0.887678,-0.65408 1.401596,-0.84096 -0.654078,0.79424 -1.27701,1.65077 -1.728635,2.58516 -0.327039,0.49835 -0.763091,0.91883 -1.074558,1.41718 -0.389332,0.68522 -0.90325,1.30815 -1.13685,2.07125 0.06229,0.20245 0.18688,0.29589 0.37376,0.32704 0.62293,0.0311 1.230289,-0.0467 1.837648,0.0311 0.186879,0.2336 0.124586,0.57622 0.09344,0.85654 -0.358186,0.48276 -1.058984,0.51391 -1.448316,0.96553 0.01557,0.0467 0.03115,0.17131 0.04672,0.21803 0.607358,0.32704 1.292582,0.37376 1.962234,0.24917 0.700799,-0.12458 1.432743,-0.14016 2.117968,0.10902 -0.155733,0.42047 -0.654079,0.42047 -1.012264,0.52949 -0.669652,-0.0779 -1.370449,-0.24918 -2.024528,0.0156 0.140159,0.21803 0.280319,0.43605 0.545065,0.49835 0.389332,0.0311 0.794238,0 1.183571,0.12458 -0.436053,0.38934 -1.012265,0.54507 -1.572904,0.51392 -0.80981,0.0467 -1.557329,-0.28032 -2.335993,-0.42048 -0.498345,-0.0779 -0.996691,-0.1713 -1.495037,-0.21802 0.155733,0.60736 0.669652,0.98112 1.245864,1.15242 0.513919,0.10902 0.99669,-0.21802 1.495036,-0.12458 0.358186,0.0779 0.716372,0.37376 0.685225,0.76309 -0.04672,0.24917 -0.155733,0.49835 -0.249172,0.73195 -0.545065,0 -1.136851,0.10901 -1.650769,-0.15574 -0.591786,-0.26474 -1.214717,-0.4049 -1.853223,-0.56064 -0.218026,0.94998 -0.638505,2.08682 -1.666342,2.39828 -0.607359,0.2336 -1.245864,-0.28032 -1.837648,0.0311 -0.51392,0.32704 -0.872105,0.87211 -1.058985,1.44832 -0.109012,0.32704 -0.373759,0.59179 -0.498345,0.91883 -0.249172,0.7008 -0.638504,1.3393 -0.887678,2.02452 -0.436052,0.76309 -0.607358,1.61962 -0.85653,2.44501 -0.202453,0.59179 -0.37376,1.19915 -0.358187,1.83765 4.251509,0 8.487446,-0.0156 12.738955,0 0.545065,-0.4049 1.058983,-0.84096 1.526182,-1.32373 0.560639,-0.34261 0.949971,-0.90325 1.479463,-1.29259 0.560638,-0.38933 0.949971,-0.94997 1.526183,-1.32373 0.545066,-0.54506 1.18357,-0.98111 1.713062,-1.54175 0.622932,-0.4049 1.074557,-1.01226 1.681915,-1.41717 0.513919,-0.49835 1.027838,-1.02784 1.713063,-1.27701 0.124586,0 0.37376,0 0.498345,0 -0.07787,0.26474 -0.264745,0.51392 -0.233599,0.79424 0.109014,0.45162 0.202452,0.91882 0.451626,1.30816 0.513918,0.38933 1.167997,0.14016 1.635195,-0.20246 0.311466,-0.24917 0.685226,-0.45162 0.903251,-0.80981 0.155733,-0.24917 0.358187,-0.4672 0.560639,-0.66965 0.280319,0.0156 0.560638,0.0156 0.840958,0.0156 0,-0.52949 -0.482772,-0.87211 -0.685225,-1.32373 -0.358185,0.12458 -0.731945,0.21802 -1.074557,0.37376 -0.545066,0.32704 -0.2336,1.05898 -0.295893,1.5729 -0.295893,-0.18688 -0.591785,-0.35818 -0.872104,-0.56064 0.07787,-0.32704 0.342612,-0.60736 0.264746,-0.94997 -0.124587,-0.35819 -0.32704,-0.66965 -0.545065,-0.96554 0.327039,-0.32703 0.654077,-0.70079 1.04341,-0.94997 0.513919,-0.35818 0.840958,-0.90325 1.354876,-1.24586 0.28032,-0.18688 0.513919,-0.42048 0.747519,-0.65408 0.280319,-0.2959 0.654078,-0.48278 0.934397,-0.77867 0.264747,-0.28032 0.529492,-0.59179 0.856531,-0.80981 0.420479,-0.26475 0.716372,-0.68523 1.136855,-0.94997 0.45162,-0.35818 0.82538,-0.84095 1.32373,-1.15242 0.49835,-0.56064 1.168,-0.91883 1.6352,-1.49504 -0.0156,-4.22036 0,-8.42516 -0.0156,-12.645511 -0.0156,-0.778664 0.35818,-1.495036 0.872097,-2.071248 0,-0.545065 0,-1.090131 0,-1.635196 -0.0623,-0.04672 -0.186877,-0.155732 -0.264747,-0.218025 -0.0156,-0.436053 -0.0156,-0.918825 0.233597,-1.292584 0.2336,-0.280319 0.51392,-0.513919 0.77867,-0.778665 0,-0.778664 0,-1.572903 0,-2.351567 -0.52949,-0.436052 -0.88768,-1.121277 -1.604047,-1.261437 -0.0311,-8.269419 0,-16.538838 -0.0156,-24.808256 -0.0312,-0.327039 0.12458,-0.638505 0.35818,-0.856531 0.24917,-0.218027 0.404907,-0.513919 0.622927,-0.763092 0.37376,-0.327039 0.88767,-0.280319 1.35487,-0.280319 -0.24917,-0.404905 -0.54506,-0.763092 -0.8098,-1.152424 -0.28032,0 -0.57621,0 -0.856527,0.01557 -0.32704,-0.607359 -0.56064,-1.261437 -0.65408,-1.946662 -0.0311,-0.887678 0,-1.775355 -0.0156,-2.663033 -0.45163,-0.436053 -0.87211,-0.903251 -1.32374,-1.339303 -1.02784,-0.731945 -1.79093,-1.744209 -2.740902,-2.55402 -0.373759,-0.264747 -0.716371,-0.591785 -1.027837,-0.934398 0.2336,-0.249173 0.498345,-0.467199 0.685225,-0.747518 0.249173,-0.607358 0.171307,-1.292584 0.373759,-1.899942 0.825385,-0.202452 1.588475,-0.576212 2.398295,-0.840957 0.4049,-0.155734 0.85653,-0.09344 1.29258,-0.109014 2.756467,0 5.497367,0.01557 8.253837,0 0.43606,0 0.88768,0.09344 1.26144,0.327039 0.10901,0.311466 -0.0934,0.638505 -0.14016,0.949972 -0.0934,0.498345 -0.4049,0.918824 -0.6385,1.354876 0.65408,-0.202453 1.35487,-0.591786 2.02453,-0.280319 0.43605,-0.358187 0.91882,-0.654079 1.46389,-0.840959 0.10901,-0.233598 0.18688,-0.482771 0.28032,-0.71637 -0.18688,-0.2336 -0.38933,-0.4672 -0.52949,-0.731945 0.62293,-0.09344 1.24585,-0.04672 1.88436,-0.04672 5.40393,-0.01557 10.79229,0 16.19622,-0.01557 0.24918,0.01557 0.51392,-0.03115 0.7631,0.06229 0.24917,0.202452 0.4672,0.451625 0.7008,0.700798 0.12458,-0.01557 0.37376,-0.01557 0.49834,-0.03115 0.0467,0.436052 -0.18688,0.809811 -0.29589,1.199143 0.62293,-0.171305 1.15242,-0.545065 1.69749,-0.856531 -0.0311,-0.233599 -0.0623,-0.467198 -0.0779,-0.700798 0.34262,-0.140159 0.66966,-0.389332 1.07456,-0.373759 6.33833,0.01557 12.67666,-0.01557 19.01499,0.01557 0.54507,0.358185 1.18357,0.622931 1.85322,0.591785 0.65408,-0.06229 1.27701,-0.311467 1.86879,-0.576212 0.26475,-0.04672 0.51392,-0.01557 0.77867,-0.03115 5.04575,0.01557 10.09149,-0.01557 15.13724,0.01557 0.0311,0.529492 -0.23359,1.04341 -0.15574,1.572902 -0.0311,0.249173 0.2959,0.28032 0.43606,0.404905 -0.0311,0.218027 -0.2336,0.32704 -0.40491,0.451626 -1.07455,0.903251 -2.25812,1.666342 -3.34825,2.554021 -0.38934,0.327038 -0.90326,0.373758 -1.35488,0.576211 0.0311,-0.420478 0.0467,-0.872105 -0.31147,-1.152423 0.40491,-0.218027 0.82539,-0.404906 1.19915,-0.685225 -0.5295,-0.280319 -1.12128,-0.218026 -1.69748,-0.218026 -0.0779,-0.07787 -0.24918,-0.249173 -0.32704,-0.342613 -0.4672,0.451625 -1.01227,0.872105 -1.66635,0.981117 0.10901,0.28032 0.24917,0.576212 0.10901,0.872105 -0.18688,0.436052 0.0779,0.965544 -0.2336,1.354876 0.24918,-0.03115 0.49835,-0.124586 0.73195,-0.249172 0.29589,0.171306 0.59179,0.342612 0.88768,0.529492 -0.0156,0.04672 -0.0311,0.109013 -0.0311,0.155732 -0.54506,0.607359 -1.168,1.167997 -1.8688,1.60405 0.0156,0.467199 -0.0311,0.934398 -0.18688,1.37045 -0.14016,0.420478 -0.0934,0.85653 -0.12458,1.292583 -0.0623,0.327039 -0.24918,0.607359 -0.2959,0.934398 0.0623,0.342612 0.48278,0.560638 0.38934,0.934397 0.0156,1.199144 -0.0623,2.382714 0,3.581858 0,3.067938 -0.0623,6.120304 0,9.188243 -0.0623,1.339303 0,2.69418 -0.0311,4.033482 -0.29589,0.202454 -0.73195,0.264747 -0.90325,0.591786 0.34261,0.233599 0.68522,0.482772 0.96554,0.794238 -0.0623,0.529492 -0.0156,1.058984 -0.0156,1.588476 -0.0156,4.251509 0,8.518591 -0.0156,12.770101 0.10901,0.872104 0.18688,1.775354 0.0311,2.663033 -0.0156,1.18357 -0.0934,2.36714 -0.0311,3.566283 0.0467,1.744216 -0.0467,3.503996 0.0311,5.248206 0.10902,-0.21803 0.0312,-0.49835 0.0623,-0.73195 -0.0156,-1.55733 0.0156,-3.11465 -0.0311,-4.671989 -0.21803,-0.825384 0.0623,-1.650769 0.0311,-2.491726 0,-1.136851 0.0467,-2.289275 0,-3.426125 -0.0156,-4.469535 0,-8.923496 -0.0156,-13.393032 0.0156,-0.358186 0,-0.716372 0.0623,-1.074557 0.12458,0.498345 0.0623,1.027837 0.0779,1.541756 0,9.219389 0,18.438779 0,27.658173 -0.24917,0.28032 -0.62293,0.48277 -0.71637,0.84096 0.12459,0.1713 0.28032,0.32704 0.40491,0.49834 0.0934,0.56064 -0.12459,1.10571 -0.2959,1.61963 -0.18688,0.0779 -0.35818,0.15573 -0.52949,0.2336 -0.0779,0.4049 -0.1713,0.79424 -0.29589,1.19914 0.15573,0.2959 0.31146,0.60736 0.45162,0.90325 0.35819,0.0156 0.7008,0.14016 1.05899,0.18688 0.26475,-0.0467 0.48277,-0.21803 0.73195,-0.32704 0.32704,-0.1713 0.7008,-0.21802 1.05898,-0.34261 0.18688,-0.15573 0.35819,-0.34261 0.54507,-0.51392 0.42047,0.18688 0.90324,0.21803 1.35487,0.0779 0.51392,-0.15573 1.05898,-0.0156 1.58848,-0.0934 0.20245,-0.28032 0.28032,-0.63851 0.42048,-0.94997 0.98112,-2.36715 1.88437,-4.781 2.88105,-7.14815 1.23029,-3.34825 2.67861,-6.634225 3.92448,-9.982482 0.45162,-1.167997 0.94996,-2.320421 1.40159,-3.488418 0.12458,-0.327039 0.21802,-0.700798 0.45162,-0.965544 0.18688,-0.04672 0.37376,-0.09344 0.56064,-0.109013 0.40491,-0.420479 0.91883,-0.794238 1.10571,-1.37045 0.2336,-0.669651 0.80981,-1.23029 0.68523,-1.993382 0.35818,0.04672 0.60735,0.404906 0.76309,0.716372 0.21802,0.560639 0.4049,1.152424 0.38933,1.759783 0,0.747517 0.0779,1.541755 -0.21803,2.258126 -0.24917,0.124587 -0.52949,0.218027 -0.79424,0.32704 0.0311,0.591785 -0.0779,1.199144 0.12459,1.775356 0.15573,0.498345 0.26475,1.027837 0.12459,1.541756 -0.14016,0.467198 -0.12459,0.94997 -0.0934,1.417169 0.0311,0.482772 0.24917,0.934397 0.24917,1.432743 -0.48277,0.264746 -0.98112,0.545066 -1.41717,0.903251 0.59179,-0.01557 1.21472,0.124587 1.6352,0.576212 0.24917,0.373759 0.4049,0.825384 0.38933,1.292583 0,3.379408 0,6.743248 0,10.122648 0.0623,0.57621 -0.45163,0.96554 -0.7008,1.43274 -0.0779,0.42048 0.12459,0.84096 0.20245,1.24586 0.10902,0.52949 0.31147,1.01227 0.4672,1.52618 0.0934,1.04342 -0.0156,2.08683 0.0623,3.14582 0.76309,-0.40491 1.30815,-1.168 2.14911,-1.44832 0.0934,0.21802 0.15573,0.45162 0.21802,0.7008 0.37376,-0.20246 0.77867,-0.38934 1.21472,-0.32704 0.60736,-0.0623 1.19915,0.0934 1.79093,0.26474 -0.2336,-0.32704 -0.52949,-0.59178 -0.82538,-0.85653 0.21802,-0.40491 0.57621,-0.79424 0.56064,-1.29259 -0.38934,-0.0623 -0.51392,0.49835 -0.90326,0.42048 -0.2336,0 -0.42048,-0.14016 -0.62293,-0.20245 0.77867,-0.49835 1.51061,-1.04341 2.22699,-1.60405 0.29589,-0.21803 0.62292,-0.4049 0.84095,-0.70079 0.0467,-0.18688 0.0779,-0.38933 0.0623,-0.59179 0,-7.00798 0.0156,-14.015969 0,-21.023951 -0.0312,-0.654079 0.35819,-1.199144 0.54507,-1.790928 -0.18688,-0.109013 -0.37376,-0.2336 -0.54507,-0.37376 0.0156,-7.42846 0,-14.856922 0,-22.285382 0,-0.233599 0.10901,-0.436052 0.18688,-0.638506 0.31147,0.358187 0.4672,0.825385 0.74752,1.230291 0.26475,-0.358186 0.26475,-0.809812 0.43605,-1.199144 0.21803,-0.358185 -0.1713,-0.622932 -0.34261,-0.887677 -0.29589,-0.01557 -0.60736,0.04672 -0.90325,-0.04672 -0.18688,-0.155734 -0.0934,-0.436052 -0.12459,-0.638505 0,-2.382715 0,-4.765428 0,-7.148142 0.60736,-0.233599 1.24587,-0.218026 1.8688,-0.202452 0.0156,-0.295894 0.0156,-0.591786 0,-0.903252 -0.37376,0.07787 -0.71637,0.171306 -1.07456,0.264746 -0.34261,-0.513918 -0.73195,-0.981117 -1.01227,-1.541755 -0.37375,-0.04672 -0.68521,0.155732 -0.99668,0.311465 -0.66965,-0.591785 -1.41717,-1.090131 -2.11797,-1.635196 -0.49835,-0.358185 -0.96555,-0.763092 -1.49504,-1.074557 0.0623,-0.311465 0.17131,-0.669652 -0.0779,-0.949971 -0.0934,-0.264746 -0.35818,-0.09344 -0.54506,-0.06229 -0.80981,-0.14016 -1.54175,-0.560639 -2.11797,-1.121277 -0.0623,-0.28032 -0.12458,-0.560639 -0.18688,-0.840959 0.31147,-0.264745 0.79424,-0.311465 1.01227,-0.685224 0.0311,-0.420479 -0.18688,-0.809811 -0.14016,-1.23029 5.13919,-0.04672 10.29395,-0.01557 15.43313,-0.03115 0.26475,0 0.51392,0 0.77867,0.03115 0.24917,0.04672 0.32704,0.311465 0.40491,0.513919 0.0623,0.436052 0.0156,0.872104 0.0156,1.308157 -0.34261,0.513918 -0.79424,0.934397 -1.19915,1.386022 0.2336,0 0.4672,0 0.71638,0 0.4049,-0.420478 0.77866,-0.887677 1.33929,-1.058984 0.0311,-0.436052 0.0467,-0.934397 0.37376,-1.261437 0.2336,-0.249172 0.45163,-0.482772 0.71637,-0.685224 0.62294,-0.295893 1.35488,-0.28032 2.02454,-0.14016 0.51392,0.109013 1.05898,0.04672 1.5729,0.06229 0.29589,0.233599 0.70079,0.109013 1.0434,0.171306 0.87211,0.18688 1.75979,0.295893 2.64747,0.482772 1.61962,0.28032 3.20809,0.763092 4.76543,1.32373 0.46719,0.202454 0.94997,0.342612 1.38602,0.622932 0.28032,0.451626 0.45163,0.965544 0.76309,1.401596 0.37376,0.529492 0.84096,1.012264 1.04341,1.650769 -0.23359,-0.03115 -0.46719,-0.171305 -0.68522,-0.03115 0.10901,0.358186 0.45163,0.654078 0.8098,0.747518 0.43606,-0.03115 0.84096,-0.109013 1.26144,-0.202453 0.45163,-0.04672 0.91883,-0.01557 1.37045,-0.03115 0.15574,-0.264745 0.31147,-0.513918 0.48278,-0.76309 0.77866,0.420478 1.38602,1.074557 2.1024,1.604049 0.77865,0.778664 1.55732,1.557329 2.33598,2.335994 0.28032,0.389332 0.59179,0.763091 0.9344,1.09013 1.32374,1.728635 2.56959,3.550711 3.48842,5.544092 0.21802,0.451626 0.48277,0.887678 0.60736,1.386024 0.10901,0.80981 -0.0623,1.650769 0.0779,2.46058 0.31147,0.420479 0.71638,0.763091 1.21472,0.949971 0.9967,2.927779 1.58848,5.980145 1.96224,9.03251 0.0156,0.311466 -0.0311,0.622932 0.0623,0.918824 0.15574,0.513918 0.0623,1.043411 0.0779,1.572903 -0.0156,0.327039 0.1713,0.607358 0.15572,0.934398 0,2.133541 0,4.251509 0,6.38505 0.0467,0.731945 -0.20244,1.432742 -0.15572,2.180261 -0.28032,0.716372 -0.37376,1.510609 -0.65408,2.226981 -0.20245,0.109013 -0.48277,0.109013 -0.62293,0.295893 -0.0311,0.373759 -0.0311,0.747517 -0.10901,1.121276 0.29589,0 0.60735,-0.03115 0.8721,0.07787 -0.31147,0.04672 -0.62293,0.04672 -0.91882,0.07787 0.28032,0.109013 0.59178,0.03115 0.88767,0.04672 -0.0467,1.121277 -0.35818,2.211408 -0.51392,3.317112 -1.04341,4.594125 -2.81877,9.063665 -5.62195,12.863545 -0.71638,0.98112 -1.44832,1.96224 -2.35158,2.78762 -0.48277,0.49835 -0.98112,0.99669 -1.46389,1.49503 -1.16799,0.94997 -2.30484,1.93109 -3.59743,2.69419 l -0.15573,-0.0156 c -0.4049,-0.59178 -0.84096,-1.18357 -1.18357,-1.8065 -0.0779,-0.4672 0.0467,-0.94997 -0.12459,-1.4016 -0.12458,0.43605 -0.26474,0.85653 -0.42048,1.27701 -0.0934,0.24917 -0.12458,0.54507 0,0.79424 0.21803,0.49835 0.45163,1.01227 0.35819,1.55733 -0.10901,0.34262 -0.31147,0.63851 -0.59179,0.85654 -0.28031,0.15573 -0.59177,-0.0311 -0.85652,-0.12459 -0.48277,0.42048 -0.96555,0.88767 -1.54176,1.15242 -2.5073,0.98111 -5.12361,1.66634 -7.77108,2.02453 -0.4049,0.10901 -0.84095,0.0779 -1.26143,0.0934 -0.4672,0.0467 -0.85653,-0.24918 -1.24586,-0.45163 -0.35819,-0.2336 -0.80981,-0.43605 -0.98112,-0.87211 -0.12459,-0.24917 -0.0156,-0.52949 0,-0.77866 -0.24917,0.0312 -0.51392,0.0312 -0.74752,0.14016 -0.17131,-0.0311 -0.35819,-0.14016 -0.52949,-0.0779 -0.43606,0.15573 -0.87211,0.28032 -1.30816,0.37376 -0.68522,-0.54506 -1.55732,-0.71637 -2.38271,-0.93439 0.21803,0.57621 0.52949,1.1057 0.79424,1.66634 -0.20245,0.20245 -0.40491,0.4049 -0.59179,0.62293 1.02784,0.0311 2.07124,-0.0467 3.09908,0.0311 0.26475,0.10901 0.79424,0.0934 0.77867,0.48277 -0.2336,0.10901 -0.49835,0.0623 -0.73195,0.0779 -7.44402,-0.0156 -14.87249,-0.0156 -22.31653,-0.0156 -0.35818,0 -0.73193,-0.20245 -0.90324,-0.51392 0.0467,-0.68522 -0.24917,-1.3393 -0.15573,-2.02453 0.21802,-0.29588 0.51391,-0.52948 0.74751,-0.79423 -0.68522,0.0311 -1.02783,0.85653 -1.68191,0.90325 -0.29589,-0.54506 -0.26475,-1.18357 -0.42048,-1.75978 -0.51392,-0.43605 -0.88768,-0.99669 -1.27701,-1.54176 -0.0467,-0.0311 -0.14016,-0.0779 -0.18688,-0.10901 0.15573,0.51392 0.32704,1.04341 0.51392,1.54176 0.21802,0.37376 0.65408,0.59178 0.80981,1.02784 0.0311,0.34261 -0.0934,0.70079 0.0623,1.02783 0.18688,0.4049 0.4672,0.76309 0.73195,1.12127 -0.88768,0.2336 -1.54176,0.98112 -2.44501,1.12128 -5.2482,0 -10.4964,0.0156 -15.7446,0 -0.54507,-0.48277 -1.32373,-0.45162 -2.00896,-0.42048 0.12459,-0.32704 0.31147,-0.59178 0.57621,-0.79424 -0.32704,-0.29589 -0.52949,-0.66965 -0.66965,-1.09013 -0.45162,0.52949 -0.76308,1.18357 -1.24586,1.66635 -0.45162,0.28032 -0.90325,0.66965 -1.46389,0.6385 -5.76212,0 -11.52424,0.0156 -17.28636,0 -0.73194,-0.12458 -1.40159,-0.62293 -2.18026,-0.57621 -0.45162,0.0311 -0.8721,-0.15574 -1.32372,-0.17132 -0.28032,-0.43604 -0.57622,-0.88768 -0.71638,-1.38602 -0.21802,0.18688 -0.24917,0.48277 -0.37376,0.73194 -0.15573,0.40491 -0.48277,0.66966 -0.76309,0.96555 -0.68522,-0.0156 -1.41717,-0.0467 -1.96224,0.43605 -0.35817,0 -0.73193,0.0311 -1.09012,-0.0156 -0.29589,-0.10901 -0.54507,-0.26475 -0.80981,-0.42048 -0.80981,0.57621 -1.85323,0.12459 -2.75648,0.35819 -0.35819,0.10901 -0.73195,0.0934 -1.10571,0.0779 -8.34728,0 -16.67898,0.0156 -25.010697,0 -0.35819,1.12128 -0.76309,2.24256 -1.12128,3.36383 -0.731947,2.35157 -1.572904,4.672003 -2.335996,7.007993 -0.389332,1.21471 -0.778664,2.44501 -1.214717,3.64414 -0.389332,0.51392 -1.09013,0.43606 -1.635196,0.59179 0.09344,-0.2336 0.18688,-0.4672 0.28032,-0.68523 -0.389332,-0.20245 -0.825385,-0.31145 -1.23029,-0.48276 -0.545066,0.35818 -0.949971,0.88767 -1.277011,1.44831 -0.124585,0.42048 0.32704,0.65408 0.498347,0.98112 -0.342614,0.0934 -0.747519,-0.0467 -1.043412,0.14016 0.32704,0.37376 0.669652,0.77866 1.121277,1.01226 0.856532,-0.20245 1.55733,-0.94997 2.460581,-0.9344 0.07787,0.28032 -0.06229,0.56064 -0.14016,0.82539 -0.218025,0.62293 -0.436052,1.23029 -0.560639,1.8688 -0.01557,0.18688 -0.186878,0.38932 -0.404905,0.34261 -1.354877,0.0156 -2.709753,0.0156 -4.06463,0 -0.186879,-0.20245 -0.389332,-0.4049 -0.591785,-0.59178 -0.420479,0.24917 -0.934397,0.14016 -1.417169,0.1713 -0.763092,0.0467 -1.479463,-0.29589 -2.164688,-0.57621 -0.389332,0.20245 -0.825384,0.28032 -1.261437,0.32704 -0.436052,0.10901 -0.607359,0.70079 -1.090131,0.68522 -3.223671,-0.0156 -6.447343,0.0156 -9.671015,-0.0311 -0.109013,-0.57621 -0.622931,-0.85653 -1.105703,-1.07456 -0.794238,0.24917 -1.635196,0.37376 -2.41386,0.66965 -0.716372,0.2959 -1.510611,-0.0156 -2.226981,0.26475 -0.654079,0.24916 -1.354877,0.15573 -2.024529,0.1713 -8.456298,0 -16.92817,-0.0156 -25.384468,0 -0.856532,0.0467 -1.666342,-0.26474 -2.445007,-0.59178 -0.451626,-0.18688 -0.981118,-0.21803 -1.432743,-0.0156 -0.202453,-0.0934 -0.404905,-0.14016 -0.622932,-0.12459 -0.18688,0.43605 -0.622932,0.74751 -1.105704,0.73194 -2.958925,0 -5.917851,-0.0156 -8.876777,0 -0.311466,-0.0156 -0.622931,0.0156 -0.918824,-0.0623 0.04672,-0.18688 0.14016,-0.35818 0.28032,-0.48277 -0.311467,-0.26475 -0.716372,-0.34261 -1.074558,-0.49835 -0.140159,0.0623 -0.280319,0.12459 -0.404906,0.18688 -0.451625,-0.43605 -0.872104,-0.91882 -1.339303,-1.32373 -0.498345,-0.0467 -0.887678,0.34261 -1.37045,0.29589 -0.576212,-0.0156 -1.199144,0.31148 -1.681916,-0.1713 0.03115,0.20245 0.09344,0.38933 0.202453,0.56064 -0.342612,0.49835 -0.794238,1.10571 -1.479462,1.05898 -0.42048,0.0311 -0.825385,-0.15573 -1.245864,-0.1713 0.109013,0.24917 0.04672,0.66964 -0.311465,0.59178 -0.887679,0.0156 -1.759783,0 -2.647461,0.0156 -0.545065,0.0156 -1.058984,-0.21802 -1.6196216,-0.1713 0.07787,-0.74752 0.140159,-1.52619 0.4360526,-2.22699 -0.04672,-0.0779 -0.1713066,-0.21802 -0.2335996,-0.28032 -0.202453,0.66966 -0.171307,1.43275 -0.654079,1.97782 -0.233599,0.43605 -0.716372,0.5295 -1.152424,0.59178 -0.685224,0.17131 -1.386022,0.0779 -2.0712473,0.10901 -1.1524238,-0.0156 -2.3048475,0.0156 -3.4572712,-0.0311 -0.109013,-0.2336 0.1090131,-0.43605 0.2180261,-0.62293 0.2491728,-0.34262 0.4516256,-0.73195 0.7163715,-1.07456 0.2958926,0.0623 0.5917852,0.10902 0.903251,0.10902 0.2335994,-0.49835 0.5139187,-0.9967 0.6229318,-1.54177 0.1557329,-0.52949 0.1868795,-1.12128 0.482772,-1.60405 3.7531641,-5.59081 7.4751797,-11.212763 11.2283437,-16.803573 0.965545,-1.51061 2.008956,-2.9745 2.974499,-4.48511 0.622932,-0.91883 1.214718,-1.85322 1.884369,-2.75647 0.498346,0.24917 0.981118,0.63851 1.572903,0.63851 0.06229,-0.0467 0.155732,-0.12459 0.218025,-0.17131 -0.140159,-0.85653 -0.218025,-1.71307 -0.373758,-2.55402 0.07787,-0.32704 0.342612,-0.56064 0.498345,-0.84096 0.840957,-1.29258 1.713062,-2.56959 2.569593,-3.8466 1.199144,-1.8688 2.491728,-3.65973 3.644151,-5.544102 0.856531,-1.261436 1.666343,-2.538447 2.5073,-3.78431 0.389332,-0.607359 0.887678,-1.167997 1.510609,-1.541756 0.264747,-0.18688 0.576212,-0.342612 0.731946,-0.638505 0.140159,-0.856531 0.389332,-1.713063 0.872104,-2.445007 0.529492,-0.887678 1.152423,-1.744209 1.713062,-2.616313 0.28032,-0.451626 0.700799,-0.763092 1.043411,-1.152424 0.482772,-0.700798 1.18357,-1.245864 1.46389,-2.086821 0.249172,-0.731945 0.638504,-1.46389 1.370449,-1.775356 0,-0.280319 0,-0.545065 0.01557,-0.809811 6.75881,-10.153787 13.533192,-20.292002 20.292002,-30.430215 0.794237,-1.261437 1.697489,-2.46058 2.538446,-3.675297 0.716372,-0.731945 1.308157,-1.572903 1.977809,-2.335995 0.01557,-0.280318 0,-0.560638 0,-0.840957 0.560639,-0.700798 1.027837,-1.479463 1.495036,-2.242554 0.560639,-0.887679 1.214717,-1.713063 1.697489,-2.64746 -0.685225,-0.01557 -1.37045,0.03115 -2.040102,-0.01557 -0.482772,-0.109014 -0.934397,-0.295893 -1.339303,-0.545066 -0.06229,-0.171306 -0.14016,-0.342613 -0.18688,-0.513918 -0.685224,0.389332 -1.432742,0.669651 -2.164687,0.965544 -0.420479,0.171305 -0.872104,0.09344 -1.292583,0.109013 -8.144832,0 -16.305239,0 -24.450071,0 -0.560639,-0.04672 -1.074557,-0.342613 -1.635196,-0.404906 -0.903251,0.311466 -1.884368,0.171306 -2.772046,-0.171306 -0.654078,0.155732 -1.27701,0.513919 -1.977808,0.436052 -1.105704,0.264746 -2.258128,0.06229 -3.379405,0.155733 -0.373759,0.186879 -0.669651,0.482772 -0.996691,0.716371 -0.685225,0.622932 -1.495036,1.090131 -2.195834,1.697489 -0.498345,0.404906 -0.996691,0.778665 -1.526183,1.121277 -0.171306,0.14016 -0.373758,0.109014 -0.576212,0.14016 -0.04672,-0.591785 0.124587,-1.27701 -0.327038,-1.775355 -0.622932,0.124586 -1.214717,0.358185 -1.853223,0.436052 0.2336,0.622932 0.2336,1.41717 -0.280318,1.899942 -0.32704,0.529492 -0.825385,0.918824 -1.199144,1.432743 0.249172,0.07787 0.498345,0.140159 0.747517,0.202453 -0.171305,0.404905 -0.529492,0.669652 -0.840957,0.965544 -1.074557,0.887677 -2.258128,1.666342 -3.332685,2.569593 -1.962235,1.479463 -3.940043,2.912206 -5.8711306,4.422815 -2.616313,1.962236 -5.2014805,3.92447 -7.8022205,5.902278 -0.529525,0.358209 -0.99672379,0.809834 -1.58850889,1.105726 0.8876777,-2.569593 1.93108829,-5.06132 2.83433939,-7.61534 0.4827721,0.109013 0.9343976,-0.124586 1.4015964,-0.124586 0.482772,-0.01557 0.8876777,-0.32704 1.2770101,-0.560639 C 5.2765181,23.702068 4.684733,23.530762 4.2642541,23.172576 4.0773745,22.95455 3.9527882,22.689803 3.8593484,22.409484 c 0.09344,-0.373758 0.2335994,-0.731945 0.3581858,-1.09013 0.8876777,-2.242554 1.6196225,-4.547402 2.6007402,-6.75881 0.233599,-0.560638 0.700798,-0.981117 1.043411,-1.463889 0.451625,-0.654078 0.887677,-1.308157 1.13685,-2.071248 -0.07787,-0.342613 -0.311466,-0.638505 -0.529493,-0.918825 0.51392,-1.4638885 1.121278,-2.8810575 1.6040506,-4.3605215 0.66965,-1.744208 1.354876,-3.50399 2.008954,-5.24819901 0.01557,-0.109014 0.04672,-0.202454 0.06229,-0.311466 M 82.19301,10.04429 c -0.716371,0.934397 -1.479463,1.837648 -2.195834,2.772046 -0.451626,0.576211 -1.27701,0.654078 -1.728635,1.245863 0,0.295893 -0.01557,0.591785 -0.01557,0.887678 -1.370451,1.697488 -2.7409,3.394977 -4.095777,5.123613 -0.311465,0.342613 -0.654079,0.685225 -1.012264,0.996691 -0.529492,0.389333 -1.245864,0.700798 -1.401597,1.432743 -0.747517,1.619623 -1.993381,2.958926 -3.099085,4.360523 -0.918824,1.199143 -1.915515,2.351566 -2.83434,3.566283 -0.887677,1.027837 -1.728634,2.086821 -2.554019,3.176952 -0.747519,0.825385 -1.41717,1.697489 -2.102395,2.569594 -0.327039,0.373759 -0.872105,0.451625 -1.167997,0.856531 -0.2336,0.249173 -0.2336,0.607358 -0.342612,0.90325 -0.295893,0.389333 -0.700798,0.669652 -0.965545,1.074558 -0.249172,0.389333 -0.467199,0.778665 -0.716371,1.167997 -0.358186,0.560638 -0.218026,1.261437 -0.436052,1.884369 0.358186,-0.249173 0.607358,-0.638506 1.012264,-0.809812 0.04672,1.619622 -0.01557,3.223672 0.03115,4.843295 0.981117,-0.37376 1.853221,-0.965545 2.818765,-1.37045 0.731945,-0.373759 1.46389,-0.731945 2.195834,-1.121277 0.840959,-0.560639 1.121278,-1.60405 1.65077,-2.429434 0.451626,-0.669652 0.669651,-1.448317 1.167997,-2.086822 0.420479,-0.295892 0.949971,-0.233599 1.432743,-0.264745 0.140159,-0.124587 0.264746,-0.264747 0.389332,-0.389332 -0.280319,-0.482773 -0.529492,-0.981119 -0.560638,-1.541757 0.389332,-0.965544 0.94997,-1.837648 1.432742,-2.772046 0.404907,-0.591785 0.654079,-1.27701 1.058984,-1.868795 0.32704,-0.513919 0.513919,-1.105704 0.903252,-1.588476 0.186879,-0.18688 0.467199,-0.264746 0.685224,-0.404905 0.18688,-0.4672 0.32704,-0.965545 0.716372,-1.308157 0.467199,-0.576212 1.245864,-0.872104 1.572902,-1.55733 -0.186878,-0.513918 -0.420478,-1.074557 -0.249172,-1.650769 0.311466,-0.685225 0.685224,-1.354877 1.090131,-1.993382 0.747517,-1.448316 1.541756,-2.896632 2.36714,-4.298229 0.591785,-1.230289 1.27701,-2.398286 1.931089,-3.59743 0.700798,-1.167997 1.292583,-2.398288 1.993381,-3.566285 0.358186,-0.80981 0.918825,-1.510609 1.245864,-2.3204195 -0.06229,0.01557 -0.171307,0.06229 -0.218027,0.07787 M 138.7085,21.319357 c -0.0156,0.731945 0.0156,1.463889 -0.0156,2.195834 -0.0311,0.218026 -0.26474,0.280319 -0.42048,0.373759 -0.49834,0.14016 -1.01226,-0.01557 -1.51061,-0.06229 0.59179,0.358186 1.19915,0.794238 1.93109,0.731945 0.0156,7.116995 0,14.249563 0.0156,21.366558 -0.0156,0.264746 0.0311,0.529492 -0.0467,0.778665 -0.4672,0.358186 -0.98112,0.622931 -1.49504,0.872105 -0.32704,-0.14016 -0.7008,-0.218027 -0.94998,-0.467199 -0.4049,-0.389333 -0.49834,-0.965545 -0.74751,-1.46389 -0.57622,-1.167997 -1.19915,-2.32042 -1.74422,-3.503991 -0.31145,-0.887678 -0.8098,-1.697489 -1.21471,-2.538447 -0.18688,-0.311466 0.0779,-0.669651 -0.0311,-0.981117 -0.0779,-0.560639 -0.34262,-1.043411 -0.54507,-1.572903 -0.12459,-0.295892 -0.0623,-0.638505 -0.14016,-0.949971 -0.34261,-0.389332 -0.8721,-0.560638 -1.23029,-0.934397 -0.56064,-0.482773 -0.77867,-1.199144 -1.05899,-1.853222 -0.29589,-0.607359 -0.59178,-1.214717 -0.88768,-1.822076 -0.32704,-0.622932 -0.48276,-1.308156 -0.73193,-1.962234 0.32703,-0.202454 0.68521,-0.373759 1.0434,-0.513919 0,-0.342613 0,-0.700799 0,-1.058984 -0.18688,-0.124587 -0.37376,-0.249173 -0.56064,-0.358186 -0.32703,0 -0.62292,0.233599 -0.93439,0.109013 -0.4672,-0.109013 -0.8721,-0.389332 -1.24586,-0.700798 -0.68523,0.03115 -1.33931,0.311466 -2.02454,0.311466 -2.99006,-0.01557 -5.98014,0 -8.97021,-0.01557 0.0156,1.074557 0,2.133541 0.0156,3.208098 0.0156,0.529492 -0.14016,1.04341 -0.29589,1.557329 -0.0934,0.37376 -0.48277,0.545065 -0.76309,0.778665 0.35818,0.965544 0.99669,1.884368 1.05898,2.958925 -0.0156,4.671989 -0.0156,9.343976 -0.0156,14.015965 0,0.342612 -0.0311,0.700797 -0.0467,1.043411 1.44832,0.01557 2.89663,0.01557 4.34495,0.01557 0.51392,-0.01557 1.02784,0.04672 1.54176,-0.04672 -1.49504,-0.07787 -3.00566,-0.03115 -4.50068,-0.04672 -0.40491,-0.01557 -0.82539,0.09344 -1.19915,-0.07787 0.0156,-0.01557 0.0467,-0.06229 0.0779,-0.07787 1.82208,0.07787 3.65972,0.03115 5.49737,0.03115 0.34261,-0.18688 0.57621,-0.513918 0.79424,-0.825384 0.57621,-0.716372 1.12127,-1.448317 1.72863,-2.117967 1.41717,-1.868796 3.00565,-3.613005 4.39167,-5.512946 0.38933,-0.04672 0.77866,0.124585 1.02783,0.436052 0.32704,0.404905 0.60736,0.85653 0.94998,1.261437 0,2.725326 0.0156,5.450652 -0.0156,8.191552 -0.51392,-0.01557 -0.80981,0.482772 -0.88768,0.934397 -0.0779,0.342612 0.0934,0.669652 0.21803,0.981118 0.2336,0.03115 0.4672,0.04672 0.71637,0.06229 -0.0467,0.731945 -0.0311,1.463889 -0.0156,2.180261 -0.10901,0.155733 -0.21803,0.311465 -0.29589,0.482772 -0.14016,0.576212 0.32704,1.074557 0.28032,1.650769 0,3.161378 0,6.33833 0,9.499709 0.0467,0.233599 -0.12459,0.420479 -0.34262,0.451626 -0.6385,0.218025 -1.30815,0.373758 -1.96223,0.264745 -0.66965,-1.027837 -1.43274,-1.977808 -2.16469,-2.958925 -0.54506,-0.809812 -1.15242,-1.572903 -1.72864,-2.367141 -0.54506,-0.763092 -0.74752,-1.744209 -1.46388,-2.398288 -0.34261,-0.436052 -0.65408,-0.90325 -1.12128,-1.214716 -0.42048,-0.233599 -0.7008,-0.638505 -1.07456,-0.918825 -0.74752,-0.498345 -1.21472,-1.339302 -2.0401,-1.713062 -0.48277,0.14016 -0.90324,0.451626 -1.35487,0.669652 0.20245,0.124586 0.82538,0.2336 0.48277,0.560638 -0.73194,0.420479 -1.65077,0.716372 -1.97781,1.572903 0.0311,0.06229 0.10901,0.18688 0.14016,0.249173 0.0156,0.887677 0.0156,1.775356 0,2.678606 -0.40491,0.763092 -0.84096,1.541756 -1.57291,2.071248 0.12459,0.2336 0.0623,0.685225 0.42048,0.685225 0.0934,-0.03115 0.26475,-0.09344 0.35819,-0.124586 0.42048,1.04341 0.87211,2.133541 0.79424,3.270391 0,5.030172 0.0156,10.060352 0,15.106102 1.168,0.10901 2.35156,0 3.51956,0.0467 0.79424,0.14016 1.57291,0.26474 2.32043,0.54506 0.56064,-0.18688 1.18357,0 1.72862,-0.28032 1.15243,-0.42048 2.3983,-0.21802 3.59744,-0.28032 0.28032,-0.29589 0.4672,-0.66965 0.79424,-0.9344 0.24917,-0.2336 0.60736,-0.31146 0.85653,-0.54506 0.0467,-0.37376 -0.0311,-0.7631 0.10902,-1.12128 0.38932,-0.74752 0.96553,-1.37045 1.40159,-2.10239 0.0156,-0.43605 -0.5295,-0.18688 -0.79424,-0.2336 0.2336,-0.71637 0.60736,-1.38603 0.8721,-2.1024 1.10571,-2.21141 1.97781,-4.51625 3.05237,-6.727661 0.82539,-1.806503 1.55733,-3.659725 2.44501,-5.43508 0.18688,-0.498345 0.4049,-0.981118 0.76309,-1.37045 0.35818,-0.249172 0.7008,-0.545065 1.01226,-0.840957 0.15574,0.124585 0.32704,0.218025 0.5295,0.264745 -0.0156,-0.498345 -0.12459,-0.99669 -0.20246,-1.495036 -0.18688,0.04672 -0.38933,0.09344 -0.57621,0.14016 0.0623,-0.436053 0.32704,-0.794238 0.4672,-1.199144 0.0934,-0.249173 0.18688,-0.482772 0.38933,-0.669651 0.14016,0.482772 0.38934,0.934397 0.34262,1.448315 -0.0779,0.747519 0.56064,1.245864 0.8721,1.853223 0.0311,4.002336 0,8.004672 0.0156,12.007006 0.0156,0.71637 -0.31147,1.4016 -0.87211,1.85323 0,0.0934 -0.0156,0.31146 -0.0311,0.42047 -0.42048,0.4672 -0.57621,1.09014 -0.8721,1.6352 -0.54507,0 -1.09014,-0.28032 -1.66635,-0.26474 0,0.0311 0,0.10901 0,0.15573 0.24918,0.0623 0.49835,0.14016 0.74752,0.20245 0.17131,0.34262 0.34261,0.68522 0.52949,1.02783 -0.62293,0.45163 -1.44831,0.21803 -2.08682,-0.0623 0.0311,0.31147 0.12459,0.60736 0.20245,0.90325 0.43606,-0.0623 0.85654,0.0311 1.29259,0.14016 0.18688,-0.10901 0.32704,-0.28032 0.49834,-0.43605 0.20246,0.0623 0.48278,0.24917 0.66966,0.0623 0.37376,-0.28032 0.48277,-0.74752 0.77866,-1.09013 0.45163,-0.10901 0.59179,0.43605 0.79424,0.73195 0.0156,3.48842 0.0156,6.97683 0,10.46525 0.82538,-0.43605 1.52618,-1.07455 2.2737,-1.61962 0.59178,-0.49834 1.29258,-0.8721 1.93109,-1.32373 0.32704,-0.28032 0.65408,-0.57621 1.04341,-0.79424 0.35819,-0.21803 0.79423,-0.24917 1.18356,-0.38933 0.38934,-0.2959 0.54507,-0.80981 0.9344,-1.10571 0.32704,-0.28032 0.63851,-0.60736 0.94998,-0.90324 0.0156,-6.83668 0.0156,-13.673357 0.0156,-20.510032 0.0156,-0.482772 -0.0779,-0.981118 0.10901,-1.432743 0.18688,-0.529492 0.32704,-1.105704 0.7008,-1.526184 0.10902,-0.186878 0.31147,-0.07787 0.4672,-0.04672 -0.0311,-0.202453 -0.1713,-0.436052 -0.0623,-0.638505 0.18688,-0.2336 0.45163,-0.420479 0.57621,-0.700798 -0.26474,-0.09344 -0.52949,-0.249173 -0.82538,-0.218027 -0.32704,0.04672 -0.63851,0.171307 -0.94998,0.28032 -0.0467,-10.620986 0,-21.241972 -0.0311,-31.862958 -0.35819,-0.529492 -1.05899,-0.825384 -1.15243,-1.541756 0.14016,-0.358186 0.14016,-0.794238 0.42048,-1.090131 0.21803,-0.14016 0.48277,-0.202453 0.68523,-0.373759 0.1713,-0.342613 0.2336,-0.731945 0.20245,-1.105703 -0.29589,-0.202454 -0.29589,-0.560639 -0.34261,-0.872105 -0.10902,0.996691 -0.54507,1.993382 -1.30816,2.663033 -0.42048,0.09344 -0.85653,0.03115 -1.277,0.04672 -0.68523,-0.529492 -1.43275,-0.965544 -2.07126,-1.526183 -1.15242,-0.872104 -2.28927,-1.759782 -3.45726,-2.569593 m 65.59471,6.52521 c -0.0934,1.775356 -0.0156,3.566284 -0.0467,5.357213 -0.26475,0.622931 -0.48278,1.354877 -1.168,1.650769 -0.0311,0.467198 0,0.94997 0.12459,1.41717 0.10901,1.292583 0.57621,2.616313 0.1713,3.893322 0,0.264747 0.12459,0.513919 0.14016,0.778666 0.0934,0.872104 0.52949,1.650769 0.73195,2.491726 -0.14016,0.4672 -0.18688,0.934398 -0.14016,1.41717 -0.0467,0.06229 -0.12459,0.186879 -0.17131,0.249172 0.26475,0.28032 0.0467,0.731946 0.29589,0.981119 0.0467,7.490754 0,14.997081 0.0311,22.487834 -0.15573,0.14016 -0.29589,0.264747 -0.45163,0.404907 0,0.763091 0,1.541756 0,2.32042 -0.2336,-0.124586 -0.48277,-0.233599 -0.71637,-0.373759 -0.0156,0.389332 -0.0467,0.778665 -0.0156,1.168005 0.0934,0.68522 0.49834,1.27701 0.84096,1.86878 0.0779,0.15574 0.20245,0.28032 0.32704,0.42048 0.0156,3.19253 -0.0156,6.40063 0.0156,9.59316 1.38602,-0.49835 2.70975,-1.24587 3.79988,-2.25813 0.85653,-0.59179 1.44832,-1.44832 2.11796,-2.21141 0.56064,-0.70079 1.01227,-1.49503 1.54176,-2.22698 2.16469,-3.78431 3.47285,-8.035821 3.98676,-12.349623 0.10902,-0.591785 0.20246,-1.18357 0.26475,-1.790929 0.14016,-0.498345 0.0934,-1.074557 0.35819,-1.526182 0.51392,0.124586 1.01226,0.358185 1.54175,0.482772 -0.35818,-0.498346 -0.90325,-0.840958 -1.16799,-1.401596 -0.14016,-0.295893 -0.34262,-0.560639 -0.32704,-0.903252 0,-2.024528 0,-4.049056 0,-6.073584 0.0311,-0.420479 -0.17131,-0.825385 -0.15574,-1.245863 -0.0311,-0.654079 0.0934,-1.323731 -0.0934,-1.946663 -0.14016,-0.529491 0.0311,-1.09013 -0.14016,-1.604049 -0.34261,-2.725326 -0.71636,-5.497372 -1.60404,-8.129259 -0.20245,-0.887677 -0.62293,-1.713062 -0.90325,-2.585166 -0.37376,-1.043411 -0.91883,-1.993381 -1.4016,-2.9745 -0.28032,-0.607357 -0.71637,-1.136849 -1.05899,-1.713061 -0.42048,-0.622932 -0.82538,-1.245864 -1.35487,-1.759782 -0.60736,-0.903252 -1.49504,-1.541756 -2.30485,-2.226981 -0.48277,-0.342612 -1.01226,-0.638506 -1.51061,-0.965544 -0.48277,-0.311467 -1.05899,-0.451627 -1.55732,-0.716372 M 50.298909,53.057726 c -0.872105,0.373759 -1.728636,0.747517 -2.631887,1.058984 -0.171306,0.09344 -0.513918,0.07787 -0.498345,0.358185 0.233599,0.545065 0.06229,1.152424 0.202452,1.728636 0.14016,0.513919 0.03115,1.058984 0.155734,1.588476 0.109013,0.404905 0.03115,0.825385 0.140159,1.23029 0.140159,0.420479 0.03115,0.856531 0.140159,1.27701 0.06229,0.233599 0.07787,0.482773 0.109014,0.716371 2.149114,-0.872104 4.344948,-1.697489 6.494063,-2.600739 0.249173,-0.109014 0.545065,-0.14016 0.747518,-0.342612 -0.2336,-1.666343 -0.545065,-3.317112 -0.731945,-4.983454 -0.14016,-0.513919 -0.03115,-1.090131 -0.311465,-1.572903 -1.245864,0.591784 -2.522874,1.090131 -3.815457,1.541756 m -8.004674,12.380768 c -0.295892,0.2336 -0.591784,0.436052 -0.887677,0.669652 -0.124586,0.342612 -0.124586,0.731944 -0.389332,1.012264 -0.404905,0.467198 -1.027837,0.576211 -1.572902,0.747518 -0.949972,0.685224 -1.572903,1.728635 -2.117968,2.7409 -0.529492,0.794237 -0.856532,1.697489 -1.370451,2.491729 -0.280318,0.52949 -0.700798,0.98111 -0.981117,1.52618 -0.389332,0.74752 -0.872105,1.43274 -1.308157,2.14912 -0.218025,1.15242 -1.04341,2.05567 -1.479462,3.1458 -0.18688,0.62293 -0.778666,1.02784 -1.339304,1.32373 -0.482772,0.38933 -0.249172,1.07456 -0.420479,1.58848 -0.09344,0.80981 -0.669652,1.41717 -1.012264,2.13353 -0.99669,1.83765 -2.024528,3.65973 -3.036791,5.49738 -0.809812,1.5729 -1.759783,3.06794 -2.538448,4.65642 -1.027837,1.82207 -2.086821,3.64415 -3.036792,5.497373 -0.295893,0.49834 -0.638505,0.96554 -0.778665,1.52618 0.295893,-0.0934 0.467199,-0.35819 0.622932,-0.59179 2.226981,-2.663033 4.344949,-5.403933 6.556357,-8.082533 1.261437,-1.57291 2.491727,-3.17696 3.815456,-4.73428 0.840959,-1.12128 1.790929,-2.1647 2.631887,-3.28597 0.342613,-0.37376 0.700798,-0.7631 0.981118,-1.19914 0.436052,0 0.872104,0.0467 1.245863,0.28032 0.01557,0.12458 0.03115,0.35818 0.04672,0.48276 0.06229,-0.0467 0.18688,-0.12458 0.249173,-0.1713 -0.18688,-0.48277 -0.436053,-0.93439 -0.716372,-1.38602 0.171307,-0.48277 0.498345,-0.90325 0.840958,-1.27701 1.495036,-1.88437 2.990072,-3.76874 4.516255,-5.62196 1.105704,-1.33931 2.133541,-2.72533 3.254818,-4.04906 0.03115,-0.60735 0,-1.214715 0.01557,-1.822074 0,-0.389332 0.218027,-0.731944 0.311467,-1.09013 -0.03115,-0.295892 -0.37376,-0.482772 -0.311467,-0.778664 0.06229,-0.436052 0.311467,-0.825385 0.436052,-1.245864 0.03115,-0.545065 0.01557,-1.074557 -0.01557,-1.604049 -0.342612,0.14016 -0.654077,0.342612 -1.012264,0.467198 -0.280319,0.01557 -0.560638,0 -0.840957,-0.01557 -0.06229,-0.327039 -0.14016,-0.654078 -0.18688,-0.996691 -0.04672,0.01557 -0.14016,0.01557 -0.171307,0.01557 m 25.05743,5.419506 c -0.03115,0.202453 -0.06229,0.404905 -0.04672,0.607358 0.327039,0.202454 0.638505,-0.04672 0.949971,-0.171306 0.264745,-0.436052 0.342612,-0.949971 0.467199,-1.432743 -0.529492,0.218027 -1.043411,0.513919 -1.37045,0.996691 z"
     id="path1" />
  <path
     fill="#ffffff"
     stroke="#ffffff"
     stroke-width="0.0146"
     opacity="1"
     d="m 239.14066,19.917757 c 0.0779,-0.311465 0.26475,-0.638504 0.56064,-0.778664 0.4672,-0.04672 0.94997,-0.01557 1.41717,-0.03115 5.80884,0 11.63325,0.01557 17.44209,0 0.21803,0.03115 0.48277,-0.04672 0.65407,0.155733 0.2336,0.280319 0.43605,0.591786 0.68523,0.856531 -0.28032,0.513919 -0.18688,1.136851 -0.0467,1.666343 0.10901,0.513918 0,1.04341 -0.12459,1.541755 0.42048,0.09344 0.85653,0.18688 1.21472,0.436052 0.28032,0.218027 0.37376,0.591786 0.48277,0.918825 0.20246,0.747518 0.37376,1.495036 0.56064,2.226982 0.40491,1.308156 0.60736,2.647459 1.04341,3.940042 0.24918,0.918825 0.45163,1.853222 0.7008,2.772046 0.42048,1.339304 0.7008,2.709753 1.04341,4.06463 0.34261,1.058984 0.52949,2.149115 0.8721,3.192525 0.31147,1.152424 0.56064,2.335994 0.91883,3.488418 0.29589,1.105704 0.51392,2.226981 0.80981,3.317112 0.35819,1.105704 0.57621,2.242553 0.88768,3.348257 0.35819,1.090131 0.59179,2.211408 0.87211,3.301538 0.38933,1.339304 0.6385,2.725327 1.07455,4.049057 0.29589,0.887677 0.10901,1.884369 -0.43605,2.64746 -0.20245,0.311466 -0.48277,0.778665 -0.91882,0.622932 -0.40491,-0.109014 -0.88768,0.03115 -1.10571,0.389332 0.40491,0.01557 0.84096,0.03115 1.26144,0 0.32704,-0.155733 0.57621,-0.420479 0.91883,-0.560639 0.26473,-0.03115 0.52948,-0.03115 0.8098,-0.03115 0.14016,0.155734 0.34261,0.295894 0.40491,0.513919 0.23359,0.809812 0.38933,1.619622 0.59178,2.429434 0.38933,1.245864 0.65408,2.538447 0.99669,3.799884 0.21803,0.685225 0.10902,1.432742 0.12459,2.149114 -0.40491,0.18688 -0.99669,0.218027 -1.21472,0.669652 0.37376,0.420479 1.02784,0.716372 0.98112,1.37045 0.24917,0.26474 0.49835,0.54506 0.82539,0.7008 0.18688,0.10901 0.45162,0.15573 0.59178,0.34261 0.26475,0.54506 0.32704,1.13684 0.49835,1.69748 0.42048,1.27702 0.63851,2.61632 1.05898,3.89333 0.20245,0.82538 0.4049,1.65077 0.60735,2.47615 0.24918,0.98112 0.42048,1.99339 0.90326,2.89664 0.20245,0.29588 -0.0156,0.62292 -0.0311,0.93439 -0.0156,0.42048 -0.0312,0.84096 0.0779,1.24586 0.0623,0.31147 0.20245,0.63851 0.0779,0.94998 -0.2336,0.38933 -0.71637,0.52949 -0.98112,0.90325 0.66966,0.24917 1.33931,0.52949 1.94667,0.9344 0.15573,0.2336 0.2336,0.52949 0.48277,0.70079 -0.0467,-0.82538 0.20246,-1.61962 0.54507,-2.35156 0.71637,0.10901 1.37045,0.43605 2.07124,0.59178 0.34261,0.0623 0.68523,0.14016 1.02784,0.21803 0.62293,0.63851 1.4016,1.15243 2.25813,1.43275 0.35819,0.23359 0.2336,0.73193 0.26475,1.10569 -0.21803,0.18688 -0.43605,0.38933 -0.62293,0.62293 -0.2336,0.31147 -0.34262,0.7008 -0.59179,1.01227 -0.42048,0.0467 -0.82539,0.0156 -1.24587,0.0156 -7.73992,0 -15.46428,0 -23.20421,0 -0.46719,0 -0.93439,0.0311 -1.40159,-0.0311 l 0.0311,-0.15574 c 0.62293,-0.20245 1.18357,-0.57621 1.83764,-0.68522 0.21803,-0.0156 0.4672,-0.18688 0.45163,-0.42048 -0.54507,-0.45163 -1.21471,-0.73195 -1.69748,-1.26144 -0.28032,-0.28031 -0.5295,-0.6385 -0.91883,-0.73194 -0.45162,-0.14016 -0.90325,-0.2336 -1.3393,-0.34261 -0.12459,0.20245 -0.28032,0.40491 -0.37376,0.62293 0.26474,0.32703 0.71637,0.46719 0.88768,0.8721 -0.0467,0.0623 -0.14016,0.20245 -0.20246,0.26474 -0.52949,-0.0311 -1.05898,-0.0311 -1.58848,0 -0.26474,-0.29589 -0.31146,-0.70079 -0.4672,-1.0434 -0.0623,-0.18688 -0.20245,-0.34261 -0.1713,-0.54506 1.41717,-1.12128 2.81877,-2.25814 4.18922,-3.44171 0.18688,-0.15573 0.43605,-0.24917 0.56064,-0.45162 0.0623,-0.66966 -0.0779,-1.3393 0.10901,-1.97781 0.10901,-0.45162 0,-0.94997 0.1713,-1.38602 0.17131,-0.49835 -0.46719,-0.71637 -0.76308,-0.96555 -0.14016,-0.66965 -0.40491,-1.30816 -0.74752,-1.89994 -0.34261,-0.59178 -0.42048,-1.26143 -0.59179,-1.89994 -0.0934,-0.56064 -0.31146,-1.13685 -0.15573,-1.71306 0.0623,-0.2336 0.0934,-0.48278 0.12459,-0.73195 -0.18688,-0.14016 -0.37376,-0.28032 -0.57622,-0.38933 -0.4049,-1.21471 -0.56064,-2.47615 -0.90325,-3.70644 -0.15573,-0.451625 -0.10901,-0.94997 -0.37376,-1.339302 -3.67529,0.01557 -7.35059,0 -11.01032,0 -0.4672,1.401596 -0.74752,2.881062 -1.168,4.298232 -0.28032,1.15241 -0.65407,2.27369 -0.91881,3.42612 -0.20246,-0.14016 -0.35819,-0.35819 -0.59179,-0.43605 -0.29589,0.0623 -0.51392,0.29589 -0.76309,0.45162 0.0623,0.37376 0.24917,0.71637 0.37376,1.07456 0.12458,0.88768 -0.45163,1.65076 -0.59179,2.49172 0.0934,0.38934 0.2336,0.77867 0.10901,1.168 -0.24917,0.94997 -0.29589,1.94667 -0.59178,2.88106 -0.0312,0.18688 -0.14016,0.38933 -0.0312,0.56064 1.27701,1.01226 2.50731,2.07125 3.76874,3.09909 0.38933,0.26474 0.66965,0.68522 1.09013,0.91882 0.15573,0.43606 0.20245,0.88767 0.32704,1.3393 0.0623,0.26474 0.20245,0.52949 0.0934,0.80981 -0.14016,0.40491 -0.0779,0.84096 -0.0779,1.24587 -0.60736,0.0623 -1.23029,0.0311 -1.83765,0.0311 -3.06794,0 -6.12031,0 -9.18824,0 -0.90325,0.0623 -1.77536,-0.21802 -2.66303,-0.37376 -0.62293,-0.0623 -1.09013,-0.52949 -1.5729,-0.88768 -0.43606,-0.20245 -1.02784,-0.12458 -1.26144,-0.62293 0.29589,-0.59178 0.45162,-1.30815 0.14016,-1.91551 -0.62294,0.18688 -1.19915,0.59179 -1.44832,1.21471 l 0.0467,0.10902 c 0.31146,0.0311 0.54506,-0.31146 0.85653,-0.31146 0.17131,0.18687 0.15573,0.48276 0.24917,0.73193 0.14016,0.68523 0.38934,1.35488 0.5295,2.05568 -2.13355,0.0311 -4.26708,-0.0156 -6.40063,0.0156 -0.73195,0.0779 -1.43274,-0.49835 -1.68192,-1.168 0.0311,-0.4672 0.18688,-0.9344 0.17131,-1.43275 0.62293,-0.48276 1.30816,-0.91881 1.89994,-1.44831 0.85654,-0.68522 1.80651,-1.29258 2.6319,-2.00896 1.07454,-0.82538 2.1491,-1.60405 3.22366,-2.41385 0.17131,-0.17131 0.21803,-0.42048 0.28032,-0.63851 0.85654,-3.22367 1.88437,-6.4162 2.7409,-9.65545 0.98112,-3.208086 1.8688,-6.431758 2.77205,-9.65543 0.34261,-1.09013 0.54506,-2.273701 1.29258,-3.176951 0.20246,-0.07787 0.40491,-0.09344 0.60736,-0.171307 0.38934,-0.327039 0.43606,-0.872104 0.54507,-1.323729 0.0623,-0.576212 0.0467,-1.152424 -0.0156,-1.728636 -0.2336,0.14016 -0.45163,0.327039 -0.68523,0.467199 0.74752,-2.756473 1.58847,-5.4818 2.35156,-8.238273 0.80981,-2.881059 1.69749,-5.762118 2.47616,-8.658751 0.18688,-0.763091 0.48277,-1.495035 0.66965,-2.258127 0.32704,-1.043411 0.56064,-2.102395 0.94997,-3.114659 0.28032,-0.109013 0.56064,-0.202453 0.85653,-0.249173 0,0.264747 0,0.513919 0.0156,0.778665 0.38933,0.01557 0.76309,0.14016 1.168,0.171307 0.45163,0.04672 0.84096,0.295892 1.26144,0.436052 -0.17131,-0.32704 -0.43605,-0.607359 -0.56064,-0.965544 0.0779,-0.171307 0.15573,-0.32704 0.26475,-0.498346 -0.51392,0 -1.02784,-0.01557 -1.52619,0 -0.0934,-0.685225 -0.34261,-1.37045 -0.80981,-1.884368 0.0156,-0.249173 0.0156,-0.513919 0.0934,-0.747519 0.59178,-1.868794 1.07456,-3.78431 1.68192,-5.653105 -0.80982,-0.716371 -1.69749,-1.32373 -2.50731,-2.040102 -0.31145,-0.327039 -0.70079,-0.545065 -1.05897,-0.825384 -0.74752,-0.591785 -1.47947,-1.214717 -2.24256,-1.790929 -0.14016,-0.109013 -0.35819,-0.218025 -0.31147,-0.420479 0,-0.467198 0.21803,-0.918823 0.15574,-1.401596 0.0467,-0.404906 -0.21803,-0.731945 -0.31147,-1.090131 m 11.05704,27.237691 c -0.28032,0.934397 -0.51392,1.884368 -0.80982,2.818765 -0.4049,1.728636 -0.96554,3.410552 -1.33929,5.139187 -0.29589,0.965544 -0.51392,1.946662 -0.77867,2.912207 -0.21802,0.700797 -0.38933,1.401596 -0.54506,2.102394 1.37045,0.06229 2.77204,0 4.15806,0.03115 0.31147,0.202452 0.4672,0.576212 0.66966,0.872104 -0.10902,0.171306 -0.31147,0.249173 -0.45163,0.389332 0.54507,0.249173 1.10571,0.482773 1.69749,0.638505 0.54507,0.04672 1.02783,-0.295892 1.55732,-0.295892 0.37376,0.04672 0.73195,0.171305 1.10571,0.202452 -0.18688,-0.747517 -0.51392,-1.448316 -0.77867,-2.164688 -0.0623,-0.155732 -0.18688,-0.451625 -0.37376,-0.249172 -0.31146,0.404905 -0.63849,0.794238 -0.96553,1.183571 -0.21803,-0.731946 -0.37376,-1.479464 -0.48277,-2.242555 -0.65408,-2.896633 -1.32374,-5.793265 -2.02454,-8.674324 -0.2336,-0.887678 -0.28032,-1.822076 -0.6385,-2.663033 z"
     id="path2" />
  <path
     fill="#ffffff"
     stroke="#ffffff"
     stroke-width="0.0146"
     opacity="1"
     d="m 163.76592,33.622255 c 0.14016,-0.545065 0.0156,-1.105704 0.15573,-1.635196 0.0779,0.529492 0.0311,1.090131 0.0467,1.635196 0,5.139187 -0.0156,10.278375 0,15.417561 -0.31146,-0.04672 -0.21802,-0.404906 -0.2336,-0.622932 0.0623,-1.245863 -0.10901,-2.5073 0.10902,-3.73759 0.0311,-0.373759 -0.0467,-0.731945 -0.0934,-1.090131 -0.0311,-0.778664 -0.0467,-1.557329 0.0623,-2.335994 -0.14016,-0.872104 -0.0623,-1.759781 -0.0623,-2.64746 -0.0311,-0.467198 0.1713,-0.918824 0.0467,-1.386022 -0.14016,-0.467199 0.12458,-0.934399 0.0467,-1.417171 -0.14016,-0.716371 -0.15574,-1.448316 -0.0779,-2.180261 z"
     id="path3" />
  <path
     fill="#ffffff"
     stroke="#ffffff"
     stroke-width="0.0146"
     opacity="1"
     d="m 181.67521,65.111455 c -0.2336,-0.576212 -0.59179,-1.37045 -0.12459,-1.899942 0.14016,0.295893 0.37376,0.591785 0.35819,0.934397 -0.0156,0.32704 0.12459,0.763092 -0.2336,0.965545 z"
     id="path4" />
  <path
     fill="#ffffff"
     stroke="#ffffff"
     stroke-width="0.0146"
     opacity="1"
     d="m 85.323246,73.739057 c 0.90325,-0.59178 2.055674,-0.62293 3.099085,-0.52949 0.529492,0.21803 1.167997,0.21803 1.619622,0.60735 0.171307,0.17131 0.295892,0.38934 0.404906,0.60736 -0.07787,0.20246 -0.171306,0.40491 -0.280319,0.60736 -0.18688,0.80982 0.06229,1.61963 -0.03115,2.42944 -0.171306,0.37376 -0.451625,0.7008 -0.809812,0.90325 -0.560638,0.34262 -1.13685,0.66966 -1.775354,0.79423 -0.404907,0.0311 -0.825385,0.0311 -1.230291,0 -0.825385,-0.15572 -1.479463,-0.79423 -1.822075,-1.54175 -0.264746,-0.38933 -0.451626,-0.85653 -0.887678,-1.09013 -0.513918,-0.4049 -1.199143,-0.29589 -1.790929,-0.43605 0.01557,-0.0311 0.07787,-0.10901 0.09344,-0.14016 0.685225,-0.34261 1.448316,-0.59179 2.055675,-1.07456 0.436052,-0.40491 0.981117,-0.66965 1.354877,-1.13685 z"
     id="path5" />
  <path
     fill="#ffffff"
     stroke="#ffffff"
     stroke-width="0.0146"
     opacity="1"
     d="m 262.32929,95.510517 c 1.09014,-0.21802 2.2737,0.0934 3.08351,0.87211 1.26144,1.1057 1.46389,3.16138 0.49835,4.531833 -0.63851,0.91882 -1.69748,1.55733 -2.83434,1.54175 -1.46389,0.0623 -2.83434,-0.9344 -3.34826,-2.28927 -0.35819,-1.027833 -0.24917,-2.258133 0.38933,-3.161383 0.51392,-0.74752 1.30816,-1.33931 2.21141,-1.49504 z"
     id="path6" />
  <path
     fill="#ffffff"
     stroke="#ffffff"
     stroke-width="0.0146"
     opacity="1"
     d="m 188.96351,97.317027 c 2.18026,-0.56064 4.36053,-1.12128 6.52521,-1.71307 -0.31147,6.525213 -0.77867,13.034853 -1.04342,19.560063 1.04342,0.73195 2.14912,1.37046 3.20811,2.07126 -1.37045,1.30814 -2.69419,2.69417 -3.86218,4.20478 -1.75978,-0.29589 -3.50399,-1.30816 -4.34495,-2.92778 -0.88768,-1.61962 -0.91883,-3.51956 -0.84096,-5.3105 0.21803,-5.29491 0.28032,-10.58983 0.35819,-15.884753 z"
     id="path7" />
  <path
     fill="#ffffff"
     stroke="#ffffff"
     stroke-width="0.0146"
     opacity="1"
     d="m 176.81634,103.9824 c 0.20246,-0.18688 0.49834,-0.10901 0.76309,-0.12459 1.55733,0.0779 3.13024,0.12459 4.65642,0.40491 1.93108,0.35818 3.62857,1.8688 4.12692,3.76873 0.12459,0.59179 0.29589,1.23029 0.17131,1.80651 -1.88437,0.34261 -3.75317,0.82538 -5.5441,1.51061 -0.15573,-0.52949 -0.32703,-1.07456 -0.65407,-1.51061 -0.38934,-0.54507 -0.9967,-0.90326 -1.65078,-1.05899 -0.12458,1.52619 -0.29589,3.05237 -0.32704,4.57855 -0.0311,0.65408 0.18688,1.35488 0.7008,1.79093 0.62294,0.56064 1.43275,0.84096 2.22699,1.07456 0.91882,0.24917 1.93108,0.40491 2.81876,-0.0311 0.77867,-0.34261 1.30816,-1.01226 1.88437,-1.60405 -0.10901,0.54507 -0.35819,1.05899 -0.57621,1.55733 -0.56064,1.23029 -1.30816,2.42943 -2.38272,3.28596 -1.05898,0.80982 -2.41385,1.13686 -3.72201,1.21472 -1.43275,0.0934 -2.91221,0 -4.20479,-0.6385 -1.09013,-0.54507 -2.02453,-1.4639 -2.44501,-2.63189 -0.4672,-1.27701 -0.56064,-2.66303 -0.5295,-4.01791 -0.0156,-1.82207 0.0779,-3.64415 0.15574,-5.45065 -0.0311,-0.2336 0.1713,-0.35819 0.29589,-0.48278 1.33931,-1.23028 2.75648,-2.38271 4.23594,-3.44169 z"
     id="path8" />
  <path
     fill="#ffffff"
     stroke="#ffffff"
     stroke-width="0.0146"
     opacity="1"
     d="m 275.23956,103.9824 c 0.20245,-0.18688 0.49834,-0.10901 0.76308,-0.12459 1.55733,0.0779 3.13024,0.12459 4.65642,0.40491 1.77535,0.32704 3.33269,1.60405 3.97119,3.30153 0.2336,0.71638 0.4672,1.52619 0.31147,2.27371 -1.88437,0.34261 -3.7376,0.82538 -5.52852,1.51061 -0.17131,-0.56064 -0.34261,-1.13685 -0.71637,-1.60405 -0.40491,-0.49835 -0.98112,-0.82539 -1.58848,-0.96555 -0.12459,1.52619 -0.2959,3.05237 -0.32704,4.57855 -0.0312,0.59178 0.14016,1.19914 0.54506,1.6352 0.60736,0.6385 1.4639,0.9344 2.27371,1.19914 0.9344,0.26475 2.00895,0.45163 2.92777,0 0.7631,-0.34261 1.30816,-1.01226 1.88438,-1.60405 -0.10902,0.54507 -0.35819,1.05899 -0.57622,1.55733 -0.56064,1.23029 -1.30816,2.42943 -2.38272,3.28596 -1.05897,0.80982 -2.41385,1.13686 -3.72201,1.21472 -1.41717,0.0934 -2.9122,0 -4.20479,-0.6385 -1.09013,-0.54507 -2.02453,-1.4639 -2.44501,-2.63189 -0.4672,-1.27701 -0.56064,-2.66303 -0.52949,-4.01791 -0.0156,-1.82207 0.0779,-3.64415 0.15573,-5.46623 -0.0311,-0.21802 0.17131,-0.34261 0.2959,-0.4672 1.3393,-1.23028 2.75647,-2.38271 4.23594,-3.44169 z"
     id="path9" />
  <path
     fill="#ffffff"
     stroke="#ffffff"
     stroke-width="0.0146"
     opacity="1"
     d="m 223.83211,104.16928 c 0.31147,-0.2336 0.73195,-0.12459 1.09014,-0.10902 3.02121,0.24918 6.04243,0.37376 9.06365,0.38934 -0.40491,1.55733 -0.94997,3.06793 -1.12128,4.67198 -1.24586,-0.4672 -2.56959,-0.68522 -3.87775,-0.88767 -1.5729,-0.21803 -3.1458,-0.42048 -4.7187,-0.51392 0.35818,1.13685 1.43274,1.89994 2.53844,2.22698 1.91552,0.63851 3.94005,0.35819 5.91785,0.52949 0.63851,0.0467 1.30816,0.10902 1.8688,0.42048 0.68522,0.37376 1.13685,1.09013 1.24586,1.83765 0.2336,1.51061 -0.14016,3.06794 -0.90325,4.3761 -0.48277,0.8098 -1.05898,1.58847 -1.88437,2.05567 -2.78761,1.52618 -6.08916,1.91552 -9.20381,1.52618 -1.65078,-0.20245 -3.28596,-0.7008 -4.71871,-1.55733 0.28032,-0.96555 0.66965,-1.88436 1.02784,-2.80319 1.57289,0.62294 3.22367,1.05898 4.90559,1.19914 1.19914,0.0779 2.445,0.18688 3.613,-0.15573 0.65408,-0.18687 1.26144,-0.49834 1.83765,-0.82538 -0.66965,-0.59179 -1.58848,-0.84096 -2.47616,-0.85653 -0.98112,0.0156 -1.96223,0.0934 -2.95892,0.0311 -1.66635,-0.10901 -3.39499,-0.34261 -4.82772,-1.27701 -1.13685,-0.73195 -1.66635,-2.11797 -1.66635,-3.42612 -0.0779,-1.49504 0.38934,-3.0368 1.43275,-4.12693 1.07455,-1.13684 2.445,-1.94666 3.81545,-2.72532 z"
     id="path10" />
  <path
     fill="#ffffff"
     stroke="#ffffff"
     stroke-width="0.0146"
     opacity="1"
     d="m 243.23643,104.41845 c 0.35819,-0.18688 0.73195,-0.48277 1.168,-0.38933 3.13024,0.26474 6.27604,0.4049 9.43741,0.42048 -0.38932,1.54176 -0.99668,3.05236 -1.09012,4.67198 -1.35488,-0.48277 -2.77205,-0.71637 -4.17365,-0.91882 -1.47945,-0.20245 -2.95892,-0.38933 -4.45396,-0.48277 0.34261,1.1057 1.37045,1.85322 2.42944,2.19583 2.22697,0.7631 4.60969,0.28032 6.8834,0.65408 0.60735,0.0934 1.21471,0.35819 1.63519,0.82539 0.49834,0.51391 0.65408,1.26143 0.68522,1.96223 0.0779,1.82208 -0.65408,3.62858 -1.85322,4.98345 -0.46719,0.54507 -1.07455,0.91883 -1.71306,1.19915 -2.72533,1.23029 -5.80884,1.54176 -8.75219,1.12128 -1.55733,-0.2336 -3.11466,-0.7008 -4.45396,-1.55734 0.31146,-0.9344 0.65408,-1.86878 1.05898,-2.78761 1.80651,0.79424 3.78431,1.18356 5.74655,1.277 0.88768,0.0467 1.8065,0.0311 2.66303,-0.20245 0.66965,-0.1713 1.29258,-0.49834 1.89994,-0.82538 -0.29589,-0.35818 -0.74752,-0.49834 -1.168,-0.65408 -1.13684,-0.4049 -2.36713,-0.10901 -3.55071,-0.15573 -1.83765,-0.0623 -3.76873,-0.24917 -5.38836,-1.21472 -0.96554,-0.56064 -1.5729,-1.61962 -1.72863,-2.72532 -0.24918,-1.6352 0.0623,-3.4417 1.16799,-4.71872 0.98112,-1.13684 2.27371,-1.91551 3.55071,-2.6786 z"
     id="path11" />
  <path
     fill="#ffffff"
     stroke="#ffffff"
     stroke-width="0.0146"
     opacity="1"
     d="m 202.06065,106.84788 c 0.98112,-0.96554 2.00896,-1.89994 3.11465,-2.7409 2.1647,0.40491 4.34496,0.79424 6.49407,1.26144 1.52618,0.2959 2.9745,1.35487 3.48842,2.86549 0.62293,1.72863 0.49834,3.613 0.48277,5.43507 -0.0156,2.07126 -0.18687,4.15807 0.10901,6.21375 -2.18026,0.42048 -4.3138,1.05899 -6.44734,1.6352 0.24918,-2.35157 0.31147,-4.71871 0.31147,-7.07028 -1.82208,2.24256 -3.86218,4.29823 -5.87113,6.38505 -0.14016,0.15574 -0.28032,0.31147 -0.45163,0.45163 -1.168,-0.24917 -2.30485,-0.65408 -3.41056,-1.10571 -0.24917,-1.8065 -0.54506,-3.59742 -0.60736,-5.4195 -0.10901,-1.68192 0,-3.4417 0.68523,-4.99903 0.48277,-1.12128 1.27701,-2.05568 2.1024,-2.91221 m 3.05236,1.83765 c 0.0934,2.49173 0.28032,4.96788 0.40491,7.45961 1.3393,-1.46389 2.47616,-3.11466 3.50399,-4.81214 0.0934,-0.18688 0.24918,-0.35819 0.28032,-0.56064 -0.99669,-1.29259 -2.66303,-1.74422 -4.18922,-2.08683 z"
     id="path12" />
  <path
     fill="#ffffff"
     stroke="#ffffff"
     stroke-width="0.0146"
     opacity="1"
     d="m 258.57613,106.91017 c 2.80319,-0.54505 5.4818,-1.61961 8.08254,-2.80319 0,0.94998 0,1.89995 0,2.86549 -0.14016,4.3761 0.1713,8.76777 0.4049,13.14386 -2.25813,0.40491 -4.51625,0.74752 -6.78995,1.02784 0.37376,-3.94004 0.24917,-7.92681 0.18688,-11.88243 -0.9967,0.32704 -2.0401,0.32704 -3.05236,0.17131 0.10901,-0.77867 0.29589,-1.55733 0.48277,-2.336 0.20245,-0.14016 0.45162,-0.12458 0.68522,-0.18688 z"
     id="path13" />
</svg>
