<?xml version="1.0" encoding="UTF-8" standalone="no"?>
<svg
   version="1.2"
   id="Ebene_1"
   x="0px"
   y="0px"
   viewBox="0 0 379.99759 55.131998"
   width="379.99759"
   height="55.132"
   xmlns="http://www.w3.org/2000/svg"
   xmlns:svg="http://www.w3.org/2000/svg">
  <defs
     id="defs1" />
  <path
     d="M 8.4239804,55.130592 C 3.7718265,55.130592 0,51.358766 0,46.706612 V 8.4239804 C 0,3.7711228 3.7718265,0 8.4239804,0 13.075431,0 16.847257,3.7704191 16.847257,8.4239804 V 46.705908 c 0,4.652858 -3.771826,8.424684 -8.4232766,8.424684 z"
     id="path4"
     style="fill:#ffffff;fill-opacity:1;stroke-width:0.703699" />
  <path
     d="M 122.66036,19.745089 H 97.232198 v -4.582487 h 25.428162 c 4.18631,0 7.58025,-3.39394 7.58025,-7.5802456 0,-4.1877126 -3.39394,-7.58165270103 -7.58025,-7.58165270103 H 87.965889 c -4.187008,0 -7.580948,3.39394010103 -7.580948,7.58165270103 0,0.1421472 0,39.1242556 0,39.1242556 0,4.652154 3.771827,8.42398 8.42398,8.42398 4.65145,0 8.423277,-3.771826 8.423277,-8.42398 V 34.906284 h 25.428162 c 4.18631,0 7.58025,-3.39394 7.58025,-7.580949 7e-4,-4.186306 -3.39324,-7.580246 -7.58025,-7.580246 z"
     id="path8"
     style="fill:#ffffff;fill-opacity:1;stroke-width:0.703699" />
  <path
     d="M 379.67093,44.24437 368.76571,6.2108471 C 368.12112,3.9597141 366.61168,2.192726 364.70325,1.1611033 363.53793,0.43066377 362.1629,0.0014074 360.68584,0.0014074 h -40.01233 c -0.26248,0 -0.52144,0.01337028 -0.77618,0.03940714 -4.28694,0.39266402 -7.6478,3.99278796 -7.6478,8.38457326 V 46.707316 c 0,4.652153 3.77042,8.42398 8.42398,8.42398 4.65145,0 8.42328,-3.771827 8.42328,-8.42398 V 15.162602 h 3.73031 v 31.545417 c 0,4.652154 3.77182,8.423981 8.42397,8.423981 4.65075,0 8.42188,-3.771827 8.42188,-8.423981 V 15.162602 h 4.24119 l 9.66319,33.696625 c 1.05273,3.673309 4.40234,6.067996 8.04258,6.067996 0.76351,0 1.53969,-0.104851 2.31165,-0.326517 4.44315,-1.277212 7.01447,-5.912478 5.73937,-10.356336 z"
     id="path10"
     style="fill:#ffffff;fill-opacity:1;stroke-width:0.703699" />
  <path
     d="m 175.85086,7.0369897e-4 h -28.60607 c -7.95884,0 -14.47157,6.51132660103 -14.47157,14.47086630103 v 26.187452 c 0,7.95954 6.51273,14.470866 14.47157,14.470866 h 28.60607 c 7.95954,0 14.47156,-6.511326 14.47156,-14.470866 V 14.472273 c 0,-7.959539 -6.51202,-14.47156930103 -14.47156,-14.47156930103 z M 173.99098,37.800598 c 0,0.926771 -0.75859,1.684655 -1.68466,1.684655 h -21.517 c -0.92678,0 -1.68536,-0.757884 -1.68536,-1.684655 V 17.329994 c 0,-0.925364 0.75858,-1.683951 1.68536,-1.683951 h 21.517 c 0.92607,0 1.68466,0.758587 1.68466,1.683951 z"
     id="path12"
     style="fill:#ffffff;fill-opacity:1;stroke-width:0.703699" />
  <path
     d="m 294.35446,7.0369897e-4 h -28.60677 c -7.95743,0 -14.47156,6.51132660103 -14.47156,14.47086630103 v 26.187452 c 0,7.95954 6.51413,14.470866 14.47156,14.470866 h 28.60677 c 7.95954,0 14.47017,-6.511326 14.47017,-14.470866 V 14.472273 C 308.82463,6.512734 302.314,7.0369897e-4 294.35446,7.0369897e-4 Z M 292.49388,37.800598 c 0,0.926771 -0.75858,1.684655 -1.68325,1.684655 h -21.517 c -0.92676,0 -1.68536,-0.757884 -1.68536,-1.684655 V 17.329994 c 0,-0.925364 0.7586,-1.683951 1.68536,-1.683951 h 21.517 c 0.92467,0 1.68325,0.758587 1.68325,1.683951 z"
     id="path14"
     style="fill:#ffffff;fill-opacity:1;stroke-width:0.703699" />
  <path
     d="M 74.033354,7.0369897e-4 H 24.388095 c -2.109689,0 -3.819677,1.70998850103 -3.819677,3.81897430103 v 42.886934 c 0,4.652154 3.771826,8.42398 8.42398,8.42398 4.652153,0 8.326166,-3.771826 8.326166,-8.42398 V 17.322957 c 0,-0.925364 0.757884,-1.683248 1.684655,-1.683248 h 20.255975 c 0.926068,0 1.745878,0.757884 1.745878,1.683248 v 29.382951 c 0,4.652154 3.771825,8.42398 8.42398,8.42398 4.652153,0 8.42398,-3.771826 8.42398,-8.42398 V 14.797382 3.8203817 c 0,-2.1096895 -1.709988,-3.81967800103 -3.819678,-3.81967800103 z"
     id="path16"
     style="fill:#ffffff;fill-opacity:1;stroke-width:0.703699" />
  <path
     d="m 242.21177,39.485957 h -30.11478 c -0.92678,0 -1.68466,-0.757884 -1.68466,-1.684655 V 17.329994 c 0,-0.925364 0.75788,-1.683951 1.68466,-1.683951 h 30.11478 c 4.31861,0 7.82373,-3.500903 7.82373,-7.8230215 C 250.0355,3.5037171 246.53249,0 242.21177,0 h -10.91225 -21.44875 -1.80006 c -7.91732,0 -14.39557,6.477549 -14.39557,14.39557 v 26.338749 c 0,7.915205 6.47825,14.395569 14.39557,14.395569 h 1.80006 21.44875 10.91225 c 4.31861,0 7.82373,-3.501606 7.82373,-7.824428 0,-4.320008 -3.50301,-7.819503 -7.82373,-7.819503 z"
     id="path18"
     style="fill:#ffffff;fill-opacity:1;stroke-width:0.703699" />
</svg>
